<?xml version="1.0" encoding="utf-8" standalone="no"?>
<!DOCTYPE svg PUBLIC "-//W3C//DTD SVG 1.1//EN"
  "http://www.w3.org/Graphics/SVG/1.1/DTD/svg11.dtd">
<svg xmlns:xlink="http://www.w3.org/1999/xlink" width="648pt" height="504pt" viewBox="0 0 648 504" xmlns="http://www.w3.org/2000/svg" version="1.1">
 <metadata>
  <rdf:RDF xmlns:dc="http://purl.org/dc/elements/1.1/" xmlns:cc="http://creativecommons.org/ns#" xmlns:rdf="http://www.w3.org/1999/02/22-rdf-syntax-ns#">
   <cc:Work>
    <dc:type rdf:resource="http://purl.org/dc/dcmitype/StillImage"/>
    <dc:date>2026-05-24T23:05:08.125275</dc:date>
    <dc:format>image/svg+xml</dc:format>
    <dc:creator>
     <cc:Agent>
      <dc:title>Matplotlib v3.10.9, https://matplotlib.org/</dc:title>
     </cc:Agent>
    </dc:creator>
   </cc:Work>
  </rdf:RDF>
 </metadata>
 <defs>
  <style type="text/css">*{stroke-linejoin: round; stroke-linecap: butt}</style>
 </defs>
 <g id="figure_1">
  <g id="patch_1">
   <path d="M 0 504 
L 648 504 
L 648 0 
L 0 0 
z
" style="fill: #ffffff"/>
  </g>
  <g id="axes_1">
   <g id="LineCollection_1">
    <path d="M 560.36093 300.669248 
L 566.025885 337.064607 
" clip-path="url(#pf8c45be9f0)" style="fill: none; stroke: #000000; stroke-opacity: 0.45; stroke-width: 1.193725"/>
    <path d="M 560.36093 300.669248 
L 601.699982 272.402569 
" clip-path="url(#pf8c45be9f0)" style="fill: none; stroke: #000000; stroke-opacity: 0.45; stroke-width: 1.134847"/>
    <path d="M 560.36093 300.669248 
L 532.296997 297.907446 
" clip-path="url(#pf8c45be9f0)" style="fill: none; stroke: #000000; stroke-opacity: 0.45; stroke-width: 1.522497"/>
    <path d="M 560.36093 300.669248 
L 549.885827 338.79647 
" clip-path="url(#pf8c45be9f0)" style="fill: none; stroke: #000000; stroke-opacity: 0.45; stroke-width: 2.434699"/>
    <path d="M 560.36093 300.669248 
L 559.469313 362.125332 
" clip-path="url(#pf8c45be9f0)" style="fill: none; stroke: #000000; stroke-opacity: 0.45; stroke-width: 1.3"/>
    <path d="M 560.36093 300.669248 
L 589.530313 369.245437 
" clip-path="url(#pf8c45be9f0)" style="fill: none; stroke: #000000; stroke-opacity: 0.45; stroke-width: 0.824264"/>
    <path d="M 601.699982 272.402569 
L 566.025885 337.064607 
" clip-path="url(#pf8c45be9f0)" style="fill: none; stroke: #000000; stroke-opacity: 0.45"/>
    <path d="M 601.699982 272.402569 
L 559.469313 362.125332 
" clip-path="url(#pf8c45be9f0)" style="fill: none; stroke: #000000; stroke-opacity: 0.45; stroke-width: 0.824264"/>
    <path d="M 601.699982 272.402569 
L 549.885827 338.79647 
" clip-path="url(#pf8c45be9f0)" style="fill: none; stroke: #000000; stroke-opacity: 0.45; stroke-width: 0.824264"/>
    <path d="M 549.885827 338.79647 
L 566.025885 337.064607 
" clip-path="url(#pf8c45be9f0)" style="fill: none; stroke: #000000; stroke-opacity: 0.45; stroke-width: 3.24605"/>
    <path d="M 549.885827 338.79647 
L 541.412245 367.348415 
" clip-path="url(#pf8c45be9f0)" style="fill: none; stroke: #000000; stroke-opacity: 0.45; stroke-width: 2.542429"/>
    <path d="M 549.885827 338.79647 
L 559.469313 362.125332 
" clip-path="url(#pf8c45be9f0)" style="fill: none; stroke: #000000; stroke-opacity: 0.45; stroke-width: 3.230194"/>
    <path d="M 549.885827 338.79647 
L 490.259189 414.22781 
" clip-path="url(#pf8c45be9f0)" style="fill: none; stroke: #000000; stroke-opacity: 0.45"/>
    <path d="M 549.885827 338.79647 
L 532.296997 297.907446 
" clip-path="url(#pf8c45be9f0)" style="fill: none; stroke: #000000; stroke-opacity: 0.45; stroke-width: 1.561895"/>
    <path d="M 549.885827 338.79647 
L 589.530313 369.245437 
" clip-path="url(#pf8c45be9f0)" style="fill: none; stroke: #000000; stroke-opacity: 0.45; stroke-width: 1.248528"/>
    <path d="M 461.154162 112.656743 
L 532.296997 297.907446 
" clip-path="url(#pf8c45be9f0)" style="fill: none; stroke: #000000; stroke-opacity: 0.45; stroke-width: 0.7"/>
    <path d="M 566.025885 337.064607 
L 559.469313 362.125332 
" clip-path="url(#pf8c45be9f0)" style="fill: none; stroke: #000000; stroke-opacity: 0.45; stroke-width: 2.367232"/>
    <path d="M 566.025885 337.064607 
L 589.530313 369.245437 
" clip-path="url(#pf8c45be9f0)" style="fill: none; stroke: #000000; stroke-opacity: 0.45; stroke-width: 1.348683"/>
    <path d="M 566.025885 337.064607 
L 541.412245 367.348415 
" clip-path="url(#pf8c45be9f0)" style="fill: none; stroke: #000000; stroke-opacity: 0.45; stroke-width: 1.741641"/>
    <path d="M 566.025885 337.064607 
L 532.296997 297.907446 
" clip-path="url(#pf8c45be9f0)" style="fill: none; stroke: #000000; stroke-opacity: 0.45; stroke-width: 1.248528"/>
    <path d="M 566.025885 337.064607 
L 583.223972 454.195776 
" clip-path="url(#pf8c45be9f0)" style="fill: none; stroke: #000000; stroke-opacity: 0.45; stroke-width: 0.7"/>
    <path d="M 532.296997 297.907446 
L 541.412245 367.348415 
" clip-path="url(#pf8c45be9f0)" style="fill: none; stroke: #000000; stroke-opacity: 0.45; stroke-width: 0.824264"/>
    <path d="M 532.296997 297.907446 
L 559.469313 362.125332 
" clip-path="url(#pf8c45be9f0)" style="fill: none; stroke: #000000; stroke-opacity: 0.45; stroke-width: 1.43923"/>
    <path d="M 541.412245 367.348415 
L 559.469313 362.125332 
" clip-path="url(#pf8c45be9f0)" style="fill: none; stroke: #000000; stroke-opacity: 0.45; stroke-width: 2.5"/>
    <path d="M 541.412245 367.348415 
L 589.530313 369.245437 
" clip-path="url(#pf8c45be9f0)" style="fill: none; stroke: #000000; stroke-opacity: 0.45; stroke-width: 0.824264"/>
    <path d="M 583.223972 454.195776 
L 559.469313 362.125332 
" clip-path="url(#pf8c45be9f0)" style="fill: none; stroke: #000000; stroke-opacity: 0.45; stroke-width: 1.248528"/>
    <path d="M 589.530313 369.245437 
L 559.469313 362.125332 
" clip-path="url(#pf8c45be9f0)" style="fill: none; stroke: #000000; stroke-opacity: 0.45; stroke-width: 1.70767"/>
    <path d="M 559.469313 362.125332 
L 490.259189 414.22781 
" clip-path="url(#pf8c45be9f0)" style="fill: none; stroke: #000000; stroke-opacity: 0.45; stroke-width: 0.824264"/>
   </g>
   <g id="PathCollection_1">
    <path d="M 560.36093 313.441761 
C 563.74824 313.441761 566.99727 312.095968 569.39246 309.700778 
C 571.78765 307.305588 573.133443 304.056558 573.133443 300.669248 
C 573.133443 297.281938 571.78765 294.032907 569.39246 291.637717 
C 566.99727 289.242527 563.74824 287.896735 560.36093 287.896735 
C 556.97362 287.896735 553.724589 289.242527 551.329399 291.637717 
C 548.934209 294.032907 547.588417 297.281938 547.588417 300.669248 
C 547.588417 304.056558 548.934209 307.305588 551.329399 309.700778 
C 553.724589 312.095968 556.97362 313.441761 560.36093 313.441761 
z
" clip-path="url(#pf8c45be9f0)" style="fill: #4c72b0; stroke: #ffffff; stroke-width: 1.5"/>
    <path d="M 601.699982 283.044258 
C 604.522191 283.044258 607.229189 281.922983 609.224792 279.927379 
C 611.220396 277.931776 612.341671 275.224778 612.341671 272.402569 
C 612.341671 269.58036 611.220396 266.873361 609.224792 264.877758 
C 607.229189 262.882155 604.522191 261.760879 601.699982 261.760879 
C 598.877773 261.760879 596.170774 262.882155 594.175171 264.877758 
C 592.179568 266.873361 591.058292 269.58036 591.058292 272.402569 
C 591.058292 275.224778 592.179568 277.931776 594.175171 279.927379 
C 596.170774 281.922983 598.877773 283.044258 601.699982 283.044258 
z
" clip-path="url(#pf8c45be9f0)" style="fill: #4c72b0; stroke: #ffffff; stroke-width: 1.5"/>
    <path d="M 549.885827 357.117418 
C 554.744599 357.117418 559.405023 355.187007 562.840694 351.751337 
C 566.276365 348.315666 568.206775 343.655242 568.206775 338.79647 
C 568.206775 333.937698 566.276365 329.277274 562.840694 325.841603 
C 559.405023 322.405933 554.744599 320.475522 549.885827 320.475522 
C 545.027055 320.475522 540.366631 322.405933 536.930961 325.841603 
C 533.49529 329.277274 531.564879 333.937698 531.564879 338.79647 
C 531.564879 343.655242 533.49529 348.315666 536.930961 351.751337 
C 540.366631 355.187007 545.027055 357.117418 549.885827 357.117418 
z
" clip-path="url(#pf8c45be9f0)" style="fill: #4c72b0; stroke: #ffffff; stroke-width: 1.5"/>
    <path d="M 461.154162 121.023344 
C 463.373011 121.023344 465.501279 120.141786 467.070242 118.572823 
C 468.639205 117.00386 469.520763 114.875592 469.520763 112.656743 
C 469.520763 110.437895 468.639205 108.309626 467.070242 106.740664 
C 465.501279 105.171701 463.373011 104.290143 461.154162 104.290143 
C 458.935314 104.290143 456.807045 105.171701 455.238083 106.740664 
C 453.66912 108.309626 452.787562 110.437895 452.787562 112.656743 
C 452.787562 114.875592 453.66912 117.00386 455.238083 118.572823 
C 456.807045 120.141786 458.935314 121.023344 461.154162 121.023344 
z
" clip-path="url(#pf8c45be9f0)" style="fill: #4c72b0; stroke: #ffffff; stroke-width: 1.5"/>
    <path d="M 566.025885 353.605671 
C 570.412627 353.605671 574.620289 351.8628 577.722184 348.760905 
C 580.824078 345.659011 582.566949 341.451348 582.566949 337.064607 
C 582.566949 332.677865 580.824078 328.470203 577.722184 325.368308 
C 574.620289 322.266414 570.412627 320.523543 566.025885 320.523543 
C 561.639144 320.523543 557.431481 322.266414 554.329587 325.368308 
C 551.227692 328.470203 549.484821 332.677865 549.484821 337.064607 
C 549.484821 341.451348 551.227692 345.659011 554.329587 348.760905 
C 557.431481 351.8628 561.639144 353.605671 566.025885 353.605671 
z
" clip-path="url(#pf8c45be9f0)" style="fill: #4c72b0; stroke: #ffffff; stroke-width: 1.5"/>
    <path d="M 532.296997 311.132421 
C 535.804301 311.132421 539.168428 309.738954 541.648466 307.258916 
C 544.128505 304.778877 545.521972 301.414751 545.521972 297.907446 
C 545.521972 294.400142 544.128505 291.036016 541.648466 288.555977 
C 539.168428 286.075938 535.804301 284.682471 532.296997 284.682471 
C 528.789693 284.682471 525.425566 286.075938 522.945528 288.555977 
C 520.465489 291.036016 519.072022 294.400142 519.072022 297.907446 
C 519.072022 301.414751 520.465489 304.778877 522.945528 307.258916 
C 525.425566 309.738954 528.789693 311.132421 532.296997 311.132421 
z
" clip-path="url(#pf8c45be9f0)" style="fill: #4c72b0; stroke: #ffffff; stroke-width: 1.5"/>
    <path d="M 541.412245 380.919122 
C 545.011238 380.919122 548.463311 379.489226 551.008183 376.944354 
C 553.553056 374.399481 554.982951 370.947408 554.982951 367.348415 
C 554.982951 363.749421 553.553056 360.297349 551.008183 357.752476 
C 548.463311 355.207603 545.011238 353.777708 541.412245 353.777708 
C 537.813251 353.777708 534.361179 355.207603 531.816306 357.752476 
C 529.271433 360.297349 527.841538 363.749421 527.841538 367.348415 
C 527.841538 370.947408 529.271433 374.399481 531.816306 376.944354 
C 534.361179 379.489226 537.813251 380.919122 541.412245 380.919122 
z
" clip-path="url(#pf8c45be9f0)" style="fill: #4c72b0; stroke: #ffffff; stroke-width: 1.5"/>
    <path d="M 583.223972 463.928266 
C 585.805058 463.928266 588.280777 462.902789 590.105881 461.077685 
C 591.930985 459.252582 592.956462 456.776862 592.956462 454.195776 
C 592.956462 451.614689 591.930985 449.13897 590.105881 447.313866 
C 588.280777 445.488762 585.805058 444.463286 583.223972 444.463286 
C 580.642885 444.463286 578.167166 445.488762 576.342062 447.313866 
C 574.516958 449.13897 573.491482 451.614689 573.491482 454.195776 
C 573.491482 456.776862 574.516958 459.252582 576.342062 461.077685 
C 578.167166 462.902789 580.642885 463.928266 583.223972 463.928266 
z
" clip-path="url(#pf8c45be9f0)" style="fill: #4c72b0; stroke: #ffffff; stroke-width: 1.5"/>
    <path d="M 39.272727 41.093873 
C 41.491576 41.093873 43.619844 40.212315 45.188807 38.643353 
C 46.75777 37.07439 47.639328 34.946121 47.639328 32.727273 
C 47.639328 30.508424 46.75777 28.380156 45.188807 26.811193 
C 43.619844 25.24223 41.491576 24.360672 39.272727 24.360672 
C 37.053879 24.360672 34.92561 25.24223 33.356647 26.811193 
C 31.787685 28.380156 30.906127 30.508424 30.906127 32.727273 
C 30.906127 34.946121 31.787685 37.07439 33.356647 38.643353 
C 34.92561 40.212315 37.053879 41.093873 39.272727 41.093873 
z
" clip-path="url(#pf8c45be9f0)" style="fill: #4c72b0; stroke: #ffffff; stroke-width: 1.5"/>
    <path d="M 589.530313 380.295823 
C 592.46091 380.295823 595.271871 379.131484 597.344116 377.05924 
C 599.41636 374.986995 600.580699 372.176034 600.580699 369.245437 
C 600.580699 366.31484 599.41636 363.503879 597.344116 361.431634 
C 595.271871 359.35939 592.46091 358.195051 589.530313 358.195051 
C 586.599716 358.195051 583.788755 359.35939 581.71651 361.431634 
C 579.644266 363.503879 578.479927 366.31484 578.479927 369.245437 
C 578.479927 372.176034 579.644266 374.986995 581.71651 377.05924 
C 583.788755 379.131484 586.599716 380.295823 589.530313 380.295823 
z
" clip-path="url(#pf8c45be9f0)" style="fill: #4c72b0; stroke: #ffffff; stroke-width: 1.5"/>
    <path d="M 559.469313 379.203415 
C 563.998473 379.203415 568.342741 377.403961 571.545341 374.20136 
C 574.747941 370.99876 576.547396 366.654493 576.547396 362.125332 
C 576.547396 357.596172 574.747941 353.251904 571.545341 350.049304 
C 568.342741 346.846704 563.998473 345.047249 559.469313 345.047249 
C 554.940152 345.047249 550.595885 346.846704 547.393285 350.049304 
C 544.190684 353.251904 542.39123 357.596172 542.39123 362.125332 
C 542.39123 366.654493 544.190684 370.99876 547.393285 374.20136 
C 550.595885 377.403961 554.940152 379.203415 559.469313 379.203415 
z
" clip-path="url(#pf8c45be9f0)" style="fill: #4c72b0; stroke: #ffffff; stroke-width: 1.5"/>
    <path d="M 490.259189 423.427865 
C 492.699072 423.427865 495.039352 422.45849 496.76461 420.733232 
C 498.489868 419.007974 499.459244 416.667693 499.459244 414.22781 
C 499.459244 411.787927 498.489868 409.447647 496.76461 407.722389 
C 495.039352 405.997131 492.699072 405.027755 490.259189 405.027755 
C 487.819305 405.027755 485.479025 405.997131 483.753767 407.722389 
C 482.028509 409.447647 481.059133 411.787927 481.059133 414.22781 
C 481.059133 416.667693 482.028509 419.007974 483.753767 420.733232 
C 485.479025 422.45849 487.819305 423.427865 490.259189 423.427865 
z
" clip-path="url(#pf8c45be9f0)" style="fill: #4c72b0; stroke: #ffffff; stroke-width: 1.5"/>
   </g>
   <g id="text_1">
    <g clip-path="url(#pf8c45be9f0)">
     <!-- agonistic -->
     <g transform="translate(542.314055 302.876748) scale(0.08 -0.08)">
      <defs>
       <path id="DejaVuSans-61" d="M 2194 1759 
Q 1497 1759 1228 1600 
Q 959 1441 959 1056 
Q 959 750 1161 570 
Q 1363 391 1709 391 
Q 2188 391 2477 730 
Q 2766 1069 2766 1631 
L 2766 1759 
L 2194 1759 
z
M 3341 1997 
L 3341 0 
L 2766 0 
L 2766 531 
Q 2569 213 2275 61 
Q 1981 -91 1556 -91 
Q 1019 -91 701 211 
Q 384 513 384 1019 
Q 384 1609 779 1909 
Q 1175 2209 1959 2209 
L 2766 2209 
L 2766 2266 
Q 2766 2663 2505 2880 
Q 2244 3097 1772 3097 
Q 1472 3097 1187 3025 
Q 903 2953 641 2809 
L 641 3341 
Q 956 3463 1253 3523 
Q 1550 3584 1831 3584 
Q 2591 3584 2966 3190 
Q 3341 2797 3341 1997 
z
" transform="scale(0.015625)"/>
       <path id="DejaVuSans-67" d="M 2906 1791 
Q 2906 2416 2648 2759 
Q 2391 3103 1925 3103 
Q 1463 3103 1205 2759 
Q 947 2416 947 1791 
Q 947 1169 1205 825 
Q 1463 481 1925 481 
Q 2391 481 2648 825 
Q 2906 1169 2906 1791 
z
M 3481 434 
Q 3481 -459 3084 -895 
Q 2688 -1331 1869 -1331 
Q 1566 -1331 1297 -1286 
Q 1028 -1241 775 -1147 
L 775 -588 
Q 1028 -725 1275 -790 
Q 1522 -856 1778 -856 
Q 2344 -856 2625 -561 
Q 2906 -266 2906 331 
L 2906 616 
Q 2728 306 2450 153 
Q 2172 0 1784 0 
Q 1141 0 747 490 
Q 353 981 353 1791 
Q 353 2603 747 3093 
Q 1141 3584 1784 3584 
Q 2172 3584 2450 3431 
Q 2728 3278 2906 2969 
L 2906 3500 
L 3481 3500 
L 3481 434 
z
" transform="scale(0.015625)"/>
       <path id="DejaVuSans-6f" d="M 1959 3097 
Q 1497 3097 1228 2736 
Q 959 2375 959 1747 
Q 959 1119 1226 758 
Q 1494 397 1959 397 
Q 2419 397 2687 759 
Q 2956 1122 2956 1747 
Q 2956 2369 2687 2733 
Q 2419 3097 1959 3097 
z
M 1959 3584 
Q 2709 3584 3137 3096 
Q 3566 2609 3566 1747 
Q 3566 888 3137 398 
Q 2709 -91 1959 -91 
Q 1206 -91 779 398 
Q 353 888 353 1747 
Q 353 2609 779 3096 
Q 1206 3584 1959 3584 
z
" transform="scale(0.015625)"/>
       <path id="DejaVuSans-6e" d="M 3513 2113 
L 3513 0 
L 2938 0 
L 2938 2094 
Q 2938 2591 2744 2837 
Q 2550 3084 2163 3084 
Q 1697 3084 1428 2787 
Q 1159 2491 1159 1978 
L 1159 0 
L 581 0 
L 581 3500 
L 1159 3500 
L 1159 2956 
Q 1366 3272 1645 3428 
Q 1925 3584 2291 3584 
Q 2894 3584 3203 3211 
Q 3513 2838 3513 2113 
z
" transform="scale(0.015625)"/>
       <path id="DejaVuSans-69" d="M 603 3500 
L 1178 3500 
L 1178 0 
L 603 0 
L 603 3500 
z
M 603 4863 
L 1178 4863 
L 1178 4134 
L 603 4134 
L 603 4863 
z
" transform="scale(0.015625)"/>
       <path id="DejaVuSans-73" d="M 2834 3397 
L 2834 2853 
Q 2591 2978 2328 3040 
Q 2066 3103 1784 3103 
Q 1356 3103 1142 2972 
Q 928 2841 928 2578 
Q 928 2378 1081 2264 
Q 1234 2150 1697 2047 
L 1894 2003 
Q 2506 1872 2764 1633 
Q 3022 1394 3022 966 
Q 3022 478 2636 193 
Q 2250 -91 1575 -91 
Q 1294 -91 989 -36 
Q 684 19 347 128 
L 347 722 
Q 666 556 975 473 
Q 1284 391 1588 391 
Q 1994 391 2212 530 
Q 2431 669 2431 922 
Q 2431 1156 2273 1281 
Q 2116 1406 1581 1522 
L 1381 1569 
Q 847 1681 609 1914 
Q 372 2147 372 2553 
Q 372 3047 722 3315 
Q 1072 3584 1716 3584 
Q 2034 3584 2315 3537 
Q 2597 3491 2834 3397 
z
" transform="scale(0.015625)"/>
       <path id="DejaVuSans-74" d="M 1172 4494 
L 1172 3500 
L 2356 3500 
L 2356 3053 
L 1172 3053 
L 1172 1153 
Q 1172 725 1289 603 
Q 1406 481 1766 481 
L 2356 481 
L 2356 0 
L 1766 0 
Q 1100 0 847 248 
Q 594 497 594 1153 
L 594 3053 
L 172 3053 
L 172 3500 
L 594 3500 
L 594 4494 
L 1172 4494 
z
" transform="scale(0.015625)"/>
       <path id="DejaVuSans-63" d="M 3122 3366 
L 3122 2828 
Q 2878 2963 2633 3030 
Q 2388 3097 2138 3097 
Q 1578 3097 1268 2742 
Q 959 2388 959 1747 
Q 959 1106 1268 751 
Q 1578 397 2138 397 
Q 2388 397 2633 464 
Q 2878 531 3122 666 
L 3122 134 
Q 2881 22 2623 -34 
Q 2366 -91 2075 -91 
Q 1284 -91 818 406 
Q 353 903 353 1747 
Q 353 2603 823 3093 
Q 1294 3584 2113 3584 
Q 2378 3584 2631 3529 
Q 2884 3475 3122 3366 
z
" transform="scale(0.015625)"/>
      </defs>
      <use xlink:href="#DejaVuSans-61"/>
      <use xlink:href="#DejaVuSans-67" transform="translate(61.279297 0)"/>
      <use xlink:href="#DejaVuSans-6f" transform="translate(124.755859 0)"/>
      <use xlink:href="#DejaVuSans-6e" transform="translate(185.9375 0)"/>
      <use xlink:href="#DejaVuSans-69" transform="translate(249.316406 0)"/>
      <use xlink:href="#DejaVuSans-73" transform="translate(277.099609 0)"/>
      <use xlink:href="#DejaVuSans-74" transform="translate(329.199219 0)"/>
      <use xlink:href="#DejaVuSans-69" transform="translate(368.408203 0)"/>
      <use xlink:href="#DejaVuSans-63" transform="translate(396.191406 0)"/>
     </g>
    </g>
   </g>
   <g id="text_2">
    <g clip-path="url(#pf8c45be9f0)">
     <!-- black_box -->
     <g transform="translate(581.853107 274.498819) scale(0.08 -0.08)">
      <defs>
       <path id="DejaVuSans-62" d="M 3116 1747 
Q 3116 2381 2855 2742 
Q 2594 3103 2138 3103 
Q 1681 3103 1420 2742 
Q 1159 2381 1159 1747 
Q 1159 1113 1420 752 
Q 1681 391 2138 391 
Q 2594 391 2855 752 
Q 3116 1113 3116 1747 
z
M 1159 2969 
Q 1341 3281 1617 3432 
Q 1894 3584 2278 3584 
Q 2916 3584 3314 3078 
Q 3713 2572 3713 1747 
Q 3713 922 3314 415 
Q 2916 -91 2278 -91 
Q 1894 -91 1617 61 
Q 1341 213 1159 525 
L 1159 0 
L 581 0 
L 581 4863 
L 1159 4863 
L 1159 2969 
z
" transform="scale(0.015625)"/>
       <path id="DejaVuSans-6c" d="M 603 4863 
L 1178 4863 
L 1178 0 
L 603 0 
L 603 4863 
z
" transform="scale(0.015625)"/>
       <path id="DejaVuSans-6b" d="M 581 4863 
L 1159 4863 
L 1159 1991 
L 2875 3500 
L 3609 3500 
L 1753 1863 
L 3688 0 
L 2938 0 
L 1159 1709 
L 1159 0 
L 581 0 
L 581 4863 
z
" transform="scale(0.015625)"/>
       <path id="DejaVuSans-5f" d="M 3263 -1063 
L 3263 -1509 
L -63 -1509 
L -63 -1063 
L 3263 -1063 
z
" transform="scale(0.015625)"/>
       <path id="DejaVuSans-78" d="M 3513 3500 
L 2247 1797 
L 3578 0 
L 2900 0 
L 1881 1375 
L 863 0 
L 184 0 
L 1544 1831 
L 300 3500 
L 978 3500 
L 1906 2253 
L 2834 3500 
L 3513 3500 
z
" transform="scale(0.015625)"/>
      </defs>
      <use xlink:href="#DejaVuSans-62"/>
      <use xlink:href="#DejaVuSans-6c" transform="translate(63.476562 0)"/>
      <use xlink:href="#DejaVuSans-61" transform="translate(91.259766 0)"/>
      <use xlink:href="#DejaVuSans-63" transform="translate(152.539062 0)"/>
      <use xlink:href="#DejaVuSans-6b" transform="translate(207.519531 0)"/>
      <use xlink:href="#DejaVuSans-5f" transform="translate(265.429688 0)"/>
      <use xlink:href="#DejaVuSans-62" transform="translate(315.429688 0)"/>
      <use xlink:href="#DejaVuSans-6f" transform="translate(378.90625 0)"/>
      <use xlink:href="#DejaVuSans-78" transform="translate(436.962891 0)"/>
     </g>
    </g>
   </g>
   <g id="text_3">
    <g clip-path="url(#pf8c45be9f0)">
     <!-- construction -->
     <g transform="translate(525.011452 341.00397) scale(0.08 -0.08)">
      <defs>
       <path id="DejaVuSans-72" d="M 2631 2963 
Q 2534 3019 2420 3045 
Q 2306 3072 2169 3072 
Q 1681 3072 1420 2755 
Q 1159 2438 1159 1844 
L 1159 0 
L 581 0 
L 581 3500 
L 1159 3500 
L 1159 2956 
Q 1341 3275 1631 3429 
Q 1922 3584 2338 3584 
Q 2397 3584 2469 3576 
Q 2541 3569 2628 3553 
L 2631 2963 
z
" transform="scale(0.015625)"/>
       <path id="DejaVuSans-75" d="M 544 1381 
L 544 3500 
L 1119 3500 
L 1119 1403 
Q 1119 906 1312 657 
Q 1506 409 1894 409 
Q 2359 409 2629 706 
Q 2900 1003 2900 1516 
L 2900 3500 
L 3475 3500 
L 3475 0 
L 2900 0 
L 2900 538 
Q 2691 219 2414 64 
Q 2138 -91 1772 -91 
Q 1169 -91 856 284 
Q 544 659 544 1381 
z
M 1991 3584 
L 1991 3584 
z
" transform="scale(0.015625)"/>
      </defs>
      <use xlink:href="#DejaVuSans-63"/>
      <use xlink:href="#DejaVuSans-6f" transform="translate(54.980469 0)"/>
      <use xlink:href="#DejaVuSans-6e" transform="translate(116.162109 0)"/>
      <use xlink:href="#DejaVuSans-73" transform="translate(179.541016 0)"/>
      <use xlink:href="#DejaVuSans-74" transform="translate(231.640625 0)"/>
      <use xlink:href="#DejaVuSans-72" transform="translate(270.849609 0)"/>
      <use xlink:href="#DejaVuSans-75" transform="translate(311.962891 0)"/>
      <use xlink:href="#DejaVuSans-63" transform="translate(375.341797 0)"/>
      <use xlink:href="#DejaVuSans-74" transform="translate(430.322266 0)"/>
      <use xlink:href="#DejaVuSans-69" transform="translate(469.53125 0)"/>
      <use xlink:href="#DejaVuSans-6f" transform="translate(497.314453 0)"/>
      <use xlink:href="#DejaVuSans-6e" transform="translate(558.496094 0)"/>
     </g>
    </g>
   </g>
   <g id="text_4">
    <g clip-path="url(#pf8c45be9f0)">
     <!-- enrollment -->
     <g transform="translate(439.472912 114.864243) scale(0.08 -0.08)">
      <defs>
       <path id="DejaVuSans-65" d="M 3597 1894 
L 3597 1613 
L 953 1613 
Q 991 1019 1311 708 
Q 1631 397 2203 397 
Q 2534 397 2845 478 
Q 3156 559 3463 722 
L 3463 178 
Q 3153 47 2828 -22 
Q 2503 -91 2169 -91 
Q 1331 -91 842 396 
Q 353 884 353 1716 
Q 353 2575 817 3079 
Q 1281 3584 2069 3584 
Q 2775 3584 3186 3129 
Q 3597 2675 3597 1894 
z
M 3022 2063 
Q 3016 2534 2758 2815 
Q 2500 3097 2075 3097 
Q 1594 3097 1305 2825 
Q 1016 2553 972 2059 
L 3022 2063 
z
" transform="scale(0.015625)"/>
       <path id="DejaVuSans-6d" d="M 3328 2828 
Q 3544 3216 3844 3400 
Q 4144 3584 4550 3584 
Q 5097 3584 5394 3201 
Q 5691 2819 5691 2113 
L 5691 0 
L 5113 0 
L 5113 2094 
Q 5113 2597 4934 2840 
Q 4756 3084 4391 3084 
Q 3944 3084 3684 2787 
Q 3425 2491 3425 1978 
L 3425 0 
L 2847 0 
L 2847 2094 
Q 2847 2600 2669 2842 
Q 2491 3084 2119 3084 
Q 1678 3084 1418 2786 
Q 1159 2488 1159 1978 
L 1159 0 
L 581 0 
L 581 3500 
L 1159 3500 
L 1159 2956 
Q 1356 3278 1631 3431 
Q 1906 3584 2284 3584 
Q 2666 3584 2933 3390 
Q 3200 3197 3328 2828 
z
" transform="scale(0.015625)"/>
      </defs>
      <use xlink:href="#DejaVuSans-65"/>
      <use xlink:href="#DejaVuSans-6e" transform="translate(61.523438 0)"/>
      <use xlink:href="#DejaVuSans-72" transform="translate(124.902344 0)"/>
      <use xlink:href="#DejaVuSans-6f" transform="translate(163.765625 0)"/>
      <use xlink:href="#DejaVuSans-6c" transform="translate(224.947266 0)"/>
      <use xlink:href="#DejaVuSans-6c" transform="translate(252.730469 0)"/>
      <use xlink:href="#DejaVuSans-6d" transform="translate(280.513672 0)"/>
      <use xlink:href="#DejaVuSans-65" transform="translate(377.925781 0)"/>
      <use xlink:href="#DejaVuSans-6e" transform="translate(439.449219 0)"/>
      <use xlink:href="#DejaVuSans-74" transform="translate(502.828125 0)"/>
     </g>
    </g>
   </g>
   <g id="text_5">
    <g clip-path="url(#pf8c45be9f0)">
     <!-- inscription -->
     <g transform="translate(545.139635 339.272107) scale(0.08 -0.08)">
      <defs>
       <path id="DejaVuSans-70" d="M 1159 525 
L 1159 -1331 
L 581 -1331 
L 581 3500 
L 1159 3500 
L 1159 2969 
Q 1341 3281 1617 3432 
Q 1894 3584 2278 3584 
Q 2916 3584 3314 3078 
Q 3713 2572 3713 1747 
Q 3713 922 3314 415 
Q 2916 -91 2278 -91 
Q 1894 -91 1617 61 
Q 1341 213 1159 525 
z
M 3116 1747 
Q 3116 2381 2855 2742 
Q 2594 3103 2138 3103 
Q 1681 3103 1420 2742 
Q 1159 2381 1159 1747 
Q 1159 1113 1420 752 
Q 1681 391 2138 391 
Q 2594 391 2855 752 
Q 3116 1113 3116 1747 
z
" transform="scale(0.015625)"/>
      </defs>
      <use xlink:href="#DejaVuSans-69"/>
      <use xlink:href="#DejaVuSans-6e" transform="translate(27.783203 0)"/>
      <use xlink:href="#DejaVuSans-73" transform="translate(91.162109 0)"/>
      <use xlink:href="#DejaVuSans-63" transform="translate(143.261719 0)"/>
      <use xlink:href="#DejaVuSans-72" transform="translate(198.242188 0)"/>
      <use xlink:href="#DejaVuSans-69" transform="translate(239.355469 0)"/>
      <use xlink:href="#DejaVuSans-70" transform="translate(267.138672 0)"/>
      <use xlink:href="#DejaVuSans-74" transform="translate(330.615234 0)"/>
      <use xlink:href="#DejaVuSans-69" transform="translate(369.824219 0)"/>
      <use xlink:href="#DejaVuSans-6f" transform="translate(397.607422 0)"/>
      <use xlink:href="#DejaVuSans-6e" transform="translate(458.789062 0)"/>
     </g>
    </g>
   </g>
   <g id="text_6">
    <g clip-path="url(#pf8c45be9f0)">
     <!-- militar -->
     <g transform="translate(519.403247 300.114946) scale(0.08 -0.08)">
      <use xlink:href="#DejaVuSans-6d"/>
      <use xlink:href="#DejaVuSans-69" transform="translate(97.412109 0)"/>
      <use xlink:href="#DejaVuSans-6c" transform="translate(125.195312 0)"/>
      <use xlink:href="#DejaVuSans-69" transform="translate(152.978516 0)"/>
      <use xlink:href="#DejaVuSans-74" transform="translate(180.761719 0)"/>
      <use xlink:href="#DejaVuSans-61" transform="translate(219.970703 0)"/>
      <use xlink:href="#DejaVuSans-72" transform="translate(281.25 0)"/>
     </g>
    </g>
   </g>
   <g id="text_7">
    <g clip-path="url(#pf8c45be9f0)">
     <!-- network -->
     <g transform="translate(525.168495 369.555915) scale(0.08 -0.08)">
      <defs>
       <path id="DejaVuSans-77" d="M 269 3500 
L 844 3500 
L 1563 769 
L 2278 3500 
L 2956 3500 
L 3675 769 
L 4391 3500 
L 4966 3500 
L 4050 0 
L 3372 0 
L 2619 2869 
L 1863 0 
L 1184 0 
L 269 3500 
z
" transform="scale(0.015625)"/>
      </defs>
      <use xlink:href="#DejaVuSans-6e"/>
      <use xlink:href="#DejaVuSans-65" transform="translate(63.378906 0)"/>
      <use xlink:href="#DejaVuSans-74" transform="translate(124.902344 0)"/>
      <use xlink:href="#DejaVuSans-77" transform="translate(164.111328 0)"/>
      <use xlink:href="#DejaVuSans-6f" transform="translate(245.898438 0)"/>
      <use xlink:href="#DejaVuSans-72" transform="translate(307.080078 0)"/>
      <use xlink:href="#DejaVuSans-6b" transform="translate(348.193359 0)"/>
     </g>
    </g>
   </g>
   <g id="text_8">
    <g clip-path="url(#pf8c45be9f0)">
     <!-- proposition -->
     <g transform="translate(560.838972 456.403276) scale(0.08 -0.08)">
      <use xlink:href="#DejaVuSans-70"/>
      <use xlink:href="#DejaVuSans-72" transform="translate(63.476562 0)"/>
      <use xlink:href="#DejaVuSans-6f" transform="translate(102.339844 0)"/>
      <use xlink:href="#DejaVuSans-70" transform="translate(163.521484 0)"/>
      <use xlink:href="#DejaVuSans-6f" transform="translate(226.998047 0)"/>
      <use xlink:href="#DejaVuSans-73" transform="translate(288.179688 0)"/>
      <use xlink:href="#DejaVuSans-69" transform="translate(340.279297 0)"/>
      <use xlink:href="#DejaVuSans-74" transform="translate(368.0625 0)"/>
      <use xlink:href="#DejaVuSans-69" transform="translate(407.271484 0)"/>
      <use xlink:href="#DejaVuSans-6f" transform="translate(435.054688 0)"/>
      <use xlink:href="#DejaVuSans-6e" transform="translate(496.236328 0)"/>
     </g>
    </g>
   </g>
   <g id="text_9">
    <g clip-path="url(#pf8c45be9f0)">
     <!-- spokesperson -->
     <g transform="translate(11.774602 34.934773) scale(0.08 -0.08)">
      <use xlink:href="#DejaVuSans-73"/>
      <use xlink:href="#DejaVuSans-70" transform="translate(52.099609 0)"/>
      <use xlink:href="#DejaVuSans-6f" transform="translate(115.576172 0)"/>
      <use xlink:href="#DejaVuSans-6b" transform="translate(176.757812 0)"/>
      <use xlink:href="#DejaVuSans-65" transform="translate(231.042969 0)"/>
      <use xlink:href="#DejaVuSans-73" transform="translate(292.566406 0)"/>
      <use xlink:href="#DejaVuSans-70" transform="translate(344.666016 0)"/>
      <use xlink:href="#DejaVuSans-65" transform="translate(408.142578 0)"/>
      <use xlink:href="#DejaVuSans-72" transform="translate(469.666016 0)"/>
      <use xlink:href="#DejaVuSans-73" transform="translate(510.779297 0)"/>
      <use xlink:href="#DejaVuSans-6f" transform="translate(562.878906 0)"/>
      <use xlink:href="#DejaVuSans-6e" transform="translate(624.060547 0)"/>
     </g>
    </g>
   </g>
   <g id="text_10">
    <g clip-path="url(#pf8c45be9f0)">
     <!-- textil -->
     <g transform="translate(579.412813 371.452937) scale(0.08 -0.08)">
      <use xlink:href="#DejaVuSans-74"/>
      <use xlink:href="#DejaVuSans-65" transform="translate(39.208984 0)"/>
      <use xlink:href="#DejaVuSans-78" transform="translate(98.982422 0)"/>
      <use xlink:href="#DejaVuSans-74" transform="translate(158.162109 0)"/>
      <use xlink:href="#DejaVuSans-69" transform="translate(197.371094 0)"/>
      <use xlink:href="#DejaVuSans-6c" transform="translate(225.154297 0)"/>
     </g>
    </g>
   </g>
   <g id="text_11">
    <g clip-path="url(#pf8c45be9f0)">
     <!-- topologia -->
     <g transform="translate(540.806188 364.332832) scale(0.08 -0.08)">
      <use xlink:href="#DejaVuSans-74"/>
      <use xlink:href="#DejaVuSans-6f" transform="translate(39.208984 0)"/>
      <use xlink:href="#DejaVuSans-70" transform="translate(100.390625 0)"/>
      <use xlink:href="#DejaVuSans-6f" transform="translate(163.867188 0)"/>
      <use xlink:href="#DejaVuSans-6c" transform="translate(225.048828 0)"/>
      <use xlink:href="#DejaVuSans-6f" transform="translate(252.832031 0)"/>
      <use xlink:href="#DejaVuSans-67" transform="translate(314.013672 0)"/>
      <use xlink:href="#DejaVuSans-69" transform="translate(377.490234 0)"/>
      <use xlink:href="#DejaVuSans-61" transform="translate(405.273438 0)"/>
     </g>
    </g>
   </g>
   <g id="text_12">
    <g clip-path="url(#pf8c45be9f0)">
     <!-- translation -->
     <g transform="translate(468.752314 416.43531) scale(0.08 -0.08)">
      <use xlink:href="#DejaVuSans-74"/>
      <use xlink:href="#DejaVuSans-72" transform="translate(39.208984 0)"/>
      <use xlink:href="#DejaVuSans-61" transform="translate(80.322266 0)"/>
      <use xlink:href="#DejaVuSans-6e" transform="translate(141.601562 0)"/>
      <use xlink:href="#DejaVuSans-73" transform="translate(204.980469 0)"/>
      <use xlink:href="#DejaVuSans-6c" transform="translate(257.080078 0)"/>
      <use xlink:href="#DejaVuSans-61" transform="translate(284.863281 0)"/>
      <use xlink:href="#DejaVuSans-74" transform="translate(346.142578 0)"/>
      <use xlink:href="#DejaVuSans-69" transform="translate(385.351562 0)"/>
      <use xlink:href="#DejaVuSans-6f" transform="translate(413.134766 0)"/>
      <use xlink:href="#DejaVuSans-6e" transform="translate(474.316406 0)"/>
     </g>
    </g>
   </g>
  </g>
 </g>
 <defs>
  <clipPath id="pf8c45be9f0">
   <rect x="10.8" y="10.8" width="626.4" height="482.4"/>
  </clipPath>
 </defs>
</svg>
