<?xml version="1.0" encoding="utf-8" standalone="no"?>
<!DOCTYPE svg PUBLIC "-//W3C//DTD SVG 1.1//EN"
  "http://www.w3.org/Graphics/SVG/1.1/DTD/svg11.dtd">
<svg xmlns:xlink="http://www.w3.org/1999/xlink" width="648pt" height="504pt" viewBox="0 0 648 504" xmlns="http://www.w3.org/2000/svg" version="1.1">
 <metadata>
  <rdf:RDF xmlns:dc="http://purl.org/dc/elements/1.1/" xmlns:cc="http://creativecommons.org/ns#" xmlns:rdf="http://www.w3.org/1999/02/22-rdf-syntax-ns#">
   <cc:Work>
    <dc:type rdf:resource="http://purl.org/dc/dcmitype/StillImage"/>
    <dc:date>2026-05-14T00:56:48.353148</dc:date>
    <dc:format>image/svg+xml</dc:format>
    <dc:creator>
     <cc:Agent>
      <dc:title>Matplotlib v3.10.9, https://matplotlib.org/</dc:title>
     </cc:Agent>
    </dc:creator>
   </cc:Work>
  </rdf:RDF>
 </metadata>
 <defs>
  <style type="text/css">*{stroke-linejoin: round; stroke-linecap: butt}</style>
 </defs>
 <g id="figure_1">
  <g id="patch_1">
   <path d="M 0 504 
L 648 504 
L 648 0 
L 0 0 
z
" style="fill: #ffffff"/>
  </g>
  <g id="axes_1">
   <g id="LineCollection_1">
    <path d="M 468.880398 324.500157 
L 200.196367 205.240778 
" clip-path="url(#p0e3fc33316)" style="fill: none; stroke: #000000; stroke-opacity: 0.45; stroke-width: 0.7"/>
    <path d="M 468.880398 324.500157 
L 275.389377 266.653934 
" clip-path="url(#p0e3fc33316)" style="fill: none; stroke: #000000; stroke-opacity: 0.45; stroke-width: 1.134847"/>
    <path d="M 468.880398 324.500157 
L 360.373459 412.907044 
" clip-path="url(#p0e3fc33316)" style="fill: none; stroke: #000000; stroke-opacity: 0.45; stroke-width: 1.248528"/>
    <path d="M 468.880398 324.500157 
L 336.373671 363.860149 
" clip-path="url(#p0e3fc33316)" style="fill: none; stroke: #000000; stroke-opacity: 0.45; stroke-width: 1.394987"/>
    <path d="M 468.880398 324.500157 
L 140.834226 283.055427 
" clip-path="url(#p0e3fc33316)" style="fill: none; stroke: #000000; stroke-opacity: 0.45; stroke-width: 1.07082"/>
    <path d="M 468.880398 324.500157 
L 582.842975 314.206603 
" clip-path="url(#p0e3fc33316)" style="fill: none; stroke: #000000; stroke-opacity: 0.45; stroke-width: 1.774773"/>
    <path d="M 468.880398 324.500157 
L 356.819069 280.414797 
" clip-path="url(#p0e3fc33316)" style="fill: none; stroke: #000000; stroke-opacity: 0.45; stroke-width: 1.193725"/>
    <path d="M 468.880398 324.500157 
L 563.494384 218.519493 
" clip-path="url(#p0e3fc33316)" style="fill: none; stroke: #000000; stroke-opacity: 0.45; stroke-width: 1.134847"/>
    <path d="M 336.373671 363.860149 
L 275.389377 266.653934 
" clip-path="url(#p0e3fc33316)" style="fill: none; stroke: #000000; stroke-opacity: 0.45; stroke-width: 1.07082"/>
    <path d="M 336.373671 363.860149 
L 140.834226 283.055427 
" clip-path="url(#p0e3fc33316)" style="fill: none; stroke: #000000; stroke-opacity: 0.45; stroke-width: 0.919615"/>
    <path d="M 336.373671 363.860149 
L 582.842975 314.206603 
" clip-path="url(#p0e3fc33316)" style="fill: none; stroke: #000000; stroke-opacity: 0.45"/>
    <path d="M 336.373671 363.860149 
L 360.373459 412.907044 
" clip-path="url(#p0e3fc33316)" style="fill: none; stroke: #000000; stroke-opacity: 0.45; stroke-width: 2.8"/>
    <path d="M 336.373671 363.860149 
L 356.819069 280.414797 
" clip-path="url(#p0e3fc33316)" style="fill: none; stroke: #000000; stroke-opacity: 0.45; stroke-width: 1.807125"/>
    <path d="M 336.373671 363.860149 
L 222.02964 328.277968 
" clip-path="url(#p0e3fc33316)" style="fill: none; stroke: #000000; stroke-opacity: 0.45"/>
    <path d="M 336.373671 363.860149 
L 563.494384 218.519493 
" clip-path="url(#p0e3fc33316)" style="fill: none; stroke: #000000; stroke-opacity: 0.45; stroke-width: 0.824264"/>
    <path d="M 336.373671 363.860149 
L 200.196367 205.240778 
" clip-path="url(#p0e3fc33316)" style="fill: none; stroke: #000000; stroke-opacity: 0.45; stroke-width: 0.919615"/>
    <path d="M 336.373671 363.860149 
L 113.586492 356.38153 
" clip-path="url(#p0e3fc33316)" style="fill: none; stroke: #000000; stroke-opacity: 0.45; stroke-width: 1.193725"/>
    <path d="M 336.373671 363.860149 
L 65.157025 452.765455 
" clip-path="url(#p0e3fc33316)" style="fill: none; stroke: #000000; stroke-opacity: 0.45"/>
    <path d="M 582.842975 314.206603 
L 140.834226 283.055427 
" clip-path="url(#p0e3fc33316)" style="fill: none; stroke: #000000; stroke-opacity: 0.45; stroke-width: 0.7"/>
    <path d="M 582.842975 314.206603 
L 200.196367 205.240778 
" clip-path="url(#p0e3fc33316)" style="fill: none; stroke: #000000; stroke-opacity: 0.45; stroke-width: 0.7"/>
    <path d="M 582.842975 314.206603 
L 360.373459 412.907044 
" clip-path="url(#p0e3fc33316)" style="fill: none; stroke: #000000; stroke-opacity: 0.45; stroke-width: 0.7"/>
    <path d="M 582.842975 314.206603 
L 356.819069 280.414797 
" clip-path="url(#p0e3fc33316)" style="fill: none; stroke: #000000; stroke-opacity: 0.45; stroke-width: 1.248528"/>
    <path d="M 582.842975 314.206603 
L 563.494384 218.519493 
" clip-path="url(#p0e3fc33316)" style="fill: none; stroke: #000000; stroke-opacity: 0.45; stroke-width: 1.07082"/>
    <path d="M 582.842975 314.206603 
L 275.389377 266.653934 
" clip-path="url(#p0e3fc33316)" style="fill: none; stroke: #000000; stroke-opacity: 0.45; stroke-width: 0.7"/>
    <path d="M 155.115441 67.674545 
L 200.196367 205.240778 
" clip-path="url(#p0e3fc33316)" style="fill: none; stroke: #000000; stroke-opacity: 0.45; stroke-width: 0.919615"/>
    <path d="M 155.115441 67.674545 
L 275.389377 266.653934 
" clip-path="url(#p0e3fc33316)" style="fill: none; stroke: #000000; stroke-opacity: 0.45; stroke-width: 0.824264"/>
    <path d="M 155.115441 67.674545 
L 113.586492 356.38153 
" clip-path="url(#p0e3fc33316)" style="fill: none; stroke: #000000; stroke-opacity: 0.45; stroke-width: 0.7"/>
    <path d="M 155.115441 67.674545 
L 356.819069 280.414797 
" clip-path="url(#p0e3fc33316)" style="fill: none; stroke: #000000; stroke-opacity: 0.45; stroke-width: 0.919615"/>
    <path d="M 200.196367 205.240778 
L 222.02964 328.277968 
" clip-path="url(#p0e3fc33316)" style="fill: none; stroke: #000000; stroke-opacity: 0.45; stroke-width: 0.919615"/>
    <path d="M 200.196367 205.240778 
L 356.819069 280.414797 
" clip-path="url(#p0e3fc33316)" style="fill: none; stroke: #000000; stroke-opacity: 0.45; stroke-width: 1.481665"/>
    <path d="M 200.196367 205.240778 
L 275.389377 266.653934 
" clip-path="url(#p0e3fc33316)" style="fill: none; stroke: #000000; stroke-opacity: 0.45; stroke-width: 0.7"/>
    <path d="M 200.196367 205.240778 
L 113.586492 356.38153 
" clip-path="url(#p0e3fc33316)" style="fill: none; stroke: #000000; stroke-opacity: 0.45"/>
    <path d="M 200.196367 205.240778 
L 65.157025 452.765455 
" clip-path="url(#p0e3fc33316)" style="fill: none; stroke: #000000; stroke-opacity: 0.45; stroke-width: 0.824264"/>
    <path d="M 275.389377 266.653934 
L 563.494384 218.519493 
" clip-path="url(#p0e3fc33316)" style="fill: none; stroke: #000000; stroke-opacity: 0.45; stroke-width: 0.919615"/>
    <path d="M 275.389377 266.653934 
L 222.02964 328.277968 
" clip-path="url(#p0e3fc33316)" style="fill: none; stroke: #000000; stroke-opacity: 0.45; stroke-width: 2.224829"/>
    <path d="M 275.389377 266.653934 
L 140.834226 283.055427 
" clip-path="url(#p0e3fc33316)" style="fill: none; stroke: #000000; stroke-opacity: 0.45; stroke-width: 1.43923"/>
    <path d="M 275.389377 266.653934 
L 113.586492 356.38153 
" clip-path="url(#p0e3fc33316)" style="fill: none; stroke: #000000; stroke-opacity: 0.45; stroke-width: 0.824264"/>
    <path d="M 275.389377 266.653934 
L 356.819069 280.414797 
" clip-path="url(#p0e3fc33316)" style="fill: none; stroke: #000000; stroke-opacity: 0.45; stroke-width: 1.134847"/>
    <path d="M 275.389377 266.653934 
L 360.373459 412.907044 
" clip-path="url(#p0e3fc33316)" style="fill: none; stroke: #000000; stroke-opacity: 0.45; stroke-width: 1.134847"/>
    <path d="M 563.494384 218.519493 
L 222.02964 328.277968 
" clip-path="url(#p0e3fc33316)" style="fill: none; stroke: #000000; stroke-opacity: 0.45; stroke-width: 0.824264"/>
    <path d="M 563.494384 218.519493 
L 356.819069 280.414797 
" clip-path="url(#p0e3fc33316)" style="fill: none; stroke: #000000; stroke-opacity: 0.45; stroke-width: 1.07082"/>
    <path d="M 222.02964 328.277968 
L 356.819069 280.414797 
" clip-path="url(#p0e3fc33316)" style="fill: none; stroke: #000000; stroke-opacity: 0.45; stroke-width: 1.07082"/>
    <path d="M 222.02964 328.277968 
L 140.834226 283.055427 
" clip-path="url(#p0e3fc33316)" style="fill: none; stroke: #000000; stroke-opacity: 0.45; stroke-width: 1.248528"/>
    <path d="M 222.02964 328.277968 
L 360.373459 412.907044 
" clip-path="url(#p0e3fc33316)" style="fill: none; stroke: #000000; stroke-opacity: 0.45; stroke-width: 1.07082"/>
    <path d="M 222.02964 328.277968 
L 113.586492 356.38153 
" clip-path="url(#p0e3fc33316)" style="fill: none; stroke: #000000; stroke-opacity: 0.45; stroke-width: 1.248528"/>
    <path d="M 222.02964 328.277968 
L 65.157025 452.765455 
" clip-path="url(#p0e3fc33316)" style="fill: none; stroke: #000000; stroke-opacity: 0.45; stroke-width: 0.824264"/>
    <path d="M 65.157025 452.765455 
L 113.586492 356.38153 
" clip-path="url(#p0e3fc33316)" style="fill: none; stroke: #000000; stroke-opacity: 0.45; stroke-width: 1.193725"/>
    <path d="M 65.157025 452.765455 
L 356.819069 280.414797 
" clip-path="url(#p0e3fc33316)" style="fill: none; stroke: #000000; stroke-opacity: 0.45; stroke-width: 0.824264"/>
    <path d="M 113.586492 356.38153 
L 140.834226 283.055427 
" clip-path="url(#p0e3fc33316)" style="fill: none; stroke: #000000; stroke-opacity: 0.45; stroke-width: 0.824264"/>
    <path d="M 113.586492 356.38153 
L 356.819069 280.414797 
" clip-path="url(#p0e3fc33316)" style="fill: none; stroke: #000000; stroke-opacity: 0.45; stroke-width: 1.3"/>
    <path d="M 113.586492 356.38153 
L 360.373459 412.907044 
" clip-path="url(#p0e3fc33316)" style="fill: none; stroke: #000000; stroke-opacity: 0.45; stroke-width: 0.7"/>
    <path d="M 140.834226 283.055427 
L 360.373459 412.907044 
" clip-path="url(#p0e3fc33316)" style="fill: none; stroke: #000000; stroke-opacity: 0.45; stroke-width: 0.919615"/>
    <path d="M 360.373459 412.907044 
L 356.819069 280.414797 
" clip-path="url(#p0e3fc33316)" style="fill: none; stroke: #000000; stroke-opacity: 0.45; stroke-width: 1.07082"/>
   </g>
   <g id="PathCollection_1">
    <path d="M 468.880398 337.202727 
C 472.249159 337.202727 475.480398 335.864304 477.862472 333.482231 
C 480.244545 331.100157 481.582968 327.868918 481.582968 324.500157 
C 481.582968 321.131396 480.244545 317.900157 477.862472 315.518084 
C 475.480398 313.13601 472.249159 311.797587 468.880398 311.797587 
C 465.511637 311.797587 462.280399 313.13601 459.898325 315.518084 
C 457.516251 317.900157 456.177828 321.131396 456.177828 324.500157 
C 456.177828 327.868918 457.516251 331.100157 459.898325 333.482231 
C 462.280399 335.864304 465.511637 337.202727 468.880398 337.202727 
z
" clip-path="url(#p0e3fc33316)" style="fill: #4c72b0; stroke: #ffffff; stroke-width: 1.5"/>
    <path d="M 336.373671 377.845934 
C 340.082744 377.845934 343.640403 376.372304 346.263114 373.749593 
C 348.885826 371.126881 350.359456 367.569223 350.359456 363.860149 
C 350.359456 360.151075 348.885826 356.593416 346.263114 353.970705 
C 343.640403 351.347994 340.082744 349.874363 336.373671 349.874363 
C 332.664597 349.874363 329.106938 351.347994 326.484227 353.970705 
C 323.861516 356.593416 322.387885 360.151075 322.387885 363.860149 
C 322.387885 367.569223 323.861516 371.126881 326.484227 373.749593 
C 329.106938 376.372304 332.664597 377.845934 336.373671 377.845934 
z
" clip-path="url(#p0e3fc33316)" style="fill: #4c72b0; stroke: #ffffff; stroke-width: 1.5"/>
    <path d="M 582.842975 325.715822 
C 585.895256 325.715822 588.822934 324.503138 590.981222 322.34485 
C 593.13951 320.186562 594.352194 317.258884 594.352194 314.206603 
C 594.352194 311.154323 593.13951 308.226645 590.981222 306.068357 
C 588.822934 303.910069 585.895256 302.697385 582.842975 302.697385 
C 579.790695 302.697385 576.863017 303.910069 574.704729 306.068357 
C 572.54644 308.226645 571.333757 311.154323 571.333757 314.206603 
C 571.333757 317.258884 572.54644 320.186562 574.704729 322.34485 
C 576.863017 324.503138 579.790695 325.715822 582.842975 325.715822 
z
" clip-path="url(#p0e3fc33316)" style="fill: #4c72b0; stroke: #ffffff; stroke-width: 1.5"/>
    <path d="M 155.115441 77.161378 
C 157.631378 77.161378 160.044608 76.161786 161.823644 74.382749 
C 163.602681 72.603713 164.602273 70.190483 164.602273 67.674545 
C 164.602273 65.158608 163.602681 62.745378 161.823644 60.966342 
C 160.044608 59.187305 157.631378 58.187712 155.115441 58.187712 
C 152.599503 58.187712 150.186273 59.187305 148.407237 60.966342 
C 146.6282 62.745378 145.628608 65.158608 145.628608 67.674545 
C 145.628608 70.190483 146.6282 72.603713 148.407237 74.382749 
C 150.186273 76.161786 152.599503 77.161378 155.115441 77.161378 
z
" clip-path="url(#p0e3fc33316)" style="fill: #4c72b0; stroke: #ffffff; stroke-width: 1.5"/>
    <path d="M 200.196367 216.853393 
C 203.276068 216.853393 206.230048 215.629815 208.407725 213.452137 
C 210.585403 211.274459 211.808981 208.32048 211.808981 205.240778 
C 211.808981 202.161077 210.585403 199.207098 208.407725 197.02942 
C 206.230048 194.851742 203.276068 193.628164 200.196367 193.628164 
C 197.116666 193.628164 194.162686 194.851742 191.985009 197.02942 
C 189.807331 199.207098 188.583753 202.161077 188.583753 205.240778 
C 188.583753 208.32048 189.807331 211.274459 191.985009 213.452137 
C 194.162686 215.629815 197.116666 216.853393 200.196367 216.853393 
z
" clip-path="url(#p0e3fc33316)" style="fill: #4c72b0; stroke: #ffffff; stroke-width: 1.5"/>
    <path d="M 275.389377 281.058105 
C 279.209408 281.058105 282.873495 279.540391 285.574665 276.839221 
C 288.275834 274.138051 289.793549 270.473965 289.793549 266.653934 
C 289.793549 262.833903 288.275834 259.169816 285.574665 256.468646 
C 282.873495 253.767477 279.209408 252.249762 275.389377 252.249762 
C 271.569346 252.249762 267.90526 253.767477 265.20409 256.468646 
C 262.50292 259.169816 260.985206 262.833903 260.985206 266.653934 
C 260.985206 270.473965 262.50292 274.138051 265.20409 276.839221 
C 267.90526 279.540391 271.569346 281.058105 275.389377 281.058105 
z
" clip-path="url(#p0e3fc33316)" style="fill: #4c72b0; stroke: #ffffff; stroke-width: 1.5"/>
    <path d="M 563.494384 229.441124 
C 566.390835 229.441124 569.169044 228.290352 571.217144 226.242252 
C 573.265244 224.194153 574.416016 221.415943 574.416016 218.519493 
C 574.416016 215.623042 573.265244 212.844833 571.217144 210.796733 
C 569.169044 208.748633 566.390835 207.597861 563.494384 207.597861 
C 560.597934 207.597861 557.819724 208.748633 555.771625 210.796733 
C 553.723525 212.844833 552.572753 215.623042 552.572753 218.519493 
C 552.572753 221.415943 553.723525 224.194153 555.771625 226.242252 
C 557.819724 228.290352 560.597934 229.441124 563.494384 229.441124 
z
" clip-path="url(#p0e3fc33316)" style="fill: #4c72b0; stroke: #ffffff; stroke-width: 1.5"/>
    <path d="M 222.02964 342.263753 
C 225.738713 342.263753 229.296372 340.790123 231.919083 338.167412 
C 234.541795 335.5447 236.015425 331.987041 236.015425 328.277968 
C 236.015425 324.568894 234.541795 321.011235 231.919083 318.388524 
C 229.296372 315.765813 225.738713 314.292182 222.02964 314.292182 
C 218.320566 314.292182 214.762907 315.765813 212.140196 318.388524 
C 209.517485 321.011235 208.043854 324.568894 208.043854 328.277968 
C 208.043854 331.987041 209.517485 335.5447 212.140196 338.167412 
C 214.762907 340.790123 218.320566 342.263753 222.02964 342.263753 
z
" clip-path="url(#p0e3fc33316)" style="fill: #4c72b0; stroke: #ffffff; stroke-width: 1.5"/>
    <path d="M 65.157025 461.96551 
C 67.596908 461.96551 69.937188 460.996134 71.662446 459.270876 
C 73.387704 457.545618 74.35708 455.205338 74.35708 452.765455 
C 74.35708 450.325571 73.387704 447.985291 71.662446 446.260033 
C 69.937188 444.534775 67.596908 443.565399 65.157025 443.565399 
C 62.717142 443.565399 60.376861 444.534775 58.651603 446.260033 
C 56.926345 447.985291 55.95697 450.325571 55.95697 452.765455 
C 55.95697 455.205338 56.926345 457.545618 58.651603 459.270876 
C 60.376861 460.996134 62.717142 461.96551 65.157025 461.96551 
z
" clip-path="url(#p0e3fc33316)" style="fill: #4c72b0; stroke: #ffffff; stroke-width: 1.5"/>
    <path d="M 113.586492 367.554406 
C 116.549573 367.554406 119.391693 366.377161 121.486908 364.281946 
C 123.582123 362.186731 124.759368 359.344611 124.759368 356.38153 
C 124.759368 353.418449 123.582123 350.576329 121.486908 348.481114 
C 119.391693 346.385899 116.549573 345.208654 113.586492 345.208654 
C 110.623411 345.208654 107.781291 346.385899 105.686076 348.481114 
C 103.590861 350.576329 102.413617 353.418449 102.413617 356.38153 
C 102.413617 359.344611 103.590861 362.186731 105.686076 364.281946 
C 107.781291 366.377161 110.623411 367.554406 113.586492 367.554406 
z
" clip-path="url(#p0e3fc33316)" style="fill: #4c72b0; stroke: #ffffff; stroke-width: 1.5"/>
    <path d="M 140.834226 296.029309 
C 144.274939 296.029309 147.575193 294.662299 150.008145 292.229347 
C 152.441097 289.796395 153.808107 286.496141 153.808107 283.055427 
C 153.808107 279.614714 152.441097 276.31446 150.008145 273.881508 
C 147.575193 271.448556 144.274939 270.081546 140.834226 270.081546 
C 137.393512 270.081546 134.093258 271.448556 131.660306 273.881508 
C 129.227354 276.31446 127.860344 279.614714 127.860344 283.055427 
C 127.860344 286.496141 129.227354 289.796395 131.660306 292.229347 
C 134.093258 294.662299 137.393512 296.029309 140.834226 296.029309 
z
" clip-path="url(#p0e3fc33316)" style="fill: #4c72b0; stroke: #ffffff; stroke-width: 1.5"/>
    <path d="M 360.373459 426.251049 
C 363.912331 426.251049 367.306736 424.845041 369.809096 422.34268 
C 372.311456 419.84032 373.717465 416.445915 373.717465 412.907044 
C 373.717465 409.368172 372.311456 405.973767 369.809096 403.471407 
C 367.306736 400.969047 363.912331 399.563038 360.373459 399.563038 
C 356.834588 399.563038 353.440183 400.969047 350.937823 403.471407 
C 348.435462 405.973767 347.029454 409.368172 347.029454 412.907044 
C 347.029454 416.445915 348.435462 419.84032 350.937823 422.34268 
C 353.440183 424.845041 356.834588 426.251049 360.373459 426.251049 
z
" clip-path="url(#p0e3fc33316)" style="fill: #4c72b0; stroke: #ffffff; stroke-width: 1.5"/>
    <path d="M 356.819069 295.156982 
C 360.728742 295.156982 364.478812 293.603652 367.243368 290.839096 
C 370.007924 288.07454 371.561254 284.32447 371.561254 280.414797 
C 371.561254 276.505124 370.007924 272.755055 367.243368 269.990499 
C 364.478812 267.225942 360.728742 265.672613 356.819069 265.672613 
C 352.909396 265.672613 349.159327 267.225942 346.394771 269.990499 
C 343.630214 272.755055 342.076885 276.505124 342.076885 280.414797 
C 342.076885 284.32447 343.630214 288.07454 346.394771 290.839096 
C 349.159327 293.603652 352.909396 295.156982 356.819069 295.156982 
z
" clip-path="url(#p0e3fc33316)" style="fill: #4c72b0; stroke: #ffffff; stroke-width: 1.5"/>
   </g>
   <g id="text_1">
    <g clip-path="url(#p0e3fc33316)">
     <!-- actor_network -->
     <g transform="translate(440.326023 326.596407) scale(0.08 -0.08)">
      <defs>
       <path id="DejaVuSans-61" d="M 2194 1759 
Q 1497 1759 1228 1600 
Q 959 1441 959 1056 
Q 959 750 1161 570 
Q 1363 391 1709 391 
Q 2188 391 2477 730 
Q 2766 1069 2766 1631 
L 2766 1759 
L 2194 1759 
z
M 3341 1997 
L 3341 0 
L 2766 0 
L 2766 531 
Q 2569 213 2275 61 
Q 1981 -91 1556 -91 
Q 1019 -91 701 211 
Q 384 513 384 1019 
Q 384 1609 779 1909 
Q 1175 2209 1959 2209 
L 2766 2209 
L 2766 2266 
Q 2766 2663 2505 2880 
Q 2244 3097 1772 3097 
Q 1472 3097 1187 3025 
Q 903 2953 641 2809 
L 641 3341 
Q 956 3463 1253 3523 
Q 1550 3584 1831 3584 
Q 2591 3584 2966 3190 
Q 3341 2797 3341 1997 
z
" transform="scale(0.015625)"/>
       <path id="DejaVuSans-63" d="M 3122 3366 
L 3122 2828 
Q 2878 2963 2633 3030 
Q 2388 3097 2138 3097 
Q 1578 3097 1268 2742 
Q 959 2388 959 1747 
Q 959 1106 1268 751 
Q 1578 397 2138 397 
Q 2388 397 2633 464 
Q 2878 531 3122 666 
L 3122 134 
Q 2881 22 2623 -34 
Q 2366 -91 2075 -91 
Q 1284 -91 818 406 
Q 353 903 353 1747 
Q 353 2603 823 3093 
Q 1294 3584 2113 3584 
Q 2378 3584 2631 3529 
Q 2884 3475 3122 3366 
z
" transform="scale(0.015625)"/>
       <path id="DejaVuSans-74" d="M 1172 4494 
L 1172 3500 
L 2356 3500 
L 2356 3053 
L 1172 3053 
L 1172 1153 
Q 1172 725 1289 603 
Q 1406 481 1766 481 
L 2356 481 
L 2356 0 
L 1766 0 
Q 1100 0 847 248 
Q 594 497 594 1153 
L 594 3053 
L 172 3053 
L 172 3500 
L 594 3500 
L 594 4494 
L 1172 4494 
z
" transform="scale(0.015625)"/>
       <path id="DejaVuSans-6f" d="M 1959 3097 
Q 1497 3097 1228 2736 
Q 959 2375 959 1747 
Q 959 1119 1226 758 
Q 1494 397 1959 397 
Q 2419 397 2687 759 
Q 2956 1122 2956 1747 
Q 2956 2369 2687 2733 
Q 2419 3097 1959 3097 
z
M 1959 3584 
Q 2709 3584 3137 3096 
Q 3566 2609 3566 1747 
Q 3566 888 3137 398 
Q 2709 -91 1959 -91 
Q 1206 -91 779 398 
Q 353 888 353 1747 
Q 353 2609 779 3096 
Q 1206 3584 1959 3584 
z
" transform="scale(0.015625)"/>
       <path id="DejaVuSans-72" d="M 2631 2963 
Q 2534 3019 2420 3045 
Q 2306 3072 2169 3072 
Q 1681 3072 1420 2755 
Q 1159 2438 1159 1844 
L 1159 0 
L 581 0 
L 581 3500 
L 1159 3500 
L 1159 2956 
Q 1341 3275 1631 3429 
Q 1922 3584 2338 3584 
Q 2397 3584 2469 3576 
Q 2541 3569 2628 3553 
L 2631 2963 
z
" transform="scale(0.015625)"/>
       <path id="DejaVuSans-5f" d="M 3263 -1063 
L 3263 -1509 
L -63 -1509 
L -63 -1063 
L 3263 -1063 
z
" transform="scale(0.015625)"/>
       <path id="DejaVuSans-6e" d="M 3513 2113 
L 3513 0 
L 2938 0 
L 2938 2094 
Q 2938 2591 2744 2837 
Q 2550 3084 2163 3084 
Q 1697 3084 1428 2787 
Q 1159 2491 1159 1978 
L 1159 0 
L 581 0 
L 581 3500 
L 1159 3500 
L 1159 2956 
Q 1366 3272 1645 3428 
Q 1925 3584 2291 3584 
Q 2894 3584 3203 3211 
Q 3513 2838 3513 2113 
z
" transform="scale(0.015625)"/>
       <path id="DejaVuSans-65" d="M 3597 1894 
L 3597 1613 
L 953 1613 
Q 991 1019 1311 708 
Q 1631 397 2203 397 
Q 2534 397 2845 478 
Q 3156 559 3463 722 
L 3463 178 
Q 3153 47 2828 -22 
Q 2503 -91 2169 -91 
Q 1331 -91 842 396 
Q 353 884 353 1716 
Q 353 2575 817 3079 
Q 1281 3584 2069 3584 
Q 2775 3584 3186 3129 
Q 3597 2675 3597 1894 
z
M 3022 2063 
Q 3016 2534 2758 2815 
Q 2500 3097 2075 3097 
Q 1594 3097 1305 2825 
Q 1016 2553 972 2059 
L 3022 2063 
z
" transform="scale(0.015625)"/>
       <path id="DejaVuSans-77" d="M 269 3500 
L 844 3500 
L 1563 769 
L 2278 3500 
L 2956 3500 
L 3675 769 
L 4391 3500 
L 4966 3500 
L 4050 0 
L 3372 0 
L 2619 2869 
L 1863 0 
L 1184 0 
L 269 3500 
z
" transform="scale(0.015625)"/>
       <path id="DejaVuSans-6b" d="M 581 4863 
L 1159 4863 
L 1159 1991 
L 2875 3500 
L 3609 3500 
L 1753 1863 
L 3688 0 
L 2938 0 
L 1159 1709 
L 1159 0 
L 581 0 
L 581 4863 
z
" transform="scale(0.015625)"/>
      </defs>
      <use xlink:href="#DejaVuSans-61"/>
      <use xlink:href="#DejaVuSans-63" transform="translate(61.279297 0)"/>
      <use xlink:href="#DejaVuSans-74" transform="translate(116.259766 0)"/>
      <use xlink:href="#DejaVuSans-6f" transform="translate(155.46875 0)"/>
      <use xlink:href="#DejaVuSans-72" transform="translate(216.650391 0)"/>
      <use xlink:href="#DejaVuSans-5f" transform="translate(257.763672 0)"/>
      <use xlink:href="#DejaVuSans-6e" transform="translate(307.763672 0)"/>
      <use xlink:href="#DejaVuSans-65" transform="translate(371.142578 0)"/>
      <use xlink:href="#DejaVuSans-74" transform="translate(432.666016 0)"/>
      <use xlink:href="#DejaVuSans-77" transform="translate(471.875 0)"/>
      <use xlink:href="#DejaVuSans-6f" transform="translate(553.662109 0)"/>
      <use xlink:href="#DejaVuSans-72" transform="translate(614.84375 0)"/>
      <use xlink:href="#DejaVuSans-6b" transform="translate(655.957031 0)"/>
     </g>
    </g>
   </g>
   <g id="text_2">
    <g clip-path="url(#p0e3fc33316)">
     <!-- articulation -->
     <g transform="translate(313.639921 366.067649) scale(0.08 -0.08)">
      <defs>
       <path id="DejaVuSans-69" d="M 603 3500 
L 1178 3500 
L 1178 0 
L 603 0 
L 603 3500 
z
M 603 4863 
L 1178 4863 
L 1178 4134 
L 603 4134 
L 603 4863 
z
" transform="scale(0.015625)"/>
       <path id="DejaVuSans-75" d="M 544 1381 
L 544 3500 
L 1119 3500 
L 1119 1403 
Q 1119 906 1312 657 
Q 1506 409 1894 409 
Q 2359 409 2629 706 
Q 2900 1003 2900 1516 
L 2900 3500 
L 3475 3500 
L 3475 0 
L 2900 0 
L 2900 538 
Q 2691 219 2414 64 
Q 2138 -91 1772 -91 
Q 1169 -91 856 284 
Q 544 659 544 1381 
z
M 1991 3584 
L 1991 3584 
z
" transform="scale(0.015625)"/>
       <path id="DejaVuSans-6c" d="M 603 4863 
L 1178 4863 
L 1178 0 
L 603 0 
L 603 4863 
z
" transform="scale(0.015625)"/>
      </defs>
      <use xlink:href="#DejaVuSans-61"/>
      <use xlink:href="#DejaVuSans-72" transform="translate(61.279297 0)"/>
      <use xlink:href="#DejaVuSans-74" transform="translate(102.392578 0)"/>
      <use xlink:href="#DejaVuSans-69" transform="translate(141.601562 0)"/>
      <use xlink:href="#DejaVuSans-63" transform="translate(169.384766 0)"/>
      <use xlink:href="#DejaVuSans-75" transform="translate(224.365234 0)"/>
      <use xlink:href="#DejaVuSans-6c" transform="translate(287.744141 0)"/>
      <use xlink:href="#DejaVuSans-61" transform="translate(315.527344 0)"/>
      <use xlink:href="#DejaVuSans-74" transform="translate(376.806641 0)"/>
      <use xlink:href="#DejaVuSans-69" transform="translate(416.015625 0)"/>
      <use xlink:href="#DejaVuSans-6f" transform="translate(443.798828 0)"/>
      <use xlink:href="#DejaVuSans-6e" transform="translate(504.980469 0)"/>
     </g>
    </g>
   </g>
   <g id="text_3">
    <g clip-path="url(#p0e3fc33316)">
     <!-- black_box -->
     <g transform="translate(562.9961 316.302853) scale(0.08 -0.08)">
      <defs>
       <path id="DejaVuSans-62" d="M 3116 1747 
Q 3116 2381 2855 2742 
Q 2594 3103 2138 3103 
Q 1681 3103 1420 2742 
Q 1159 2381 1159 1747 
Q 1159 1113 1420 752 
Q 1681 391 2138 391 
Q 2594 391 2855 752 
Q 3116 1113 3116 1747 
z
M 1159 2969 
Q 1341 3281 1617 3432 
Q 1894 3584 2278 3584 
Q 2916 3584 3314 3078 
Q 3713 2572 3713 1747 
Q 3713 922 3314 415 
Q 2916 -91 2278 -91 
Q 1894 -91 1617 61 
Q 1341 213 1159 525 
L 1159 0 
L 581 0 
L 581 4863 
L 1159 4863 
L 1159 2969 
z
" transform="scale(0.015625)"/>
       <path id="DejaVuSans-78" d="M 3513 3500 
L 2247 1797 
L 3578 0 
L 2900 0 
L 1881 1375 
L 863 0 
L 184 0 
L 1544 1831 
L 300 3500 
L 978 3500 
L 1906 2253 
L 2834 3500 
L 3513 3500 
z
" transform="scale(0.015625)"/>
      </defs>
      <use xlink:href="#DejaVuSans-62"/>
      <use xlink:href="#DejaVuSans-6c" transform="translate(63.476562 0)"/>
      <use xlink:href="#DejaVuSans-61" transform="translate(91.259766 0)"/>
      <use xlink:href="#DejaVuSans-63" transform="translate(152.539062 0)"/>
      <use xlink:href="#DejaVuSans-6b" transform="translate(207.519531 0)"/>
      <use xlink:href="#DejaVuSans-5f" transform="translate(265.429688 0)"/>
      <use xlink:href="#DejaVuSans-62" transform="translate(315.429688 0)"/>
      <use xlink:href="#DejaVuSans-6f" transform="translate(378.90625 0)"/>
      <use xlink:href="#DejaVuSans-78" transform="translate(436.962891 0)"/>
     </g>
    </g>
   </g>
   <g id="text_4">
    <g clip-path="url(#p0e3fc33316)">
     <!-- centre_of_calculation -->
     <g transform="translate(112.759816 69.770795) scale(0.08 -0.08)">
      <defs>
       <path id="DejaVuSans-66" d="M 2375 4863 
L 2375 4384 
L 1825 4384 
Q 1516 4384 1395 4259 
Q 1275 4134 1275 3809 
L 1275 3500 
L 2222 3500 
L 2222 3053 
L 1275 3053 
L 1275 0 
L 697 0 
L 697 3053 
L 147 3053 
L 147 3500 
L 697 3500 
L 697 3744 
Q 697 4328 969 4595 
Q 1241 4863 1831 4863 
L 2375 4863 
z
" transform="scale(0.015625)"/>
      </defs>
      <use xlink:href="#DejaVuSans-63"/>
      <use xlink:href="#DejaVuSans-65" transform="translate(54.980469 0)"/>
      <use xlink:href="#DejaVuSans-6e" transform="translate(116.503906 0)"/>
      <use xlink:href="#DejaVuSans-74" transform="translate(179.882812 0)"/>
      <use xlink:href="#DejaVuSans-72" transform="translate(219.091797 0)"/>
      <use xlink:href="#DejaVuSans-65" transform="translate(257.955078 0)"/>
      <use xlink:href="#DejaVuSans-5f" transform="translate(319.478516 0)"/>
      <use xlink:href="#DejaVuSans-6f" transform="translate(369.478516 0)"/>
      <use xlink:href="#DejaVuSans-66" transform="translate(430.660156 0)"/>
      <use xlink:href="#DejaVuSans-5f" transform="translate(465.865234 0)"/>
      <use xlink:href="#DejaVuSans-63" transform="translate(515.865234 0)"/>
      <use xlink:href="#DejaVuSans-61" transform="translate(570.845703 0)"/>
      <use xlink:href="#DejaVuSans-6c" transform="translate(632.125 0)"/>
      <use xlink:href="#DejaVuSans-63" transform="translate(659.908203 0)"/>
      <use xlink:href="#DejaVuSans-75" transform="translate(714.888672 0)"/>
      <use xlink:href="#DejaVuSans-6c" transform="translate(778.267578 0)"/>
      <use xlink:href="#DejaVuSans-61" transform="translate(806.050781 0)"/>
      <use xlink:href="#DejaVuSans-74" transform="translate(867.330078 0)"/>
      <use xlink:href="#DejaVuSans-69" transform="translate(906.539062 0)"/>
      <use xlink:href="#DejaVuSans-6f" transform="translate(934.322266 0)"/>
      <use xlink:href="#DejaVuSans-6e" transform="translate(995.503906 0)"/>
     </g>
    </g>
   </g>
   <g id="text_5">
    <g clip-path="url(#p0e3fc33316)">
     <!-- circulating_reference -->
     <g transform="translate(158.184492 207.337028) scale(0.08 -0.08)">
      <defs>
       <path id="DejaVuSans-67" d="M 2906 1791 
Q 2906 2416 2648 2759 
Q 2391 3103 1925 3103 
Q 1463 3103 1205 2759 
Q 947 2416 947 1791 
Q 947 1169 1205 825 
Q 1463 481 1925 481 
Q 2391 481 2648 825 
Q 2906 1169 2906 1791 
z
M 3481 434 
Q 3481 -459 3084 -895 
Q 2688 -1331 1869 -1331 
Q 1566 -1331 1297 -1286 
Q 1028 -1241 775 -1147 
L 775 -588 
Q 1028 -725 1275 -790 
Q 1522 -856 1778 -856 
Q 2344 -856 2625 -561 
Q 2906 -266 2906 331 
L 2906 616 
Q 2728 306 2450 153 
Q 2172 0 1784 0 
Q 1141 0 747 490 
Q 353 981 353 1791 
Q 353 2603 747 3093 
Q 1141 3584 1784 3584 
Q 2172 3584 2450 3431 
Q 2728 3278 2906 2969 
L 2906 3500 
L 3481 3500 
L 3481 434 
z
" transform="scale(0.015625)"/>
      </defs>
      <use xlink:href="#DejaVuSans-63"/>
      <use xlink:href="#DejaVuSans-69" transform="translate(54.980469 0)"/>
      <use xlink:href="#DejaVuSans-72" transform="translate(82.763672 0)"/>
      <use xlink:href="#DejaVuSans-63" transform="translate(121.626953 0)"/>
      <use xlink:href="#DejaVuSans-75" transform="translate(176.607422 0)"/>
      <use xlink:href="#DejaVuSans-6c" transform="translate(239.986328 0)"/>
      <use xlink:href="#DejaVuSans-61" transform="translate(267.769531 0)"/>
      <use xlink:href="#DejaVuSans-74" transform="translate(329.048828 0)"/>
      <use xlink:href="#DejaVuSans-69" transform="translate(368.257812 0)"/>
      <use xlink:href="#DejaVuSans-6e" transform="translate(396.041016 0)"/>
      <use xlink:href="#DejaVuSans-67" transform="translate(459.419922 0)"/>
      <use xlink:href="#DejaVuSans-5f" transform="translate(522.896484 0)"/>
      <use xlink:href="#DejaVuSans-72" transform="translate(572.896484 0)"/>
      <use xlink:href="#DejaVuSans-65" transform="translate(611.759766 0)"/>
      <use xlink:href="#DejaVuSans-66" transform="translate(673.283203 0)"/>
      <use xlink:href="#DejaVuSans-65" transform="translate(708.488281 0)"/>
      <use xlink:href="#DejaVuSans-72" transform="translate(770.011719 0)"/>
      <use xlink:href="#DejaVuSans-65" transform="translate(808.875 0)"/>
      <use xlink:href="#DejaVuSans-6e" transform="translate(870.398438 0)"/>
      <use xlink:href="#DejaVuSans-63" transform="translate(933.777344 0)"/>
      <use xlink:href="#DejaVuSans-65" transform="translate(988.757812 0)"/>
     </g>
    </g>
   </g>
   <g id="text_6">
    <g clip-path="url(#p0e3fc33316)">
     <!-- construction -->
     <g transform="translate(250.515002 268.861434) scale(0.08 -0.08)">
      <defs>
       <path id="DejaVuSans-73" d="M 2834 3397 
L 2834 2853 
Q 2591 2978 2328 3040 
Q 2066 3103 1784 3103 
Q 1356 3103 1142 2972 
Q 928 2841 928 2578 
Q 928 2378 1081 2264 
Q 1234 2150 1697 2047 
L 1894 2003 
Q 2506 1872 2764 1633 
Q 3022 1394 3022 966 
Q 3022 478 2636 193 
Q 2250 -91 1575 -91 
Q 1294 -91 989 -36 
Q 684 19 347 128 
L 347 722 
Q 666 556 975 473 
Q 1284 391 1588 391 
Q 1994 391 2212 530 
Q 2431 669 2431 922 
Q 2431 1156 2273 1281 
Q 2116 1406 1581 1522 
L 1381 1569 
Q 847 1681 609 1914 
Q 372 2147 372 2553 
Q 372 3047 722 3315 
Q 1072 3584 1716 3584 
Q 2034 3584 2315 3537 
Q 2597 3491 2834 3397 
z
" transform="scale(0.015625)"/>
      </defs>
      <use xlink:href="#DejaVuSans-63"/>
      <use xlink:href="#DejaVuSans-6f" transform="translate(54.980469 0)"/>
      <use xlink:href="#DejaVuSans-6e" transform="translate(116.162109 0)"/>
      <use xlink:href="#DejaVuSans-73" transform="translate(179.541016 0)"/>
      <use xlink:href="#DejaVuSans-74" transform="translate(231.640625 0)"/>
      <use xlink:href="#DejaVuSans-72" transform="translate(270.849609 0)"/>
      <use xlink:href="#DejaVuSans-75" transform="translate(311.962891 0)"/>
      <use xlink:href="#DejaVuSans-63" transform="translate(375.341797 0)"/>
      <use xlink:href="#DejaVuSans-74" transform="translate(430.322266 0)"/>
      <use xlink:href="#DejaVuSans-69" transform="translate(469.53125 0)"/>
      <use xlink:href="#DejaVuSans-6f" transform="translate(497.314453 0)"/>
      <use xlink:href="#DejaVuSans-6e" transform="translate(558.496094 0)"/>
     </g>
    </g>
   </g>
   <g id="text_7">
    <g clip-path="url(#p0e3fc33316)">
     <!-- enrollment -->
     <g transform="translate(541.813134 220.726993) scale(0.08 -0.08)">
      <defs>
       <path id="DejaVuSans-6d" d="M 3328 2828 
Q 3544 3216 3844 3400 
Q 4144 3584 4550 3584 
Q 5097 3584 5394 3201 
Q 5691 2819 5691 2113 
L 5691 0 
L 5113 0 
L 5113 2094 
Q 5113 2597 4934 2840 
Q 4756 3084 4391 3084 
Q 3944 3084 3684 2787 
Q 3425 2491 3425 1978 
L 3425 0 
L 2847 0 
L 2847 2094 
Q 2847 2600 2669 2842 
Q 2491 3084 2119 3084 
Q 1678 3084 1418 2786 
Q 1159 2488 1159 1978 
L 1159 0 
L 581 0 
L 581 3500 
L 1159 3500 
L 1159 2956 
Q 1356 3278 1631 3431 
Q 1906 3584 2284 3584 
Q 2666 3584 2933 3390 
Q 3200 3197 3328 2828 
z
" transform="scale(0.015625)"/>
      </defs>
      <use xlink:href="#DejaVuSans-65"/>
      <use xlink:href="#DejaVuSans-6e" transform="translate(61.523438 0)"/>
      <use xlink:href="#DejaVuSans-72" transform="translate(124.902344 0)"/>
      <use xlink:href="#DejaVuSans-6f" transform="translate(163.765625 0)"/>
      <use xlink:href="#DejaVuSans-6c" transform="translate(224.947266 0)"/>
      <use xlink:href="#DejaVuSans-6c" transform="translate(252.730469 0)"/>
      <use xlink:href="#DejaVuSans-6d" transform="translate(280.513672 0)"/>
      <use xlink:href="#DejaVuSans-65" transform="translate(377.925781 0)"/>
      <use xlink:href="#DejaVuSans-6e" transform="translate(439.449219 0)"/>
      <use xlink:href="#DejaVuSans-74" transform="translate(502.828125 0)"/>
     </g>
    </g>
   </g>
   <g id="text_8">
    <g clip-path="url(#p0e3fc33316)">
     <!-- factish -->
     <g transform="translate(208.672765 330.485468) scale(0.08 -0.08)">
      <defs>
       <path id="DejaVuSans-68" d="M 3513 2113 
L 3513 0 
L 2938 0 
L 2938 2094 
Q 2938 2591 2744 2837 
Q 2550 3084 2163 3084 
Q 1697 3084 1428 2787 
Q 1159 2491 1159 1978 
L 1159 0 
L 581 0 
L 581 4863 
L 1159 4863 
L 1159 2956 
Q 1366 3272 1645 3428 
Q 1925 3584 2291 3584 
Q 2894 3584 3203 3211 
Q 3513 2838 3513 2113 
z
" transform="scale(0.015625)"/>
      </defs>
      <use xlink:href="#DejaVuSans-66"/>
      <use xlink:href="#DejaVuSans-61" transform="translate(35.205078 0)"/>
      <use xlink:href="#DejaVuSans-63" transform="translate(96.484375 0)"/>
      <use xlink:href="#DejaVuSans-74" transform="translate(151.464844 0)"/>
      <use xlink:href="#DejaVuSans-69" transform="translate(190.673828 0)"/>
      <use xlink:href="#DejaVuSans-73" transform="translate(218.457031 0)"/>
      <use xlink:href="#DejaVuSans-68" transform="translate(270.556641 0)"/>
     </g>
    </g>
   </g>
   <g id="text_9">
    <g clip-path="url(#p0e3fc33316)">
     <!-- immutable_mobile -->
     <g transform="translate(28.02015 454.861705) scale(0.08 -0.08)">
      <use xlink:href="#DejaVuSans-69"/>
      <use xlink:href="#DejaVuSans-6d" transform="translate(27.783203 0)"/>
      <use xlink:href="#DejaVuSans-6d" transform="translate(125.195312 0)"/>
      <use xlink:href="#DejaVuSans-75" transform="translate(222.607422 0)"/>
      <use xlink:href="#DejaVuSans-74" transform="translate(285.986328 0)"/>
      <use xlink:href="#DejaVuSans-61" transform="translate(325.195312 0)"/>
      <use xlink:href="#DejaVuSans-62" transform="translate(386.474609 0)"/>
      <use xlink:href="#DejaVuSans-6c" transform="translate(449.951172 0)"/>
      <use xlink:href="#DejaVuSans-65" transform="translate(477.734375 0)"/>
      <use xlink:href="#DejaVuSans-5f" transform="translate(539.257812 0)"/>
      <use xlink:href="#DejaVuSans-6d" transform="translate(589.257812 0)"/>
      <use xlink:href="#DejaVuSans-6f" transform="translate(686.669922 0)"/>
      <use xlink:href="#DejaVuSans-62" transform="translate(747.851562 0)"/>
      <use xlink:href="#DejaVuSans-69" transform="translate(811.328125 0)"/>
      <use xlink:href="#DejaVuSans-6c" transform="translate(839.111328 0)"/>
      <use xlink:href="#DejaVuSans-65" transform="translate(866.894531 0)"/>
     </g>
    </g>
   </g>
   <g id="text_10">
    <g clip-path="url(#p0e3fc33316)">
     <!-- inscription -->
     <g transform="translate(92.700242 358.58903) scale(0.08 -0.08)">
      <defs>
       <path id="DejaVuSans-70" d="M 1159 525 
L 1159 -1331 
L 581 -1331 
L 581 3500 
L 1159 3500 
L 1159 2969 
Q 1341 3281 1617 3432 
Q 1894 3584 2278 3584 
Q 2916 3584 3314 3078 
Q 3713 2572 3713 1747 
Q 3713 922 3314 415 
Q 2916 -91 2278 -91 
Q 1894 -91 1617 61 
Q 1341 213 1159 525 
z
M 3116 1747 
Q 3116 2381 2855 2742 
Q 2594 3103 2138 3103 
Q 1681 3103 1420 2742 
Q 1159 2381 1159 1747 
Q 1159 1113 1420 752 
Q 1681 391 2138 391 
Q 2594 391 2855 752 
Q 3116 1113 3116 1747 
z
" transform="scale(0.015625)"/>
      </defs>
      <use xlink:href="#DejaVuSans-69"/>
      <use xlink:href="#DejaVuSans-6e" transform="translate(27.783203 0)"/>
      <use xlink:href="#DejaVuSans-73" transform="translate(91.162109 0)"/>
      <use xlink:href="#DejaVuSans-63" transform="translate(143.261719 0)"/>
      <use xlink:href="#DejaVuSans-72" transform="translate(198.242188 0)"/>
      <use xlink:href="#DejaVuSans-69" transform="translate(239.355469 0)"/>
      <use xlink:href="#DejaVuSans-70" transform="translate(267.138672 0)"/>
      <use xlink:href="#DejaVuSans-74" transform="translate(330.615234 0)"/>
      <use xlink:href="#DejaVuSans-69" transform="translate(369.824219 0)"/>
      <use xlink:href="#DejaVuSans-6f" transform="translate(397.607422 0)"/>
      <use xlink:href="#DejaVuSans-6e" transform="translate(458.789062 0)"/>
     </g>
    </g>
   </g>
   <g id="text_11">
    <g clip-path="url(#p0e3fc33316)">
     <!-- network -->
     <g transform="translate(124.590476 285.262927) scale(0.08 -0.08)">
      <use xlink:href="#DejaVuSans-6e"/>
      <use xlink:href="#DejaVuSans-65" transform="translate(63.378906 0)"/>
      <use xlink:href="#DejaVuSans-74" transform="translate(124.902344 0)"/>
      <use xlink:href="#DejaVuSans-77" transform="translate(164.111328 0)"/>
      <use xlink:href="#DejaVuSans-6f" transform="translate(245.898438 0)"/>
      <use xlink:href="#DejaVuSans-72" transform="translate(307.080078 0)"/>
      <use xlink:href="#DejaVuSans-6b" transform="translate(348.193359 0)"/>
     </g>
    </g>
   </g>
   <g id="text_12">
    <g clip-path="url(#p0e3fc33316)">
     <!-- proposition -->
     <g transform="translate(337.988459 415.114544) scale(0.08 -0.08)">
      <use xlink:href="#DejaVuSans-70"/>
      <use xlink:href="#DejaVuSans-72" transform="translate(63.476562 0)"/>
      <use xlink:href="#DejaVuSans-6f" transform="translate(102.339844 0)"/>
      <use xlink:href="#DejaVuSans-70" transform="translate(163.521484 0)"/>
      <use xlink:href="#DejaVuSans-6f" transform="translate(226.998047 0)"/>
      <use xlink:href="#DejaVuSans-73" transform="translate(288.179688 0)"/>
      <use xlink:href="#DejaVuSans-69" transform="translate(340.279297 0)"/>
      <use xlink:href="#DejaVuSans-74" transform="translate(368.0625 0)"/>
      <use xlink:href="#DejaVuSans-69" transform="translate(407.271484 0)"/>
      <use xlink:href="#DejaVuSans-6f" transform="translate(435.054688 0)"/>
      <use xlink:href="#DejaVuSans-6e" transform="translate(496.236328 0)"/>
     </g>
    </g>
   </g>
   <g id="text_13">
    <g clip-path="url(#p0e3fc33316)">
     <!-- translation -->
     <g transform="translate(335.312194 282.622297) scale(0.08 -0.08)">
      <use xlink:href="#DejaVuSans-74"/>
      <use xlink:href="#DejaVuSans-72" transform="translate(39.208984 0)"/>
      <use xlink:href="#DejaVuSans-61" transform="translate(80.322266 0)"/>
      <use xlink:href="#DejaVuSans-6e" transform="translate(141.601562 0)"/>
      <use xlink:href="#DejaVuSans-73" transform="translate(204.980469 0)"/>
      <use xlink:href="#DejaVuSans-6c" transform="translate(257.080078 0)"/>
      <use xlink:href="#DejaVuSans-61" transform="translate(284.863281 0)"/>
      <use xlink:href="#DejaVuSans-74" transform="translate(346.142578 0)"/>
      <use xlink:href="#DejaVuSans-69" transform="translate(385.351562 0)"/>
      <use xlink:href="#DejaVuSans-6f" transform="translate(413.134766 0)"/>
      <use xlink:href="#DejaVuSans-6e" transform="translate(474.316406 0)"/>
     </g>
    </g>
   </g>
   <g id="text_14">
    <!-- Rede de cocorrência figural: latour_1999_pandora_en (janela 200 palavras) -->
    <g transform="translate(97.786875 21.24) scale(0.12 -0.12)">
     <defs>
      <path id="DejaVuSans-52" d="M 2841 2188 
Q 3044 2119 3236 1894 
Q 3428 1669 3622 1275 
L 4263 0 
L 3584 0 
L 2988 1197 
Q 2756 1666 2539 1819 
Q 2322 1972 1947 1972 
L 1259 1972 
L 1259 0 
L 628 0 
L 628 4666 
L 2053 4666 
Q 2853 4666 3247 4331 
Q 3641 3997 3641 3322 
Q 3641 2881 3436 2590 
Q 3231 2300 2841 2188 
z
M 1259 4147 
L 1259 2491 
L 2053 2491 
Q 2509 2491 2742 2702 
Q 2975 2913 2975 3322 
Q 2975 3731 2742 3939 
Q 2509 4147 2053 4147 
L 1259 4147 
z
" transform="scale(0.015625)"/>
      <path id="DejaVuSans-64" d="M 2906 2969 
L 2906 4863 
L 3481 4863 
L 3481 0 
L 2906 0 
L 2906 525 
Q 2725 213 2448 61 
Q 2172 -91 1784 -91 
Q 1150 -91 751 415 
Q 353 922 353 1747 
Q 353 2572 751 3078 
Q 1150 3584 1784 3584 
Q 2172 3584 2448 3432 
Q 2725 3281 2906 2969 
z
M 947 1747 
Q 947 1113 1208 752 
Q 1469 391 1925 391 
Q 2381 391 2643 752 
Q 2906 1113 2906 1747 
Q 2906 2381 2643 2742 
Q 2381 3103 1925 3103 
Q 1469 3103 1208 2742 
Q 947 2381 947 1747 
z
" transform="scale(0.015625)"/>
      <path id="DejaVuSans-20" transform="scale(0.015625)"/>
      <path id="DejaVuSans-ea" d="M 3597 1894 
L 3597 1613 
L 953 1613 
Q 991 1019 1311 708 
Q 1631 397 2203 397 
Q 2534 397 2845 478 
Q 3156 559 3463 722 
L 3463 178 
Q 3153 47 2828 -22 
Q 2503 -91 2169 -91 
Q 1331 -91 842 396 
Q 353 884 353 1716 
Q 353 2575 817 3079 
Q 1281 3584 2069 3584 
Q 2775 3584 3186 3129 
Q 3597 2675 3597 1894 
z
M 3022 2063 
Q 3016 2534 2758 2815 
Q 2500 3097 2075 3097 
Q 1594 3097 1305 2825 
Q 1016 2553 972 2059 
L 3022 2063 
z
M 1801 5119 
L 2263 5119 
L 3029 3944 
L 2595 3944 
L 2032 4709 
L 1470 3944 
L 1035 3944 
L 1801 5119 
z
" transform="scale(0.015625)"/>
      <path id="DejaVuSans-3a" d="M 750 794 
L 1409 794 
L 1409 0 
L 750 0 
L 750 794 
z
M 750 3309 
L 1409 3309 
L 1409 2516 
L 750 2516 
L 750 3309 
z
" transform="scale(0.015625)"/>
      <path id="DejaVuSans-31" d="M 794 531 
L 1825 531 
L 1825 4091 
L 703 3866 
L 703 4441 
L 1819 4666 
L 2450 4666 
L 2450 531 
L 3481 531 
L 3481 0 
L 794 0 
L 794 531 
z
" transform="scale(0.015625)"/>
      <path id="DejaVuSans-39" d="M 703 97 
L 703 672 
Q 941 559 1184 500 
Q 1428 441 1663 441 
Q 2288 441 2617 861 
Q 2947 1281 2994 2138 
Q 2813 1869 2534 1725 
Q 2256 1581 1919 1581 
Q 1219 1581 811 2004 
Q 403 2428 403 3163 
Q 403 3881 828 4315 
Q 1253 4750 1959 4750 
Q 2769 4750 3195 4129 
Q 3622 3509 3622 2328 
Q 3622 1225 3098 567 
Q 2575 -91 1691 -91 
Q 1453 -91 1209 -44 
Q 966 3 703 97 
z
M 1959 2075 
Q 2384 2075 2632 2365 
Q 2881 2656 2881 3163 
Q 2881 3666 2632 3958 
Q 2384 4250 1959 4250 
Q 1534 4250 1286 3958 
Q 1038 3666 1038 3163 
Q 1038 2656 1286 2365 
Q 1534 2075 1959 2075 
z
" transform="scale(0.015625)"/>
      <path id="DejaVuSans-28" d="M 1984 4856 
Q 1566 4138 1362 3434 
Q 1159 2731 1159 2009 
Q 1159 1288 1364 580 
Q 1569 -128 1984 -844 
L 1484 -844 
Q 1016 -109 783 600 
Q 550 1309 550 2009 
Q 550 2706 781 3412 
Q 1013 4119 1484 4856 
L 1984 4856 
z
" transform="scale(0.015625)"/>
      <path id="DejaVuSans-6a" d="M 603 3500 
L 1178 3500 
L 1178 -63 
Q 1178 -731 923 -1031 
Q 669 -1331 103 -1331 
L -116 -1331 
L -116 -844 
L 38 -844 
Q 366 -844 484 -692 
Q 603 -541 603 -63 
L 603 3500 
z
M 603 4863 
L 1178 4863 
L 1178 4134 
L 603 4134 
L 603 4863 
z
" transform="scale(0.015625)"/>
      <path id="DejaVuSans-32" d="M 1228 531 
L 3431 531 
L 3431 0 
L 469 0 
L 469 531 
Q 828 903 1448 1529 
Q 2069 2156 2228 2338 
Q 2531 2678 2651 2914 
Q 2772 3150 2772 3378 
Q 2772 3750 2511 3984 
Q 2250 4219 1831 4219 
Q 1534 4219 1204 4116 
Q 875 4013 500 3803 
L 500 4441 
Q 881 4594 1212 4672 
Q 1544 4750 1819 4750 
Q 2544 4750 2975 4387 
Q 3406 4025 3406 3419 
Q 3406 3131 3298 2873 
Q 3191 2616 2906 2266 
Q 2828 2175 2409 1742 
Q 1991 1309 1228 531 
z
" transform="scale(0.015625)"/>
      <path id="DejaVuSans-30" d="M 2034 4250 
Q 1547 4250 1301 3770 
Q 1056 3291 1056 2328 
Q 1056 1369 1301 889 
Q 1547 409 2034 409 
Q 2525 409 2770 889 
Q 3016 1369 3016 2328 
Q 3016 3291 2770 3770 
Q 2525 4250 2034 4250 
z
M 2034 4750 
Q 2819 4750 3233 4129 
Q 3647 3509 3647 2328 
Q 3647 1150 3233 529 
Q 2819 -91 2034 -91 
Q 1250 -91 836 529 
Q 422 1150 422 2328 
Q 422 3509 836 4129 
Q 1250 4750 2034 4750 
z
" transform="scale(0.015625)"/>
      <path id="DejaVuSans-76" d="M 191 3500 
L 800 3500 
L 1894 563 
L 2988 3500 
L 3597 3500 
L 2284 0 
L 1503 0 
L 191 3500 
z
" transform="scale(0.015625)"/>
      <path id="DejaVuSans-29" d="M 513 4856 
L 1013 4856 
Q 1481 4119 1714 3412 
Q 1947 2706 1947 2009 
Q 1947 1309 1714 600 
Q 1481 -109 1013 -844 
L 513 -844 
Q 928 -128 1133 580 
Q 1338 1288 1338 2009 
Q 1338 2731 1133 3434 
Q 928 4138 513 4856 
z
" transform="scale(0.015625)"/>
     </defs>
     <use xlink:href="#DejaVuSans-52"/>
     <use xlink:href="#DejaVuSans-65" transform="translate(64.982422 0)"/>
     <use xlink:href="#DejaVuSans-64" transform="translate(126.505859 0)"/>
     <use xlink:href="#DejaVuSans-65" transform="translate(189.982422 0)"/>
     <use xlink:href="#DejaVuSans-20" transform="translate(251.505859 0)"/>
     <use xlink:href="#DejaVuSans-64" transform="translate(283.292969 0)"/>
     <use xlink:href="#DejaVuSans-65" transform="translate(346.769531 0)"/>
     <use xlink:href="#DejaVuSans-20" transform="translate(408.292969 0)"/>
     <use xlink:href="#DejaVuSans-63" transform="translate(440.080078 0)"/>
     <use xlink:href="#DejaVuSans-6f" transform="translate(495.060547 0)"/>
     <use xlink:href="#DejaVuSans-63" transform="translate(556.242188 0)"/>
     <use xlink:href="#DejaVuSans-6f" transform="translate(611.222656 0)"/>
     <use xlink:href="#DejaVuSans-72" transform="translate(672.404297 0)"/>
     <use xlink:href="#DejaVuSans-72" transform="translate(711.767578 0)"/>
     <use xlink:href="#DejaVuSans-ea" transform="translate(750.630859 0)"/>
     <use xlink:href="#DejaVuSans-6e" transform="translate(812.154297 0)"/>
     <use xlink:href="#DejaVuSans-63" transform="translate(875.533203 0)"/>
     <use xlink:href="#DejaVuSans-69" transform="translate(930.513672 0)"/>
     <use xlink:href="#DejaVuSans-61" transform="translate(958.296875 0)"/>
     <use xlink:href="#DejaVuSans-20" transform="translate(1019.576172 0)"/>
     <use xlink:href="#DejaVuSans-66" transform="translate(1051.363281 0)"/>
     <use xlink:href="#DejaVuSans-69" transform="translate(1086.568359 0)"/>
     <use xlink:href="#DejaVuSans-67" transform="translate(1114.351562 0)"/>
     <use xlink:href="#DejaVuSans-75" transform="translate(1177.828125 0)"/>
     <use xlink:href="#DejaVuSans-72" transform="translate(1241.207031 0)"/>
     <use xlink:href="#DejaVuSans-61" transform="translate(1282.320312 0)"/>
     <use xlink:href="#DejaVuSans-6c" transform="translate(1343.599609 0)"/>
     <use xlink:href="#DejaVuSans-3a" transform="translate(1371.382812 0)"/>
     <use xlink:href="#DejaVuSans-20" transform="translate(1405.074219 0)"/>
     <use xlink:href="#DejaVuSans-6c" transform="translate(1436.861328 0)"/>
     <use xlink:href="#DejaVuSans-61" transform="translate(1464.644531 0)"/>
     <use xlink:href="#DejaVuSans-74" transform="translate(1525.923828 0)"/>
     <use xlink:href="#DejaVuSans-6f" transform="translate(1565.132812 0)"/>
     <use xlink:href="#DejaVuSans-75" transform="translate(1626.314453 0)"/>
     <use xlink:href="#DejaVuSans-72" transform="translate(1689.693359 0)"/>
     <use xlink:href="#DejaVuSans-5f" transform="translate(1730.806641 0)"/>
     <use xlink:href="#DejaVuSans-31" transform="translate(1780.806641 0)"/>
     <use xlink:href="#DejaVuSans-39" transform="translate(1844.429688 0)"/>
     <use xlink:href="#DejaVuSans-39" transform="translate(1908.052734 0)"/>
     <use xlink:href="#DejaVuSans-39" transform="translate(1971.675781 0)"/>
     <use xlink:href="#DejaVuSans-5f" transform="translate(2035.298828 0)"/>
     <use xlink:href="#DejaVuSans-70" transform="translate(2085.298828 0)"/>
     <use xlink:href="#DejaVuSans-61" transform="translate(2148.775391 0)"/>
     <use xlink:href="#DejaVuSans-6e" transform="translate(2210.054688 0)"/>
     <use xlink:href="#DejaVuSans-64" transform="translate(2273.433594 0)"/>
     <use xlink:href="#DejaVuSans-6f" transform="translate(2336.910156 0)"/>
     <use xlink:href="#DejaVuSans-72" transform="translate(2398.091797 0)"/>
     <use xlink:href="#DejaVuSans-61" transform="translate(2439.205078 0)"/>
     <use xlink:href="#DejaVuSans-5f" transform="translate(2500.484375 0)"/>
     <use xlink:href="#DejaVuSans-65" transform="translate(2550.484375 0)"/>
     <use xlink:href="#DejaVuSans-6e" transform="translate(2612.007812 0)"/>
     <use xlink:href="#DejaVuSans-20" transform="translate(2675.386719 0)"/>
     <use xlink:href="#DejaVuSans-28" transform="translate(2707.173828 0)"/>
     <use xlink:href="#DejaVuSans-6a" transform="translate(2746.1875 0)"/>
     <use xlink:href="#DejaVuSans-61" transform="translate(2773.970703 0)"/>
     <use xlink:href="#DejaVuSans-6e" transform="translate(2835.25 0)"/>
     <use xlink:href="#DejaVuSans-65" transform="translate(2898.628906 0)"/>
     <use xlink:href="#DejaVuSans-6c" transform="translate(2960.152344 0)"/>
     <use xlink:href="#DejaVuSans-61" transform="translate(2987.935547 0)"/>
     <use xlink:href="#DejaVuSans-20" transform="translate(3049.214844 0)"/>
     <use xlink:href="#DejaVuSans-32" transform="translate(3081.001953 0)"/>
     <use xlink:href="#DejaVuSans-30" transform="translate(3144.625 0)"/>
     <use xlink:href="#DejaVuSans-30" transform="translate(3208.248047 0)"/>
     <use xlink:href="#DejaVuSans-20" transform="translate(3271.871094 0)"/>
     <use xlink:href="#DejaVuSans-70" transform="translate(3303.658203 0)"/>
     <use xlink:href="#DejaVuSans-61" transform="translate(3367.134766 0)"/>
     <use xlink:href="#DejaVuSans-6c" transform="translate(3428.414062 0)"/>
     <use xlink:href="#DejaVuSans-61" transform="translate(3456.197266 0)"/>
     <use xlink:href="#DejaVuSans-76" transform="translate(3517.476562 0)"/>
     <use xlink:href="#DejaVuSans-72" transform="translate(3576.65625 0)"/>
     <use xlink:href="#DejaVuSans-61" transform="translate(3617.769531 0)"/>
     <use xlink:href="#DejaVuSans-73" transform="translate(3679.048828 0)"/>
     <use xlink:href="#DejaVuSans-29" transform="translate(3731.148438 0)"/>
    </g>
   </g>
  </g>
 </g>
 <defs>
  <clipPath id="p0e3fc33316">
   <rect x="10.8" y="27.24" width="626.4" height="465.96"/>
  </clipPath>
 </defs>
</svg>
