<?xml version="1.0" encoding="utf-8" standalone="no"?>
<!DOCTYPE svg PUBLIC "-//W3C//DTD SVG 1.1//EN"
  "http://www.w3.org/Graphics/SVG/1.1/DTD/svg11.dtd">
<svg xmlns:xlink="http://www.w3.org/1999/xlink" width="952.939375pt" height="351.007103pt" viewBox="0 0 952.939375 351.007103" xmlns="http://www.w3.org/2000/svg" version="1.1">
 <metadata>
  <rdf:RDF xmlns:dc="http://purl.org/dc/elements/1.1/" xmlns:cc="http://creativecommons.org/ns#" xmlns:rdf="http://www.w3.org/1999/02/22-rdf-syntax-ns#">
   <cc:Work>
    <dc:type rdf:resource="http://purl.org/dc/dcmitype/StillImage"/>
    <dc:date>2026-06-27T19:15:00.888448</dc:date>
    <dc:format>image/svg+xml</dc:format>
    <dc:creator>
     <cc:Agent>
      <dc:title>Matplotlib v3.11.0, https://matplotlib.org/</dc:title>
     </cc:Agent>
    </dc:creator>
   </cc:Work>
  </rdf:RDF>
 </metadata>
 <defs>
  <style type="text/css">*{stroke-linejoin: round; stroke-linecap: butt}</style>
 </defs>
 <g id="figure_1">
  <g id="patch_1">
   <path d="M 0 351.007103 
L 952.939375 351.007103 
L 952.939375 0 
L 0 0 
z
" style="fill: #ffffff"/>
  </g>
  <g id="axes_1">
   <g id="patch_2">
    <path d="M 108.739375 315.4464 
L 421.286052 315.4464 
L 421.286052 7.2 
L 108.739375 7.2 
z
" style="fill: #ffffff"/>
   </g>
   <g id="line2d_1">
    <path d="M 115.205858 295.343374 
L 119.696471 295.343374 
" clip-path="url(#p622e97c0af)" style="fill: none; stroke: #e9eef2; stroke-width: 1.2; stroke-linecap: square"/>
   </g>
   <g id="line2d_2">
    <path d="M 115.205858 261.83833 
L 119.696471 261.83833 
" clip-path="url(#p622e97c0af)" style="fill: none; stroke: #e9eef2; stroke-width: 1.2; stroke-linecap: square"/>
   </g>
   <g id="line2d_3">
    <path d="M 115.205858 228.333287 
L 119.696471 228.333287 
" clip-path="url(#p622e97c0af)" style="fill: none; stroke: #e9eef2; stroke-width: 1.2; stroke-linecap: square"/>
   </g>
   <g id="line2d_4">
    <path d="M 115.205858 194.828243 
L 124.187084 194.828243 
" clip-path="url(#p622e97c0af)" style="fill: none; stroke: #e9eef2; stroke-width: 1.2; stroke-linecap: square"/>
   </g>
   <g id="line2d_5">
    <path d="M 115.205858 161.3232 
L 124.187084 161.3232 
" clip-path="url(#p622e97c0af)" style="fill: none; stroke: #e9eef2; stroke-width: 1.2; stroke-linecap: square"/>
   </g>
   <g id="line2d_6">
    <path d="M 115.205858 127.818157 
L 124.187084 127.818157 
" clip-path="url(#p622e97c0af)" style="fill: none; stroke: #e9eef2; stroke-width: 1.2; stroke-linecap: square"/>
   </g>
   <g id="line2d_7">
    <path d="M 115.205858 94.313113 
L 155.621376 94.313113 
" clip-path="url(#p622e97c0af)" style="fill: none; stroke: #e9eef2; stroke-width: 1.2; stroke-linecap: square"/>
   </g>
   <g id="line2d_8">
    <path d="M 115.205858 60.80807 
L 240.943027 60.80807 
" clip-path="url(#p622e97c0af)" style="fill: none; stroke: #e9eef2; stroke-width: 1.2; stroke-linecap: square"/>
   </g>
   <g id="line2d_9">
    <path d="M 115.205858 27.303026 
L 330.75529 27.303026 
" clip-path="url(#p622e97c0af)" style="fill: none; stroke: #e9eef2; stroke-width: 1.2; stroke-linecap: square"/>
   </g>
   <g id="matplotlib.axis_1">
    <g id="text_1">
     <!-- frequência por 10.000 palavras -->
     <g style="fill: #6b6b6b" transform="translate(194.363416 326.644994) scale(0.09 -0.09)">
      <defs>
       <path id="DejaVuSans-49" d="M 2375 4863 
L 2375 4384 
L 1825 4384 
Q 1516 4384 1395 4259 
Q 1275 4134 1275 3809 
L 1275 3500 
L 2222 3500 
L 2222 3053 
L 1275 3053 
L 1275 0 
L 697 0 
L 697 3053 
L 147 3053 
L 147 3500 
L 697 3500 
L 697 3744 
Q 697 4328 969 4595 
Q 1241 4863 1831 4863 
L 2375 4863 
z
" transform="scale(0.015625)"/>
       <path id="DejaVuSans-55" d="M 2631 2963 
Q 2534 3019 2420 3045 
Q 2306 3072 2169 3072 
Q 1681 3072 1420 2755 
Q 1159 2438 1159 1844 
L 1159 0 
L 581 0 
L 581 3500 
L 1159 3500 
L 1159 2956 
Q 1341 3275 1631 3429 
Q 1922 3584 2338 3584 
Q 2397 3584 2469 3576 
Q 2541 3569 2628 3553 
L 2631 2963 
z
" transform="scale(0.015625)"/>
       <path id="DejaVuSans-48" d="M 3597 1894 
L 3597 1613 
L 953 1613 
Q 991 1019 1311 708 
Q 1631 397 2203 397 
Q 2534 397 2845 478 
Q 3156 559 3463 722 
L 3463 178 
Q 3153 47 2828 -22 
Q 2503 -91 2169 -91 
Q 1331 -91 842 396 
Q 353 884 353 1716 
Q 353 2575 817 3079 
Q 1281 3584 2069 3584 
Q 2775 3584 3186 3129 
Q 3597 2675 3597 1894 
z
M 3022 2063 
Q 3016 2534 2758 2815 
Q 2500 3097 2075 3097 
Q 1594 3097 1305 2825 
Q 1016 2553 972 2059 
L 3022 2063 
z
" transform="scale(0.015625)"/>
       <path id="DejaVuSans-54" d="M 947 1747 
Q 947 1113 1208 752 
Q 1469 391 1925 391 
Q 2381 391 2643 752 
Q 2906 1113 2906 1747 
Q 2906 2381 2643 2742 
Q 2381 3103 1925 3103 
Q 1469 3103 1208 2742 
Q 947 2381 947 1747 
z
M 2906 525 
Q 2725 213 2448 61 
Q 2172 -91 1784 -91 
Q 1150 -91 751 415 
Q 353 922 353 1747 
Q 353 2572 751 3078 
Q 1150 3584 1784 3584 
Q 2172 3584 2448 3432 
Q 2725 3281 2906 2969 
L 2906 3500 
L 3481 3500 
L 3481 -1331 
L 2906 -1331 
L 2906 525 
z
" transform="scale(0.015625)"/>
       <path id="DejaVuSans-58" d="M 544 1381 
L 544 3500 
L 1119 3500 
L 1119 1403 
Q 1119 906 1312 657 
Q 1506 409 1894 409 
Q 2359 409 2629 706 
Q 2900 1003 2900 1516 
L 2900 3500 
L 3475 3500 
L 3475 0 
L 2900 0 
L 2900 538 
Q 2691 219 2414 64 
Q 2138 -91 1772 -91 
Q 1169 -91 856 284 
Q 544 659 544 1381 
z
M 1991 3584 
L 1991 3584 
z
" transform="scale(0.015625)"/>
       <path id="DejaVuSans-ac" d="M 3597 1894 
L 3597 1613 
L 953 1613 
Q 991 1019 1311 708 
Q 1631 397 2203 397 
Q 2534 397 2845 478 
Q 3156 559 3463 722 
L 3463 178 
Q 3153 47 2828 -22 
Q 2503 -91 2169 -91 
Q 1331 -91 842 396 
Q 353 884 353 1716 
Q 353 2575 817 3079 
Q 1281 3584 2069 3584 
Q 2775 3584 3186 3129 
Q 3597 2675 3597 1894 
z
M 3022 2063 
Q 3016 2534 2758 2815 
Q 2500 3097 2075 3097 
Q 1594 3097 1305 2825 
Q 1016 2553 972 2059 
L 3022 2063 
z
M 1803 5119 
L 2265 5119 
L 3031 3944 
L 2597 3944 
L 2034 4709 
L 1472 3944 
L 1037 3944 
L 1803 5119 
z
" transform="scale(0.015625)"/>
       <path id="DejaVuSans-51" d="M 3513 2113 
L 3513 0 
L 2938 0 
L 2938 2094 
Q 2938 2591 2744 2837 
Q 2550 3084 2163 3084 
Q 1697 3084 1428 2787 
Q 1159 2491 1159 1978 
L 1159 0 
L 581 0 
L 581 3500 
L 1159 3500 
L 1159 2956 
Q 1366 3272 1645 3428 
Q 1925 3584 2291 3584 
Q 2894 3584 3203 3211 
Q 3513 2838 3513 2113 
z
" transform="scale(0.015625)"/>
       <path id="DejaVuSans-46" d="M 3122 3366 
L 3122 2828 
Q 2878 2963 2633 3030 
Q 2388 3097 2138 3097 
Q 1578 3097 1268 2742 
Q 959 2388 959 1747 
Q 959 1106 1268 751 
Q 1578 397 2138 397 
Q 2388 397 2633 464 
Q 2878 531 3122 666 
L 3122 134 
Q 2881 22 2623 -34 
Q 2366 -91 2075 -91 
Q 1284 -91 818 406 
Q 353 903 353 1747 
Q 353 2603 823 3093 
Q 1294 3584 2113 3584 
Q 2378 3584 2631 3529 
Q 2884 3475 3122 3366 
z
" transform="scale(0.015625)"/>
       <path id="DejaVuSans-4c" d="M 603 3500 
L 1178 3500 
L 1178 0 
L 603 0 
L 603 3500 
z
M 603 4863 
L 1178 4863 
L 1178 4134 
L 603 4134 
L 603 4863 
z
" transform="scale(0.015625)"/>
       <path id="DejaVuSans-44" d="M 2194 1759 
Q 1497 1759 1228 1600 
Q 959 1441 959 1056 
Q 959 750 1161 570 
Q 1363 391 1709 391 
Q 2188 391 2477 730 
Q 2766 1069 2766 1631 
L 2766 1759 
L 2194 1759 
z
M 3341 1997 
L 3341 0 
L 2766 0 
L 2766 531 
Q 2569 213 2275 61 
Q 1981 -91 1556 -91 
Q 1019 -91 701 211 
Q 384 513 384 1019 
Q 384 1609 779 1909 
Q 1175 2209 1959 2209 
L 2766 2209 
L 2766 2266 
Q 2766 2663 2505 2880 
Q 2244 3097 1772 3097 
Q 1472 3097 1187 3025 
Q 903 2953 641 2809 
L 641 3341 
Q 956 3463 1253 3523 
Q 1550 3584 1831 3584 
Q 2591 3584 2966 3190 
Q 3341 2797 3341 1997 
z
" transform="scale(0.015625)"/>
       <path id="DejaVuSans-3" transform="scale(0.015625)"/>
       <path id="DejaVuSans-53" d="M 1159 525 
L 1159 -1331 
L 581 -1331 
L 581 3500 
L 1159 3500 
L 1159 2969 
Q 1341 3281 1617 3432 
Q 1894 3584 2278 3584 
Q 2916 3584 3314 3078 
Q 3713 2572 3713 1747 
Q 3713 922 3314 415 
Q 2916 -91 2278 -91 
Q 1894 -91 1617 61 
Q 1341 213 1159 525 
z
M 3116 1747 
Q 3116 2381 2855 2742 
Q 2594 3103 2138 3103 
Q 1681 3103 1420 2742 
Q 1159 2381 1159 1747 
Q 1159 1113 1420 752 
Q 1681 391 2138 391 
Q 2594 391 2855 752 
Q 3116 1113 3116 1747 
z
" transform="scale(0.015625)"/>
       <path id="DejaVuSans-52" d="M 1959 3097 
Q 1497 3097 1228 2736 
Q 959 2375 959 1747 
Q 959 1119 1226 758 
Q 1494 397 1959 397 
Q 2419 397 2687 759 
Q 2956 1122 2956 1747 
Q 2956 2369 2687 2733 
Q 2419 3097 1959 3097 
z
M 1959 3584 
Q 2709 3584 3137 3096 
Q 3566 2609 3566 1747 
Q 3566 888 3137 398 
Q 2709 -91 1959 -91 
Q 1206 -91 779 398 
Q 353 888 353 1747 
Q 353 2609 779 3096 
Q 1206 3584 1959 3584 
z
" transform="scale(0.015625)"/>
       <path id="DejaVuSans-14" d="M 794 531 
L 1825 531 
L 1825 4091 
L 703 3866 
L 703 4441 
L 1819 4666 
L 2450 4666 
L 2450 531 
L 3481 531 
L 3481 0 
L 794 0 
L 794 531 
z
" transform="scale(0.015625)"/>
       <path id="DejaVuSans-13" d="M 2034 4250 
Q 1547 4250 1301 3770 
Q 1056 3291 1056 2328 
Q 1056 1369 1301 889 
Q 1547 409 2034 409 
Q 2525 409 2770 889 
Q 3016 1369 3016 2328 
Q 3016 3291 2770 3770 
Q 2525 4250 2034 4250 
z
M 2034 4750 
Q 2819 4750 3233 4129 
Q 3647 3509 3647 2328 
Q 3647 1150 3233 529 
Q 2819 -91 2034 -91 
Q 1250 -91 836 529 
Q 422 1150 422 2328 
Q 422 3509 836 4129 
Q 1250 4750 2034 4750 
z
" transform="scale(0.015625)"/>
       <path id="DejaVuSans-11" d="M 684 794 
L 1344 794 
L 1344 0 
L 684 0 
L 684 794 
z
" transform="scale(0.015625)"/>
       <path id="DejaVuSans-4f" d="M 603 4863 
L 1178 4863 
L 1178 0 
L 603 0 
L 603 4863 
z
" transform="scale(0.015625)"/>
       <path id="DejaVuSans-59" d="M 191 3500 
L 800 3500 
L 1894 563 
L 2988 3500 
L 3597 3500 
L 2284 0 
L 1503 0 
L 191 3500 
z
" transform="scale(0.015625)"/>
       <path id="DejaVuSans-56" d="M 2834 3397 
L 2834 2853 
Q 2591 2978 2328 3040 
Q 2066 3103 1784 3103 
Q 1356 3103 1142 2972 
Q 928 2841 928 2578 
Q 928 2378 1081 2264 
Q 1234 2150 1697 2047 
L 1894 2003 
Q 2506 1872 2764 1633 
Q 3022 1394 3022 966 
Q 3022 478 2636 193 
Q 2250 -91 1575 -91 
Q 1294 -91 989 -36 
Q 684 19 347 128 
L 347 722 
Q 666 556 975 473 
Q 1284 391 1588 391 
Q 1994 391 2212 530 
Q 2431 669 2431 922 
Q 2431 1156 2273 1281 
Q 2116 1406 1581 1522 
L 1381 1569 
Q 847 1681 609 1914 
Q 372 2147 372 2553 
Q 372 3047 722 3315 
Q 1072 3584 1716 3584 
Q 2034 3584 2315 3537 
Q 2597 3491 2834 3397 
z
" transform="scale(0.015625)"/>
      </defs>
      <use xlink:href="#DejaVuSans-49"/>
      <use xlink:href="#DejaVuSans-55" transform="translate(35.203125 0)"/>
      <use xlink:href="#DejaVuSans-48" transform="translate(74.109375 0)"/>
      <use xlink:href="#DejaVuSans-54" transform="translate(135.640625 0)"/>
      <use xlink:href="#DejaVuSans-58" transform="translate(199.125 0)"/>
      <use xlink:href="#DejaVuSans-ac" transform="translate(262.5 0)"/>
      <use xlink:href="#DejaVuSans-51" transform="translate(324.03125 0)"/>
      <use xlink:href="#DejaVuSans-46" transform="translate(387.40625 0)"/>
      <use xlink:href="#DejaVuSans-4c" transform="translate(442.390625 0)"/>
      <use xlink:href="#DejaVuSans-44" transform="translate(470.171875 0)"/>
      <use xlink:href="#DejaVuSans-3" transform="translate(531.453125 0)"/>
      <use xlink:href="#DejaVuSans-53" transform="translate(563.234375 0)"/>
      <use xlink:href="#DejaVuSans-52" transform="translate(626.71875 0)"/>
      <use xlink:href="#DejaVuSans-55" transform="translate(687.90625 0)"/>
      <use xlink:href="#DejaVuSans-3" transform="translate(729.015625 0)"/>
      <use xlink:href="#DejaVuSans-14" transform="translate(760.796875 0)"/>
      <use xlink:href="#DejaVuSans-13" transform="translate(824.421875 0)"/>
      <use xlink:href="#DejaVuSans-11" transform="translate(888.046875 0)"/>
      <use xlink:href="#DejaVuSans-13" transform="translate(919.828125 0)"/>
      <use xlink:href="#DejaVuSans-13" transform="translate(983.453125 0)"/>
      <use xlink:href="#DejaVuSans-13" transform="translate(1047.078125 0)"/>
      <use xlink:href="#DejaVuSans-3" transform="translate(1110.703125 0)"/>
      <use xlink:href="#DejaVuSans-53" transform="translate(1142.484375 0)"/>
      <use xlink:href="#DejaVuSans-44" transform="translate(1205.96875 0)"/>
      <use xlink:href="#DejaVuSans-4f" transform="translate(1267.25 0)"/>
      <use xlink:href="#DejaVuSans-44" transform="translate(1295.03125 0)"/>
      <use xlink:href="#DejaVuSans-59" transform="translate(1356.3125 0)"/>
      <use xlink:href="#DejaVuSans-55" transform="translate(1415.5 0)"/>
      <use xlink:href="#DejaVuSans-44" transform="translate(1456.609375 0)"/>
      <use xlink:href="#DejaVuSans-56" transform="translate(1517.890625 0)"/>
     </g>
    </g>
   </g>
   <g id="matplotlib.axis_2">
    <g id="ytick_1">
     <g id="text_2">
      <!-- inscription -->
      <g style="fill: #404040" transform="translate(54.745312 298.762671) scale(0.09 -0.09)">
       <defs>
        <path id="DejaVuSans-57" d="M 1172 4494 
L 1172 3500 
L 2356 3500 
L 2356 3053 
L 1172 3053 
L 1172 1153 
Q 1172 725 1289 603 
Q 1406 481 1766 481 
L 2356 481 
L 2356 0 
L 1766 0 
Q 1100 0 847 248 
Q 594 497 594 1153 
L 594 3053 
L 172 3053 
L 172 3500 
L 594 3500 
L 594 4494 
L 1172 4494 
z
" transform="scale(0.015625)"/>
       </defs>
       <use xlink:href="#DejaVuSans-4c"/>
       <use xlink:href="#DejaVuSans-51" transform="translate(27.78125 0)"/>
       <use xlink:href="#DejaVuSans-56" transform="translate(91.15625 0)"/>
       <use xlink:href="#DejaVuSans-46" transform="translate(143.25 0)"/>
       <use xlink:href="#DejaVuSans-55" transform="translate(198.234375 0)"/>
       <use xlink:href="#DejaVuSans-4c" transform="translate(239.34375 0)"/>
       <use xlink:href="#DejaVuSans-53" transform="translate(267.125 0)"/>
       <use xlink:href="#DejaVuSans-57" transform="translate(330.609375 0)"/>
       <use xlink:href="#DejaVuSans-4c" transform="translate(369.8125 0)"/>
       <use xlink:href="#DejaVuSans-52" transform="translate(397.59375 0)"/>
       <use xlink:href="#DejaVuSans-51" transform="translate(458.78125 0)"/>
      </g>
     </g>
    </g>
    <g id="ytick_2">
     <g id="text_3">
      <!-- articulation -->
      <g style="fill: #404040" transform="translate(50.588437 265.257627) scale(0.09 -0.09)">
       <use xlink:href="#DejaVuSans-44"/>
       <use xlink:href="#DejaVuSans-55" transform="translate(61.28125 0)"/>
       <use xlink:href="#DejaVuSans-57" transform="translate(102.390625 0)"/>
       <use xlink:href="#DejaVuSans-4c" transform="translate(141.59375 0)"/>
       <use xlink:href="#DejaVuSans-46" transform="translate(169.375 0)"/>
       <use xlink:href="#DejaVuSans-58" transform="translate(224.359375 0)"/>
       <use xlink:href="#DejaVuSans-4f" transform="translate(287.734375 0)"/>
       <use xlink:href="#DejaVuSans-44" transform="translate(315.515625 0)"/>
       <use xlink:href="#DejaVuSans-57" transform="translate(376.796875 0)"/>
       <use xlink:href="#DejaVuSans-4c" transform="translate(416 0)"/>
       <use xlink:href="#DejaVuSans-52" transform="translate(443.78125 0)"/>
       <use xlink:href="#DejaVuSans-51" transform="translate(504.96875 0)"/>
      </g>
     </g>
    </g>
    <g id="ytick_3">
     <g id="text_4">
      <!-- textil -->
      <g style="fill: #404040" transform="translate(78.975 231.752584) scale(0.09 -0.09)">
       <defs>
        <path id="DejaVuSans-5b" d="M 3513 3500 
L 2247 1797 
L 3578 0 
L 2900 0 
L 1881 1375 
L 863 0 
L 184 0 
L 1544 1831 
L 300 3500 
L 978 3500 
L 1906 2253 
L 2834 3500 
L 3513 3500 
z
" transform="scale(0.015625)"/>
       </defs>
       <use xlink:href="#DejaVuSans-57"/>
       <use xlink:href="#DejaVuSans-48" transform="translate(39.203125 0)"/>
       <use xlink:href="#DejaVuSans-5b" transform="translate(98.984375 0)"/>
       <use xlink:href="#DejaVuSans-57" transform="translate(158.171875 0)"/>
       <use xlink:href="#DejaVuSans-4c" transform="translate(197.375 0)"/>
       <use xlink:href="#DejaVuSans-4f" transform="translate(225.15625 0)"/>
      </g>
     </g>
    </g>
    <g id="ytick_4">
     <g id="text_5">
      <!-- translation -->
      <g style="fill: #404040" transform="translate(53.348906 198.24754) scale(0.09 -0.09)">
       <use xlink:href="#DejaVuSans-57"/>
       <use xlink:href="#DejaVuSans-55" transform="translate(39.203125 0)"/>
       <use xlink:href="#DejaVuSans-44" transform="translate(80.3125 0)"/>
       <use xlink:href="#DejaVuSans-51" transform="translate(141.59375 0)"/>
       <use xlink:href="#DejaVuSans-56" transform="translate(204.96875 0)"/>
       <use xlink:href="#DejaVuSans-4f" transform="translate(257.0625 0)"/>
       <use xlink:href="#DejaVuSans-44" transform="translate(284.84375 0)"/>
       <use xlink:href="#DejaVuSans-57" transform="translate(346.125 0)"/>
       <use xlink:href="#DejaVuSans-4c" transform="translate(385.328125 0)"/>
       <use xlink:href="#DejaVuSans-52" transform="translate(413.109375 0)"/>
       <use xlink:href="#DejaVuSans-51" transform="translate(474.296875 0)"/>
      </g>
     </g>
    </g>
    <g id="ytick_5">
     <g id="text_6">
      <!-- circulating_reference -->
      <g style="fill: #404040" transform="translate(7.2 164.742497) scale(0.09 -0.09)">
       <defs>
        <path id="DejaVuSans-4a" d="M 2906 1791 
Q 2906 2416 2648 2759 
Q 2391 3103 1925 3103 
Q 1463 3103 1205 2759 
Q 947 2416 947 1791 
Q 947 1169 1205 825 
Q 1463 481 1925 481 
Q 2391 481 2648 825 
Q 2906 1169 2906 1791 
z
M 3481 434 
Q 3481 -459 3084 -895 
Q 2688 -1331 1869 -1331 
Q 1566 -1331 1297 -1286 
Q 1028 -1241 775 -1147 
L 775 -588 
Q 1028 -725 1275 -790 
Q 1522 -856 1778 -856 
Q 2344 -856 2625 -561 
Q 2906 -266 2906 331 
L 2906 616 
Q 2728 306 2450 153 
Q 2172 0 1784 0 
Q 1141 0 747 490 
Q 353 981 353 1791 
Q 353 2603 747 3093 
Q 1141 3584 1784 3584 
Q 2172 3584 2450 3431 
Q 2728 3278 2906 2969 
L 2906 3500 
L 3481 3500 
L 3481 434 
z
" transform="scale(0.015625)"/>
        <path id="DejaVuSans-42" d="M 3263 -1063 
L 3263 -1509 
L -63 -1509 
L -63 -1063 
L 3263 -1063 
z
" transform="scale(0.015625)"/>
       </defs>
       <use xlink:href="#DejaVuSans-46"/>
       <use xlink:href="#DejaVuSans-4c" transform="translate(54.984375 0)"/>
       <use xlink:href="#DejaVuSans-55" transform="translate(82.765625 0)"/>
       <use xlink:href="#DejaVuSans-46" transform="translate(121.671875 0)"/>
       <use xlink:href="#DejaVuSans-58" transform="translate(176.65625 0)"/>
       <use xlink:href="#DejaVuSans-4f" transform="translate(240.03125 0)"/>
       <use xlink:href="#DejaVuSans-44" transform="translate(267.8125 0)"/>
       <use xlink:href="#DejaVuSans-57" transform="translate(329.09375 0)"/>
       <use xlink:href="#DejaVuSans-4c" transform="translate(368.296875 0)"/>
       <use xlink:href="#DejaVuSans-51" transform="translate(396.078125 0)"/>
       <use xlink:href="#DejaVuSans-4a" transform="translate(459.453125 0)"/>
       <use xlink:href="#DejaVuSans-42" transform="translate(522.9375 0)"/>
       <use xlink:href="#DejaVuSans-55" transform="translate(572.9375 0)"/>
       <use xlink:href="#DejaVuSans-48" transform="translate(611.84375 0)"/>
       <use xlink:href="#DejaVuSans-49" transform="translate(673.375 0)"/>
       <use xlink:href="#DejaVuSans-48" transform="translate(708.578125 0)"/>
       <use xlink:href="#DejaVuSans-55" transform="translate(770.109375 0)"/>
       <use xlink:href="#DejaVuSans-48" transform="translate(809.015625 0)"/>
       <use xlink:href="#DejaVuSans-51" transform="translate(870.546875 0)"/>
       <use xlink:href="#DejaVuSans-46" transform="translate(933.921875 0)"/>
       <use xlink:href="#DejaVuSans-48" transform="translate(988.90625 0)"/>
      </g>
     </g>
    </g>
    <g id="ytick_6">
     <g id="text_7">
      <!-- construction -->
      <g style="fill: #404040" transform="translate(45.772031 131.237453) scale(0.09 -0.09)">
       <use xlink:href="#DejaVuSans-46"/>
       <use xlink:href="#DejaVuSans-52" transform="translate(54.984375 0)"/>
       <use xlink:href="#DejaVuSans-51" transform="translate(116.171875 0)"/>
       <use xlink:href="#DejaVuSans-56" transform="translate(179.546875 0)"/>
       <use xlink:href="#DejaVuSans-57" transform="translate(231.640625 0)"/>
       <use xlink:href="#DejaVuSans-55" transform="translate(270.84375 0)"/>
       <use xlink:href="#DejaVuSans-58" transform="translate(311.953125 0)"/>
       <use xlink:href="#DejaVuSans-46" transform="translate(375.328125 0)"/>
       <use xlink:href="#DejaVuSans-57" transform="translate(430.3125 0)"/>
       <use xlink:href="#DejaVuSans-4c" transform="translate(469.515625 0)"/>
       <use xlink:href="#DejaVuSans-52" transform="translate(497.296875 0)"/>
       <use xlink:href="#DejaVuSans-51" transform="translate(558.484375 0)"/>
      </g>
     </g>
    </g>
    <g id="ytick_7">
     <g id="text_8">
      <!-- actor_network -->
      <g style="fill: #404040" transform="translate(37.492031 97.73241) scale(0.09 -0.09)">
       <defs>
        <path id="DejaVuSans-5a" d="M 269 3500 
L 844 3500 
L 1563 769 
L 2278 3500 
L 2956 3500 
L 3675 769 
L 4391 3500 
L 4966 3500 
L 4050 0 
L 3372 0 
L 2619 2869 
L 1863 0 
L 1184 0 
L 269 3500 
z
" transform="scale(0.015625)"/>
        <path id="DejaVuSans-4e" d="M 581 4863 
L 1159 4863 
L 1159 1991 
L 2875 3500 
L 3609 3500 
L 1753 1863 
L 3688 0 
L 2938 0 
L 1159 1709 
L 1159 0 
L 581 0 
L 581 4863 
z
" transform="scale(0.015625)"/>
       </defs>
       <use xlink:href="#DejaVuSans-44"/>
       <use xlink:href="#DejaVuSans-46" transform="translate(61.28125 0)"/>
       <use xlink:href="#DejaVuSans-57" transform="translate(116.265625 0)"/>
       <use xlink:href="#DejaVuSans-52" transform="translate(155.46875 0)"/>
       <use xlink:href="#DejaVuSans-55" transform="translate(216.65625 0)"/>
       <use xlink:href="#DejaVuSans-42" transform="translate(257.765625 0)"/>
       <use xlink:href="#DejaVuSans-51" transform="translate(307.765625 0)"/>
       <use xlink:href="#DejaVuSans-48" transform="translate(371.140625 0)"/>
       <use xlink:href="#DejaVuSans-57" transform="translate(432.671875 0)"/>
       <use xlink:href="#DejaVuSans-5a" transform="translate(471.875 0)"/>
       <use xlink:href="#DejaVuSans-52" transform="translate(553.65625 0)"/>
       <use xlink:href="#DejaVuSans-55" transform="translate(614.84375 0)"/>
       <use xlink:href="#DejaVuSans-4e" transform="translate(655.953125 0)"/>
      </g>
     </g>
    </g>
    <g id="ytick_8">
     <g id="text_9">
      <!-- network -->
      <g style="fill: #404040" transform="translate(65.190937 64.227366) scale(0.09 -0.09)">
       <use xlink:href="#DejaVuSans-51"/>
       <use xlink:href="#DejaVuSans-48" transform="translate(63.375 0)"/>
       <use xlink:href="#DejaVuSans-57" transform="translate(124.90625 0)"/>
       <use xlink:href="#DejaVuSans-5a" transform="translate(164.109375 0)"/>
       <use xlink:href="#DejaVuSans-52" transform="translate(245.890625 0)"/>
       <use xlink:href="#DejaVuSans-55" transform="translate(307.078125 0)"/>
       <use xlink:href="#DejaVuSans-4e" transform="translate(348.1875 0)"/>
      </g>
     </g>
    </g>
    <g id="ytick_9">
     <g id="text_10">
      <!-- topologia -->
      <g style="fill: #404040" transform="translate(59.747344 30.722323) scale(0.09 -0.09)">
       <use xlink:href="#DejaVuSans-57"/>
       <use xlink:href="#DejaVuSans-52" transform="translate(39.203125 0)"/>
       <use xlink:href="#DejaVuSans-53" transform="translate(100.390625 0)"/>
       <use xlink:href="#DejaVuSans-52" transform="translate(163.875 0)"/>
       <use xlink:href="#DejaVuSans-4f" transform="translate(225.0625 0)"/>
       <use xlink:href="#DejaVuSans-52" transform="translate(252.84375 0)"/>
       <use xlink:href="#DejaVuSans-4a" transform="translate(314.03125 0)"/>
       <use xlink:href="#DejaVuSans-4c" transform="translate(377.515625 0)"/>
       <use xlink:href="#DejaVuSans-44" transform="translate(405.296875 0)"/>
      </g>
     </g>
    </g>
   </g>
   <g id="PathCollection_1">
    <defs>
     <path id="C0_0_091fce9939" d="M 0 6.123724 
C 1.624031 6.123724 3.181764 5.47849 4.330127 4.330127 
C 5.47849 3.181764 6.123724 1.624031 6.123724 -0 
C 6.123724 -1.624031 5.47849 -3.181764 4.330127 -4.330127 
C 3.181764 -5.47849 1.624031 -6.123724 0 -6.123724 
C -1.624031 -6.123724 -3.181764 -5.47849 -4.330127 -4.330127 
C -5.47849 -3.181764 -6.123724 -1.624031 -6.123724 0 
C -6.123724 1.624031 -5.47849 3.181764 -4.330127 4.330127 
C -3.181764 5.47849 -1.624031 6.123724 0 6.123724 
z
"/>
    </defs>
    <g clip-path="url(#p622e97c0af)">
     <use xlink:href="#C0_0_091fce9939" x="119.696471" y="295.343374" style="fill: #0072b2; stroke: #ffffff; stroke-width: 1.4"/>
    </g>
    <g clip-path="url(#p622e97c0af)">
     <use xlink:href="#C0_0_091fce9939" x="119.696471" y="261.83833" style="fill: #0072b2; stroke: #ffffff; stroke-width: 1.4"/>
    </g>
    <g clip-path="url(#p622e97c0af)">
     <use xlink:href="#C0_0_091fce9939" x="119.696471" y="228.333287" style="fill: #009e73; stroke: #ffffff; stroke-width: 1.4"/>
    </g>
    <g clip-path="url(#p622e97c0af)">
     <use xlink:href="#C0_0_091fce9939" x="124.187084" y="194.828243" style="fill: #0072b2; stroke: #ffffff; stroke-width: 1.4"/>
    </g>
    <g clip-path="url(#p622e97c0af)">
     <use xlink:href="#C0_0_091fce9939" x="124.187084" y="161.3232" style="fill: #0072b2; stroke: #ffffff; stroke-width: 1.4"/>
    </g>
    <g clip-path="url(#p622e97c0af)">
     <use xlink:href="#C0_0_091fce9939" x="124.187084" y="127.818157" style="fill: #0072b2; stroke: #ffffff; stroke-width: 1.4"/>
    </g>
    <g clip-path="url(#p622e97c0af)">
     <use xlink:href="#C0_0_091fce9939" x="155.621376" y="94.313113" style="fill: #0072b2; stroke: #ffffff; stroke-width: 1.4"/>
    </g>
    <g clip-path="url(#p622e97c0af)">
     <use xlink:href="#C0_0_091fce9939" x="240.943027" y="60.80807" style="fill: #0072b2; stroke: #ffffff; stroke-width: 1.4"/>
    </g>
    <g clip-path="url(#p622e97c0af)">
     <use xlink:href="#C0_0_091fce9939" x="330.75529" y="27.303026" style="fill: #0072b2; stroke: #ffffff; stroke-width: 1.4"/>
    </g>
   </g>
   <g id="text_11">
    <!-- 2,1 -->
    <g style="fill: #404040" transform="translate(130.696471 297.811147) scale(0.095 -0.095)">
     <defs>
      <path id="DejaVuSans-15" d="M 1228 531 
L 3431 531 
L 3431 0 
L 469 0 
L 469 531 
Q 828 903 1448 1529 
Q 2069 2156 2228 2338 
Q 2531 2678 2651 2914 
Q 2772 3150 2772 3378 
Q 2772 3750 2511 3984 
Q 2250 4219 1831 4219 
Q 1534 4219 1204 4116 
Q 875 4013 500 3803 
L 500 4441 
Q 881 4594 1212 4672 
Q 1544 4750 1819 4750 
Q 2544 4750 2975 4387 
Q 3406 4025 3406 3419 
Q 3406 3131 3298 2873 
Q 3191 2616 2906 2266 
Q 2828 2175 2409 1742 
Q 1991 1309 1228 531 
z
" transform="scale(0.015625)"/>
      <path id="DejaVuSans-f" d="M 750 794 
L 1409 794 
L 1409 256 
L 897 -744 
L 494 -744 
L 750 256 
L 750 794 
z
" transform="scale(0.015625)"/>
     </defs>
     <use xlink:href="#DejaVuSans-15"/>
     <use xlink:href="#DejaVuSans-f" transform="translate(63.625 0)"/>
     <use xlink:href="#DejaVuSans-14" transform="translate(95.40625 0)"/>
    </g>
   </g>
   <g id="text_12">
    <!-- 2,1 -->
    <g style="fill: #404040" transform="translate(130.696471 264.306104) scale(0.095 -0.095)">
     <use xlink:href="#DejaVuSans-15"/>
     <use xlink:href="#DejaVuSans-f" transform="translate(63.625 0)"/>
     <use xlink:href="#DejaVuSans-14" transform="translate(95.40625 0)"/>
    </g>
   </g>
   <g id="text_13">
    <!-- 2,1 -->
    <g style="fill: #404040" transform="translate(130.696471 230.80106) scale(0.095 -0.095)">
     <use xlink:href="#DejaVuSans-15"/>
     <use xlink:href="#DejaVuSans-f" transform="translate(63.625 0)"/>
     <use xlink:href="#DejaVuSans-14" transform="translate(95.40625 0)"/>
    </g>
   </g>
   <g id="text_14">
    <!-- 4,1 -->
    <g style="fill: #404040" transform="translate(135.187084 197.296017) scale(0.095 -0.095)">
     <defs>
      <path id="DejaVuSans-17" d="M 2419 4116 
L 825 1625 
L 2419 1625 
L 2419 4116 
z
M 2253 4666 
L 3047 4666 
L 3047 1625 
L 3713 1625 
L 3713 1100 
L 3047 1100 
L 3047 0 
L 2419 0 
L 2419 1100 
L 313 1100 
L 313 1709 
L 2253 4666 
z
" transform="scale(0.015625)"/>
     </defs>
     <use xlink:href="#DejaVuSans-17"/>
     <use xlink:href="#DejaVuSans-f" transform="translate(63.625 0)"/>
     <use xlink:href="#DejaVuSans-14" transform="translate(95.40625 0)"/>
    </g>
   </g>
   <g id="text_15">
    <!-- 4,1 -->
    <g style="fill: #404040" transform="translate(135.187084 163.790973) scale(0.095 -0.095)">
     <use xlink:href="#DejaVuSans-17"/>
     <use xlink:href="#DejaVuSans-f" transform="translate(63.625 0)"/>
     <use xlink:href="#DejaVuSans-14" transform="translate(95.40625 0)"/>
    </g>
   </g>
   <g id="text_16">
    <!-- 4,1 -->
    <g style="fill: #404040" transform="translate(135.187084 130.28593) scale(0.095 -0.095)">
     <use xlink:href="#DejaVuSans-17"/>
     <use xlink:href="#DejaVuSans-f" transform="translate(63.625 0)"/>
     <use xlink:href="#DejaVuSans-14" transform="translate(95.40625 0)"/>
    </g>
   </g>
   <g id="text_17">
    <!-- 18,7 -->
    <g style="fill: #404040" transform="translate(166.621376 96.780886) scale(0.095 -0.095)">
     <defs>
      <path id="DejaVuSans-1b" d="M 2034 2216 
Q 1584 2216 1326 1975 
Q 1069 1734 1069 1313 
Q 1069 891 1326 650 
Q 1584 409 2034 409 
Q 2484 409 2743 651 
Q 3003 894 3003 1313 
Q 3003 1734 2745 1975 
Q 2488 2216 2034 2216 
z
M 1403 2484 
Q 997 2584 770 2862 
Q 544 3141 544 3541 
Q 544 4100 942 4425 
Q 1341 4750 2034 4750 
Q 2731 4750 3128 4425 
Q 3525 4100 3525 3541 
Q 3525 3141 3298 2862 
Q 3072 2584 2669 2484 
Q 3125 2378 3379 2068 
Q 3634 1759 3634 1313 
Q 3634 634 3220 271 
Q 2806 -91 2034 -91 
Q 1263 -91 848 271 
Q 434 634 434 1313 
Q 434 1759 690 2068 
Q 947 2378 1403 2484 
z
M 1172 3481 
Q 1172 3119 1398 2916 
Q 1625 2713 2034 2713 
Q 2441 2713 2670 2916 
Q 2900 3119 2900 3481 
Q 2900 3844 2670 4047 
Q 2441 4250 2034 4250 
Q 1625 4250 1398 4047 
Q 1172 3844 1172 3481 
z
" transform="scale(0.015625)"/>
      <path id="DejaVuSans-1a" d="M 525 4666 
L 3525 4666 
L 3525 4397 
L 1831 0 
L 1172 0 
L 2766 4134 
L 525 4134 
L 525 4666 
z
" transform="scale(0.015625)"/>
     </defs>
     <use xlink:href="#DejaVuSans-14"/>
     <use xlink:href="#DejaVuSans-1b" transform="translate(63.625 0)"/>
     <use xlink:href="#DejaVuSans-f" transform="translate(127.25 0)"/>
     <use xlink:href="#DejaVuSans-1a" transform="translate(159.03125 0)"/>
    </g>
   </g>
   <g id="text_18">
    <!-- 58,0 -->
    <g style="fill: #404040" transform="translate(251.943027 63.275843) scale(0.095 -0.095)">
     <defs>
      <path id="DejaVuSans-18" d="M 691 4666 
L 3169 4666 
L 3169 4134 
L 1269 4134 
L 1269 2991 
Q 1406 3038 1543 3061 
Q 1681 3084 1819 3084 
Q 2600 3084 3056 2656 
Q 3513 2228 3513 1497 
Q 3513 744 3044 326 
Q 2575 -91 1722 -91 
Q 1428 -91 1123 -41 
Q 819 9 494 109 
L 494 744 
Q 775 591 1075 516 
Q 1375 441 1709 441 
Q 2250 441 2565 725 
Q 2881 1009 2881 1497 
Q 2881 1984 2565 2268 
Q 2250 2553 1709 2553 
Q 1456 2553 1204 2497 
Q 953 2441 691 2322 
L 691 4666 
z
" transform="scale(0.015625)"/>
     </defs>
     <use xlink:href="#DejaVuSans-18"/>
     <use xlink:href="#DejaVuSans-1b" transform="translate(63.625 0)"/>
     <use xlink:href="#DejaVuSans-f" transform="translate(127.25 0)"/>
     <use xlink:href="#DejaVuSans-13" transform="translate(159.03125 0)"/>
    </g>
   </g>
   <g id="text_19">
    <!-- 99,5 -->
    <g style="fill: #404040" transform="translate(341.75529 29.7708) scale(0.095 -0.095)">
     <defs>
      <path id="DejaVuSans-1c" d="M 703 97 
L 703 672 
Q 941 559 1184 500 
Q 1428 441 1663 441 
Q 2288 441 2617 861 
Q 2947 1281 2994 2138 
Q 2813 1869 2534 1725 
Q 2256 1581 1919 1581 
Q 1219 1581 811 2004 
Q 403 2428 403 3163 
Q 403 3881 828 4315 
Q 1253 4750 1959 4750 
Q 2769 4750 3195 4129 
Q 3622 3509 3622 2328 
Q 3622 1225 3098 567 
Q 2575 -91 1691 -91 
Q 1453 -91 1209 -44 
Q 966 3 703 97 
z
M 1959 2075 
Q 2384 2075 2632 2365 
Q 2881 2656 2881 3163 
Q 2881 3666 2632 3958 
Q 2384 4250 1959 4250 
Q 1534 4250 1286 3958 
Q 1038 3666 1038 3163 
Q 1038 2656 1286 2365 
Q 1534 2075 1959 2075 
z
" transform="scale(0.015625)"/>
     </defs>
     <use xlink:href="#DejaVuSans-1c"/>
     <use xlink:href="#DejaVuSans-1c" transform="translate(63.625 0)"/>
     <use xlink:href="#DejaVuSans-f" transform="translate(127.25 0)"/>
     <use xlink:href="#DejaVuSans-18" transform="translate(159.03125 0)"/>
    </g>
   </g>
  </g>
  <g id="axes_2">
   <g id="patch_3">
    <path d="M 445.664692 315.4464 
L 945.739375 315.4464 
L 945.739375 7.2 
L 445.664692 7.2 
z
" style="fill: #ffffff"/>
   </g>
   <g id="matplotlib.axis_3">
    <g id="xtick_1">
     <g id="line2d_10">
      <path d="M 455.281513 315.4464 
L 455.281513 7.2 
" clip-path="url(#p4e71e6bb06)" style="fill: none; stroke-dasharray: 0.6,0.99; stroke-dashoffset: 0; stroke: #e3e3e3; stroke-width: 0.6"/>
     </g>
     <g id="line2d_11">
      <defs>
       <path id="m6d8291d749" d="M 0 0 
L 0 3.5 
" style="stroke: #000000; stroke-width: 0.8"/>
      </defs>
      <g>
       <use xlink:href="#m6d8291d749" x="455.281513" y="315.4464" style="stroke: #000000; stroke-width: 0.8"/>
      </g>
     </g>
     <g id="text_20">
      <!-- 0 -->
      <g transform="translate(452.736513 328.524525) scale(0.08 -0.08)">
       <use xlink:href="#DejaVuSans-13"/>
      </g>
     </g>
    </g>
    <g id="xtick_2">
     <g id="line2d_12">
      <path d="M 575.491773 315.4464 
L 575.491773 7.2 
" clip-path="url(#p4e71e6bb06)" style="fill: none; stroke-dasharray: 0.6,0.99; stroke-dashoffset: 0; stroke: #e3e3e3; stroke-width: 0.6"/>
     </g>
     <g id="line2d_13">
      <g>
       <use xlink:href="#m6d8291d749" x="575.491773" y="315.4464" style="stroke: #000000; stroke-width: 0.8"/>
      </g>
     </g>
     <g id="text_21">
      <!-- 0,25 -->
      <g transform="translate(566.585523 328.524525) scale(0.08 -0.08)">
       <use xlink:href="#DejaVuSans-13"/>
       <use xlink:href="#DejaVuSans-f" transform="translate(63.625 0)"/>
       <use xlink:href="#DejaVuSans-15" transform="translate(95.40625 0)"/>
       <use xlink:href="#DejaVuSans-18" transform="translate(159.03125 0)"/>
      </g>
     </g>
    </g>
    <g id="xtick_3">
     <g id="line2d_14">
      <path d="M 695.702034 315.4464 
L 695.702034 7.2 
" clip-path="url(#p4e71e6bb06)" style="fill: none; stroke-dasharray: 0.6,0.99; stroke-dashoffset: 0; stroke: #e3e3e3; stroke-width: 0.6"/>
     </g>
     <g id="line2d_15">
      <g>
       <use xlink:href="#m6d8291d749" x="695.702034" y="315.4464" style="stroke: #000000; stroke-width: 0.8"/>
      </g>
     </g>
     <g id="text_22">
      <!-- 0,5 -->
      <g transform="translate(689.340784 328.524525) scale(0.08 -0.08)">
       <use xlink:href="#DejaVuSans-13"/>
       <use xlink:href="#DejaVuSans-f" transform="translate(63.625 0)"/>
       <use xlink:href="#DejaVuSans-18" transform="translate(95.40625 0)"/>
      </g>
     </g>
    </g>
    <g id="xtick_4">
     <g id="line2d_16">
      <path d="M 815.912294 315.4464 
L 815.912294 7.2 
" clip-path="url(#p4e71e6bb06)" style="fill: none; stroke-dasharray: 0.6,0.99; stroke-dashoffset: 0; stroke: #e3e3e3; stroke-width: 0.6"/>
     </g>
     <g id="line2d_17">
      <g>
       <use xlink:href="#m6d8291d749" x="815.912294" y="315.4464" style="stroke: #000000; stroke-width: 0.8"/>
      </g>
     </g>
     <g id="text_23">
      <!-- 0,75 -->
      <g transform="translate(807.006044 328.524525) scale(0.08 -0.08)">
       <use xlink:href="#DejaVuSans-13"/>
       <use xlink:href="#DejaVuSans-f" transform="translate(63.625 0)"/>
       <use xlink:href="#DejaVuSans-1a" transform="translate(95.40625 0)"/>
       <use xlink:href="#DejaVuSans-18" transform="translate(159.03125 0)"/>
      </g>
     </g>
    </g>
    <g id="xtick_5">
     <g id="line2d_18">
      <path d="M 936.122554 315.4464 
L 936.122554 7.2 
" clip-path="url(#p4e71e6bb06)" style="fill: none; stroke-dasharray: 0.6,0.99; stroke-dashoffset: 0; stroke: #e3e3e3; stroke-width: 0.6"/>
     </g>
     <g id="line2d_19">
      <g>
       <use xlink:href="#m6d8291d749" x="936.122554" y="315.4464" style="stroke: #000000; stroke-width: 0.8"/>
      </g>
     </g>
     <g id="text_24">
      <!-- 1 -->
      <g transform="translate(933.577554 328.524525) scale(0.08 -0.08)">
       <use xlink:href="#DejaVuSans-14"/>
      </g>
     </g>
    </g>
    <g id="text_25">
     <!-- posição relativa no texto (0 = início, 1 = fim) -->
     <g style="fill: #6b6b6b" transform="translate(594.179924 341.644994) scale(0.09 -0.09)">
      <defs>
       <path id="DejaVuSans-a9" d="M 3122 3366 
L 3122 2828 
Q 2878 2963 2633 3030 
Q 2388 3097 2138 3097 
Q 1578 3097 1268 2742 
Q 959 2388 959 1747 
Q 959 1106 1268 751 
Q 1578 397 2138 397 
Q 2388 397 2633 464 
Q 2878 531 3122 666 
L 3122 134 
Q 2881 22 2623 -34 
Q 2366 -91 2075 -91 
Q 1284 -91 818 406 
Q 353 903 353 1747 
Q 353 2603 823 3093 
Q 1294 3584 2113 3584 
Q 2378 3584 2631 3529 
Q 2884 3475 3122 3366 
z
M 2310 0 
Q 2481 -194 2565 -358 
Q 2650 -522 2650 -672 
Q 2650 -950 2462 -1092 
Q 2275 -1234 1906 -1234 
Q 1763 -1234 1627 -1215 
Q 1491 -1197 1356 -1159 
L 1356 -750 
Q 1463 -803 1578 -826 
Q 1694 -850 1841 -850 
Q 2025 -850 2119 -775 
Q 2213 -700 2213 -556 
Q 2213 -463 2145 -327 
Q 2078 -191 1938 0 
L 2310 0 
z
" transform="scale(0.015625)"/>
       <path id="DejaVuSans-a5" d="M 2194 1759 
Q 1497 1759 1228 1600 
Q 959 1441 959 1056 
Q 959 750 1161 570 
Q 1363 391 1709 391 
Q 2188 391 2477 730 
Q 2766 1069 2766 1631 
L 2766 1759 
L 2194 1759 
z
M 3341 1997 
L 3341 0 
L 2766 0 
L 2766 531 
Q 2569 213 2275 61 
Q 1981 -91 1556 -91 
Q 1019 -91 701 211 
Q 384 513 384 1019 
Q 384 1609 779 1909 
Q 1175 2209 1959 2209 
L 2766 2209 
L 2766 2266 
Q 2766 2663 2505 2880 
Q 2244 3097 1772 3097 
Q 1472 3097 1187 3025 
Q 903 2953 641 2809 
L 641 3341 
Q 956 3463 1253 3523 
Q 1550 3584 1831 3584 
Q 2591 3584 2966 3190 
Q 3341 2797 3341 1997 
z
M 1844 4281 
L 1665 4453 
Q 1597 4516 1545 4545 
Q 1494 4575 1453 4575 
Q 1334 4575 1278 4461 
Q 1222 4347 1215 4091 
L 825 4091 
Q 831 4513 990 4742 
Q 1150 4972 1434 4972 
Q 1553 4972 1653 4928 
Q 1753 4884 1869 4781 
L 2047 4609 
Q 2115 4547 2167 4517 
Q 2219 4488 2259 4488 
Q 2378 4488 2434 4602 
Q 2490 4716 2497 4972 
L 2887 4972 
Q 2881 4550 2721 4320 
Q 2562 4091 2278 4091 
Q 2159 4091 2059 4134 
Q 1959 4178 1844 4281 
z
" transform="scale(0.015625)"/>
       <path id="DejaVuSans-b" d="M 1984 4856 
Q 1566 4138 1362 3434 
Q 1159 2731 1159 2009 
Q 1159 1288 1364 580 
Q 1569 -128 1984 -844 
L 1484 -844 
Q 1016 -109 783 600 
Q 550 1309 550 2009 
Q 550 2706 781 3412 
Q 1013 4119 1484 4856 
L 1984 4856 
z
" transform="scale(0.015625)"/>
       <path id="DejaVuSans-20" d="M 678 2906 
L 4684 2906 
L 4684 2381 
L 678 2381 
L 678 2906 
z
M 678 1631 
L 4684 1631 
L 4684 1100 
L 678 1100 
L 678 1631 
z
" transform="scale(0.015625)"/>
       <path id="DejaVuSans-af" d="M 1325 5119 
L 1947 5119 
L 929 3944 
L 450 3944 
L 1325 5119 
z
M 603 3500 
L 1178 3500 
L 1178 0 
L 603 0 
L 603 3500 
z
M 891 3584 
L 891 3584 
z
" transform="scale(0.015625)"/>
       <path id="DejaVuSans-13af" d="M 3431 3500 
L 3431 0 
L 2853 0 
L 2853 3053 
L 1275 3053 
L 1275 0 
L 697 0 
L 697 3053 
L 147 3053 
L 147 3500 
L 697 3500 
L 697 3744 
Q 697 4316 967 4589 
Q 1238 4863 1797 4863 
L 2375 4863 
L 2375 4384 
L 1825 4384 
Q 1516 4384 1395 4259 
Q 1275 4134 1275 3809 
L 1275 3500 
L 3431 3500 
z
M 2853 4856 
L 3431 4856 
L 3431 4128 
L 2853 4128 
L 2853 4856 
z
" transform="scale(0.015625)"/>
       <path id="DejaVuSans-50" d="M 3328 2828 
Q 3544 3216 3844 3400 
Q 4144 3584 4550 3584 
Q 5097 3584 5394 3201 
Q 5691 2819 5691 2113 
L 5691 0 
L 5113 0 
L 5113 2094 
Q 5113 2597 4934 2840 
Q 4756 3084 4391 3084 
Q 3944 3084 3684 2787 
Q 3425 2491 3425 1978 
L 3425 0 
L 2847 0 
L 2847 2094 
Q 2847 2600 2669 2842 
Q 2491 3084 2119 3084 
Q 1678 3084 1418 2786 
Q 1159 2488 1159 1978 
L 1159 0 
L 581 0 
L 581 3500 
L 1159 3500 
L 1159 2956 
Q 1356 3278 1631 3431 
Q 1906 3584 2284 3584 
Q 2666 3584 2933 3390 
Q 3200 3197 3328 2828 
z
" transform="scale(0.015625)"/>
       <path id="DejaVuSans-c" d="M 513 4856 
L 1013 4856 
Q 1481 4119 1714 3412 
Q 1947 2706 1947 2009 
Q 1947 1309 1714 600 
Q 1481 -109 1013 -844 
L 513 -844 
Q 928 -128 1133 580 
Q 1338 1288 1338 2009 
Q 1338 2731 1133 3434 
Q 928 4138 513 4856 
z
" transform="scale(0.015625)"/>
      </defs>
      <use xlink:href="#DejaVuSans-53"/>
      <use xlink:href="#DejaVuSans-52" transform="translate(63.484375 0)"/>
      <use xlink:href="#DejaVuSans-56" transform="translate(124.671875 0)"/>
      <use xlink:href="#DejaVuSans-4c" transform="translate(176.765625 0)"/>
      <use xlink:href="#DejaVuSans-a9" transform="translate(204.546875 0)"/>
      <use xlink:href="#DejaVuSans-a5" transform="translate(259.53125 0)"/>
      <use xlink:href="#DejaVuSans-52" transform="translate(320.8125 0)"/>
      <use xlink:href="#DejaVuSans-3" transform="translate(382 0)"/>
      <use xlink:href="#DejaVuSans-55" transform="translate(413.78125 0)"/>
      <use xlink:href="#DejaVuSans-48" transform="translate(452.6875 0)"/>
      <use xlink:href="#DejaVuSans-4f" transform="translate(514.21875 0)"/>
      <use xlink:href="#DejaVuSans-44" transform="translate(542 0)"/>
      <use xlink:href="#DejaVuSans-57" transform="translate(603.28125 0)"/>
      <use xlink:href="#DejaVuSans-4c" transform="translate(642.484375 0)"/>
      <use xlink:href="#DejaVuSans-59" transform="translate(670.265625 0)"/>
      <use xlink:href="#DejaVuSans-44" transform="translate(729.453125 0)"/>
      <use xlink:href="#DejaVuSans-3" transform="translate(790.734375 0)"/>
      <use xlink:href="#DejaVuSans-51" transform="translate(822.515625 0)"/>
      <use xlink:href="#DejaVuSans-52" transform="translate(885.890625 0)"/>
      <use xlink:href="#DejaVuSans-3" transform="translate(947.078125 0)"/>
      <use xlink:href="#DejaVuSans-57" transform="translate(978.859375 0)"/>
      <use xlink:href="#DejaVuSans-48" transform="translate(1018.0625 0)"/>
      <use xlink:href="#DejaVuSans-5b" transform="translate(1077.84375 0)"/>
      <use xlink:href="#DejaVuSans-57" transform="translate(1137.03125 0)"/>
      <use xlink:href="#DejaVuSans-52" transform="translate(1176.234375 0)"/>
      <use xlink:href="#DejaVuSans-3" transform="translate(1237.421875 0)"/>
      <use xlink:href="#DejaVuSans-b" transform="translate(1269.203125 0)"/>
      <use xlink:href="#DejaVuSans-13" transform="translate(1308.21875 0)"/>
      <use xlink:href="#DejaVuSans-3" transform="translate(1371.84375 0)"/>
      <use xlink:href="#DejaVuSans-20" transform="translate(1403.625 0)"/>
      <use xlink:href="#DejaVuSans-3" transform="translate(1487.421875 0)"/>
      <use xlink:href="#DejaVuSans-4c" transform="translate(1519.203125 0)"/>
      <use xlink:href="#DejaVuSans-51" transform="translate(1546.984375 0)"/>
      <use xlink:href="#DejaVuSans-af" transform="translate(1610.359375 0)"/>
      <use xlink:href="#DejaVuSans-46" transform="translate(1638.140625 0)"/>
      <use xlink:href="#DejaVuSans-4c" transform="translate(1693.125 0)"/>
      <use xlink:href="#DejaVuSans-52" transform="translate(1720.90625 0)"/>
      <use xlink:href="#DejaVuSans-f" transform="translate(1782.09375 0)"/>
      <use xlink:href="#DejaVuSans-3" transform="translate(1813.875 0)"/>
      <use xlink:href="#DejaVuSans-14" transform="translate(1845.65625 0)"/>
      <use xlink:href="#DejaVuSans-3" transform="translate(1909.28125 0)"/>
      <use xlink:href="#DejaVuSans-20" transform="translate(1941.0625 0)"/>
      <use xlink:href="#DejaVuSans-3" transform="translate(2024.859375 0)"/>
      <use xlink:href="#DejaVuSans-13af" transform="translate(2056.640625 0)"/>
      <use xlink:href="#DejaVuSans-50" transform="translate(2119.625 0)"/>
      <use xlink:href="#DejaVuSans-c" transform="translate(2217.03125 0)"/>
     </g>
    </g>
   </g>
   <g id="matplotlib.axis_4"/>
   <g id="PathCollection_2">
    <path d="M 576.375263 294.506099 
C 576.834608 294.506099 577.275201 294.323599 577.600008 293.998793 
C 577.924814 293.673987 578.107314 293.233394 578.107314 292.774048 
C 578.107314 292.314703 577.924814 291.87411 577.600008 291.549304 
C 577.275201 291.224497 576.834608 291.041998 576.375263 291.041998 
C 575.915918 291.041998 575.475324 291.224497 575.150518 291.549304 
C 574.825712 291.87411 574.643212 292.314703 574.643212 292.774048 
C 574.643212 293.233394 574.825712 293.673987 575.150518 293.998793 
C 575.475324 294.323599 575.915918 294.506099 576.375263 294.506099 
z
" clip-path="url(#p4e71e6bb06)" style="fill: #0072b2; fill-opacity: 0.45"/>
   </g>
   <g id="PathCollection_3">
    <path d="M 799.157835 272.323376 
C 799.61718 272.323376 800.057773 272.140876 800.38258 271.81607 
C 800.707386 271.491264 800.889886 271.05067 800.889886 270.591325 
C 800.889886 270.13198 800.707386 269.691386 800.38258 269.36658 
C 800.057773 269.041774 799.61718 268.859274 799.157835 268.859274 
C 798.698489 268.859274 798.257896 269.041774 797.93309 269.36658 
C 797.608284 269.691386 797.425784 270.13198 797.425784 270.591325 
C 797.425784 271.05067 797.608284 271.491264 797.93309 271.81607 
C 798.257896 272.140876 798.698489 272.323376 799.157835 272.323376 
z
" clip-path="url(#p4e71e6bb06)" style="fill: #0072b2; fill-opacity: 0.45"/>
   </g>
   <g id="PathCollection_4">
    <path d="M 640.161598 234.211047 
C 640.620944 234.211047 641.061537 234.028547 641.386343 233.703741 
C 641.711149 233.378935 641.893649 232.938341 641.893649 232.478996 
C 641.893649 232.019651 641.711149 231.579057 641.386343 231.254251 
C 641.061537 230.929445 640.620944 230.746945 640.161598 230.746945 
C 639.702253 230.746945 639.26166 230.929445 638.936853 231.254251 
C 638.612047 231.579057 638.429547 232.019651 638.429547 232.478996 
C 638.429547 232.938341 638.612047 233.378935 638.936853 233.703741 
C 639.26166 234.028547 639.702253 234.211047 640.161598 234.211047 
z
" clip-path="url(#p4e71e6bb06)" style="fill: #009e73; fill-opacity: 0.45"/>
   </g>
   <g id="PathCollection_5">
    <defs>
     <path id="C1_0_3888727d84" d="M 0 1.732051 
C 0.459345 1.732051 0.899939 1.549551 1.224745 1.224745 
C 1.549551 0.899939 1.732051 0.459345 1.732051 -0 
C 1.732051 -0.459345 1.549551 -0.899939 1.224745 -1.224745 
C 0.899939 -1.549551 0.459345 -1.732051 0 -1.732051 
C -0.459345 -1.732051 -0.899939 -1.549551 -1.224745 -1.224745 
C -1.549551 -0.899939 -1.732051 -0.459345 -1.732051 0 
C -1.732051 0.459345 -1.549551 0.899939 -1.224745 1.224745 
C -0.899939 1.549551 -0.459345 1.732051 0 1.732051 
z
"/>
    </defs>
    <g clip-path="url(#p4e71e6bb06)">
     <use xlink:href="#C1_0_3888727d84" x="478.650203" y="199.928853" style="fill: #0072b2; fill-opacity: 0.45"/>
    </g>
    <g clip-path="url(#p4e71e6bb06)">
     <use xlink:href="#C1_0_3888727d84" x="679.417177" y="190.470605" style="fill: #0072b2; fill-opacity: 0.45"/>
    </g>
   </g>
   <g id="PathCollection_6">
    <defs>
     <path id="C2_0_68c8c1c13b" d="M 0 1.732051 
C 0.459345 1.732051 0.899939 1.549551 1.224745 1.224745 
C 1.549551 0.899939 1.732051 0.459345 1.732051 -0 
C 1.732051 -0.459345 1.549551 -0.899939 1.224745 -1.224745 
C 0.899939 -1.549551 0.459345 -1.732051 0 -1.732051 
C -0.459345 -1.732051 -0.899939 -1.549551 -1.224745 -1.224745 
C -1.549551 -0.899939 -1.732051 -0.459345 -1.732051 0 
C -1.732051 0.459345 -1.549551 0.899939 -1.224745 1.224745 
C -0.899939 1.549551 -0.459345 1.732051 0 1.732051 
z
"/>
    </defs>
    <g clip-path="url(#p4e71e6bb06)">
     <use xlink:href="#C2_0_68c8c1c13b" x="809.107039" y="158.067022" style="fill: #0072b2; fill-opacity: 0.45"/>
    </g>
    <g clip-path="url(#p4e71e6bb06)">
     <use xlink:href="#C2_0_68c8c1c13b" x="829.689951" y="154.096204" style="fill: #0072b2; fill-opacity: 0.45"/>
    </g>
   </g>
   <g id="PathCollection_7">
    <defs>
     <path id="C3_0_c32ffdde87" d="M 0 1.732051 
C 0.459345 1.732051 0.899939 1.549551 1.224745 1.224745 
C 1.549551 0.899939 1.732051 0.459345 1.732051 -0 
C 1.732051 -0.459345 1.549551 -0.899939 1.224745 -1.224745 
C 0.899939 -1.549551 0.459345 -1.732051 0 -1.732051 
C -0.459345 -1.732051 -0.899939 -1.549551 -1.224745 -1.224745 
C -1.549551 -0.899939 -1.732051 -0.459345 -1.732051 0 
C -1.732051 0.459345 -1.549551 0.899939 -1.224745 1.224745 
C -0.899939 1.549551 -0.459345 1.732051 0 1.732051 
z
"/>
    </defs>
    <g clip-path="url(#p4e71e6bb06)">
     <use xlink:href="#C3_0_c32ffdde87" x="720.328303" y="135.429954" style="fill: #0072b2; fill-opacity: 0.45"/>
    </g>
    <g clip-path="url(#p4e71e6bb06)">
     <use xlink:href="#C3_0_c32ffdde87" x="801.290944" y="129.256964" style="fill: #0072b2; fill-opacity: 0.45"/>
    </g>
   </g>
   <g id="PathCollection_8">
    <defs>
     <path id="C4_0_57fdb769a1" d="M 0 1.732051 
C 0.459345 1.732051 0.899939 1.549551 1.224745 1.224745 
C 1.549551 0.899939 1.732051 0.459345 1.732051 -0 
C 1.732051 -0.459345 1.549551 -0.899939 1.224745 -1.224745 
C 0.899939 -1.549551 0.459345 -1.732051 0 -1.732051 
C -0.459345 -1.732051 -0.899939 -1.549551 -1.224745 -1.224745 
C -1.549551 -0.899939 -1.732051 -0.459345 -1.732051 0 
C -1.732051 0.459345 -1.549551 0.899939 -1.224745 1.224745 
C -0.899939 1.549551 -0.459345 1.732051 0 1.732051 
z
"/>
    </defs>
    <g clip-path="url(#p4e71e6bb06)">
     <use xlink:href="#C4_0_57fdb769a1" x="463.304551" y="102.977904" style="fill: #0072b2; fill-opacity: 0.45"/>
    </g>
    <g clip-path="url(#p4e71e6bb06)">
     <use xlink:href="#C4_0_57fdb769a1" x="507.892903" y="99.497989" style="fill: #0072b2; fill-opacity: 0.45"/>
    </g>
    <g clip-path="url(#p4e71e6bb06)">
     <use xlink:href="#C4_0_57fdb769a1" x="511.777072" y="94.214427" style="fill: #0072b2; fill-opacity: 0.45"/>
    </g>
    <g clip-path="url(#p4e71e6bb06)">
     <use xlink:href="#C4_0_57fdb769a1" x="571.679239" y="103.038001" style="fill: #0072b2; fill-opacity: 0.45"/>
    </g>
    <g clip-path="url(#p4e71e6bb06)">
     <use xlink:href="#C4_0_57fdb769a1" x="592.485014" y="99.862865" style="fill: #0072b2; fill-opacity: 0.45"/>
    </g>
    <g clip-path="url(#p4e71e6bb06)">
     <use xlink:href="#C4_0_57fdb769a1" x="655.443575" y="91.551077" style="fill: #0072b2; fill-opacity: 0.45"/>
    </g>
    <g clip-path="url(#p4e71e6bb06)">
     <use xlink:href="#C4_0_57fdb769a1" x="700.095602" y="93.484942" style="fill: #0072b2; fill-opacity: 0.45"/>
    </g>
    <g clip-path="url(#p4e71e6bb06)">
     <use xlink:href="#C4_0_57fdb769a1" x="916.55844" y="99.46477" style="fill: #0072b2; fill-opacity: 0.45"/>
    </g>
    <g clip-path="url(#p4e71e6bb06)">
     <use xlink:href="#C4_0_57fdb769a1" x="921.954888" y="92.668145" style="fill: #0072b2; fill-opacity: 0.45"/>
    </g>
   </g>
   <g id="PathCollection_9">
    <defs>
     <path id="C5_0_b72048345e" d="M 0 1.732051 
C 0.459345 1.732051 0.899939 1.549551 1.224745 1.224745 
C 1.549551 0.899939 1.732051 0.459345 1.732051 -0 
C 1.732051 -0.459345 1.549551 -0.899939 1.224745 -1.224745 
C 0.899939 -1.549551 0.459345 -1.732051 0 -1.732051 
C -0.459345 -1.732051 -0.899939 -1.549551 -1.224745 -1.224745 
C -1.549551 -0.899939 -1.732051 -0.459345 -1.732051 0 
C -1.732051 0.459345 -1.549551 0.899939 -1.224745 1.224745 
C -0.899939 1.549551 -0.459345 1.732051 0 1.732051 
z
"/>
    </defs>
    <g clip-path="url(#p4e71e6bb06)">
     <use xlink:href="#C5_0_b72048345e" x="457.207679" y="55.105955" style="fill: #0072b2; fill-opacity: 0.45"/>
    </g>
    <g clip-path="url(#p4e71e6bb06)">
     <use xlink:href="#C5_0_b72048345e" x="457.908103" y="69.902199" style="fill: #0072b2; fill-opacity: 0.45"/>
    </g>
    <g clip-path="url(#p4e71e6bb06)">
     <use xlink:href="#C5_0_b72048345e" x="463.400064" y="55.172502" style="fill: #0072b2; fill-opacity: 0.45"/>
    </g>
    <g clip-path="url(#p4e71e6bb06)">
     <use xlink:href="#C5_0_b72048345e" x="464.052731" y="57.156802" style="fill: #0072b2; fill-opacity: 0.45"/>
    </g>
    <g clip-path="url(#p4e71e6bb06)">
     <use xlink:href="#C5_0_b72048345e" x="465.962978" y="63.751897" style="fill: #0072b2; fill-opacity: 0.45"/>
    </g>
    <g clip-path="url(#p4e71e6bb06)">
     <use xlink:href="#C5_0_b72048345e" x="469.68796" y="67.156815" style="fill: #0072b2; fill-opacity: 0.45"/>
    </g>
    <g clip-path="url(#p4e71e6bb06)">
     <use xlink:href="#C5_0_b72048345e" x="475.609726" y="52.38265" style="fill: #0072b2; fill-opacity: 0.45"/>
    </g>
    <g clip-path="url(#p4e71e6bb06)">
     <use xlink:href="#C5_0_b72048345e" x="477.137924" y="63.819268" style="fill: #0072b2; fill-opacity: 0.45"/>
    </g>
    <g clip-path="url(#p4e71e6bb06)">
     <use xlink:href="#C5_0_b72048345e" x="480.974337" y="68.312857" style="fill: #0072b2; fill-opacity: 0.45"/>
    </g>
    <g clip-path="url(#p4e71e6bb06)">
     <use xlink:href="#C5_0_b72048345e" x="488.535732" y="68.239689" style="fill: #0072b2; fill-opacity: 0.45"/>
    </g>
    <g clip-path="url(#p4e71e6bb06)">
     <use xlink:href="#C5_0_b72048345e" x="492.945219" y="54.404522" style="fill: #0072b2; fill-opacity: 0.45"/>
    </g>
    <g clip-path="url(#p4e71e6bb06)">
     <use xlink:href="#C5_0_b72048345e" x="503.117285" y="58.89663" style="fill: #0072b2; fill-opacity: 0.45"/>
    </g>
    <g clip-path="url(#p4e71e6bb06)">
     <use xlink:href="#C5_0_b72048345e" x="507.988415" y="55.148379" style="fill: #0072b2; fill-opacity: 0.45"/>
    </g>
    <g clip-path="url(#p4e71e6bb06)">
     <use xlink:href="#C5_0_b72048345e" x="511.872585" y="56.574624" style="fill: #0072b2; fill-opacity: 0.45"/>
    </g>
    <g clip-path="url(#p4e71e6bb06)">
     <use xlink:href="#C5_0_b72048345e" x="519.879704" y="60.140466" style="fill: #0072b2; fill-opacity: 0.45"/>
    </g>
    <g clip-path="url(#p4e71e6bb06)">
     <use xlink:href="#C5_0_b72048345e" x="571.424539" y="52.089599" style="fill: #0072b2; fill-opacity: 0.45"/>
    </g>
    <g clip-path="url(#p4e71e6bb06)">
     <use xlink:href="#C5_0_b72048345e" x="571.774751" y="63.046411" style="fill: #0072b2; fill-opacity: 0.45"/>
    </g>
    <g clip-path="url(#p4e71e6bb06)">
     <use xlink:href="#C5_0_b72048345e" x="613.40222" y="59.849077" style="fill: #0072b2; fill-opacity: 0.45"/>
    </g>
    <g clip-path="url(#p4e71e6bb06)">
     <use xlink:href="#C5_0_b72048345e" x="621.807307" y="54.737875" style="fill: #0072b2; fill-opacity: 0.45"/>
    </g>
    <g clip-path="url(#p4e71e6bb06)">
     <use xlink:href="#C5_0_b72048345e" x="622.571406" y="58.624014" style="fill: #0072b2; fill-opacity: 0.45"/>
    </g>
    <g clip-path="url(#p4e71e6bb06)">
     <use xlink:href="#C5_0_b72048345e" x="648.296067" y="54.142617" style="fill: #0072b2; fill-opacity: 0.45"/>
    </g>
    <g clip-path="url(#p4e71e6bb06)">
     <use xlink:href="#C5_0_b72048345e" x="652.084724" y="59.382642" style="fill: #0072b2; fill-opacity: 0.45"/>
    </g>
    <g clip-path="url(#p4e71e6bb06)">
     <use xlink:href="#C5_0_b72048345e" x="706.383499" y="57.038266" style="fill: #0072b2; fill-opacity: 0.45"/>
    </g>
    <g clip-path="url(#p4e71e6bb06)">
     <use xlink:href="#C5_0_b72048345e" x="735.705792" y="69.177515" style="fill: #0072b2; fill-opacity: 0.45"/>
    </g>
    <g clip-path="url(#p4e71e6bb06)">
     <use xlink:href="#C5_0_b72048345e" x="882.158073" y="65.822299" style="fill: #0072b2; fill-opacity: 0.45"/>
    </g>
    <g clip-path="url(#p4e71e6bb06)">
     <use xlink:href="#C5_0_b72048345e" x="916.653952" y="64.689181" style="fill: #0072b2; fill-opacity: 0.45"/>
    </g>
    <g clip-path="url(#p4e71e6bb06)">
     <use xlink:href="#C5_0_b72048345e" x="922.0504" y="68.551568" style="fill: #0072b2; fill-opacity: 0.45"/>
    </g>
    <g clip-path="url(#p4e71e6bb06)">
     <use xlink:href="#C5_0_b72048345e" x="924.008404" y="65.732139" style="fill: #0072b2; fill-opacity: 0.45"/>
    </g>
   </g>
   <g id="PathCollection_10">
    <defs>
     <path id="C6_0_9f3f116966" d="M 0 1.732051 
C 0.459345 1.732051 0.899939 1.549551 1.224745 1.224745 
C 1.549551 0.899939 1.732051 0.459345 1.732051 -0 
C 1.732051 -0.459345 1.549551 -0.899939 1.224745 -1.224745 
C 0.899939 -1.549551 0.459345 -1.732051 0 -1.732051 
C -0.459345 -1.732051 -0.899939 -1.549551 -1.224745 -1.224745 
C -1.549551 -0.899939 -1.732051 -0.459345 -1.732051 0 
C -1.732051 0.459345 -1.549551 0.899939 -1.224745 1.224745 
C -0.899939 1.549551 -0.459345 1.732051 0 1.732051 
z
"/>
    </defs>
    <g clip-path="url(#p4e71e6bb06)">
     <use xlink:href="#C6_0_9f3f116966" x="472.664762" y="34.655682" style="fill: #0072b2; fill-opacity: 0.45"/>
    </g>
    <g clip-path="url(#p4e71e6bb06)">
     <use xlink:href="#C6_0_9f3f116966" x="472.744356" y="31.394478" style="fill: #0072b2; fill-opacity: 0.45"/>
    </g>
    <g clip-path="url(#p4e71e6bb06)">
     <use xlink:href="#C6_0_9f3f116966" x="492.451739" y="24.802664" style="fill: #0072b2; fill-opacity: 0.45"/>
    </g>
    <g clip-path="url(#p4e71e6bb06)">
     <use xlink:href="#C6_0_9f3f116966" x="558.78507" y="29.793868" style="fill: #0072b2; fill-opacity: 0.45"/>
    </g>
    <g clip-path="url(#p4e71e6bb06)">
     <use xlink:href="#C6_0_9f3f116966" x="561.936978" y="29.695302" style="fill: #0072b2; fill-opacity: 0.45"/>
    </g>
    <g clip-path="url(#p4e71e6bb06)">
     <use xlink:href="#C6_0_9f3f116966" x="577.632842" y="32.656165" style="fill: #0072b2; fill-opacity: 0.45"/>
    </g>
    <g clip-path="url(#p4e71e6bb06)">
     <use xlink:href="#C6_0_9f3f116966" x="584.955456" y="31.597106" style="fill: #0072b2; fill-opacity: 0.45"/>
    </g>
    <g clip-path="url(#p4e71e6bb06)">
     <use xlink:href="#C6_0_9f3f116966" x="594.554448" y="19.256454" style="fill: #0072b2; fill-opacity: 0.45"/>
    </g>
    <g clip-path="url(#p4e71e6bb06)">
     <use xlink:href="#C6_0_9f3f116966" x="609.422538" y="24.575063" style="fill: #0072b2; fill-opacity: 0.45"/>
    </g>
    <g clip-path="url(#p4e71e6bb06)">
     <use xlink:href="#C6_0_9f3f116966" x="609.931937" y="25.291985" style="fill: #0072b2; fill-opacity: 0.45"/>
    </g>
    <g clip-path="url(#p4e71e6bb06)">
     <use xlink:href="#C6_0_9f3f116966" x="610.075206" y="33.363209" style="fill: #0072b2; fill-opacity: 0.45"/>
    </g>
    <g clip-path="url(#p4e71e6bb06)">
     <use xlink:href="#C6_0_9f3f116966" x="613.067926" y="23.080729" style="fill: #0072b2; fill-opacity: 0.45"/>
    </g>
    <g clip-path="url(#p4e71e6bb06)">
     <use xlink:href="#C6_0_9f3f116966" x="618.671318" y="33.505769" style="fill: #0072b2; fill-opacity: 0.45"/>
    </g>
    <g clip-path="url(#p4e71e6bb06)">
     <use xlink:href="#C6_0_9f3f116966" x="620.263191" y="29.524394" style="fill: #0072b2; fill-opacity: 0.45"/>
    </g>
    <g clip-path="url(#p4e71e6bb06)">
     <use xlink:href="#C6_0_9f3f116966" x="633.284709" y="18.2822" style="fill: #0072b2; fill-opacity: 0.45"/>
    </g>
    <g clip-path="url(#p4e71e6bb06)">
     <use xlink:href="#C6_0_9f3f116966" x="634.160239" y="24.723142" style="fill: #0072b2; fill-opacity: 0.45"/>
    </g>
    <g clip-path="url(#p4e71e6bb06)">
     <use xlink:href="#C6_0_9f3f116966" x="639.859142" y="26.253569" style="fill: #0072b2; fill-opacity: 0.45"/>
    </g>
    <g clip-path="url(#p4e71e6bb06)">
     <use xlink:href="#C6_0_9f3f116966" x="640.448135" y="23.900996" style="fill: #0072b2; fill-opacity: 0.45"/>
    </g>
    <g clip-path="url(#p4e71e6bb06)">
     <use xlink:href="#C6_0_9f3f116966" x="640.527729" y="20.985028" style="fill: #0072b2; fill-opacity: 0.45"/>
    </g>
    <g clip-path="url(#p4e71e6bb06)">
     <use xlink:href="#C6_0_9f3f116966" x="641.896739" y="22.216962" style="fill: #0072b2; fill-opacity: 0.45"/>
    </g>
    <g clip-path="url(#p4e71e6bb06)">
     <use xlink:href="#C6_0_9f3f116966" x="652.212074" y="32.296067" style="fill: #0072b2; fill-opacity: 0.45"/>
    </g>
    <g clip-path="url(#p4e71e6bb06)">
     <use xlink:href="#C6_0_9f3f116966" x="702.435655" y="35.925377" style="fill: #0072b2; fill-opacity: 0.45"/>
    </g>
    <g clip-path="url(#p4e71e6bb06)">
     <use xlink:href="#C6_0_9f3f116966" x="707.656997" y="30.703816" style="fill: #0072b2; fill-opacity: 0.45"/>
    </g>
    <g clip-path="url(#p4e71e6bb06)">
     <use xlink:href="#C6_0_9f3f116966" x="765.059923" y="31.583045" style="fill: #0072b2; fill-opacity: 0.45"/>
    </g>
    <g clip-path="url(#p4e71e6bb06)">
     <use xlink:href="#C6_0_9f3f116966" x="765.951372" y="32.628969" style="fill: #0072b2; fill-opacity: 0.45"/>
    </g>
    <g clip-path="url(#p4e71e6bb06)">
     <use xlink:href="#C6_0_9f3f116966" x="771.459251" y="19.141186" style="fill: #0072b2; fill-opacity: 0.45"/>
    </g>
    <g clip-path="url(#p4e71e6bb06)">
     <use xlink:href="#C6_0_9f3f116966" x="785.84978" y="20.367409" style="fill: #0072b2; fill-opacity: 0.45"/>
    </g>
    <g clip-path="url(#p4e71e6bb06)">
     <use xlink:href="#C6_0_9f3f116966" x="785.961211" y="30.7181" style="fill: #0072b2; fill-opacity: 0.45"/>
    </g>
    <g clip-path="url(#p4e71e6bb06)">
     <use xlink:href="#C6_0_9f3f116966" x="786.804903" y="24.438638" style="fill: #0072b2; fill-opacity: 0.45"/>
    </g>
    <g clip-path="url(#p4e71e6bb06)">
     <use xlink:href="#C6_0_9f3f116966" x="791.755627" y="29.226298" style="fill: #0072b2; fill-opacity: 0.45"/>
    </g>
    <g clip-path="url(#p4e71e6bb06)">
     <use xlink:href="#C6_0_9f3f116966" x="796.451651" y="19.663837" style="fill: #0072b2; fill-opacity: 0.45"/>
    </g>
    <g clip-path="url(#p4e71e6bb06)">
     <use xlink:href="#C6_0_9f3f116966" x="809.107039" y="28.061295" style="fill: #0072b2; fill-opacity: 0.45"/>
    </g>
    <g clip-path="url(#p4e71e6bb06)">
     <use xlink:href="#C6_0_9f3f116966" x="811.351579" y="31.635761" style="fill: #0072b2; fill-opacity: 0.45"/>
    </g>
    <g clip-path="url(#p4e71e6bb06)">
     <use xlink:href="#C6_0_9f3f116966" x="813.452851" y="31.972117" style="fill: #0072b2; fill-opacity: 0.45"/>
    </g>
    <g clip-path="url(#p4e71e6bb06)">
     <use xlink:href="#C6_0_9f3f116966" x="817.734988" y="26.172148" style="fill: #0072b2; fill-opacity: 0.45"/>
    </g>
    <g clip-path="url(#p4e71e6bb06)">
     <use xlink:href="#C6_0_9f3f116966" x="821.300783" y="31.67517" style="fill: #0072b2; fill-opacity: 0.45"/>
    </g>
    <g clip-path="url(#p4e71e6bb06)">
     <use xlink:href="#C6_0_9f3f116966" x="828.034404" y="25.744295" style="fill: #0072b2; fill-opacity: 0.45"/>
    </g>
    <g clip-path="url(#p4e71e6bb06)">
     <use xlink:href="#C6_0_9f3f116966" x="828.83034" y="19.972036" style="fill: #0072b2; fill-opacity: 0.45"/>
    </g>
    <g clip-path="url(#p4e71e6bb06)">
     <use xlink:href="#C6_0_9f3f116966" x="829.689951" y="29.156851" style="fill: #0072b2; fill-opacity: 0.45"/>
    </g>
    <g clip-path="url(#p4e71e6bb06)">
     <use xlink:href="#C6_0_9f3f116966" x="832.58716" y="32.47532" style="fill: #0072b2; fill-opacity: 0.45"/>
    </g>
    <g clip-path="url(#p4e71e6bb06)">
     <use xlink:href="#C6_0_9f3f116966" x="833.016965" y="18.134516" style="fill: #0072b2; fill-opacity: 0.45"/>
    </g>
    <g clip-path="url(#p4e71e6bb06)">
     <use xlink:href="#C6_0_9f3f116966" x="840.57836" y="27.127478" style="fill: #0072b2; fill-opacity: 0.45"/>
    </g>
    <g clip-path="url(#p4e71e6bb06)">
     <use xlink:href="#C6_0_9f3f116966" x="841.804102" y="34.841655" style="fill: #0072b2; fill-opacity: 0.45"/>
    </g>
    <g clip-path="url(#p4e71e6bb06)">
     <use xlink:href="#C6_0_9f3f116966" x="852.278624" y="35.648663" style="fill: #0072b2; fill-opacity: 0.45"/>
    </g>
    <g clip-path="url(#p4e71e6bb06)">
     <use xlink:href="#C6_0_9f3f116966" x="859.855937" y="34.496324" style="fill: #0072b2; fill-opacity: 0.45"/>
    </g>
    <g clip-path="url(#p4e71e6bb06)">
     <use xlink:href="#C6_0_9f3f116966" x="865.69811" y="24.954479" style="fill: #0072b2; fill-opacity: 0.45"/>
    </g>
    <g clip-path="url(#p4e71e6bb06)">
     <use xlink:href="#C6_0_9f3f116966" x="924.231266" y="21.920654" style="fill: #0072b2; fill-opacity: 0.45"/>
    </g>
    <g clip-path="url(#p4e71e6bb06)">
     <use xlink:href="#C6_0_9f3f116966" x="924.692909" y="28.737445" style="fill: #0072b2; fill-opacity: 0.45"/>
    </g>
   </g>
  </g>
 </g>
 <defs>
  <clipPath id="p622e97c0af">
   <rect x="108.739375" y="7.2" width="312.546677" height="308.2464"/>
  </clipPath>
  <clipPath id="p4e71e6bb06">
   <rect x="445.664692" y="7.2" width="500.074683" height="308.2464"/>
  </clipPath>
 </defs>
</svg>
