<?xml version="1.0" encoding="utf-8" standalone="no"?>
<!DOCTYPE svg PUBLIC "-//W3C//DTD SVG 1.1//EN"
  "http://www.w3.org/Graphics/SVG/1.1/DTD/svg11.dtd">
<svg xmlns:xlink="http://www.w3.org/1999/xlink" width="796.889062pt" height="599.55625pt" viewBox="0 0 796.889062 599.55625" xmlns="http://www.w3.org/2000/svg" version="1.1">
 <metadata>
  <rdf:RDF xmlns:dc="http://purl.org/dc/elements/1.1/" xmlns:cc="http://creativecommons.org/ns#" xmlns:rdf="http://www.w3.org/1999/02/22-rdf-syntax-ns#">
   <cc:Work>
    <dc:type rdf:resource="http://purl.org/dc/dcmitype/StillImage"/>
    <dc:date>2026-05-23T22:41:44.284119</dc:date>
    <dc:format>image/svg+xml</dc:format>
    <dc:creator>
     <cc:Agent>
      <dc:title>Matplotlib v3.10.9, https://matplotlib.org/</dc:title>
     </cc:Agent>
    </dc:creator>
   </cc:Work>
  </rdf:RDF>
 </metadata>
 <defs>
  <style type="text/css">*{stroke-linejoin: round; stroke-linecap: butt}</style>
 </defs>
 <g id="figure_1">
  <g id="patch_1">
   <path d="M 0 599.55625 
L 796.889062 599.55625 
L 796.889062 0 
L 0 0 
z
" style="fill: #ffffff"/>
  </g>
  <g id="axes_1">
   <g id="patch_2">
    <path d="M 120.089063 561.6 
L 789.689062 561.6 
L 789.689062 7.2 
L 120.089063 7.2 
z
" style="fill: #ffffff"/>
   </g>
   <g id="matplotlib.axis_1">
    <g id="xtick_1">
     <g id="line2d_1">
      <path d="M 120.089063 561.6 
L 120.089063 7.2 
" clip-path="url(#pe7fd5aecac)" style="fill: none; stroke: #b0b0b0; stroke-opacity: 0.3; stroke-width: 0.5; stroke-linecap: square"/>
     </g>
     <g id="line2d_2">
      <defs>
       <path id="mf4709eb201" d="M 0 0 
L 0 3.5 
" style="stroke: #000000; stroke-width: 0.8"/>
      </defs>
      <g>
       <use xlink:href="#mf4709eb201" x="120.089063" y="561.6" style="stroke: #000000; stroke-width: 0.8"/>
      </g>
     </g>
     <g id="text_1">
      <!-- 0 -->
      <g transform="translate(116.907813 576.198437) scale(0.1 -0.1)">
       <defs>
        <path id="DejaVuSans-30" d="M 2034 4250 
Q 1547 4250 1301 3770 
Q 1056 3291 1056 2328 
Q 1056 1369 1301 889 
Q 1547 409 2034 409 
Q 2525 409 2770 889 
Q 3016 1369 3016 2328 
Q 3016 3291 2770 3770 
Q 2525 4250 2034 4250 
z
M 2034 4750 
Q 2819 4750 3233 4129 
Q 3647 3509 3647 2328 
Q 3647 1150 3233 529 
Q 2819 -91 2034 -91 
Q 1250 -91 836 529 
Q 422 1150 422 2328 
Q 422 3509 836 4129 
Q 1250 4750 2034 4750 
z
" transform="scale(0.015625)"/>
       </defs>
       <use xlink:href="#DejaVuSans-30"/>
      </g>
     </g>
    </g>
    <g id="xtick_2">
     <g id="line2d_3">
      <path d="M 239.549563 561.6 
L 239.549563 7.2 
" clip-path="url(#pe7fd5aecac)" style="fill: none; stroke: #b0b0b0; stroke-opacity: 0.3; stroke-width: 0.5; stroke-linecap: square"/>
     </g>
     <g id="line2d_4">
      <g>
       <use xlink:href="#mf4709eb201" x="239.549563" y="561.6" style="stroke: #000000; stroke-width: 0.8"/>
      </g>
     </g>
     <g id="text_2">
      <!-- 5 -->
      <g transform="translate(236.368313 576.198437) scale(0.1 -0.1)">
       <defs>
        <path id="DejaVuSans-35" d="M 691 4666 
L 3169 4666 
L 3169 4134 
L 1269 4134 
L 1269 2991 
Q 1406 3038 1543 3061 
Q 1681 3084 1819 3084 
Q 2600 3084 3056 2656 
Q 3513 2228 3513 1497 
Q 3513 744 3044 326 
Q 2575 -91 1722 -91 
Q 1428 -91 1123 -41 
Q 819 9 494 109 
L 494 744 
Q 775 591 1075 516 
Q 1375 441 1709 441 
Q 2250 441 2565 725 
Q 2881 1009 2881 1497 
Q 2881 1984 2565 2268 
Q 2250 2553 1709 2553 
Q 1456 2553 1204 2497 
Q 953 2441 691 2322 
L 691 4666 
z
" transform="scale(0.015625)"/>
       </defs>
       <use xlink:href="#DejaVuSans-35"/>
      </g>
     </g>
    </g>
    <g id="xtick_3">
     <g id="line2d_5">
      <path d="M 359.010064 561.6 
L 359.010064 7.2 
" clip-path="url(#pe7fd5aecac)" style="fill: none; stroke: #b0b0b0; stroke-opacity: 0.3; stroke-width: 0.5; stroke-linecap: square"/>
     </g>
     <g id="line2d_6">
      <g>
       <use xlink:href="#mf4709eb201" x="359.010064" y="561.6" style="stroke: #000000; stroke-width: 0.8"/>
      </g>
     </g>
     <g id="text_3">
      <!-- 10 -->
      <g transform="translate(352.647564 576.198437) scale(0.1 -0.1)">
       <defs>
        <path id="DejaVuSans-31" d="M 794 531 
L 1825 531 
L 1825 4091 
L 703 3866 
L 703 4441 
L 1819 4666 
L 2450 4666 
L 2450 531 
L 3481 531 
L 3481 0 
L 794 0 
L 794 531 
z
" transform="scale(0.015625)"/>
       </defs>
       <use xlink:href="#DejaVuSans-31"/>
       <use xlink:href="#DejaVuSans-30" transform="translate(63.623047 0)"/>
      </g>
     </g>
    </g>
    <g id="xtick_4">
     <g id="line2d_7">
      <path d="M 478.470565 561.6 
L 478.470565 7.2 
" clip-path="url(#pe7fd5aecac)" style="fill: none; stroke: #b0b0b0; stroke-opacity: 0.3; stroke-width: 0.5; stroke-linecap: square"/>
     </g>
     <g id="line2d_8">
      <g>
       <use xlink:href="#mf4709eb201" x="478.470565" y="561.6" style="stroke: #000000; stroke-width: 0.8"/>
      </g>
     </g>
     <g id="text_4">
      <!-- 15 -->
      <g transform="translate(472.108065 576.198437) scale(0.1 -0.1)">
       <use xlink:href="#DejaVuSans-31"/>
       <use xlink:href="#DejaVuSans-35" transform="translate(63.623047 0)"/>
      </g>
     </g>
    </g>
    <g id="xtick_5">
     <g id="line2d_9">
      <path d="M 597.931066 561.6 
L 597.931066 7.2 
" clip-path="url(#pe7fd5aecac)" style="fill: none; stroke: #b0b0b0; stroke-opacity: 0.3; stroke-width: 0.5; stroke-linecap: square"/>
     </g>
     <g id="line2d_10">
      <g>
       <use xlink:href="#mf4709eb201" x="597.931066" y="561.6" style="stroke: #000000; stroke-width: 0.8"/>
      </g>
     </g>
     <g id="text_5">
      <!-- 20 -->
      <g transform="translate(591.568566 576.198437) scale(0.1 -0.1)">
       <defs>
        <path id="DejaVuSans-32" d="M 1228 531 
L 3431 531 
L 3431 0 
L 469 0 
L 469 531 
Q 828 903 1448 1529 
Q 2069 2156 2228 2338 
Q 2531 2678 2651 2914 
Q 2772 3150 2772 3378 
Q 2772 3750 2511 3984 
Q 2250 4219 1831 4219 
Q 1534 4219 1204 4116 
Q 875 4013 500 3803 
L 500 4441 
Q 881 4594 1212 4672 
Q 1544 4750 1819 4750 
Q 2544 4750 2975 4387 
Q 3406 4025 3406 3419 
Q 3406 3131 3298 2873 
Q 3191 2616 2906 2266 
Q 2828 2175 2409 1742 
Q 1991 1309 1228 531 
z
" transform="scale(0.015625)"/>
       </defs>
       <use xlink:href="#DejaVuSans-32"/>
       <use xlink:href="#DejaVuSans-30" transform="translate(63.623047 0)"/>
      </g>
     </g>
    </g>
    <g id="xtick_6">
     <g id="line2d_11">
      <path d="M 717.391567 561.6 
L 717.391567 7.2 
" clip-path="url(#pe7fd5aecac)" style="fill: none; stroke: #b0b0b0; stroke-opacity: 0.3; stroke-width: 0.5; stroke-linecap: square"/>
     </g>
     <g id="line2d_12">
      <g>
       <use xlink:href="#mf4709eb201" x="717.391567" y="561.6" style="stroke: #000000; stroke-width: 0.8"/>
      </g>
     </g>
     <g id="text_6">
      <!-- 25 -->
      <g transform="translate(711.029067 576.198437) scale(0.1 -0.1)">
       <use xlink:href="#DejaVuSans-32"/>
       <use xlink:href="#DejaVuSans-35" transform="translate(63.623047 0)"/>
      </g>
     </g>
    </g>
    <g id="text_7">
     <!-- Frequência por 10.000 palavras -->
     <g transform="translate(375.639062 590.276562) scale(0.1 -0.1)">
      <defs>
       <path id="DejaVuSans-46" d="M 628 4666 
L 3309 4666 
L 3309 4134 
L 1259 4134 
L 1259 2759 
L 3109 2759 
L 3109 2228 
L 1259 2228 
L 1259 0 
L 628 0 
L 628 4666 
z
" transform="scale(0.015625)"/>
       <path id="DejaVuSans-72" d="M 2631 2963 
Q 2534 3019 2420 3045 
Q 2306 3072 2169 3072 
Q 1681 3072 1420 2755 
Q 1159 2438 1159 1844 
L 1159 0 
L 581 0 
L 581 3500 
L 1159 3500 
L 1159 2956 
Q 1341 3275 1631 3429 
Q 1922 3584 2338 3584 
Q 2397 3584 2469 3576 
Q 2541 3569 2628 3553 
L 2631 2963 
z
" transform="scale(0.015625)"/>
       <path id="DejaVuSans-65" d="M 3597 1894 
L 3597 1613 
L 953 1613 
Q 991 1019 1311 708 
Q 1631 397 2203 397 
Q 2534 397 2845 478 
Q 3156 559 3463 722 
L 3463 178 
Q 3153 47 2828 -22 
Q 2503 -91 2169 -91 
Q 1331 -91 842 396 
Q 353 884 353 1716 
Q 353 2575 817 3079 
Q 1281 3584 2069 3584 
Q 2775 3584 3186 3129 
Q 3597 2675 3597 1894 
z
M 3022 2063 
Q 3016 2534 2758 2815 
Q 2500 3097 2075 3097 
Q 1594 3097 1305 2825 
Q 1016 2553 972 2059 
L 3022 2063 
z
" transform="scale(0.015625)"/>
       <path id="DejaVuSans-71" d="M 947 1747 
Q 947 1113 1208 752 
Q 1469 391 1925 391 
Q 2381 391 2643 752 
Q 2906 1113 2906 1747 
Q 2906 2381 2643 2742 
Q 2381 3103 1925 3103 
Q 1469 3103 1208 2742 
Q 947 2381 947 1747 
z
M 2906 525 
Q 2725 213 2448 61 
Q 2172 -91 1784 -91 
Q 1150 -91 751 415 
Q 353 922 353 1747 
Q 353 2572 751 3078 
Q 1150 3584 1784 3584 
Q 2172 3584 2448 3432 
Q 2725 3281 2906 2969 
L 2906 3500 
L 3481 3500 
L 3481 -1331 
L 2906 -1331 
L 2906 525 
z
" transform="scale(0.015625)"/>
       <path id="DejaVuSans-75" d="M 544 1381 
L 544 3500 
L 1119 3500 
L 1119 1403 
Q 1119 906 1312 657 
Q 1506 409 1894 409 
Q 2359 409 2629 706 
Q 2900 1003 2900 1516 
L 2900 3500 
L 3475 3500 
L 3475 0 
L 2900 0 
L 2900 538 
Q 2691 219 2414 64 
Q 2138 -91 1772 -91 
Q 1169 -91 856 284 
Q 544 659 544 1381 
z
M 1991 3584 
L 1991 3584 
z
" transform="scale(0.015625)"/>
       <path id="DejaVuSans-ea" d="M 3597 1894 
L 3597 1613 
L 953 1613 
Q 991 1019 1311 708 
Q 1631 397 2203 397 
Q 2534 397 2845 478 
Q 3156 559 3463 722 
L 3463 178 
Q 3153 47 2828 -22 
Q 2503 -91 2169 -91 
Q 1331 -91 842 396 
Q 353 884 353 1716 
Q 353 2575 817 3079 
Q 1281 3584 2069 3584 
Q 2775 3584 3186 3129 
Q 3597 2675 3597 1894 
z
M 3022 2063 
Q 3016 2534 2758 2815 
Q 2500 3097 2075 3097 
Q 1594 3097 1305 2825 
Q 1016 2553 972 2059 
L 3022 2063 
z
M 1801 5119 
L 2263 5119 
L 3029 3944 
L 2595 3944 
L 2032 4709 
L 1470 3944 
L 1035 3944 
L 1801 5119 
z
" transform="scale(0.015625)"/>
       <path id="DejaVuSans-6e" d="M 3513 2113 
L 3513 0 
L 2938 0 
L 2938 2094 
Q 2938 2591 2744 2837 
Q 2550 3084 2163 3084 
Q 1697 3084 1428 2787 
Q 1159 2491 1159 1978 
L 1159 0 
L 581 0 
L 581 3500 
L 1159 3500 
L 1159 2956 
Q 1366 3272 1645 3428 
Q 1925 3584 2291 3584 
Q 2894 3584 3203 3211 
Q 3513 2838 3513 2113 
z
" transform="scale(0.015625)"/>
       <path id="DejaVuSans-63" d="M 3122 3366 
L 3122 2828 
Q 2878 2963 2633 3030 
Q 2388 3097 2138 3097 
Q 1578 3097 1268 2742 
Q 959 2388 959 1747 
Q 959 1106 1268 751 
Q 1578 397 2138 397 
Q 2388 397 2633 464 
Q 2878 531 3122 666 
L 3122 134 
Q 2881 22 2623 -34 
Q 2366 -91 2075 -91 
Q 1284 -91 818 406 
Q 353 903 353 1747 
Q 353 2603 823 3093 
Q 1294 3584 2113 3584 
Q 2378 3584 2631 3529 
Q 2884 3475 3122 3366 
z
" transform="scale(0.015625)"/>
       <path id="DejaVuSans-69" d="M 603 3500 
L 1178 3500 
L 1178 0 
L 603 0 
L 603 3500 
z
M 603 4863 
L 1178 4863 
L 1178 4134 
L 603 4134 
L 603 4863 
z
" transform="scale(0.015625)"/>
       <path id="DejaVuSans-61" d="M 2194 1759 
Q 1497 1759 1228 1600 
Q 959 1441 959 1056 
Q 959 750 1161 570 
Q 1363 391 1709 391 
Q 2188 391 2477 730 
Q 2766 1069 2766 1631 
L 2766 1759 
L 2194 1759 
z
M 3341 1997 
L 3341 0 
L 2766 0 
L 2766 531 
Q 2569 213 2275 61 
Q 1981 -91 1556 -91 
Q 1019 -91 701 211 
Q 384 513 384 1019 
Q 384 1609 779 1909 
Q 1175 2209 1959 2209 
L 2766 2209 
L 2766 2266 
Q 2766 2663 2505 2880 
Q 2244 3097 1772 3097 
Q 1472 3097 1187 3025 
Q 903 2953 641 2809 
L 641 3341 
Q 956 3463 1253 3523 
Q 1550 3584 1831 3584 
Q 2591 3584 2966 3190 
Q 3341 2797 3341 1997 
z
" transform="scale(0.015625)"/>
       <path id="DejaVuSans-20" transform="scale(0.015625)"/>
       <path id="DejaVuSans-70" d="M 1159 525 
L 1159 -1331 
L 581 -1331 
L 581 3500 
L 1159 3500 
L 1159 2969 
Q 1341 3281 1617 3432 
Q 1894 3584 2278 3584 
Q 2916 3584 3314 3078 
Q 3713 2572 3713 1747 
Q 3713 922 3314 415 
Q 2916 -91 2278 -91 
Q 1894 -91 1617 61 
Q 1341 213 1159 525 
z
M 3116 1747 
Q 3116 2381 2855 2742 
Q 2594 3103 2138 3103 
Q 1681 3103 1420 2742 
Q 1159 2381 1159 1747 
Q 1159 1113 1420 752 
Q 1681 391 2138 391 
Q 2594 391 2855 752 
Q 3116 1113 3116 1747 
z
" transform="scale(0.015625)"/>
       <path id="DejaVuSans-6f" d="M 1959 3097 
Q 1497 3097 1228 2736 
Q 959 2375 959 1747 
Q 959 1119 1226 758 
Q 1494 397 1959 397 
Q 2419 397 2687 759 
Q 2956 1122 2956 1747 
Q 2956 2369 2687 2733 
Q 2419 3097 1959 3097 
z
M 1959 3584 
Q 2709 3584 3137 3096 
Q 3566 2609 3566 1747 
Q 3566 888 3137 398 
Q 2709 -91 1959 -91 
Q 1206 -91 779 398 
Q 353 888 353 1747 
Q 353 2609 779 3096 
Q 1206 3584 1959 3584 
z
" transform="scale(0.015625)"/>
       <path id="DejaVuSans-2e" d="M 684 794 
L 1344 794 
L 1344 0 
L 684 0 
L 684 794 
z
" transform="scale(0.015625)"/>
       <path id="DejaVuSans-6c" d="M 603 4863 
L 1178 4863 
L 1178 0 
L 603 0 
L 603 4863 
z
" transform="scale(0.015625)"/>
       <path id="DejaVuSans-76" d="M 191 3500 
L 800 3500 
L 1894 563 
L 2988 3500 
L 3597 3500 
L 2284 0 
L 1503 0 
L 191 3500 
z
" transform="scale(0.015625)"/>
       <path id="DejaVuSans-73" d="M 2834 3397 
L 2834 2853 
Q 2591 2978 2328 3040 
Q 2066 3103 1784 3103 
Q 1356 3103 1142 2972 
Q 928 2841 928 2578 
Q 928 2378 1081 2264 
Q 1234 2150 1697 2047 
L 1894 2003 
Q 2506 1872 2764 1633 
Q 3022 1394 3022 966 
Q 3022 478 2636 193 
Q 2250 -91 1575 -91 
Q 1294 -91 989 -36 
Q 684 19 347 128 
L 347 722 
Q 666 556 975 473 
Q 1284 391 1588 391 
Q 1994 391 2212 530 
Q 2431 669 2431 922 
Q 2431 1156 2273 1281 
Q 2116 1406 1581 1522 
L 1381 1569 
Q 847 1681 609 1914 
Q 372 2147 372 2553 
Q 372 3047 722 3315 
Q 1072 3584 1716 3584 
Q 2034 3584 2315 3537 
Q 2597 3491 2834 3397 
z
" transform="scale(0.015625)"/>
      </defs>
      <use xlink:href="#DejaVuSans-46"/>
      <use xlink:href="#DejaVuSans-72" transform="translate(50.269531 0)"/>
      <use xlink:href="#DejaVuSans-65" transform="translate(89.132812 0)"/>
      <use xlink:href="#DejaVuSans-71" transform="translate(150.65625 0)"/>
      <use xlink:href="#DejaVuSans-75" transform="translate(214.132812 0)"/>
      <use xlink:href="#DejaVuSans-ea" transform="translate(277.511719 0)"/>
      <use xlink:href="#DejaVuSans-6e" transform="translate(339.035156 0)"/>
      <use xlink:href="#DejaVuSans-63" transform="translate(402.414062 0)"/>
      <use xlink:href="#DejaVuSans-69" transform="translate(457.394531 0)"/>
      <use xlink:href="#DejaVuSans-61" transform="translate(485.177734 0)"/>
      <use xlink:href="#DejaVuSans-20" transform="translate(546.457031 0)"/>
      <use xlink:href="#DejaVuSans-70" transform="translate(578.244141 0)"/>
      <use xlink:href="#DejaVuSans-6f" transform="translate(641.720703 0)"/>
      <use xlink:href="#DejaVuSans-72" transform="translate(702.902344 0)"/>
      <use xlink:href="#DejaVuSans-20" transform="translate(744.015625 0)"/>
      <use xlink:href="#DejaVuSans-31" transform="translate(775.802734 0)"/>
      <use xlink:href="#DejaVuSans-30" transform="translate(839.425781 0)"/>
      <use xlink:href="#DejaVuSans-2e" transform="translate(903.048828 0)"/>
      <use xlink:href="#DejaVuSans-30" transform="translate(934.835938 0)"/>
      <use xlink:href="#DejaVuSans-30" transform="translate(998.458984 0)"/>
      <use xlink:href="#DejaVuSans-30" transform="translate(1062.082031 0)"/>
      <use xlink:href="#DejaVuSans-20" transform="translate(1125.705078 0)"/>
      <use xlink:href="#DejaVuSans-70" transform="translate(1157.492188 0)"/>
      <use xlink:href="#DejaVuSans-61" transform="translate(1220.96875 0)"/>
      <use xlink:href="#DejaVuSans-6c" transform="translate(1282.248047 0)"/>
      <use xlink:href="#DejaVuSans-61" transform="translate(1310.03125 0)"/>
      <use xlink:href="#DejaVuSans-76" transform="translate(1371.310547 0)"/>
      <use xlink:href="#DejaVuSans-72" transform="translate(1430.490234 0)"/>
      <use xlink:href="#DejaVuSans-61" transform="translate(1471.603516 0)"/>
      <use xlink:href="#DejaVuSans-73" transform="translate(1532.882812 0)"/>
     </g>
    </g>
   </g>
   <g id="matplotlib.axis_2">
    <g id="ytick_1">
     <g id="line2d_13">
      <defs>
       <path id="m612e8b8344" d="M 0 0 
L -3.5 0 
" style="stroke: #000000; stroke-width: 0.8"/>
      </defs>
      <g>
       <use xlink:href="#m612e8b8344" x="120.089063" y="44.542772" style="stroke: #000000; stroke-width: 0.8"/>
      </g>
     </g>
     <g id="text_8">
      <!-- militar -->
      <g transform="translate(80.854688 48.341991) scale(0.1 -0.1)">
       <defs>
        <path id="DejaVuSans-6d" d="M 3328 2828 
Q 3544 3216 3844 3400 
Q 4144 3584 4550 3584 
Q 5097 3584 5394 3201 
Q 5691 2819 5691 2113 
L 5691 0 
L 5113 0 
L 5113 2094 
Q 5113 2597 4934 2840 
Q 4756 3084 4391 3084 
Q 3944 3084 3684 2787 
Q 3425 2491 3425 1978 
L 3425 0 
L 2847 0 
L 2847 2094 
Q 2847 2600 2669 2842 
Q 2491 3084 2119 3084 
Q 1678 3084 1418 2786 
Q 1159 2488 1159 1978 
L 1159 0 
L 581 0 
L 581 3500 
L 1159 3500 
L 1159 2956 
Q 1356 3278 1631 3431 
Q 1906 3584 2284 3584 
Q 2666 3584 2933 3390 
Q 3200 3197 3328 2828 
z
" transform="scale(0.015625)"/>
        <path id="DejaVuSans-74" d="M 1172 4494 
L 1172 3500 
L 2356 3500 
L 2356 3053 
L 1172 3053 
L 1172 1153 
Q 1172 725 1289 603 
Q 1406 481 1766 481 
L 2356 481 
L 2356 0 
L 1766 0 
Q 1100 0 847 248 
Q 594 497 594 1153 
L 594 3053 
L 172 3053 
L 172 3500 
L 594 3500 
L 594 4494 
L 1172 4494 
z
" transform="scale(0.015625)"/>
       </defs>
       <use xlink:href="#DejaVuSans-6d"/>
       <use xlink:href="#DejaVuSans-69" transform="translate(97.412109 0)"/>
       <use xlink:href="#DejaVuSans-6c" transform="translate(125.195312 0)"/>
       <use xlink:href="#DejaVuSans-69" transform="translate(152.978516 0)"/>
       <use xlink:href="#DejaVuSans-74" transform="translate(180.761719 0)"/>
       <use xlink:href="#DejaVuSans-61" transform="translate(219.970703 0)"/>
       <use xlink:href="#DejaVuSans-72" transform="translate(281.25 0)"/>
      </g>
     </g>
    </g>
    <g id="ytick_2">
     <g id="line2d_14">
      <g>
       <use xlink:href="#m612e8b8344" x="120.089063" y="74.524926" style="stroke: #000000; stroke-width: 0.8"/>
      </g>
     </g>
     <g id="text_9">
      <!-- black_box -->
      <g transform="translate(63.471875 78.324144) scale(0.1 -0.1)">
       <defs>
        <path id="DejaVuSans-62" d="M 3116 1747 
Q 3116 2381 2855 2742 
Q 2594 3103 2138 3103 
Q 1681 3103 1420 2742 
Q 1159 2381 1159 1747 
Q 1159 1113 1420 752 
Q 1681 391 2138 391 
Q 2594 391 2855 752 
Q 3116 1113 3116 1747 
z
M 1159 2969 
Q 1341 3281 1617 3432 
Q 1894 3584 2278 3584 
Q 2916 3584 3314 3078 
Q 3713 2572 3713 1747 
Q 3713 922 3314 415 
Q 2916 -91 2278 -91 
Q 1894 -91 1617 61 
Q 1341 213 1159 525 
L 1159 0 
L 581 0 
L 581 4863 
L 1159 4863 
L 1159 2969 
z
" transform="scale(0.015625)"/>
        <path id="DejaVuSans-6b" d="M 581 4863 
L 1159 4863 
L 1159 1991 
L 2875 3500 
L 3609 3500 
L 1753 1863 
L 3688 0 
L 2938 0 
L 1159 1709 
L 1159 0 
L 581 0 
L 581 4863 
z
" transform="scale(0.015625)"/>
        <path id="DejaVuSans-5f" d="M 3263 -1063 
L 3263 -1509 
L -63 -1509 
L -63 -1063 
L 3263 -1063 
z
" transform="scale(0.015625)"/>
        <path id="DejaVuSans-78" d="M 3513 3500 
L 2247 1797 
L 3578 0 
L 2900 0 
L 1881 1375 
L 863 0 
L 184 0 
L 1544 1831 
L 300 3500 
L 978 3500 
L 1906 2253 
L 2834 3500 
L 3513 3500 
z
" transform="scale(0.015625)"/>
       </defs>
       <use xlink:href="#DejaVuSans-62"/>
       <use xlink:href="#DejaVuSans-6c" transform="translate(63.476562 0)"/>
       <use xlink:href="#DejaVuSans-61" transform="translate(91.259766 0)"/>
       <use xlink:href="#DejaVuSans-63" transform="translate(152.539062 0)"/>
       <use xlink:href="#DejaVuSans-6b" transform="translate(207.519531 0)"/>
       <use xlink:href="#DejaVuSans-5f" transform="translate(265.429688 0)"/>
       <use xlink:href="#DejaVuSans-62" transform="translate(315.429688 0)"/>
       <use xlink:href="#DejaVuSans-6f" transform="translate(378.90625 0)"/>
       <use xlink:href="#DejaVuSans-78" transform="translate(436.962891 0)"/>
      </g>
     </g>
    </g>
    <g id="ytick_3">
     <g id="line2d_15">
      <g>
       <use xlink:href="#m612e8b8344" x="120.089063" y="104.507079" style="stroke: #000000; stroke-width: 0.8"/>
      </g>
     </g>
     <g id="text_10">
      <!-- network -->
      <g transform="translate(72.479688 108.306298) scale(0.1 -0.1)">
       <defs>
        <path id="DejaVuSans-77" d="M 269 3500 
L 844 3500 
L 1563 769 
L 2278 3500 
L 2956 3500 
L 3675 769 
L 4391 3500 
L 4966 3500 
L 4050 0 
L 3372 0 
L 2619 2869 
L 1863 0 
L 1184 0 
L 269 3500 
z
" transform="scale(0.015625)"/>
       </defs>
       <use xlink:href="#DejaVuSans-6e"/>
       <use xlink:href="#DejaVuSans-65" transform="translate(63.378906 0)"/>
       <use xlink:href="#DejaVuSans-74" transform="translate(124.902344 0)"/>
       <use xlink:href="#DejaVuSans-77" transform="translate(164.111328 0)"/>
       <use xlink:href="#DejaVuSans-6f" transform="translate(245.898438 0)"/>
       <use xlink:href="#DejaVuSans-72" transform="translate(307.080078 0)"/>
       <use xlink:href="#DejaVuSans-6b" transform="translate(348.193359 0)"/>
      </g>
     </g>
    </g>
    <g id="ytick_4">
     <g id="line2d_16">
      <g>
       <use xlink:href="#m612e8b8344" x="120.089063" y="134.489233" style="stroke: #000000; stroke-width: 0.8"/>
      </g>
     </g>
     <g id="text_11">
      <!-- translation -->
      <g transform="translate(59.321875 138.288451) scale(0.1 -0.1)">
       <use xlink:href="#DejaVuSans-74"/>
       <use xlink:href="#DejaVuSans-72" transform="translate(39.208984 0)"/>
       <use xlink:href="#DejaVuSans-61" transform="translate(80.322266 0)"/>
       <use xlink:href="#DejaVuSans-6e" transform="translate(141.601562 0)"/>
       <use xlink:href="#DejaVuSans-73" transform="translate(204.980469 0)"/>
       <use xlink:href="#DejaVuSans-6c" transform="translate(257.080078 0)"/>
       <use xlink:href="#DejaVuSans-61" transform="translate(284.863281 0)"/>
       <use xlink:href="#DejaVuSans-74" transform="translate(346.142578 0)"/>
       <use xlink:href="#DejaVuSans-69" transform="translate(385.351562 0)"/>
       <use xlink:href="#DejaVuSans-6f" transform="translate(413.134766 0)"/>
       <use xlink:href="#DejaVuSans-6e" transform="translate(474.316406 0)"/>
      </g>
     </g>
    </g>
    <g id="ytick_5">
     <g id="line2d_17">
      <g>
       <use xlink:href="#m612e8b8344" x="120.089063" y="164.471386" style="stroke: #000000; stroke-width: 0.8"/>
      </g>
     </g>
     <g id="text_12">
      <!-- inscription -->
      <g transform="translate(60.873438 168.270605) scale(0.1 -0.1)">
       <use xlink:href="#DejaVuSans-69"/>
       <use xlink:href="#DejaVuSans-6e" transform="translate(27.783203 0)"/>
       <use xlink:href="#DejaVuSans-73" transform="translate(91.162109 0)"/>
       <use xlink:href="#DejaVuSans-63" transform="translate(143.261719 0)"/>
       <use xlink:href="#DejaVuSans-72" transform="translate(198.242188 0)"/>
       <use xlink:href="#DejaVuSans-69" transform="translate(239.355469 0)"/>
       <use xlink:href="#DejaVuSans-70" transform="translate(267.138672 0)"/>
       <use xlink:href="#DejaVuSans-74" transform="translate(330.615234 0)"/>
       <use xlink:href="#DejaVuSans-69" transform="translate(369.824219 0)"/>
       <use xlink:href="#DejaVuSans-6f" transform="translate(397.607422 0)"/>
       <use xlink:href="#DejaVuSans-6e" transform="translate(458.789062 0)"/>
      </g>
     </g>
    </g>
    <g id="ytick_6">
     <g id="line2d_18">
      <g>
       <use xlink:href="#m612e8b8344" x="120.089063" y="194.45354" style="stroke: #000000; stroke-width: 0.8"/>
      </g>
     </g>
     <g id="text_13">
      <!-- construction -->
      <g transform="translate(50.903125 198.252758) scale(0.1 -0.1)">
       <use xlink:href="#DejaVuSans-63"/>
       <use xlink:href="#DejaVuSans-6f" transform="translate(54.980469 0)"/>
       <use xlink:href="#DejaVuSans-6e" transform="translate(116.162109 0)"/>
       <use xlink:href="#DejaVuSans-73" transform="translate(179.541016 0)"/>
       <use xlink:href="#DejaVuSans-74" transform="translate(231.640625 0)"/>
       <use xlink:href="#DejaVuSans-72" transform="translate(270.849609 0)"/>
       <use xlink:href="#DejaVuSans-75" transform="translate(311.962891 0)"/>
       <use xlink:href="#DejaVuSans-63" transform="translate(375.341797 0)"/>
       <use xlink:href="#DejaVuSans-74" transform="translate(430.322266 0)"/>
       <use xlink:href="#DejaVuSans-69" transform="translate(469.53125 0)"/>
       <use xlink:href="#DejaVuSans-6f" transform="translate(497.314453 0)"/>
       <use xlink:href="#DejaVuSans-6e" transform="translate(558.496094 0)"/>
      </g>
     </g>
    </g>
    <g id="ytick_7">
     <g id="line2d_19">
      <g>
       <use xlink:href="#m612e8b8344" x="120.089063" y="224.435693" style="stroke: #000000; stroke-width: 0.8"/>
      </g>
     </g>
     <g id="text_14">
      <!-- spokesperson -->
      <g transform="translate(44.34375 228.234912) scale(0.1 -0.1)">
       <use xlink:href="#DejaVuSans-73"/>
       <use xlink:href="#DejaVuSans-70" transform="translate(52.099609 0)"/>
       <use xlink:href="#DejaVuSans-6f" transform="translate(115.576172 0)"/>
       <use xlink:href="#DejaVuSans-6b" transform="translate(176.757812 0)"/>
       <use xlink:href="#DejaVuSans-65" transform="translate(231.042969 0)"/>
       <use xlink:href="#DejaVuSans-73" transform="translate(292.566406 0)"/>
       <use xlink:href="#DejaVuSans-70" transform="translate(344.666016 0)"/>
       <use xlink:href="#DejaVuSans-65" transform="translate(408.142578 0)"/>
       <use xlink:href="#DejaVuSans-72" transform="translate(469.666016 0)"/>
       <use xlink:href="#DejaVuSans-73" transform="translate(510.779297 0)"/>
       <use xlink:href="#DejaVuSans-6f" transform="translate(562.878906 0)"/>
       <use xlink:href="#DejaVuSans-6e" transform="translate(624.060547 0)"/>
      </g>
     </g>
    </g>
    <g id="ytick_8">
     <g id="line2d_20">
      <g>
       <use xlink:href="#m612e8b8344" x="120.089063" y="254.417847" style="stroke: #000000; stroke-width: 0.8"/>
      </g>
     </g>
     <g id="text_15">
      <!-- enrollment -->
      <g transform="translate(58.885938 258.217065) scale(0.1 -0.1)">
       <use xlink:href="#DejaVuSans-65"/>
       <use xlink:href="#DejaVuSans-6e" transform="translate(61.523438 0)"/>
       <use xlink:href="#DejaVuSans-72" transform="translate(124.902344 0)"/>
       <use xlink:href="#DejaVuSans-6f" transform="translate(163.765625 0)"/>
       <use xlink:href="#DejaVuSans-6c" transform="translate(224.947266 0)"/>
       <use xlink:href="#DejaVuSans-6c" transform="translate(252.730469 0)"/>
       <use xlink:href="#DejaVuSans-6d" transform="translate(280.513672 0)"/>
       <use xlink:href="#DejaVuSans-65" transform="translate(377.925781 0)"/>
       <use xlink:href="#DejaVuSans-6e" transform="translate(439.449219 0)"/>
       <use xlink:href="#DejaVuSans-74" transform="translate(502.828125 0)"/>
      </g>
     </g>
    </g>
    <g id="ytick_9">
     <g id="line2d_21">
      <g>
       <use xlink:href="#m612e8b8344" x="120.089063" y="284.4" style="stroke: #000000; stroke-width: 0.8"/>
      </g>
     </g>
     <g id="text_16">
      <!-- trial_of_strength -->
      <g transform="translate(31.621875 288.199219) scale(0.1 -0.1)">
       <defs>
        <path id="DejaVuSans-66" d="M 2375 4863 
L 2375 4384 
L 1825 4384 
Q 1516 4384 1395 4259 
Q 1275 4134 1275 3809 
L 1275 3500 
L 2222 3500 
L 2222 3053 
L 1275 3053 
L 1275 0 
L 697 0 
L 697 3053 
L 147 3053 
L 147 3500 
L 697 3500 
L 697 3744 
Q 697 4328 969 4595 
Q 1241 4863 1831 4863 
L 2375 4863 
z
" transform="scale(0.015625)"/>
        <path id="DejaVuSans-67" d="M 2906 1791 
Q 2906 2416 2648 2759 
Q 2391 3103 1925 3103 
Q 1463 3103 1205 2759 
Q 947 2416 947 1791 
Q 947 1169 1205 825 
Q 1463 481 1925 481 
Q 2391 481 2648 825 
Q 2906 1169 2906 1791 
z
M 3481 434 
Q 3481 -459 3084 -895 
Q 2688 -1331 1869 -1331 
Q 1566 -1331 1297 -1286 
Q 1028 -1241 775 -1147 
L 775 -588 
Q 1028 -725 1275 -790 
Q 1522 -856 1778 -856 
Q 2344 -856 2625 -561 
Q 2906 -266 2906 331 
L 2906 616 
Q 2728 306 2450 153 
Q 2172 0 1784 0 
Q 1141 0 747 490 
Q 353 981 353 1791 
Q 353 2603 747 3093 
Q 1141 3584 1784 3584 
Q 2172 3584 2450 3431 
Q 2728 3278 2906 2969 
L 2906 3500 
L 3481 3500 
L 3481 434 
z
" transform="scale(0.015625)"/>
        <path id="DejaVuSans-68" d="M 3513 2113 
L 3513 0 
L 2938 0 
L 2938 2094 
Q 2938 2591 2744 2837 
Q 2550 3084 2163 3084 
Q 1697 3084 1428 2787 
Q 1159 2491 1159 1978 
L 1159 0 
L 581 0 
L 581 4863 
L 1159 4863 
L 1159 2956 
Q 1366 3272 1645 3428 
Q 1925 3584 2291 3584 
Q 2894 3584 3203 3211 
Q 3513 2838 3513 2113 
z
" transform="scale(0.015625)"/>
       </defs>
       <use xlink:href="#DejaVuSans-74"/>
       <use xlink:href="#DejaVuSans-72" transform="translate(39.208984 0)"/>
       <use xlink:href="#DejaVuSans-69" transform="translate(80.322266 0)"/>
       <use xlink:href="#DejaVuSans-61" transform="translate(108.105469 0)"/>
       <use xlink:href="#DejaVuSans-6c" transform="translate(169.384766 0)"/>
       <use xlink:href="#DejaVuSans-5f" transform="translate(197.167969 0)"/>
       <use xlink:href="#DejaVuSans-6f" transform="translate(247.167969 0)"/>
       <use xlink:href="#DejaVuSans-66" transform="translate(308.349609 0)"/>
       <use xlink:href="#DejaVuSans-5f" transform="translate(343.554688 0)"/>
       <use xlink:href="#DejaVuSans-73" transform="translate(393.554688 0)"/>
       <use xlink:href="#DejaVuSans-74" transform="translate(445.654297 0)"/>
       <use xlink:href="#DejaVuSans-72" transform="translate(484.863281 0)"/>
       <use xlink:href="#DejaVuSans-65" transform="translate(523.726562 0)"/>
       <use xlink:href="#DejaVuSans-6e" transform="translate(585.25 0)"/>
       <use xlink:href="#DejaVuSans-67" transform="translate(648.628906 0)"/>
       <use xlink:href="#DejaVuSans-74" transform="translate(712.105469 0)"/>
       <use xlink:href="#DejaVuSans-68" transform="translate(751.314453 0)"/>
      </g>
     </g>
    </g>
    <g id="ytick_10">
     <g id="line2d_22">
      <g>
       <use xlink:href="#m612e8b8344" x="120.089063" y="314.382153" style="stroke: #000000; stroke-width: 0.8"/>
      </g>
     </g>
     <g id="text_17">
      <!-- centre_of_calculation -->
      <g transform="translate(7.2 318.181372) scale(0.1 -0.1)">
       <use xlink:href="#DejaVuSans-63"/>
       <use xlink:href="#DejaVuSans-65" transform="translate(54.980469 0)"/>
       <use xlink:href="#DejaVuSans-6e" transform="translate(116.503906 0)"/>
       <use xlink:href="#DejaVuSans-74" transform="translate(179.882812 0)"/>
       <use xlink:href="#DejaVuSans-72" transform="translate(219.091797 0)"/>
       <use xlink:href="#DejaVuSans-65" transform="translate(257.955078 0)"/>
       <use xlink:href="#DejaVuSans-5f" transform="translate(319.478516 0)"/>
       <use xlink:href="#DejaVuSans-6f" transform="translate(369.478516 0)"/>
       <use xlink:href="#DejaVuSans-66" transform="translate(430.660156 0)"/>
       <use xlink:href="#DejaVuSans-5f" transform="translate(465.865234 0)"/>
       <use xlink:href="#DejaVuSans-63" transform="translate(515.865234 0)"/>
       <use xlink:href="#DejaVuSans-61" transform="translate(570.845703 0)"/>
       <use xlink:href="#DejaVuSans-6c" transform="translate(632.125 0)"/>
       <use xlink:href="#DejaVuSans-63" transform="translate(659.908203 0)"/>
       <use xlink:href="#DejaVuSans-75" transform="translate(714.888672 0)"/>
       <use xlink:href="#DejaVuSans-6c" transform="translate(778.267578 0)"/>
       <use xlink:href="#DejaVuSans-61" transform="translate(806.050781 0)"/>
       <use xlink:href="#DejaVuSans-74" transform="translate(867.330078 0)"/>
       <use xlink:href="#DejaVuSans-69" transform="translate(906.539062 0)"/>
       <use xlink:href="#DejaVuSans-6f" transform="translate(934.322266 0)"/>
       <use xlink:href="#DejaVuSans-6e" transform="translate(995.503906 0)"/>
      </g>
     </g>
    </g>
    <g id="ytick_11">
     <g id="line2d_23">
      <g>
       <use xlink:href="#m612e8b8344" x="120.089063" y="344.364307" style="stroke: #000000; stroke-width: 0.8"/>
      </g>
     </g>
     <g id="text_18">
      <!-- actor_network -->
      <g transform="translate(41.703125 348.163526) scale(0.1 -0.1)">
       <use xlink:href="#DejaVuSans-61"/>
       <use xlink:href="#DejaVuSans-63" transform="translate(61.279297 0)"/>
       <use xlink:href="#DejaVuSans-74" transform="translate(116.259766 0)"/>
       <use xlink:href="#DejaVuSans-6f" transform="translate(155.46875 0)"/>
       <use xlink:href="#DejaVuSans-72" transform="translate(216.650391 0)"/>
       <use xlink:href="#DejaVuSans-5f" transform="translate(257.763672 0)"/>
       <use xlink:href="#DejaVuSans-6e" transform="translate(307.763672 0)"/>
       <use xlink:href="#DejaVuSans-65" transform="translate(371.142578 0)"/>
       <use xlink:href="#DejaVuSans-74" transform="translate(432.666016 0)"/>
       <use xlink:href="#DejaVuSans-77" transform="translate(471.875 0)"/>
       <use xlink:href="#DejaVuSans-6f" transform="translate(553.662109 0)"/>
       <use xlink:href="#DejaVuSans-72" transform="translate(614.84375 0)"/>
       <use xlink:href="#DejaVuSans-6b" transform="translate(655.957031 0)"/>
      </g>
     </g>
    </g>
    <g id="ytick_12">
     <g id="line2d_24">
      <g>
       <use xlink:href="#m612e8b8344" x="120.089063" y="374.34646" style="stroke: #000000; stroke-width: 0.8"/>
      </g>
     </g>
     <g id="text_19">
      <!-- proposition -->
      <g transform="translate(57.126563 378.145679) scale(0.1 -0.1)">
       <use xlink:href="#DejaVuSans-70"/>
       <use xlink:href="#DejaVuSans-72" transform="translate(63.476562 0)"/>
       <use xlink:href="#DejaVuSans-6f" transform="translate(102.339844 0)"/>
       <use xlink:href="#DejaVuSans-70" transform="translate(163.521484 0)"/>
       <use xlink:href="#DejaVuSans-6f" transform="translate(226.998047 0)"/>
       <use xlink:href="#DejaVuSans-73" transform="translate(288.179688 0)"/>
       <use xlink:href="#DejaVuSans-69" transform="translate(340.279297 0)"/>
       <use xlink:href="#DejaVuSans-74" transform="translate(368.0625 0)"/>
       <use xlink:href="#DejaVuSans-69" transform="translate(407.271484 0)"/>
       <use xlink:href="#DejaVuSans-6f" transform="translate(435.054688 0)"/>
       <use xlink:href="#DejaVuSans-6e" transform="translate(496.236328 0)"/>
      </g>
     </g>
    </g>
    <g id="ytick_13">
     <g id="line2d_25">
      <g>
       <use xlink:href="#m612e8b8344" x="120.089063" y="404.328614" style="stroke: #000000; stroke-width: 0.8"/>
      </g>
     </g>
     <g id="text_20">
      <!-- immutable_mobile -->
      <g transform="translate(20.246875 408.127833) scale(0.1 -0.1)">
       <use xlink:href="#DejaVuSans-69"/>
       <use xlink:href="#DejaVuSans-6d" transform="translate(27.783203 0)"/>
       <use xlink:href="#DejaVuSans-6d" transform="translate(125.195312 0)"/>
       <use xlink:href="#DejaVuSans-75" transform="translate(222.607422 0)"/>
       <use xlink:href="#DejaVuSans-74" transform="translate(285.986328 0)"/>
       <use xlink:href="#DejaVuSans-61" transform="translate(325.195312 0)"/>
       <use xlink:href="#DejaVuSans-62" transform="translate(386.474609 0)"/>
       <use xlink:href="#DejaVuSans-6c" transform="translate(449.951172 0)"/>
       <use xlink:href="#DejaVuSans-65" transform="translate(477.734375 0)"/>
       <use xlink:href="#DejaVuSans-5f" transform="translate(539.257812 0)"/>
       <use xlink:href="#DejaVuSans-6d" transform="translate(589.257812 0)"/>
       <use xlink:href="#DejaVuSans-6f" transform="translate(686.669922 0)"/>
       <use xlink:href="#DejaVuSans-62" transform="translate(747.851562 0)"/>
       <use xlink:href="#DejaVuSans-69" transform="translate(811.328125 0)"/>
       <use xlink:href="#DejaVuSans-6c" transform="translate(839.111328 0)"/>
       <use xlink:href="#DejaVuSans-65" transform="translate(866.894531 0)"/>
      </g>
     </g>
    </g>
    <g id="ytick_14">
     <g id="line2d_26">
      <g>
       <use xlink:href="#m612e8b8344" x="120.089063" y="434.310767" style="stroke: #000000; stroke-width: 0.8"/>
      </g>
     </g>
     <g id="text_21">
      <!-- articulation -->
      <g transform="translate(56.254688 438.109986) scale(0.1 -0.1)">
       <use xlink:href="#DejaVuSans-61"/>
       <use xlink:href="#DejaVuSans-72" transform="translate(61.279297 0)"/>
       <use xlink:href="#DejaVuSans-74" transform="translate(102.392578 0)"/>
       <use xlink:href="#DejaVuSans-69" transform="translate(141.601562 0)"/>
       <use xlink:href="#DejaVuSans-63" transform="translate(169.384766 0)"/>
       <use xlink:href="#DejaVuSans-75" transform="translate(224.365234 0)"/>
       <use xlink:href="#DejaVuSans-6c" transform="translate(287.744141 0)"/>
       <use xlink:href="#DejaVuSans-61" transform="translate(315.527344 0)"/>
       <use xlink:href="#DejaVuSans-74" transform="translate(376.806641 0)"/>
       <use xlink:href="#DejaVuSans-69" transform="translate(416.015625 0)"/>
       <use xlink:href="#DejaVuSans-6f" transform="translate(443.798828 0)"/>
       <use xlink:href="#DejaVuSans-6e" transform="translate(504.980469 0)"/>
      </g>
     </g>
    </g>
    <g id="ytick_15">
     <g id="line2d_27">
      <g>
       <use xlink:href="#m612e8b8344" x="120.089063" y="464.292921" style="stroke: #000000; stroke-width: 0.8"/>
      </g>
     </g>
     <g id="text_22">
      <!-- factish -->
      <g transform="translate(79.696875 468.09214) scale(0.1 -0.1)">
       <use xlink:href="#DejaVuSans-66"/>
       <use xlink:href="#DejaVuSans-61" transform="translate(35.205078 0)"/>
       <use xlink:href="#DejaVuSans-63" transform="translate(96.484375 0)"/>
       <use xlink:href="#DejaVuSans-74" transform="translate(151.464844 0)"/>
       <use xlink:href="#DejaVuSans-69" transform="translate(190.673828 0)"/>
       <use xlink:href="#DejaVuSans-73" transform="translate(218.457031 0)"/>
       <use xlink:href="#DejaVuSans-68" transform="translate(270.556641 0)"/>
      </g>
     </g>
    </g>
    <g id="ytick_16">
     <g id="line2d_28">
      <g>
       <use xlink:href="#m612e8b8344" x="120.089063" y="494.275074" style="stroke: #000000; stroke-width: 0.8"/>
      </g>
     </g>
     <g id="text_23">
      <!-- circulating_reference -->
      <g transform="translate(8.059375 498.074293) scale(0.1 -0.1)">
       <use xlink:href="#DejaVuSans-63"/>
       <use xlink:href="#DejaVuSans-69" transform="translate(54.980469 0)"/>
       <use xlink:href="#DejaVuSans-72" transform="translate(82.763672 0)"/>
       <use xlink:href="#DejaVuSans-63" transform="translate(121.626953 0)"/>
       <use xlink:href="#DejaVuSans-75" transform="translate(176.607422 0)"/>
       <use xlink:href="#DejaVuSans-6c" transform="translate(239.986328 0)"/>
       <use xlink:href="#DejaVuSans-61" transform="translate(267.769531 0)"/>
       <use xlink:href="#DejaVuSans-74" transform="translate(329.048828 0)"/>
       <use xlink:href="#DejaVuSans-69" transform="translate(368.257812 0)"/>
       <use xlink:href="#DejaVuSans-6e" transform="translate(396.041016 0)"/>
       <use xlink:href="#DejaVuSans-67" transform="translate(459.419922 0)"/>
       <use xlink:href="#DejaVuSans-5f" transform="translate(522.896484 0)"/>
       <use xlink:href="#DejaVuSans-72" transform="translate(572.896484 0)"/>
       <use xlink:href="#DejaVuSans-65" transform="translate(611.759766 0)"/>
       <use xlink:href="#DejaVuSans-66" transform="translate(673.283203 0)"/>
       <use xlink:href="#DejaVuSans-65" transform="translate(708.488281 0)"/>
       <use xlink:href="#DejaVuSans-72" transform="translate(770.011719 0)"/>
       <use xlink:href="#DejaVuSans-65" transform="translate(808.875 0)"/>
       <use xlink:href="#DejaVuSans-6e" transform="translate(870.398438 0)"/>
       <use xlink:href="#DejaVuSans-63" transform="translate(933.777344 0)"/>
       <use xlink:href="#DejaVuSans-65" transform="translate(988.757812 0)"/>
      </g>
     </g>
    </g>
    <g id="ytick_17">
     <g id="line2d_29">
      <g>
       <use xlink:href="#m612e8b8344" x="120.089063" y="524.257228" style="stroke: #000000; stroke-width: 0.8"/>
      </g>
     </g>
     <g id="text_24">
      <!-- agonistic -->
      <g transform="translate(67.971875 528.056447) scale(0.1 -0.1)">
       <use xlink:href="#DejaVuSans-61"/>
       <use xlink:href="#DejaVuSans-67" transform="translate(61.279297 0)"/>
       <use xlink:href="#DejaVuSans-6f" transform="translate(124.755859 0)"/>
       <use xlink:href="#DejaVuSans-6e" transform="translate(185.9375 0)"/>
       <use xlink:href="#DejaVuSans-69" transform="translate(249.316406 0)"/>
       <use xlink:href="#DejaVuSans-73" transform="translate(277.099609 0)"/>
       <use xlink:href="#DejaVuSans-74" transform="translate(329.199219 0)"/>
       <use xlink:href="#DejaVuSans-69" transform="translate(368.408203 0)"/>
       <use xlink:href="#DejaVuSans-63" transform="translate(396.191406 0)"/>
      </g>
     </g>
    </g>
   </g>
   <g id="patch_3">
    <path d="M 120.089063 32.4 
L 203.711413 32.4 
L 203.711413 40.495181 
L 120.089063 40.495181 
z
" clip-path="url(#pe7fd5aecac)" style="fill: #e08570; stroke: #ffffff; stroke-width: 0.3; stroke-linejoin: miter"/>
   </g>
   <g id="patch_4">
    <path d="M 120.089063 62.382153 
L 142.786558 62.382153 
L 142.786558 70.477335 
L 120.089063 70.477335 
z
" clip-path="url(#pe7fd5aecac)" style="fill: #d4d4d4; stroke: #ffffff; stroke-width: 0.3; stroke-linejoin: miter"/>
   </g>
   <g id="patch_5">
    <path d="M 120.089063 92.364307 
L 221.869409 92.364307 
L 221.869409 100.459488 
L 120.089063 100.459488 
z
" clip-path="url(#pe7fd5aecac)" style="fill: #d4d4d4; stroke: #ffffff; stroke-width: 0.3; stroke-linejoin: miter"/>
   </g>
   <g id="patch_6">
    <path d="M 120.089063 122.34646 
L 126.778851 122.34646 
L 126.778851 130.441642 
L 120.089063 130.441642 
z
" clip-path="url(#pe7fd5aecac)" style="fill: #d4d4d4; stroke: #ffffff; stroke-width: 0.3; stroke-linejoin: miter"/>
   </g>
   <g id="patch_7">
    <path d="M 120.089063 152.328614 
L 402.493687 152.328614 
L 402.493687 160.423795 
L 120.089063 160.423795 
z
" clip-path="url(#pe7fd5aecac)" style="fill: #d4d4d4; stroke: #ffffff; stroke-width: 0.3; stroke-linejoin: miter"/>
   </g>
   <g id="patch_8">
    <path d="M 120.089063 182.310767 
L 580.967675 182.310767 
L 580.967675 190.405949 
L 120.089063 190.405949 
z
" clip-path="url(#pe7fd5aecac)" style="fill: #d4d4d4; stroke: #ffffff; stroke-width: 0.3; stroke-linejoin: miter"/>
   </g>
   <g id="patch_9">
    <path d="M 120.089063 212.292921 
L 122.239352 212.292921 
L 122.239352 220.388102 
L 120.089063 220.388102 
z
" clip-path="url(#pe7fd5aecac)" style="fill: #d4d4d4; stroke: #ffffff; stroke-width: 0.3; stroke-linejoin: miter"/>
   </g>
   <g id="patch_10">
    <path d="M 120.089063 242.275074 
L 122.239352 242.275074 
L 122.239352 250.370256 
L 120.089063 250.370256 
z
" clip-path="url(#pe7fd5aecac)" style="fill: #d4d4d4; stroke: #ffffff; stroke-width: 0.3; stroke-linejoin: miter"/>
   </g>
   <g id="patch_11">
    <path d="M 120.089063 272.257228 
L 120.089063 272.257228 
L 120.089063 280.352409 
L 120.089063 280.352409 
z
" clip-path="url(#pe7fd5aecac)" style="fill: #d4d4d4; stroke: #ffffff; stroke-width: 0.3; stroke-linejoin: miter"/>
   </g>
   <g id="patch_12">
    <path d="M 120.089063 302.239381 
L 120.089063 302.239381 
L 120.089063 310.334563 
L 120.089063 310.334563 
z
" clip-path="url(#pe7fd5aecac)" style="fill: #d4d4d4; stroke: #ffffff; stroke-width: 0.3; stroke-linejoin: miter"/>
   </g>
   <g id="patch_13">
    <path d="M 120.089063 332.221535 
L 120.089063 332.221535 
L 120.089063 340.316716 
L 120.089063 340.316716 
z
" clip-path="url(#pe7fd5aecac)" style="fill: #d4d4d4; stroke: #ffffff; stroke-width: 0.3; stroke-linejoin: miter"/>
   </g>
   <g id="patch_14">
    <path d="M 120.089063 362.203688 
L 131.31835 362.203688 
L 131.31835 370.29887 
L 120.089063 370.29887 
z
" clip-path="url(#pe7fd5aecac)" style="fill: #d4d4d4; stroke: #ffffff; stroke-width: 0.3; stroke-linejoin: miter"/>
   </g>
   <g id="patch_15">
    <path d="M 120.089063 392.185842 
L 120.089063 392.185842 
L 120.089063 400.281023 
L 120.089063 400.281023 
z
" clip-path="url(#pe7fd5aecac)" style="fill: #d4d4d4; stroke: #ffffff; stroke-width: 0.3; stroke-linejoin: miter"/>
   </g>
   <g id="patch_16">
    <path d="M 120.089063 422.167995 
L 120.089063 422.167995 
L 120.089063 430.263177 
L 120.089063 430.263177 
z
" clip-path="url(#pe7fd5aecac)" style="fill: #d4d4d4; stroke: #ffffff; stroke-width: 0.3; stroke-linejoin: miter"/>
   </g>
   <g id="patch_17">
    <path d="M 120.089063 452.150149 
L 120.089063 452.150149 
L 120.089063 460.24533 
L 120.089063 460.24533 
z
" clip-path="url(#pe7fd5aecac)" style="fill: #d4d4d4; stroke: #ffffff; stroke-width: 0.3; stroke-linejoin: miter"/>
   </g>
   <g id="patch_18">
    <path d="M 120.089063 482.132302 
L 120.089063 482.132302 
L 120.089063 490.227484 
L 120.089063 490.227484 
z
" clip-path="url(#pe7fd5aecac)" style="fill: #d4d4d4; stroke: #ffffff; stroke-width: 0.3; stroke-linejoin: miter"/>
   </g>
   <g id="patch_19">
    <path d="M 120.089063 512.114456 
L 192.482126 512.114456 
L 192.482126 520.209637 
L 120.089063 520.209637 
z
" clip-path="url(#pe7fd5aecac)" style="fill: #d4d4d4; stroke: #ffffff; stroke-width: 0.3; stroke-linejoin: miter"/>
   </g>
   <g id="patch_20">
    <path d="M 120.089063 40.495181 
L 740.089062 40.495181 
L 740.089062 48.590363 
L 120.089063 48.590363 
z
" clip-path="url(#pe7fd5aecac)" style="fill: #b22222; stroke: #ffffff; stroke-width: 0.3; stroke-linejoin: miter"/>
   </g>
   <g id="patch_21">
    <path d="M 120.089063 70.477335 
L 348.975382 70.477335 
L 348.975382 78.572516 
L 120.089063 78.572516 
z
" clip-path="url(#pe7fd5aecac)" style="fill: #808080; stroke: #ffffff; stroke-width: 0.3; stroke-linejoin: miter"/>
   </g>
   <g id="patch_22">
    <path d="M 120.089063 100.459488 
L 337.029332 100.459488 
L 337.029332 108.55467 
L 120.089063 108.55467 
z
" clip-path="url(#pe7fd5aecac)" style="fill: #808080; stroke: #ffffff; stroke-width: 0.3; stroke-linejoin: miter"/>
   </g>
   <g id="patch_23">
    <path d="M 120.089063 130.441642 
L 253.406982 130.441642 
L 253.406982 138.536823 
L 120.089063 138.536823 
z
" clip-path="url(#pe7fd5aecac)" style="fill: #808080; stroke: #ffffff; stroke-width: 0.3; stroke-linejoin: miter"/>
   </g>
   <g id="patch_24">
    <path d="M 120.089063 160.423795 
L 225.931066 160.423795 
L 225.931066 168.518977 
L 120.089063 168.518977 
z
" clip-path="url(#pe7fd5aecac)" style="fill: #808080; stroke: #ffffff; stroke-width: 0.3; stroke-linejoin: miter"/>
   </g>
   <g id="patch_25">
    <path d="M 120.089063 190.405949 
L 210.640122 190.405949 
L 210.640122 198.50113 
L 120.089063 198.50113 
z
" clip-path="url(#pe7fd5aecac)" style="fill: #808080; stroke: #ffffff; stroke-width: 0.3; stroke-linejoin: miter"/>
   </g>
   <g id="patch_26">
    <path d="M 120.089063 220.388102 
L 198.694072 220.388102 
L 198.694072 228.483284 
L 120.089063 228.483284 
z
" clip-path="url(#pe7fd5aecac)" style="fill: #808080; stroke: #ffffff; stroke-width: 0.3; stroke-linejoin: miter"/>
   </g>
   <g id="patch_27">
    <path d="M 120.089063 250.370256 
L 195.349178 250.370256 
L 195.349178 258.465437 
L 120.089063 258.465437 
z
" clip-path="url(#pe7fd5aecac)" style="fill: #808080; stroke: #ffffff; stroke-width: 0.3; stroke-linejoin: miter"/>
   </g>
   <g id="patch_28">
    <path d="M 120.089063 280.352409 
L 154.254766 280.352409 
L 154.254766 288.447591 
L 120.089063 288.447591 
z
" clip-path="url(#pe7fd5aecac)" style="fill: #808080; stroke: #ffffff; stroke-width: 0.3; stroke-linejoin: miter"/>
   </g>
   <g id="patch_29">
    <path d="M 120.089063 310.334563 
L 152.582319 310.334563 
L 152.582319 318.429744 
L 120.089063 318.429744 
z
" clip-path="url(#pe7fd5aecac)" style="fill: #808080; stroke: #ffffff; stroke-width: 0.3; stroke-linejoin: miter"/>
   </g>
   <g id="patch_30">
    <path d="M 120.089063 340.316716 
L 149.237425 340.316716 
L 149.237425 348.411898 
L 120.089063 348.411898 
z
" clip-path="url(#pe7fd5aecac)" style="fill: #808080; stroke: #ffffff; stroke-width: 0.3; stroke-linejoin: miter"/>
   </g>
   <g id="patch_31">
    <path d="M 120.089063 370.29887 
L 128.690219 370.29887 
L 128.690219 378.394051 
L 120.089063 378.394051 
z
" clip-path="url(#pe7fd5aecac)" style="fill: #808080; stroke: #ffffff; stroke-width: 0.3; stroke-linejoin: miter"/>
   </g>
   <g id="patch_32">
    <path d="M 120.089063 400.281023 
L 127.017772 400.281023 
L 127.017772 408.376205 
L 120.089063 408.376205 
z
" clip-path="url(#pe7fd5aecac)" style="fill: #808080; stroke: #ffffff; stroke-width: 0.3; stroke-linejoin: miter"/>
   </g>
   <g id="patch_33">
    <path d="M 120.089063 430.263177 
L 127.017772 430.263177 
L 127.017772 438.358358 
L 120.089063 438.358358 
z
" clip-path="url(#pe7fd5aecac)" style="fill: #808080; stroke: #ffffff; stroke-width: 0.3; stroke-linejoin: miter"/>
   </g>
   <g id="patch_34">
    <path d="M 120.089063 460.24533 
L 120.089063 460.24533 
L 120.089063 468.340512 
L 120.089063 468.340512 
z
" clip-path="url(#pe7fd5aecac)" style="fill: #808080; stroke: #ffffff; stroke-width: 0.3; stroke-linejoin: miter"/>
   </g>
   <g id="patch_35">
    <path d="M 120.089063 490.227484 
L 120.089063 490.227484 
L 120.089063 498.322665 
L 120.089063 498.322665 
z
" clip-path="url(#pe7fd5aecac)" style="fill: #808080; stroke: #ffffff; stroke-width: 0.3; stroke-linejoin: miter"/>
   </g>
   <g id="patch_36">
    <path d="M 120.089063 520.209637 
L 120.089063 520.209637 
L 120.089063 528.304819 
L 120.089063 528.304819 
z
" clip-path="url(#pe7fd5aecac)" style="fill: #808080; stroke: #ffffff; stroke-width: 0.3; stroke-linejoin: miter"/>
   </g>
   <g id="patch_37">
    <path d="M 120.089063 48.590363 
L 411.333764 48.590363 
L 411.333764 56.685544 
L 120.089063 56.685544 
z
" clip-path="url(#pe7fd5aecac)" style="fill: #7a1a1a; stroke: #ffffff; stroke-width: 0.3; stroke-linejoin: miter"/>
   </g>
   <g id="patch_38">
    <path d="M 120.089063 78.572516 
L 151.865556 78.572516 
L 151.865556 86.667698 
L 120.089063 86.667698 
z
" clip-path="url(#pe7fd5aecac)" style="fill: #404040; stroke: #ffffff; stroke-width: 0.3; stroke-linejoin: miter"/>
   </g>
   <g id="patch_39">
    <path d="M 120.089063 108.55467 
L 185.314496 108.55467 
L 185.314496 116.649851 
L 120.089063 116.649851 
z
" clip-path="url(#pe7fd5aecac)" style="fill: #404040; stroke: #ffffff; stroke-width: 0.3; stroke-linejoin: miter"/>
   </g>
   <g id="patch_40">
    <path d="M 120.089063 138.536823 
L 250.778851 138.536823 
L 250.778851 146.632005 
L 120.089063 146.632005 
z
" clip-path="url(#pe7fd5aecac)" style="fill: #404040; stroke: #ffffff; stroke-width: 0.3; stroke-linejoin: miter"/>
   </g>
   <g id="patch_41">
    <path d="M 120.089063 168.518977 
L 146.131452 168.518977 
L 146.131452 176.614158 
L 120.089063 176.614158 
z
" clip-path="url(#pe7fd5aecac)" style="fill: #404040; stroke: #ffffff; stroke-width: 0.3; stroke-linejoin: miter"/>
   </g>
   <g id="patch_42">
    <path d="M 120.089063 198.50113 
L 235.726827 198.50113 
L 235.726827 206.596312 
L 120.089063 206.596312 
z
" clip-path="url(#pe7fd5aecac)" style="fill: #404040; stroke: #ffffff; stroke-width: 0.3; stroke-linejoin: miter"/>
   </g>
   <g id="patch_43">
    <path d="M 120.089063 228.483284 
L 120.089063 228.483284 
L 120.089063 236.578465 
L 120.089063 236.578465 
z
" clip-path="url(#pe7fd5aecac)" style="fill: #404040; stroke: #ffffff; stroke-width: 0.3; stroke-linejoin: miter"/>
   </g>
   <g id="patch_44">
    <path d="M 120.089063 258.465437 
L 142.547637 258.465437 
L 142.547637 266.560619 
L 120.089063 266.560619 
z
" clip-path="url(#pe7fd5aecac)" style="fill: #404040; stroke: #ffffff; stroke-width: 0.3; stroke-linejoin: miter"/>
   </g>
   <g id="patch_45">
    <path d="M 120.089063 288.447591 
L 120.089063 288.447591 
L 120.089063 296.542772 
L 120.089063 296.542772 
z
" clip-path="url(#pe7fd5aecac)" style="fill: #404040; stroke: #ffffff; stroke-width: 0.3; stroke-linejoin: miter"/>
   </g>
   <g id="patch_46">
    <path d="M 120.089063 318.429744 
L 127.495614 318.429744 
L 127.495614 326.524926 
L 120.089063 326.524926 
z
" clip-path="url(#pe7fd5aecac)" style="fill: #404040; stroke: #ffffff; stroke-width: 0.3; stroke-linejoin: miter"/>
   </g>
   <g id="patch_47">
    <path d="M 120.089063 348.411898 
L 177.907945 348.411898 
L 177.907945 356.507079 
L 120.089063 356.507079 
z
" clip-path="url(#pe7fd5aecac)" style="fill: #404040; stroke: #ffffff; stroke-width: 0.3; stroke-linejoin: miter"/>
   </g>
   <g id="patch_48">
    <path d="M 120.089063 378.394051 
L 196.543783 378.394051 
L 196.543783 386.489233 
L 120.089063 386.489233 
z
" clip-path="url(#pe7fd5aecac)" style="fill: #404040; stroke: #ffffff; stroke-width: 0.3; stroke-linejoin: miter"/>
   </g>
   <g id="patch_49">
    <path d="M 120.089063 408.376205 
L 125.584246 408.376205 
L 125.584246 416.471386 
L 120.089063 416.471386 
z
" clip-path="url(#pe7fd5aecac)" style="fill: #404040; stroke: #ffffff; stroke-width: 0.3; stroke-linejoin: miter"/>
   </g>
   <g id="patch_50">
    <path d="M 120.089063 438.358358 
L 219.002357 438.358358 
L 219.002357 446.45354 
L 120.089063 446.45354 
z
" clip-path="url(#pe7fd5aecac)" style="fill: #404040; stroke: #ffffff; stroke-width: 0.3; stroke-linejoin: miter"/>
   </g>
   <g id="patch_51">
    <path d="M 120.089063 468.340512 
L 219.002357 468.340512 
L 219.002357 476.435693 
L 120.089063 476.435693 
z
" clip-path="url(#pe7fd5aecac)" style="fill: #404040; stroke: #ffffff; stroke-width: 0.3; stroke-linejoin: miter"/>
   </g>
   <g id="patch_52">
    <path d="M 120.089063 498.322665 
L 153.776924 498.322665 
L 153.776924 506.417847 
L 120.089063 506.417847 
z
" clip-path="url(#pe7fd5aecac)" style="fill: #404040; stroke: #ffffff; stroke-width: 0.3; stroke-linejoin: miter"/>
   </g>
   <g id="patch_53">
    <path d="M 120.089063 528.304819 
L 120.089063 528.304819 
L 120.089063 536.4 
L 120.089063 536.4 
z
" clip-path="url(#pe7fd5aecac)" style="fill: #404040; stroke: #ffffff; stroke-width: 0.3; stroke-linejoin: miter"/>
   </g>
   <g id="patch_54">
    <path d="M 120.089063 561.6 
L 120.089063 7.2 
" style="fill: none; stroke: #000000; stroke-width: 0.8; stroke-linejoin: miter; stroke-linecap: square"/>
   </g>
   <g id="patch_55">
    <path d="M 120.089063 561.6 
L 789.689062 561.6 
" style="fill: none; stroke: #000000; stroke-width: 0.8; stroke-linejoin: miter; stroke-linecap: square"/>
   </g>
   <g id="text_25">
    <!-- 3,50 -->
    <g style="fill: #303030" transform="translate(213.268253 38.655091) scale(0.08 -0.08)">
     <defs>
      <path id="DejaVuSans-33" d="M 2597 2516 
Q 3050 2419 3304 2112 
Q 3559 1806 3559 1356 
Q 3559 666 3084 287 
Q 2609 -91 1734 -91 
Q 1441 -91 1130 -33 
Q 819 25 488 141 
L 488 750 
Q 750 597 1062 519 
Q 1375 441 1716 441 
Q 2309 441 2620 675 
Q 2931 909 2931 1356 
Q 2931 1769 2642 2001 
Q 2353 2234 1838 2234 
L 1294 2234 
L 1294 2753 
L 1863 2753 
Q 2328 2753 2575 2939 
Q 2822 3125 2822 3475 
Q 2822 3834 2567 4026 
Q 2313 4219 1838 4219 
Q 1578 4219 1281 4162 
Q 984 4106 628 3988 
L 628 4550 
Q 988 4650 1302 4700 
Q 1616 4750 1894 4750 
Q 2613 4750 3031 4423 
Q 3450 4097 3450 3541 
Q 3450 3153 3228 2886 
Q 3006 2619 2597 2516 
z
" transform="scale(0.015625)"/>
      <path id="DejaVuSans-2c" d="M 750 794 
L 1409 794 
L 1409 256 
L 897 -744 
L 494 -744 
L 750 256 
L 750 794 
z
" transform="scale(0.015625)"/>
     </defs>
     <use xlink:href="#DejaVuSans-33"/>
     <use xlink:href="#DejaVuSans-2c" transform="translate(63.623047 0)"/>
     <use xlink:href="#DejaVuSans-35" transform="translate(95.410156 0)"/>
     <use xlink:href="#DejaVuSans-30" transform="translate(159.033203 0)"/>
    </g>
   </g>
   <g id="text_26">
    <!-- 25,95 -->
    <g style="fill: #303030" transform="translate(749.645903 46.750272) scale(0.08 -0.08)">
     <defs>
      <path id="DejaVuSans-Bold-32" d="M 1844 884 
L 3897 884 
L 3897 0 
L 506 0 
L 506 884 
L 2209 2388 
Q 2438 2594 2547 2791 
Q 2656 2988 2656 3200 
Q 2656 3528 2436 3728 
Q 2216 3928 1850 3928 
Q 1569 3928 1234 3808 
Q 900 3688 519 3450 
L 519 4475 
Q 925 4609 1322 4679 
Q 1719 4750 2100 4750 
Q 2938 4750 3402 4381 
Q 3866 4013 3866 3353 
Q 3866 2972 3669 2642 
Q 3472 2313 2841 1759 
L 1844 884 
z
" transform="scale(0.015625)"/>
      <path id="DejaVuSans-Bold-35" d="M 678 4666 
L 3669 4666 
L 3669 3781 
L 1638 3781 
L 1638 3059 
Q 1775 3097 1914 3117 
Q 2053 3138 2203 3138 
Q 3056 3138 3531 2711 
Q 4006 2284 4006 1522 
Q 4006 766 3489 337 
Q 2972 -91 2053 -91 
Q 1656 -91 1267 -14 
Q 878 63 494 219 
L 494 1166 
Q 875 947 1217 837 
Q 1559 728 1863 728 
Q 2300 728 2551 942 
Q 2803 1156 2803 1522 
Q 2803 1891 2551 2103 
Q 2300 2316 1863 2316 
Q 1603 2316 1309 2248 
Q 1016 2181 678 2041 
L 678 4666 
z
" transform="scale(0.015625)"/>
      <path id="DejaVuSans-Bold-2c" d="M 653 1209 
L 1778 1209 
L 1778 256 
L 1006 -909 
L 341 -909 
L 653 256 
L 653 1209 
z
" transform="scale(0.015625)"/>
      <path id="DejaVuSans-Bold-39" d="M 641 103 
L 641 966 
Q 928 831 1190 764 
Q 1453 697 1709 697 
Q 2247 697 2547 995 
Q 2847 1294 2900 1881 
Q 2688 1725 2447 1647 
Q 2206 1569 1925 1569 
Q 1209 1569 770 1986 
Q 331 2403 331 3084 
Q 331 3838 820 4291 
Q 1309 4744 2131 4744 
Q 3044 4744 3544 4128 
Q 4044 3513 4044 2388 
Q 4044 1231 3459 570 
Q 2875 -91 1856 -91 
Q 1528 -91 1228 -42 
Q 928 6 641 103 
z
M 2125 2350 
Q 2441 2350 2600 2554 
Q 2759 2759 2759 3169 
Q 2759 3575 2600 3781 
Q 2441 3988 2125 3988 
Q 1809 3988 1650 3781 
Q 1491 3575 1491 3169 
Q 1491 2759 1650 2554 
Q 1809 2350 2125 2350 
z
" transform="scale(0.015625)"/>
     </defs>
     <use xlink:href="#DejaVuSans-Bold-32"/>
     <use xlink:href="#DejaVuSans-Bold-35" transform="translate(69.580078 0)"/>
     <use xlink:href="#DejaVuSans-Bold-2c" transform="translate(139.160156 0)"/>
     <use xlink:href="#DejaVuSans-Bold-39" transform="translate(177.148438 0)"/>
     <use xlink:href="#DejaVuSans-Bold-35" transform="translate(246.728516 0)"/>
    </g>
   </g>
   <g id="text_27">
    <!-- 12,19 -->
    <g style="fill: #303030" transform="translate(420.890604 54.845454) scale(0.08 -0.08)">
     <defs>
      <path id="DejaVuSans-39" d="M 703 97 
L 703 672 
Q 941 559 1184 500 
Q 1428 441 1663 441 
Q 2288 441 2617 861 
Q 2947 1281 2994 2138 
Q 2813 1869 2534 1725 
Q 2256 1581 1919 1581 
Q 1219 1581 811 2004 
Q 403 2428 403 3163 
Q 403 3881 828 4315 
Q 1253 4750 1959 4750 
Q 2769 4750 3195 4129 
Q 3622 3509 3622 2328 
Q 3622 1225 3098 567 
Q 2575 -91 1691 -91 
Q 1453 -91 1209 -44 
Q 966 3 703 97 
z
M 1959 2075 
Q 2384 2075 2632 2365 
Q 2881 2656 2881 3163 
Q 2881 3666 2632 3958 
Q 2384 4250 1959 4250 
Q 1534 4250 1286 3958 
Q 1038 3666 1038 3163 
Q 1038 2656 1286 2365 
Q 1534 2075 1959 2075 
z
" transform="scale(0.015625)"/>
     </defs>
     <use xlink:href="#DejaVuSans-31"/>
     <use xlink:href="#DejaVuSans-32" transform="translate(63.623047 0)"/>
     <use xlink:href="#DejaVuSans-2c" transform="translate(127.246094 0)"/>
     <use xlink:href="#DejaVuSans-31" transform="translate(159.033203 0)"/>
     <use xlink:href="#DejaVuSans-39" transform="translate(222.65625 0)"/>
    </g>
   </g>
   <g id="legend_1">
    <g id="patch_56">
     <path d="M 667.13125 521.164062 
L 687.13125 521.164062 
L 687.13125 514.164062 
L 667.13125 514.164062 
z
" style="fill: #e08570; stroke: #ffffff; stroke-linejoin: miter"/>
    </g>
    <g id="text_28">
     <!-- Laboratory Life -->
     <g transform="translate(695.13125 521.164062) scale(0.1 -0.1)">
      <defs>
       <path id="DejaVuSans-4c" d="M 628 4666 
L 1259 4666 
L 1259 531 
L 3531 531 
L 3531 0 
L 628 0 
L 628 4666 
z
" transform="scale(0.015625)"/>
       <path id="DejaVuSans-79" d="M 2059 -325 
Q 1816 -950 1584 -1140 
Q 1353 -1331 966 -1331 
L 506 -1331 
L 506 -850 
L 844 -850 
Q 1081 -850 1212 -737 
Q 1344 -625 1503 -206 
L 1606 56 
L 191 3500 
L 800 3500 
L 1894 763 
L 2988 3500 
L 3597 3500 
L 2059 -325 
z
" transform="scale(0.015625)"/>
      </defs>
      <use xlink:href="#DejaVuSans-4c"/>
      <use xlink:href="#DejaVuSans-61" transform="translate(55.712891 0)"/>
      <use xlink:href="#DejaVuSans-62" transform="translate(116.992188 0)"/>
      <use xlink:href="#DejaVuSans-6f" transform="translate(180.46875 0)"/>
      <use xlink:href="#DejaVuSans-72" transform="translate(241.650391 0)"/>
      <use xlink:href="#DejaVuSans-61" transform="translate(282.763672 0)"/>
      <use xlink:href="#DejaVuSans-74" transform="translate(344.042969 0)"/>
      <use xlink:href="#DejaVuSans-6f" transform="translate(383.251953 0)"/>
      <use xlink:href="#DejaVuSans-72" transform="translate(444.433594 0)"/>
      <use xlink:href="#DejaVuSans-79" transform="translate(485.546875 0)"/>
      <use xlink:href="#DejaVuSans-20" transform="translate(544.726562 0)"/>
      <use xlink:href="#DejaVuSans-4c" transform="translate(576.513672 0)"/>
      <use xlink:href="#DejaVuSans-69" transform="translate(632.226562 0)"/>
      <use xlink:href="#DejaVuSans-66" transform="translate(660.009766 0)"/>
      <use xlink:href="#DejaVuSans-65" transform="translate(695.214844 0)"/>
     </g>
    </g>
    <g id="patch_57">
     <path d="M 667.13125 535.842188 
L 687.13125 535.842188 
L 687.13125 528.842188 
L 667.13125 528.842188 
z
" style="fill: #b22222; stroke: #ffffff; stroke-linejoin: miter"/>
    </g>
    <g id="text_29">
     <!-- Science in Action -->
     <g transform="translate(695.13125 535.842188) scale(0.1 -0.1)">
      <defs>
       <path id="DejaVuSans-53" d="M 3425 4513 
L 3425 3897 
Q 3066 4069 2747 4153 
Q 2428 4238 2131 4238 
Q 1616 4238 1336 4038 
Q 1056 3838 1056 3469 
Q 1056 3159 1242 3001 
Q 1428 2844 1947 2747 
L 2328 2669 
Q 3034 2534 3370 2195 
Q 3706 1856 3706 1288 
Q 3706 609 3251 259 
Q 2797 -91 1919 -91 
Q 1588 -91 1214 -16 
Q 841 59 441 206 
L 441 856 
Q 825 641 1194 531 
Q 1563 422 1919 422 
Q 2459 422 2753 634 
Q 3047 847 3047 1241 
Q 3047 1584 2836 1778 
Q 2625 1972 2144 2069 
L 1759 2144 
Q 1053 2284 737 2584 
Q 422 2884 422 3419 
Q 422 4038 858 4394 
Q 1294 4750 2059 4750 
Q 2388 4750 2728 4690 
Q 3069 4631 3425 4513 
z
" transform="scale(0.015625)"/>
       <path id="DejaVuSans-41" d="M 2188 4044 
L 1331 1722 
L 3047 1722 
L 2188 4044 
z
M 1831 4666 
L 2547 4666 
L 4325 0 
L 3669 0 
L 3244 1197 
L 1141 1197 
L 716 0 
L 50 0 
L 1831 4666 
z
" transform="scale(0.015625)"/>
      </defs>
      <use xlink:href="#DejaVuSans-53"/>
      <use xlink:href="#DejaVuSans-63" transform="translate(63.476562 0)"/>
      <use xlink:href="#DejaVuSans-69" transform="translate(118.457031 0)"/>
      <use xlink:href="#DejaVuSans-65" transform="translate(146.240234 0)"/>
      <use xlink:href="#DejaVuSans-6e" transform="translate(207.763672 0)"/>
      <use xlink:href="#DejaVuSans-63" transform="translate(271.142578 0)"/>
      <use xlink:href="#DejaVuSans-65" transform="translate(326.123047 0)"/>
      <use xlink:href="#DejaVuSans-20" transform="translate(387.646484 0)"/>
      <use xlink:href="#DejaVuSans-69" transform="translate(419.433594 0)"/>
      <use xlink:href="#DejaVuSans-6e" transform="translate(447.216797 0)"/>
      <use xlink:href="#DejaVuSans-20" transform="translate(510.595703 0)"/>
      <use xlink:href="#DejaVuSans-41" transform="translate(542.382812 0)"/>
      <use xlink:href="#DejaVuSans-63" transform="translate(609.041016 0)"/>
      <use xlink:href="#DejaVuSans-74" transform="translate(664.021484 0)"/>
      <use xlink:href="#DejaVuSans-69" transform="translate(703.230469 0)"/>
      <use xlink:href="#DejaVuSans-6f" transform="translate(731.013672 0)"/>
      <use xlink:href="#DejaVuSans-6e" transform="translate(792.195312 0)"/>
     </g>
    </g>
    <g id="patch_58">
     <path d="M 667.13125 550.520312 
L 687.13125 550.520312 
L 687.13125 543.520312 
L 667.13125 543.520312 
z
" style="fill: #7a1a1a; stroke: #ffffff; stroke-linejoin: miter"/>
    </g>
    <g id="text_30">
     <!-- Pandora's Hope -->
     <g transform="translate(695.13125 550.520312) scale(0.1 -0.1)">
      <defs>
       <path id="DejaVuSans-50" d="M 1259 4147 
L 1259 2394 
L 2053 2394 
Q 2494 2394 2734 2622 
Q 2975 2850 2975 3272 
Q 2975 3691 2734 3919 
Q 2494 4147 2053 4147 
L 1259 4147 
z
M 628 4666 
L 2053 4666 
Q 2838 4666 3239 4311 
Q 3641 3956 3641 3272 
Q 3641 2581 3239 2228 
Q 2838 1875 2053 1875 
L 1259 1875 
L 1259 0 
L 628 0 
L 628 4666 
z
" transform="scale(0.015625)"/>
       <path id="DejaVuSans-64" d="M 2906 2969 
L 2906 4863 
L 3481 4863 
L 3481 0 
L 2906 0 
L 2906 525 
Q 2725 213 2448 61 
Q 2172 -91 1784 -91 
Q 1150 -91 751 415 
Q 353 922 353 1747 
Q 353 2572 751 3078 
Q 1150 3584 1784 3584 
Q 2172 3584 2448 3432 
Q 2725 3281 2906 2969 
z
M 947 1747 
Q 947 1113 1208 752 
Q 1469 391 1925 391 
Q 2381 391 2643 752 
Q 2906 1113 2906 1747 
Q 2906 2381 2643 2742 
Q 2381 3103 1925 3103 
Q 1469 3103 1208 2742 
Q 947 2381 947 1747 
z
" transform="scale(0.015625)"/>
       <path id="DejaVuSans-27" d="M 1147 4666 
L 1147 2931 
L 616 2931 
L 616 4666 
L 1147 4666 
z
" transform="scale(0.015625)"/>
       <path id="DejaVuSans-48" d="M 628 4666 
L 1259 4666 
L 1259 2753 
L 3553 2753 
L 3553 4666 
L 4184 4666 
L 4184 0 
L 3553 0 
L 3553 2222 
L 1259 2222 
L 1259 0 
L 628 0 
L 628 4666 
z
" transform="scale(0.015625)"/>
      </defs>
      <use xlink:href="#DejaVuSans-50"/>
      <use xlink:href="#DejaVuSans-61" transform="translate(55.802734 0)"/>
      <use xlink:href="#DejaVuSans-6e" transform="translate(117.082031 0)"/>
      <use xlink:href="#DejaVuSans-64" transform="translate(180.460938 0)"/>
      <use xlink:href="#DejaVuSans-6f" transform="translate(243.9375 0)"/>
      <use xlink:href="#DejaVuSans-72" transform="translate(305.119141 0)"/>
      <use xlink:href="#DejaVuSans-61" transform="translate(346.232422 0)"/>
      <use xlink:href="#DejaVuSans-27" transform="translate(407.511719 0)"/>
      <use xlink:href="#DejaVuSans-73" transform="translate(435.001953 0)"/>
      <use xlink:href="#DejaVuSans-20" transform="translate(487.101562 0)"/>
      <use xlink:href="#DejaVuSans-48" transform="translate(518.888672 0)"/>
      <use xlink:href="#DejaVuSans-6f" transform="translate(594.083984 0)"/>
      <use xlink:href="#DejaVuSans-70" transform="translate(655.265625 0)"/>
      <use xlink:href="#DejaVuSans-65" transform="translate(718.742188 0)"/>
     </g>
    </g>
   </g>
  </g>
 </g>
 <defs>
  <clipPath id="pe7fd5aecac">
   <rect x="120.089063" y="7.2" width="669.6" height="554.4"/>
  </clipPath>
 </defs>
</svg>
