<?xml version="1.0" encoding="utf-8" standalone="no"?>
<!DOCTYPE svg PUBLIC "-//W3C//DTD SVG 1.1//EN"
  "http://www.w3.org/Graphics/SVG/1.1/DTD/svg11.dtd">
<svg xmlns:xlink="http://www.w3.org/1999/xlink" width="648pt" height="504pt" viewBox="0 0 648 504" xmlns="http://www.w3.org/2000/svg" version="1.1">
 <metadata>
  <rdf:RDF xmlns:dc="http://purl.org/dc/elements/1.1/" xmlns:cc="http://creativecommons.org/ns#" xmlns:rdf="http://www.w3.org/1999/02/22-rdf-syntax-ns#">
   <cc:Work>
    <dc:type rdf:resource="http://purl.org/dc/dcmitype/StillImage"/>
    <dc:date>2026-05-24T22:19:12.307530</dc:date>
    <dc:format>image/svg+xml</dc:format>
    <dc:creator>
     <cc:Agent>
      <dc:title>Matplotlib v3.10.9, https://matplotlib.org/</dc:title>
     </cc:Agent>
    </dc:creator>
   </cc:Work>
  </rdf:RDF>
 </metadata>
 <defs>
  <style type="text/css">*{stroke-linejoin: round; stroke-linecap: butt}</style>
 </defs>
 <g id="figure_1">
  <g id="patch_1">
   <path d="M 0 504 
L 648 504 
L 648 0 
L 0 0 
z
" style="fill: #ffffff"/>
  </g>
  <g id="axes_1">
   <g id="LineCollection_1">
    <path d="M 53.649053 433.401893 
L 83.607189 446.749507 
" clip-path="url(#p3a2785b3fe)" style="fill: none; stroke: #000000; stroke-opacity: 0.45; stroke-width: 0.824264"/>
    <path d="M 53.649053 433.401893 
L 79.70869 438.555266 
" clip-path="url(#p3a2785b3fe)" style="fill: none; stroke: #000000; stroke-opacity: 0.45; stroke-width: 1.394987"/>
    <path d="M 53.649053 433.401893 
L 74.752472 438.406106 
" clip-path="url(#p3a2785b3fe)" style="fill: none; stroke: #000000; stroke-opacity: 0.45; stroke-width: 1.807125"/>
    <path d="M 53.649053 433.401893 
L 92.982603 437.855225 
" clip-path="url(#p3a2785b3fe)" style="fill: none; stroke: #000000; stroke-opacity: 0.45; stroke-width: 0.7"/>
    <path d="M 53.649053 433.401893 
L 73.719774 434.803114 
" clip-path="url(#p3a2785b3fe)" style="fill: none; stroke: #000000; stroke-opacity: 0.45; stroke-width: 1.193725"/>
    <path d="M 53.649053 433.401893 
L 71.831649 425.474281 
" clip-path="url(#p3a2785b3fe)" style="fill: none; stroke: #000000; stroke-opacity: 0.45; stroke-width: 0.7"/>
    <path d="M 53.649053 433.401893 
L 82.40699 433.662957 
" clip-path="url(#p3a2785b3fe)" style="fill: none; stroke: #000000; stroke-opacity: 0.45"/>
    <path d="M 53.649053 433.401893 
L 85.437321 429.620648 
" clip-path="url(#p3a2785b3fe)" style="fill: none; stroke: #000000; stroke-opacity: 0.45; stroke-width: 0.7"/>
    <path d="M 53.649053 433.401893 
L 76.616838 402.125935 
" clip-path="url(#p3a2785b3fe)" style="fill: none; stroke: #000000; stroke-opacity: 0.45; stroke-width: 0.824264"/>
    <path d="M 98.626694 429.803443 
L 79.70869 438.555266 
" clip-path="url(#p3a2785b3fe)" style="fill: none; stroke: #000000; stroke-opacity: 0.45; stroke-width: 1.134847"/>
    <path d="M 98.626694 429.803443 
L 87.700942 438.716573 
" clip-path="url(#p3a2785b3fe)" style="fill: none; stroke: #000000; stroke-opacity: 0.45; stroke-width: 1.394987"/>
    <path d="M 98.626694 429.803443 
L 82.40699 433.662957 
" clip-path="url(#p3a2785b3fe)" style="fill: none; stroke: #000000; stroke-opacity: 0.45; stroke-width: 2.043168"/>
    <path d="M 98.626694 429.803443 
L 85.437321 429.620648 
" clip-path="url(#p3a2785b3fe)" style="fill: none; stroke: #000000; stroke-opacity: 0.45; stroke-width: 2.2"/>
    <path d="M 98.626694 429.803443 
L 94.531068 421.795101 
" clip-path="url(#p3a2785b3fe)" style="fill: none; stroke: #000000; stroke-opacity: 0.45; stroke-width: 1.838749"/>
    <path d="M 98.626694 429.803443 
L 90.241453 447.888935 
" clip-path="url(#p3a2785b3fe)" style="fill: none; stroke: #000000; stroke-opacity: 0.45; stroke-width: 1.134847"/>
    <path d="M 98.626694 429.803443 
L 92.982603 437.855225 
" clip-path="url(#p3a2785b3fe)" style="fill: none; stroke: #000000; stroke-opacity: 0.45; stroke-width: 1.6"/>
    <path d="M 98.626694 429.803443 
L 83.607189 446.749507 
" clip-path="url(#p3a2785b3fe)" style="fill: none; stroke: #000000; stroke-opacity: 0.45; stroke-width: 0.7"/>
    <path d="M 98.626694 429.803443 
L 73.719774 434.803114 
" clip-path="url(#p3a2785b3fe)" style="fill: none; stroke: #000000; stroke-opacity: 0.45; stroke-width: 1.134847"/>
    <path d="M 98.626694 429.803443 
L 74.752472 438.406106 
" clip-path="url(#p3a2785b3fe)" style="fill: none; stroke: #000000; stroke-opacity: 0.45"/>
    <path d="M 98.626694 429.803443 
L 70.001813 414.848087 
" clip-path="url(#p3a2785b3fe)" style="fill: none; stroke: #000000; stroke-opacity: 0.45; stroke-width: 0.7"/>
    <path d="M 98.626694 429.803443 
L 88.822994 414.360278 
" clip-path="url(#p3a2785b3fe)" style="fill: none; stroke: #000000; stroke-opacity: 0.45; stroke-width: 0.824264"/>
    <path d="M 98.626694 429.803443 
L 71.831649 425.474281 
" clip-path="url(#p3a2785b3fe)" style="fill: none; stroke: #000000; stroke-opacity: 0.45; stroke-width: 0.824264"/>
    <path d="M 98.626694 429.803443 
L 51.695678 413.849833 
" clip-path="url(#p3a2785b3fe)" style="fill: none; stroke: #000000; stroke-opacity: 0.45; stroke-width: 0.7"/>
    <path d="M 98.626694 429.803443 
L 80.202112 455.736573 
" clip-path="url(#p3a2785b3fe)" style="fill: none; stroke: #000000; stroke-opacity: 0.45; stroke-width: 0.824264"/>
    <path d="M 88.822994 414.360278 
L 92.982603 437.855225 
" clip-path="url(#p3a2785b3fe)" style="fill: none; stroke: #000000; stroke-opacity: 0.45; stroke-width: 1.07082"/>
    <path d="M 88.822994 414.360278 
L 82.40699 433.662957 
" clip-path="url(#p3a2785b3fe)" style="fill: none; stroke: #000000; stroke-opacity: 0.45; stroke-width: 1.481665"/>
    <path d="M 88.822994 414.360278 
L 85.437321 429.620648 
" clip-path="url(#p3a2785b3fe)" style="fill: none; stroke: #000000; stroke-opacity: 0.45; stroke-width: 1.636932"/>
    <path d="M 88.822994 414.360278 
L 79.70869 438.555266 
" clip-path="url(#p3a2785b3fe)" style="fill: none; stroke: #000000; stroke-opacity: 0.45; stroke-width: 0.919615"/>
    <path d="M 88.822994 414.360278 
L 87.700942 438.716573 
" clip-path="url(#p3a2785b3fe)" style="fill: none; stroke: #000000; stroke-opacity: 0.45; stroke-width: 1.134847"/>
    <path d="M 88.822994 414.360278 
L 83.607189 446.749507 
" clip-path="url(#p3a2785b3fe)" style="fill: none; stroke: #000000; stroke-opacity: 0.45"/>
    <path d="M 88.822994 414.360278 
L 61.276243 442.190693 
" clip-path="url(#p3a2785b3fe)" style="fill: none; stroke: #000000; stroke-opacity: 0.45; stroke-width: 0.919615"/>
    <path d="M 88.822994 414.360278 
L 73.719774 434.803114 
" clip-path="url(#p3a2785b3fe)" style="fill: none; stroke: #000000; stroke-opacity: 0.45; stroke-width: 0.824264"/>
    <path d="M 88.822994 414.360278 
L 51.695678 413.849833 
" clip-path="url(#p3a2785b3fe)" style="fill: none; stroke: #000000; stroke-opacity: 0.45; stroke-width: 0.7"/>
    <path d="M 88.822994 414.360278 
L 95.924993 467.980023 
" clip-path="url(#p3a2785b3fe)" style="fill: none; stroke: #000000; stroke-opacity: 0.45; stroke-width: 0.7"/>
    <path d="M 88.822994 414.360278 
L 94.531068 421.795101 
" clip-path="url(#p3a2785b3fe)" style="fill: none; stroke: #000000; stroke-opacity: 0.45; stroke-width: 1.07082"/>
    <path d="M 88.822994 414.360278 
L 71.831649 425.474281 
" clip-path="url(#p3a2785b3fe)" style="fill: none; stroke: #000000; stroke-opacity: 0.45; stroke-width: 0.7"/>
    <path d="M 88.822994 414.360278 
L 80.202112 455.736573 
" clip-path="url(#p3a2785b3fe)" style="fill: none; stroke: #000000; stroke-opacity: 0.45; stroke-width: 0.7"/>
    <path d="M 61.276243 442.190693 
L 83.607189 446.749507 
" clip-path="url(#p3a2785b3fe)" style="fill: none; stroke: #000000; stroke-opacity: 0.45; stroke-width: 1.636932"/>
    <path d="M 61.276243 442.190693 
L 82.40699 433.662957 
" clip-path="url(#p3a2785b3fe)" style="fill: none; stroke: #000000; stroke-opacity: 0.45; stroke-width: 1.3"/>
    <path d="M 61.276243 442.190693 
L 97.9645 458.275115 
" clip-path="url(#p3a2785b3fe)" style="fill: none; stroke: #000000; stroke-opacity: 0.45; stroke-width: 0.7"/>
    <path d="M 61.276243 442.190693 
L 74.752472 438.406106 
" clip-path="url(#p3a2785b3fe)" style="fill: none; stroke: #000000; stroke-opacity: 0.45; stroke-width: 1.248528"/>
    <path d="M 61.276243 442.190693 
L 87.700942 438.716573 
" clip-path="url(#p3a2785b3fe)" style="fill: none; stroke: #000000; stroke-opacity: 0.45; stroke-width: 0.824264"/>
    <path d="M 61.276243 442.190693 
L 80.202112 455.736573 
" clip-path="url(#p3a2785b3fe)" style="fill: none; stroke: #000000; stroke-opacity: 0.45; stroke-width: 0.7"/>
    <path d="M 61.276243 442.190693 
L 85.437321 429.620648 
" clip-path="url(#p3a2785b3fe)" style="fill: none; stroke: #000000; stroke-opacity: 0.45"/>
    <path d="M 61.276243 442.190693 
L 92.982603 437.855225 
" clip-path="url(#p3a2785b3fe)" style="fill: none; stroke: #000000; stroke-opacity: 0.45; stroke-width: 0.824264"/>
    <path d="M 61.276243 442.190693 
L 79.70869 438.555266 
" clip-path="url(#p3a2785b3fe)" style="fill: none; stroke: #000000; stroke-opacity: 0.45; stroke-width: 0.7"/>
    <path d="M 61.276243 442.190693 
L 73.719774 434.803114 
" clip-path="url(#p3a2785b3fe)" style="fill: none; stroke: #000000; stroke-opacity: 0.45; stroke-width: 0.824264"/>
    <path d="M 97.9645 458.275115 
L 83.607189 446.749507 
" clip-path="url(#p3a2785b3fe)" style="fill: none; stroke: #000000; stroke-opacity: 0.45; stroke-width: 2.015549"/>
    <path d="M 97.9645 458.275115 
L 92.982603 437.855225 
" clip-path="url(#p3a2785b3fe)" style="fill: none; stroke: #000000; stroke-opacity: 0.45; stroke-width: 1.134847"/>
    <path d="M 97.9645 458.275115 
L 79.70869 438.555266 
" clip-path="url(#p3a2785b3fe)" style="fill: none; stroke: #000000; stroke-opacity: 0.45; stroke-width: 0.824264"/>
    <path d="M 97.9645 458.275115 
L 90.241453 447.888935 
" clip-path="url(#p3a2785b3fe)" style="fill: none; stroke: #000000; stroke-opacity: 0.45; stroke-width: 1.636932"/>
    <path d="M 97.9645 458.275115 
L 80.202112 455.736573 
" clip-path="url(#p3a2785b3fe)" style="fill: none; stroke: #000000; stroke-opacity: 0.45; stroke-width: 1.3"/>
    <path d="M 97.9645 458.275115 
L 87.700942 438.716573 
" clip-path="url(#p3a2785b3fe)" style="fill: none; stroke: #000000; stroke-opacity: 0.45; stroke-width: 0.919615"/>
    <path d="M 97.9645 458.275115 
L 95.924993 467.980023 
" clip-path="url(#p3a2785b3fe)" style="fill: none; stroke: #000000; stroke-opacity: 0.45; stroke-width: 1.07082"/>
    <path d="M 97.9645 458.275115 
L 74.752472 438.406106 
" clip-path="url(#p3a2785b3fe)" style="fill: none; stroke: #000000; stroke-opacity: 0.45; stroke-width: 0.824264"/>
    <path d="M 97.9645 458.275115 
L 82.40699 433.662957 
" clip-path="url(#p3a2785b3fe)" style="fill: none; stroke: #000000; stroke-opacity: 0.45"/>
    <path d="M 97.9645 458.275115 
L 85.437321 429.620648 
" clip-path="url(#p3a2785b3fe)" style="fill: none; stroke: #000000; stroke-opacity: 0.45; stroke-width: 0.7"/>
    <path d="M 97.9645 458.275115 
L 71.831649 425.474281 
" clip-path="url(#p3a2785b3fe)" style="fill: none; stroke: #000000; stroke-opacity: 0.45; stroke-width: 0.7"/>
    <path d="M 79.70869 438.555266 
L 83.607189 446.749507 
" clip-path="url(#p3a2785b3fe)" style="fill: none; stroke: #000000; stroke-opacity: 0.45; stroke-width: 2.297367"/>
    <path d="M 79.70869 438.555266 
L 74.752472 438.406106 
" clip-path="url(#p3a2785b3fe)" style="fill: none; stroke: #000000; stroke-opacity: 0.45; stroke-width: 2.90998"/>
    <path d="M 79.70869 438.555266 
L 92.982603 437.855225 
" clip-path="url(#p3a2785b3fe)" style="fill: none; stroke: #000000; stroke-opacity: 0.45; stroke-width: 1.807125"/>
    <path d="M 79.70869 438.555266 
L 70.001813 414.848087 
" clip-path="url(#p3a2785b3fe)" style="fill: none; stroke: #000000; stroke-opacity: 0.45; stroke-width: 0.824264"/>
    <path d="M 79.70869 438.555266 
L 82.40699 433.662957 
" clip-path="url(#p3a2785b3fe)" style="fill: none; stroke: #000000; stroke-opacity: 0.45; stroke-width: 2.584033"/>
    <path d="M 79.70869 438.555266 
L 73.719774 434.803114 
" clip-path="url(#p3a2785b3fe)" style="fill: none; stroke: #000000; stroke-opacity: 0.45; stroke-width: 2.043168"/>
    <path d="M 79.70869 438.555266 
L 71.831649 425.474281 
" clip-path="url(#p3a2785b3fe)" style="fill: none; stroke: #000000; stroke-opacity: 0.45; stroke-width: 1.348683"/>
    <path d="M 79.70869 438.555266 
L 85.437321 429.620648 
" clip-path="url(#p3a2785b3fe)" style="fill: none; stroke: #000000; stroke-opacity: 0.45; stroke-width: 2.123369"/>
    <path d="M 79.70869 438.555266 
L 87.700942 438.716573 
" clip-path="url(#p3a2785b3fe)" style="fill: none; stroke: #000000; stroke-opacity: 0.45; stroke-width: 2.015549"/>
    <path d="M 79.70869 438.555266 
L 90.241453 447.888935 
" clip-path="url(#p3a2785b3fe)" style="fill: none; stroke: #000000; stroke-opacity: 0.45; stroke-width: 2.070329"/>
    <path d="M 79.70869 438.555266 
L 94.531068 421.795101 
" clip-path="url(#p3a2785b3fe)" style="fill: none; stroke: #000000; stroke-opacity: 0.45"/>
    <path d="M 79.70869 438.555266 
L 51.695678 413.849833 
" clip-path="url(#p3a2785b3fe)" style="fill: none; stroke: #000000; stroke-opacity: 0.45; stroke-width: 1.07082"/>
    <path d="M 79.70869 438.555266 
L 113.36022 419.401912 
" clip-path="url(#p3a2785b3fe)" style="fill: none; stroke: #000000; stroke-opacity: 0.45; stroke-width: 0.919615"/>
    <path d="M 79.70869 438.555266 
L 62.878069 455.22055 
" clip-path="url(#p3a2785b3fe)" style="fill: none; stroke: #000000; stroke-opacity: 0.45; stroke-width: 0.824264"/>
    <path d="M 79.70869 438.555266 
L 80.202112 455.736573 
" clip-path="url(#p3a2785b3fe)" style="fill: none; stroke: #000000; stroke-opacity: 0.45; stroke-width: 0.919615"/>
    <path d="M 42.800703 466.779959 
L 82.40699 433.662957 
" clip-path="url(#p3a2785b3fe)" style="fill: none; stroke: #000000; stroke-opacity: 0.45; stroke-width: 0.7"/>
    <path d="M 42.800703 466.779959 
L 74.752472 438.406106 
" clip-path="url(#p3a2785b3fe)" style="fill: none; stroke: #000000; stroke-opacity: 0.45; stroke-width: 0.919615"/>
    <path d="M 42.800703 466.779959 
L 73.719774 434.803114 
" clip-path="url(#p3a2785b3fe)" style="fill: none; stroke: #000000; stroke-opacity: 0.45"/>
    <path d="M 42.800703 466.779959 
L 80.202112 455.736573 
" clip-path="url(#p3a2785b3fe)" style="fill: none; stroke: #000000; stroke-opacity: 0.45; stroke-width: 0.824264"/>
    <path d="M 42.800703 466.779959 
L 62.878069 455.22055 
" clip-path="url(#p3a2785b3fe)" style="fill: none; stroke: #000000; stroke-opacity: 0.45; stroke-width: 0.919615"/>
    <path d="M 42.800703 466.779959 
L 71.831649 425.474281 
" clip-path="url(#p3a2785b3fe)" style="fill: none; stroke: #000000; stroke-opacity: 0.45; stroke-width: 0.7"/>
    <path d="M 87.700942 438.716573 
L 73.719774 434.803114 
" clip-path="url(#p3a2785b3fe)" style="fill: none; stroke: #000000; stroke-opacity: 0.45; stroke-width: 2.043168"/>
    <path d="M 87.700942 438.716573 
L 83.607189 446.749507 
" clip-path="url(#p3a2785b3fe)" style="fill: none; stroke: #000000; stroke-opacity: 0.45; stroke-width: 2.644994"/>
    <path d="M 87.700942 438.716573 
L 74.752472 438.406106 
" clip-path="url(#p3a2785b3fe)" style="fill: none; stroke: #000000; stroke-opacity: 0.45; stroke-width: 1.561895"/>
    <path d="M 87.700942 438.716573 
L 82.40699 433.662957 
" clip-path="url(#p3a2785b3fe)" style="fill: none; stroke: #000000; stroke-opacity: 0.45; stroke-width: 2.2"/>
    <path d="M 87.700942 438.716573 
L 92.982603 437.855225 
" clip-path="url(#p3a2785b3fe)" style="fill: none; stroke: #000000; stroke-opacity: 0.45; stroke-width: 1.394987"/>
    <path d="M 87.700942 438.716573 
L 90.241453 447.888935 
" clip-path="url(#p3a2785b3fe)" style="fill: none; stroke: #000000; stroke-opacity: 0.45; stroke-width: 1.481665"/>
    <path d="M 87.700942 438.716573 
L 85.437321 429.620648 
" clip-path="url(#p3a2785b3fe)" style="fill: none; stroke: #000000; stroke-opacity: 0.45; stroke-width: 1.987451"/>
    <path d="M 87.700942 438.716573 
L 71.831649 425.474281 
" clip-path="url(#p3a2785b3fe)" style="fill: none; stroke: #000000; stroke-opacity: 0.45"/>
    <path d="M 87.700942 438.716573 
L 94.531068 421.795101 
" clip-path="url(#p3a2785b3fe)" style="fill: none; stroke: #000000; stroke-opacity: 0.45"/>
    <path d="M 87.700942 438.716573 
L 80.202112 455.736573 
" clip-path="url(#p3a2785b3fe)" style="fill: none; stroke: #000000; stroke-opacity: 0.45; stroke-width: 1.134847"/>
    <path d="M 87.700942 438.716573 
L 70.001813 414.848087 
" clip-path="url(#p3a2785b3fe)" style="fill: none; stroke: #000000; stroke-opacity: 0.45; stroke-width: 0.919615"/>
    <path d="M 87.700942 438.716573 
L 95.924993 467.980023 
" clip-path="url(#p3a2785b3fe)" style="fill: none; stroke: #000000; stroke-opacity: 0.45; stroke-width: 0.7"/>
    <path d="M 87.700942 438.716573 
L 76.616838 402.125935 
" clip-path="url(#p3a2785b3fe)" style="fill: none; stroke: #000000; stroke-opacity: 0.45; stroke-width: 0.7"/>
    <path d="M 94.531068 421.795101 
L 82.40699 433.662957 
" clip-path="url(#p3a2785b3fe)" style="fill: none; stroke: #000000; stroke-opacity: 0.45; stroke-width: 1.838749"/>
    <path d="M 94.531068 421.795101 
L 71.831649 425.474281 
" clip-path="url(#p3a2785b3fe)" style="fill: none; stroke: #000000; stroke-opacity: 0.45; stroke-width: 1.134847"/>
    <path d="M 94.531068 421.795101 
L 92.982603 437.855225 
" clip-path="url(#p3a2785b3fe)" style="fill: none; stroke: #000000; stroke-opacity: 0.45; stroke-width: 1.522497"/>
    <path d="M 94.531068 421.795101 
L 85.437321 429.620648 
" clip-path="url(#p3a2785b3fe)" style="fill: none; stroke: #000000; stroke-opacity: 0.45; stroke-width: 2.2"/>
    <path d="M 94.531068 421.795101 
L 73.719774 434.803114 
" clip-path="url(#p3a2785b3fe)" style="fill: none; stroke: #000000; stroke-opacity: 0.45; stroke-width: 0.824264"/>
    <path d="M 94.531068 421.795101 
L 70.001813 414.848087 
" clip-path="url(#p3a2785b3fe)" style="fill: none; stroke: #000000; stroke-opacity: 0.45; stroke-width: 0.824264"/>
    <path d="M 94.531068 421.795101 
L 74.752472 438.406106 
" clip-path="url(#p3a2785b3fe)" style="fill: none; stroke: #000000; stroke-opacity: 0.45; stroke-width: 0.919615"/>
    <path d="M 94.531068 421.795101 
L 51.695678 413.849833 
" clip-path="url(#p3a2785b3fe)" style="fill: none; stroke: #000000; stroke-opacity: 0.45; stroke-width: 0.7"/>
    <path d="M 94.531068 421.795101 
L 62.878069 455.22055 
" clip-path="url(#p3a2785b3fe)" style="fill: none; stroke: #000000; stroke-opacity: 0.45; stroke-width: 0.7"/>
    <path d="M 94.531068 421.795101 
L 83.607189 446.749507 
" clip-path="url(#p3a2785b3fe)" style="fill: none; stroke: #000000; stroke-opacity: 0.45; stroke-width: 0.919615"/>
    <path d="M 94.531068 421.795101 
L 90.241453 447.888935 
" clip-path="url(#p3a2785b3fe)" style="fill: none; stroke: #000000; stroke-opacity: 0.45"/>
    <path d="M 95.924993 467.980023 
L 83.607189 446.749507 
" clip-path="url(#p3a2785b3fe)" style="fill: none; stroke: #000000; stroke-opacity: 0.45; stroke-width: 1.70767"/>
    <path d="M 95.924993 467.980023 
L 92.982603 437.855225 
" clip-path="url(#p3a2785b3fe)" style="fill: none; stroke: #000000; stroke-opacity: 0.45; stroke-width: 0.7"/>
    <path d="M 95.924993 467.980023 
L 90.241453 447.888935 
" clip-path="url(#p3a2785b3fe)" style="fill: none; stroke: #000000; stroke-opacity: 0.45; stroke-width: 1.248528"/>
    <path d="M 95.924993 467.980023 
L 80.202112 455.736573 
" clip-path="url(#p3a2785b3fe)" style="fill: none; stroke: #000000; stroke-opacity: 0.45; stroke-width: 1.193725"/>
    <path d="M 95.924993 467.980023 
L 74.752472 438.406106 
" clip-path="url(#p3a2785b3fe)" style="fill: none; stroke: #000000; stroke-opacity: 0.45; stroke-width: 0.7"/>
    <path d="M 95.924993 467.980023 
L 82.40699 433.662957 
" clip-path="url(#p3a2785b3fe)" style="fill: none; stroke: #000000; stroke-opacity: 0.45"/>
    <path d="M 95.924993 467.980023 
L 113.36022 419.401912 
" clip-path="url(#p3a2785b3fe)" style="fill: none; stroke: #000000; stroke-opacity: 0.45; stroke-width: 0.7"/>
    <path d="M 113.36022 419.401912 
L 92.982603 437.855225 
" clip-path="url(#p3a2785b3fe)" style="fill: none; stroke: #000000; stroke-opacity: 0.45; stroke-width: 0.824264"/>
    <path d="M 113.36022 419.401912 
L 74.752472 438.406106 
" clip-path="url(#p3a2785b3fe)" style="fill: none; stroke: #000000; stroke-opacity: 0.45; stroke-width: 0.824264"/>
    <path d="M 113.36022 419.401912 
L 82.40699 433.662957 
" clip-path="url(#p3a2785b3fe)" style="fill: none; stroke: #000000; stroke-opacity: 0.45; stroke-width: 1.193725"/>
    <path d="M 113.36022 419.401912 
L 85.437321 429.620648 
" clip-path="url(#p3a2785b3fe)" style="fill: none; stroke: #000000; stroke-opacity: 0.45; stroke-width: 1.193725"/>
    <path d="M 113.36022 419.401912 
L 76.616838 402.125935 
" clip-path="url(#p3a2785b3fe)" style="fill: none; stroke: #000000; stroke-opacity: 0.45; stroke-width: 0.824264"/>
    <path d="M 113.36022 419.401912 
L 83.607189 446.749507 
" clip-path="url(#p3a2785b3fe)" style="fill: none; stroke: #000000; stroke-opacity: 0.45; stroke-width: 0.7"/>
    <path d="M 76.616838 402.125935 
L 74.752472 438.406106 
" clip-path="url(#p3a2785b3fe)" style="fill: none; stroke: #000000; stroke-opacity: 0.45; stroke-width: 0.919615"/>
    <path d="M 76.616838 402.125935 
L 85.437321 429.620648 
" clip-path="url(#p3a2785b3fe)" style="fill: none; stroke: #000000; stroke-opacity: 0.45; stroke-width: 1.134847"/>
    <path d="M 76.616838 402.125935 
L 82.40699 433.662957 
" clip-path="url(#p3a2785b3fe)" style="fill: none; stroke: #000000; stroke-opacity: 0.45; stroke-width: 1.193725"/>
    <path d="M 76.616838 402.125935 
L 80.202112 455.736573 
" clip-path="url(#p3a2785b3fe)" style="fill: none; stroke: #000000; stroke-opacity: 0.45; stroke-width: 0.7"/>
    <path d="M 76.616838 402.125935 
L 83.607189 446.749507 
" clip-path="url(#p3a2785b3fe)" style="fill: none; stroke: #000000; stroke-opacity: 0.45; stroke-width: 0.824264"/>
    <path d="M 76.616838 402.125935 
L 71.831649 425.474281 
" clip-path="url(#p3a2785b3fe)" style="fill: none; stroke: #000000; stroke-opacity: 0.45; stroke-width: 0.7"/>
    <path d="M 90.241453 447.888935 
L 85.437321 429.620648 
" clip-path="url(#p3a2785b3fe)" style="fill: none; stroke: #000000; stroke-opacity: 0.45; stroke-width: 1.807125"/>
    <path d="M 90.241453 447.888935 
L 73.719774 434.803114 
" clip-path="url(#p3a2785b3fe)" style="fill: none; stroke: #000000; stroke-opacity: 0.45; stroke-width: 1.70767"/>
    <path d="M 90.241453 447.888935 
L 82.40699 433.662957 
" clip-path="url(#p3a2785b3fe)" style="fill: none; stroke: #000000; stroke-opacity: 0.45; stroke-width: 1.561895"/>
    <path d="M 90.241453 447.888935 
L 92.982603 437.855225 
" clip-path="url(#p3a2785b3fe)" style="fill: none; stroke: #000000; stroke-opacity: 0.45; stroke-width: 1.522497"/>
    <path d="M 90.241453 447.888935 
L 80.202112 455.736573 
" clip-path="url(#p3a2785b3fe)" style="fill: none; stroke: #000000; stroke-opacity: 0.45; stroke-width: 1.70767"/>
    <path d="M 90.241453 447.888935 
L 83.607189 446.749507 
" clip-path="url(#p3a2785b3fe)" style="fill: none; stroke: #000000; stroke-opacity: 0.45; stroke-width: 2.478461"/>
    <path d="M 90.241453 447.888935 
L 74.752472 438.406106 
" clip-path="url(#p3a2785b3fe)" style="fill: none; stroke: #000000; stroke-opacity: 0.45; stroke-width: 1.636932"/>
    <path d="M 90.241453 447.888935 
L 70.001813 414.848087 
" clip-path="url(#p3a2785b3fe)" style="fill: none; stroke: #000000; stroke-opacity: 0.45; stroke-width: 0.7"/>
    <path d="M 90.241453 447.888935 
L 62.878069 455.22055 
" clip-path="url(#p3a2785b3fe)" style="fill: none; stroke: #000000; stroke-opacity: 0.45; stroke-width: 0.7"/>
    <path d="M 90.241453 447.888935 
L 51.695678 413.849833 
" clip-path="url(#p3a2785b3fe)" style="fill: none; stroke: #000000; stroke-opacity: 0.45; stroke-width: 0.7"/>
    <path d="M 90.241453 447.888935 
L 71.831649 425.474281 
" clip-path="url(#p3a2785b3fe)" style="fill: none; stroke: #000000; stroke-opacity: 0.45; stroke-width: 0.7"/>
    <path d="M 80.202112 455.736573 
L 83.607189 446.749507 
" clip-path="url(#p3a2785b3fe)" style="fill: none; stroke: #000000; stroke-opacity: 0.45; stroke-width: 1.9"/>
    <path d="M 80.202112 455.736573 
L 92.982603 437.855225 
" clip-path="url(#p3a2785b3fe)" style="fill: none; stroke: #000000; stroke-opacity: 0.45; stroke-width: 1.193725"/>
    <path d="M 80.202112 455.736573 
L 51.695678 413.849833 
" clip-path="url(#p3a2785b3fe)" style="fill: none; stroke: #000000; stroke-opacity: 0.45; stroke-width: 0.7"/>
    <path d="M 80.202112 455.736573 
L 82.40699 433.662957 
" clip-path="url(#p3a2785b3fe)" style="fill: none; stroke: #000000; stroke-opacity: 0.45; stroke-width: 1.481665"/>
    <path d="M 80.202112 455.736573 
L 74.752472 438.406106 
" clip-path="url(#p3a2785b3fe)" style="fill: none; stroke: #000000; stroke-opacity: 0.45; stroke-width: 1.134847"/>
    <path d="M 80.202112 455.736573 
L 73.719774 434.803114 
" clip-path="url(#p3a2785b3fe)" style="fill: none; stroke: #000000; stroke-opacity: 0.45; stroke-width: 1.134847"/>
    <path d="M 80.202112 455.736573 
L 62.878069 455.22055 
" clip-path="url(#p3a2785b3fe)" style="fill: none; stroke: #000000; stroke-opacity: 0.45; stroke-width: 1.07082"/>
    <path d="M 80.202112 455.736573 
L 71.831649 425.474281 
" clip-path="url(#p3a2785b3fe)" style="fill: none; stroke: #000000; stroke-opacity: 0.45; stroke-width: 0.824264"/>
    <path d="M 80.202112 455.736573 
L 85.437321 429.620648 
" clip-path="url(#p3a2785b3fe)" style="fill: none; stroke: #000000; stroke-opacity: 0.45; stroke-width: 1.07082"/>
    <path d="M 83.607189 446.749507 
L 92.982603 437.855225 
" clip-path="url(#p3a2785b3fe)" style="fill: none; stroke: #000000; stroke-opacity: 0.45; stroke-width: 1.807125"/>
    <path d="M 83.607189 446.749507 
L 62.878069 455.22055 
" clip-path="url(#p3a2785b3fe)" style="fill: none; stroke: #000000; stroke-opacity: 0.45; stroke-width: 0.824264"/>
    <path d="M 83.607189 446.749507 
L 74.752472 438.406106 
" clip-path="url(#p3a2785b3fe)" style="fill: none; stroke: #000000; stroke-opacity: 0.45; stroke-width: 1.9"/>
    <path d="M 83.607189 446.749507 
L 73.719774 434.803114 
" clip-path="url(#p3a2785b3fe)" style="fill: none; stroke: #000000; stroke-opacity: 0.45; stroke-width: 1.741641"/>
    <path d="M 83.607189 446.749507 
L 82.40699 433.662957 
" clip-path="url(#p3a2785b3fe)" style="fill: none; stroke: #000000; stroke-opacity: 0.45; stroke-width: 2.224829"/>
    <path d="M 83.607189 446.749507 
L 70.001813 414.848087 
" clip-path="url(#p3a2785b3fe)" style="fill: none; stroke: #000000; stroke-opacity: 0.45"/>
    <path d="M 83.607189 446.749507 
L 85.437321 429.620648 
" clip-path="url(#p3a2785b3fe)" style="fill: none; stroke: #000000; stroke-opacity: 0.45; stroke-width: 1.348683"/>
    <path d="M 83.607189 446.749507 
L 71.831649 425.474281 
" clip-path="url(#p3a2785b3fe)" style="fill: none; stroke: #000000; stroke-opacity: 0.45; stroke-width: 0.824264"/>
    <path d="M 92.982603 437.855225 
L 62.878069 455.22055 
" clip-path="url(#p3a2785b3fe)" style="fill: none; stroke: #000000; stroke-opacity: 0.45; stroke-width: 0.919615"/>
    <path d="M 92.982603 437.855225 
L 74.752472 438.406106 
" clip-path="url(#p3a2785b3fe)" style="fill: none; stroke: #000000; stroke-opacity: 0.45; stroke-width: 1.561895"/>
    <path d="M 92.982603 437.855225 
L 73.719774 434.803114 
" clip-path="url(#p3a2785b3fe)" style="fill: none; stroke: #000000; stroke-opacity: 0.45; stroke-width: 1.394987"/>
    <path d="M 92.982603 437.855225 
L 70.001813 414.848087 
" clip-path="url(#p3a2785b3fe)" style="fill: none; stroke: #000000; stroke-opacity: 0.45; stroke-width: 0.7"/>
    <path d="M 92.982603 437.855225 
L 82.40699 433.662957 
" clip-path="url(#p3a2785b3fe)" style="fill: none; stroke: #000000; stroke-opacity: 0.45; stroke-width: 1.929706"/>
    <path d="M 92.982603 437.855225 
L 71.831649 425.474281 
" clip-path="url(#p3a2785b3fe)" style="fill: none; stroke: #000000; stroke-opacity: 0.45; stroke-width: 1.248528"/>
    <path d="M 92.982603 437.855225 
L 85.437321 429.620648 
" clip-path="url(#p3a2785b3fe)" style="fill: none; stroke: #000000; stroke-opacity: 0.45; stroke-width: 2.320937"/>
    <path d="M 74.752472 438.406106 
L 73.719774 434.803114 
" clip-path="url(#p3a2785b3fe)" style="fill: none; stroke: #000000; stroke-opacity: 0.45; stroke-width: 3.293095"/>
    <path d="M 74.752472 438.406106 
L 70.001813 414.848087 
" clip-path="url(#p3a2785b3fe)" style="fill: none; stroke: #000000; stroke-opacity: 0.45; stroke-width: 1.394987"/>
    <path d="M 74.752472 438.406106 
L 82.40699 433.662957 
" clip-path="url(#p3a2785b3fe)" style="fill: none; stroke: #000000; stroke-opacity: 0.45; stroke-width: 3.261818"/>
    <path d="M 74.752472 438.406106 
L 71.831649 425.474281 
" clip-path="url(#p3a2785b3fe)" style="fill: none; stroke: #000000; stroke-opacity: 0.45; stroke-width: 1.6"/>
    <path d="M 74.752472 438.406106 
L 85.437321 429.620648 
" clip-path="url(#p3a2785b3fe)" style="fill: none; stroke: #000000; stroke-opacity: 0.45; stroke-width: 2.604541"/>
    <path d="M 74.752472 438.406106 
L 62.878069 455.22055 
" clip-path="url(#p3a2785b3fe)" style="fill: none; stroke: #000000; stroke-opacity: 0.45; stroke-width: 0.919615"/>
    <path d="M 71.831649 425.474281 
L 82.40699 433.662957 
" clip-path="url(#p3a2785b3fe)" style="fill: none; stroke: #000000; stroke-opacity: 0.45; stroke-width: 1.561895"/>
    <path d="M 71.831649 425.474281 
L 73.719774 434.803114 
" clip-path="url(#p3a2785b3fe)" style="fill: none; stroke: #000000; stroke-opacity: 0.45; stroke-width: 1.522497"/>
    <path d="M 71.831649 425.474281 
L 85.437321 429.620648 
" clip-path="url(#p3a2785b3fe)" style="fill: none; stroke: #000000; stroke-opacity: 0.45; stroke-width: 1.741641"/>
    <path d="M 71.831649 425.474281 
L 51.695678 413.849833 
" clip-path="url(#p3a2785b3fe)" style="fill: none; stroke: #000000; stroke-opacity: 0.45; stroke-width: 0.824264"/>
    <path d="M 71.831649 425.474281 
L 62.878069 455.22055 
" clip-path="url(#p3a2785b3fe)" style="fill: none; stroke: #000000; stroke-opacity: 0.45; stroke-width: 0.919615"/>
    <path d="M 51.695678 413.849833 
L 82.40699 433.662957 
" clip-path="url(#p3a2785b3fe)" style="fill: none; stroke: #000000; stroke-opacity: 0.45; stroke-width: 0.919615"/>
    <path d="M 51.695678 413.849833 
L 85.437321 429.620648 
" clip-path="url(#p3a2785b3fe)" style="fill: none; stroke: #000000; stroke-opacity: 0.45; stroke-width: 0.824264"/>
    <path d="M 51.695678 413.849833 
L 62.878069 455.22055 
" clip-path="url(#p3a2785b3fe)" style="fill: none; stroke: #000000; stroke-opacity: 0.45; stroke-width: 0.7"/>
    <path d="M 73.719774 434.803114 
L 70.001813 414.848087 
" clip-path="url(#p3a2785b3fe)" style="fill: none; stroke: #000000; stroke-opacity: 0.45; stroke-width: 1.394987"/>
    <path d="M 73.719774 434.803114 
L 82.40699 433.662957 
" clip-path="url(#p3a2785b3fe)" style="fill: none; stroke: #000000; stroke-opacity: 0.45; stroke-width: 2.174824"/>
    <path d="M 73.719774 434.803114 
L 85.437321 429.620648 
" clip-path="url(#p3a2785b3fe)" style="fill: none; stroke: #000000; stroke-opacity: 0.45; stroke-width: 2.224829"/>
    <path d="M 73.719774 434.803114 
L 62.878069 455.22055 
" clip-path="url(#p3a2785b3fe)" style="fill: none; stroke: #000000; stroke-opacity: 0.45; stroke-width: 1.134847"/>
    <path d="M 82.40699 433.662957 
L 70.001813 414.848087 
" clip-path="url(#p3a2785b3fe)" style="fill: none; stroke: #000000; stroke-opacity: 0.45; stroke-width: 1.134847"/>
    <path d="M 82.40699 433.662957 
L 85.437321 429.620648 
" clip-path="url(#p3a2785b3fe)" style="fill: none; stroke: #000000; stroke-opacity: 0.45; stroke-width: 4.695346"/>
    <path d="M 82.40699 433.662957 
L 62.878069 455.22055 
" clip-path="url(#p3a2785b3fe)" style="fill: none; stroke: #000000; stroke-opacity: 0.45; stroke-width: 1.3"/>
    <path d="M 85.437321 429.620648 
L 70.001813 414.848087 
" clip-path="url(#p3a2785b3fe)" style="fill: none; stroke: #000000; stroke-opacity: 0.45; stroke-width: 0.919615"/>
    <path d="M 85.437321 429.620648 
L 62.878069 455.22055 
" clip-path="url(#p3a2785b3fe)" style="fill: none; stroke: #000000; stroke-opacity: 0.45; stroke-width: 1.07082"/>
   </g>
   <g id="PathCollection_1">
    <path d="M 53.649053 444.911112 
C 56.701333 444.911112 59.629011 443.698428 61.787299 441.54014 
C 63.945588 439.381852 65.158272 436.454174 65.158272 433.401893 
C 65.158272 430.349613 63.945588 427.421935 61.787299 425.263647 
C 59.629011 423.105359 56.701333 421.892675 53.649053 421.892675 
C 50.596773 421.892675 47.669095 423.105359 45.510806 425.263647 
C 43.352518 427.421935 42.139834 430.349613 42.139834 433.401893 
C 42.139834 436.454174 43.352518 439.381852 45.510806 441.54014 
C 47.669095 443.698428 50.596773 444.911112 53.649053 444.911112 
z
" clip-path="url(#p3a2785b3fe)" style="fill: #4c72b0; stroke: #ffffff; stroke-width: 1.5"/>
    <path d="M 608.727273 416.02917 
C 610.946121 416.02917 613.07439 415.147612 614.643353 413.578649 
C 616.212315 412.009686 617.093873 409.881418 617.093873 407.662569 
C 617.093873 405.443721 616.212315 403.315452 614.643353 401.74649 
C 613.07439 400.177527 610.946121 399.295969 608.727273 399.295969 
C 606.508424 399.295969 604.380156 400.177527 602.811193 401.74649 
C 601.24223 403.315452 600.360672 405.443721 600.360672 407.662569 
C 600.360672 409.881418 601.24223 412.009686 602.811193 413.578649 
C 604.380156 415.147612 606.508424 416.02917 608.727273 416.02917 
z
" clip-path="url(#p3a2785b3fe)" style="fill: #4c72b0; stroke: #ffffff; stroke-width: 1.5"/>
    <path d="M 98.626694 445.979355 
C 102.916596 445.979355 107.031372 444.274958 110.064791 441.24154 
C 113.098209 438.208121 114.802605 434.093345 114.802605 429.803443 
C 114.802605 425.513541 113.098209 421.398765 110.064791 418.365347 
C 107.031372 415.331928 102.916596 413.627532 98.626694 413.627532 
C 94.336792 413.627532 90.222016 415.331928 87.188597 418.365347 
C 84.155179 421.398765 82.450783 425.513541 82.450783 429.803443 
C 82.450783 434.093345 84.155179 438.208121 87.188597 441.24154 
C 90.222016 444.274958 94.336792 445.979355 98.626694 445.979355 
z
" clip-path="url(#p3a2785b3fe)" style="fill: #4c72b0; stroke: #ffffff; stroke-width: 1.5"/>
    <path d="M 88.822994 428.490611 
C 92.570402 428.490611 96.16483 427.00175 98.814648 424.351932 
C 101.464466 421.702115 102.953327 418.107686 102.953327 414.360278 
C 102.953327 410.61287 101.464466 407.018442 98.814648 404.368624 
C 96.16483 401.718807 92.570402 400.229946 88.822994 400.229946 
C 85.075586 400.229946 81.481158 401.718807 78.83134 404.368624 
C 76.181523 407.018442 74.692662 410.61287 74.692662 414.360278 
C 74.692662 418.107686 76.181523 421.702115 78.83134 424.351932 
C 81.481158 427.00175 85.075586 428.490611 88.822994 428.490611 
z
" clip-path="url(#p3a2785b3fe)" style="fill: #4c72b0; stroke: #ffffff; stroke-width: 1.5"/>
    <path d="M 392.683207 41.093873 
C 394.902056 41.093873 397.030325 40.212315 398.599287 38.643353 
C 400.16825 37.07439 401.049808 34.946121 401.049808 32.727273 
C 401.049808 30.508424 400.16825 28.380156 398.599287 26.811193 
C 397.030325 25.24223 394.902056 24.360672 392.683207 24.360672 
C 390.464359 24.360672 388.33609 25.24223 386.767128 26.811193 
C 385.198165 28.380156 384.316607 30.508424 384.316607 32.727273 
C 384.316607 34.946121 385.198165 37.07439 386.767128 38.643353 
C 388.33609 40.212315 390.464359 41.093873 392.683207 41.093873 
z
" clip-path="url(#p3a2785b3fe)" style="fill: #4c72b0; stroke: #ffffff; stroke-width: 1.5"/>
    <path d="M 61.276243 457.091918 
C 65.228094 457.091918 69.01862 455.521831 71.813001 452.72745 
C 74.607381 449.93307 76.177468 446.142544 76.177468 442.190693 
C 76.177468 438.238842 74.607381 434.448317 71.813001 431.653936 
C 69.01862 428.859555 65.228094 427.289468 61.276243 427.289468 
C 57.324392 427.289468 53.533867 428.859555 50.739486 431.653936 
C 47.945105 434.448317 46.375018 438.238842 46.375018 442.190693 
C 46.375018 446.142544 47.945105 449.93307 50.739486 452.72745 
C 53.533867 455.521831 57.324392 457.091918 61.276243 457.091918 
z
" clip-path="url(#p3a2785b3fe)" style="fill: #4c72b0; stroke: #ffffff; stroke-width: 1.5"/>
    <path d="M 97.9645 473.549375 
C 102.015281 473.549375 105.900698 471.939983 108.765033 469.075648 
C 111.629368 466.211313 113.23876 462.325896 113.23876 458.275115 
C 113.23876 454.224334 111.629368 450.338917 108.765033 447.474582 
C 105.900698 444.610247 102.015281 443.000855 97.9645 443.000855 
C 93.913718 443.000855 90.028301 444.610247 87.163967 447.474582 
C 84.299632 450.338917 82.690239 454.224334 82.690239 458.275115 
C 82.690239 462.325896 84.299632 466.211313 87.163967 469.075648 
C 90.028301 471.939983 93.913718 473.549375 97.9645 473.549375 
z
" clip-path="url(#p3a2785b3fe)" style="fill: #4c72b0; stroke: #ffffff; stroke-width: 1.5"/>
    <path d="M 79.70869 458.183335 
C 84.914115 458.183335 89.907039 456.115198 93.58783 452.434407 
C 97.268622 448.753615 99.336759 443.760691 99.336759 438.555266 
C 99.336759 433.349841 97.268622 428.356916 93.58783 424.676125 
C 89.907039 420.995334 84.914115 418.927197 79.70869 418.927197 
C 74.503265 418.927197 69.51034 420.995334 65.829549 424.676125 
C 62.148758 428.356916 60.080621 433.349841 60.080621 438.555266 
C 60.080621 443.760691 62.148758 448.753615 65.829549 452.434407 
C 69.51034 456.115198 74.503265 458.183335 79.70869 458.183335 
z
" clip-path="url(#p3a2785b3fe)" style="fill: #4c72b0; stroke: #ffffff; stroke-width: 1.5"/>
    <path d="M 42.800703 476.266792 
C 45.316641 476.266792 47.729871 475.2672 49.508907 473.488163 
C 51.287944 471.709127 52.287536 469.295897 52.287536 466.779959 
C 52.287536 464.264022 51.287944 461.850792 49.508907 460.071755 
C 47.729871 458.292719 45.316641 457.293126 42.800703 457.293126 
C 40.284766 457.293126 37.871536 458.292719 36.092499 460.071755 
C 34.313463 461.850792 33.31387 464.264022 33.31387 466.779959 
C 33.31387 469.295897 34.313463 471.709127 36.092499 473.488163 
C 37.871536 475.2672 40.284766 476.266792 42.800703 476.266792 
z
" clip-path="url(#p3a2785b3fe)" style="fill: #4c72b0; stroke: #ffffff; stroke-width: 1.5"/>
    <path d="M 87.700942 458.26817 
C 92.886086 458.26817 97.859558 456.20809 101.526009 452.54164 
C 105.19246 448.875189 107.252539 443.901717 107.252539 438.716573 
C 107.252539 433.531428 105.19246 428.557956 101.526009 424.891506 
C 97.859558 421.225055 92.886086 419.164975 87.700942 419.164975 
C 82.515798 419.164975 77.542326 421.225055 73.875875 424.891506 
C 70.209424 428.557956 68.149345 433.531428 68.149345 438.716573 
C 68.149345 443.901717 70.209424 448.875189 73.875875 452.54164 
C 77.542326 456.20809 82.515798 458.26817 87.700942 458.26817 
z
" clip-path="url(#p3a2785b3fe)" style="fill: #4c72b0; stroke: #ffffff; stroke-width: 1.5"/>
    <path d="M 94.531068 437.34609 
C 98.655238 437.34609 102.611049 435.70754 105.527278 432.791311 
C 108.443506 429.875082 110.082057 425.919272 110.082057 421.795101 
C 110.082057 417.670931 108.443506 413.71512 105.527278 410.798891 
C 102.611049 407.882662 98.655238 406.244112 94.531068 406.244112 
C 90.406897 406.244112 86.451087 407.882662 83.534858 410.798891 
C 80.618629 413.71512 78.980079 417.670931 78.980079 421.795101 
C 78.980079 425.919272 80.618629 429.875082 83.534858 432.791311 
C 86.451087 435.70754 90.406897 437.34609 94.531068 437.34609 
z
" clip-path="url(#p3a2785b3fe)" style="fill: #4c72b0; stroke: #ffffff; stroke-width: 1.5"/>
    <path d="M 95.924993 481.91638 
C 99.620958 481.91638 103.166044 480.447958 105.779486 477.834516 
C 108.392928 475.221074 109.86135 471.675988 109.86135 467.980023 
C 109.86135 464.284058 108.392928 460.738972 105.779486 458.12553 
C 103.166044 455.512088 99.620958 454.043666 95.924993 454.043666 
C 92.229028 454.043666 88.683942 455.512088 86.0705 458.12553 
C 83.457058 460.738972 81.988636 464.284058 81.988636 467.980023 
C 81.988636 471.675988 83.457058 475.221074 86.0705 477.834516 
C 88.683942 480.447958 92.229028 481.91638 95.924993 481.91638 
z
" clip-path="url(#p3a2785b3fe)" style="fill: #4c72b0; stroke: #ffffff; stroke-width: 1.5"/>
    <path d="M 113.36022 431.210498 
C 116.491894 431.210498 119.495724 429.966271 121.710152 427.751843 
C 123.92458 425.537416 125.168807 422.533586 125.168807 419.401912 
C 125.168807 416.270238 123.92458 413.266408 121.710152 411.05198 
C 119.495724 408.837552 116.491894 407.593325 113.36022 407.593325 
C 110.228546 407.593325 107.224716 408.837552 105.010288 411.05198 
C 102.795861 413.266408 101.551633 416.270238 101.551633 419.401912 
C 101.551633 422.533586 102.795861 425.537416 105.010288 427.751843 
C 107.224716 429.966271 110.228546 431.210498 113.36022 431.210498 
z
" clip-path="url(#p3a2785b3fe)" style="fill: #4c72b0; stroke: #ffffff; stroke-width: 1.5"/>
    <path d="M 76.616838 413.934522 
C 79.748512 413.934522 82.752342 412.690294 84.96677 410.475867 
C 87.181198 408.261439 88.425425 405.257609 88.425425 402.125935 
C 88.425425 398.994261 87.181198 395.990431 84.96677 393.776003 
C 82.752342 391.561575 79.748512 390.317348 76.616838 390.317348 
C 73.485165 390.317348 70.481334 391.561575 68.266907 393.776003 
C 66.052479 395.990431 64.808252 398.994261 64.808252 402.125935 
C 64.808252 405.257609 66.052479 408.261439 68.266907 410.475867 
C 70.481334 412.690294 73.485165 413.934522 76.616838 413.934522 
z
" clip-path="url(#p3a2785b3fe)" style="fill: #4c72b0; stroke: #ffffff; stroke-width: 1.5"/>
    <path d="M 90.241453 466.632744 
C 95.21237 466.632744 99.980359 464.657778 103.495328 461.142809 
C 107.010297 457.627841 108.985263 452.859851 108.985263 447.888935 
C 108.985263 442.918019 107.010297 438.150029 103.495328 434.63506 
C 99.980359 431.120092 95.21237 429.145126 90.241453 429.145126 
C 85.270537 429.145126 80.502547 431.120092 76.987579 434.63506 
C 73.47261 438.150029 71.497644 442.918019 71.497644 447.888935 
C 71.497644 452.859851 73.47261 457.627841 76.987579 461.142809 
C 80.502547 464.657778 85.270537 466.632744 90.241453 466.632744 
z
" clip-path="url(#p3a2785b3fe)" style="fill: #4c72b0; stroke: #ffffff; stroke-width: 1.5"/>
    <path d="M 80.202112 472.384586 
C 84.617217 472.384586 88.852085 470.630446 91.974035 467.508496 
C 95.095986 464.386545 96.850125 460.151678 96.850125 455.736573 
C 96.850125 451.321468 95.095986 447.086601 91.974035 443.96465 
C 88.852085 440.8427 84.617217 439.08856 80.202112 439.08856 
C 75.787008 439.08856 71.55214 440.8427 68.43019 443.96465 
C 65.308239 447.086601 63.554099 451.321468 63.554099 455.736573 
C 63.554099 460.151678 65.308239 464.386545 68.43019 467.508496 
C 71.55214 470.630446 75.787008 472.384586 80.202112 472.384586 
z
" clip-path="url(#p3a2785b3fe)" style="fill: #4c72b0; stroke: #ffffff; stroke-width: 1.5"/>
    <path d="M 83.607189 467.927259 
C 89.223594 467.927259 94.610722 465.695837 98.582121 461.724439 
C 102.553519 457.75304 104.784941 452.365912 104.784941 446.749507 
C 104.784941 441.133101 102.553519 435.745973 98.582121 431.774575 
C 94.610722 427.803176 89.223594 425.571755 83.607189 425.571755 
C 77.990783 425.571755 72.603655 427.803176 68.632257 431.774575 
C 64.660858 435.745973 62.429437 441.133101 62.429437 446.749507 
C 62.429437 452.365912 64.660858 457.75304 68.632257 461.724439 
C 72.603655 465.695837 77.990783 467.927259 83.607189 467.927259 
z
" clip-path="url(#p3a2785b3fe)" style="fill: #4c72b0; stroke: #ffffff; stroke-width: 1.5"/>
    <path d="M 92.982603 455.418168 
C 97.64035 455.418168 102.107955 453.567626 105.401479 450.274101 
C 108.695004 446.980577 110.545546 442.512972 110.545546 437.855225 
C 110.545546 433.197478 108.695004 428.729874 105.401479 425.436349 
C 102.107955 422.142825 97.64035 420.292282 92.982603 420.292282 
C 88.324856 420.292282 83.857252 422.142825 80.563727 425.436349 
C 77.270203 428.729874 75.41966 433.197478 75.41966 437.855225 
C 75.41966 442.512972 77.270203 446.980577 80.563727 450.274101 
C 83.857252 453.567626 88.324856 455.418168 92.982603 455.418168 
z
" clip-path="url(#p3a2785b3fe)" style="fill: #4c72b0; stroke: #ffffff; stroke-width: 1.5"/>
    <path d="M 74.752472 457.625221 
C 79.849441 457.625221 84.738337 455.600174 88.342438 451.996073 
C 91.94654 448.391972 93.971587 443.503075 93.971587 438.406106 
C 93.971587 433.309137 91.94654 428.420241 88.342438 424.816139 
C 84.738337 421.212038 79.849441 419.186991 74.752472 419.186991 
C 69.655503 419.186991 64.766606 421.212038 61.162505 424.816139 
C 57.558404 428.420241 55.533356 433.309137 55.533356 438.406106 
C 55.533356 443.503075 57.558404 448.391972 61.162505 451.996073 
C 64.766606 455.600174 69.655503 457.625221 74.752472 457.625221 
z
" clip-path="url(#p3a2785b3fe)" style="fill: #4c72b0; stroke: #ffffff; stroke-width: 1.5"/>
    <path d="M 71.831649 440.256805 
C 75.75202 440.256805 79.51235 438.699225 82.284471 435.927104 
C 85.056592 433.154983 86.614172 429.394652 86.614172 425.474281 
C 86.614172 421.55391 85.056592 417.79358 82.284471 415.021459 
C 79.51235 412.249338 75.75202 410.691758 71.831649 410.691758 
C 67.911278 410.691758 64.150947 412.249338 61.378826 415.021459 
C 58.606706 417.79358 57.049126 421.55391 57.049126 425.474281 
C 57.049126 429.394652 58.606706 433.154983 61.378826 435.927104 
C 64.150947 438.699225 67.911278 440.256805 71.831649 440.256805 
z
" clip-path="url(#p3a2785b3fe)" style="fill: #4c72b0; stroke: #ffffff; stroke-width: 1.5"/>
    <path d="M 51.695678 424.635588 
C 54.556094 424.635588 57.299739 423.499133 59.322358 421.476513 
C 61.344978 419.453894 62.481433 416.710249 62.481433 413.849833 
C 62.481433 410.989418 61.344978 408.245773 59.322358 406.223153 
C 57.299739 404.200534 54.556094 403.064079 51.695678 403.064079 
C 48.835263 403.064079 46.091618 404.200534 44.068998 406.223153 
C 42.046379 408.245773 40.909924 410.989418 40.909924 413.849833 
C 40.909924 416.710249 42.046379 419.453894 44.068998 421.476513 
C 46.091618 423.499133 48.835263 424.635588 51.695678 424.635588 
z
" clip-path="url(#p3a2785b3fe)" style="fill: #4c72b0; stroke: #ffffff; stroke-width: 1.5"/>
    <path d="M 73.719774 453.066436 
C 78.563263 453.066436 83.209028 451.142097 86.633892 447.717233 
C 90.058757 444.292368 91.983096 439.646603 91.983096 434.803114 
C 91.983096 429.959624 90.058757 425.313859 86.633892 421.888995 
C 83.209028 418.46413 78.563263 416.539791 73.719774 416.539791 
C 68.876284 416.539791 64.230519 418.46413 60.805655 421.888995 
C 57.38079 425.313859 55.456451 429.959624 55.456451 434.803114 
C 55.456451 439.646603 57.38079 444.292368 60.805655 447.717233 
C 64.230519 451.142097 68.876284 453.066436 73.719774 453.066436 
z
" clip-path="url(#p3a2785b3fe)" style="fill: #4c72b0; stroke: #ffffff; stroke-width: 1.5"/>
    <path d="M 82.40699 456.100234 
C 88.357425 456.100234 94.064947 453.736101 98.27254 449.528508 
C 102.480133 445.320915 104.844266 439.613393 104.844266 433.662957 
C 104.844266 427.712522 102.480133 422.005 98.27254 417.797407 
C 94.064947 413.589814 88.357425 411.225681 82.40699 411.225681 
C 76.456555 411.225681 70.749033 413.589814 66.54144 417.797407 
C 62.333847 422.005 59.969714 427.712522 59.969714 433.662957 
C 59.969714 439.613393 62.333847 445.320915 66.54144 449.528508 
C 70.749033 453.736101 76.456555 456.100234 82.40699 456.100234 
z
" clip-path="url(#p3a2785b3fe)" style="fill: #4c72b0; stroke: #ffffff; stroke-width: 1.5"/>
    <path d="M 85.437321 451.211688 
C 91.163332 451.211688 96.655591 448.93672 100.704493 444.887819 
C 104.753394 440.838918 107.028362 435.346659 107.028362 429.620648 
C 107.028362 423.894637 104.753394 418.402378 100.704493 414.353476 
C 96.655591 410.304575 91.163332 408.029607 85.437321 408.029607 
C 79.71131 408.029607 74.219051 410.304575 70.17015 414.353476 
C 66.121249 418.402378 63.84628 423.894637 63.84628 429.620648 
C 63.84628 435.346659 66.121249 440.838918 70.17015 444.887819 
C 74.219051 448.93672 79.71131 451.211688 85.437321 451.211688 
z
" clip-path="url(#p3a2785b3fe)" style="fill: #4c72b0; stroke: #ffffff; stroke-width: 1.5"/>
    <path d="M 62.878069 468.505546 
C 66.401291 468.505546 69.780686 467.105755 72.27198 464.614461 
C 74.763274 462.123167 76.163065 458.743772 76.163065 455.22055 
C 76.163065 451.697328 74.763274 448.317934 72.27198 445.82664 
C 69.780686 443.335346 66.401291 441.935555 62.878069 441.935555 
C 59.354847 441.935555 55.975453 443.335346 53.484159 445.82664 
C 50.992865 448.317934 49.593074 451.697328 49.593074 455.22055 
C 49.593074 458.743772 50.992865 462.123167 53.484159 464.614461 
C 55.975453 467.105755 59.354847 468.505546 62.878069 468.505546 
z
" clip-path="url(#p3a2785b3fe)" style="fill: #4c72b0; stroke: #ffffff; stroke-width: 1.5"/>
    <path d="M 70.001813 426.840098 
C 73.182131 426.840098 76.23262 425.576544 78.481445 423.327719 
C 80.730269 421.078894 81.993823 418.028405 81.993823 414.848087 
C 81.993823 411.667769 80.730269 408.61728 78.481445 406.368455 
C 76.23262 404.11963 73.182131 402.856077 70.001813 402.856077 
C 66.821494 402.856077 63.771005 404.11963 61.522181 406.368455 
C 59.273356 408.61728 58.009802 411.667769 58.009802 414.848087 
C 58.009802 418.028405 59.273356 421.078894 61.522181 423.327719 
C 63.771005 425.576544 66.821494 426.840098 70.001813 426.840098 
z
" clip-path="url(#p3a2785b3fe)" style="fill: #4c72b0; stroke: #ffffff; stroke-width: 1.5"/>
   </g>
   <g id="text_1">
    <g clip-path="url(#p3a2785b3fe)">
     <!-- actor_network -->
     <g transform="translate(25.094678 435.498143) scale(0.08 -0.08)">
      <defs>
       <path id="DejaVuSans-61" d="M 2194 1759 
Q 1497 1759 1228 1600 
Q 959 1441 959 1056 
Q 959 750 1161 570 
Q 1363 391 1709 391 
Q 2188 391 2477 730 
Q 2766 1069 2766 1631 
L 2766 1759 
L 2194 1759 
z
M 3341 1997 
L 3341 0 
L 2766 0 
L 2766 531 
Q 2569 213 2275 61 
Q 1981 -91 1556 -91 
Q 1019 -91 701 211 
Q 384 513 384 1019 
Q 384 1609 779 1909 
Q 1175 2209 1959 2209 
L 2766 2209 
L 2766 2266 
Q 2766 2663 2505 2880 
Q 2244 3097 1772 3097 
Q 1472 3097 1187 3025 
Q 903 2953 641 2809 
L 641 3341 
Q 956 3463 1253 3523 
Q 1550 3584 1831 3584 
Q 2591 3584 2966 3190 
Q 3341 2797 3341 1997 
z
" transform="scale(0.015625)"/>
       <path id="DejaVuSans-63" d="M 3122 3366 
L 3122 2828 
Q 2878 2963 2633 3030 
Q 2388 3097 2138 3097 
Q 1578 3097 1268 2742 
Q 959 2388 959 1747 
Q 959 1106 1268 751 
Q 1578 397 2138 397 
Q 2388 397 2633 464 
Q 2878 531 3122 666 
L 3122 134 
Q 2881 22 2623 -34 
Q 2366 -91 2075 -91 
Q 1284 -91 818 406 
Q 353 903 353 1747 
Q 353 2603 823 3093 
Q 1294 3584 2113 3584 
Q 2378 3584 2631 3529 
Q 2884 3475 3122 3366 
z
" transform="scale(0.015625)"/>
       <path id="DejaVuSans-74" d="M 1172 4494 
L 1172 3500 
L 2356 3500 
L 2356 3053 
L 1172 3053 
L 1172 1153 
Q 1172 725 1289 603 
Q 1406 481 1766 481 
L 2356 481 
L 2356 0 
L 1766 0 
Q 1100 0 847 248 
Q 594 497 594 1153 
L 594 3053 
L 172 3053 
L 172 3500 
L 594 3500 
L 594 4494 
L 1172 4494 
z
" transform="scale(0.015625)"/>
       <path id="DejaVuSans-6f" d="M 1959 3097 
Q 1497 3097 1228 2736 
Q 959 2375 959 1747 
Q 959 1119 1226 758 
Q 1494 397 1959 397 
Q 2419 397 2687 759 
Q 2956 1122 2956 1747 
Q 2956 2369 2687 2733 
Q 2419 3097 1959 3097 
z
M 1959 3584 
Q 2709 3584 3137 3096 
Q 3566 2609 3566 1747 
Q 3566 888 3137 398 
Q 2709 -91 1959 -91 
Q 1206 -91 779 398 
Q 353 888 353 1747 
Q 353 2609 779 3096 
Q 1206 3584 1959 3584 
z
" transform="scale(0.015625)"/>
       <path id="DejaVuSans-72" d="M 2631 2963 
Q 2534 3019 2420 3045 
Q 2306 3072 2169 3072 
Q 1681 3072 1420 2755 
Q 1159 2438 1159 1844 
L 1159 0 
L 581 0 
L 581 3500 
L 1159 3500 
L 1159 2956 
Q 1341 3275 1631 3429 
Q 1922 3584 2338 3584 
Q 2397 3584 2469 3576 
Q 2541 3569 2628 3553 
L 2631 2963 
z
" transform="scale(0.015625)"/>
       <path id="DejaVuSans-5f" d="M 3263 -1063 
L 3263 -1509 
L -63 -1509 
L -63 -1063 
L 3263 -1063 
z
" transform="scale(0.015625)"/>
       <path id="DejaVuSans-6e" d="M 3513 2113 
L 3513 0 
L 2938 0 
L 2938 2094 
Q 2938 2591 2744 2837 
Q 2550 3084 2163 3084 
Q 1697 3084 1428 2787 
Q 1159 2491 1159 1978 
L 1159 0 
L 581 0 
L 581 3500 
L 1159 3500 
L 1159 2956 
Q 1366 3272 1645 3428 
Q 1925 3584 2291 3584 
Q 2894 3584 3203 3211 
Q 3513 2838 3513 2113 
z
" transform="scale(0.015625)"/>
       <path id="DejaVuSans-65" d="M 3597 1894 
L 3597 1613 
L 953 1613 
Q 991 1019 1311 708 
Q 1631 397 2203 397 
Q 2534 397 2845 478 
Q 3156 559 3463 722 
L 3463 178 
Q 3153 47 2828 -22 
Q 2503 -91 2169 -91 
Q 1331 -91 842 396 
Q 353 884 353 1716 
Q 353 2575 817 3079 
Q 1281 3584 2069 3584 
Q 2775 3584 3186 3129 
Q 3597 2675 3597 1894 
z
M 3022 2063 
Q 3016 2534 2758 2815 
Q 2500 3097 2075 3097 
Q 1594 3097 1305 2825 
Q 1016 2553 972 2059 
L 3022 2063 
z
" transform="scale(0.015625)"/>
       <path id="DejaVuSans-77" d="M 269 3500 
L 844 3500 
L 1563 769 
L 2278 3500 
L 2956 3500 
L 3675 769 
L 4391 3500 
L 4966 3500 
L 4050 0 
L 3372 0 
L 2619 2869 
L 1863 0 
L 1184 0 
L 269 3500 
z
" transform="scale(0.015625)"/>
       <path id="DejaVuSans-6b" d="M 581 4863 
L 1159 4863 
L 1159 1991 
L 2875 3500 
L 3609 3500 
L 1753 1863 
L 3688 0 
L 2938 0 
L 1159 1709 
L 1159 0 
L 581 0 
L 581 4863 
z
" transform="scale(0.015625)"/>
      </defs>
      <use xlink:href="#DejaVuSans-61"/>
      <use xlink:href="#DejaVuSans-63" transform="translate(61.279297 0)"/>
      <use xlink:href="#DejaVuSans-74" transform="translate(116.259766 0)"/>
      <use xlink:href="#DejaVuSans-6f" transform="translate(155.46875 0)"/>
      <use xlink:href="#DejaVuSans-72" transform="translate(216.650391 0)"/>
      <use xlink:href="#DejaVuSans-5f" transform="translate(257.763672 0)"/>
      <use xlink:href="#DejaVuSans-6e" transform="translate(307.763672 0)"/>
      <use xlink:href="#DejaVuSans-65" transform="translate(371.142578 0)"/>
      <use xlink:href="#DejaVuSans-74" transform="translate(432.666016 0)"/>
      <use xlink:href="#DejaVuSans-77" transform="translate(471.875 0)"/>
      <use xlink:href="#DejaVuSans-6f" transform="translate(553.662109 0)"/>
      <use xlink:href="#DejaVuSans-72" transform="translate(614.84375 0)"/>
      <use xlink:href="#DejaVuSans-6b" transform="translate(655.957031 0)"/>
     </g>
    </g>
   </g>
   <g id="text_2">
    <g clip-path="url(#p3a2785b3fe)">
     <!-- agonistic -->
     <g transform="translate(590.680398 409.870069) scale(0.08 -0.08)">
      <defs>
       <path id="DejaVuSans-67" d="M 2906 1791 
Q 2906 2416 2648 2759 
Q 2391 3103 1925 3103 
Q 1463 3103 1205 2759 
Q 947 2416 947 1791 
Q 947 1169 1205 825 
Q 1463 481 1925 481 
Q 2391 481 2648 825 
Q 2906 1169 2906 1791 
z
M 3481 434 
Q 3481 -459 3084 -895 
Q 2688 -1331 1869 -1331 
Q 1566 -1331 1297 -1286 
Q 1028 -1241 775 -1147 
L 775 -588 
Q 1028 -725 1275 -790 
Q 1522 -856 1778 -856 
Q 2344 -856 2625 -561 
Q 2906 -266 2906 331 
L 2906 616 
Q 2728 306 2450 153 
Q 2172 0 1784 0 
Q 1141 0 747 490 
Q 353 981 353 1791 
Q 353 2603 747 3093 
Q 1141 3584 1784 3584 
Q 2172 3584 2450 3431 
Q 2728 3278 2906 2969 
L 2906 3500 
L 3481 3500 
L 3481 434 
z
" transform="scale(0.015625)"/>
       <path id="DejaVuSans-69" d="M 603 3500 
L 1178 3500 
L 1178 0 
L 603 0 
L 603 3500 
z
M 603 4863 
L 1178 4863 
L 1178 4134 
L 603 4134 
L 603 4863 
z
" transform="scale(0.015625)"/>
       <path id="DejaVuSans-73" d="M 2834 3397 
L 2834 2853 
Q 2591 2978 2328 3040 
Q 2066 3103 1784 3103 
Q 1356 3103 1142 2972 
Q 928 2841 928 2578 
Q 928 2378 1081 2264 
Q 1234 2150 1697 2047 
L 1894 2003 
Q 2506 1872 2764 1633 
Q 3022 1394 3022 966 
Q 3022 478 2636 193 
Q 2250 -91 1575 -91 
Q 1294 -91 989 -36 
Q 684 19 347 128 
L 347 722 
Q 666 556 975 473 
Q 1284 391 1588 391 
Q 1994 391 2212 530 
Q 2431 669 2431 922 
Q 2431 1156 2273 1281 
Q 2116 1406 1581 1522 
L 1381 1569 
Q 847 1681 609 1914 
Q 372 2147 372 2553 
Q 372 3047 722 3315 
Q 1072 3584 1716 3584 
Q 2034 3584 2315 3537 
Q 2597 3491 2834 3397 
z
" transform="scale(0.015625)"/>
      </defs>
      <use xlink:href="#DejaVuSans-61"/>
      <use xlink:href="#DejaVuSans-67" transform="translate(61.279297 0)"/>
      <use xlink:href="#DejaVuSans-6f" transform="translate(124.755859 0)"/>
      <use xlink:href="#DejaVuSans-6e" transform="translate(185.9375 0)"/>
      <use xlink:href="#DejaVuSans-69" transform="translate(249.316406 0)"/>
      <use xlink:href="#DejaVuSans-73" transform="translate(277.099609 0)"/>
      <use xlink:href="#DejaVuSans-74" transform="translate(329.199219 0)"/>
      <use xlink:href="#DejaVuSans-69" transform="translate(368.408203 0)"/>
      <use xlink:href="#DejaVuSans-63" transform="translate(396.191406 0)"/>
     </g>
    </g>
   </g>
   <g id="text_3">
    <g clip-path="url(#p3a2785b3fe)">
     <!-- alteration -->
     <g transform="translate(79.277319 432.010943) scale(0.08 -0.08)">
      <defs>
       <path id="DejaVuSans-6c" d="M 603 4863 
L 1178 4863 
L 1178 0 
L 603 0 
L 603 4863 
z
" transform="scale(0.015625)"/>
      </defs>
      <use xlink:href="#DejaVuSans-61"/>
      <use xlink:href="#DejaVuSans-6c" transform="translate(61.279297 0)"/>
      <use xlink:href="#DejaVuSans-74" transform="translate(89.0625 0)"/>
      <use xlink:href="#DejaVuSans-65" transform="translate(128.271484 0)"/>
      <use xlink:href="#DejaVuSans-72" transform="translate(189.794922 0)"/>
      <use xlink:href="#DejaVuSans-61" transform="translate(230.908203 0)"/>
      <use xlink:href="#DejaVuSans-74" transform="translate(292.1875 0)"/>
      <use xlink:href="#DejaVuSans-69" transform="translate(331.396484 0)"/>
      <use xlink:href="#DejaVuSans-6f" transform="translate(359.179688 0)"/>
      <use xlink:href="#DejaVuSans-6e" transform="translate(420.361328 0)"/>
     </g>
    </g>
   </g>
   <g id="text_4">
    <g clip-path="url(#p3a2785b3fe)">
     <!-- articulation -->
     <g transform="translate(66.089244 416.567778) scale(0.08 -0.08)">
      <defs>
       <path id="DejaVuSans-75" d="M 544 1381 
L 544 3500 
L 1119 3500 
L 1119 1403 
Q 1119 906 1312 657 
Q 1506 409 1894 409 
Q 2359 409 2629 706 
Q 2900 1003 2900 1516 
L 2900 3500 
L 3475 3500 
L 3475 0 
L 2900 0 
L 2900 538 
Q 2691 219 2414 64 
Q 2138 -91 1772 -91 
Q 1169 -91 856 284 
Q 544 659 544 1381 
z
M 1991 3584 
L 1991 3584 
z
" transform="scale(0.015625)"/>
      </defs>
      <use xlink:href="#DejaVuSans-61"/>
      <use xlink:href="#DejaVuSans-72" transform="translate(61.279297 0)"/>
      <use xlink:href="#DejaVuSans-74" transform="translate(102.392578 0)"/>
      <use xlink:href="#DejaVuSans-69" transform="translate(141.601562 0)"/>
      <use xlink:href="#DejaVuSans-63" transform="translate(169.384766 0)"/>
      <use xlink:href="#DejaVuSans-75" transform="translate(224.365234 0)"/>
      <use xlink:href="#DejaVuSans-6c" transform="translate(287.744141 0)"/>
      <use xlink:href="#DejaVuSans-61" transform="translate(315.527344 0)"/>
      <use xlink:href="#DejaVuSans-74" transform="translate(376.806641 0)"/>
      <use xlink:href="#DejaVuSans-69" transform="translate(416.015625 0)"/>
      <use xlink:href="#DejaVuSans-6f" transform="translate(443.798828 0)"/>
      <use xlink:href="#DejaVuSans-6e" transform="translate(504.980469 0)"/>
     </g>
    </g>
   </g>
   <g id="text_5">
    <g clip-path="url(#p3a2785b3fe)">
     <!-- black_box -->
     <g transform="translate(372.836332 34.823523) scale(0.08 -0.08)">
      <defs>
       <path id="DejaVuSans-62" d="M 3116 1747 
Q 3116 2381 2855 2742 
Q 2594 3103 2138 3103 
Q 1681 3103 1420 2742 
Q 1159 2381 1159 1747 
Q 1159 1113 1420 752 
Q 1681 391 2138 391 
Q 2594 391 2855 752 
Q 3116 1113 3116 1747 
z
M 1159 2969 
Q 1341 3281 1617 3432 
Q 1894 3584 2278 3584 
Q 2916 3584 3314 3078 
Q 3713 2572 3713 1747 
Q 3713 922 3314 415 
Q 2916 -91 2278 -91 
Q 1894 -91 1617 61 
Q 1341 213 1159 525 
L 1159 0 
L 581 0 
L 581 4863 
L 1159 4863 
L 1159 2969 
z
" transform="scale(0.015625)"/>
       <path id="DejaVuSans-78" d="M 3513 3500 
L 2247 1797 
L 3578 0 
L 2900 0 
L 1881 1375 
L 863 0 
L 184 0 
L 1544 1831 
L 300 3500 
L 978 3500 
L 1906 2253 
L 2834 3500 
L 3513 3500 
z
" transform="scale(0.015625)"/>
      </defs>
      <use xlink:href="#DejaVuSans-62"/>
      <use xlink:href="#DejaVuSans-6c" transform="translate(63.476562 0)"/>
      <use xlink:href="#DejaVuSans-61" transform="translate(91.259766 0)"/>
      <use xlink:href="#DejaVuSans-63" transform="translate(152.539062 0)"/>
      <use xlink:href="#DejaVuSans-6b" transform="translate(207.519531 0)"/>
      <use xlink:href="#DejaVuSans-5f" transform="translate(265.429688 0)"/>
      <use xlink:href="#DejaVuSans-62" transform="translate(315.429688 0)"/>
      <use xlink:href="#DejaVuSans-6f" transform="translate(378.90625 0)"/>
      <use xlink:href="#DejaVuSans-78" transform="translate(436.962891 0)"/>
     </g>
    </g>
   </g>
   <g id="text_6">
    <g clip-path="url(#p3a2785b3fe)">
     <!-- construction -->
     <g transform="translate(36.401868 444.398193) scale(0.08 -0.08)">
      <use xlink:href="#DejaVuSans-63"/>
      <use xlink:href="#DejaVuSans-6f" transform="translate(54.980469 0)"/>
      <use xlink:href="#DejaVuSans-6e" transform="translate(116.162109 0)"/>
      <use xlink:href="#DejaVuSans-73" transform="translate(179.541016 0)"/>
      <use xlink:href="#DejaVuSans-74" transform="translate(231.640625 0)"/>
      <use xlink:href="#DejaVuSans-72" transform="translate(270.849609 0)"/>
      <use xlink:href="#DejaVuSans-75" transform="translate(311.962891 0)"/>
      <use xlink:href="#DejaVuSans-63" transform="translate(375.341797 0)"/>
      <use xlink:href="#DejaVuSans-74" transform="translate(430.322266 0)"/>
      <use xlink:href="#DejaVuSans-69" transform="translate(469.53125 0)"/>
      <use xlink:href="#DejaVuSans-6f" transform="translate(497.314453 0)"/>
      <use xlink:href="#DejaVuSans-6e" transform="translate(558.496094 0)"/>
     </g>
    </g>
   </g>
   <g id="text_7">
    <g clip-path="url(#p3a2785b3fe)">
     <!-- diplomacy -->
     <g transform="translate(77.301375 460.482615) scale(0.08 -0.08)">
      <defs>
       <path id="DejaVuSans-64" d="M 2906 2969 
L 2906 4863 
L 3481 4863 
L 3481 0 
L 2906 0 
L 2906 525 
Q 2725 213 2448 61 
Q 2172 -91 1784 -91 
Q 1150 -91 751 415 
Q 353 922 353 1747 
Q 353 2572 751 3078 
Q 1150 3584 1784 3584 
Q 2172 3584 2448 3432 
Q 2725 3281 2906 2969 
z
M 947 1747 
Q 947 1113 1208 752 
Q 1469 391 1925 391 
Q 2381 391 2643 752 
Q 2906 1113 2906 1747 
Q 2906 2381 2643 2742 
Q 2381 3103 1925 3103 
Q 1469 3103 1208 2742 
Q 947 2381 947 1747 
z
" transform="scale(0.015625)"/>
       <path id="DejaVuSans-70" d="M 1159 525 
L 1159 -1331 
L 581 -1331 
L 581 3500 
L 1159 3500 
L 1159 2969 
Q 1341 3281 1617 3432 
Q 1894 3584 2278 3584 
Q 2916 3584 3314 3078 
Q 3713 2572 3713 1747 
Q 3713 922 3314 415 
Q 2916 -91 2278 -91 
Q 1894 -91 1617 61 
Q 1341 213 1159 525 
z
M 3116 1747 
Q 3116 2381 2855 2742 
Q 2594 3103 2138 3103 
Q 1681 3103 1420 2742 
Q 1159 2381 1159 1747 
Q 1159 1113 1420 752 
Q 1681 391 2138 391 
Q 2594 391 2855 752 
Q 3116 1113 3116 1747 
z
" transform="scale(0.015625)"/>
       <path id="DejaVuSans-6d" d="M 3328 2828 
Q 3544 3216 3844 3400 
Q 4144 3584 4550 3584 
Q 5097 3584 5394 3201 
Q 5691 2819 5691 2113 
L 5691 0 
L 5113 0 
L 5113 2094 
Q 5113 2597 4934 2840 
Q 4756 3084 4391 3084 
Q 3944 3084 3684 2787 
Q 3425 2491 3425 1978 
L 3425 0 
L 2847 0 
L 2847 2094 
Q 2847 2600 2669 2842 
Q 2491 3084 2119 3084 
Q 1678 3084 1418 2786 
Q 1159 2488 1159 1978 
L 1159 0 
L 581 0 
L 581 3500 
L 1159 3500 
L 1159 2956 
Q 1356 3278 1631 3431 
Q 1906 3584 2284 3584 
Q 2666 3584 2933 3390 
Q 3200 3197 3328 2828 
z
" transform="scale(0.015625)"/>
       <path id="DejaVuSans-79" d="M 2059 -325 
Q 1816 -950 1584 -1140 
Q 1353 -1331 966 -1331 
L 506 -1331 
L 506 -850 
L 844 -850 
Q 1081 -850 1212 -737 
Q 1344 -625 1503 -206 
L 1606 56 
L 191 3500 
L 800 3500 
L 1894 763 
L 2988 3500 
L 3597 3500 
L 2059 -325 
z
" transform="scale(0.015625)"/>
      </defs>
      <use xlink:href="#DejaVuSans-64"/>
      <use xlink:href="#DejaVuSans-69" transform="translate(63.476562 0)"/>
      <use xlink:href="#DejaVuSans-70" transform="translate(91.259766 0)"/>
      <use xlink:href="#DejaVuSans-6c" transform="translate(154.736328 0)"/>
      <use xlink:href="#DejaVuSans-6f" transform="translate(182.519531 0)"/>
      <use xlink:href="#DejaVuSans-6d" transform="translate(243.701172 0)"/>
      <use xlink:href="#DejaVuSans-61" transform="translate(341.113281 0)"/>
      <use xlink:href="#DejaVuSans-63" transform="translate(402.392578 0)"/>
      <use xlink:href="#DejaVuSans-79" transform="translate(457.373047 0)"/>
     </g>
    </g>
   </g>
   <g id="text_8">
    <g clip-path="url(#p3a2785b3fe)">
     <!-- domain_category -->
     <g transform="translate(45.049315 440.651516) scale(0.08 -0.08)">
      <use xlink:href="#DejaVuSans-64"/>
      <use xlink:href="#DejaVuSans-6f" transform="translate(63.476562 0)"/>
      <use xlink:href="#DejaVuSans-6d" transform="translate(124.658203 0)"/>
      <use xlink:href="#DejaVuSans-61" transform="translate(222.070312 0)"/>
      <use xlink:href="#DejaVuSans-69" transform="translate(283.349609 0)"/>
      <use xlink:href="#DejaVuSans-6e" transform="translate(311.132812 0)"/>
      <use xlink:href="#DejaVuSans-5f" transform="translate(374.511719 0)"/>
      <use xlink:href="#DejaVuSans-63" transform="translate(424.511719 0)"/>
      <use xlink:href="#DejaVuSans-61" transform="translate(479.492188 0)"/>
      <use xlink:href="#DejaVuSans-74" transform="translate(540.771484 0)"/>
      <use xlink:href="#DejaVuSans-65" transform="translate(579.980469 0)"/>
      <use xlink:href="#DejaVuSans-67" transform="translate(641.503906 0)"/>
      <use xlink:href="#DejaVuSans-6f" transform="translate(704.980469 0)"/>
      <use xlink:href="#DejaVuSans-72" transform="translate(766.162109 0)"/>
      <use xlink:href="#DejaVuSans-79" transform="translate(807.275391 0)"/>
     </g>
    </g>
   </g>
   <g id="text_9">
    <g clip-path="url(#p3a2785b3fe)">
     <!-- enrollment -->
     <g transform="translate(21.119453 468.987459) scale(0.08 -0.08)">
      <use xlink:href="#DejaVuSans-65"/>
      <use xlink:href="#DejaVuSans-6e" transform="translate(61.523438 0)"/>
      <use xlink:href="#DejaVuSans-72" transform="translate(124.902344 0)"/>
      <use xlink:href="#DejaVuSans-6f" transform="translate(163.765625 0)"/>
      <use xlink:href="#DejaVuSans-6c" transform="translate(224.947266 0)"/>
      <use xlink:href="#DejaVuSans-6c" transform="translate(252.730469 0)"/>
      <use xlink:href="#DejaVuSans-6d" transform="translate(280.513672 0)"/>
      <use xlink:href="#DejaVuSans-65" transform="translate(377.925781 0)"/>
      <use xlink:href="#DejaVuSans-6e" transform="translate(439.449219 0)"/>
      <use xlink:href="#DejaVuSans-74" transform="translate(502.828125 0)"/>
     </g>
    </g>
   </g>
   <g id="text_10">
    <g clip-path="url(#p3a2785b3fe)">
     <!-- experience -->
     <g transform="translate(65.529067 440.924073) scale(0.08 -0.08)">
      <use xlink:href="#DejaVuSans-65"/>
      <use xlink:href="#DejaVuSans-78" transform="translate(59.773438 0)"/>
      <use xlink:href="#DejaVuSans-70" transform="translate(118.953125 0)"/>
      <use xlink:href="#DejaVuSans-65" transform="translate(182.429688 0)"/>
      <use xlink:href="#DejaVuSans-72" transform="translate(243.953125 0)"/>
      <use xlink:href="#DejaVuSans-69" transform="translate(285.066406 0)"/>
      <use xlink:href="#DejaVuSans-65" transform="translate(312.849609 0)"/>
      <use xlink:href="#DejaVuSans-6e" transform="translate(374.373047 0)"/>
      <use xlink:href="#DejaVuSans-63" transform="translate(437.751953 0)"/>
      <use xlink:href="#DejaVuSans-65" transform="translate(492.732422 0)"/>
     </g>
    </g>
   </g>
   <g id="text_11">
    <g clip-path="url(#p3a2785b3fe)">
     <!-- felicity -->
     <g transform="translate(81.192943 424.002601) scale(0.08 -0.08)">
      <defs>
       <path id="DejaVuSans-66" d="M 2375 4863 
L 2375 4384 
L 1825 4384 
Q 1516 4384 1395 4259 
Q 1275 4134 1275 3809 
L 1275 3500 
L 2222 3500 
L 2222 3053 
L 1275 3053 
L 1275 0 
L 697 0 
L 697 3053 
L 147 3053 
L 147 3500 
L 697 3500 
L 697 3744 
Q 697 4328 969 4595 
Q 1241 4863 1831 4863 
L 2375 4863 
z
" transform="scale(0.015625)"/>
      </defs>
      <use xlink:href="#DejaVuSans-66"/>
      <use xlink:href="#DejaVuSans-65" transform="translate(35.205078 0)"/>
      <use xlink:href="#DejaVuSans-6c" transform="translate(96.728516 0)"/>
      <use xlink:href="#DejaVuSans-69" transform="translate(124.511719 0)"/>
      <use xlink:href="#DejaVuSans-63" transform="translate(152.294922 0)"/>
      <use xlink:href="#DejaVuSans-69" transform="translate(207.275391 0)"/>
      <use xlink:href="#DejaVuSans-74" transform="translate(235.058594 0)"/>
      <use xlink:href="#DejaVuSans-79" transform="translate(274.267578 0)"/>
     </g>
    </g>
   </g>
   <g id="text_12">
    <g clip-path="url(#p3a2785b3fe)">
     <!-- gaia -->
     <g transform="translate(87.371868 470.187523) scale(0.08 -0.08)">
      <use xlink:href="#DejaVuSans-67"/>
      <use xlink:href="#DejaVuSans-61" transform="translate(63.476562 0)"/>
      <use xlink:href="#DejaVuSans-69" transform="translate(124.755859 0)"/>
      <use xlink:href="#DejaVuSans-61" transform="translate(152.539062 0)"/>
     </g>
    </g>
   </g>
   <g id="text_13">
    <g clip-path="url(#p3a2785b3fe)">
     <!-- immutable_mobile -->
     <g transform="translate(76.223345 421.498162) scale(0.08 -0.08)">
      <use xlink:href="#DejaVuSans-69"/>
      <use xlink:href="#DejaVuSans-6d" transform="translate(27.783203 0)"/>
      <use xlink:href="#DejaVuSans-6d" transform="translate(125.195312 0)"/>
      <use xlink:href="#DejaVuSans-75" transform="translate(222.607422 0)"/>
      <use xlink:href="#DejaVuSans-74" transform="translate(285.986328 0)"/>
      <use xlink:href="#DejaVuSans-61" transform="translate(325.195312 0)"/>
      <use xlink:href="#DejaVuSans-62" transform="translate(386.474609 0)"/>
      <use xlink:href="#DejaVuSans-6c" transform="translate(449.951172 0)"/>
      <use xlink:href="#DejaVuSans-65" transform="translate(477.734375 0)"/>
      <use xlink:href="#DejaVuSans-5f" transform="translate(539.257812 0)"/>
      <use xlink:href="#DejaVuSans-6d" transform="translate(589.257812 0)"/>
      <use xlink:href="#DejaVuSans-6f" transform="translate(686.669922 0)"/>
      <use xlink:href="#DejaVuSans-62" transform="translate(747.851562 0)"/>
      <use xlink:href="#DejaVuSans-69" transform="translate(811.328125 0)"/>
      <use xlink:href="#DejaVuSans-6c" transform="translate(839.111328 0)"/>
      <use xlink:href="#DejaVuSans-65" transform="translate(866.894531 0)"/>
     </g>
    </g>
   </g>
   <g id="text_14">
    <g clip-path="url(#p3a2785b3fe)">
     <!-- inscription -->
     <g transform="translate(55.730588 404.333435) scale(0.08 -0.08)">
      <use xlink:href="#DejaVuSans-69"/>
      <use xlink:href="#DejaVuSans-6e" transform="translate(27.783203 0)"/>
      <use xlink:href="#DejaVuSans-73" transform="translate(91.162109 0)"/>
      <use xlink:href="#DejaVuSans-63" transform="translate(143.261719 0)"/>
      <use xlink:href="#DejaVuSans-72" transform="translate(198.242188 0)"/>
      <use xlink:href="#DejaVuSans-69" transform="translate(239.355469 0)"/>
      <use xlink:href="#DejaVuSans-70" transform="translate(267.138672 0)"/>
      <use xlink:href="#DejaVuSans-74" transform="translate(330.615234 0)"/>
      <use xlink:href="#DejaVuSans-69" transform="translate(369.824219 0)"/>
      <use xlink:href="#DejaVuSans-6f" transform="translate(397.607422 0)"/>
      <use xlink:href="#DejaVuSans-6e" transform="translate(458.789062 0)"/>
     </g>
    </g>
   </g>
   <g id="text_15">
    <g clip-path="url(#p3a2785b3fe)">
     <!-- institution -->
     <g transform="translate(70.067078 450.096435) scale(0.08 -0.08)">
      <use xlink:href="#DejaVuSans-69"/>
      <use xlink:href="#DejaVuSans-6e" transform="translate(27.783203 0)"/>
      <use xlink:href="#DejaVuSans-73" transform="translate(91.162109 0)"/>
      <use xlink:href="#DejaVuSans-74" transform="translate(143.261719 0)"/>
      <use xlink:href="#DejaVuSans-69" transform="translate(182.470703 0)"/>
      <use xlink:href="#DejaVuSans-74" transform="translate(210.253906 0)"/>
      <use xlink:href="#DejaVuSans-75" transform="translate(249.462891 0)"/>
      <use xlink:href="#DejaVuSans-74" transform="translate(312.841797 0)"/>
      <use xlink:href="#DejaVuSans-69" transform="translate(352.050781 0)"/>
      <use xlink:href="#DejaVuSans-6f" transform="translate(379.833984 0)"/>
      <use xlink:href="#DejaVuSans-6e" transform="translate(441.015625 0)"/>
     </g>
    </g>
   </g>
   <g id="text_16">
    <g clip-path="url(#p3a2785b3fe)">
     <!-- militar -->
     <g transform="translate(67.308362 457.944073) scale(0.08 -0.08)">
      <use xlink:href="#DejaVuSans-6d"/>
      <use xlink:href="#DejaVuSans-69" transform="translate(97.412109 0)"/>
      <use xlink:href="#DejaVuSans-6c" transform="translate(125.195312 0)"/>
      <use xlink:href="#DejaVuSans-69" transform="translate(152.978516 0)"/>
      <use xlink:href="#DejaVuSans-74" transform="translate(180.761719 0)"/>
      <use xlink:href="#DejaVuSans-61" transform="translate(219.970703 0)"/>
      <use xlink:href="#DejaVuSans-72" transform="translate(281.25 0)"/>
     </g>
    </g>
   </g>
   <g id="text_17">
    <g clip-path="url(#p3a2785b3fe)">
     <!-- moderns -->
     <g transform="translate(66.069689 448.957007) scale(0.08 -0.08)">
      <use xlink:href="#DejaVuSans-6d"/>
      <use xlink:href="#DejaVuSans-6f" transform="translate(97.412109 0)"/>
      <use xlink:href="#DejaVuSans-64" transform="translate(158.59375 0)"/>
      <use xlink:href="#DejaVuSans-65" transform="translate(222.070312 0)"/>
      <use xlink:href="#DejaVuSans-72" transform="translate(283.59375 0)"/>
      <use xlink:href="#DejaVuSans-6e" transform="translate(322.957031 0)"/>
      <use xlink:href="#DejaVuSans-73" transform="translate(386.335938 0)"/>
     </g>
    </g>
   </g>
   <g id="text_18">
    <g clip-path="url(#p3a2785b3fe)">
     <!-- modes_of_existence -->
     <g transform="translate(52.520103 439.951475) scale(0.08 -0.08)">
      <use xlink:href="#DejaVuSans-6d"/>
      <use xlink:href="#DejaVuSans-6f" transform="translate(97.412109 0)"/>
      <use xlink:href="#DejaVuSans-64" transform="translate(158.59375 0)"/>
      <use xlink:href="#DejaVuSans-65" transform="translate(222.070312 0)"/>
      <use xlink:href="#DejaVuSans-73" transform="translate(283.59375 0)"/>
      <use xlink:href="#DejaVuSans-5f" transform="translate(335.693359 0)"/>
      <use xlink:href="#DejaVuSans-6f" transform="translate(385.693359 0)"/>
      <use xlink:href="#DejaVuSans-66" transform="translate(446.875 0)"/>
      <use xlink:href="#DejaVuSans-5f" transform="translate(482.080078 0)"/>
      <use xlink:href="#DejaVuSans-65" transform="translate(532.080078 0)"/>
      <use xlink:href="#DejaVuSans-78" transform="translate(591.853516 0)"/>
      <use xlink:href="#DejaVuSans-69" transform="translate(651.033203 0)"/>
      <use xlink:href="#DejaVuSans-73" transform="translate(678.816406 0)"/>
      <use xlink:href="#DejaVuSans-74" transform="translate(730.916016 0)"/>
      <use xlink:href="#DejaVuSans-65" transform="translate(770.125 0)"/>
      <use xlink:href="#DejaVuSans-6e" transform="translate(831.648438 0)"/>
      <use xlink:href="#DejaVuSans-63" transform="translate(895.027344 0)"/>
      <use xlink:href="#DejaVuSans-65" transform="translate(950.007812 0)"/>
     </g>
    </g>
   </g>
   <g id="text_19">
    <g clip-path="url(#p3a2785b3fe)">
     <!-- network -->
     <g transform="translate(58.508722 440.613606) scale(0.08 -0.08)">
      <use xlink:href="#DejaVuSans-6e"/>
      <use xlink:href="#DejaVuSans-65" transform="translate(63.378906 0)"/>
      <use xlink:href="#DejaVuSans-74" transform="translate(124.902344 0)"/>
      <use xlink:href="#DejaVuSans-77" transform="translate(164.111328 0)"/>
      <use xlink:href="#DejaVuSans-6f" transform="translate(245.898438 0)"/>
      <use xlink:href="#DejaVuSans-72" transform="translate(307.080078 0)"/>
      <use xlink:href="#DejaVuSans-6b" transform="translate(348.193359 0)"/>
     </g>
    </g>
   </g>
   <g id="text_20">
    <g clip-path="url(#p3a2785b3fe)">
     <!-- preposition -->
     <g transform="translate(49.432899 427.681781) scale(0.08 -0.08)">
      <use xlink:href="#DejaVuSans-70"/>
      <use xlink:href="#DejaVuSans-72" transform="translate(63.476562 0)"/>
      <use xlink:href="#DejaVuSans-65" transform="translate(102.339844 0)"/>
      <use xlink:href="#DejaVuSans-70" transform="translate(163.863281 0)"/>
      <use xlink:href="#DejaVuSans-6f" transform="translate(227.339844 0)"/>
      <use xlink:href="#DejaVuSans-73" transform="translate(288.521484 0)"/>
      <use xlink:href="#DejaVuSans-69" transform="translate(340.621094 0)"/>
      <use xlink:href="#DejaVuSans-74" transform="translate(368.404297 0)"/>
      <use xlink:href="#DejaVuSans-69" transform="translate(407.613281 0)"/>
      <use xlink:href="#DejaVuSans-6f" transform="translate(435.396484 0)"/>
      <use xlink:href="#DejaVuSans-6e" transform="translate(496.578125 0)"/>
     </g>
    </g>
   </g>
   <g id="text_21">
    <g clip-path="url(#p3a2785b3fe)">
     <!-- proposition -->
     <g transform="translate(29.310678 416.057333) scale(0.08 -0.08)">
      <use xlink:href="#DejaVuSans-70"/>
      <use xlink:href="#DejaVuSans-72" transform="translate(63.476562 0)"/>
      <use xlink:href="#DejaVuSans-6f" transform="translate(102.339844 0)"/>
      <use xlink:href="#DejaVuSans-70" transform="translate(163.521484 0)"/>
      <use xlink:href="#DejaVuSans-6f" transform="translate(226.998047 0)"/>
      <use xlink:href="#DejaVuSans-73" transform="translate(288.179688 0)"/>
      <use xlink:href="#DejaVuSans-69" transform="translate(340.279297 0)"/>
      <use xlink:href="#DejaVuSans-74" transform="translate(368.0625 0)"/>
      <use xlink:href="#DejaVuSans-69" transform="translate(407.271484 0)"/>
      <use xlink:href="#DejaVuSans-6f" transform="translate(435.054688 0)"/>
      <use xlink:href="#DejaVuSans-6e" transform="translate(496.236328 0)"/>
     </g>
    </g>
   </g>
   <g id="text_22">
    <g clip-path="url(#p3a2785b3fe)">
     <!-- textil -->
     <g transform="translate(63.602274 437.010614) scale(0.08 -0.08)">
      <use xlink:href="#DejaVuSans-74"/>
      <use xlink:href="#DejaVuSans-65" transform="translate(39.208984 0)"/>
      <use xlink:href="#DejaVuSans-78" transform="translate(98.982422 0)"/>
      <use xlink:href="#DejaVuSans-74" transform="translate(158.162109 0)"/>
      <use xlink:href="#DejaVuSans-69" transform="translate(197.371094 0)"/>
      <use xlink:href="#DejaVuSans-6c" transform="translate(225.154297 0)"/>
     </g>
    </g>
   </g>
   <g id="text_23">
    <g clip-path="url(#p3a2785b3fe)">
     <!-- topologia -->
     <g transform="translate(63.743865 435.870457) scale(0.08 -0.08)">
      <use xlink:href="#DejaVuSans-74"/>
      <use xlink:href="#DejaVuSans-6f" transform="translate(39.208984 0)"/>
      <use xlink:href="#DejaVuSans-70" transform="translate(100.390625 0)"/>
      <use xlink:href="#DejaVuSans-6f" transform="translate(163.867188 0)"/>
      <use xlink:href="#DejaVuSans-6c" transform="translate(225.048828 0)"/>
      <use xlink:href="#DejaVuSans-6f" transform="translate(252.832031 0)"/>
      <use xlink:href="#DejaVuSans-67" transform="translate(314.013672 0)"/>
      <use xlink:href="#DejaVuSans-69" transform="translate(377.490234 0)"/>
      <use xlink:href="#DejaVuSans-61" transform="translate(405.273438 0)"/>
     </g>
    </g>
   </g>
   <g id="text_24">
    <g clip-path="url(#p3a2785b3fe)">
     <!-- trajectory_pass -->
     <g transform="translate(54.816071 431.716898) scale(0.08 -0.08)">
      <defs>
       <path id="DejaVuSans-6a" d="M 603 3500 
L 1178 3500 
L 1178 -63 
Q 1178 -731 923 -1031 
Q 669 -1331 103 -1331 
L -116 -1331 
L -116 -844 
L 38 -844 
Q 366 -844 484 -692 
Q 603 -541 603 -63 
L 603 3500 
z
M 603 4863 
L 1178 4863 
L 1178 4134 
L 603 4134 
L 603 4863 
z
" transform="scale(0.015625)"/>
      </defs>
      <use xlink:href="#DejaVuSans-74"/>
      <use xlink:href="#DejaVuSans-72" transform="translate(39.208984 0)"/>
      <use xlink:href="#DejaVuSans-61" transform="translate(80.322266 0)"/>
      <use xlink:href="#DejaVuSans-6a" transform="translate(141.601562 0)"/>
      <use xlink:href="#DejaVuSans-65" transform="translate(169.384766 0)"/>
      <use xlink:href="#DejaVuSans-63" transform="translate(230.908203 0)"/>
      <use xlink:href="#DejaVuSans-74" transform="translate(285.888672 0)"/>
      <use xlink:href="#DejaVuSans-6f" transform="translate(325.097656 0)"/>
      <use xlink:href="#DejaVuSans-72" transform="translate(386.279297 0)"/>
      <use xlink:href="#DejaVuSans-79" transform="translate(427.392578 0)"/>
      <use xlink:href="#DejaVuSans-5f" transform="translate(486.572266 0)"/>
      <use xlink:href="#DejaVuSans-70" transform="translate(536.572266 0)"/>
      <use xlink:href="#DejaVuSans-61" transform="translate(600.048828 0)"/>
      <use xlink:href="#DejaVuSans-73" transform="translate(661.328125 0)"/>
      <use xlink:href="#DejaVuSans-73" transform="translate(713.427734 0)"/>
     </g>
    </g>
   </g>
   <g id="text_25">
    <g clip-path="url(#p3a2785b3fe)">
     <!-- translation -->
     <g transform="translate(41.371194 457.42805) scale(0.08 -0.08)">
      <use xlink:href="#DejaVuSans-74"/>
      <use xlink:href="#DejaVuSans-72" transform="translate(39.208984 0)"/>
      <use xlink:href="#DejaVuSans-61" transform="translate(80.322266 0)"/>
      <use xlink:href="#DejaVuSans-6e" transform="translate(141.601562 0)"/>
      <use xlink:href="#DejaVuSans-73" transform="translate(204.980469 0)"/>
      <use xlink:href="#DejaVuSans-6c" transform="translate(257.080078 0)"/>
      <use xlink:href="#DejaVuSans-61" transform="translate(284.863281 0)"/>
      <use xlink:href="#DejaVuSans-74" transform="translate(346.142578 0)"/>
      <use xlink:href="#DejaVuSans-69" transform="translate(385.351562 0)"/>
      <use xlink:href="#DejaVuSans-6f" transform="translate(413.134766 0)"/>
      <use xlink:href="#DejaVuSans-6e" transform="translate(474.316406 0)"/>
     </g>
    </g>
   </g>
   <g id="text_26">
    <g clip-path="url(#p3a2785b3fe)">
     <!-- values -->
     <g transform="translate(56.991813 417.055587) scale(0.08 -0.08)">
      <defs>
       <path id="DejaVuSans-76" d="M 191 3500 
L 800 3500 
L 1894 563 
L 2988 3500 
L 3597 3500 
L 2284 0 
L 1503 0 
L 191 3500 
z
" transform="scale(0.015625)"/>
      </defs>
      <use xlink:href="#DejaVuSans-76"/>
      <use xlink:href="#DejaVuSans-61" transform="translate(59.179688 0)"/>
      <use xlink:href="#DejaVuSans-6c" transform="translate(120.458984 0)"/>
      <use xlink:href="#DejaVuSans-75" transform="translate(148.242188 0)"/>
      <use xlink:href="#DejaVuSans-65" transform="translate(211.621094 0)"/>
      <use xlink:href="#DejaVuSans-73" transform="translate(273.144531 0)"/>
     </g>
    </g>
   </g>
  </g>
 </g>
 <defs>
  <clipPath id="p3a2785b3fe">
   <rect x="10.8" y="10.8" width="626.4" height="482.4"/>
  </clipPath>
 </defs>
</svg>
