<?xml version="1.0" encoding="utf-8" standalone="no"?>
<!DOCTYPE svg PUBLIC "-//W3C//DTD SVG 1.1//EN"
  "http://www.w3.org/Graphics/SVG/1.1/DTD/svg11.dtd">
<svg xmlns:xlink="http://www.w3.org/1999/xlink" width="648pt" height="504pt" viewBox="0 0 648 504" xmlns="http://www.w3.org/2000/svg" version="1.1">
 <metadata>
  <rdf:RDF xmlns:dc="http://purl.org/dc/elements/1.1/" xmlns:cc="http://creativecommons.org/ns#" xmlns:rdf="http://www.w3.org/1999/02/22-rdf-syntax-ns#">
   <cc:Work>
    <dc:type rdf:resource="http://purl.org/dc/dcmitype/StillImage"/>
    <dc:date>2026-05-24T23:05:08.480546</dc:date>
    <dc:format>image/svg+xml</dc:format>
    <dc:creator>
     <cc:Agent>
      <dc:title>Matplotlib v3.10.9, https://matplotlib.org/</dc:title>
     </cc:Agent>
    </dc:creator>
   </cc:Work>
  </rdf:RDF>
 </metadata>
 <defs>
  <style type="text/css">*{stroke-linejoin: round; stroke-linecap: butt}</style>
 </defs>
 <g id="figure_1">
  <g id="patch_1">
   <path d="M 0 504 
L 648 504 
L 648 0 
L 0 0 
z
" style="fill: #ffffff"/>
  </g>
  <g id="axes_1">
   <g id="LineCollection_1">
    <path d="M 341.816348 54.466289 
L 395.181966 144.10041 
" clip-path="url(#pab52a359d4)" style="fill: none; stroke: #000000; stroke-opacity: 0.45; stroke-width: 1.348683"/>
    <path d="M 341.816348 54.466289 
L 322.81034 184.553922 
" clip-path="url(#pab52a359d4)" style="fill: none; stroke: #000000; stroke-opacity: 0.45; stroke-width: 1.958846"/>
    <path d="M 341.816348 54.466289 
L 316.981081 211.2836 
" clip-path="url(#pab52a359d4)" style="fill: none; stroke: #000000; stroke-opacity: 0.45; stroke-width: 1.561895"/>
    <path d="M 341.816348 54.466289 
L 307.891685 241.601096 
" clip-path="url(#pab52a359d4)" style="fill: none; stroke: #000000; stroke-opacity: 0.45; stroke-width: 1.07082"/>
    <path d="M 341.816348 54.466289 
L 290.975238 155.568981 
" clip-path="url(#pab52a359d4)" style="fill: none; stroke: #000000; stroke-opacity: 0.45; stroke-width: 1.134847"/>
    <path d="M 341.816348 54.466289 
L 310.615444 288.01241 
" clip-path="url(#pab52a359d4)" style="fill: none; stroke: #000000; stroke-opacity: 0.45; stroke-width: 1.193725"/>
    <path d="M 341.816348 54.466289 
L 368.230641 256.837534 
" clip-path="url(#pab52a359d4)" style="fill: none; stroke: #000000; stroke-opacity: 0.45; stroke-width: 0.7"/>
    <path d="M 341.816348 54.466289 
L 277.916693 214.576028 
" clip-path="url(#pab52a359d4)" style="fill: none; stroke: #000000; stroke-opacity: 0.45; stroke-width: 0.7"/>
    <path d="M 341.816348 54.466289 
L 245.318029 227.49082 
" clip-path="url(#pab52a359d4)" style="fill: none; stroke: #000000; stroke-opacity: 0.45; stroke-width: 0.824264"/>
    <path d="M 582.842975 65.790656 
L 368.230641 256.837534 
" clip-path="url(#pab52a359d4)" style="fill: none; stroke: #000000; stroke-opacity: 0.45; stroke-width: 0.7"/>
    <path d="M 582.842975 65.790656 
L 395.181966 144.10041 
" clip-path="url(#pab52a359d4)" style="fill: none; stroke: #000000; stroke-opacity: 0.45; stroke-width: 1.134847"/>
    <path d="M 582.842975 65.790656 
L 322.81034 184.553922 
" clip-path="url(#pab52a359d4)" style="fill: none; stroke: #000000; stroke-opacity: 0.45; stroke-width: 0.7"/>
    <path d="M 582.842975 65.790656 
L 316.981081 211.2836 
" clip-path="url(#pab52a359d4)" style="fill: none; stroke: #000000; stroke-opacity: 0.45"/>
    <path d="M 582.842975 65.790656 
L 307.891685 241.601096 
" clip-path="url(#pab52a359d4)" style="fill: none; stroke: #000000; stroke-opacity: 0.45; stroke-width: 0.7"/>
    <path d="M 582.842975 65.790656 
L 277.916693 214.576028 
" clip-path="url(#pab52a359d4)" style="fill: none; stroke: #000000; stroke-opacity: 0.45; stroke-width: 0.7"/>
    <path d="M 290.975238 155.568981 
L 245.318029 227.49082 
" clip-path="url(#pab52a359d4)" style="fill: none; stroke: #000000; stroke-opacity: 0.45; stroke-width: 2.320937"/>
    <path d="M 290.975238 155.568981 
L 322.81034 184.553922 
" clip-path="url(#pab52a359d4)" style="fill: none; stroke: #000000; stroke-opacity: 0.45; stroke-width: 4.098648"/>
    <path d="M 290.975238 155.568981 
L 277.916693 214.576028 
" clip-path="url(#pab52a359d4)" style="fill: none; stroke: #000000; stroke-opacity: 0.45; stroke-width: 1.636932"/>
    <path d="M 290.975238 155.568981 
L 231.541304 321.566891 
" clip-path="url(#pab52a359d4)" style="fill: none; stroke: #000000; stroke-opacity: 0.45; stroke-width: 1.134847"/>
    <path d="M 290.975238 155.568981 
L 316.981081 211.2836 
" clip-path="url(#pab52a359d4)" style="fill: none; stroke: #000000; stroke-opacity: 0.45; stroke-width: 3.149545"/>
    <path d="M 290.975238 155.568981 
L 310.615444 288.01241 
" clip-path="url(#pab52a359d4)" style="fill: none; stroke: #000000; stroke-opacity: 0.45; stroke-width: 2.015549"/>
    <path d="M 290.975238 155.568981 
L 307.891685 241.601096 
" clip-path="url(#pab52a359d4)" style="fill: none; stroke: #000000; stroke-opacity: 0.45; stroke-width: 2.2"/>
    <path d="M 290.975238 155.568981 
L 438.385003 205.589668 
" clip-path="url(#pab52a359d4)" style="fill: none; stroke: #000000; stroke-opacity: 0.45; stroke-width: 1.134847"/>
    <path d="M 290.975238 155.568981 
L 395.181966 144.10041 
" clip-path="url(#pab52a359d4)" style="fill: none; stroke: #000000; stroke-opacity: 0.45; stroke-width: 1.394987"/>
    <path d="M 290.975238 155.568981 
L 368.230641 256.837534 
" clip-path="url(#pab52a359d4)" style="fill: none; stroke: #000000; stroke-opacity: 0.45; stroke-width: 1.07082"/>
    <path d="M 290.975238 155.568981 
L 227.327757 164.696717 
" clip-path="url(#pab52a359d4)" style="fill: none; stroke: #000000; stroke-opacity: 0.45; stroke-width: 1.741641"/>
    <path d="M 290.975238 155.568981 
L 367.153778 451.338843 
" clip-path="url(#pab52a359d4)" style="fill: none; stroke: #000000; stroke-opacity: 0.45; stroke-width: 0.7"/>
    <path d="M 231.541304 321.566891 
L 245.318029 227.49082 
" clip-path="url(#pab52a359d4)" style="fill: none; stroke: #000000; stroke-opacity: 0.45; stroke-width: 1.07082"/>
    <path d="M 231.541304 321.566891 
L 322.81034 184.553922 
" clip-path="url(#pab52a359d4)" style="fill: none; stroke: #000000; stroke-opacity: 0.45; stroke-width: 1.561895"/>
    <path d="M 231.541304 321.566891 
L 277.916693 214.576028 
" clip-path="url(#pab52a359d4)" style="fill: none; stroke: #000000; stroke-opacity: 0.45; stroke-width: 1.774773"/>
    <path d="M 231.541304 321.566891 
L 316.981081 211.2836 
" clip-path="url(#pab52a359d4)" style="fill: none; stroke: #000000; stroke-opacity: 0.45; stroke-width: 2.015549"/>
    <path d="M 231.541304 321.566891 
L 307.891685 241.601096 
" clip-path="url(#pab52a359d4)" style="fill: none; stroke: #000000; stroke-opacity: 0.45; stroke-width: 1.193725"/>
    <path d="M 231.541304 321.566891 
L 368.230641 256.837534 
" clip-path="url(#pab52a359d4)" style="fill: none; stroke: #000000; stroke-opacity: 0.45; stroke-width: 1.348683"/>
    <path d="M 231.541304 321.566891 
L 395.181966 144.10041 
" clip-path="url(#pab52a359d4)" style="fill: none; stroke: #000000; stroke-opacity: 0.45; stroke-width: 0.7"/>
    <path d="M 231.541304 321.566891 
L 310.615444 288.01241 
" clip-path="url(#pab52a359d4)" style="fill: none; stroke: #000000; stroke-opacity: 0.45"/>
    <path d="M 231.541304 321.566891 
L 227.327757 164.696717 
" clip-path="url(#pab52a359d4)" style="fill: none; stroke: #000000; stroke-opacity: 0.45; stroke-width: 0.7"/>
    <path d="M 310.615444 288.01241 
L 322.81034 184.553922 
" clip-path="url(#pab52a359d4)" style="fill: none; stroke: #000000; stroke-opacity: 0.45; stroke-width: 2.704344"/>
    <path d="M 310.615444 288.01241 
L 316.981081 211.2836 
" clip-path="url(#pab52a359d4)" style="fill: none; stroke: #000000; stroke-opacity: 0.45; stroke-width: 2.478461"/>
    <path d="M 310.615444 288.01241 
L 277.916693 214.576028 
" clip-path="url(#pab52a359d4)" style="fill: none; stroke: #000000; stroke-opacity: 0.45; stroke-width: 1.774773"/>
    <path d="M 310.615444 288.01241 
L 368.230641 256.837534 
" clip-path="url(#pab52a359d4)" style="fill: none; stroke: #000000; stroke-opacity: 0.45; stroke-width: 1.522497"/>
    <path d="M 310.615444 288.01241 
L 307.891685 241.601096 
" clip-path="url(#pab52a359d4)" style="fill: none; stroke: #000000; stroke-opacity: 0.45; stroke-width: 1.394987"/>
    <path d="M 310.615444 288.01241 
L 395.181966 144.10041 
" clip-path="url(#pab52a359d4)" style="fill: none; stroke: #000000; stroke-opacity: 0.45; stroke-width: 0.919615"/>
    <path d="M 310.615444 288.01241 
L 438.385003 205.589668 
" clip-path="url(#pab52a359d4)" style="fill: none; stroke: #000000; stroke-opacity: 0.45; stroke-width: 0.7"/>
    <path d="M 310.615444 288.01241 
L 227.327757 164.696717 
" clip-path="url(#pab52a359d4)" style="fill: none; stroke: #000000; stroke-opacity: 0.45; stroke-width: 1.43923"/>
    <path d="M 310.615444 288.01241 
L 245.318029 227.49082 
" clip-path="url(#pab52a359d4)" style="fill: none; stroke: #000000; stroke-opacity: 0.45; stroke-width: 1.807125"/>
    <path d="M 310.615444 288.01241 
L 367.153778 451.338843 
" clip-path="url(#pab52a359d4)" style="fill: none; stroke: #000000; stroke-opacity: 0.45"/>
    <path d="M 227.327757 164.696717 
L 322.81034 184.553922 
" clip-path="url(#pab52a359d4)" style="fill: none; stroke: #000000; stroke-opacity: 0.45; stroke-width: 2.563331"/>
    <path d="M 227.327757 164.696717 
L 245.318029 227.49082 
" clip-path="url(#pab52a359d4)" style="fill: none; stroke: #000000; stroke-opacity: 0.45; stroke-width: 2.320937"/>
    <path d="M 227.327757 164.696717 
L 316.981081 211.2836 
" clip-path="url(#pab52a359d4)" style="fill: none; stroke: #000000; stroke-opacity: 0.45; stroke-width: 2.389975"/>
    <path d="M 227.327757 164.696717 
L 307.891685 241.601096 
" clip-path="url(#pab52a359d4)" style="fill: none; stroke: #000000; stroke-opacity: 0.45; stroke-width: 1.987451"/>
    <path d="M 227.327757 164.696717 
L 395.181966 144.10041 
" clip-path="url(#pab52a359d4)" style="fill: none; stroke: #000000; stroke-opacity: 0.45; stroke-width: 0.824264"/>
    <path d="M 227.327757 164.696717 
L 277.916693 214.576028 
" clip-path="url(#pab52a359d4)" style="fill: none; stroke: #000000; stroke-opacity: 0.45; stroke-width: 1.70767"/>
    <path d="M 227.327757 164.696717 
L 368.230641 256.837534 
" clip-path="url(#pab52a359d4)" style="fill: none; stroke: #000000; stroke-opacity: 0.45; stroke-width: 0.824264"/>
    <path d="M 367.153778 451.338843 
L 316.981081 211.2836 
" clip-path="url(#pab52a359d4)" style="fill: none; stroke: #000000; stroke-opacity: 0.45; stroke-width: 1.3"/>
    <path d="M 367.153778 451.338843 
L 277.916693 214.576028 
" clip-path="url(#pab52a359d4)" style="fill: none; stroke: #000000; stroke-opacity: 0.45"/>
    <path d="M 367.153778 451.338843 
L 322.81034 184.553922 
" clip-path="url(#pab52a359d4)" style="fill: none; stroke: #000000; stroke-opacity: 0.45; stroke-width: 0.824264"/>
    <path d="M 367.153778 451.338843 
L 368.230641 256.837534 
" clip-path="url(#pab52a359d4)" style="fill: none; stroke: #000000; stroke-opacity: 0.45"/>
    <path d="M 367.153778 451.338843 
L 245.318029 227.49082 
" clip-path="url(#pab52a359d4)" style="fill: none; stroke: #000000; stroke-opacity: 0.45; stroke-width: 0.7"/>
    <path d="M 368.230641 256.837534 
L 316.981081 211.2836 
" clip-path="url(#pab52a359d4)" style="fill: none; stroke: #000000; stroke-opacity: 0.45; stroke-width: 3.149545"/>
    <path d="M 368.230641 256.837534 
L 322.81034 184.553922 
" clip-path="url(#pab52a359d4)" style="fill: none; stroke: #000000; stroke-opacity: 0.45; stroke-width: 2.945584"/>
    <path d="M 368.230641 256.837534 
L 395.181966 144.10041 
" clip-path="url(#pab52a359d4)" style="fill: none; stroke: #000000; stroke-opacity: 0.45; stroke-width: 1.6"/>
    <path d="M 368.230641 256.837534 
L 438.385003 205.589668 
" clip-path="url(#pab52a359d4)" style="fill: none; stroke: #000000; stroke-opacity: 0.45; stroke-width: 1.348683"/>
    <path d="M 368.230641 256.837534 
L 307.891685 241.601096 
" clip-path="url(#pab52a359d4)" style="fill: none; stroke: #000000; stroke-opacity: 0.45; stroke-width: 1.838749"/>
    <path d="M 368.230641 256.837534 
L 277.916693 214.576028 
" clip-path="url(#pab52a359d4)" style="fill: none; stroke: #000000; stroke-opacity: 0.45; stroke-width: 2.097056"/>
    <path d="M 368.230641 256.837534 
L 245.318029 227.49082 
" clip-path="url(#pab52a359d4)" style="fill: none; stroke: #000000; stroke-opacity: 0.45; stroke-width: 1.672792"/>
    <path d="M 322.81034 184.553922 
L 245.318029 227.49082 
" clip-path="url(#pab52a359d4)" style="fill: none; stroke: #000000; stroke-opacity: 0.45; stroke-width: 2.927845"/>
    <path d="M 322.81034 184.553922 
L 277.916693 214.576028 
" clip-path="url(#pab52a359d4)" style="fill: none; stroke: #000000; stroke-opacity: 0.45; stroke-width: 3.369848"/>
    <path d="M 322.81034 184.553922 
L 307.891685 241.601096 
" clip-path="url(#pab52a359d4)" style="fill: none; stroke: #000000; stroke-opacity: 0.45; stroke-width: 4.13497"/>
    <path d="M 322.81034 184.553922 
L 316.981081 211.2836 
" clip-path="url(#pab52a359d4)" style="fill: none; stroke: #000000; stroke-opacity: 0.45; stroke-width: 7.074579"/>
    <path d="M 322.81034 184.553922 
L 438.385003 205.589668 
" clip-path="url(#pab52a359d4)" style="fill: none; stroke: #000000; stroke-opacity: 0.45; stroke-width: 2.273499"/>
    <path d="M 322.81034 184.553922 
L 395.181966 144.10041 
" clip-path="url(#pab52a359d4)" style="fill: none; stroke: #000000; stroke-opacity: 0.45; stroke-width: 2.62486"/>
    <path d="M 322.81034 184.553922 
L 65.157025 52.661157 
" clip-path="url(#pab52a359d4)" style="fill: none; stroke: #000000; stroke-opacity: 0.45; stroke-width: 0.919615"/>
    <path d="M 277.916693 214.576028 
L 245.318029 227.49082 
" clip-path="url(#pab52a359d4)" style="fill: none; stroke: #000000; stroke-opacity: 0.45; stroke-width: 1.672792"/>
    <path d="M 277.916693 214.576028 
L 316.981081 211.2836 
" clip-path="url(#pab52a359d4)" style="fill: none; stroke: #000000; stroke-opacity: 0.45; stroke-width: 6.0921"/>
    <path d="M 277.916693 214.576028 
L 307.891685 241.601096 
" clip-path="url(#pab52a359d4)" style="fill: none; stroke: #000000; stroke-opacity: 0.45; stroke-width: 2.743075"/>
    <path d="M 277.916693 214.576028 
L 395.181966 144.10041 
" clip-path="url(#pab52a359d4)" style="fill: none; stroke: #000000; stroke-opacity: 0.45; stroke-width: 1.3"/>
    <path d="M 277.916693 214.576028 
L 65.157025 52.661157 
" clip-path="url(#pab52a359d4)" style="fill: none; stroke: #000000; stroke-opacity: 0.45; stroke-width: 0.919615"/>
    <path d="M 277.916693 214.576028 
L 438.385003 205.589668 
" clip-path="url(#pab52a359d4)" style="fill: none; stroke: #000000; stroke-opacity: 0.45; stroke-width: 0.7"/>
    <path d="M 65.157025 52.661157 
L 316.981081 211.2836 
" clip-path="url(#pab52a359d4)" style="fill: none; stroke: #000000; stroke-opacity: 0.45; stroke-width: 1.134847"/>
    <path d="M 395.181966 144.10041 
L 316.981081 211.2836 
" clip-path="url(#pab52a359d4)" style="fill: none; stroke: #000000; stroke-opacity: 0.45; stroke-width: 2.604541"/>
    <path d="M 395.181966 144.10041 
L 307.891685 241.601096 
" clip-path="url(#pab52a359d4)" style="fill: none; stroke: #000000; stroke-opacity: 0.45; stroke-width: 1.43923"/>
    <path d="M 395.181966 144.10041 
L 438.385003 205.589668 
" clip-path="url(#pab52a359d4)" style="fill: none; stroke: #000000; stroke-opacity: 0.45; stroke-width: 1.807125"/>
    <path d="M 395.181966 144.10041 
L 245.318029 227.49082 
" clip-path="url(#pab52a359d4)" style="fill: none; stroke: #000000; stroke-opacity: 0.45; stroke-width: 0.919615"/>
    <path d="M 307.891685 241.601096 
L 316.981081 211.2836 
" clip-path="url(#pab52a359d4)" style="fill: none; stroke: #000000; stroke-opacity: 0.45; stroke-width: 4.26523"/>
    <path d="M 307.891685 241.601096 
L 438.385003 205.589668 
" clip-path="url(#pab52a359d4)" style="fill: none; stroke: #000000; stroke-opacity: 0.45"/>
    <path d="M 307.891685 241.601096 
L 245.318029 227.49082 
" clip-path="url(#pab52a359d4)" style="fill: none; stroke: #000000; stroke-opacity: 0.45; stroke-width: 1.987451"/>
    <path d="M 316.981081 211.2836 
L 438.385003 205.589668 
" clip-path="url(#pab52a359d4)" style="fill: none; stroke: #000000; stroke-opacity: 0.45; stroke-width: 2.2"/>
    <path d="M 316.981081 211.2836 
L 245.318029 227.49082 
" clip-path="url(#pab52a359d4)" style="fill: none; stroke: #000000; stroke-opacity: 0.45; stroke-width: 3.230194"/>
    <path d="M 245.318029 227.49082 
L 438.385003 205.589668 
" clip-path="url(#pab52a359d4)" style="fill: none; stroke: #000000; stroke-opacity: 0.45; stroke-width: 0.919615"/>
   </g>
   <g id="PathCollection_1">
    <path d="M 341.816348 65.975508 
C 344.868629 65.975508 347.796307 64.762824 349.954595 62.604536 
C 352.112883 60.446247 353.325567 57.51857 353.325567 54.466289 
C 353.325567 51.414009 352.112883 48.486331 349.954595 46.328043 
C 347.796307 44.169754 344.868629 42.95707 341.816348 42.95707 
C 338.764068 42.95707 335.83639 44.169754 333.678102 46.328043 
C 331.519814 48.486331 330.30713 51.414009 330.30713 54.466289 
C 330.30713 57.51857 331.519814 60.446247 333.678102 62.604536 
C 335.83639 64.762824 338.764068 65.975508 341.816348 65.975508 
z
" clip-path="url(#pab52a359d4)" style="fill: #4c72b0; stroke: #ffffff; stroke-width: 1.5"/>
    <path d="M 582.842975 75.277489 
C 585.358913 75.277489 587.772143 74.277896 589.551179 72.498859 
C 591.330216 70.719823 592.329808 68.306593 592.329808 65.790656 
C 592.329808 63.274718 591.330216 60.861488 589.551179 59.082452 
C 587.772143 57.303415 585.358913 56.303823 582.842975 56.303823 
C 580.327038 56.303823 577.913808 57.303415 576.134771 59.082452 
C 574.355735 60.861488 573.356142 63.274718 573.356142 65.790656 
C 573.356142 68.306593 574.355735 70.719823 576.134771 72.498859 
C 577.913808 74.277896 580.327038 75.277489 582.842975 75.277489 
z
" clip-path="url(#pab52a359d4)" style="fill: #4c72b0; stroke: #ffffff; stroke-width: 1.5"/>
    <path d="M 290.975238 172.347441 
C 295.424937 172.347441 299.692988 170.579557 302.839401 167.433144 
C 305.985814 164.286731 307.753698 160.018681 307.753698 155.568981 
C 307.753698 151.119281 305.985814 146.85123 302.839401 143.704818 
C 299.692988 140.558405 295.424937 138.79052 290.975238 138.79052 
C 286.525538 138.79052 282.257487 140.558405 279.111074 143.704818 
C 275.964661 146.85123 274.196777 151.119281 274.196777 155.568981 
C 274.196777 160.018681 275.964661 164.286731 279.111074 167.433144 
C 282.257487 170.579557 286.525538 172.347441 290.975238 172.347441 
z
" clip-path="url(#pab52a359d4)" style="fill: #4c72b0; stroke: #ffffff; stroke-width: 1.5"/>
    <path d="M 231.541304 333.279191 
C 234.647443 333.279191 237.62678 332.045109 239.823151 329.848738 
C 242.019523 327.652366 243.253605 324.673029 243.253605 321.566891 
C 243.253605 318.460752 242.019523 315.481415 239.823151 313.285044 
C 237.62678 311.088672 234.647443 309.854591 231.541304 309.854591 
C 228.435166 309.854591 225.455829 311.088672 223.259457 313.285044 
C 221.063086 315.481415 219.829004 318.460752 219.829004 321.566891 
C 219.829004 324.673029 221.063086 327.652366 223.259457 329.848738 
C 225.455829 332.045109 228.435166 333.279191 231.541304 333.279191 
z
" clip-path="url(#pab52a359d4)" style="fill: #4c72b0; stroke: #ffffff; stroke-width: 1.5"/>
    <path d="M 310.615444 301.998195 
C 314.324518 301.998195 317.882177 300.524565 320.504888 297.901854 
C 323.127599 295.279142 324.60123 291.721483 324.60123 288.01241 
C 324.60123 284.303336 323.127599 280.745677 320.504888 278.122966 
C 317.882177 275.500255 314.324518 274.026624 310.615444 274.026624 
C 306.90637 274.026624 303.348711 275.500255 300.726 278.122966 
C 298.103289 280.745677 296.629658 284.303336 296.629658 288.01241 
C 296.629658 291.721483 298.103289 295.279142 300.726 297.901854 
C 303.348711 300.524565 306.90637 301.998195 310.615444 301.998195 
z
" clip-path="url(#pab52a359d4)" style="fill: #4c72b0; stroke: #ffffff; stroke-width: 1.5"/>
    <path d="M 227.327757 178.212078 
C 230.912073 178.212078 234.350067 176.788014 236.88456 174.25352 
C 239.419054 171.719026 240.843118 168.281032 240.843118 164.696717 
C 240.843118 161.112401 239.419054 157.674407 236.88456 155.139913 
C 234.350067 152.605419 230.912073 151.181355 227.327757 151.181355 
C 223.743441 151.181355 220.305447 152.605419 217.770953 155.139913 
C 215.236459 157.674407 213.812396 161.112401 213.812396 164.696717 
C 213.812396 168.281032 215.236459 171.719026 217.770953 174.25352 
C 220.305447 176.788014 223.743441 178.212078 227.327757 178.212078 
z
" clip-path="url(#pab52a359d4)" style="fill: #4c72b0; stroke: #ffffff; stroke-width: 1.5"/>
    <path d="M 367.153778 460.825676 
C 369.669715 460.825676 372.082945 459.826083 373.861982 458.047047 
C 375.641018 456.26801 376.640611 453.85478 376.640611 451.338843 
C 376.640611 448.822905 375.641018 446.409676 373.861982 444.630639 
C 372.082945 442.851603 369.669715 441.85201 367.153778 441.85201 
C 364.63784 441.85201 362.22461 442.851603 360.445574 444.630639 
C 358.666537 446.409676 357.666945 448.822905 357.666945 451.338843 
C 357.666945 453.85478 358.666537 456.26801 360.445574 458.047047 
C 362.22461 459.826083 364.63784 460.825676 367.153778 460.825676 
z
" clip-path="url(#pab52a359d4)" style="fill: #4c72b0; stroke: #ffffff; stroke-width: 1.5"/>
    <path d="M 368.230641 271.241706 
C 372.050672 271.241706 375.714758 269.723991 378.415928 267.022821 
C 381.117098 264.321652 382.634812 260.657565 382.634812 256.837534 
C 382.634812 253.017503 381.117098 249.353417 378.415928 246.652247 
C 375.714758 243.951077 372.050672 242.433363 368.230641 242.433363 
C 364.41061 242.433363 360.746523 243.951077 358.045353 246.652247 
C 355.344184 249.353417 353.826469 253.017503 353.826469 256.837534 
C 353.826469 260.657565 355.344184 264.321652 358.045353 267.022821 
C 360.746523 269.723991 364.41061 271.241706 368.230641 271.241706 
z
" clip-path="url(#pab52a359d4)" style="fill: #4c72b0; stroke: #ffffff; stroke-width: 1.5"/>
    <path d="M 322.81034 205.453243 
C 328.352904 205.453243 333.669206 203.251158 337.588391 199.331973 
C 341.507576 195.412788 343.70966 190.096487 343.70966 184.553922 
C 343.70966 179.011358 341.507576 173.695056 337.588391 169.775871 
C 333.669206 165.856686 328.352904 163.654602 322.81034 163.654602 
C 317.267775 163.654602 311.951474 165.856686 308.032289 169.775871 
C 304.113104 173.695056 301.911019 179.011358 301.911019 184.553922 
C 301.911019 190.096487 304.113104 195.412788 308.032289 199.331973 
C 311.951474 203.251158 317.267775 205.453243 322.81034 205.453243 
z
" clip-path="url(#pab52a359d4)" style="fill: #4c72b0; stroke: #ffffff; stroke-width: 1.5"/>
    <path d="M 277.916693 231.170863 
C 282.317694 231.170863 286.539035 229.422327 289.651013 226.310348 
C 292.762991 223.19837 294.511528 218.97703 294.511528 214.576028 
C 294.511528 210.175026 292.762991 205.953686 289.651013 202.841707 
C 286.539035 199.729729 282.317694 197.981193 277.916693 197.981193 
C 273.515691 197.981193 269.29435 199.729729 266.182372 202.841707 
C 263.070394 205.953686 261.321858 210.175026 261.321858 214.576028 
C 261.321858 218.97703 263.070394 223.19837 266.182372 226.310348 
C 269.29435 229.422327 273.515691 231.170863 277.916693 231.170863 
z
" clip-path="url(#pab52a359d4)" style="fill: #4c72b0; stroke: #ffffff; stroke-width: 1.5"/>
    <path d="M 65.157025 62.393647 
C 67.738111 62.393647 70.213831 61.36817 72.038934 59.543067 
C 73.864038 57.717963 74.889515 55.242244 74.889515 52.661157 
C 74.889515 50.080071 73.864038 47.604351 72.038934 45.779247 
C 70.213831 43.954144 67.738111 42.928667 65.157025 42.928667 
C 62.575938 42.928667 60.100219 43.954144 58.275115 45.779247 
C 56.450011 47.604351 55.424535 50.080071 55.424535 52.661157 
C 55.424535 55.242244 56.450011 57.717963 58.275115 59.543067 
C 60.100219 61.36817 62.575938 62.393647 65.157025 62.393647 
z
" clip-path="url(#pab52a359d4)" style="fill: #4c72b0; stroke: #ffffff; stroke-width: 1.5"/>
    <path d="M 395.181966 157.725629 
C 398.795417 157.725629 402.261356 156.28999 404.816451 153.734895 
C 407.371546 151.1798 408.807185 147.71386 408.807185 144.10041 
C 408.807185 140.48696 407.371546 137.02102 404.816451 134.465925 
C 402.261356 131.91083 398.795417 130.475191 395.181966 130.475191 
C 391.568516 130.475191 388.102576 131.91083 385.547481 134.465925 
C 382.992386 137.02102 381.556747 140.48696 381.556747 144.10041 
C 381.556747 147.71386 382.992386 151.1798 385.547481 153.734895 
C 388.102576 156.28999 391.568516 157.725629 395.181966 157.725629 
z
" clip-path="url(#pab52a359d4)" style="fill: #4c72b0; stroke: #ffffff; stroke-width: 1.5"/>
    <path d="M 307.891685 257.747707 
C 312.173816 257.747707 316.281139 256.046399 319.309063 253.018474 
C 322.336988 249.99055 324.038296 245.883227 324.038296 241.601096 
C 324.038296 237.318964 322.336988 233.211641 319.309063 230.183717 
C 316.281139 227.155793 312.173816 225.454484 307.891685 225.454484 
C 303.609553 225.454484 299.50223 227.155793 296.474306 230.183717 
C 293.446382 233.211641 291.745073 237.318964 291.745073 241.601096 
C 291.745073 245.883227 293.446382 249.99055 296.474306 253.018474 
C 299.50223 256.046399 303.609553 257.747707 307.891685 257.747707 
z
" clip-path="url(#pab52a359d4)" style="fill: #4c72b0; stroke: #ffffff; stroke-width: 1.5"/>
    <path d="M 316.981081 233.429803 
C 322.854322 233.429803 328.487802 231.09634 332.640811 226.943331 
C 336.79382 222.790321 339.127284 217.156842 339.127284 211.2836 
C 339.127284 205.410358 336.79382 199.776879 332.640811 195.62387 
C 328.487802 191.470861 322.854322 189.137397 316.981081 189.137397 
C 311.107839 189.137397 305.474359 191.470861 301.32135 195.62387 
C 297.168341 199.776879 294.834878 205.410358 294.834878 211.2836 
C 294.834878 217.156842 297.168341 222.790321 301.32135 226.943331 
C 305.474359 231.09634 311.107839 233.429803 316.981081 233.429803 
z
" clip-path="url(#pab52a359d4)" style="fill: #4c72b0; stroke: #ffffff; stroke-width: 1.5"/>
    <path d="M 245.318029 242.545229 
C 249.310504 242.545229 253.139996 240.959001 255.963103 238.135894 
C 258.78621 235.312788 260.372437 231.483296 260.372437 227.49082 
C 260.372437 223.498344 258.78621 219.668852 255.963103 216.845746 
C 253.139996 214.022639 249.310504 212.436412 245.318029 212.436412 
C 241.325553 212.436412 237.496061 214.022639 234.672954 216.845746 
C 231.849847 219.668852 230.26362 223.498344 230.26362 227.49082 
C 230.26362 231.483296 231.849847 235.312788 234.672954 238.135894 
C 237.496061 240.959001 241.325553 242.545229 245.318029 242.545229 
z
" clip-path="url(#pab52a359d4)" style="fill: #4c72b0; stroke: #ffffff; stroke-width: 1.5"/>
    <path d="M 438.385003 217.398255 
C 441.516677 217.398255 444.520507 216.154027 446.734935 213.9396 
C 448.949363 211.725172 450.19359 208.721342 450.19359 205.589668 
C 450.19359 202.457994 448.949363 199.454164 446.734935 197.239736 
C 444.520507 195.025308 441.516677 193.781081 438.385003 193.781081 
C 435.253329 193.781081 432.249499 195.025308 430.035072 197.239736 
C 427.820644 199.454164 426.576417 202.457994 426.576417 205.589668 
C 426.576417 208.721342 427.820644 211.725172 430.035072 213.9396 
C 432.249499 216.154027 435.253329 217.398255 438.385003 217.398255 
z
" clip-path="url(#pab52a359d4)" style="fill: #4c72b0; stroke: #ffffff; stroke-width: 1.5"/>
   </g>
   <g id="text_1">
    <g clip-path="url(#pab52a359d4)">
     <!-- actor_network -->
     <g transform="translate(313.261973 56.562539) scale(0.08 -0.08)">
      <defs>
       <path id="DejaVuSans-61" d="M 2194 1759 
Q 1497 1759 1228 1600 
Q 959 1441 959 1056 
Q 959 750 1161 570 
Q 1363 391 1709 391 
Q 2188 391 2477 730 
Q 2766 1069 2766 1631 
L 2766 1759 
L 2194 1759 
z
M 3341 1997 
L 3341 0 
L 2766 0 
L 2766 531 
Q 2569 213 2275 61 
Q 1981 -91 1556 -91 
Q 1019 -91 701 211 
Q 384 513 384 1019 
Q 384 1609 779 1909 
Q 1175 2209 1959 2209 
L 2766 2209 
L 2766 2266 
Q 2766 2663 2505 2880 
Q 2244 3097 1772 3097 
Q 1472 3097 1187 3025 
Q 903 2953 641 2809 
L 641 3341 
Q 956 3463 1253 3523 
Q 1550 3584 1831 3584 
Q 2591 3584 2966 3190 
Q 3341 2797 3341 1997 
z
" transform="scale(0.015625)"/>
       <path id="DejaVuSans-63" d="M 3122 3366 
L 3122 2828 
Q 2878 2963 2633 3030 
Q 2388 3097 2138 3097 
Q 1578 3097 1268 2742 
Q 959 2388 959 1747 
Q 959 1106 1268 751 
Q 1578 397 2138 397 
Q 2388 397 2633 464 
Q 2878 531 3122 666 
L 3122 134 
Q 2881 22 2623 -34 
Q 2366 -91 2075 -91 
Q 1284 -91 818 406 
Q 353 903 353 1747 
Q 353 2603 823 3093 
Q 1294 3584 2113 3584 
Q 2378 3584 2631 3529 
Q 2884 3475 3122 3366 
z
" transform="scale(0.015625)"/>
       <path id="DejaVuSans-74" d="M 1172 4494 
L 1172 3500 
L 2356 3500 
L 2356 3053 
L 1172 3053 
L 1172 1153 
Q 1172 725 1289 603 
Q 1406 481 1766 481 
L 2356 481 
L 2356 0 
L 1766 0 
Q 1100 0 847 248 
Q 594 497 594 1153 
L 594 3053 
L 172 3053 
L 172 3500 
L 594 3500 
L 594 4494 
L 1172 4494 
z
" transform="scale(0.015625)"/>
       <path id="DejaVuSans-6f" d="M 1959 3097 
Q 1497 3097 1228 2736 
Q 959 2375 959 1747 
Q 959 1119 1226 758 
Q 1494 397 1959 397 
Q 2419 397 2687 759 
Q 2956 1122 2956 1747 
Q 2956 2369 2687 2733 
Q 2419 3097 1959 3097 
z
M 1959 3584 
Q 2709 3584 3137 3096 
Q 3566 2609 3566 1747 
Q 3566 888 3137 398 
Q 2709 -91 1959 -91 
Q 1206 -91 779 398 
Q 353 888 353 1747 
Q 353 2609 779 3096 
Q 1206 3584 1959 3584 
z
" transform="scale(0.015625)"/>
       <path id="DejaVuSans-72" d="M 2631 2963 
Q 2534 3019 2420 3045 
Q 2306 3072 2169 3072 
Q 1681 3072 1420 2755 
Q 1159 2438 1159 1844 
L 1159 0 
L 581 0 
L 581 3500 
L 1159 3500 
L 1159 2956 
Q 1341 3275 1631 3429 
Q 1922 3584 2338 3584 
Q 2397 3584 2469 3576 
Q 2541 3569 2628 3553 
L 2631 2963 
z
" transform="scale(0.015625)"/>
       <path id="DejaVuSans-5f" d="M 3263 -1063 
L 3263 -1509 
L -63 -1509 
L -63 -1063 
L 3263 -1063 
z
" transform="scale(0.015625)"/>
       <path id="DejaVuSans-6e" d="M 3513 2113 
L 3513 0 
L 2938 0 
L 2938 2094 
Q 2938 2591 2744 2837 
Q 2550 3084 2163 3084 
Q 1697 3084 1428 2787 
Q 1159 2491 1159 1978 
L 1159 0 
L 581 0 
L 581 3500 
L 1159 3500 
L 1159 2956 
Q 1366 3272 1645 3428 
Q 1925 3584 2291 3584 
Q 2894 3584 3203 3211 
Q 3513 2838 3513 2113 
z
" transform="scale(0.015625)"/>
       <path id="DejaVuSans-65" d="M 3597 1894 
L 3597 1613 
L 953 1613 
Q 991 1019 1311 708 
Q 1631 397 2203 397 
Q 2534 397 2845 478 
Q 3156 559 3463 722 
L 3463 178 
Q 3153 47 2828 -22 
Q 2503 -91 2169 -91 
Q 1331 -91 842 396 
Q 353 884 353 1716 
Q 353 2575 817 3079 
Q 1281 3584 2069 3584 
Q 2775 3584 3186 3129 
Q 3597 2675 3597 1894 
z
M 3022 2063 
Q 3016 2534 2758 2815 
Q 2500 3097 2075 3097 
Q 1594 3097 1305 2825 
Q 1016 2553 972 2059 
L 3022 2063 
z
" transform="scale(0.015625)"/>
       <path id="DejaVuSans-77" d="M 269 3500 
L 844 3500 
L 1563 769 
L 2278 3500 
L 2956 3500 
L 3675 769 
L 4391 3500 
L 4966 3500 
L 4050 0 
L 3372 0 
L 2619 2869 
L 1863 0 
L 1184 0 
L 269 3500 
z
" transform="scale(0.015625)"/>
       <path id="DejaVuSans-6b" d="M 581 4863 
L 1159 4863 
L 1159 1991 
L 2875 3500 
L 3609 3500 
L 1753 1863 
L 3688 0 
L 2938 0 
L 1159 1709 
L 1159 0 
L 581 0 
L 581 4863 
z
" transform="scale(0.015625)"/>
      </defs>
      <use xlink:href="#DejaVuSans-61"/>
      <use xlink:href="#DejaVuSans-63" transform="translate(61.279297 0)"/>
      <use xlink:href="#DejaVuSans-74" transform="translate(116.259766 0)"/>
      <use xlink:href="#DejaVuSans-6f" transform="translate(155.46875 0)"/>
      <use xlink:href="#DejaVuSans-72" transform="translate(216.650391 0)"/>
      <use xlink:href="#DejaVuSans-5f" transform="translate(257.763672 0)"/>
      <use xlink:href="#DejaVuSans-6e" transform="translate(307.763672 0)"/>
      <use xlink:href="#DejaVuSans-65" transform="translate(371.142578 0)"/>
      <use xlink:href="#DejaVuSans-74" transform="translate(432.666016 0)"/>
      <use xlink:href="#DejaVuSans-77" transform="translate(471.875 0)"/>
      <use xlink:href="#DejaVuSans-6f" transform="translate(553.662109 0)"/>
      <use xlink:href="#DejaVuSans-72" transform="translate(614.84375 0)"/>
      <use xlink:href="#DejaVuSans-6b" transform="translate(655.957031 0)"/>
     </g>
    </g>
   </g>
   <g id="text_2">
    <g clip-path="url(#pab52a359d4)">
     <!-- articulation -->
     <g transform="translate(560.109225 67.998156) scale(0.08 -0.08)">
      <defs>
       <path id="DejaVuSans-69" d="M 603 3500 
L 1178 3500 
L 1178 0 
L 603 0 
L 603 3500 
z
M 603 4863 
L 1178 4863 
L 1178 4134 
L 603 4134 
L 603 4863 
z
" transform="scale(0.015625)"/>
       <path id="DejaVuSans-75" d="M 544 1381 
L 544 3500 
L 1119 3500 
L 1119 1403 
Q 1119 906 1312 657 
Q 1506 409 1894 409 
Q 2359 409 2629 706 
Q 2900 1003 2900 1516 
L 2900 3500 
L 3475 3500 
L 3475 0 
L 2900 0 
L 2900 538 
Q 2691 219 2414 64 
Q 2138 -91 1772 -91 
Q 1169 -91 856 284 
Q 544 659 544 1381 
z
M 1991 3584 
L 1991 3584 
z
" transform="scale(0.015625)"/>
       <path id="DejaVuSans-6c" d="M 603 4863 
L 1178 4863 
L 1178 0 
L 603 0 
L 603 4863 
z
" transform="scale(0.015625)"/>
      </defs>
      <use xlink:href="#DejaVuSans-61"/>
      <use xlink:href="#DejaVuSans-72" transform="translate(61.279297 0)"/>
      <use xlink:href="#DejaVuSans-74" transform="translate(102.392578 0)"/>
      <use xlink:href="#DejaVuSans-69" transform="translate(141.601562 0)"/>
      <use xlink:href="#DejaVuSans-63" transform="translate(169.384766 0)"/>
      <use xlink:href="#DejaVuSans-75" transform="translate(224.365234 0)"/>
      <use xlink:href="#DejaVuSans-6c" transform="translate(287.744141 0)"/>
      <use xlink:href="#DejaVuSans-61" transform="translate(315.527344 0)"/>
      <use xlink:href="#DejaVuSans-74" transform="translate(376.806641 0)"/>
      <use xlink:href="#DejaVuSans-69" transform="translate(416.015625 0)"/>
      <use xlink:href="#DejaVuSans-6f" transform="translate(443.798828 0)"/>
      <use xlink:href="#DejaVuSans-6e" transform="translate(504.980469 0)"/>
     </g>
    </g>
   </g>
   <g id="text_3">
    <g clip-path="url(#pab52a359d4)">
     <!-- black_box -->
     <g transform="translate(271.128363 157.665231) scale(0.08 -0.08)">
      <defs>
       <path id="DejaVuSans-62" d="M 3116 1747 
Q 3116 2381 2855 2742 
Q 2594 3103 2138 3103 
Q 1681 3103 1420 2742 
Q 1159 2381 1159 1747 
Q 1159 1113 1420 752 
Q 1681 391 2138 391 
Q 2594 391 2855 752 
Q 3116 1113 3116 1747 
z
M 1159 2969 
Q 1341 3281 1617 3432 
Q 1894 3584 2278 3584 
Q 2916 3584 3314 3078 
Q 3713 2572 3713 1747 
Q 3713 922 3314 415 
Q 2916 -91 2278 -91 
Q 1894 -91 1617 61 
Q 1341 213 1159 525 
L 1159 0 
L 581 0 
L 581 4863 
L 1159 4863 
L 1159 2969 
z
" transform="scale(0.015625)"/>
       <path id="DejaVuSans-78" d="M 3513 3500 
L 2247 1797 
L 3578 0 
L 2900 0 
L 1881 1375 
L 863 0 
L 184 0 
L 1544 1831 
L 300 3500 
L 978 3500 
L 1906 2253 
L 2834 3500 
L 3513 3500 
z
" transform="scale(0.015625)"/>
      </defs>
      <use xlink:href="#DejaVuSans-62"/>
      <use xlink:href="#DejaVuSans-6c" transform="translate(63.476562 0)"/>
      <use xlink:href="#DejaVuSans-61" transform="translate(91.259766 0)"/>
      <use xlink:href="#DejaVuSans-63" transform="translate(152.539062 0)"/>
      <use xlink:href="#DejaVuSans-6b" transform="translate(207.519531 0)"/>
      <use xlink:href="#DejaVuSans-5f" transform="translate(265.429688 0)"/>
      <use xlink:href="#DejaVuSans-62" transform="translate(315.429688 0)"/>
      <use xlink:href="#DejaVuSans-6f" transform="translate(378.90625 0)"/>
      <use xlink:href="#DejaVuSans-78" transform="translate(436.962891 0)"/>
     </g>
    </g>
   </g>
   <g id="text_4">
    <g clip-path="url(#pab52a359d4)">
     <!-- centre_of_calculation -->
     <g transform="translate(189.185679 323.663141) scale(0.08 -0.08)">
      <defs>
       <path id="DejaVuSans-66" d="M 2375 4863 
L 2375 4384 
L 1825 4384 
Q 1516 4384 1395 4259 
Q 1275 4134 1275 3809 
L 1275 3500 
L 2222 3500 
L 2222 3053 
L 1275 3053 
L 1275 0 
L 697 0 
L 697 3053 
L 147 3053 
L 147 3500 
L 697 3500 
L 697 3744 
Q 697 4328 969 4595 
Q 1241 4863 1831 4863 
L 2375 4863 
z
" transform="scale(0.015625)"/>
      </defs>
      <use xlink:href="#DejaVuSans-63"/>
      <use xlink:href="#DejaVuSans-65" transform="translate(54.980469 0)"/>
      <use xlink:href="#DejaVuSans-6e" transform="translate(116.503906 0)"/>
      <use xlink:href="#DejaVuSans-74" transform="translate(179.882812 0)"/>
      <use xlink:href="#DejaVuSans-72" transform="translate(219.091797 0)"/>
      <use xlink:href="#DejaVuSans-65" transform="translate(257.955078 0)"/>
      <use xlink:href="#DejaVuSans-5f" transform="translate(319.478516 0)"/>
      <use xlink:href="#DejaVuSans-6f" transform="translate(369.478516 0)"/>
      <use xlink:href="#DejaVuSans-66" transform="translate(430.660156 0)"/>
      <use xlink:href="#DejaVuSans-5f" transform="translate(465.865234 0)"/>
      <use xlink:href="#DejaVuSans-63" transform="translate(515.865234 0)"/>
      <use xlink:href="#DejaVuSans-61" transform="translate(570.845703 0)"/>
      <use xlink:href="#DejaVuSans-6c" transform="translate(632.125 0)"/>
      <use xlink:href="#DejaVuSans-63" transform="translate(659.908203 0)"/>
      <use xlink:href="#DejaVuSans-75" transform="translate(714.888672 0)"/>
      <use xlink:href="#DejaVuSans-6c" transform="translate(778.267578 0)"/>
      <use xlink:href="#DejaVuSans-61" transform="translate(806.050781 0)"/>
      <use xlink:href="#DejaVuSans-74" transform="translate(867.330078 0)"/>
      <use xlink:href="#DejaVuSans-69" transform="translate(906.539062 0)"/>
      <use xlink:href="#DejaVuSans-6f" transform="translate(934.322266 0)"/>
      <use xlink:href="#DejaVuSans-6e" transform="translate(995.503906 0)"/>
     </g>
    </g>
   </g>
   <g id="text_5">
    <g clip-path="url(#pab52a359d4)">
     <!-- construction -->
     <g transform="translate(285.741069 290.21991) scale(0.08 -0.08)">
      <defs>
       <path id="DejaVuSans-73" d="M 2834 3397 
L 2834 2853 
Q 2591 2978 2328 3040 
Q 2066 3103 1784 3103 
Q 1356 3103 1142 2972 
Q 928 2841 928 2578 
Q 928 2378 1081 2264 
Q 1234 2150 1697 2047 
L 1894 2003 
Q 2506 1872 2764 1633 
Q 3022 1394 3022 966 
Q 3022 478 2636 193 
Q 2250 -91 1575 -91 
Q 1294 -91 989 -36 
Q 684 19 347 128 
L 347 722 
Q 666 556 975 473 
Q 1284 391 1588 391 
Q 1994 391 2212 530 
Q 2431 669 2431 922 
Q 2431 1156 2273 1281 
Q 2116 1406 1581 1522 
L 1381 1569 
Q 847 1681 609 1914 
Q 372 2147 372 2553 
Q 372 3047 722 3315 
Q 1072 3584 1716 3584 
Q 2034 3584 2315 3537 
Q 2597 3491 2834 3397 
z
" transform="scale(0.015625)"/>
      </defs>
      <use xlink:href="#DejaVuSans-63"/>
      <use xlink:href="#DejaVuSans-6f" transform="translate(54.980469 0)"/>
      <use xlink:href="#DejaVuSans-6e" transform="translate(116.162109 0)"/>
      <use xlink:href="#DejaVuSans-73" transform="translate(179.541016 0)"/>
      <use xlink:href="#DejaVuSans-74" transform="translate(231.640625 0)"/>
      <use xlink:href="#DejaVuSans-72" transform="translate(270.849609 0)"/>
      <use xlink:href="#DejaVuSans-75" transform="translate(311.962891 0)"/>
      <use xlink:href="#DejaVuSans-63" transform="translate(375.341797 0)"/>
      <use xlink:href="#DejaVuSans-74" transform="translate(430.322266 0)"/>
      <use xlink:href="#DejaVuSans-69" transform="translate(469.53125 0)"/>
      <use xlink:href="#DejaVuSans-6f" transform="translate(497.314453 0)"/>
      <use xlink:href="#DejaVuSans-6e" transform="translate(558.496094 0)"/>
     </g>
    </g>
   </g>
   <g id="text_6">
    <g clip-path="url(#pab52a359d4)">
     <!-- enrollment -->
     <g transform="translate(205.646507 166.904217) scale(0.08 -0.08)">
      <defs>
       <path id="DejaVuSans-6d" d="M 3328 2828 
Q 3544 3216 3844 3400 
Q 4144 3584 4550 3584 
Q 5097 3584 5394 3201 
Q 5691 2819 5691 2113 
L 5691 0 
L 5113 0 
L 5113 2094 
Q 5113 2597 4934 2840 
Q 4756 3084 4391 3084 
Q 3944 3084 3684 2787 
Q 3425 2491 3425 1978 
L 3425 0 
L 2847 0 
L 2847 2094 
Q 2847 2600 2669 2842 
Q 2491 3084 2119 3084 
Q 1678 3084 1418 2786 
Q 1159 2488 1159 1978 
L 1159 0 
L 581 0 
L 581 3500 
L 1159 3500 
L 1159 2956 
Q 1356 3278 1631 3431 
Q 1906 3584 2284 3584 
Q 2666 3584 2933 3390 
Q 3200 3197 3328 2828 
z
" transform="scale(0.015625)"/>
      </defs>
      <use xlink:href="#DejaVuSans-65"/>
      <use xlink:href="#DejaVuSans-6e" transform="translate(61.523438 0)"/>
      <use xlink:href="#DejaVuSans-72" transform="translate(124.902344 0)"/>
      <use xlink:href="#DejaVuSans-6f" transform="translate(163.765625 0)"/>
      <use xlink:href="#DejaVuSans-6c" transform="translate(224.947266 0)"/>
      <use xlink:href="#DejaVuSans-6c" transform="translate(252.730469 0)"/>
      <use xlink:href="#DejaVuSans-6d" transform="translate(280.513672 0)"/>
      <use xlink:href="#DejaVuSans-65" transform="translate(377.925781 0)"/>
      <use xlink:href="#DejaVuSans-6e" transform="translate(439.449219 0)"/>
      <use xlink:href="#DejaVuSans-74" transform="translate(502.828125 0)"/>
     </g>
    </g>
   </g>
   <g id="text_7">
    <g clip-path="url(#pab52a359d4)">
     <!-- immutable_mobile -->
     <g transform="translate(330.016903 453.435093) scale(0.08 -0.08)">
      <use xlink:href="#DejaVuSans-69"/>
      <use xlink:href="#DejaVuSans-6d" transform="translate(27.783203 0)"/>
      <use xlink:href="#DejaVuSans-6d" transform="translate(125.195312 0)"/>
      <use xlink:href="#DejaVuSans-75" transform="translate(222.607422 0)"/>
      <use xlink:href="#DejaVuSans-74" transform="translate(285.986328 0)"/>
      <use xlink:href="#DejaVuSans-61" transform="translate(325.195312 0)"/>
      <use xlink:href="#DejaVuSans-62" transform="translate(386.474609 0)"/>
      <use xlink:href="#DejaVuSans-6c" transform="translate(449.951172 0)"/>
      <use xlink:href="#DejaVuSans-65" transform="translate(477.734375 0)"/>
      <use xlink:href="#DejaVuSans-5f" transform="translate(539.257812 0)"/>
      <use xlink:href="#DejaVuSans-6d" transform="translate(589.257812 0)"/>
      <use xlink:href="#DejaVuSans-6f" transform="translate(686.669922 0)"/>
      <use xlink:href="#DejaVuSans-62" transform="translate(747.851562 0)"/>
      <use xlink:href="#DejaVuSans-69" transform="translate(811.328125 0)"/>
      <use xlink:href="#DejaVuSans-6c" transform="translate(839.111328 0)"/>
      <use xlink:href="#DejaVuSans-65" transform="translate(866.894531 0)"/>
     </g>
    </g>
   </g>
   <g id="text_8">
    <g clip-path="url(#pab52a359d4)">
     <!-- inscription -->
     <g transform="translate(347.344391 259.045034) scale(0.08 -0.08)">
      <defs>
       <path id="DejaVuSans-70" d="M 1159 525 
L 1159 -1331 
L 581 -1331 
L 581 3500 
L 1159 3500 
L 1159 2969 
Q 1341 3281 1617 3432 
Q 1894 3584 2278 3584 
Q 2916 3584 3314 3078 
Q 3713 2572 3713 1747 
Q 3713 922 3314 415 
Q 2916 -91 2278 -91 
Q 1894 -91 1617 61 
Q 1341 213 1159 525 
z
M 3116 1747 
Q 3116 2381 2855 2742 
Q 2594 3103 2138 3103 
Q 1681 3103 1420 2742 
Q 1159 2381 1159 1747 
Q 1159 1113 1420 752 
Q 1681 391 2138 391 
Q 2594 391 2855 752 
Q 3116 1113 3116 1747 
z
" transform="scale(0.015625)"/>
      </defs>
      <use xlink:href="#DejaVuSans-69"/>
      <use xlink:href="#DejaVuSans-6e" transform="translate(27.783203 0)"/>
      <use xlink:href="#DejaVuSans-73" transform="translate(91.162109 0)"/>
      <use xlink:href="#DejaVuSans-63" transform="translate(143.261719 0)"/>
      <use xlink:href="#DejaVuSans-72" transform="translate(198.242188 0)"/>
      <use xlink:href="#DejaVuSans-69" transform="translate(239.355469 0)"/>
      <use xlink:href="#DejaVuSans-70" transform="translate(267.138672 0)"/>
      <use xlink:href="#DejaVuSans-74" transform="translate(330.615234 0)"/>
      <use xlink:href="#DejaVuSans-69" transform="translate(369.824219 0)"/>
      <use xlink:href="#DejaVuSans-6f" transform="translate(397.607422 0)"/>
      <use xlink:href="#DejaVuSans-6e" transform="translate(458.789062 0)"/>
     </g>
    </g>
   </g>
   <g id="text_9">
    <g clip-path="url(#pab52a359d4)">
     <!-- militar -->
     <g transform="translate(309.91659 186.761422) scale(0.08 -0.08)">
      <use xlink:href="#DejaVuSans-6d"/>
      <use xlink:href="#DejaVuSans-69" transform="translate(97.412109 0)"/>
      <use xlink:href="#DejaVuSans-6c" transform="translate(125.195312 0)"/>
      <use xlink:href="#DejaVuSans-69" transform="translate(152.978516 0)"/>
      <use xlink:href="#DejaVuSans-74" transform="translate(180.761719 0)"/>
      <use xlink:href="#DejaVuSans-61" transform="translate(219.970703 0)"/>
      <use xlink:href="#DejaVuSans-72" transform="translate(281.25 0)"/>
     </g>
    </g>
   </g>
   <g id="text_10">
    <g clip-path="url(#pab52a359d4)">
     <!-- network -->
     <g transform="translate(261.672943 216.783528) scale(0.08 -0.08)">
      <use xlink:href="#DejaVuSans-6e"/>
      <use xlink:href="#DejaVuSans-65" transform="translate(63.378906 0)"/>
      <use xlink:href="#DejaVuSans-74" transform="translate(124.902344 0)"/>
      <use xlink:href="#DejaVuSans-77" transform="translate(164.111328 0)"/>
      <use xlink:href="#DejaVuSans-6f" transform="translate(245.898438 0)"/>
      <use xlink:href="#DejaVuSans-72" transform="translate(307.080078 0)"/>
      <use xlink:href="#DejaVuSans-6b" transform="translate(348.193359 0)"/>
     </g>
    </g>
   </g>
   <g id="text_11">
    <g clip-path="url(#pab52a359d4)">
     <!-- proposition -->
     <g transform="translate(42.772025 54.868657) scale(0.08 -0.08)">
      <use xlink:href="#DejaVuSans-70"/>
      <use xlink:href="#DejaVuSans-72" transform="translate(63.476562 0)"/>
      <use xlink:href="#DejaVuSans-6f" transform="translate(102.339844 0)"/>
      <use xlink:href="#DejaVuSans-70" transform="translate(163.521484 0)"/>
      <use xlink:href="#DejaVuSans-6f" transform="translate(226.998047 0)"/>
      <use xlink:href="#DejaVuSans-73" transform="translate(288.179688 0)"/>
      <use xlink:href="#DejaVuSans-69" transform="translate(340.279297 0)"/>
      <use xlink:href="#DejaVuSans-74" transform="translate(368.0625 0)"/>
      <use xlink:href="#DejaVuSans-69" transform="translate(407.271484 0)"/>
      <use xlink:href="#DejaVuSans-6f" transform="translate(435.054688 0)"/>
      <use xlink:href="#DejaVuSans-6e" transform="translate(496.236328 0)"/>
     </g>
    </g>
   </g>
   <g id="text_12">
    <g clip-path="url(#pab52a359d4)">
     <!-- spokesperson -->
     <g transform="translate(367.683841 146.30791) scale(0.08 -0.08)">
      <use xlink:href="#DejaVuSans-73"/>
      <use xlink:href="#DejaVuSans-70" transform="translate(52.099609 0)"/>
      <use xlink:href="#DejaVuSans-6f" transform="translate(115.576172 0)"/>
      <use xlink:href="#DejaVuSans-6b" transform="translate(176.757812 0)"/>
      <use xlink:href="#DejaVuSans-65" transform="translate(231.042969 0)"/>
      <use xlink:href="#DejaVuSans-73" transform="translate(292.566406 0)"/>
      <use xlink:href="#DejaVuSans-70" transform="translate(344.666016 0)"/>
      <use xlink:href="#DejaVuSans-65" transform="translate(408.142578 0)"/>
      <use xlink:href="#DejaVuSans-72" transform="translate(469.666016 0)"/>
      <use xlink:href="#DejaVuSans-73" transform="translate(510.779297 0)"/>
      <use xlink:href="#DejaVuSans-6f" transform="translate(562.878906 0)"/>
      <use xlink:href="#DejaVuSans-6e" transform="translate(624.060547 0)"/>
     </g>
    </g>
   </g>
   <g id="text_13">
    <g clip-path="url(#pab52a359d4)">
     <!-- textil -->
     <g transform="translate(297.774185 243.808596) scale(0.08 -0.08)">
      <use xlink:href="#DejaVuSans-74"/>
      <use xlink:href="#DejaVuSans-65" transform="translate(39.208984 0)"/>
      <use xlink:href="#DejaVuSans-78" transform="translate(98.982422 0)"/>
      <use xlink:href="#DejaVuSans-74" transform="translate(158.162109 0)"/>
      <use xlink:href="#DejaVuSans-69" transform="translate(197.371094 0)"/>
      <use xlink:href="#DejaVuSans-6c" transform="translate(225.154297 0)"/>
     </g>
    </g>
   </g>
   <g id="text_14">
    <g clip-path="url(#pab52a359d4)">
     <!-- topologia -->
     <g transform="translate(298.317956 213.4911) scale(0.08 -0.08)">
      <defs>
       <path id="DejaVuSans-67" d="M 2906 1791 
Q 2906 2416 2648 2759 
Q 2391 3103 1925 3103 
Q 1463 3103 1205 2759 
Q 947 2416 947 1791 
Q 947 1169 1205 825 
Q 1463 481 1925 481 
Q 2391 481 2648 825 
Q 2906 1169 2906 1791 
z
M 3481 434 
Q 3481 -459 3084 -895 
Q 2688 -1331 1869 -1331 
Q 1566 -1331 1297 -1286 
Q 1028 -1241 775 -1147 
L 775 -588 
Q 1028 -725 1275 -790 
Q 1522 -856 1778 -856 
Q 2344 -856 2625 -561 
Q 2906 -266 2906 331 
L 2906 616 
Q 2728 306 2450 153 
Q 2172 0 1784 0 
Q 1141 0 747 490 
Q 353 981 353 1791 
Q 353 2603 747 3093 
Q 1141 3584 1784 3584 
Q 2172 3584 2450 3431 
Q 2728 3278 2906 2969 
L 2906 3500 
L 3481 3500 
L 3481 434 
z
" transform="scale(0.015625)"/>
      </defs>
      <use xlink:href="#DejaVuSans-74"/>
      <use xlink:href="#DejaVuSans-6f" transform="translate(39.208984 0)"/>
      <use xlink:href="#DejaVuSans-70" transform="translate(100.390625 0)"/>
      <use xlink:href="#DejaVuSans-6f" transform="translate(163.867188 0)"/>
      <use xlink:href="#DejaVuSans-6c" transform="translate(225.048828 0)"/>
      <use xlink:href="#DejaVuSans-6f" transform="translate(252.832031 0)"/>
      <use xlink:href="#DejaVuSans-67" transform="translate(314.013672 0)"/>
      <use xlink:href="#DejaVuSans-69" transform="translate(377.490234 0)"/>
      <use xlink:href="#DejaVuSans-61" transform="translate(405.273438 0)"/>
     </g>
    </g>
   </g>
   <g id="text_15">
    <g clip-path="url(#pab52a359d4)">
     <!-- translation -->
     <g transform="translate(223.811154 229.69832) scale(0.08 -0.08)">
      <use xlink:href="#DejaVuSans-74"/>
      <use xlink:href="#DejaVuSans-72" transform="translate(39.208984 0)"/>
      <use xlink:href="#DejaVuSans-61" transform="translate(80.322266 0)"/>
      <use xlink:href="#DejaVuSans-6e" transform="translate(141.601562 0)"/>
      <use xlink:href="#DejaVuSans-73" transform="translate(204.980469 0)"/>
      <use xlink:href="#DejaVuSans-6c" transform="translate(257.080078 0)"/>
      <use xlink:href="#DejaVuSans-61" transform="translate(284.863281 0)"/>
      <use xlink:href="#DejaVuSans-74" transform="translate(346.142578 0)"/>
      <use xlink:href="#DejaVuSans-69" transform="translate(385.351562 0)"/>
      <use xlink:href="#DejaVuSans-6f" transform="translate(413.134766 0)"/>
      <use xlink:href="#DejaVuSans-6e" transform="translate(474.316406 0)"/>
     </g>
    </g>
   </g>
   <g id="text_16">
    <g clip-path="url(#pab52a359d4)">
     <!-- trial_of_strength -->
     <g transform="translate(405.798128 207.685918) scale(0.08 -0.08)">
      <defs>
       <path id="DejaVuSans-68" d="M 3513 2113 
L 3513 0 
L 2938 0 
L 2938 2094 
Q 2938 2591 2744 2837 
Q 2550 3084 2163 3084 
Q 1697 3084 1428 2787 
Q 1159 2491 1159 1978 
L 1159 0 
L 581 0 
L 581 4863 
L 1159 4863 
L 1159 2956 
Q 1366 3272 1645 3428 
Q 1925 3584 2291 3584 
Q 2894 3584 3203 3211 
Q 3513 2838 3513 2113 
z
" transform="scale(0.015625)"/>
      </defs>
      <use xlink:href="#DejaVuSans-74"/>
      <use xlink:href="#DejaVuSans-72" transform="translate(39.208984 0)"/>
      <use xlink:href="#DejaVuSans-69" transform="translate(80.322266 0)"/>
      <use xlink:href="#DejaVuSans-61" transform="translate(108.105469 0)"/>
      <use xlink:href="#DejaVuSans-6c" transform="translate(169.384766 0)"/>
      <use xlink:href="#DejaVuSans-5f" transform="translate(197.167969 0)"/>
      <use xlink:href="#DejaVuSans-6f" transform="translate(247.167969 0)"/>
      <use xlink:href="#DejaVuSans-66" transform="translate(308.349609 0)"/>
      <use xlink:href="#DejaVuSans-5f" transform="translate(343.554688 0)"/>
      <use xlink:href="#DejaVuSans-73" transform="translate(393.554688 0)"/>
      <use xlink:href="#DejaVuSans-74" transform="translate(445.654297 0)"/>
      <use xlink:href="#DejaVuSans-72" transform="translate(484.863281 0)"/>
      <use xlink:href="#DejaVuSans-65" transform="translate(523.726562 0)"/>
      <use xlink:href="#DejaVuSans-6e" transform="translate(585.25 0)"/>
      <use xlink:href="#DejaVuSans-67" transform="translate(648.628906 0)"/>
      <use xlink:href="#DejaVuSans-74" transform="translate(712.105469 0)"/>
      <use xlink:href="#DejaVuSans-68" transform="translate(751.314453 0)"/>
     </g>
    </g>
   </g>
  </g>
 </g>
 <defs>
  <clipPath id="pab52a359d4">
   <rect x="10.8" y="10.8" width="626.4" height="482.4"/>
  </clipPath>
 </defs>
</svg>
