<?xml version="1.0" encoding="utf-8" standalone="no"?>
<!DOCTYPE svg PUBLIC "-//W3C//DTD SVG 1.1//EN"
  "http://www.w3.org/Graphics/SVG/1.1/DTD/svg11.dtd">
<svg xmlns:xlink="http://www.w3.org/1999/xlink" width="648pt" height="504pt" viewBox="0 0 648 504" xmlns="http://www.w3.org/2000/svg" version="1.1">
 <metadata>
  <rdf:RDF xmlns:dc="http://purl.org/dc/elements/1.1/" xmlns:cc="http://creativecommons.org/ns#" xmlns:rdf="http://www.w3.org/1999/02/22-rdf-syntax-ns#">
   <cc:Work>
    <dc:type rdf:resource="http://purl.org/dc/dcmitype/StillImage"/>
    <dc:date>2026-05-24T22:19:11.128393</dc:date>
    <dc:format>image/svg+xml</dc:format>
    <dc:creator>
     <cc:Agent>
      <dc:title>Matplotlib v3.10.9, https://matplotlib.org/</dc:title>
     </cc:Agent>
    </dc:creator>
   </cc:Work>
  </rdf:RDF>
 </metadata>
 <defs>
  <style type="text/css">*{stroke-linejoin: round; stroke-linecap: butt}</style>
 </defs>
 <g id="figure_1">
  <g id="patch_1">
   <path d="M 0 504 
L 648 504 
L 648 0 
L 0 0 
z
" style="fill: #ffffff"/>
  </g>
  <g id="axes_1">
   <g id="LineCollection_1">
    <path d="M 262.024625 313.330703 
L 148.308979 412.924537 
" clip-path="url(#p205a3bda01)" style="fill: none; stroke: #000000; stroke-opacity: 0.45"/>
    <path d="M 262.024625 313.330703 
L 230.6379 391.938174 
" clip-path="url(#p205a3bda01)" style="fill: none; stroke: #000000; stroke-opacity: 0.45; stroke-width: 1.3"/>
    <path d="M 262.024625 313.330703 
L 206.231407 451.338843 
" clip-path="url(#p205a3bda01)" style="fill: none; stroke: #000000; stroke-opacity: 0.45; stroke-width: 0.919615"/>
    <path d="M 262.024625 313.330703 
L 193.544898 396.180332 
" clip-path="url(#p205a3bda01)" style="fill: none; stroke: #000000; stroke-opacity: 0.45; stroke-width: 1.248528"/>
    <path d="M 262.024625 313.330703 
L 221.136158 360.866753 
" clip-path="url(#p205a3bda01)" style="fill: none; stroke: #000000; stroke-opacity: 0.45; stroke-width: 2.015549"/>
    <path d="M 262.024625 313.330703 
L 224.41916 373.530358 
" clip-path="url(#p205a3bda01)" style="fill: none; stroke: #000000; stroke-opacity: 0.45; stroke-width: 2.320937"/>
    <path d="M 262.024625 313.330703 
L 188.053516 357.621961 
" clip-path="url(#p205a3bda01)" style="fill: none; stroke: #000000; stroke-opacity: 0.45; stroke-width: 1.807125"/>
    <path d="M 262.024625 313.330703 
L 286.097242 362.621661 
" clip-path="url(#p205a3bda01)" style="fill: none; stroke: #000000; stroke-opacity: 0.45"/>
    <path d="M 262.024625 313.330703 
L 200.096471 379.298225 
" clip-path="url(#p205a3bda01)" style="fill: none; stroke: #000000; stroke-opacity: 0.45; stroke-width: 1.522497"/>
    <path d="M 262.024625 313.330703 
L 206.707093 364.760038 
" clip-path="url(#p205a3bda01)" style="fill: none; stroke: #000000; stroke-opacity: 0.45; stroke-width: 1.561895"/>
    <path d="M 262.024625 313.330703 
L 213.77355 331.410305 
" clip-path="url(#p205a3bda01)" style="fill: none; stroke: #000000; stroke-opacity: 0.45; stroke-width: 1.134847"/>
    <path d="M 262.024625 313.330703 
L 178.875494 331.232514 
" clip-path="url(#p205a3bda01)" style="fill: none; stroke: #000000; stroke-opacity: 0.45; stroke-width: 1.134847"/>
    <path d="M 262.024625 313.330703 
L 322.077846 345.570718 
" clip-path="url(#p205a3bda01)" style="fill: none; stroke: #000000; stroke-opacity: 0.45; stroke-width: 0.824264"/>
    <path d="M 262.024625 313.330703 
L 207.902585 403.378382 
" clip-path="url(#p205a3bda01)" style="fill: none; stroke: #000000; stroke-opacity: 0.45; stroke-width: 1.3"/>
    <path d="M 262.024625 313.330703 
L 175.341919 383.381008 
" clip-path="url(#p205a3bda01)" style="fill: none; stroke: #000000; stroke-opacity: 0.45; stroke-width: 0.824264"/>
    <path d="M 262.024625 313.330703 
L 123.292693 347.594403 
" clip-path="url(#p205a3bda01)" style="fill: none; stroke: #000000; stroke-opacity: 0.45; stroke-width: 0.7"/>
    <path d="M 262.024625 313.330703 
L 178.087256 417.775758 
" clip-path="url(#p205a3bda01)" style="fill: none; stroke: #000000; stroke-opacity: 0.45; stroke-width: 0.824264"/>
    <path d="M 262.024625 313.330703 
L 329.524496 417.617135 
" clip-path="url(#p205a3bda01)" style="fill: none; stroke: #000000; stroke-opacity: 0.45; stroke-width: 0.824264"/>
    <path d="M 232.59867 52.661157 
L 206.707093 364.760038 
" clip-path="url(#p205a3bda01)" style="fill: none; stroke: #000000; stroke-opacity: 0.45; stroke-width: 0.919615"/>
    <path d="M 232.59867 52.661157 
L 188.053516 357.621961 
" clip-path="url(#p205a3bda01)" style="fill: none; stroke: #000000; stroke-opacity: 0.45; stroke-width: 0.7"/>
    <path d="M 154.429578 370.878798 
L 156.113147 441.199425 
" clip-path="url(#p205a3bda01)" style="fill: none; stroke: #000000; stroke-opacity: 0.45; stroke-width: 1.672792"/>
    <path d="M 154.429578 370.878798 
L 193.544898 396.180332 
" clip-path="url(#p205a3bda01)" style="fill: none; stroke: #000000; stroke-opacity: 0.45; stroke-width: 2.478461"/>
    <path d="M 154.429578 370.878798 
L 175.341919 383.381008 
" clip-path="url(#p205a3bda01)" style="fill: none; stroke: #000000; stroke-opacity: 0.45; stroke-width: 3.083282"/>
    <path d="M 154.429578 370.878798 
L 224.41916 373.530358 
" clip-path="url(#p205a3bda01)" style="fill: none; stroke: #000000; stroke-opacity: 0.45; stroke-width: 1.70767"/>
    <path d="M 154.429578 370.878798 
L 188.053516 357.621961 
" clip-path="url(#p205a3bda01)" style="fill: none; stroke: #000000; stroke-opacity: 0.45; stroke-width: 1.958846"/>
    <path d="M 154.429578 370.878798 
L 200.096471 379.298225 
" clip-path="url(#p205a3bda01)" style="fill: none; stroke: #000000; stroke-opacity: 0.45; stroke-width: 3.384962"/>
    <path d="M 154.429578 370.878798 
L 221.136158 360.866753 
" clip-path="url(#p205a3bda01)" style="fill: none; stroke: #000000; stroke-opacity: 0.45; stroke-width: 2.684732"/>
    <path d="M 154.429578 370.878798 
L 148.308979 412.924537 
" clip-path="url(#p205a3bda01)" style="fill: none; stroke: #000000; stroke-opacity: 0.45; stroke-width: 1.394987"/>
    <path d="M 154.429578 370.878798 
L 230.6379 391.938174 
" clip-path="url(#p205a3bda01)" style="fill: none; stroke: #000000; stroke-opacity: 0.45; stroke-width: 2.478461"/>
    <path d="M 154.429578 370.878798 
L 207.902585 403.378382 
" clip-path="url(#p205a3bda01)" style="fill: none; stroke: #000000; stroke-opacity: 0.45; stroke-width: 1.987451"/>
    <path d="M 154.429578 370.878798 
L 206.707093 364.760038 
" clip-path="url(#p205a3bda01)" style="fill: none; stroke: #000000; stroke-opacity: 0.45; stroke-width: 4.194733"/>
    <path d="M 154.429578 370.878798 
L 243.9158 421.024381 
" clip-path="url(#p205a3bda01)" style="fill: none; stroke: #000000; stroke-opacity: 0.45; stroke-width: 1.672792"/>
    <path d="M 154.429578 370.878798 
L 213.77355 331.410305 
" clip-path="url(#p205a3bda01)" style="fill: none; stroke: #000000; stroke-opacity: 0.45; stroke-width: 2.224829"/>
    <path d="M 154.429578 370.878798 
L 178.087256 417.775758 
" clip-path="url(#p205a3bda01)" style="fill: none; stroke: #000000; stroke-opacity: 0.45; stroke-width: 1.6"/>
    <path d="M 154.429578 370.878798 
L 206.231407 451.338843 
" clip-path="url(#p205a3bda01)" style="fill: none; stroke: #000000; stroke-opacity: 0.45; stroke-width: 0.919615"/>
    <path d="M 154.429578 370.878798 
L 286.097242 362.621661 
" clip-path="url(#p205a3bda01)" style="fill: none; stroke: #000000; stroke-opacity: 0.45; stroke-width: 1.07082"/>
    <path d="M 154.429578 370.878798 
L 65.157025 354.168025 
" clip-path="url(#p205a3bda01)" style="fill: none; stroke: #000000; stroke-opacity: 0.45; stroke-width: 0.919615"/>
    <path d="M 154.429578 370.878798 
L 92.948372 267.444021 
" clip-path="url(#p205a3bda01)" style="fill: none; stroke: #000000; stroke-opacity: 0.45; stroke-width: 0.7"/>
    <path d="M 154.429578 370.878798 
L 123.292693 347.594403 
" clip-path="url(#p205a3bda01)" style="fill: none; stroke: #000000; stroke-opacity: 0.45; stroke-width: 1.134847"/>
    <path d="M 154.429578 370.878798 
L 178.875494 331.232514 
" clip-path="url(#p205a3bda01)" style="fill: none; stroke: #000000; stroke-opacity: 0.45; stroke-width: 1.348683"/>
    <path d="M 243.9158 421.024381 
L 188.053516 357.621961 
" clip-path="url(#p205a3bda01)" style="fill: none; stroke: #000000; stroke-opacity: 0.45; stroke-width: 1.6"/>
    <path d="M 243.9158 421.024381 
L 175.341919 383.381008 
" clip-path="url(#p205a3bda01)" style="fill: none; stroke: #000000; stroke-opacity: 0.45; stroke-width: 2.015549"/>
    <path d="M 243.9158 421.024381 
L 221.136158 360.866753 
" clip-path="url(#p205a3bda01)" style="fill: none; stroke: #000000; stroke-opacity: 0.45; stroke-width: 1.9"/>
    <path d="M 243.9158 421.024381 
L 230.6379 391.938174 
" clip-path="url(#p205a3bda01)" style="fill: none; stroke: #000000; stroke-opacity: 0.45; stroke-width: 1.958846"/>
    <path d="M 243.9158 421.024381 
L 156.113147 441.199425 
" clip-path="url(#p205a3bda01)" style="fill: none; stroke: #000000; stroke-opacity: 0.45; stroke-width: 1.481665"/>
    <path d="M 243.9158 421.024381 
L 193.544898 396.180332 
" clip-path="url(#p205a3bda01)" style="fill: none; stroke: #000000; stroke-opacity: 0.45; stroke-width: 1.869694"/>
    <path d="M 243.9158 421.024381 
L 207.902585 403.378382 
" clip-path="url(#p205a3bda01)" style="fill: none; stroke: #000000; stroke-opacity: 0.45; stroke-width: 1.348683"/>
    <path d="M 243.9158 421.024381 
L 200.096471 379.298225 
" clip-path="url(#p205a3bda01)" style="fill: none; stroke: #000000; stroke-opacity: 0.45; stroke-width: 2.249324"/>
    <path d="M 243.9158 421.024381 
L 206.707093 364.760038 
" clip-path="url(#p205a3bda01)" style="fill: none; stroke: #000000; stroke-opacity: 0.45; stroke-width: 2.891987"/>
    <path d="M 243.9158 421.024381 
L 178.875494 331.232514 
" clip-path="url(#p205a3bda01)" style="fill: none; stroke: #000000; stroke-opacity: 0.45; stroke-width: 1.3"/>
    <path d="M 243.9158 421.024381 
L 213.77355 331.410305 
" clip-path="url(#p205a3bda01)" style="fill: none; stroke: #000000; stroke-opacity: 0.45; stroke-width: 1.3"/>
    <path d="M 243.9158 421.024381 
L 148.308979 412.924537 
" clip-path="url(#p205a3bda01)" style="fill: none; stroke: #000000; stroke-opacity: 0.45"/>
    <path d="M 243.9158 421.024381 
L 224.41916 373.530358 
" clip-path="url(#p205a3bda01)" style="fill: none; stroke: #000000; stroke-opacity: 0.45; stroke-width: 1.07082"/>
    <path d="M 243.9158 421.024381 
L 286.097242 362.621661 
" clip-path="url(#p205a3bda01)" style="fill: none; stroke: #000000; stroke-opacity: 0.45; stroke-width: 0.824264"/>
    <path d="M 243.9158 421.024381 
L 178.087256 417.775758 
" clip-path="url(#p205a3bda01)" style="fill: none; stroke: #000000; stroke-opacity: 0.45; stroke-width: 1.248528"/>
    <path d="M 243.9158 421.024381 
L 206.231407 451.338843 
" clip-path="url(#p205a3bda01)" style="fill: none; stroke: #000000; stroke-opacity: 0.45; stroke-width: 0.919615"/>
    <path d="M 243.9158 421.024381 
L 65.157025 354.168025 
" clip-path="url(#p205a3bda01)" style="fill: none; stroke: #000000; stroke-opacity: 0.45; stroke-width: 0.7"/>
    <path d="M 243.9158 421.024381 
L 123.292693 347.594403 
" clip-path="url(#p205a3bda01)" style="fill: none; stroke: #000000; stroke-opacity: 0.45; stroke-width: 0.824264"/>
    <path d="M 582.842975 395.783678 
L 230.6379 391.938174 
" clip-path="url(#p205a3bda01)" style="fill: none; stroke: #000000; stroke-opacity: 0.45; stroke-width: 0.7"/>
    <path d="M 582.842975 395.783678 
L 224.41916 373.530358 
" clip-path="url(#p205a3bda01)" style="fill: none; stroke: #000000; stroke-opacity: 0.45; stroke-width: 0.7"/>
    <path d="M 582.842975 395.783678 
L 206.707093 364.760038 
" clip-path="url(#p205a3bda01)" style="fill: none; stroke: #000000; stroke-opacity: 0.45; stroke-width: 0.919615"/>
    <path d="M 156.113147 441.199425 
L 230.6379 391.938174 
" clip-path="url(#p205a3bda01)" style="fill: none; stroke: #000000; stroke-opacity: 0.45; stroke-width: 1.672792"/>
    <path d="M 156.113147 441.199425 
L 193.544898 396.180332 
" clip-path="url(#p205a3bda01)" style="fill: none; stroke: #000000; stroke-opacity: 0.45; stroke-width: 3.083282"/>
    <path d="M 156.113147 441.199425 
L 188.053516 357.621961 
" clip-path="url(#p205a3bda01)" style="fill: none; stroke: #000000; stroke-opacity: 0.45; stroke-width: 1.348683"/>
    <path d="M 156.113147 441.199425 
L 200.096471 379.298225 
" clip-path="url(#p205a3bda01)" style="fill: none; stroke: #000000; stroke-opacity: 0.45; stroke-width: 2.123369"/>
    <path d="M 156.113147 441.199425 
L 175.341919 383.381008 
" clip-path="url(#p205a3bda01)" style="fill: none; stroke: #000000; stroke-opacity: 0.45; stroke-width: 2.043168"/>
    <path d="M 156.113147 441.199425 
L 148.308979 412.924537 
" clip-path="url(#p205a3bda01)" style="fill: none; stroke: #000000; stroke-opacity: 0.45"/>
    <path d="M 156.113147 441.199425 
L 207.902585 403.378382 
" clip-path="url(#p205a3bda01)" style="fill: none; stroke: #000000; stroke-opacity: 0.45; stroke-width: 1.561895"/>
    <path d="M 156.113147 441.199425 
L 178.087256 417.775758 
" clip-path="url(#p205a3bda01)" style="fill: none; stroke: #000000; stroke-opacity: 0.45; stroke-width: 1.672792"/>
    <path d="M 156.113147 441.199425 
L 221.136158 360.866753 
" clip-path="url(#p205a3bda01)" style="fill: none; stroke: #000000; stroke-opacity: 0.45; stroke-width: 1.394987"/>
    <path d="M 156.113147 441.199425 
L 224.41916 373.530358 
" clip-path="url(#p205a3bda01)" style="fill: none; stroke: #000000; stroke-opacity: 0.45; stroke-width: 1.636932"/>
    <path d="M 156.113147 441.199425 
L 206.707093 364.760038 
" clip-path="url(#p205a3bda01)" style="fill: none; stroke: #000000; stroke-opacity: 0.45; stroke-width: 1.929706"/>
    <path d="M 156.113147 441.199425 
L 123.292693 347.594403 
" clip-path="url(#p205a3bda01)" style="fill: none; stroke: #000000; stroke-opacity: 0.45"/>
    <path d="M 156.113147 441.199425 
L 206.231407 451.338843 
" clip-path="url(#p205a3bda01)" style="fill: none; stroke: #000000; stroke-opacity: 0.45; stroke-width: 0.7"/>
    <path d="M 156.113147 441.199425 
L 329.524496 417.617135 
" clip-path="url(#p205a3bda01)" style="fill: none; stroke: #000000; stroke-opacity: 0.45; stroke-width: 0.7"/>
    <path d="M 148.308979 412.924537 
L 207.902585 403.378382 
" clip-path="url(#p205a3bda01)" style="fill: none; stroke: #000000; stroke-opacity: 0.45; stroke-width: 3.198214"/>
    <path d="M 148.308979 412.924537 
L 206.231407 451.338843 
" clip-path="url(#p205a3bda01)" style="fill: none; stroke: #000000; stroke-opacity: 0.45; stroke-width: 2.174824"/>
    <path d="M 148.308979 412.924537 
L 193.544898 396.180332 
" clip-path="url(#p205a3bda01)" style="fill: none; stroke: #000000; stroke-opacity: 0.45; stroke-width: 3.740659"/>
    <path d="M 148.308979 412.924537 
L 230.6379 391.938174 
" clip-path="url(#p205a3bda01)" style="fill: none; stroke: #000000; stroke-opacity: 0.45; stroke-width: 1.929706"/>
    <path d="M 148.308979 412.924537 
L 221.136158 360.866753 
" clip-path="url(#p205a3bda01)" style="fill: none; stroke: #000000; stroke-opacity: 0.45; stroke-width: 2.149286"/>
    <path d="M 148.308979 412.924537 
L 224.41916 373.530358 
" clip-path="url(#p205a3bda01)" style="fill: none; stroke: #000000; stroke-opacity: 0.45; stroke-width: 1.636932"/>
    <path d="M 148.308979 412.924537 
L 188.053516 357.621961 
" clip-path="url(#p205a3bda01)" style="fill: none; stroke: #000000; stroke-opacity: 0.45; stroke-width: 1.561895"/>
    <path d="M 148.308979 412.924537 
L 200.096471 379.298225 
" clip-path="url(#p205a3bda01)" style="fill: none; stroke: #000000; stroke-opacity: 0.45; stroke-width: 1.672792"/>
    <path d="M 148.308979 412.924537 
L 175.341919 383.381008 
" clip-path="url(#p205a3bda01)" style="fill: none; stroke: #000000; stroke-opacity: 0.45; stroke-width: 2.344222"/>
    <path d="M 148.308979 412.924537 
L 178.087256 417.775758 
" clip-path="url(#p205a3bda01)" style="fill: none; stroke: #000000; stroke-opacity: 0.45; stroke-width: 2.62486"/>
    <path d="M 148.308979 412.924537 
L 213.77355 331.410305 
" clip-path="url(#p205a3bda01)" style="fill: none; stroke: #000000; stroke-opacity: 0.45"/>
    <path d="M 148.308979 412.924537 
L 178.875494 331.232514 
" clip-path="url(#p205a3bda01)" style="fill: none; stroke: #000000; stroke-opacity: 0.45; stroke-width: 1.394987"/>
    <path d="M 148.308979 412.924537 
L 206.707093 364.760038 
" clip-path="url(#p205a3bda01)" style="fill: none; stroke: #000000; stroke-opacity: 0.45; stroke-width: 1.522497"/>
    <path d="M 148.308979 412.924537 
L 322.077846 345.570718 
" clip-path="url(#p205a3bda01)" style="fill: none; stroke: #000000; stroke-opacity: 0.45; stroke-width: 0.824264"/>
    <path d="M 148.308979 412.924537 
L 286.097242 362.621661 
" clip-path="url(#p205a3bda01)" style="fill: none; stroke: #000000; stroke-opacity: 0.45; stroke-width: 0.7"/>
    <path d="M 148.308979 412.924537 
L 65.157025 354.168025 
" clip-path="url(#p205a3bda01)" style="fill: none; stroke: #000000; stroke-opacity: 0.45; stroke-width: 0.7"/>
    <path d="M 221.136158 360.866753 
L 230.6379 391.938174 
" clip-path="url(#p205a3bda01)" style="fill: none; stroke: #000000; stroke-opacity: 0.45; stroke-width: 3.214249"/>
    <path d="M 221.136158 360.866753 
L 206.231407 451.338843 
" clip-path="url(#p205a3bda01)" style="fill: none; stroke: #000000; stroke-opacity: 0.45; stroke-width: 1.193725"/>
    <path d="M 221.136158 360.866753 
L 193.544898 396.180332 
" clip-path="url(#p205a3bda01)" style="fill: none; stroke: #000000; stroke-opacity: 0.45; stroke-width: 4.524318"/>
    <path d="M 221.136158 360.866753 
L 224.41916 373.530358 
" clip-path="url(#p205a3bda01)" style="fill: none; stroke: #000000; stroke-opacity: 0.45; stroke-width: 5.274423"/>
    <path d="M 221.136158 360.866753 
L 188.053516 357.621961 
" clip-path="url(#p205a3bda01)" style="fill: none; stroke: #000000; stroke-opacity: 0.45; stroke-width: 3.859769"/>
    <path d="M 221.136158 360.866753 
L 286.097242 362.621661 
" clip-path="url(#p205a3bda01)" style="fill: none; stroke: #000000; stroke-opacity: 0.45; stroke-width: 1.741641"/>
    <path d="M 221.136158 360.866753 
L 200.096471 379.298225 
" clip-path="url(#p205a3bda01)" style="fill: none; stroke: #000000; stroke-opacity: 0.45; stroke-width: 5.464583"/>
    <path d="M 221.136158 360.866753 
L 206.707093 364.760038 
" clip-path="url(#p205a3bda01)" style="fill: none; stroke: #000000; stroke-opacity: 0.45; stroke-width: 5.383974"/>
    <path d="M 221.136158 360.866753 
L 207.902585 403.378382 
" clip-path="url(#p205a3bda01)" style="fill: none; stroke: #000000; stroke-opacity: 0.45; stroke-width: 3.820526"/>
    <path d="M 221.136158 360.866753 
L 213.77355 331.410305 
" clip-path="url(#p205a3bda01)" style="fill: none; stroke: #000000; stroke-opacity: 0.45; stroke-width: 3.116616"/>
    <path d="M 221.136158 360.866753 
L 178.875494 331.232514 
" clip-path="url(#p205a3bda01)" style="fill: none; stroke: #000000; stroke-opacity: 0.45; stroke-width: 2.963201"/>
    <path d="M 221.136158 360.866753 
L 322.077846 345.570718 
" clip-path="url(#p205a3bda01)" style="fill: none; stroke: #000000; stroke-opacity: 0.45; stroke-width: 1.6"/>
    <path d="M 221.136158 360.866753 
L 175.341919 383.381008 
" clip-path="url(#p205a3bda01)" style="fill: none; stroke: #000000; stroke-opacity: 0.45; stroke-width: 3.962303"/>
    <path d="M 221.136158 360.866753 
L 178.087256 417.775758 
" clip-path="url(#p205a3bda01)" style="fill: none; stroke: #000000; stroke-opacity: 0.45; stroke-width: 2.2"/>
    <path d="M 221.136158 360.866753 
L 65.157025 354.168025 
" clip-path="url(#p205a3bda01)" style="fill: none; stroke: #000000; stroke-opacity: 0.45; stroke-width: 1.348683"/>
    <path d="M 221.136158 360.866753 
L 123.292693 347.594403 
" clip-path="url(#p205a3bda01)" style="fill: none; stroke: #000000; stroke-opacity: 0.45; stroke-width: 1.522497"/>
    <path d="M 221.136158 360.866753 
L 92.948372 267.444021 
" clip-path="url(#p205a3bda01)" style="fill: none; stroke: #000000; stroke-opacity: 0.45; stroke-width: 0.824264"/>
    <path d="M 221.136158 360.866753 
L 329.524496 417.617135 
" clip-path="url(#p205a3bda01)" style="fill: none; stroke: #000000; stroke-opacity: 0.45; stroke-width: 1.134847"/>
    <path d="M 92.948372 267.444021 
L 188.053516 357.621961 
" clip-path="url(#p205a3bda01)" style="fill: none; stroke: #000000; stroke-opacity: 0.45; stroke-width: 1.481665"/>
    <path d="M 92.948372 267.444021 
L 206.707093 364.760038 
" clip-path="url(#p205a3bda01)" style="fill: none; stroke: #000000; stroke-opacity: 0.45"/>
    <path d="M 92.948372 267.444021 
L 224.41916 373.530358 
" clip-path="url(#p205a3bda01)" style="fill: none; stroke: #000000; stroke-opacity: 0.45; stroke-width: 1.3"/>
    <path d="M 92.948372 267.444021 
L 175.341919 383.381008 
" clip-path="url(#p205a3bda01)" style="fill: none; stroke: #000000; stroke-opacity: 0.45; stroke-width: 0.7"/>
    <path d="M 92.948372 267.444021 
L 200.096471 379.298225 
" clip-path="url(#p205a3bda01)" style="fill: none; stroke: #000000; stroke-opacity: 0.45"/>
    <path d="M 92.948372 267.444021 
L 178.087256 417.775758 
" clip-path="url(#p205a3bda01)" style="fill: none; stroke: #000000; stroke-opacity: 0.45; stroke-width: 0.824264"/>
    <path d="M 92.948372 267.444021 
L 123.292693 347.594403 
" clip-path="url(#p205a3bda01)" style="fill: none; stroke: #000000; stroke-opacity: 0.45; stroke-width: 1.07082"/>
    <path d="M 92.948372 267.444021 
L 207.902585 403.378382 
" clip-path="url(#p205a3bda01)" style="fill: none; stroke: #000000; stroke-opacity: 0.45; stroke-width: 0.824264"/>
    <path d="M 92.948372 267.444021 
L 193.544898 396.180332 
" clip-path="url(#p205a3bda01)" style="fill: none; stroke: #000000; stroke-opacity: 0.45; stroke-width: 0.919615"/>
    <path d="M 92.948372 267.444021 
L 178.875494 331.232514 
" clip-path="url(#p205a3bda01)" style="fill: none; stroke: #000000; stroke-opacity: 0.45; stroke-width: 0.7"/>
    <path d="M 175.341919 383.381008 
L 206.707093 364.760038 
" clip-path="url(#p205a3bda01)" style="fill: none; stroke: #000000; stroke-opacity: 0.45; stroke-width: 4.288444"/>
    <path d="M 175.341919 383.381008 
L 188.053516 357.621961 
" clip-path="url(#p205a3bda01)" style="fill: none; stroke: #000000; stroke-opacity: 0.45; stroke-width: 3.459412"/>
    <path d="M 175.341919 383.381008 
L 193.544898 396.180332 
" clip-path="url(#p205a3bda01)" style="fill: none; stroke: #000000; stroke-opacity: 0.45; stroke-width: 5.076537"/>
    <path d="M 175.341919 383.381008 
L 230.6379 391.938174 
" clip-path="url(#p205a3bda01)" style="fill: none; stroke: #000000; stroke-opacity: 0.45; stroke-width: 3.116616"/>
    <path d="M 175.341919 383.381008 
L 224.41916 373.530358 
" clip-path="url(#p205a3bda01)" style="fill: none; stroke: #000000; stroke-opacity: 0.45; stroke-width: 3.517691"/>
    <path d="M 175.341919 383.381008 
L 200.096471 379.298225 
" clip-path="url(#p205a3bda01)" style="fill: none; stroke: #000000; stroke-opacity: 0.45; stroke-width: 4.513393"/>
    <path d="M 175.341919 383.381008 
L 207.902585 403.378382 
" clip-path="url(#p205a3bda01)" style="fill: none; stroke: #000000; stroke-opacity: 0.45; stroke-width: 3.116616"/>
    <path d="M 175.341919 383.381008 
L 178.875494 331.232514 
" clip-path="url(#p205a3bda01)" style="fill: none; stroke: #000000; stroke-opacity: 0.45; stroke-width: 1.9"/>
    <path d="M 175.341919 383.381008 
L 213.77355 331.410305 
" clip-path="url(#p205a3bda01)" style="fill: none; stroke: #000000; stroke-opacity: 0.45; stroke-width: 2.344222"/>
    <path d="M 175.341919 383.381008 
L 178.087256 417.775758 
" clip-path="url(#p205a3bda01)" style="fill: none; stroke: #000000; stroke-opacity: 0.45; stroke-width: 2.963201"/>
    <path d="M 175.341919 383.381008 
L 206.231407 451.338843 
" clip-path="url(#p205a3bda01)" style="fill: none; stroke: #000000; stroke-opacity: 0.45; stroke-width: 1.07082"/>
    <path d="M 175.341919 383.381008 
L 123.292693 347.594403 
" clip-path="url(#p205a3bda01)" style="fill: none; stroke: #000000; stroke-opacity: 0.45; stroke-width: 1.3"/>
    <path d="M 175.341919 383.381008 
L 65.157025 354.168025 
" clip-path="url(#p205a3bda01)" style="fill: none; stroke: #000000; stroke-opacity: 0.45; stroke-width: 0.919615"/>
    <path d="M 175.341919 383.381008 
L 322.077846 345.570718 
" clip-path="url(#p205a3bda01)" style="fill: none; stroke: #000000; stroke-opacity: 0.45; stroke-width: 0.824264"/>
    <path d="M 175.341919 383.381008 
L 286.097242 362.621661 
" clip-path="url(#p205a3bda01)" style="fill: none; stroke: #000000; stroke-opacity: 0.45; stroke-width: 1.07082"/>
    <path d="M 175.341919 383.381008 
L 329.524496 417.617135 
" clip-path="url(#p205a3bda01)" style="fill: none; stroke: #000000; stroke-opacity: 0.45; stroke-width: 0.919615"/>
    <path d="M 213.77355 331.410305 
L 188.053516 357.621961 
" clip-path="url(#p205a3bda01)" style="fill: none; stroke: #000000; stroke-opacity: 0.45; stroke-width: 2.123369"/>
    <path d="M 213.77355 331.410305 
L 206.707093 364.760038 
" clip-path="url(#p205a3bda01)" style="fill: none; stroke: #000000; stroke-opacity: 0.45; stroke-width: 3.589044"/>
    <path d="M 213.77355 331.410305 
L 207.902585 403.378382 
" clip-path="url(#p205a3bda01)" style="fill: none; stroke: #000000; stroke-opacity: 0.45; stroke-width: 1.869694"/>
    <path d="M 213.77355 331.410305 
L 200.096471 379.298225 
" clip-path="url(#p205a3bda01)" style="fill: none; stroke: #000000; stroke-opacity: 0.45; stroke-width: 3.015339"/>
    <path d="M 213.77355 331.410305 
L 178.875494 331.232514 
" clip-path="url(#p205a3bda01)" style="fill: none; stroke: #000000; stroke-opacity: 0.45; stroke-width: 2.097056"/>
    <path d="M 213.77355 331.410305 
L 224.41916 373.530358 
" clip-path="url(#p205a3bda01)" style="fill: none; stroke: #000000; stroke-opacity: 0.45; stroke-width: 1.9"/>
    <path d="M 213.77355 331.410305 
L 230.6379 391.938174 
" clip-path="url(#p205a3bda01)" style="fill: none; stroke: #000000; stroke-opacity: 0.45; stroke-width: 2.344222"/>
    <path d="M 213.77355 331.410305 
L 322.077846 345.570718 
" clip-path="url(#p205a3bda01)" style="fill: none; stroke: #000000; stroke-opacity: 0.45; stroke-width: 1.134847"/>
    <path d="M 213.77355 331.410305 
L 178.087256 417.775758 
" clip-path="url(#p205a3bda01)" style="fill: none; stroke: #000000; stroke-opacity: 0.45; stroke-width: 1.348683"/>
    <path d="M 213.77355 331.410305 
L 193.544898 396.180332 
" clip-path="url(#p205a3bda01)" style="fill: none; stroke: #000000; stroke-opacity: 0.45; stroke-width: 2.015549"/>
    <path d="M 213.77355 331.410305 
L 286.097242 362.621661 
" clip-path="url(#p205a3bda01)" style="fill: none; stroke: #000000; stroke-opacity: 0.45; stroke-width: 1.193725"/>
    <path d="M 213.77355 331.410305 
L 65.157025 354.168025 
" clip-path="url(#p205a3bda01)" style="fill: none; stroke: #000000; stroke-opacity: 0.45; stroke-width: 1.134847"/>
    <path d="M 213.77355 331.410305 
L 123.292693 347.594403 
" clip-path="url(#p205a3bda01)" style="fill: none; stroke: #000000; stroke-opacity: 0.45; stroke-width: 1.193725"/>
    <path d="M 206.231407 451.338843 
L 207.902585 403.378382 
" clip-path="url(#p205a3bda01)" style="fill: none; stroke: #000000; stroke-opacity: 0.45; stroke-width: 2.837212"/>
    <path d="M 206.231407 451.338843 
L 193.544898 396.180332 
" clip-path="url(#p205a3bda01)" style="fill: none; stroke: #000000; stroke-opacity: 0.45; stroke-width: 3.1"/>
    <path d="M 206.231407 451.338843 
L 230.6379 391.938174 
" clip-path="url(#p205a3bda01)" style="fill: none; stroke: #000000; stroke-opacity: 0.45; stroke-width: 1.481665"/>
    <path d="M 206.231407 451.338843 
L 224.41916 373.530358 
" clip-path="url(#p205a3bda01)" style="fill: none; stroke: #000000; stroke-opacity: 0.45; stroke-width: 1.481665"/>
    <path d="M 206.231407 451.338843 
L 188.053516 357.621961 
" clip-path="url(#p205a3bda01)" style="fill: none; stroke: #000000; stroke-opacity: 0.45; stroke-width: 1.248528"/>
    <path d="M 206.231407 451.338843 
L 286.097242 362.621661 
" clip-path="url(#p205a3bda01)" style="fill: none; stroke: #000000; stroke-opacity: 0.45; stroke-width: 0.7"/>
    <path d="M 206.231407 451.338843 
L 178.087256 417.775758 
" clip-path="url(#p205a3bda01)" style="fill: none; stroke: #000000; stroke-opacity: 0.45; stroke-width: 2.412461"/>
    <path d="M 206.231407 451.338843 
L 200.096471 379.298225 
" clip-path="url(#p205a3bda01)" style="fill: none; stroke: #000000; stroke-opacity: 0.45; stroke-width: 1.987451"/>
    <path d="M 206.231407 451.338843 
L 65.157025 354.168025 
" clip-path="url(#p205a3bda01)" style="fill: none; stroke: #000000; stroke-opacity: 0.45; stroke-width: 0.824264"/>
    <path d="M 206.231407 451.338843 
L 322.077846 345.570718 
" clip-path="url(#p205a3bda01)" style="fill: none; stroke: #000000; stroke-opacity: 0.45; stroke-width: 0.824264"/>
    <path d="M 206.231407 451.338843 
L 206.707093 364.760038 
" clip-path="url(#p205a3bda01)" style="fill: none; stroke: #000000; stroke-opacity: 0.45; stroke-width: 1.3"/>
    <path d="M 206.231407 451.338843 
L 178.875494 331.232514 
" clip-path="url(#p205a3bda01)" style="fill: none; stroke: #000000; stroke-opacity: 0.45; stroke-width: 0.7"/>
    <path d="M 206.231407 451.338843 
L 329.524496 417.617135 
" clip-path="url(#p205a3bda01)" style="fill: none; stroke: #000000; stroke-opacity: 0.45; stroke-width: 0.7"/>
    <path d="M 322.077846 345.570718 
L 224.41916 373.530358 
" clip-path="url(#p205a3bda01)" style="fill: none; stroke: #000000; stroke-opacity: 0.45; stroke-width: 1.561895"/>
    <path d="M 322.077846 345.570718 
L 188.053516 357.621961 
" clip-path="url(#p205a3bda01)" style="fill: none; stroke: #000000; stroke-opacity: 0.45; stroke-width: 1.134847"/>
    <path d="M 322.077846 345.570718 
L 178.875494 331.232514 
" clip-path="url(#p205a3bda01)" style="fill: none; stroke: #000000; stroke-opacity: 0.45; stroke-width: 0.824264"/>
    <path d="M 322.077846 345.570718 
L 230.6379 391.938174 
" clip-path="url(#p205a3bda01)" style="fill: none; stroke: #000000; stroke-opacity: 0.45; stroke-width: 1.394987"/>
    <path d="M 322.077846 345.570718 
L 207.902585 403.378382 
" clip-path="url(#p205a3bda01)" style="fill: none; stroke: #000000; stroke-opacity: 0.45; stroke-width: 0.919615"/>
    <path d="M 322.077846 345.570718 
L 193.544898 396.180332 
" clip-path="url(#p205a3bda01)" style="fill: none; stroke: #000000; stroke-opacity: 0.45; stroke-width: 1.248528"/>
    <path d="M 322.077846 345.570718 
L 200.096471 379.298225 
" clip-path="url(#p205a3bda01)" style="fill: none; stroke: #000000; stroke-opacity: 0.45; stroke-width: 1.636932"/>
    <path d="M 322.077846 345.570718 
L 206.707093 364.760038 
" clip-path="url(#p205a3bda01)" style="fill: none; stroke: #000000; stroke-opacity: 0.45; stroke-width: 1.70767"/>
    <path d="M 322.077846 345.570718 
L 329.524496 417.617135 
" clip-path="url(#p205a3bda01)" style="fill: none; stroke: #000000; stroke-opacity: 0.45; stroke-width: 1.248528"/>
    <path d="M 322.077846 345.570718 
L 123.292693 347.594403 
" clip-path="url(#p205a3bda01)" style="fill: none; stroke: #000000; stroke-opacity: 0.45; stroke-width: 0.7"/>
    <path d="M 329.524496 417.617135 
L 200.096471 379.298225 
" clip-path="url(#p205a3bda01)" style="fill: none; stroke: #000000; stroke-opacity: 0.45; stroke-width: 1.636932"/>
    <path d="M 329.524496 417.617135 
L 206.707093 364.760038 
" clip-path="url(#p205a3bda01)" style="fill: none; stroke: #000000; stroke-opacity: 0.45; stroke-width: 1.807125"/>
    <path d="M 329.524496 417.617135 
L 224.41916 373.530358 
" clip-path="url(#p205a3bda01)" style="fill: none; stroke: #000000; stroke-opacity: 0.45; stroke-width: 1.348683"/>
    <path d="M 329.524496 417.617135 
L 193.544898 396.180332 
" clip-path="url(#p205a3bda01)" style="fill: none; stroke: #000000; stroke-opacity: 0.45; stroke-width: 1.07082"/>
    <path d="M 329.524496 417.617135 
L 178.875494 331.232514 
" clip-path="url(#p205a3bda01)" style="fill: none; stroke: #000000; stroke-opacity: 0.45; stroke-width: 0.919615"/>
    <path d="M 329.524496 417.617135 
L 178.087256 417.775758 
" clip-path="url(#p205a3bda01)" style="fill: none; stroke: #000000; stroke-opacity: 0.45"/>
    <path d="M 329.524496 417.617135 
L 207.902585 403.378382 
" clip-path="url(#p205a3bda01)" style="fill: none; stroke: #000000; stroke-opacity: 0.45; stroke-width: 0.7"/>
    <path d="M 207.902585 403.378382 
L 193.544898 396.180332 
" clip-path="url(#p205a3bda01)" style="fill: none; stroke: #000000; stroke-opacity: 0.45; stroke-width: 4.768066"/>
    <path d="M 207.902585 403.378382 
L 230.6379 391.938174 
" clip-path="url(#p205a3bda01)" style="fill: none; stroke: #000000; stroke-opacity: 0.45; stroke-width: 2.998076"/>
    <path d="M 207.902585 403.378382 
L 224.41916 373.530358 
" clip-path="url(#p205a3bda01)" style="fill: none; stroke: #000000; stroke-opacity: 0.45; stroke-width: 3.503224"/>
    <path d="M 207.902585 403.378382 
L 188.053516 357.621961 
" clip-path="url(#p205a3bda01)" style="fill: none; stroke: #000000; stroke-opacity: 0.45; stroke-width: 3.308608"/>
    <path d="M 207.902585 403.378382 
L 286.097242 362.621661 
" clip-path="url(#p205a3bda01)" style="fill: none; stroke: #000000; stroke-opacity: 0.45; stroke-width: 1.193725"/>
    <path d="M 207.902585 403.378382 
L 200.096471 379.298225 
" clip-path="url(#p205a3bda01)" style="fill: none; stroke: #000000; stroke-opacity: 0.45; stroke-width: 3.949648"/>
    <path d="M 207.902585 403.378382 
L 206.707093 364.760038 
" clip-path="url(#p205a3bda01)" style="fill: none; stroke: #000000; stroke-opacity: 0.45; stroke-width: 3.459412"/>
    <path d="M 207.902585 403.378382 
L 178.875494 331.232514 
" clip-path="url(#p205a3bda01)" style="fill: none; stroke: #000000; stroke-opacity: 0.45; stroke-width: 1.561895"/>
    <path d="M 207.902585 403.378382 
L 178.087256 417.775758 
" clip-path="url(#p205a3bda01)" style="fill: none; stroke: #000000; stroke-opacity: 0.45; stroke-width: 3.049528"/>
    <path d="M 207.902585 403.378382 
L 65.157025 354.168025 
" clip-path="url(#p205a3bda01)" style="fill: none; stroke: #000000; stroke-opacity: 0.45; stroke-width: 1.07082"/>
    <path d="M 207.902585 403.378382 
L 123.292693 347.594403 
" clip-path="url(#p205a3bda01)" style="fill: none; stroke: #000000; stroke-opacity: 0.45; stroke-width: 1.248528"/>
    <path d="M 178.087256 417.775758 
L 230.6379 391.938174 
" clip-path="url(#p205a3bda01)" style="fill: none; stroke: #000000; stroke-opacity: 0.45; stroke-width: 2.015549"/>
    <path d="M 178.087256 417.775758 
L 193.544898 396.180332 
" clip-path="url(#p205a3bda01)" style="fill: none; stroke: #000000; stroke-opacity: 0.45; stroke-width: 4"/>
    <path d="M 178.087256 417.775758 
L 224.41916 373.530358 
" clip-path="url(#p205a3bda01)" style="fill: none; stroke: #000000; stroke-opacity: 0.45; stroke-width: 2.412461"/>
    <path d="M 178.087256 417.775758 
L 200.096471 379.298225 
" clip-path="url(#p205a3bda01)" style="fill: none; stroke: #000000; stroke-opacity: 0.45; stroke-width: 3.049528"/>
    <path d="M 178.087256 417.775758 
L 65.157025 354.168025 
" clip-path="url(#p205a3bda01)" style="fill: none; stroke: #000000; stroke-opacity: 0.45; stroke-width: 0.824264"/>
    <path d="M 178.087256 417.775758 
L 286.097242 362.621661 
" clip-path="url(#p205a3bda01)" style="fill: none; stroke: #000000; stroke-opacity: 0.45; stroke-width: 0.824264"/>
    <path d="M 178.087256 417.775758 
L 188.053516 357.621961 
" clip-path="url(#p205a3bda01)" style="fill: none; stroke: #000000; stroke-opacity: 0.45; stroke-width: 2.174824"/>
    <path d="M 178.087256 417.775758 
L 206.707093 364.760038 
" clip-path="url(#p205a3bda01)" style="fill: none; stroke: #000000; stroke-opacity: 0.45; stroke-width: 2.412461"/>
    <path d="M 178.087256 417.775758 
L 123.292693 347.594403 
" clip-path="url(#p205a3bda01)" style="fill: none; stroke: #000000; stroke-opacity: 0.45; stroke-width: 1.672792"/>
    <path d="M 178.087256 417.775758 
L 178.875494 331.232514 
" clip-path="url(#p205a3bda01)" style="fill: none; stroke: #000000; stroke-opacity: 0.45"/>
    <path d="M 193.544898 396.180332 
L 230.6379 391.938174 
" clip-path="url(#p205a3bda01)" style="fill: none; stroke: #000000; stroke-opacity: 0.45; stroke-width: 3.354657"/>
    <path d="M 193.544898 396.180332 
L 123.292693 347.594403 
" clip-path="url(#p205a3bda01)" style="fill: none; stroke: #000000; stroke-opacity: 0.45; stroke-width: 1.70767"/>
    <path d="M 193.544898 396.180332 
L 224.41916 373.530358 
" clip-path="url(#p205a3bda01)" style="fill: none; stroke: #000000; stroke-opacity: 0.45; stroke-width: 4.170942"/>
    <path d="M 193.544898 396.180332 
L 188.053516 357.621961 
" clip-path="url(#p205a3bda01)" style="fill: none; stroke: #000000; stroke-opacity: 0.45; stroke-width: 4.037307"/>
    <path d="M 193.544898 396.180332 
L 286.097242 362.621661 
" clip-path="url(#p205a3bda01)" style="fill: none; stroke: #000000; stroke-opacity: 0.45; stroke-width: 1.741641"/>
    <path d="M 193.544898 396.180332 
L 200.096471 379.298225 
" clip-path="url(#p205a3bda01)" style="fill: none; stroke: #000000; stroke-opacity: 0.45; stroke-width: 4.653234"/>
    <path d="M 193.544898 396.180332 
L 206.707093 364.760038 
" clip-path="url(#p205a3bda01)" style="fill: none; stroke: #000000; stroke-opacity: 0.45; stroke-width: 3.898571"/>
    <path d="M 193.544898 396.180332 
L 178.875494 331.232514 
" clip-path="url(#p205a3bda01)" style="fill: none; stroke: #000000; stroke-opacity: 0.45; stroke-width: 1.958846"/>
    <path d="M 193.544898 396.180332 
L 65.157025 354.168025 
" clip-path="url(#p205a3bda01)" style="fill: none; stroke: #000000; stroke-opacity: 0.45; stroke-width: 1.07082"/>
    <path d="M 230.6379 391.938174 
L 123.292693 347.594403 
" clip-path="url(#p205a3bda01)" style="fill: none; stroke: #000000; stroke-opacity: 0.45; stroke-width: 1.348683"/>
    <path d="M 230.6379 391.938174 
L 224.41916 373.530358 
" clip-path="url(#p205a3bda01)" style="fill: none; stroke: #000000; stroke-opacity: 0.45; stroke-width: 2.873863"/>
    <path d="M 230.6379 391.938174 
L 188.053516 357.621961 
" clip-path="url(#p205a3bda01)" style="fill: none; stroke: #000000; stroke-opacity: 0.45; stroke-width: 2.743075"/>
    <path d="M 230.6379 391.938174 
L 286.097242 362.621661 
" clip-path="url(#p205a3bda01)" style="fill: none; stroke: #000000; stroke-opacity: 0.45; stroke-width: 1.193725"/>
    <path d="M 230.6379 391.938174 
L 200.096471 379.298225 
" clip-path="url(#p205a3bda01)" style="fill: none; stroke: #000000; stroke-opacity: 0.45; stroke-width: 3.859769"/>
    <path d="M 230.6379 391.938174 
L 206.707093 364.760038 
" clip-path="url(#p205a3bda01)" style="fill: none; stroke: #000000; stroke-opacity: 0.45; stroke-width: 3.987478"/>
    <path d="M 230.6379 391.938174 
L 178.875494 331.232514 
" clip-path="url(#p205a3bda01)" style="fill: none; stroke: #000000; stroke-opacity: 0.45; stroke-width: 2.174824"/>
    <path d="M 230.6379 391.938174 
L 65.157025 354.168025 
" clip-path="url(#p205a3bda01)" style="fill: none; stroke: #000000; stroke-opacity: 0.45; stroke-width: 0.919615"/>
    <path d="M 224.41916 373.530358 
L 188.053516 357.621961 
" clip-path="url(#p205a3bda01)" style="fill: none; stroke: #000000; stroke-opacity: 0.45; stroke-width: 5.008687"/>
    <path d="M 224.41916 373.530358 
L 286.097242 362.621661 
" clip-path="url(#p205a3bda01)" style="fill: none; stroke: #000000; stroke-opacity: 0.45; stroke-width: 2.123369"/>
    <path d="M 224.41916 373.530358 
L 200.096471 379.298225 
" clip-path="url(#p205a3bda01)" style="fill: none; stroke: #000000; stroke-opacity: 0.45; stroke-width: 6.240377"/>
    <path d="M 224.41916 373.530358 
L 206.707093 364.760038 
" clip-path="url(#p205a3bda01)" style="fill: none; stroke: #000000; stroke-opacity: 0.45; stroke-width: 5.604805"/>
    <path d="M 224.41916 373.530358 
L 178.875494 331.232514 
" clip-path="url(#p205a3bda01)" style="fill: none; stroke: #000000; stroke-opacity: 0.45; stroke-width: 2.273499"/>
    <path d="M 224.41916 373.530358 
L 123.292693 347.594403 
" clip-path="url(#p205a3bda01)" style="fill: none; stroke: #000000; stroke-opacity: 0.45; stroke-width: 1.672792"/>
    <path d="M 224.41916 373.530358 
L 65.157025 354.168025 
" clip-path="url(#p205a3bda01)" style="fill: none; stroke: #000000; stroke-opacity: 0.45; stroke-width: 0.824264"/>
    <path d="M 178.875494 331.232514 
L 206.707093 364.760038 
" clip-path="url(#p205a3bda01)" style="fill: none; stroke: #000000; stroke-opacity: 0.45; stroke-width: 3.116616"/>
    <path d="M 178.875494 331.232514 
L 188.053516 357.621961 
" clip-path="url(#p205a3bda01)" style="fill: none; stroke: #000000; stroke-opacity: 0.45; stroke-width: 2.367232"/>
    <path d="M 178.875494 331.232514 
L 200.096471 379.298225 
" clip-path="url(#p205a3bda01)" style="fill: none; stroke: #000000; stroke-opacity: 0.45; stroke-width: 3.066458"/>
    <path d="M 178.875494 331.232514 
L 286.097242 362.621661 
" clip-path="url(#p205a3bda01)" style="fill: none; stroke: #000000; stroke-opacity: 0.45"/>
    <path d="M 178.875494 331.232514 
L 65.157025 354.168025 
" clip-path="url(#p205a3bda01)" style="fill: none; stroke: #000000; stroke-opacity: 0.45; stroke-width: 1.522497"/>
    <path d="M 178.875494 331.232514 
L 123.292693 347.594403 
" clip-path="url(#p205a3bda01)" style="fill: none; stroke: #000000; stroke-opacity: 0.45; stroke-width: 1.248528"/>
    <path d="M 65.157025 354.168025 
L 200.096471 379.298225 
" clip-path="url(#p205a3bda01)" style="fill: none; stroke: #000000; stroke-opacity: 0.45; stroke-width: 1.248528"/>
    <path d="M 65.157025 354.168025 
L 206.707093 364.760038 
" clip-path="url(#p205a3bda01)" style="fill: none; stroke: #000000; stroke-opacity: 0.45; stroke-width: 1.481665"/>
    <path d="M 65.157025 354.168025 
L 123.292693 347.594403 
" clip-path="url(#p205a3bda01)" style="fill: none; stroke: #000000; stroke-opacity: 0.45; stroke-width: 0.824264"/>
    <path d="M 65.157025 354.168025 
L 188.053516 357.621961 
" clip-path="url(#p205a3bda01)" style="fill: none; stroke: #000000; stroke-opacity: 0.45; stroke-width: 0.824264"/>
    <path d="M 188.053516 357.621961 
L 286.097242 362.621661 
" clip-path="url(#p205a3bda01)" style="fill: none; stroke: #000000; stroke-opacity: 0.45; stroke-width: 1.838749"/>
    <path d="M 188.053516 357.621961 
L 200.096471 379.298225 
" clip-path="url(#p205a3bda01)" style="fill: none; stroke: #000000; stroke-opacity: 0.45; stroke-width: 4.610701"/>
    <path d="M 188.053516 357.621961 
L 206.707093 364.760038 
" clip-path="url(#p205a3bda01)" style="fill: none; stroke: #000000; stroke-opacity: 0.45; stroke-width: 4.458325"/>
    <path d="M 188.053516 357.621961 
L 123.292693 347.594403 
" clip-path="url(#p205a3bda01)" style="fill: none; stroke: #000000; stroke-opacity: 0.45; stroke-width: 2.070329"/>
    <path d="M 200.096471 379.298225 
L 286.097242 362.621661 
" clip-path="url(#p205a3bda01)" style="fill: none; stroke: #000000; stroke-opacity: 0.45; stroke-width: 2.070329"/>
    <path d="M 200.096471 379.298225 
L 206.707093 364.760038 
" clip-path="url(#p205a3bda01)" style="fill: none; stroke: #000000; stroke-opacity: 0.45; stroke-width: 7.649828"/>
    <path d="M 200.096471 379.298225 
L 123.292693 347.594403 
" clip-path="url(#p205a3bda01)" style="fill: none; stroke: #000000; stroke-opacity: 0.45; stroke-width: 2.5"/>
    <path d="M 206.707093 364.760038 
L 286.097242 362.621661 
" clip-path="url(#p205a3bda01)" style="fill: none; stroke: #000000; stroke-opacity: 0.45; stroke-width: 2.097056"/>
    <path d="M 206.707093 364.760038 
L 123.292693 347.594403 
" clip-path="url(#p205a3bda01)" style="fill: none; stroke: #000000; stroke-opacity: 0.45; stroke-width: 2.367232"/>
   </g>
   <g id="PathCollection_1">
    <path d="M 262.024625 324.839922 
C 265.076906 324.839922 268.004584 323.627238 270.162872 321.46895 
C 272.32116 319.310661 273.533844 316.382984 273.533844 313.330703 
C 273.533844 310.278423 272.32116 307.350745 270.162872 305.192457 
C 268.004584 303.034168 265.076906 301.821484 262.024625 301.821484 
C 258.972345 301.821484 256.044667 303.034168 253.886379 305.192457 
C 251.72809 307.350745 250.515407 310.278423 250.515407 313.330703 
C 250.515407 316.382984 251.72809 319.310661 253.886379 321.46895 
C 256.044667 323.627238 258.972345 324.839922 262.024625 324.839922 
z
" clip-path="url(#p205a3bda01)" style="fill: #4c72b0; stroke: #ffffff; stroke-width: 1.5"/>
    <path d="M 232.59867 61.027757 
C 234.817518 61.027757 236.945787 60.1462 238.514749 58.577237 
C 240.083712 57.008274 240.96527 54.880005 240.96527 52.661157 
C 240.96527 50.442309 240.083712 48.31404 238.514749 46.745077 
C 236.945787 45.176115 234.817518 44.294557 232.59867 44.294557 
C 230.379821 44.294557 228.251553 45.176115 226.68259 46.745077 
C 225.113627 48.31404 224.232069 50.442309 224.232069 52.661157 
C 224.232069 54.880005 225.113627 57.008274 226.68259 58.577237 
C 228.251553 60.1462 230.379821 61.027757 232.59867 61.027757 
z
" clip-path="url(#p205a3bda01)" style="fill: #4c72b0; stroke: #ffffff; stroke-width: 1.5"/>
    <path d="M 154.429578 387.05471 
C 158.71948 387.05471 162.834256 385.350313 165.867675 382.316895 
C 168.901093 379.283476 170.60549 375.1687 170.60549 370.878798 
C 170.60549 366.588896 168.901093 362.47412 165.867675 359.440702 
C 162.834256 356.407283 158.71948 354.702887 154.429578 354.702887 
C 150.139676 354.702887 146.0249 356.407283 142.991482 359.440702 
C 139.958063 362.47412 138.253667 366.588896 138.253667 370.878798 
C 138.253667 375.1687 139.958063 379.283476 142.991482 382.316895 
C 146.0249 385.350313 150.139676 387.05471 154.429578 387.05471 
z
" clip-path="url(#p205a3bda01)" style="fill: #4c72b0; stroke: #ffffff; stroke-width: 1.5"/>
    <path d="M 243.9158 435.154714 
C 247.663208 435.154714 251.257636 433.665853 253.907454 431.016035 
C 256.557271 428.366218 258.046132 424.771789 258.046132 421.024381 
C 258.046132 417.276973 256.557271 413.682545 253.907454 411.032728 
C 251.257636 408.38291 247.663208 406.894049 243.9158 406.894049 
C 240.168392 406.894049 236.573963 408.38291 233.924146 411.032728 
C 231.274328 413.682545 229.785467 417.276973 229.785467 421.024381 
C 229.785467 424.771789 231.274328 428.366218 233.924146 431.016035 
C 236.573963 433.665853 240.168392 435.154714 243.9158 435.154714 
z
" clip-path="url(#p205a3bda01)" style="fill: #4c72b0; stroke: #ffffff; stroke-width: 1.5"/>
    <path d="M 582.842975 404.150278 
C 585.061824 404.150278 587.190092 403.26872 588.759055 401.699758 
C 590.328018 400.130795 591.209575 398.002526 591.209575 395.783678 
C 591.209575 393.564829 590.328018 391.436561 588.759055 389.867598 
C 587.190092 388.298635 585.061824 387.417078 582.842975 387.417078 
C 580.624127 387.417078 578.495858 388.298635 576.926895 389.867598 
C 575.357933 391.436561 574.476375 393.564829 574.476375 395.783678 
C 574.476375 398.002526 575.357933 400.130795 576.926895 401.699758 
C 578.495858 403.26872 580.624127 404.150278 582.842975 404.150278 
z
" clip-path="url(#p205a3bda01)" style="fill: #4c72b0; stroke: #ffffff; stroke-width: 1.5"/>
    <path d="M 156.113147 456.10065 
C 160.064998 456.10065 163.855524 454.530563 166.649904 451.736182 
C 169.444285 448.941801 171.014372 445.151276 171.014372 441.199425 
C 171.014372 437.247574 169.444285 433.457048 166.649904 430.662668 
C 163.855524 427.868287 160.064998 426.2982 156.113147 426.2982 
C 152.161296 426.2982 148.370771 427.868287 145.57639 430.662668 
C 142.782009 433.457048 141.211922 437.247574 141.211922 441.199425 
C 141.211922 445.151276 142.782009 448.941801 145.57639 451.736182 
C 148.370771 454.530563 152.161296 456.10065 156.113147 456.10065 
z
" clip-path="url(#p205a3bda01)" style="fill: #4c72b0; stroke: #ffffff; stroke-width: 1.5"/>
    <path d="M 148.308979 428.198797 
C 152.35976 428.198797 156.245177 426.589405 159.109512 423.72507 
C 161.973847 420.860735 163.583239 416.975318 163.583239 412.924537 
C 163.583239 408.873756 161.973847 404.988339 159.109512 402.124004 
C 156.245177 399.259669 152.35976 397.650277 148.308979 397.650277 
C 144.258198 397.650277 140.372781 399.259669 137.508446 402.124004 
C 134.644111 404.988339 133.034719 408.873756 133.034719 412.924537 
C 133.034719 416.975318 134.644111 420.860735 137.508446 423.72507 
C 140.372781 426.589405 144.258198 428.198797 148.308979 428.198797 
z
" clip-path="url(#p205a3bda01)" style="fill: #4c72b0; stroke: #ffffff; stroke-width: 1.5"/>
    <path d="M 221.136158 380.494822 
C 226.341583 380.494822 231.334508 378.426685 235.015299 374.745894 
C 238.69609 371.065103 240.764227 366.072178 240.764227 360.866753 
C 240.764227 355.661328 238.69609 350.668404 235.015299 346.987612 
C 231.334508 343.306821 226.341583 341.238684 221.136158 341.238684 
C 215.930733 341.238684 210.937809 343.306821 207.257017 346.987612 
C 203.576226 350.668404 201.508089 355.661328 201.508089 360.866753 
C 201.508089 366.072178 203.576226 371.065103 207.257017 374.745894 
C 210.937809 378.426685 215.930733 380.494822 221.136158 380.494822 
z
" clip-path="url(#p205a3bda01)" style="fill: #4c72b0; stroke: #ffffff; stroke-width: 1.5"/>
    <path d="M 92.948372 276.930854 
C 95.464309 276.930854 97.877539 275.931261 99.656576 274.152225 
C 101.435612 272.373188 102.435205 269.959958 102.435205 267.444021 
C 102.435205 264.928083 101.435612 262.514853 99.656576 260.735817 
C 97.877539 258.95678 95.464309 257.957188 92.948372 257.957188 
C 90.432434 257.957188 88.019204 258.95678 86.240168 260.735817 
C 84.461132 262.514853 83.461539 264.928083 83.461539 267.444021 
C 83.461539 269.959958 84.461132 272.373188 86.240168 274.152225 
C 88.019204 275.931261 90.432434 276.930854 92.948372 276.930854 
z
" clip-path="url(#p205a3bda01)" style="fill: #4c72b0; stroke: #ffffff; stroke-width: 1.5"/>
    <path d="M 175.341919 402.932605 
C 180.527064 402.932605 185.500536 400.872526 189.166986 397.206075 
C 192.833437 393.539624 194.893517 388.566152 194.893517 383.381008 
C 194.893517 378.195864 192.833437 373.222392 189.166986 369.555941 
C 185.500536 365.88949 180.527064 363.829411 175.341919 363.829411 
C 170.156775 363.829411 165.183303 365.88949 161.516852 369.555941 
C 157.850402 373.222392 155.790322 378.195864 155.790322 383.381008 
C 155.790322 388.566152 157.850402 393.539624 161.516852 397.206075 
C 165.183303 400.872526 170.156775 402.932605 175.341919 402.932605 
z
" clip-path="url(#p205a3bda01)" style="fill: #4c72b0; stroke: #ffffff; stroke-width: 1.5"/>
    <path d="M 213.77355 346.961294 
C 217.89772 346.961294 221.853531 345.322744 224.769759 342.406515 
C 227.685988 339.490286 229.324539 335.534476 229.324539 331.410305 
C 229.324539 327.286135 227.685988 323.330325 224.769759 320.414096 
C 221.853531 317.497867 217.89772 315.859316 213.77355 315.859316 
C 209.649379 315.859316 205.693569 317.497867 202.77734 320.414096 
C 199.861111 323.330325 198.222561 327.286135 198.222561 331.410305 
C 198.222561 335.534476 199.861111 339.490286 202.77734 342.406515 
C 205.693569 345.322744 209.649379 346.961294 213.77355 346.961294 
z
" clip-path="url(#p205a3bda01)" style="fill: #4c72b0; stroke: #ffffff; stroke-width: 1.5"/>
    <path d="M 206.231407 465.2752 
C 209.927372 465.2752 213.472458 463.806778 216.0859 461.193336 
C 218.699342 458.579894 220.167764 455.034808 220.167764 451.338843 
C 220.167764 447.642878 218.699342 444.097792 216.0859 441.48435 
C 213.472458 438.870908 209.927372 437.402486 206.231407 437.402486 
C 202.535442 437.402486 198.990356 438.870908 196.376914 441.48435 
C 193.763472 444.097792 192.29505 447.642878 192.29505 451.338843 
C 192.29505 455.034808 193.763472 458.579894 196.376914 461.193336 
C 198.990356 463.806778 202.535442 465.2752 206.231407 465.2752 
z
" clip-path="url(#p205a3bda01)" style="fill: #4c72b0; stroke: #ffffff; stroke-width: 1.5"/>
    <path d="M 322.077846 357.379304 
C 325.209519 357.379304 328.21335 356.135077 330.427777 353.920649 
C 332.642205 351.706222 333.886432 348.702392 333.886432 345.570718 
C 333.886432 342.439044 332.642205 339.435214 330.427777 337.220786 
C 328.21335 335.006358 325.209519 333.762131 322.077846 333.762131 
C 318.946172 333.762131 315.942342 335.006358 313.727914 337.220786 
C 311.513486 339.435214 310.269259 342.439044 310.269259 345.570718 
C 310.269259 348.702392 311.513486 351.706222 313.727914 353.920649 
C 315.942342 356.135077 318.946172 357.379304 322.077846 357.379304 
z
" clip-path="url(#p205a3bda01)" style="fill: #4c72b0; stroke: #ffffff; stroke-width: 1.5"/>
    <path d="M 329.524496 429.425722 
C 332.656169 429.425722 335.66 428.181495 337.874427 425.967067 
C 340.088855 423.752639 341.333082 420.748809 341.333082 417.617135 
C 341.333082 414.485461 340.088855 411.481631 337.874427 409.267204 
C 335.66 407.052776 332.656169 405.808549 329.524496 405.808549 
C 326.392822 405.808549 323.388992 407.052776 321.174564 409.267204 
C 318.960136 411.481631 317.715909 414.485461 317.715909 417.617135 
C 317.715909 420.748809 318.960136 423.752639 321.174564 425.967067 
C 323.388992 428.181495 326.392822 429.425722 329.524496 429.425722 
z
" clip-path="url(#p205a3bda01)" style="fill: #4c72b0; stroke: #ffffff; stroke-width: 1.5"/>
    <path d="M 207.902585 422.122191 
C 212.873501 422.122191 217.641491 420.147225 221.156459 416.632257 
C 224.671428 413.117288 226.646394 408.349299 226.646394 403.378382 
C 226.646394 398.407466 224.671428 393.639476 221.156459 390.124508 
C 217.641491 386.609539 212.873501 384.634573 207.902585 384.634573 
C 202.931669 384.634573 198.163679 386.609539 194.64871 390.124508 
C 191.133742 393.639476 189.158776 398.407466 189.158776 403.378382 
C 189.158776 408.349299 191.133742 413.117288 194.64871 416.632257 
C 198.163679 420.147225 202.931669 422.122191 207.902585 422.122191 
z
" clip-path="url(#p205a3bda01)" style="fill: #4c72b0; stroke: #ffffff; stroke-width: 1.5"/>
    <path d="M 178.087256 434.423771 
C 182.502361 434.423771 186.737229 432.669631 189.859179 429.547681 
C 192.98113 426.42573 194.735269 422.190863 194.735269 417.775758 
C 194.735269 413.360653 192.98113 409.125786 189.859179 406.003835 
C 186.737229 402.881885 182.502361 401.127745 178.087256 401.127745 
C 173.672152 401.127745 169.437284 402.881885 166.315334 406.003835 
C 163.193383 409.125786 161.439244 413.360653 161.439244 417.775758 
C 161.439244 422.190863 163.193383 426.42573 166.315334 429.547681 
C 169.437284 432.669631 173.672152 434.423771 178.087256 434.423771 
z
" clip-path="url(#p205a3bda01)" style="fill: #4c72b0; stroke: #ffffff; stroke-width: 1.5"/>
    <path d="M 193.544898 417.358084 
C 199.161303 417.358084 204.548432 415.126663 208.51983 411.155264 
C 212.491228 407.183866 214.72265 401.796738 214.72265 396.180332 
C 214.72265 390.563927 212.491228 385.176799 208.51983 381.2054 
C 204.548432 377.234002 199.161303 375.00258 193.544898 375.00258 
C 187.928493 375.00258 182.541364 377.234002 178.569966 381.2054 
C 174.598568 385.176799 172.367146 390.563927 172.367146 396.180332 
C 172.367146 401.796738 174.598568 407.183866 178.569966 411.155264 
C 182.541364 415.126663 187.928493 417.358084 193.544898 417.358084 
z
" clip-path="url(#p205a3bda01)" style="fill: #4c72b0; stroke: #ffffff; stroke-width: 1.5"/>
    <path d="M 230.6379 409.501117 
C 235.295646 409.501117 239.763251 407.650574 243.056776 404.35705 
C 246.3503 401.063526 248.200842 396.595921 248.200842 391.938174 
C 248.200842 387.280427 246.3503 382.812822 243.056776 379.519298 
C 239.763251 376.225774 235.295646 374.375231 230.6379 374.375231 
C 225.980153 374.375231 221.512548 376.225774 218.219024 379.519298 
C 214.925499 382.812822 213.074957 387.280427 213.074957 391.938174 
C 213.074957 396.595921 214.925499 401.063526 218.219024 404.35705 
C 221.512548 407.650574 225.980153 409.501117 230.6379 409.501117 
z
" clip-path="url(#p205a3bda01)" style="fill: #4c72b0; stroke: #ffffff; stroke-width: 1.5"/>
    <path d="M 224.41916 392.749473 
C 229.516129 392.749473 234.405026 390.724426 238.009127 387.120325 
C 241.613228 383.516224 243.638275 378.627327 243.638275 373.530358 
C 243.638275 368.433389 241.613228 363.544493 238.009127 359.940391 
C 234.405026 356.33629 229.516129 354.311243 224.41916 354.311243 
C 219.322191 354.311243 214.433295 356.33629 210.829194 359.940391 
C 207.225092 363.544493 205.200045 368.433389 205.200045 373.530358 
C 205.200045 378.627327 207.225092 383.516224 210.829194 387.120325 
C 214.433295 390.724426 219.322191 392.749473 224.41916 392.749473 
z
" clip-path="url(#p205a3bda01)" style="fill: #4c72b0; stroke: #ffffff; stroke-width: 1.5"/>
    <path d="M 178.875494 346.015037 
C 182.795865 346.015037 186.556196 344.457457 189.328317 341.685336 
C 192.100438 338.913215 193.658018 335.152885 193.658018 331.232514 
C 193.658018 327.312143 192.100438 323.551812 189.328317 320.779691 
C 186.556196 318.00757 182.795865 316.449991 178.875494 316.449991 
C 174.955123 316.449991 171.194793 318.00757 168.422672 320.779691 
C 165.650551 323.551812 164.092971 327.312143 164.092971 331.232514 
C 164.092971 335.152885 165.650551 338.913215 168.422672 341.685336 
C 171.194793 344.457457 174.955123 346.015037 178.875494 346.015037 
z
" clip-path="url(#p205a3bda01)" style="fill: #4c72b0; stroke: #ffffff; stroke-width: 1.5"/>
    <path d="M 65.157025 364.95378 
C 68.01744 364.95378 70.761086 363.817324 72.783705 361.794705 
C 74.806324 359.772086 75.942779 357.028441 75.942779 354.168025 
C 75.942779 351.30761 74.806324 348.563964 72.783705 346.541345 
C 70.761086 344.518726 68.01744 343.382271 65.157025 343.382271 
C 62.296609 343.382271 59.552964 344.518726 57.530345 346.541345 
C 55.507726 348.563964 54.37127 351.30761 54.37127 354.168025 
C 54.37127 357.028441 55.507726 359.772086 57.530345 361.794705 
C 59.552964 363.817324 62.296609 364.95378 65.157025 364.95378 
z
" clip-path="url(#p205a3bda01)" style="fill: #4c72b0; stroke: #ffffff; stroke-width: 1.5"/>
    <path d="M 188.053516 375.885284 
C 192.897006 375.885284 197.542771 373.960945 200.967635 370.53608 
C 204.392499 367.111216 206.316838 362.465451 206.316838 357.621961 
C 206.316838 352.778472 204.392499 348.132707 200.967635 344.707842 
C 197.542771 341.282978 192.897006 339.358639 188.053516 339.358639 
C 183.210026 339.358639 178.564261 341.282978 175.139397 344.707842 
C 171.714533 348.132707 169.790194 352.778472 169.790194 357.621961 
C 169.790194 362.465451 171.714533 367.111216 175.139397 370.53608 
C 178.564261 373.960945 183.210026 375.885284 188.053516 375.885284 
z
" clip-path="url(#p205a3bda01)" style="fill: #4c72b0; stroke: #ffffff; stroke-width: 1.5"/>
    <path d="M 200.096471 401.735501 
C 206.046906 401.735501 211.754428 399.371368 215.962021 395.163775 
C 220.169614 390.956182 222.533747 385.24866 222.533747 379.298225 
C 222.533747 373.34779 220.169614 367.640268 215.962021 363.432675 
C 211.754428 359.225082 206.046906 356.860949 200.096471 356.860949 
C 194.146035 356.860949 188.438513 359.225082 184.23092 363.432675 
C 180.023327 367.640268 177.659194 373.34779 177.659194 379.298225 
C 177.659194 385.24866 180.023327 390.956182 184.23092 395.163775 
C 188.438513 399.371368 194.146035 401.735501 200.096471 401.735501 
z
" clip-path="url(#p205a3bda01)" style="fill: #4c72b0; stroke: #ffffff; stroke-width: 1.5"/>
    <path d="M 206.707093 386.351079 
C 212.433104 386.351079 217.925363 384.076111 221.974265 380.02721 
C 226.023166 375.978309 228.298134 370.486049 228.298134 364.760038 
C 228.298134 359.034027 226.023166 353.541768 221.974265 349.492867 
C 217.925363 345.443966 212.433104 343.168998 206.707093 343.168998 
C 200.981082 343.168998 195.488823 345.443966 191.439922 349.492867 
C 187.391021 353.541768 185.116053 359.034027 185.116053 364.760038 
C 185.116053 370.486049 187.391021 375.978309 191.439922 380.02721 
C 195.488823 384.076111 200.981082 386.351079 206.707093 386.351079 
z
" clip-path="url(#p205a3bda01)" style="fill: #4c72b0; stroke: #ffffff; stroke-width: 1.5"/>
    <path d="M 123.292693 360.879399 
C 126.815915 360.879399 130.195309 359.479608 132.686603 356.988314 
C 135.177898 354.49702 136.577689 351.117625 136.577689 347.594403 
C 136.577689 344.071181 135.177898 340.691787 132.686603 338.200493 
C 130.195309 335.709199 126.815915 334.309408 123.292693 334.309408 
C 119.769471 334.309408 116.390077 335.709199 113.898783 338.200493 
C 111.407488 340.691787 110.007697 344.071181 110.007697 347.594403 
C 110.007697 351.117625 111.407488 354.49702 113.898783 356.988314 
C 116.390077 359.479608 119.769471 360.879399 123.292693 360.879399 
z
" clip-path="url(#p205a3bda01)" style="fill: #4c72b0; stroke: #ffffff; stroke-width: 1.5"/>
    <path d="M 286.097242 374.613671 
C 289.27756 374.613671 292.328049 373.350118 294.576874 371.101293 
C 296.825699 368.852468 298.089252 365.801979 298.089252 362.621661 
C 298.089252 359.441343 296.825699 356.390854 294.576874 354.142029 
C 292.328049 351.893204 289.27756 350.629651 286.097242 350.629651 
C 282.916924 350.629651 279.866435 351.893204 277.61761 354.142029 
C 275.368785 356.390854 274.105232 359.441343 274.105232 362.621661 
C 274.105232 365.801979 275.368785 368.852468 277.61761 371.101293 
C 279.866435 373.350118 282.916924 374.613671 286.097242 374.613671 
z
" clip-path="url(#p205a3bda01)" style="fill: #4c72b0; stroke: #ffffff; stroke-width: 1.5"/>
   </g>
   <g id="text_1">
    <g clip-path="url(#p205a3bda01)">
     <!-- actor_network -->
     <g transform="translate(233.47025 315.426953) scale(0.08 -0.08)">
      <defs>
       <path id="DejaVuSans-61" d="M 2194 1759 
Q 1497 1759 1228 1600 
Q 959 1441 959 1056 
Q 959 750 1161 570 
Q 1363 391 1709 391 
Q 2188 391 2477 730 
Q 2766 1069 2766 1631 
L 2766 1759 
L 2194 1759 
z
M 3341 1997 
L 3341 0 
L 2766 0 
L 2766 531 
Q 2569 213 2275 61 
Q 1981 -91 1556 -91 
Q 1019 -91 701 211 
Q 384 513 384 1019 
Q 384 1609 779 1909 
Q 1175 2209 1959 2209 
L 2766 2209 
L 2766 2266 
Q 2766 2663 2505 2880 
Q 2244 3097 1772 3097 
Q 1472 3097 1187 3025 
Q 903 2953 641 2809 
L 641 3341 
Q 956 3463 1253 3523 
Q 1550 3584 1831 3584 
Q 2591 3584 2966 3190 
Q 3341 2797 3341 1997 
z
" transform="scale(0.015625)"/>
       <path id="DejaVuSans-63" d="M 3122 3366 
L 3122 2828 
Q 2878 2963 2633 3030 
Q 2388 3097 2138 3097 
Q 1578 3097 1268 2742 
Q 959 2388 959 1747 
Q 959 1106 1268 751 
Q 1578 397 2138 397 
Q 2388 397 2633 464 
Q 2878 531 3122 666 
L 3122 134 
Q 2881 22 2623 -34 
Q 2366 -91 2075 -91 
Q 1284 -91 818 406 
Q 353 903 353 1747 
Q 353 2603 823 3093 
Q 1294 3584 2113 3584 
Q 2378 3584 2631 3529 
Q 2884 3475 3122 3366 
z
" transform="scale(0.015625)"/>
       <path id="DejaVuSans-74" d="M 1172 4494 
L 1172 3500 
L 2356 3500 
L 2356 3053 
L 1172 3053 
L 1172 1153 
Q 1172 725 1289 603 
Q 1406 481 1766 481 
L 2356 481 
L 2356 0 
L 1766 0 
Q 1100 0 847 248 
Q 594 497 594 1153 
L 594 3053 
L 172 3053 
L 172 3500 
L 594 3500 
L 594 4494 
L 1172 4494 
z
" transform="scale(0.015625)"/>
       <path id="DejaVuSans-6f" d="M 1959 3097 
Q 1497 3097 1228 2736 
Q 959 2375 959 1747 
Q 959 1119 1226 758 
Q 1494 397 1959 397 
Q 2419 397 2687 759 
Q 2956 1122 2956 1747 
Q 2956 2369 2687 2733 
Q 2419 3097 1959 3097 
z
M 1959 3584 
Q 2709 3584 3137 3096 
Q 3566 2609 3566 1747 
Q 3566 888 3137 398 
Q 2709 -91 1959 -91 
Q 1206 -91 779 398 
Q 353 888 353 1747 
Q 353 2609 779 3096 
Q 1206 3584 1959 3584 
z
" transform="scale(0.015625)"/>
       <path id="DejaVuSans-72" d="M 2631 2963 
Q 2534 3019 2420 3045 
Q 2306 3072 2169 3072 
Q 1681 3072 1420 2755 
Q 1159 2438 1159 1844 
L 1159 0 
L 581 0 
L 581 3500 
L 1159 3500 
L 1159 2956 
Q 1341 3275 1631 3429 
Q 1922 3584 2338 3584 
Q 2397 3584 2469 3576 
Q 2541 3569 2628 3553 
L 2631 2963 
z
" transform="scale(0.015625)"/>
       <path id="DejaVuSans-5f" d="M 3263 -1063 
L 3263 -1509 
L -63 -1509 
L -63 -1063 
L 3263 -1063 
z
" transform="scale(0.015625)"/>
       <path id="DejaVuSans-6e" d="M 3513 2113 
L 3513 0 
L 2938 0 
L 2938 2094 
Q 2938 2591 2744 2837 
Q 2550 3084 2163 3084 
Q 1697 3084 1428 2787 
Q 1159 2491 1159 1978 
L 1159 0 
L 581 0 
L 581 3500 
L 1159 3500 
L 1159 2956 
Q 1366 3272 1645 3428 
Q 1925 3584 2291 3584 
Q 2894 3584 3203 3211 
Q 3513 2838 3513 2113 
z
" transform="scale(0.015625)"/>
       <path id="DejaVuSans-65" d="M 3597 1894 
L 3597 1613 
L 953 1613 
Q 991 1019 1311 708 
Q 1631 397 2203 397 
Q 2534 397 2845 478 
Q 3156 559 3463 722 
L 3463 178 
Q 3153 47 2828 -22 
Q 2503 -91 2169 -91 
Q 1331 -91 842 396 
Q 353 884 353 1716 
Q 353 2575 817 3079 
Q 1281 3584 2069 3584 
Q 2775 3584 3186 3129 
Q 3597 2675 3597 1894 
z
M 3022 2063 
Q 3016 2534 2758 2815 
Q 2500 3097 2075 3097 
Q 1594 3097 1305 2825 
Q 1016 2553 972 2059 
L 3022 2063 
z
" transform="scale(0.015625)"/>
       <path id="DejaVuSans-77" d="M 269 3500 
L 844 3500 
L 1563 769 
L 2278 3500 
L 2956 3500 
L 3675 769 
L 4391 3500 
L 4966 3500 
L 4050 0 
L 3372 0 
L 2619 2869 
L 1863 0 
L 1184 0 
L 269 3500 
z
" transform="scale(0.015625)"/>
       <path id="DejaVuSans-6b" d="M 581 4863 
L 1159 4863 
L 1159 1991 
L 2875 3500 
L 3609 3500 
L 1753 1863 
L 3688 0 
L 2938 0 
L 1159 1709 
L 1159 0 
L 581 0 
L 581 4863 
z
" transform="scale(0.015625)"/>
      </defs>
      <use xlink:href="#DejaVuSans-61"/>
      <use xlink:href="#DejaVuSans-63" transform="translate(61.279297 0)"/>
      <use xlink:href="#DejaVuSans-74" transform="translate(116.259766 0)"/>
      <use xlink:href="#DejaVuSans-6f" transform="translate(155.46875 0)"/>
      <use xlink:href="#DejaVuSans-72" transform="translate(216.650391 0)"/>
      <use xlink:href="#DejaVuSans-5f" transform="translate(257.763672 0)"/>
      <use xlink:href="#DejaVuSans-6e" transform="translate(307.763672 0)"/>
      <use xlink:href="#DejaVuSans-65" transform="translate(371.142578 0)"/>
      <use xlink:href="#DejaVuSans-74" transform="translate(432.666016 0)"/>
      <use xlink:href="#DejaVuSans-77" transform="translate(471.875 0)"/>
      <use xlink:href="#DejaVuSans-6f" transform="translate(553.662109 0)"/>
      <use xlink:href="#DejaVuSans-72" transform="translate(614.84375 0)"/>
      <use xlink:href="#DejaVuSans-6b" transform="translate(655.957031 0)"/>
     </g>
    </g>
   </g>
   <g id="text_2">
    <g clip-path="url(#p205a3bda01)">
     <!-- agonistic -->
     <g transform="translate(214.551795 54.868657) scale(0.08 -0.08)">
      <defs>
       <path id="DejaVuSans-67" d="M 2906 1791 
Q 2906 2416 2648 2759 
Q 2391 3103 1925 3103 
Q 1463 3103 1205 2759 
Q 947 2416 947 1791 
Q 947 1169 1205 825 
Q 1463 481 1925 481 
Q 2391 481 2648 825 
Q 2906 1169 2906 1791 
z
M 3481 434 
Q 3481 -459 3084 -895 
Q 2688 -1331 1869 -1331 
Q 1566 -1331 1297 -1286 
Q 1028 -1241 775 -1147 
L 775 -588 
Q 1028 -725 1275 -790 
Q 1522 -856 1778 -856 
Q 2344 -856 2625 -561 
Q 2906 -266 2906 331 
L 2906 616 
Q 2728 306 2450 153 
Q 2172 0 1784 0 
Q 1141 0 747 490 
Q 353 981 353 1791 
Q 353 2603 747 3093 
Q 1141 3584 1784 3584 
Q 2172 3584 2450 3431 
Q 2728 3278 2906 2969 
L 2906 3500 
L 3481 3500 
L 3481 434 
z
" transform="scale(0.015625)"/>
       <path id="DejaVuSans-69" d="M 603 3500 
L 1178 3500 
L 1178 0 
L 603 0 
L 603 3500 
z
M 603 4863 
L 1178 4863 
L 1178 4134 
L 603 4134 
L 603 4863 
z
" transform="scale(0.015625)"/>
       <path id="DejaVuSans-73" d="M 2834 3397 
L 2834 2853 
Q 2591 2978 2328 3040 
Q 2066 3103 1784 3103 
Q 1356 3103 1142 2972 
Q 928 2841 928 2578 
Q 928 2378 1081 2264 
Q 1234 2150 1697 2047 
L 1894 2003 
Q 2506 1872 2764 1633 
Q 3022 1394 3022 966 
Q 3022 478 2636 193 
Q 2250 -91 1575 -91 
Q 1294 -91 989 -36 
Q 684 19 347 128 
L 347 722 
Q 666 556 975 473 
Q 1284 391 1588 391 
Q 1994 391 2212 530 
Q 2431 669 2431 922 
Q 2431 1156 2273 1281 
Q 2116 1406 1581 1522 
L 1381 1569 
Q 847 1681 609 1914 
Q 372 2147 372 2553 
Q 372 3047 722 3315 
Q 1072 3584 1716 3584 
Q 2034 3584 2315 3537 
Q 2597 3491 2834 3397 
z
" transform="scale(0.015625)"/>
      </defs>
      <use xlink:href="#DejaVuSans-61"/>
      <use xlink:href="#DejaVuSans-67" transform="translate(61.279297 0)"/>
      <use xlink:href="#DejaVuSans-6f" transform="translate(124.755859 0)"/>
      <use xlink:href="#DejaVuSans-6e" transform="translate(185.9375 0)"/>
      <use xlink:href="#DejaVuSans-69" transform="translate(249.316406 0)"/>
      <use xlink:href="#DejaVuSans-73" transform="translate(277.099609 0)"/>
      <use xlink:href="#DejaVuSans-74" transform="translate(329.199219 0)"/>
      <use xlink:href="#DejaVuSans-69" transform="translate(368.408203 0)"/>
      <use xlink:href="#DejaVuSans-63" transform="translate(396.191406 0)"/>
     </g>
    </g>
   </g>
   <g id="text_3">
    <g clip-path="url(#p205a3bda01)">
     <!-- alteration -->
     <g transform="translate(135.080203 373.086298) scale(0.08 -0.08)">
      <defs>
       <path id="DejaVuSans-6c" d="M 603 4863 
L 1178 4863 
L 1178 0 
L 603 0 
L 603 4863 
z
" transform="scale(0.015625)"/>
      </defs>
      <use xlink:href="#DejaVuSans-61"/>
      <use xlink:href="#DejaVuSans-6c" transform="translate(61.279297 0)"/>
      <use xlink:href="#DejaVuSans-74" transform="translate(89.0625 0)"/>
      <use xlink:href="#DejaVuSans-65" transform="translate(128.271484 0)"/>
      <use xlink:href="#DejaVuSans-72" transform="translate(189.794922 0)"/>
      <use xlink:href="#DejaVuSans-61" transform="translate(230.908203 0)"/>
      <use xlink:href="#DejaVuSans-74" transform="translate(292.1875 0)"/>
      <use xlink:href="#DejaVuSans-69" transform="translate(331.396484 0)"/>
      <use xlink:href="#DejaVuSans-6f" transform="translate(359.179688 0)"/>
      <use xlink:href="#DejaVuSans-6e" transform="translate(420.361328 0)"/>
     </g>
    </g>
   </g>
   <g id="text_4">
    <g clip-path="url(#p205a3bda01)">
     <!-- articulation -->
     <g transform="translate(221.18205 423.231881) scale(0.08 -0.08)">
      <defs>
       <path id="DejaVuSans-75" d="M 544 1381 
L 544 3500 
L 1119 3500 
L 1119 1403 
Q 1119 906 1312 657 
Q 1506 409 1894 409 
Q 2359 409 2629 706 
Q 2900 1003 2900 1516 
L 2900 3500 
L 3475 3500 
L 3475 0 
L 2900 0 
L 2900 538 
Q 2691 219 2414 64 
Q 2138 -91 1772 -91 
Q 1169 -91 856 284 
Q 544 659 544 1381 
z
M 1991 3584 
L 1991 3584 
z
" transform="scale(0.015625)"/>
      </defs>
      <use xlink:href="#DejaVuSans-61"/>
      <use xlink:href="#DejaVuSans-72" transform="translate(61.279297 0)"/>
      <use xlink:href="#DejaVuSans-74" transform="translate(102.392578 0)"/>
      <use xlink:href="#DejaVuSans-69" transform="translate(141.601562 0)"/>
      <use xlink:href="#DejaVuSans-63" transform="translate(169.384766 0)"/>
      <use xlink:href="#DejaVuSans-75" transform="translate(224.365234 0)"/>
      <use xlink:href="#DejaVuSans-6c" transform="translate(287.744141 0)"/>
      <use xlink:href="#DejaVuSans-61" transform="translate(315.527344 0)"/>
      <use xlink:href="#DejaVuSans-74" transform="translate(376.806641 0)"/>
      <use xlink:href="#DejaVuSans-69" transform="translate(416.015625 0)"/>
      <use xlink:href="#DejaVuSans-6f" transform="translate(443.798828 0)"/>
      <use xlink:href="#DejaVuSans-6e" transform="translate(504.980469 0)"/>
     </g>
    </g>
   </g>
   <g id="text_5">
    <g clip-path="url(#p205a3bda01)">
     <!-- black_box -->
     <g transform="translate(562.9961 397.879928) scale(0.08 -0.08)">
      <defs>
       <path id="DejaVuSans-62" d="M 3116 1747 
Q 3116 2381 2855 2742 
Q 2594 3103 2138 3103 
Q 1681 3103 1420 2742 
Q 1159 2381 1159 1747 
Q 1159 1113 1420 752 
Q 1681 391 2138 391 
Q 2594 391 2855 752 
Q 3116 1113 3116 1747 
z
M 1159 2969 
Q 1341 3281 1617 3432 
Q 1894 3584 2278 3584 
Q 2916 3584 3314 3078 
Q 3713 2572 3713 1747 
Q 3713 922 3314 415 
Q 2916 -91 2278 -91 
Q 1894 -91 1617 61 
Q 1341 213 1159 525 
L 1159 0 
L 581 0 
L 581 4863 
L 1159 4863 
L 1159 2969 
z
" transform="scale(0.015625)"/>
       <path id="DejaVuSans-78" d="M 3513 3500 
L 2247 1797 
L 3578 0 
L 2900 0 
L 1881 1375 
L 863 0 
L 184 0 
L 1544 1831 
L 300 3500 
L 978 3500 
L 1906 2253 
L 2834 3500 
L 3513 3500 
z
" transform="scale(0.015625)"/>
      </defs>
      <use xlink:href="#DejaVuSans-62"/>
      <use xlink:href="#DejaVuSans-6c" transform="translate(63.476562 0)"/>
      <use xlink:href="#DejaVuSans-61" transform="translate(91.259766 0)"/>
      <use xlink:href="#DejaVuSans-63" transform="translate(152.539062 0)"/>
      <use xlink:href="#DejaVuSans-6b" transform="translate(207.519531 0)"/>
      <use xlink:href="#DejaVuSans-5f" transform="translate(265.429688 0)"/>
      <use xlink:href="#DejaVuSans-62" transform="translate(315.429688 0)"/>
      <use xlink:href="#DejaVuSans-6f" transform="translate(378.90625 0)"/>
      <use xlink:href="#DejaVuSans-78" transform="translate(436.962891 0)"/>
     </g>
    </g>
   </g>
   <g id="text_6">
    <g clip-path="url(#p205a3bda01)">
     <!-- construction -->
     <g transform="translate(131.238772 443.406925) scale(0.08 -0.08)">
      <use xlink:href="#DejaVuSans-63"/>
      <use xlink:href="#DejaVuSans-6f" transform="translate(54.980469 0)"/>
      <use xlink:href="#DejaVuSans-6e" transform="translate(116.162109 0)"/>
      <use xlink:href="#DejaVuSans-73" transform="translate(179.541016 0)"/>
      <use xlink:href="#DejaVuSans-74" transform="translate(231.640625 0)"/>
      <use xlink:href="#DejaVuSans-72" transform="translate(270.849609 0)"/>
      <use xlink:href="#DejaVuSans-75" transform="translate(311.962891 0)"/>
      <use xlink:href="#DejaVuSans-63" transform="translate(375.341797 0)"/>
      <use xlink:href="#DejaVuSans-74" transform="translate(430.322266 0)"/>
      <use xlink:href="#DejaVuSans-69" transform="translate(469.53125 0)"/>
      <use xlink:href="#DejaVuSans-6f" transform="translate(497.314453 0)"/>
      <use xlink:href="#DejaVuSans-6e" transform="translate(558.496094 0)"/>
     </g>
    </g>
   </g>
   <g id="text_7">
    <g clip-path="url(#p205a3bda01)">
     <!-- diplomacy -->
     <g transform="translate(127.645854 415.132037) scale(0.08 -0.08)">
      <defs>
       <path id="DejaVuSans-64" d="M 2906 2969 
L 2906 4863 
L 3481 4863 
L 3481 0 
L 2906 0 
L 2906 525 
Q 2725 213 2448 61 
Q 2172 -91 1784 -91 
Q 1150 -91 751 415 
Q 353 922 353 1747 
Q 353 2572 751 3078 
Q 1150 3584 1784 3584 
Q 2172 3584 2448 3432 
Q 2725 3281 2906 2969 
z
M 947 1747 
Q 947 1113 1208 752 
Q 1469 391 1925 391 
Q 2381 391 2643 752 
Q 2906 1113 2906 1747 
Q 2906 2381 2643 2742 
Q 2381 3103 1925 3103 
Q 1469 3103 1208 2742 
Q 947 2381 947 1747 
z
" transform="scale(0.015625)"/>
       <path id="DejaVuSans-70" d="M 1159 525 
L 1159 -1331 
L 581 -1331 
L 581 3500 
L 1159 3500 
L 1159 2969 
Q 1341 3281 1617 3432 
Q 1894 3584 2278 3584 
Q 2916 3584 3314 3078 
Q 3713 2572 3713 1747 
Q 3713 922 3314 415 
Q 2916 -91 2278 -91 
Q 1894 -91 1617 61 
Q 1341 213 1159 525 
z
M 3116 1747 
Q 3116 2381 2855 2742 
Q 2594 3103 2138 3103 
Q 1681 3103 1420 2742 
Q 1159 2381 1159 1747 
Q 1159 1113 1420 752 
Q 1681 391 2138 391 
Q 2594 391 2855 752 
Q 3116 1113 3116 1747 
z
" transform="scale(0.015625)"/>
       <path id="DejaVuSans-6d" d="M 3328 2828 
Q 3544 3216 3844 3400 
Q 4144 3584 4550 3584 
Q 5097 3584 5394 3201 
Q 5691 2819 5691 2113 
L 5691 0 
L 5113 0 
L 5113 2094 
Q 5113 2597 4934 2840 
Q 4756 3084 4391 3084 
Q 3944 3084 3684 2787 
Q 3425 2491 3425 1978 
L 3425 0 
L 2847 0 
L 2847 2094 
Q 2847 2600 2669 2842 
Q 2491 3084 2119 3084 
Q 1678 3084 1418 2786 
Q 1159 2488 1159 1978 
L 1159 0 
L 581 0 
L 581 3500 
L 1159 3500 
L 1159 2956 
Q 1356 3278 1631 3431 
Q 1906 3584 2284 3584 
Q 2666 3584 2933 3390 
Q 3200 3197 3328 2828 
z
" transform="scale(0.015625)"/>
       <path id="DejaVuSans-79" d="M 2059 -325 
Q 1816 -950 1584 -1140 
Q 1353 -1331 966 -1331 
L 506 -1331 
L 506 -850 
L 844 -850 
Q 1081 -850 1212 -737 
Q 1344 -625 1503 -206 
L 1606 56 
L 191 3500 
L 800 3500 
L 1894 763 
L 2988 3500 
L 3597 3500 
L 2059 -325 
z
" transform="scale(0.015625)"/>
      </defs>
      <use xlink:href="#DejaVuSans-64"/>
      <use xlink:href="#DejaVuSans-69" transform="translate(63.476562 0)"/>
      <use xlink:href="#DejaVuSans-70" transform="translate(91.259766 0)"/>
      <use xlink:href="#DejaVuSans-6c" transform="translate(154.736328 0)"/>
      <use xlink:href="#DejaVuSans-6f" transform="translate(182.519531 0)"/>
      <use xlink:href="#DejaVuSans-6d" transform="translate(243.701172 0)"/>
      <use xlink:href="#DejaVuSans-61" transform="translate(341.113281 0)"/>
      <use xlink:href="#DejaVuSans-63" transform="translate(402.392578 0)"/>
      <use xlink:href="#DejaVuSans-79" transform="translate(457.373047 0)"/>
     </g>
    </g>
   </g>
   <g id="text_8">
    <g clip-path="url(#p205a3bda01)">
     <!-- domain_category -->
     <g transform="translate(186.476783 362.963003) scale(0.08 -0.08)">
      <use xlink:href="#DejaVuSans-64"/>
      <use xlink:href="#DejaVuSans-6f" transform="translate(63.476562 0)"/>
      <use xlink:href="#DejaVuSans-6d" transform="translate(124.658203 0)"/>
      <use xlink:href="#DejaVuSans-61" transform="translate(222.070312 0)"/>
      <use xlink:href="#DejaVuSans-69" transform="translate(283.349609 0)"/>
      <use xlink:href="#DejaVuSans-6e" transform="translate(311.132812 0)"/>
      <use xlink:href="#DejaVuSans-5f" transform="translate(374.511719 0)"/>
      <use xlink:href="#DejaVuSans-63" transform="translate(424.511719 0)"/>
      <use xlink:href="#DejaVuSans-61" transform="translate(479.492188 0)"/>
      <use xlink:href="#DejaVuSans-74" transform="translate(540.771484 0)"/>
      <use xlink:href="#DejaVuSans-65" transform="translate(579.980469 0)"/>
      <use xlink:href="#DejaVuSans-67" transform="translate(641.503906 0)"/>
      <use xlink:href="#DejaVuSans-6f" transform="translate(704.980469 0)"/>
      <use xlink:href="#DejaVuSans-72" transform="translate(766.162109 0)"/>
      <use xlink:href="#DejaVuSans-79" transform="translate(807.275391 0)"/>
     </g>
    </g>
   </g>
   <g id="text_9">
    <g clip-path="url(#p205a3bda01)">
     <!-- enrollment -->
     <g transform="translate(71.267122 269.651521) scale(0.08 -0.08)">
      <use xlink:href="#DejaVuSans-65"/>
      <use xlink:href="#DejaVuSans-6e" transform="translate(61.523438 0)"/>
      <use xlink:href="#DejaVuSans-72" transform="translate(124.902344 0)"/>
      <use xlink:href="#DejaVuSans-6f" transform="translate(163.765625 0)"/>
      <use xlink:href="#DejaVuSans-6c" transform="translate(224.947266 0)"/>
      <use xlink:href="#DejaVuSans-6c" transform="translate(252.730469 0)"/>
      <use xlink:href="#DejaVuSans-6d" transform="translate(280.513672 0)"/>
      <use xlink:href="#DejaVuSans-65" transform="translate(377.925781 0)"/>
      <use xlink:href="#DejaVuSans-6e" transform="translate(439.449219 0)"/>
      <use xlink:href="#DejaVuSans-74" transform="translate(502.828125 0)"/>
     </g>
    </g>
   </g>
   <g id="text_10">
    <g clip-path="url(#p205a3bda01)">
     <!-- experience -->
     <g transform="translate(153.170044 385.588508) scale(0.08 -0.08)">
      <use xlink:href="#DejaVuSans-65"/>
      <use xlink:href="#DejaVuSans-78" transform="translate(59.773438 0)"/>
      <use xlink:href="#DejaVuSans-70" transform="translate(118.953125 0)"/>
      <use xlink:href="#DejaVuSans-65" transform="translate(182.429688 0)"/>
      <use xlink:href="#DejaVuSans-72" transform="translate(243.953125 0)"/>
      <use xlink:href="#DejaVuSans-69" transform="translate(285.066406 0)"/>
      <use xlink:href="#DejaVuSans-65" transform="translate(312.849609 0)"/>
      <use xlink:href="#DejaVuSans-6e" transform="translate(374.373047 0)"/>
      <use xlink:href="#DejaVuSans-63" transform="translate(437.751953 0)"/>
      <use xlink:href="#DejaVuSans-65" transform="translate(492.732422 0)"/>
     </g>
    </g>
   </g>
   <g id="text_11">
    <g clip-path="url(#p205a3bda01)">
     <!-- felicity -->
     <g transform="translate(200.435425 333.617805) scale(0.08 -0.08)">
      <defs>
       <path id="DejaVuSans-66" d="M 2375 4863 
L 2375 4384 
L 1825 4384 
Q 1516 4384 1395 4259 
Q 1275 4134 1275 3809 
L 1275 3500 
L 2222 3500 
L 2222 3053 
L 1275 3053 
L 1275 0 
L 697 0 
L 697 3053 
L 147 3053 
L 147 3500 
L 697 3500 
L 697 3744 
Q 697 4328 969 4595 
Q 1241 4863 1831 4863 
L 2375 4863 
z
" transform="scale(0.015625)"/>
      </defs>
      <use xlink:href="#DejaVuSans-66"/>
      <use xlink:href="#DejaVuSans-65" transform="translate(35.205078 0)"/>
      <use xlink:href="#DejaVuSans-6c" transform="translate(96.728516 0)"/>
      <use xlink:href="#DejaVuSans-69" transform="translate(124.511719 0)"/>
      <use xlink:href="#DejaVuSans-63" transform="translate(152.294922 0)"/>
      <use xlink:href="#DejaVuSans-69" transform="translate(207.275391 0)"/>
      <use xlink:href="#DejaVuSans-74" transform="translate(235.058594 0)"/>
      <use xlink:href="#DejaVuSans-79" transform="translate(274.267578 0)"/>
     </g>
    </g>
   </g>
   <g id="text_12">
    <g clip-path="url(#p205a3bda01)">
     <!-- gaia -->
     <g transform="translate(197.678282 453.546343) scale(0.08 -0.08)">
      <use xlink:href="#DejaVuSans-67"/>
      <use xlink:href="#DejaVuSans-61" transform="translate(63.476562 0)"/>
      <use xlink:href="#DejaVuSans-69" transform="translate(124.755859 0)"/>
      <use xlink:href="#DejaVuSans-61" transform="translate(152.539062 0)"/>
     </g>
    </g>
   </g>
   <g id="text_13">
    <g clip-path="url(#p205a3bda01)">
     <!-- immutable_mobile -->
     <g transform="translate(284.940971 347.666968) scale(0.08 -0.08)">
      <use xlink:href="#DejaVuSans-69"/>
      <use xlink:href="#DejaVuSans-6d" transform="translate(27.783203 0)"/>
      <use xlink:href="#DejaVuSans-6d" transform="translate(125.195312 0)"/>
      <use xlink:href="#DejaVuSans-75" transform="translate(222.607422 0)"/>
      <use xlink:href="#DejaVuSans-74" transform="translate(285.986328 0)"/>
      <use xlink:href="#DejaVuSans-61" transform="translate(325.195312 0)"/>
      <use xlink:href="#DejaVuSans-62" transform="translate(386.474609 0)"/>
      <use xlink:href="#DejaVuSans-6c" transform="translate(449.951172 0)"/>
      <use xlink:href="#DejaVuSans-65" transform="translate(477.734375 0)"/>
      <use xlink:href="#DejaVuSans-5f" transform="translate(539.257812 0)"/>
      <use xlink:href="#DejaVuSans-6d" transform="translate(589.257812 0)"/>
      <use xlink:href="#DejaVuSans-6f" transform="translate(686.669922 0)"/>
      <use xlink:href="#DejaVuSans-62" transform="translate(747.851562 0)"/>
      <use xlink:href="#DejaVuSans-69" transform="translate(811.328125 0)"/>
      <use xlink:href="#DejaVuSans-6c" transform="translate(839.111328 0)"/>
      <use xlink:href="#DejaVuSans-65" transform="translate(866.894531 0)"/>
     </g>
    </g>
   </g>
   <g id="text_14">
    <g clip-path="url(#p205a3bda01)">
     <!-- inscription -->
     <g transform="translate(308.638246 419.824635) scale(0.08 -0.08)">
      <use xlink:href="#DejaVuSans-69"/>
      <use xlink:href="#DejaVuSans-6e" transform="translate(27.783203 0)"/>
      <use xlink:href="#DejaVuSans-73" transform="translate(91.162109 0)"/>
      <use xlink:href="#DejaVuSans-63" transform="translate(143.261719 0)"/>
      <use xlink:href="#DejaVuSans-72" transform="translate(198.242188 0)"/>
      <use xlink:href="#DejaVuSans-69" transform="translate(239.355469 0)"/>
      <use xlink:href="#DejaVuSans-70" transform="translate(267.138672 0)"/>
      <use xlink:href="#DejaVuSans-74" transform="translate(330.615234 0)"/>
      <use xlink:href="#DejaVuSans-69" transform="translate(369.824219 0)"/>
      <use xlink:href="#DejaVuSans-6f" transform="translate(397.607422 0)"/>
      <use xlink:href="#DejaVuSans-6e" transform="translate(458.789062 0)"/>
     </g>
    </g>
   </g>
   <g id="text_15">
    <g clip-path="url(#p205a3bda01)">
     <!-- institution -->
     <g transform="translate(187.72821 405.585882) scale(0.08 -0.08)">
      <use xlink:href="#DejaVuSans-69"/>
      <use xlink:href="#DejaVuSans-6e" transform="translate(27.783203 0)"/>
      <use xlink:href="#DejaVuSans-73" transform="translate(91.162109 0)"/>
      <use xlink:href="#DejaVuSans-74" transform="translate(143.261719 0)"/>
      <use xlink:href="#DejaVuSans-69" transform="translate(182.470703 0)"/>
      <use xlink:href="#DejaVuSans-74" transform="translate(210.253906 0)"/>
      <use xlink:href="#DejaVuSans-75" transform="translate(249.462891 0)"/>
      <use xlink:href="#DejaVuSans-74" transform="translate(312.841797 0)"/>
      <use xlink:href="#DejaVuSans-69" transform="translate(352.050781 0)"/>
      <use xlink:href="#DejaVuSans-6f" transform="translate(379.833984 0)"/>
      <use xlink:href="#DejaVuSans-6e" transform="translate(441.015625 0)"/>
     </g>
    </g>
   </g>
   <g id="text_16">
    <g clip-path="url(#p205a3bda01)">
     <!-- militar -->
     <g transform="translate(165.193506 419.983258) scale(0.08 -0.08)">
      <use xlink:href="#DejaVuSans-6d"/>
      <use xlink:href="#DejaVuSans-69" transform="translate(97.412109 0)"/>
      <use xlink:href="#DejaVuSans-6c" transform="translate(125.195312 0)"/>
      <use xlink:href="#DejaVuSans-69" transform="translate(152.978516 0)"/>
      <use xlink:href="#DejaVuSans-74" transform="translate(180.761719 0)"/>
      <use xlink:href="#DejaVuSans-61" transform="translate(219.970703 0)"/>
      <use xlink:href="#DejaVuSans-72" transform="translate(281.25 0)"/>
     </g>
    </g>
   </g>
   <g id="text_17">
    <g clip-path="url(#p205a3bda01)">
     <!-- moderns -->
     <g transform="translate(176.007398 398.387832) scale(0.08 -0.08)">
      <use xlink:href="#DejaVuSans-6d"/>
      <use xlink:href="#DejaVuSans-6f" transform="translate(97.412109 0)"/>
      <use xlink:href="#DejaVuSans-64" transform="translate(158.59375 0)"/>
      <use xlink:href="#DejaVuSans-65" transform="translate(222.070312 0)"/>
      <use xlink:href="#DejaVuSans-72" transform="translate(283.59375 0)"/>
      <use xlink:href="#DejaVuSans-6e" transform="translate(322.957031 0)"/>
      <use xlink:href="#DejaVuSans-73" transform="translate(386.335938 0)"/>
     </g>
    </g>
   </g>
   <g id="text_18">
    <g clip-path="url(#p205a3bda01)">
     <!-- modes_of_existence -->
     <g transform="translate(190.1754 394.034424) scale(0.08 -0.08)">
      <use xlink:href="#DejaVuSans-6d"/>
      <use xlink:href="#DejaVuSans-6f" transform="translate(97.412109 0)"/>
      <use xlink:href="#DejaVuSans-64" transform="translate(158.59375 0)"/>
      <use xlink:href="#DejaVuSans-65" transform="translate(222.070312 0)"/>
      <use xlink:href="#DejaVuSans-73" transform="translate(283.59375 0)"/>
      <use xlink:href="#DejaVuSans-5f" transform="translate(335.693359 0)"/>
      <use xlink:href="#DejaVuSans-6f" transform="translate(385.693359 0)"/>
      <use xlink:href="#DejaVuSans-66" transform="translate(446.875 0)"/>
      <use xlink:href="#DejaVuSans-5f" transform="translate(482.080078 0)"/>
      <use xlink:href="#DejaVuSans-65" transform="translate(532.080078 0)"/>
      <use xlink:href="#DejaVuSans-78" transform="translate(591.853516 0)"/>
      <use xlink:href="#DejaVuSans-69" transform="translate(651.033203 0)"/>
      <use xlink:href="#DejaVuSans-73" transform="translate(678.816406 0)"/>
      <use xlink:href="#DejaVuSans-74" transform="translate(730.916016 0)"/>
      <use xlink:href="#DejaVuSans-65" transform="translate(770.125 0)"/>
      <use xlink:href="#DejaVuSans-6e" transform="translate(831.648438 0)"/>
      <use xlink:href="#DejaVuSans-63" transform="translate(895.027344 0)"/>
      <use xlink:href="#DejaVuSans-65" transform="translate(950.007812 0)"/>
     </g>
    </g>
   </g>
   <g id="text_19">
    <g clip-path="url(#p205a3bda01)">
     <!-- network -->
     <g transform="translate(208.17541 375.737858) scale(0.08 -0.08)">
      <use xlink:href="#DejaVuSans-6e"/>
      <use xlink:href="#DejaVuSans-65" transform="translate(63.378906 0)"/>
      <use xlink:href="#DejaVuSans-74" transform="translate(124.902344 0)"/>
      <use xlink:href="#DejaVuSans-77" transform="translate(164.111328 0)"/>
      <use xlink:href="#DejaVuSans-6f" transform="translate(245.898438 0)"/>
      <use xlink:href="#DejaVuSans-72" transform="translate(307.080078 0)"/>
      <use xlink:href="#DejaVuSans-6b" transform="translate(348.193359 0)"/>
     </g>
    </g>
   </g>
   <g id="text_20">
    <g clip-path="url(#p205a3bda01)">
     <!-- preposition -->
     <g transform="translate(156.476744 333.440014) scale(0.08 -0.08)">
      <use xlink:href="#DejaVuSans-70"/>
      <use xlink:href="#DejaVuSans-72" transform="translate(63.476562 0)"/>
      <use xlink:href="#DejaVuSans-65" transform="translate(102.339844 0)"/>
      <use xlink:href="#DejaVuSans-70" transform="translate(163.863281 0)"/>
      <use xlink:href="#DejaVuSans-6f" transform="translate(227.339844 0)"/>
      <use xlink:href="#DejaVuSans-73" transform="translate(288.521484 0)"/>
      <use xlink:href="#DejaVuSans-69" transform="translate(340.621094 0)"/>
      <use xlink:href="#DejaVuSans-74" transform="translate(368.404297 0)"/>
      <use xlink:href="#DejaVuSans-69" transform="translate(407.613281 0)"/>
      <use xlink:href="#DejaVuSans-6f" transform="translate(435.396484 0)"/>
      <use xlink:href="#DejaVuSans-6e" transform="translate(496.578125 0)"/>
     </g>
    </g>
   </g>
   <g id="text_21">
    <g clip-path="url(#p205a3bda01)">
     <!-- proposition -->
     <g transform="translate(42.772025 356.375525) scale(0.08 -0.08)">
      <use xlink:href="#DejaVuSans-70"/>
      <use xlink:href="#DejaVuSans-72" transform="translate(63.476562 0)"/>
      <use xlink:href="#DejaVuSans-6f" transform="translate(102.339844 0)"/>
      <use xlink:href="#DejaVuSans-70" transform="translate(163.521484 0)"/>
      <use xlink:href="#DejaVuSans-6f" transform="translate(226.998047 0)"/>
      <use xlink:href="#DejaVuSans-73" transform="translate(288.179688 0)"/>
      <use xlink:href="#DejaVuSans-69" transform="translate(340.279297 0)"/>
      <use xlink:href="#DejaVuSans-74" transform="translate(368.0625 0)"/>
      <use xlink:href="#DejaVuSans-69" transform="translate(407.271484 0)"/>
      <use xlink:href="#DejaVuSans-6f" transform="translate(435.054688 0)"/>
      <use xlink:href="#DejaVuSans-6e" transform="translate(496.236328 0)"/>
     </g>
    </g>
   </g>
   <g id="text_22">
    <g clip-path="url(#p205a3bda01)">
     <!-- textil -->
     <g transform="translate(177.936016 359.829461) scale(0.08 -0.08)">
      <use xlink:href="#DejaVuSans-74"/>
      <use xlink:href="#DejaVuSans-65" transform="translate(39.208984 0)"/>
      <use xlink:href="#DejaVuSans-78" transform="translate(98.982422 0)"/>
      <use xlink:href="#DejaVuSans-74" transform="translate(158.162109 0)"/>
      <use xlink:href="#DejaVuSans-69" transform="translate(197.371094 0)"/>
      <use xlink:href="#DejaVuSans-6c" transform="translate(225.154297 0)"/>
     </g>
    </g>
   </g>
   <g id="text_23">
    <g clip-path="url(#p205a3bda01)">
     <!-- topologia -->
     <g transform="translate(181.433346 381.505725) scale(0.08 -0.08)">
      <use xlink:href="#DejaVuSans-74"/>
      <use xlink:href="#DejaVuSans-6f" transform="translate(39.208984 0)"/>
      <use xlink:href="#DejaVuSans-70" transform="translate(100.390625 0)"/>
      <use xlink:href="#DejaVuSans-6f" transform="translate(163.867188 0)"/>
      <use xlink:href="#DejaVuSans-6c" transform="translate(225.048828 0)"/>
      <use xlink:href="#DejaVuSans-6f" transform="translate(252.832031 0)"/>
      <use xlink:href="#DejaVuSans-67" transform="translate(314.013672 0)"/>
      <use xlink:href="#DejaVuSans-69" transform="translate(377.490234 0)"/>
      <use xlink:href="#DejaVuSans-61" transform="translate(405.273438 0)"/>
     </g>
    </g>
   </g>
   <g id="text_24">
    <g clip-path="url(#p205a3bda01)">
     <!-- trajectory_pass -->
     <g transform="translate(176.085843 366.856288) scale(0.08 -0.08)">
      <defs>
       <path id="DejaVuSans-6a" d="M 603 3500 
L 1178 3500 
L 1178 -63 
Q 1178 -731 923 -1031 
Q 669 -1331 103 -1331 
L -116 -1331 
L -116 -844 
L 38 -844 
Q 366 -844 484 -692 
Q 603 -541 603 -63 
L 603 3500 
z
M 603 4863 
L 1178 4863 
L 1178 4134 
L 603 4134 
L 603 4863 
z
" transform="scale(0.015625)"/>
      </defs>
      <use xlink:href="#DejaVuSans-74"/>
      <use xlink:href="#DejaVuSans-72" transform="translate(39.208984 0)"/>
      <use xlink:href="#DejaVuSans-61" transform="translate(80.322266 0)"/>
      <use xlink:href="#DejaVuSans-6a" transform="translate(141.601562 0)"/>
      <use xlink:href="#DejaVuSans-65" transform="translate(169.384766 0)"/>
      <use xlink:href="#DejaVuSans-63" transform="translate(230.908203 0)"/>
      <use xlink:href="#DejaVuSans-74" transform="translate(285.888672 0)"/>
      <use xlink:href="#DejaVuSans-6f" transform="translate(325.097656 0)"/>
      <use xlink:href="#DejaVuSans-72" transform="translate(386.279297 0)"/>
      <use xlink:href="#DejaVuSans-79" transform="translate(427.392578 0)"/>
      <use xlink:href="#DejaVuSans-5f" transform="translate(486.572266 0)"/>
      <use xlink:href="#DejaVuSans-70" transform="translate(536.572266 0)"/>
      <use xlink:href="#DejaVuSans-61" transform="translate(600.048828 0)"/>
      <use xlink:href="#DejaVuSans-73" transform="translate(661.328125 0)"/>
      <use xlink:href="#DejaVuSans-73" transform="translate(713.427734 0)"/>
     </g>
    </g>
   </g>
   <g id="text_25">
    <g clip-path="url(#p205a3bda01)">
     <!-- translation -->
     <g transform="translate(101.785818 349.801903) scale(0.08 -0.08)">
      <use xlink:href="#DejaVuSans-74"/>
      <use xlink:href="#DejaVuSans-72" transform="translate(39.208984 0)"/>
      <use xlink:href="#DejaVuSans-61" transform="translate(80.322266 0)"/>
      <use xlink:href="#DejaVuSans-6e" transform="translate(141.601562 0)"/>
      <use xlink:href="#DejaVuSans-73" transform="translate(204.980469 0)"/>
      <use xlink:href="#DejaVuSans-6c" transform="translate(257.080078 0)"/>
      <use xlink:href="#DejaVuSans-61" transform="translate(284.863281 0)"/>
      <use xlink:href="#DejaVuSans-74" transform="translate(346.142578 0)"/>
      <use xlink:href="#DejaVuSans-69" transform="translate(385.351562 0)"/>
      <use xlink:href="#DejaVuSans-6f" transform="translate(413.134766 0)"/>
      <use xlink:href="#DejaVuSans-6e" transform="translate(474.316406 0)"/>
     </g>
    </g>
   </g>
   <g id="text_26">
    <g clip-path="url(#p205a3bda01)">
     <!-- values -->
     <g transform="translate(273.087242 364.829161) scale(0.08 -0.08)">
      <defs>
       <path id="DejaVuSans-76" d="M 191 3500 
L 800 3500 
L 1894 563 
L 2988 3500 
L 3597 3500 
L 2284 0 
L 1503 0 
L 191 3500 
z
" transform="scale(0.015625)"/>
      </defs>
      <use xlink:href="#DejaVuSans-76"/>
      <use xlink:href="#DejaVuSans-61" transform="translate(59.179688 0)"/>
      <use xlink:href="#DejaVuSans-6c" transform="translate(120.458984 0)"/>
      <use xlink:href="#DejaVuSans-75" transform="translate(148.242188 0)"/>
      <use xlink:href="#DejaVuSans-65" transform="translate(211.621094 0)"/>
      <use xlink:href="#DejaVuSans-73" transform="translate(273.144531 0)"/>
     </g>
    </g>
   </g>
  </g>
 </g>
 <defs>
  <clipPath id="p205a3bda01">
   <rect x="10.8" y="10.8" width="626.4" height="482.4"/>
  </clipPath>
 </defs>
</svg>
