<?xml version="1.0" encoding="utf-8" standalone="no"?>
<!DOCTYPE svg PUBLIC "-//W3C//DTD SVG 1.1//EN"
  "http://www.w3.org/Graphics/SVG/1.1/DTD/svg11.dtd">
<svg xmlns:xlink="http://www.w3.org/1999/xlink" width="952.939375pt" height="397.043903pt" viewBox="0 0 952.939375 397.043903" xmlns="http://www.w3.org/2000/svg" version="1.1">
 <metadata>
  <rdf:RDF xmlns:dc="http://purl.org/dc/elements/1.1/" xmlns:cc="http://creativecommons.org/ns#" xmlns:rdf="http://www.w3.org/1999/02/22-rdf-syntax-ns#">
   <cc:Work>
    <dc:type rdf:resource="http://purl.org/dc/dcmitype/StillImage"/>
    <dc:date>2026-06-27T18:27:52.165179</dc:date>
    <dc:format>image/svg+xml</dc:format>
    <dc:creator>
     <cc:Agent>
      <dc:title>Matplotlib v3.11.0, https://matplotlib.org/</dc:title>
     </cc:Agent>
    </dc:creator>
   </cc:Work>
  </rdf:RDF>
 </metadata>
 <defs>
  <style type="text/css">*{stroke-linejoin: round; stroke-linecap: butt}</style>
 </defs>
 <g id="figure_1">
  <g id="patch_1">
   <path d="M 0 397.043903 
L 952.939375 397.043903 
L 952.939375 0 
L 0 0 
z
" style="fill: #ffffff"/>
  </g>
  <g id="axes_1">
   <g id="patch_2">
    <path d="M 108.739375 361.4832 
L 421.286052 361.4832 
L 421.286052 53.2368 
L 108.739375 53.2368 
z
" style="fill: #ffffff"/>
   </g>
   <g id="line2d_1">
    <path d="M 108.739375 341.380174 
L 113.32486 341.380174 
" clip-path="url(#pa6874caee4)" style="fill: none; stroke: #e9eef2; stroke-width: 1.2; stroke-linecap: square"/>
   </g>
   <g id="line2d_2">
    <path d="M 108.739375 307.87513 
L 113.32486 307.87513 
" clip-path="url(#pa6874caee4)" style="fill: none; stroke: #e9eef2; stroke-width: 1.2; stroke-linecap: square"/>
   </g>
   <g id="line2d_3">
    <path d="M 108.739375 274.370087 
L 113.32486 274.370087 
" clip-path="url(#pa6874caee4)" style="fill: none; stroke: #e9eef2; stroke-width: 1.2; stroke-linecap: square"/>
   </g>
   <g id="line2d_4">
    <path d="M 108.739375 240.865043 
L 117.910346 240.865043 
" clip-path="url(#pa6874caee4)" style="fill: none; stroke: #e9eef2; stroke-width: 1.2; stroke-linecap: square"/>
   </g>
   <g id="line2d_5">
    <path d="M 108.739375 207.36 
L 117.910346 207.36 
" clip-path="url(#pa6874caee4)" style="fill: none; stroke: #e9eef2; stroke-width: 1.2; stroke-linecap: square"/>
   </g>
   <g id="line2d_6">
    <path d="M 108.739375 173.854957 
L 117.910346 173.854957 
" clip-path="url(#pa6874caee4)" style="fill: none; stroke: #e9eef2; stroke-width: 1.2; stroke-linecap: square"/>
   </g>
   <g id="line2d_7">
    <path d="M 108.739375 140.349913 
L 150.008743 140.349913 
" clip-path="url(#pa6874caee4)" style="fill: none; stroke: #e9eef2; stroke-width: 1.2; stroke-linecap: square"/>
   </g>
   <g id="line2d_8">
    <path d="M 108.739375 106.84487 
L 237.132963 106.84487 
" clip-path="url(#pa6874caee4)" style="fill: none; stroke: #e9eef2; stroke-width: 1.2; stroke-linecap: square"/>
   </g>
   <g id="line2d_9">
    <path d="M 108.739375 73.339826 
L 328.842668 73.339826 
" clip-path="url(#pa6874caee4)" style="fill: none; stroke: #e9eef2; stroke-width: 1.2; stroke-linecap: square"/>
   </g>
   <g id="matplotlib.axis_1">
    <g id="text_1">
     <!-- frequência por 10.000 palavras -->
     <g style="fill: #6b6b6b" transform="translate(194.363416 372.681794) scale(0.09 -0.09)">
      <defs>
       <path id="DejaVuSans-49" d="M 2375 4863 
L 2375 4384 
L 1825 4384 
Q 1516 4384 1395 4259 
Q 1275 4134 1275 3809 
L 1275 3500 
L 2222 3500 
L 2222 3053 
L 1275 3053 
L 1275 0 
L 697 0 
L 697 3053 
L 147 3053 
L 147 3500 
L 697 3500 
L 697 3744 
Q 697 4328 969 4595 
Q 1241 4863 1831 4863 
L 2375 4863 
z
" transform="scale(0.015625)"/>
       <path id="DejaVuSans-55" d="M 2631 2963 
Q 2534 3019 2420 3045 
Q 2306 3072 2169 3072 
Q 1681 3072 1420 2755 
Q 1159 2438 1159 1844 
L 1159 0 
L 581 0 
L 581 3500 
L 1159 3500 
L 1159 2956 
Q 1341 3275 1631 3429 
Q 1922 3584 2338 3584 
Q 2397 3584 2469 3576 
Q 2541 3569 2628 3553 
L 2631 2963 
z
" transform="scale(0.015625)"/>
       <path id="DejaVuSans-48" d="M 3597 1894 
L 3597 1613 
L 953 1613 
Q 991 1019 1311 708 
Q 1631 397 2203 397 
Q 2534 397 2845 478 
Q 3156 559 3463 722 
L 3463 178 
Q 3153 47 2828 -22 
Q 2503 -91 2169 -91 
Q 1331 -91 842 396 
Q 353 884 353 1716 
Q 353 2575 817 3079 
Q 1281 3584 2069 3584 
Q 2775 3584 3186 3129 
Q 3597 2675 3597 1894 
z
M 3022 2063 
Q 3016 2534 2758 2815 
Q 2500 3097 2075 3097 
Q 1594 3097 1305 2825 
Q 1016 2553 972 2059 
L 3022 2063 
z
" transform="scale(0.015625)"/>
       <path id="DejaVuSans-54" d="M 947 1747 
Q 947 1113 1208 752 
Q 1469 391 1925 391 
Q 2381 391 2643 752 
Q 2906 1113 2906 1747 
Q 2906 2381 2643 2742 
Q 2381 3103 1925 3103 
Q 1469 3103 1208 2742 
Q 947 2381 947 1747 
z
M 2906 525 
Q 2725 213 2448 61 
Q 2172 -91 1784 -91 
Q 1150 -91 751 415 
Q 353 922 353 1747 
Q 353 2572 751 3078 
Q 1150 3584 1784 3584 
Q 2172 3584 2448 3432 
Q 2725 3281 2906 2969 
L 2906 3500 
L 3481 3500 
L 3481 -1331 
L 2906 -1331 
L 2906 525 
z
" transform="scale(0.015625)"/>
       <path id="DejaVuSans-58" d="M 544 1381 
L 544 3500 
L 1119 3500 
L 1119 1403 
Q 1119 906 1312 657 
Q 1506 409 1894 409 
Q 2359 409 2629 706 
Q 2900 1003 2900 1516 
L 2900 3500 
L 3475 3500 
L 3475 0 
L 2900 0 
L 2900 538 
Q 2691 219 2414 64 
Q 2138 -91 1772 -91 
Q 1169 -91 856 284 
Q 544 659 544 1381 
z
M 1991 3584 
L 1991 3584 
z
" transform="scale(0.015625)"/>
       <path id="DejaVuSans-ac" d="M 3597 1894 
L 3597 1613 
L 953 1613 
Q 991 1019 1311 708 
Q 1631 397 2203 397 
Q 2534 397 2845 478 
Q 3156 559 3463 722 
L 3463 178 
Q 3153 47 2828 -22 
Q 2503 -91 2169 -91 
Q 1331 -91 842 396 
Q 353 884 353 1716 
Q 353 2575 817 3079 
Q 1281 3584 2069 3584 
Q 2775 3584 3186 3129 
Q 3597 2675 3597 1894 
z
M 3022 2063 
Q 3016 2534 2758 2815 
Q 2500 3097 2075 3097 
Q 1594 3097 1305 2825 
Q 1016 2553 972 2059 
L 3022 2063 
z
M 1803 5119 
L 2265 5119 
L 3031 3944 
L 2597 3944 
L 2034 4709 
L 1472 3944 
L 1037 3944 
L 1803 5119 
z
" transform="scale(0.015625)"/>
       <path id="DejaVuSans-51" d="M 3513 2113 
L 3513 0 
L 2938 0 
L 2938 2094 
Q 2938 2591 2744 2837 
Q 2550 3084 2163 3084 
Q 1697 3084 1428 2787 
Q 1159 2491 1159 1978 
L 1159 0 
L 581 0 
L 581 3500 
L 1159 3500 
L 1159 2956 
Q 1366 3272 1645 3428 
Q 1925 3584 2291 3584 
Q 2894 3584 3203 3211 
Q 3513 2838 3513 2113 
z
" transform="scale(0.015625)"/>
       <path id="DejaVuSans-46" d="M 3122 3366 
L 3122 2828 
Q 2878 2963 2633 3030 
Q 2388 3097 2138 3097 
Q 1578 3097 1268 2742 
Q 959 2388 959 1747 
Q 959 1106 1268 751 
Q 1578 397 2138 397 
Q 2388 397 2633 464 
Q 2878 531 3122 666 
L 3122 134 
Q 2881 22 2623 -34 
Q 2366 -91 2075 -91 
Q 1284 -91 818 406 
Q 353 903 353 1747 
Q 353 2603 823 3093 
Q 1294 3584 2113 3584 
Q 2378 3584 2631 3529 
Q 2884 3475 3122 3366 
z
" transform="scale(0.015625)"/>
       <path id="DejaVuSans-4c" d="M 603 3500 
L 1178 3500 
L 1178 0 
L 603 0 
L 603 3500 
z
M 603 4863 
L 1178 4863 
L 1178 4134 
L 603 4134 
L 603 4863 
z
" transform="scale(0.015625)"/>
       <path id="DejaVuSans-44" d="M 2194 1759 
Q 1497 1759 1228 1600 
Q 959 1441 959 1056 
Q 959 750 1161 570 
Q 1363 391 1709 391 
Q 2188 391 2477 730 
Q 2766 1069 2766 1631 
L 2766 1759 
L 2194 1759 
z
M 3341 1997 
L 3341 0 
L 2766 0 
L 2766 531 
Q 2569 213 2275 61 
Q 1981 -91 1556 -91 
Q 1019 -91 701 211 
Q 384 513 384 1019 
Q 384 1609 779 1909 
Q 1175 2209 1959 2209 
L 2766 2209 
L 2766 2266 
Q 2766 2663 2505 2880 
Q 2244 3097 1772 3097 
Q 1472 3097 1187 3025 
Q 903 2953 641 2809 
L 641 3341 
Q 956 3463 1253 3523 
Q 1550 3584 1831 3584 
Q 2591 3584 2966 3190 
Q 3341 2797 3341 1997 
z
" transform="scale(0.015625)"/>
       <path id="DejaVuSans-3" transform="scale(0.015625)"/>
       <path id="DejaVuSans-53" d="M 1159 525 
L 1159 -1331 
L 581 -1331 
L 581 3500 
L 1159 3500 
L 1159 2969 
Q 1341 3281 1617 3432 
Q 1894 3584 2278 3584 
Q 2916 3584 3314 3078 
Q 3713 2572 3713 1747 
Q 3713 922 3314 415 
Q 2916 -91 2278 -91 
Q 1894 -91 1617 61 
Q 1341 213 1159 525 
z
M 3116 1747 
Q 3116 2381 2855 2742 
Q 2594 3103 2138 3103 
Q 1681 3103 1420 2742 
Q 1159 2381 1159 1747 
Q 1159 1113 1420 752 
Q 1681 391 2138 391 
Q 2594 391 2855 752 
Q 3116 1113 3116 1747 
z
" transform="scale(0.015625)"/>
       <path id="DejaVuSans-52" d="M 1959 3097 
Q 1497 3097 1228 2736 
Q 959 2375 959 1747 
Q 959 1119 1226 758 
Q 1494 397 1959 397 
Q 2419 397 2687 759 
Q 2956 1122 2956 1747 
Q 2956 2369 2687 2733 
Q 2419 3097 1959 3097 
z
M 1959 3584 
Q 2709 3584 3137 3096 
Q 3566 2609 3566 1747 
Q 3566 888 3137 398 
Q 2709 -91 1959 -91 
Q 1206 -91 779 398 
Q 353 888 353 1747 
Q 353 2609 779 3096 
Q 1206 3584 1959 3584 
z
" transform="scale(0.015625)"/>
       <path id="DejaVuSans-14" d="M 794 531 
L 1825 531 
L 1825 4091 
L 703 3866 
L 703 4441 
L 1819 4666 
L 2450 4666 
L 2450 531 
L 3481 531 
L 3481 0 
L 794 0 
L 794 531 
z
" transform="scale(0.015625)"/>
       <path id="DejaVuSans-13" d="M 2034 4250 
Q 1547 4250 1301 3770 
Q 1056 3291 1056 2328 
Q 1056 1369 1301 889 
Q 1547 409 2034 409 
Q 2525 409 2770 889 
Q 3016 1369 3016 2328 
Q 3016 3291 2770 3770 
Q 2525 4250 2034 4250 
z
M 2034 4750 
Q 2819 4750 3233 4129 
Q 3647 3509 3647 2328 
Q 3647 1150 3233 529 
Q 2819 -91 2034 -91 
Q 1250 -91 836 529 
Q 422 1150 422 2328 
Q 422 3509 836 4129 
Q 1250 4750 2034 4750 
z
" transform="scale(0.015625)"/>
       <path id="DejaVuSans-11" d="M 684 794 
L 1344 794 
L 1344 0 
L 684 0 
L 684 794 
z
" transform="scale(0.015625)"/>
       <path id="DejaVuSans-4f" d="M 603 4863 
L 1178 4863 
L 1178 0 
L 603 0 
L 603 4863 
z
" transform="scale(0.015625)"/>
       <path id="DejaVuSans-59" d="M 191 3500 
L 800 3500 
L 1894 563 
L 2988 3500 
L 3597 3500 
L 2284 0 
L 1503 0 
L 191 3500 
z
" transform="scale(0.015625)"/>
       <path id="DejaVuSans-56" d="M 2834 3397 
L 2834 2853 
Q 2591 2978 2328 3040 
Q 2066 3103 1784 3103 
Q 1356 3103 1142 2972 
Q 928 2841 928 2578 
Q 928 2378 1081 2264 
Q 1234 2150 1697 2047 
L 1894 2003 
Q 2506 1872 2764 1633 
Q 3022 1394 3022 966 
Q 3022 478 2636 193 
Q 2250 -91 1575 -91 
Q 1294 -91 989 -36 
Q 684 19 347 128 
L 347 722 
Q 666 556 975 473 
Q 1284 391 1588 391 
Q 1994 391 2212 530 
Q 2431 669 2431 922 
Q 2431 1156 2273 1281 
Q 2116 1406 1581 1522 
L 1381 1569 
Q 847 1681 609 1914 
Q 372 2147 372 2553 
Q 372 3047 722 3315 
Q 1072 3584 1716 3584 
Q 2034 3584 2315 3537 
Q 2597 3491 2834 3397 
z
" transform="scale(0.015625)"/>
      </defs>
      <use xlink:href="#DejaVuSans-49"/>
      <use xlink:href="#DejaVuSans-55" transform="translate(35.203125 0)"/>
      <use xlink:href="#DejaVuSans-48" transform="translate(74.109375 0)"/>
      <use xlink:href="#DejaVuSans-54" transform="translate(135.640625 0)"/>
      <use xlink:href="#DejaVuSans-58" transform="translate(199.125 0)"/>
      <use xlink:href="#DejaVuSans-ac" transform="translate(262.5 0)"/>
      <use xlink:href="#DejaVuSans-51" transform="translate(324.03125 0)"/>
      <use xlink:href="#DejaVuSans-46" transform="translate(387.40625 0)"/>
      <use xlink:href="#DejaVuSans-4c" transform="translate(442.390625 0)"/>
      <use xlink:href="#DejaVuSans-44" transform="translate(470.171875 0)"/>
      <use xlink:href="#DejaVuSans-3" transform="translate(531.453125 0)"/>
      <use xlink:href="#DejaVuSans-53" transform="translate(563.234375 0)"/>
      <use xlink:href="#DejaVuSans-52" transform="translate(626.71875 0)"/>
      <use xlink:href="#DejaVuSans-55" transform="translate(687.90625 0)"/>
      <use xlink:href="#DejaVuSans-3" transform="translate(729.015625 0)"/>
      <use xlink:href="#DejaVuSans-14" transform="translate(760.796875 0)"/>
      <use xlink:href="#DejaVuSans-13" transform="translate(824.421875 0)"/>
      <use xlink:href="#DejaVuSans-11" transform="translate(888.046875 0)"/>
      <use xlink:href="#DejaVuSans-13" transform="translate(919.828125 0)"/>
      <use xlink:href="#DejaVuSans-13" transform="translate(983.453125 0)"/>
      <use xlink:href="#DejaVuSans-13" transform="translate(1047.078125 0)"/>
      <use xlink:href="#DejaVuSans-3" transform="translate(1110.703125 0)"/>
      <use xlink:href="#DejaVuSans-53" transform="translate(1142.484375 0)"/>
      <use xlink:href="#DejaVuSans-44" transform="translate(1205.96875 0)"/>
      <use xlink:href="#DejaVuSans-4f" transform="translate(1267.25 0)"/>
      <use xlink:href="#DejaVuSans-44" transform="translate(1295.03125 0)"/>
      <use xlink:href="#DejaVuSans-59" transform="translate(1356.3125 0)"/>
      <use xlink:href="#DejaVuSans-55" transform="translate(1415.5 0)"/>
      <use xlink:href="#DejaVuSans-44" transform="translate(1456.609375 0)"/>
      <use xlink:href="#DejaVuSans-56" transform="translate(1517.890625 0)"/>
     </g>
    </g>
   </g>
   <g id="matplotlib.axis_2">
    <g id="ytick_1">
     <g id="text_2">
      <!-- inscription -->
      <g style="fill: #1a1a1a" transform="translate(54.745312 344.799471) scale(0.09 -0.09)">
       <defs>
        <path id="DejaVuSans-57" d="M 1172 4494 
L 1172 3500 
L 2356 3500 
L 2356 3053 
L 1172 3053 
L 1172 1153 
Q 1172 725 1289 603 
Q 1406 481 1766 481 
L 2356 481 
L 2356 0 
L 1766 0 
Q 1100 0 847 248 
Q 594 497 594 1153 
L 594 3053 
L 172 3053 
L 172 3500 
L 594 3500 
L 594 4494 
L 1172 4494 
z
" transform="scale(0.015625)"/>
       </defs>
       <use xlink:href="#DejaVuSans-4c"/>
       <use xlink:href="#DejaVuSans-51" transform="translate(27.78125 0)"/>
       <use xlink:href="#DejaVuSans-56" transform="translate(91.15625 0)"/>
       <use xlink:href="#DejaVuSans-46" transform="translate(143.25 0)"/>
       <use xlink:href="#DejaVuSans-55" transform="translate(198.234375 0)"/>
       <use xlink:href="#DejaVuSans-4c" transform="translate(239.34375 0)"/>
       <use xlink:href="#DejaVuSans-53" transform="translate(267.125 0)"/>
       <use xlink:href="#DejaVuSans-57" transform="translate(330.609375 0)"/>
       <use xlink:href="#DejaVuSans-4c" transform="translate(369.8125 0)"/>
       <use xlink:href="#DejaVuSans-52" transform="translate(397.59375 0)"/>
       <use xlink:href="#DejaVuSans-51" transform="translate(458.78125 0)"/>
      </g>
     </g>
    </g>
    <g id="ytick_2">
     <g id="text_3">
      <!-- articulation -->
      <g style="fill: #1a1a1a" transform="translate(50.588437 311.294427) scale(0.09 -0.09)">
       <use xlink:href="#DejaVuSans-44"/>
       <use xlink:href="#DejaVuSans-55" transform="translate(61.28125 0)"/>
       <use xlink:href="#DejaVuSans-57" transform="translate(102.390625 0)"/>
       <use xlink:href="#DejaVuSans-4c" transform="translate(141.59375 0)"/>
       <use xlink:href="#DejaVuSans-46" transform="translate(169.375 0)"/>
       <use xlink:href="#DejaVuSans-58" transform="translate(224.359375 0)"/>
       <use xlink:href="#DejaVuSans-4f" transform="translate(287.734375 0)"/>
       <use xlink:href="#DejaVuSans-44" transform="translate(315.515625 0)"/>
       <use xlink:href="#DejaVuSans-57" transform="translate(376.796875 0)"/>
       <use xlink:href="#DejaVuSans-4c" transform="translate(416 0)"/>
       <use xlink:href="#DejaVuSans-52" transform="translate(443.78125 0)"/>
       <use xlink:href="#DejaVuSans-51" transform="translate(504.96875 0)"/>
      </g>
     </g>
    </g>
    <g id="ytick_3">
     <g id="text_4">
      <!-- textil -->
      <g style="fill: #1a1a1a" transform="translate(78.975 277.789384) scale(0.09 -0.09)">
       <defs>
        <path id="DejaVuSans-5b" d="M 3513 3500 
L 2247 1797 
L 3578 0 
L 2900 0 
L 1881 1375 
L 863 0 
L 184 0 
L 1544 1831 
L 300 3500 
L 978 3500 
L 1906 2253 
L 2834 3500 
L 3513 3500 
z
" transform="scale(0.015625)"/>
       </defs>
       <use xlink:href="#DejaVuSans-57"/>
       <use xlink:href="#DejaVuSans-48" transform="translate(39.203125 0)"/>
       <use xlink:href="#DejaVuSans-5b" transform="translate(98.984375 0)"/>
       <use xlink:href="#DejaVuSans-57" transform="translate(158.171875 0)"/>
       <use xlink:href="#DejaVuSans-4c" transform="translate(197.375 0)"/>
       <use xlink:href="#DejaVuSans-4f" transform="translate(225.15625 0)"/>
      </g>
     </g>
    </g>
    <g id="ytick_4">
     <g id="text_5">
      <!-- translation -->
      <g style="fill: #1a1a1a" transform="translate(53.348906 244.28434) scale(0.09 -0.09)">
       <use xlink:href="#DejaVuSans-57"/>
       <use xlink:href="#DejaVuSans-55" transform="translate(39.203125 0)"/>
       <use xlink:href="#DejaVuSans-44" transform="translate(80.3125 0)"/>
       <use xlink:href="#DejaVuSans-51" transform="translate(141.59375 0)"/>
       <use xlink:href="#DejaVuSans-56" transform="translate(204.96875 0)"/>
       <use xlink:href="#DejaVuSans-4f" transform="translate(257.0625 0)"/>
       <use xlink:href="#DejaVuSans-44" transform="translate(284.84375 0)"/>
       <use xlink:href="#DejaVuSans-57" transform="translate(346.125 0)"/>
       <use xlink:href="#DejaVuSans-4c" transform="translate(385.328125 0)"/>
       <use xlink:href="#DejaVuSans-52" transform="translate(413.109375 0)"/>
       <use xlink:href="#DejaVuSans-51" transform="translate(474.296875 0)"/>
      </g>
     </g>
    </g>
    <g id="ytick_5">
     <g id="text_6">
      <!-- circulating_reference -->
      <g style="fill: #1a1a1a" transform="translate(7.2 210.779297) scale(0.09 -0.09)">
       <defs>
        <path id="DejaVuSans-4a" d="M 2906 1791 
Q 2906 2416 2648 2759 
Q 2391 3103 1925 3103 
Q 1463 3103 1205 2759 
Q 947 2416 947 1791 
Q 947 1169 1205 825 
Q 1463 481 1925 481 
Q 2391 481 2648 825 
Q 2906 1169 2906 1791 
z
M 3481 434 
Q 3481 -459 3084 -895 
Q 2688 -1331 1869 -1331 
Q 1566 -1331 1297 -1286 
Q 1028 -1241 775 -1147 
L 775 -588 
Q 1028 -725 1275 -790 
Q 1522 -856 1778 -856 
Q 2344 -856 2625 -561 
Q 2906 -266 2906 331 
L 2906 616 
Q 2728 306 2450 153 
Q 2172 0 1784 0 
Q 1141 0 747 490 
Q 353 981 353 1791 
Q 353 2603 747 3093 
Q 1141 3584 1784 3584 
Q 2172 3584 2450 3431 
Q 2728 3278 2906 2969 
L 2906 3500 
L 3481 3500 
L 3481 434 
z
" transform="scale(0.015625)"/>
        <path id="DejaVuSans-42" d="M 3263 -1063 
L 3263 -1509 
L -63 -1509 
L -63 -1063 
L 3263 -1063 
z
" transform="scale(0.015625)"/>
       </defs>
       <use xlink:href="#DejaVuSans-46"/>
       <use xlink:href="#DejaVuSans-4c" transform="translate(54.984375 0)"/>
       <use xlink:href="#DejaVuSans-55" transform="translate(82.765625 0)"/>
       <use xlink:href="#DejaVuSans-46" transform="translate(121.671875 0)"/>
       <use xlink:href="#DejaVuSans-58" transform="translate(176.65625 0)"/>
       <use xlink:href="#DejaVuSans-4f" transform="translate(240.03125 0)"/>
       <use xlink:href="#DejaVuSans-44" transform="translate(267.8125 0)"/>
       <use xlink:href="#DejaVuSans-57" transform="translate(329.09375 0)"/>
       <use xlink:href="#DejaVuSans-4c" transform="translate(368.296875 0)"/>
       <use xlink:href="#DejaVuSans-51" transform="translate(396.078125 0)"/>
       <use xlink:href="#DejaVuSans-4a" transform="translate(459.453125 0)"/>
       <use xlink:href="#DejaVuSans-42" transform="translate(522.9375 0)"/>
       <use xlink:href="#DejaVuSans-55" transform="translate(572.9375 0)"/>
       <use xlink:href="#DejaVuSans-48" transform="translate(611.84375 0)"/>
       <use xlink:href="#DejaVuSans-49" transform="translate(673.375 0)"/>
       <use xlink:href="#DejaVuSans-48" transform="translate(708.578125 0)"/>
       <use xlink:href="#DejaVuSans-55" transform="translate(770.109375 0)"/>
       <use xlink:href="#DejaVuSans-48" transform="translate(809.015625 0)"/>
       <use xlink:href="#DejaVuSans-51" transform="translate(870.546875 0)"/>
       <use xlink:href="#DejaVuSans-46" transform="translate(933.921875 0)"/>
       <use xlink:href="#DejaVuSans-48" transform="translate(988.90625 0)"/>
      </g>
     </g>
    </g>
    <g id="ytick_6">
     <g id="text_7">
      <!-- construction -->
      <g style="fill: #1a1a1a" transform="translate(45.772031 177.274253) scale(0.09 -0.09)">
       <use xlink:href="#DejaVuSans-46"/>
       <use xlink:href="#DejaVuSans-52" transform="translate(54.984375 0)"/>
       <use xlink:href="#DejaVuSans-51" transform="translate(116.171875 0)"/>
       <use xlink:href="#DejaVuSans-56" transform="translate(179.546875 0)"/>
       <use xlink:href="#DejaVuSans-57" transform="translate(231.640625 0)"/>
       <use xlink:href="#DejaVuSans-55" transform="translate(270.84375 0)"/>
       <use xlink:href="#DejaVuSans-58" transform="translate(311.953125 0)"/>
       <use xlink:href="#DejaVuSans-46" transform="translate(375.328125 0)"/>
       <use xlink:href="#DejaVuSans-57" transform="translate(430.3125 0)"/>
       <use xlink:href="#DejaVuSans-4c" transform="translate(469.515625 0)"/>
       <use xlink:href="#DejaVuSans-52" transform="translate(497.296875 0)"/>
       <use xlink:href="#DejaVuSans-51" transform="translate(558.484375 0)"/>
      </g>
     </g>
    </g>
    <g id="ytick_7">
     <g id="text_8">
      <!-- actor_network -->
      <g style="fill: #1a1a1a" transform="translate(37.492031 143.76921) scale(0.09 -0.09)">
       <defs>
        <path id="DejaVuSans-5a" d="M 269 3500 
L 844 3500 
L 1563 769 
L 2278 3500 
L 2956 3500 
L 3675 769 
L 4391 3500 
L 4966 3500 
L 4050 0 
L 3372 0 
L 2619 2869 
L 1863 0 
L 1184 0 
L 269 3500 
z
" transform="scale(0.015625)"/>
        <path id="DejaVuSans-4e" d="M 581 4863 
L 1159 4863 
L 1159 1991 
L 2875 3500 
L 3609 3500 
L 1753 1863 
L 3688 0 
L 2938 0 
L 1159 1709 
L 1159 0 
L 581 0 
L 581 4863 
z
" transform="scale(0.015625)"/>
       </defs>
       <use xlink:href="#DejaVuSans-44"/>
       <use xlink:href="#DejaVuSans-46" transform="translate(61.28125 0)"/>
       <use xlink:href="#DejaVuSans-57" transform="translate(116.265625 0)"/>
       <use xlink:href="#DejaVuSans-52" transform="translate(155.46875 0)"/>
       <use xlink:href="#DejaVuSans-55" transform="translate(216.65625 0)"/>
       <use xlink:href="#DejaVuSans-42" transform="translate(257.765625 0)"/>
       <use xlink:href="#DejaVuSans-51" transform="translate(307.765625 0)"/>
       <use xlink:href="#DejaVuSans-48" transform="translate(371.140625 0)"/>
       <use xlink:href="#DejaVuSans-57" transform="translate(432.671875 0)"/>
       <use xlink:href="#DejaVuSans-5a" transform="translate(471.875 0)"/>
       <use xlink:href="#DejaVuSans-52" transform="translate(553.65625 0)"/>
       <use xlink:href="#DejaVuSans-55" transform="translate(614.84375 0)"/>
       <use xlink:href="#DejaVuSans-4e" transform="translate(655.953125 0)"/>
      </g>
     </g>
    </g>
    <g id="ytick_8">
     <g id="text_9">
      <!-- network -->
      <g style="fill: #1a1a1a" transform="translate(65.190937 110.264166) scale(0.09 -0.09)">
       <use xlink:href="#DejaVuSans-51"/>
       <use xlink:href="#DejaVuSans-48" transform="translate(63.375 0)"/>
       <use xlink:href="#DejaVuSans-57" transform="translate(124.90625 0)"/>
       <use xlink:href="#DejaVuSans-5a" transform="translate(164.109375 0)"/>
       <use xlink:href="#DejaVuSans-52" transform="translate(245.890625 0)"/>
       <use xlink:href="#DejaVuSans-55" transform="translate(307.078125 0)"/>
       <use xlink:href="#DejaVuSans-4e" transform="translate(348.1875 0)"/>
      </g>
     </g>
    </g>
    <g id="ytick_9">
     <g id="text_10">
      <!-- topologia -->
      <g style="fill: #1a1a1a" transform="translate(59.747344 76.759123) scale(0.09 -0.09)">
       <use xlink:href="#DejaVuSans-57"/>
       <use xlink:href="#DejaVuSans-52" transform="translate(39.203125 0)"/>
       <use xlink:href="#DejaVuSans-53" transform="translate(100.390625 0)"/>
       <use xlink:href="#DejaVuSans-52" transform="translate(163.875 0)"/>
       <use xlink:href="#DejaVuSans-4f" transform="translate(225.0625 0)"/>
       <use xlink:href="#DejaVuSans-52" transform="translate(252.84375 0)"/>
       <use xlink:href="#DejaVuSans-4a" transform="translate(314.03125 0)"/>
       <use xlink:href="#DejaVuSans-4c" transform="translate(377.515625 0)"/>
       <use xlink:href="#DejaVuSans-44" transform="translate(405.296875 0)"/>
      </g>
     </g>
    </g>
   </g>
   <g id="PathCollection_1">
    <defs>
     <path id="C0_0_dbaa0534d9" d="M 0 6.123724 
C 1.624031 6.123724 3.181764 5.47849 4.330127 4.330127 
C 5.47849 3.181764 6.123724 1.624031 6.123724 -0 
C 6.123724 -1.624031 5.47849 -3.181764 4.330127 -4.330127 
C 3.181764 -5.47849 1.624031 -6.123724 0 -6.123724 
C -1.624031 -6.123724 -3.181764 -5.47849 -4.330127 -4.330127 
C -5.47849 -3.181764 -6.123724 -1.624031 -6.123724 0 
C -6.123724 1.624031 -5.47849 3.181764 -4.330127 4.330127 
C -3.181764 5.47849 -1.624031 6.123724 0 6.123724 
z
"/>
    </defs>
    <g clip-path="url(#pa6874caee4)">
     <use xlink:href="#C0_0_dbaa0534d9" x="113.32486" y="341.380174" style="fill: #0072b2; stroke: #ffffff; stroke-width: 1.4"/>
    </g>
    <g clip-path="url(#pa6874caee4)">
     <use xlink:href="#C0_0_dbaa0534d9" x="113.32486" y="307.87513" style="fill: #0072b2; stroke: #ffffff; stroke-width: 1.4"/>
    </g>
    <g clip-path="url(#pa6874caee4)">
     <use xlink:href="#C0_0_dbaa0534d9" x="113.32486" y="274.370087" style="fill: #009e73; stroke: #ffffff; stroke-width: 1.4"/>
    </g>
    <g clip-path="url(#pa6874caee4)">
     <use xlink:href="#C0_0_dbaa0534d9" x="117.910346" y="240.865043" style="fill: #0072b2; stroke: #ffffff; stroke-width: 1.4"/>
    </g>
    <g clip-path="url(#pa6874caee4)">
     <use xlink:href="#C0_0_dbaa0534d9" x="117.910346" y="207.36" style="fill: #0072b2; stroke: #ffffff; stroke-width: 1.4"/>
    </g>
    <g clip-path="url(#pa6874caee4)">
     <use xlink:href="#C0_0_dbaa0534d9" x="117.910346" y="173.854957" style="fill: #0072b2; stroke: #ffffff; stroke-width: 1.4"/>
    </g>
    <g clip-path="url(#pa6874caee4)">
     <use xlink:href="#C0_0_dbaa0534d9" x="150.008743" y="140.349913" style="fill: #0072b2; stroke: #ffffff; stroke-width: 1.4"/>
    </g>
    <g clip-path="url(#pa6874caee4)">
     <use xlink:href="#C0_0_dbaa0534d9" x="237.132963" y="106.84487" style="fill: #0072b2; stroke: #ffffff; stroke-width: 1.4"/>
    </g>
    <g clip-path="url(#pa6874caee4)">
     <use xlink:href="#C0_0_dbaa0534d9" x="328.842668" y="73.339826" style="fill: #0072b2; stroke: #ffffff; stroke-width: 1.4"/>
    </g>
   </g>
   <g id="text_11">
    <!-- 2,1 -->
    <g style="fill: #1a1a1a" transform="translate(124.32486 343.847947) scale(0.095 -0.095)">
     <defs>
      <path id="DejaVuSans-15" d="M 1228 531 
L 3431 531 
L 3431 0 
L 469 0 
L 469 531 
Q 828 903 1448 1529 
Q 2069 2156 2228 2338 
Q 2531 2678 2651 2914 
Q 2772 3150 2772 3378 
Q 2772 3750 2511 3984 
Q 2250 4219 1831 4219 
Q 1534 4219 1204 4116 
Q 875 4013 500 3803 
L 500 4441 
Q 881 4594 1212 4672 
Q 1544 4750 1819 4750 
Q 2544 4750 2975 4387 
Q 3406 4025 3406 3419 
Q 3406 3131 3298 2873 
Q 3191 2616 2906 2266 
Q 2828 2175 2409 1742 
Q 1991 1309 1228 531 
z
" transform="scale(0.015625)"/>
      <path id="DejaVuSans-f" d="M 750 794 
L 1409 794 
L 1409 256 
L 897 -744 
L 494 -744 
L 750 256 
L 750 794 
z
" transform="scale(0.015625)"/>
     </defs>
     <use xlink:href="#DejaVuSans-15"/>
     <use xlink:href="#DejaVuSans-f" transform="translate(63.625 0)"/>
     <use xlink:href="#DejaVuSans-14" transform="translate(95.40625 0)"/>
    </g>
   </g>
   <g id="text_12">
    <!-- 2,1 -->
    <g style="fill: #1a1a1a" transform="translate(124.32486 310.342904) scale(0.095 -0.095)">
     <use xlink:href="#DejaVuSans-15"/>
     <use xlink:href="#DejaVuSans-f" transform="translate(63.625 0)"/>
     <use xlink:href="#DejaVuSans-14" transform="translate(95.40625 0)"/>
    </g>
   </g>
   <g id="text_13">
    <!-- 2,1 -->
    <g style="fill: #1a1a1a" transform="translate(124.32486 276.83786) scale(0.095 -0.095)">
     <use xlink:href="#DejaVuSans-15"/>
     <use xlink:href="#DejaVuSans-f" transform="translate(63.625 0)"/>
     <use xlink:href="#DejaVuSans-14" transform="translate(95.40625 0)"/>
    </g>
   </g>
   <g id="text_14">
    <!-- 4,1 -->
    <g style="fill: #1a1a1a" transform="translate(128.910346 243.332817) scale(0.095 -0.095)">
     <defs>
      <path id="DejaVuSans-17" d="M 2419 4116 
L 825 1625 
L 2419 1625 
L 2419 4116 
z
M 2253 4666 
L 3047 4666 
L 3047 1625 
L 3713 1625 
L 3713 1100 
L 3047 1100 
L 3047 0 
L 2419 0 
L 2419 1100 
L 313 1100 
L 313 1709 
L 2253 4666 
z
" transform="scale(0.015625)"/>
     </defs>
     <use xlink:href="#DejaVuSans-17"/>
     <use xlink:href="#DejaVuSans-f" transform="translate(63.625 0)"/>
     <use xlink:href="#DejaVuSans-14" transform="translate(95.40625 0)"/>
    </g>
   </g>
   <g id="text_15">
    <!-- 4,1 -->
    <g style="fill: #1a1a1a" transform="translate(128.910346 209.827773) scale(0.095 -0.095)">
     <use xlink:href="#DejaVuSans-17"/>
     <use xlink:href="#DejaVuSans-f" transform="translate(63.625 0)"/>
     <use xlink:href="#DejaVuSans-14" transform="translate(95.40625 0)"/>
    </g>
   </g>
   <g id="text_16">
    <!-- 4,1 -->
    <g style="fill: #1a1a1a" transform="translate(128.910346 176.32273) scale(0.095 -0.095)">
     <use xlink:href="#DejaVuSans-17"/>
     <use xlink:href="#DejaVuSans-f" transform="translate(63.625 0)"/>
     <use xlink:href="#DejaVuSans-14" transform="translate(95.40625 0)"/>
    </g>
   </g>
   <g id="text_17">
    <!-- 18,7 -->
    <g style="fill: #1a1a1a" transform="translate(161.008743 142.817686) scale(0.095 -0.095)">
     <defs>
      <path id="DejaVuSans-1b" d="M 2034 2216 
Q 1584 2216 1326 1975 
Q 1069 1734 1069 1313 
Q 1069 891 1326 650 
Q 1584 409 2034 409 
Q 2484 409 2743 651 
Q 3003 894 3003 1313 
Q 3003 1734 2745 1975 
Q 2488 2216 2034 2216 
z
M 1403 2484 
Q 997 2584 770 2862 
Q 544 3141 544 3541 
Q 544 4100 942 4425 
Q 1341 4750 2034 4750 
Q 2731 4750 3128 4425 
Q 3525 4100 3525 3541 
Q 3525 3141 3298 2862 
Q 3072 2584 2669 2484 
Q 3125 2378 3379 2068 
Q 3634 1759 3634 1313 
Q 3634 634 3220 271 
Q 2806 -91 2034 -91 
Q 1263 -91 848 271 
Q 434 634 434 1313 
Q 434 1759 690 2068 
Q 947 2378 1403 2484 
z
M 1172 3481 
Q 1172 3119 1398 2916 
Q 1625 2713 2034 2713 
Q 2441 2713 2670 2916 
Q 2900 3119 2900 3481 
Q 2900 3844 2670 4047 
Q 2441 4250 2034 4250 
Q 1625 4250 1398 4047 
Q 1172 3844 1172 3481 
z
" transform="scale(0.015625)"/>
      <path id="DejaVuSans-1a" d="M 525 4666 
L 3525 4666 
L 3525 4397 
L 1831 0 
L 1172 0 
L 2766 4134 
L 525 4134 
L 525 4666 
z
" transform="scale(0.015625)"/>
     </defs>
     <use xlink:href="#DejaVuSans-14"/>
     <use xlink:href="#DejaVuSans-1b" transform="translate(63.625 0)"/>
     <use xlink:href="#DejaVuSans-f" transform="translate(127.25 0)"/>
     <use xlink:href="#DejaVuSans-1a" transform="translate(159.03125 0)"/>
    </g>
   </g>
   <g id="text_18">
    <!-- 58,0 -->
    <g style="fill: #1a1a1a" transform="translate(248.132963 109.312643) scale(0.095 -0.095)">
     <defs>
      <path id="DejaVuSans-18" d="M 691 4666 
L 3169 4666 
L 3169 4134 
L 1269 4134 
L 1269 2991 
Q 1406 3038 1543 3061 
Q 1681 3084 1819 3084 
Q 2600 3084 3056 2656 
Q 3513 2228 3513 1497 
Q 3513 744 3044 326 
Q 2575 -91 1722 -91 
Q 1428 -91 1123 -41 
Q 819 9 494 109 
L 494 744 
Q 775 591 1075 516 
Q 1375 441 1709 441 
Q 2250 441 2565 725 
Q 2881 1009 2881 1497 
Q 2881 1984 2565 2268 
Q 2250 2553 1709 2553 
Q 1456 2553 1204 2497 
Q 953 2441 691 2322 
L 691 4666 
z
" transform="scale(0.015625)"/>
     </defs>
     <use xlink:href="#DejaVuSans-18"/>
     <use xlink:href="#DejaVuSans-1b" transform="translate(63.625 0)"/>
     <use xlink:href="#DejaVuSans-f" transform="translate(127.25 0)"/>
     <use xlink:href="#DejaVuSans-13" transform="translate(159.03125 0)"/>
    </g>
   </g>
   <g id="text_19">
    <!-- 99,5 -->
    <g style="fill: #1a1a1a" transform="translate(339.842668 75.8076) scale(0.095 -0.095)">
     <defs>
      <path id="DejaVuSans-1c" d="M 703 97 
L 703 672 
Q 941 559 1184 500 
Q 1428 441 1663 441 
Q 2288 441 2617 861 
Q 2947 1281 2994 2138 
Q 2813 1869 2534 1725 
Q 2256 1581 1919 1581 
Q 1219 1581 811 2004 
Q 403 2428 403 3163 
Q 403 3881 828 4315 
Q 1253 4750 1959 4750 
Q 2769 4750 3195 4129 
Q 3622 3509 3622 2328 
Q 3622 1225 3098 567 
Q 2575 -91 1691 -91 
Q 1453 -91 1209 -44 
Q 966 3 703 97 
z
M 1959 2075 
Q 2384 2075 2632 2365 
Q 2881 2656 2881 3163 
Q 2881 3666 2632 3958 
Q 2384 4250 1959 4250 
Q 1534 4250 1286 3958 
Q 1038 3666 1038 3163 
Q 1038 2656 1286 2365 
Q 1534 2075 1959 2075 
z
" transform="scale(0.015625)"/>
     </defs>
     <use xlink:href="#DejaVuSans-1c"/>
     <use xlink:href="#DejaVuSans-1c" transform="translate(63.625 0)"/>
     <use xlink:href="#DejaVuSans-f" transform="translate(127.25 0)"/>
     <use xlink:href="#DejaVuSans-18" transform="translate(159.03125 0)"/>
    </g>
   </g>
  </g>
  <g id="axes_2">
   <g id="patch_3">
    <path d="M 445.664692 361.4832 
L 945.739375 361.4832 
L 945.739375 53.2368 
L 445.664692 53.2368 
z
" style="fill: #ffffff"/>
   </g>
   <g id="matplotlib.axis_3">
    <g id="xtick_1">
     <g id="line2d_10">
      <path d="M 455.281513 361.4832 
L 455.281513 53.2368 
" clip-path="url(#pd2a351ac49)" style="fill: none; stroke-dasharray: 0.6,0.99; stroke-dashoffset: 0; stroke: #e3e3e3; stroke-width: 0.6"/>
     </g>
     <g id="line2d_11">
      <defs>
       <path id="ma2865c11c1" d="M 0 0 
L 0 3.5 
" style="stroke: #000000; stroke-width: 0.8"/>
      </defs>
      <g>
       <use xlink:href="#ma2865c11c1" x="455.281513" y="361.4832" style="stroke: #000000; stroke-width: 0.8"/>
      </g>
     </g>
     <g id="text_20">
      <!-- 0 -->
      <g transform="translate(452.736513 374.561325) scale(0.08 -0.08)">
       <use xlink:href="#DejaVuSans-13"/>
      </g>
     </g>
    </g>
    <g id="xtick_2">
     <g id="line2d_12">
      <path d="M 575.491773 361.4832 
L 575.491773 53.2368 
" clip-path="url(#pd2a351ac49)" style="fill: none; stroke-dasharray: 0.6,0.99; stroke-dashoffset: 0; stroke: #e3e3e3; stroke-width: 0.6"/>
     </g>
     <g id="line2d_13">
      <g>
       <use xlink:href="#ma2865c11c1" x="575.491773" y="361.4832" style="stroke: #000000; stroke-width: 0.8"/>
      </g>
     </g>
     <g id="text_21">
      <!-- 0,25 -->
      <g transform="translate(566.585523 374.561325) scale(0.08 -0.08)">
       <use xlink:href="#DejaVuSans-13"/>
       <use xlink:href="#DejaVuSans-f" transform="translate(63.625 0)"/>
       <use xlink:href="#DejaVuSans-15" transform="translate(95.40625 0)"/>
       <use xlink:href="#DejaVuSans-18" transform="translate(159.03125 0)"/>
      </g>
     </g>
    </g>
    <g id="xtick_3">
     <g id="line2d_14">
      <path d="M 695.702034 361.4832 
L 695.702034 53.2368 
" clip-path="url(#pd2a351ac49)" style="fill: none; stroke-dasharray: 0.6,0.99; stroke-dashoffset: 0; stroke: #e3e3e3; stroke-width: 0.6"/>
     </g>
     <g id="line2d_15">
      <g>
       <use xlink:href="#ma2865c11c1" x="695.702034" y="361.4832" style="stroke: #000000; stroke-width: 0.8"/>
      </g>
     </g>
     <g id="text_22">
      <!-- 0,5 -->
      <g transform="translate(689.340784 374.561325) scale(0.08 -0.08)">
       <use xlink:href="#DejaVuSans-13"/>
       <use xlink:href="#DejaVuSans-f" transform="translate(63.625 0)"/>
       <use xlink:href="#DejaVuSans-18" transform="translate(95.40625 0)"/>
      </g>
     </g>
    </g>
    <g id="xtick_4">
     <g id="line2d_16">
      <path d="M 815.912294 361.4832 
L 815.912294 53.2368 
" clip-path="url(#pd2a351ac49)" style="fill: none; stroke-dasharray: 0.6,0.99; stroke-dashoffset: 0; stroke: #e3e3e3; stroke-width: 0.6"/>
     </g>
     <g id="line2d_17">
      <g>
       <use xlink:href="#ma2865c11c1" x="815.912294" y="361.4832" style="stroke: #000000; stroke-width: 0.8"/>
      </g>
     </g>
     <g id="text_23">
      <!-- 0,75 -->
      <g transform="translate(807.006044 374.561325) scale(0.08 -0.08)">
       <use xlink:href="#DejaVuSans-13"/>
       <use xlink:href="#DejaVuSans-f" transform="translate(63.625 0)"/>
       <use xlink:href="#DejaVuSans-1a" transform="translate(95.40625 0)"/>
       <use xlink:href="#DejaVuSans-18" transform="translate(159.03125 0)"/>
      </g>
     </g>
    </g>
    <g id="xtick_5">
     <g id="line2d_18">
      <path d="M 936.122554 361.4832 
L 936.122554 53.2368 
" clip-path="url(#pd2a351ac49)" style="fill: none; stroke-dasharray: 0.6,0.99; stroke-dashoffset: 0; stroke: #e3e3e3; stroke-width: 0.6"/>
     </g>
     <g id="line2d_19">
      <g>
       <use xlink:href="#ma2865c11c1" x="936.122554" y="361.4832" style="stroke: #000000; stroke-width: 0.8"/>
      </g>
     </g>
     <g id="text_24">
      <!-- 1 -->
      <g transform="translate(933.577554 374.561325) scale(0.08 -0.08)">
       <use xlink:href="#DejaVuSans-14"/>
      </g>
     </g>
    </g>
    <g id="text_25">
     <!-- posição relativa no texto (0 = início, 1 = fim) -->
     <g style="fill: #6b6b6b" transform="translate(594.179924 387.681794) scale(0.09 -0.09)">
      <defs>
       <path id="DejaVuSans-a9" d="M 3122 3366 
L 3122 2828 
Q 2878 2963 2633 3030 
Q 2388 3097 2138 3097 
Q 1578 3097 1268 2742 
Q 959 2388 959 1747 
Q 959 1106 1268 751 
Q 1578 397 2138 397 
Q 2388 397 2633 464 
Q 2878 531 3122 666 
L 3122 134 
Q 2881 22 2623 -34 
Q 2366 -91 2075 -91 
Q 1284 -91 818 406 
Q 353 903 353 1747 
Q 353 2603 823 3093 
Q 1294 3584 2113 3584 
Q 2378 3584 2631 3529 
Q 2884 3475 3122 3366 
z
M 2310 0 
Q 2481 -194 2565 -358 
Q 2650 -522 2650 -672 
Q 2650 -950 2462 -1092 
Q 2275 -1234 1906 -1234 
Q 1763 -1234 1627 -1215 
Q 1491 -1197 1356 -1159 
L 1356 -750 
Q 1463 -803 1578 -826 
Q 1694 -850 1841 -850 
Q 2025 -850 2119 -775 
Q 2213 -700 2213 -556 
Q 2213 -463 2145 -327 
Q 2078 -191 1938 0 
L 2310 0 
z
" transform="scale(0.015625)"/>
       <path id="DejaVuSans-a5" d="M 2194 1759 
Q 1497 1759 1228 1600 
Q 959 1441 959 1056 
Q 959 750 1161 570 
Q 1363 391 1709 391 
Q 2188 391 2477 730 
Q 2766 1069 2766 1631 
L 2766 1759 
L 2194 1759 
z
M 3341 1997 
L 3341 0 
L 2766 0 
L 2766 531 
Q 2569 213 2275 61 
Q 1981 -91 1556 -91 
Q 1019 -91 701 211 
Q 384 513 384 1019 
Q 384 1609 779 1909 
Q 1175 2209 1959 2209 
L 2766 2209 
L 2766 2266 
Q 2766 2663 2505 2880 
Q 2244 3097 1772 3097 
Q 1472 3097 1187 3025 
Q 903 2953 641 2809 
L 641 3341 
Q 956 3463 1253 3523 
Q 1550 3584 1831 3584 
Q 2591 3584 2966 3190 
Q 3341 2797 3341 1997 
z
M 1844 4281 
L 1665 4453 
Q 1597 4516 1545 4545 
Q 1494 4575 1453 4575 
Q 1334 4575 1278 4461 
Q 1222 4347 1215 4091 
L 825 4091 
Q 831 4513 990 4742 
Q 1150 4972 1434 4972 
Q 1553 4972 1653 4928 
Q 1753 4884 1869 4781 
L 2047 4609 
Q 2115 4547 2167 4517 
Q 2219 4488 2259 4488 
Q 2378 4488 2434 4602 
Q 2490 4716 2497 4972 
L 2887 4972 
Q 2881 4550 2721 4320 
Q 2562 4091 2278 4091 
Q 2159 4091 2059 4134 
Q 1959 4178 1844 4281 
z
" transform="scale(0.015625)"/>
       <path id="DejaVuSans-b" d="M 1984 4856 
Q 1566 4138 1362 3434 
Q 1159 2731 1159 2009 
Q 1159 1288 1364 580 
Q 1569 -128 1984 -844 
L 1484 -844 
Q 1016 -109 783 600 
Q 550 1309 550 2009 
Q 550 2706 781 3412 
Q 1013 4119 1484 4856 
L 1984 4856 
z
" transform="scale(0.015625)"/>
       <path id="DejaVuSans-20" d="M 678 2906 
L 4684 2906 
L 4684 2381 
L 678 2381 
L 678 2906 
z
M 678 1631 
L 4684 1631 
L 4684 1100 
L 678 1100 
L 678 1631 
z
" transform="scale(0.015625)"/>
       <path id="DejaVuSans-af" d="M 1325 5119 
L 1947 5119 
L 929 3944 
L 450 3944 
L 1325 5119 
z
M 603 3500 
L 1178 3500 
L 1178 0 
L 603 0 
L 603 3500 
z
M 891 3584 
L 891 3584 
z
" transform="scale(0.015625)"/>
       <path id="DejaVuSans-13af" d="M 3431 3500 
L 3431 0 
L 2853 0 
L 2853 3053 
L 1275 3053 
L 1275 0 
L 697 0 
L 697 3053 
L 147 3053 
L 147 3500 
L 697 3500 
L 697 3744 
Q 697 4316 967 4589 
Q 1238 4863 1797 4863 
L 2375 4863 
L 2375 4384 
L 1825 4384 
Q 1516 4384 1395 4259 
Q 1275 4134 1275 3809 
L 1275 3500 
L 3431 3500 
z
M 2853 4856 
L 3431 4856 
L 3431 4128 
L 2853 4128 
L 2853 4856 
z
" transform="scale(0.015625)"/>
       <path id="DejaVuSans-50" d="M 3328 2828 
Q 3544 3216 3844 3400 
Q 4144 3584 4550 3584 
Q 5097 3584 5394 3201 
Q 5691 2819 5691 2113 
L 5691 0 
L 5113 0 
L 5113 2094 
Q 5113 2597 4934 2840 
Q 4756 3084 4391 3084 
Q 3944 3084 3684 2787 
Q 3425 2491 3425 1978 
L 3425 0 
L 2847 0 
L 2847 2094 
Q 2847 2600 2669 2842 
Q 2491 3084 2119 3084 
Q 1678 3084 1418 2786 
Q 1159 2488 1159 1978 
L 1159 0 
L 581 0 
L 581 3500 
L 1159 3500 
L 1159 2956 
Q 1356 3278 1631 3431 
Q 1906 3584 2284 3584 
Q 2666 3584 2933 3390 
Q 3200 3197 3328 2828 
z
" transform="scale(0.015625)"/>
       <path id="DejaVuSans-c" d="M 513 4856 
L 1013 4856 
Q 1481 4119 1714 3412 
Q 1947 2706 1947 2009 
Q 1947 1309 1714 600 
Q 1481 -109 1013 -844 
L 513 -844 
Q 928 -128 1133 580 
Q 1338 1288 1338 2009 
Q 1338 2731 1133 3434 
Q 928 4138 513 4856 
z
" transform="scale(0.015625)"/>
      </defs>
      <use xlink:href="#DejaVuSans-53"/>
      <use xlink:href="#DejaVuSans-52" transform="translate(63.484375 0)"/>
      <use xlink:href="#DejaVuSans-56" transform="translate(124.671875 0)"/>
      <use xlink:href="#DejaVuSans-4c" transform="translate(176.765625 0)"/>
      <use xlink:href="#DejaVuSans-a9" transform="translate(204.546875 0)"/>
      <use xlink:href="#DejaVuSans-a5" transform="translate(259.53125 0)"/>
      <use xlink:href="#DejaVuSans-52" transform="translate(320.8125 0)"/>
      <use xlink:href="#DejaVuSans-3" transform="translate(382 0)"/>
      <use xlink:href="#DejaVuSans-55" transform="translate(413.78125 0)"/>
      <use xlink:href="#DejaVuSans-48" transform="translate(452.6875 0)"/>
      <use xlink:href="#DejaVuSans-4f" transform="translate(514.21875 0)"/>
      <use xlink:href="#DejaVuSans-44" transform="translate(542 0)"/>
      <use xlink:href="#DejaVuSans-57" transform="translate(603.28125 0)"/>
      <use xlink:href="#DejaVuSans-4c" transform="translate(642.484375 0)"/>
      <use xlink:href="#DejaVuSans-59" transform="translate(670.265625 0)"/>
      <use xlink:href="#DejaVuSans-44" transform="translate(729.453125 0)"/>
      <use xlink:href="#DejaVuSans-3" transform="translate(790.734375 0)"/>
      <use xlink:href="#DejaVuSans-51" transform="translate(822.515625 0)"/>
      <use xlink:href="#DejaVuSans-52" transform="translate(885.890625 0)"/>
      <use xlink:href="#DejaVuSans-3" transform="translate(947.078125 0)"/>
      <use xlink:href="#DejaVuSans-57" transform="translate(978.859375 0)"/>
      <use xlink:href="#DejaVuSans-48" transform="translate(1018.0625 0)"/>
      <use xlink:href="#DejaVuSans-5b" transform="translate(1077.84375 0)"/>
      <use xlink:href="#DejaVuSans-57" transform="translate(1137.03125 0)"/>
      <use xlink:href="#DejaVuSans-52" transform="translate(1176.234375 0)"/>
      <use xlink:href="#DejaVuSans-3" transform="translate(1237.421875 0)"/>
      <use xlink:href="#DejaVuSans-b" transform="translate(1269.203125 0)"/>
      <use xlink:href="#DejaVuSans-13" transform="translate(1308.21875 0)"/>
      <use xlink:href="#DejaVuSans-3" transform="translate(1371.84375 0)"/>
      <use xlink:href="#DejaVuSans-20" transform="translate(1403.625 0)"/>
      <use xlink:href="#DejaVuSans-3" transform="translate(1487.421875 0)"/>
      <use xlink:href="#DejaVuSans-4c" transform="translate(1519.203125 0)"/>
      <use xlink:href="#DejaVuSans-51" transform="translate(1546.984375 0)"/>
      <use xlink:href="#DejaVuSans-af" transform="translate(1610.359375 0)"/>
      <use xlink:href="#DejaVuSans-46" transform="translate(1638.140625 0)"/>
      <use xlink:href="#DejaVuSans-4c" transform="translate(1693.125 0)"/>
      <use xlink:href="#DejaVuSans-52" transform="translate(1720.90625 0)"/>
      <use xlink:href="#DejaVuSans-f" transform="translate(1782.09375 0)"/>
      <use xlink:href="#DejaVuSans-3" transform="translate(1813.875 0)"/>
      <use xlink:href="#DejaVuSans-14" transform="translate(1845.65625 0)"/>
      <use xlink:href="#DejaVuSans-3" transform="translate(1909.28125 0)"/>
      <use xlink:href="#DejaVuSans-20" transform="translate(1941.0625 0)"/>
      <use xlink:href="#DejaVuSans-3" transform="translate(2024.859375 0)"/>
      <use xlink:href="#DejaVuSans-13af" transform="translate(2056.640625 0)"/>
      <use xlink:href="#DejaVuSans-50" transform="translate(2119.625 0)"/>
      <use xlink:href="#DejaVuSans-c" transform="translate(2217.03125 0)"/>
     </g>
    </g>
   </g>
   <g id="matplotlib.axis_4"/>
   <g id="PathCollection_2">
    <path d="M 576.375263 340.542899 
C 576.834608 340.542899 577.275201 340.360399 577.600008 340.035593 
C 577.924814 339.710787 578.107314 339.270194 578.107314 338.810848 
C 578.107314 338.351503 577.924814 337.91091 577.600008 337.586104 
C 577.275201 337.261297 576.834608 337.078798 576.375263 337.078798 
C 575.915918 337.078798 575.475324 337.261297 575.150518 337.586104 
C 574.825712 337.91091 574.643212 338.351503 574.643212 338.810848 
C 574.643212 339.270194 574.825712 339.710787 575.150518 340.035593 
C 575.475324 340.360399 575.915918 340.542899 576.375263 340.542899 
z
" clip-path="url(#pd2a351ac49)" style="fill: #0072b2; fill-opacity: 0.45"/>
   </g>
   <g id="PathCollection_3">
    <path d="M 799.157835 318.360176 
C 799.61718 318.360176 800.057773 318.177676 800.38258 317.85287 
C 800.707386 317.528064 800.889886 317.08747 800.889886 316.628125 
C 800.889886 316.16878 800.707386 315.728186 800.38258 315.40338 
C 800.057773 315.078574 799.61718 314.896074 799.157835 314.896074 
C 798.698489 314.896074 798.257896 315.078574 797.93309 315.40338 
C 797.608284 315.728186 797.425784 316.16878 797.425784 316.628125 
C 797.425784 317.08747 797.608284 317.528064 797.93309 317.85287 
C 798.257896 318.177676 798.698489 318.360176 799.157835 318.360176 
z
" clip-path="url(#pd2a351ac49)" style="fill: #0072b2; fill-opacity: 0.45"/>
   </g>
   <g id="PathCollection_4">
    <path d="M 640.161598 280.247847 
C 640.620944 280.247847 641.061537 280.065347 641.386343 279.740541 
C 641.711149 279.415735 641.893649 278.975141 641.893649 278.515796 
C 641.893649 278.056451 641.711149 277.615857 641.386343 277.291051 
C 641.061537 276.966245 640.620944 276.783745 640.161598 276.783745 
C 639.702253 276.783745 639.26166 276.966245 638.936853 277.291051 
C 638.612047 277.615857 638.429547 278.056451 638.429547 278.515796 
C 638.429547 278.975141 638.612047 279.415735 638.936853 279.740541 
C 639.26166 280.065347 639.702253 280.247847 640.161598 280.247847 
z
" clip-path="url(#pd2a351ac49)" style="fill: #009e73; fill-opacity: 0.45"/>
   </g>
   <g id="PathCollection_5">
    <defs>
     <path id="C1_0_bc784afdc1" d="M 0 1.732051 
C 0.459345 1.732051 0.899939 1.549551 1.224745 1.224745 
C 1.549551 0.899939 1.732051 0.459345 1.732051 -0 
C 1.732051 -0.459345 1.549551 -0.899939 1.224745 -1.224745 
C 0.899939 -1.549551 0.459345 -1.732051 0 -1.732051 
C -0.459345 -1.732051 -0.899939 -1.549551 -1.224745 -1.224745 
C -1.549551 -0.899939 -1.732051 -0.459345 -1.732051 0 
C -1.732051 0.459345 -1.549551 0.899939 -1.224745 1.224745 
C -0.899939 1.549551 -0.459345 1.732051 0 1.732051 
z
"/>
    </defs>
    <g clip-path="url(#pd2a351ac49)">
     <use xlink:href="#C1_0_bc784afdc1" x="478.650203" y="245.965653" style="fill: #0072b2; fill-opacity: 0.45"/>
    </g>
    <g clip-path="url(#pd2a351ac49)">
     <use xlink:href="#C1_0_bc784afdc1" x="679.417177" y="236.507405" style="fill: #0072b2; fill-opacity: 0.45"/>
    </g>
   </g>
   <g id="PathCollection_6">
    <defs>
     <path id="C2_0_d0339d0be9" d="M 0 1.732051 
C 0.459345 1.732051 0.899939 1.549551 1.224745 1.224745 
C 1.549551 0.899939 1.732051 0.459345 1.732051 -0 
C 1.732051 -0.459345 1.549551 -0.899939 1.224745 -1.224745 
C 0.899939 -1.549551 0.459345 -1.732051 0 -1.732051 
C -0.459345 -1.732051 -0.899939 -1.549551 -1.224745 -1.224745 
C -1.549551 -0.899939 -1.732051 -0.459345 -1.732051 0 
C -1.732051 0.459345 -1.549551 0.899939 -1.224745 1.224745 
C -0.899939 1.549551 -0.459345 1.732051 0 1.732051 
z
"/>
    </defs>
    <g clip-path="url(#pd2a351ac49)">
     <use xlink:href="#C2_0_d0339d0be9" x="809.107039" y="204.103822" style="fill: #0072b2; fill-opacity: 0.45"/>
    </g>
    <g clip-path="url(#pd2a351ac49)">
     <use xlink:href="#C2_0_d0339d0be9" x="829.689951" y="200.133004" style="fill: #0072b2; fill-opacity: 0.45"/>
    </g>
   </g>
   <g id="PathCollection_7">
    <defs>
     <path id="C3_0_0cf8259397" d="M 0 1.732051 
C 0.459345 1.732051 0.899939 1.549551 1.224745 1.224745 
C 1.549551 0.899939 1.732051 0.459345 1.732051 -0 
C 1.732051 -0.459345 1.549551 -0.899939 1.224745 -1.224745 
C 0.899939 -1.549551 0.459345 -1.732051 0 -1.732051 
C -0.459345 -1.732051 -0.899939 -1.549551 -1.224745 -1.224745 
C -1.549551 -0.899939 -1.732051 -0.459345 -1.732051 0 
C -1.732051 0.459345 -1.549551 0.899939 -1.224745 1.224745 
C -0.899939 1.549551 -0.459345 1.732051 0 1.732051 
z
"/>
    </defs>
    <g clip-path="url(#pd2a351ac49)">
     <use xlink:href="#C3_0_0cf8259397" x="720.328303" y="181.466754" style="fill: #0072b2; fill-opacity: 0.45"/>
    </g>
    <g clip-path="url(#pd2a351ac49)">
     <use xlink:href="#C3_0_0cf8259397" x="801.290944" y="175.293764" style="fill: #0072b2; fill-opacity: 0.45"/>
    </g>
   </g>
   <g id="PathCollection_8">
    <defs>
     <path id="C4_0_44946db3d1" d="M 0 1.732051 
C 0.459345 1.732051 0.899939 1.549551 1.224745 1.224745 
C 1.549551 0.899939 1.732051 0.459345 1.732051 -0 
C 1.732051 -0.459345 1.549551 -0.899939 1.224745 -1.224745 
C 0.899939 -1.549551 0.459345 -1.732051 0 -1.732051 
C -0.459345 -1.732051 -0.899939 -1.549551 -1.224745 -1.224745 
C -1.549551 -0.899939 -1.732051 -0.459345 -1.732051 0 
C -1.732051 0.459345 -1.549551 0.899939 -1.224745 1.224745 
C -0.899939 1.549551 -0.459345 1.732051 0 1.732051 
z
"/>
    </defs>
    <g clip-path="url(#pd2a351ac49)">
     <use xlink:href="#C4_0_44946db3d1" x="463.304551" y="149.014704" style="fill: #0072b2; fill-opacity: 0.45"/>
    </g>
    <g clip-path="url(#pd2a351ac49)">
     <use xlink:href="#C4_0_44946db3d1" x="507.892903" y="145.534789" style="fill: #0072b2; fill-opacity: 0.45"/>
    </g>
    <g clip-path="url(#pd2a351ac49)">
     <use xlink:href="#C4_0_44946db3d1" x="511.777072" y="140.251227" style="fill: #0072b2; fill-opacity: 0.45"/>
    </g>
    <g clip-path="url(#pd2a351ac49)">
     <use xlink:href="#C4_0_44946db3d1" x="571.679239" y="149.074801" style="fill: #0072b2; fill-opacity: 0.45"/>
    </g>
    <g clip-path="url(#pd2a351ac49)">
     <use xlink:href="#C4_0_44946db3d1" x="592.485014" y="145.899665" style="fill: #0072b2; fill-opacity: 0.45"/>
    </g>
    <g clip-path="url(#pd2a351ac49)">
     <use xlink:href="#C4_0_44946db3d1" x="655.443575" y="137.587877" style="fill: #0072b2; fill-opacity: 0.45"/>
    </g>
    <g clip-path="url(#pd2a351ac49)">
     <use xlink:href="#C4_0_44946db3d1" x="700.095602" y="139.521742" style="fill: #0072b2; fill-opacity: 0.45"/>
    </g>
    <g clip-path="url(#pd2a351ac49)">
     <use xlink:href="#C4_0_44946db3d1" x="916.55844" y="145.50157" style="fill: #0072b2; fill-opacity: 0.45"/>
    </g>
    <g clip-path="url(#pd2a351ac49)">
     <use xlink:href="#C4_0_44946db3d1" x="921.954888" y="138.704945" style="fill: #0072b2; fill-opacity: 0.45"/>
    </g>
   </g>
   <g id="PathCollection_9">
    <defs>
     <path id="C5_0_2cddd87616" d="M 0 1.732051 
C 0.459345 1.732051 0.899939 1.549551 1.224745 1.224745 
C 1.549551 0.899939 1.732051 0.459345 1.732051 -0 
C 1.732051 -0.459345 1.549551 -0.899939 1.224745 -1.224745 
C 0.899939 -1.549551 0.459345 -1.732051 0 -1.732051 
C -0.459345 -1.732051 -0.899939 -1.549551 -1.224745 -1.224745 
C -1.549551 -0.899939 -1.732051 -0.459345 -1.732051 0 
C -1.732051 0.459345 -1.549551 0.899939 -1.224745 1.224745 
C -0.899939 1.549551 -0.459345 1.732051 0 1.732051 
z
"/>
    </defs>
    <g clip-path="url(#pd2a351ac49)">
     <use xlink:href="#C5_0_2cddd87616" x="457.207679" y="101.142755" style="fill: #0072b2; fill-opacity: 0.45"/>
    </g>
    <g clip-path="url(#pd2a351ac49)">
     <use xlink:href="#C5_0_2cddd87616" x="457.908103" y="115.938999" style="fill: #0072b2; fill-opacity: 0.45"/>
    </g>
    <g clip-path="url(#pd2a351ac49)">
     <use xlink:href="#C5_0_2cddd87616" x="463.400064" y="101.209302" style="fill: #0072b2; fill-opacity: 0.45"/>
    </g>
    <g clip-path="url(#pd2a351ac49)">
     <use xlink:href="#C5_0_2cddd87616" x="464.052731" y="103.193602" style="fill: #0072b2; fill-opacity: 0.45"/>
    </g>
    <g clip-path="url(#pd2a351ac49)">
     <use xlink:href="#C5_0_2cddd87616" x="465.962978" y="109.788697" style="fill: #0072b2; fill-opacity: 0.45"/>
    </g>
    <g clip-path="url(#pd2a351ac49)">
     <use xlink:href="#C5_0_2cddd87616" x="469.68796" y="113.193615" style="fill: #0072b2; fill-opacity: 0.45"/>
    </g>
    <g clip-path="url(#pd2a351ac49)">
     <use xlink:href="#C5_0_2cddd87616" x="475.609726" y="98.41945" style="fill: #0072b2; fill-opacity: 0.45"/>
    </g>
    <g clip-path="url(#pd2a351ac49)">
     <use xlink:href="#C5_0_2cddd87616" x="477.137924" y="109.856068" style="fill: #0072b2; fill-opacity: 0.45"/>
    </g>
    <g clip-path="url(#pd2a351ac49)">
     <use xlink:href="#C5_0_2cddd87616" x="480.974337" y="114.349657" style="fill: #0072b2; fill-opacity: 0.45"/>
    </g>
    <g clip-path="url(#pd2a351ac49)">
     <use xlink:href="#C5_0_2cddd87616" x="488.535732" y="114.276489" style="fill: #0072b2; fill-opacity: 0.45"/>
    </g>
    <g clip-path="url(#pd2a351ac49)">
     <use xlink:href="#C5_0_2cddd87616" x="492.945219" y="100.441322" style="fill: #0072b2; fill-opacity: 0.45"/>
    </g>
    <g clip-path="url(#pd2a351ac49)">
     <use xlink:href="#C5_0_2cddd87616" x="503.117285" y="104.93343" style="fill: #0072b2; fill-opacity: 0.45"/>
    </g>
    <g clip-path="url(#pd2a351ac49)">
     <use xlink:href="#C5_0_2cddd87616" x="507.988415" y="101.185179" style="fill: #0072b2; fill-opacity: 0.45"/>
    </g>
    <g clip-path="url(#pd2a351ac49)">
     <use xlink:href="#C5_0_2cddd87616" x="511.872585" y="102.611424" style="fill: #0072b2; fill-opacity: 0.45"/>
    </g>
    <g clip-path="url(#pd2a351ac49)">
     <use xlink:href="#C5_0_2cddd87616" x="519.879704" y="106.177266" style="fill: #0072b2; fill-opacity: 0.45"/>
    </g>
    <g clip-path="url(#pd2a351ac49)">
     <use xlink:href="#C5_0_2cddd87616" x="571.424539" y="98.126399" style="fill: #0072b2; fill-opacity: 0.45"/>
    </g>
    <g clip-path="url(#pd2a351ac49)">
     <use xlink:href="#C5_0_2cddd87616" x="571.774751" y="109.083211" style="fill: #0072b2; fill-opacity: 0.45"/>
    </g>
    <g clip-path="url(#pd2a351ac49)">
     <use xlink:href="#C5_0_2cddd87616" x="613.40222" y="105.885877" style="fill: #0072b2; fill-opacity: 0.45"/>
    </g>
    <g clip-path="url(#pd2a351ac49)">
     <use xlink:href="#C5_0_2cddd87616" x="621.807307" y="100.774675" style="fill: #0072b2; fill-opacity: 0.45"/>
    </g>
    <g clip-path="url(#pd2a351ac49)">
     <use xlink:href="#C5_0_2cddd87616" x="622.571406" y="104.660814" style="fill: #0072b2; fill-opacity: 0.45"/>
    </g>
    <g clip-path="url(#pd2a351ac49)">
     <use xlink:href="#C5_0_2cddd87616" x="648.296067" y="100.179417" style="fill: #0072b2; fill-opacity: 0.45"/>
    </g>
    <g clip-path="url(#pd2a351ac49)">
     <use xlink:href="#C5_0_2cddd87616" x="652.084724" y="105.419442" style="fill: #0072b2; fill-opacity: 0.45"/>
    </g>
    <g clip-path="url(#pd2a351ac49)">
     <use xlink:href="#C5_0_2cddd87616" x="706.383499" y="103.075066" style="fill: #0072b2; fill-opacity: 0.45"/>
    </g>
    <g clip-path="url(#pd2a351ac49)">
     <use xlink:href="#C5_0_2cddd87616" x="735.705792" y="115.214315" style="fill: #0072b2; fill-opacity: 0.45"/>
    </g>
    <g clip-path="url(#pd2a351ac49)">
     <use xlink:href="#C5_0_2cddd87616" x="882.158073" y="111.859099" style="fill: #0072b2; fill-opacity: 0.45"/>
    </g>
    <g clip-path="url(#pd2a351ac49)">
     <use xlink:href="#C5_0_2cddd87616" x="916.653952" y="110.725981" style="fill: #0072b2; fill-opacity: 0.45"/>
    </g>
    <g clip-path="url(#pd2a351ac49)">
     <use xlink:href="#C5_0_2cddd87616" x="922.0504" y="114.588368" style="fill: #0072b2; fill-opacity: 0.45"/>
    </g>
    <g clip-path="url(#pd2a351ac49)">
     <use xlink:href="#C5_0_2cddd87616" x="924.008404" y="111.768939" style="fill: #0072b2; fill-opacity: 0.45"/>
    </g>
   </g>
   <g id="PathCollection_10">
    <defs>
     <path id="C6_0_2efd2ad631" d="M 0 1.732051 
C 0.459345 1.732051 0.899939 1.549551 1.224745 1.224745 
C 1.549551 0.899939 1.732051 0.459345 1.732051 -0 
C 1.732051 -0.459345 1.549551 -0.899939 1.224745 -1.224745 
C 0.899939 -1.549551 0.459345 -1.732051 0 -1.732051 
C -0.459345 -1.732051 -0.899939 -1.549551 -1.224745 -1.224745 
C -1.549551 -0.899939 -1.732051 -0.459345 -1.732051 0 
C -1.732051 0.459345 -1.549551 0.899939 -1.224745 1.224745 
C -0.899939 1.549551 -0.459345 1.732051 0 1.732051 
z
"/>
    </defs>
    <g clip-path="url(#pd2a351ac49)">
     <use xlink:href="#C6_0_2efd2ad631" x="472.664762" y="80.692482" style="fill: #0072b2; fill-opacity: 0.45"/>
    </g>
    <g clip-path="url(#pd2a351ac49)">
     <use xlink:href="#C6_0_2efd2ad631" x="472.744356" y="77.431278" style="fill: #0072b2; fill-opacity: 0.45"/>
    </g>
    <g clip-path="url(#pd2a351ac49)">
     <use xlink:href="#C6_0_2efd2ad631" x="492.451739" y="70.839464" style="fill: #0072b2; fill-opacity: 0.45"/>
    </g>
    <g clip-path="url(#pd2a351ac49)">
     <use xlink:href="#C6_0_2efd2ad631" x="558.78507" y="75.830668" style="fill: #0072b2; fill-opacity: 0.45"/>
    </g>
    <g clip-path="url(#pd2a351ac49)">
     <use xlink:href="#C6_0_2efd2ad631" x="561.936978" y="75.732102" style="fill: #0072b2; fill-opacity: 0.45"/>
    </g>
    <g clip-path="url(#pd2a351ac49)">
     <use xlink:href="#C6_0_2efd2ad631" x="577.632842" y="78.692965" style="fill: #0072b2; fill-opacity: 0.45"/>
    </g>
    <g clip-path="url(#pd2a351ac49)">
     <use xlink:href="#C6_0_2efd2ad631" x="584.955456" y="77.633906" style="fill: #0072b2; fill-opacity: 0.45"/>
    </g>
    <g clip-path="url(#pd2a351ac49)">
     <use xlink:href="#C6_0_2efd2ad631" x="594.554448" y="65.293254" style="fill: #0072b2; fill-opacity: 0.45"/>
    </g>
    <g clip-path="url(#pd2a351ac49)">
     <use xlink:href="#C6_0_2efd2ad631" x="609.422538" y="70.611863" style="fill: #0072b2; fill-opacity: 0.45"/>
    </g>
    <g clip-path="url(#pd2a351ac49)">
     <use xlink:href="#C6_0_2efd2ad631" x="609.931937" y="71.328785" style="fill: #0072b2; fill-opacity: 0.45"/>
    </g>
    <g clip-path="url(#pd2a351ac49)">
     <use xlink:href="#C6_0_2efd2ad631" x="610.075206" y="79.400009" style="fill: #0072b2; fill-opacity: 0.45"/>
    </g>
    <g clip-path="url(#pd2a351ac49)">
     <use xlink:href="#C6_0_2efd2ad631" x="613.067926" y="69.117529" style="fill: #0072b2; fill-opacity: 0.45"/>
    </g>
    <g clip-path="url(#pd2a351ac49)">
     <use xlink:href="#C6_0_2efd2ad631" x="618.671318" y="79.542569" style="fill: #0072b2; fill-opacity: 0.45"/>
    </g>
    <g clip-path="url(#pd2a351ac49)">
     <use xlink:href="#C6_0_2efd2ad631" x="620.263191" y="75.561194" style="fill: #0072b2; fill-opacity: 0.45"/>
    </g>
    <g clip-path="url(#pd2a351ac49)">
     <use xlink:href="#C6_0_2efd2ad631" x="633.284709" y="64.319" style="fill: #0072b2; fill-opacity: 0.45"/>
    </g>
    <g clip-path="url(#pd2a351ac49)">
     <use xlink:href="#C6_0_2efd2ad631" x="634.160239" y="70.759942" style="fill: #0072b2; fill-opacity: 0.45"/>
    </g>
    <g clip-path="url(#pd2a351ac49)">
     <use xlink:href="#C6_0_2efd2ad631" x="639.859142" y="72.290369" style="fill: #0072b2; fill-opacity: 0.45"/>
    </g>
    <g clip-path="url(#pd2a351ac49)">
     <use xlink:href="#C6_0_2efd2ad631" x="640.448135" y="69.937796" style="fill: #0072b2; fill-opacity: 0.45"/>
    </g>
    <g clip-path="url(#pd2a351ac49)">
     <use xlink:href="#C6_0_2efd2ad631" x="640.527729" y="67.021828" style="fill: #0072b2; fill-opacity: 0.45"/>
    </g>
    <g clip-path="url(#pd2a351ac49)">
     <use xlink:href="#C6_0_2efd2ad631" x="641.896739" y="68.253762" style="fill: #0072b2; fill-opacity: 0.45"/>
    </g>
    <g clip-path="url(#pd2a351ac49)">
     <use xlink:href="#C6_0_2efd2ad631" x="652.212074" y="78.332867" style="fill: #0072b2; fill-opacity: 0.45"/>
    </g>
    <g clip-path="url(#pd2a351ac49)">
     <use xlink:href="#C6_0_2efd2ad631" x="702.435655" y="81.962177" style="fill: #0072b2; fill-opacity: 0.45"/>
    </g>
    <g clip-path="url(#pd2a351ac49)">
     <use xlink:href="#C6_0_2efd2ad631" x="707.656997" y="76.740616" style="fill: #0072b2; fill-opacity: 0.45"/>
    </g>
    <g clip-path="url(#pd2a351ac49)">
     <use xlink:href="#C6_0_2efd2ad631" x="765.059923" y="77.619845" style="fill: #0072b2; fill-opacity: 0.45"/>
    </g>
    <g clip-path="url(#pd2a351ac49)">
     <use xlink:href="#C6_0_2efd2ad631" x="765.951372" y="78.665769" style="fill: #0072b2; fill-opacity: 0.45"/>
    </g>
    <g clip-path="url(#pd2a351ac49)">
     <use xlink:href="#C6_0_2efd2ad631" x="771.459251" y="65.177986" style="fill: #0072b2; fill-opacity: 0.45"/>
    </g>
    <g clip-path="url(#pd2a351ac49)">
     <use xlink:href="#C6_0_2efd2ad631" x="785.84978" y="66.404209" style="fill: #0072b2; fill-opacity: 0.45"/>
    </g>
    <g clip-path="url(#pd2a351ac49)">
     <use xlink:href="#C6_0_2efd2ad631" x="785.961211" y="76.7549" style="fill: #0072b2; fill-opacity: 0.45"/>
    </g>
    <g clip-path="url(#pd2a351ac49)">
     <use xlink:href="#C6_0_2efd2ad631" x="786.804903" y="70.475438" style="fill: #0072b2; fill-opacity: 0.45"/>
    </g>
    <g clip-path="url(#pd2a351ac49)">
     <use xlink:href="#C6_0_2efd2ad631" x="791.755627" y="75.263098" style="fill: #0072b2; fill-opacity: 0.45"/>
    </g>
    <g clip-path="url(#pd2a351ac49)">
     <use xlink:href="#C6_0_2efd2ad631" x="796.451651" y="65.700637" style="fill: #0072b2; fill-opacity: 0.45"/>
    </g>
    <g clip-path="url(#pd2a351ac49)">
     <use xlink:href="#C6_0_2efd2ad631" x="809.107039" y="74.098095" style="fill: #0072b2; fill-opacity: 0.45"/>
    </g>
    <g clip-path="url(#pd2a351ac49)">
     <use xlink:href="#C6_0_2efd2ad631" x="811.351579" y="77.672561" style="fill: #0072b2; fill-opacity: 0.45"/>
    </g>
    <g clip-path="url(#pd2a351ac49)">
     <use xlink:href="#C6_0_2efd2ad631" x="813.452851" y="78.008917" style="fill: #0072b2; fill-opacity: 0.45"/>
    </g>
    <g clip-path="url(#pd2a351ac49)">
     <use xlink:href="#C6_0_2efd2ad631" x="817.734988" y="72.208948" style="fill: #0072b2; fill-opacity: 0.45"/>
    </g>
    <g clip-path="url(#pd2a351ac49)">
     <use xlink:href="#C6_0_2efd2ad631" x="821.300783" y="77.71197" style="fill: #0072b2; fill-opacity: 0.45"/>
    </g>
    <g clip-path="url(#pd2a351ac49)">
     <use xlink:href="#C6_0_2efd2ad631" x="828.034404" y="71.781095" style="fill: #0072b2; fill-opacity: 0.45"/>
    </g>
    <g clip-path="url(#pd2a351ac49)">
     <use xlink:href="#C6_0_2efd2ad631" x="828.83034" y="66.008836" style="fill: #0072b2; fill-opacity: 0.45"/>
    </g>
    <g clip-path="url(#pd2a351ac49)">
     <use xlink:href="#C6_0_2efd2ad631" x="829.689951" y="75.193651" style="fill: #0072b2; fill-opacity: 0.45"/>
    </g>
    <g clip-path="url(#pd2a351ac49)">
     <use xlink:href="#C6_0_2efd2ad631" x="832.58716" y="78.51212" style="fill: #0072b2; fill-opacity: 0.45"/>
    </g>
    <g clip-path="url(#pd2a351ac49)">
     <use xlink:href="#C6_0_2efd2ad631" x="833.016965" y="64.171316" style="fill: #0072b2; fill-opacity: 0.45"/>
    </g>
    <g clip-path="url(#pd2a351ac49)">
     <use xlink:href="#C6_0_2efd2ad631" x="840.57836" y="73.164278" style="fill: #0072b2; fill-opacity: 0.45"/>
    </g>
    <g clip-path="url(#pd2a351ac49)">
     <use xlink:href="#C6_0_2efd2ad631" x="841.804102" y="80.878455" style="fill: #0072b2; fill-opacity: 0.45"/>
    </g>
    <g clip-path="url(#pd2a351ac49)">
     <use xlink:href="#C6_0_2efd2ad631" x="852.278624" y="81.685463" style="fill: #0072b2; fill-opacity: 0.45"/>
    </g>
    <g clip-path="url(#pd2a351ac49)">
     <use xlink:href="#C6_0_2efd2ad631" x="859.855937" y="80.533124" style="fill: #0072b2; fill-opacity: 0.45"/>
    </g>
    <g clip-path="url(#pd2a351ac49)">
     <use xlink:href="#C6_0_2efd2ad631" x="865.69811" y="70.991279" style="fill: #0072b2; fill-opacity: 0.45"/>
    </g>
    <g clip-path="url(#pd2a351ac49)">
     <use xlink:href="#C6_0_2efd2ad631" x="924.231266" y="67.957454" style="fill: #0072b2; fill-opacity: 0.45"/>
    </g>
    <g clip-path="url(#pd2a351ac49)">
     <use xlink:href="#C6_0_2efd2ad631" x="924.692909" y="74.774245" style="fill: #0072b2; fill-opacity: 0.45"/>
    </g>
   </g>
  </g>
  <g id="text_26">
   <!-- On Recalling ANT -->
   <g transform="translate(450.538047 17.077969) scale(0.13 -0.13)">
    <defs>
     <path id="DejaVuSans-Bold-32" d="M 2719 3878 
Q 2169 3878 1866 3472 
Q 1563 3066 1563 2328 
Q 1563 1594 1866 1187 
Q 2169 781 2719 781 
Q 3272 781 3575 1187 
Q 3878 1594 3878 2328 
Q 3878 3066 3575 3472 
Q 3272 3878 2719 3878 
z
M 2719 4750 
Q 3844 4750 4481 4106 
Q 5119 3463 5119 2328 
Q 5119 1197 4481 553 
Q 3844 -91 2719 -91 
Q 1597 -91 958 553 
Q 319 1197 319 2328 
Q 319 3463 958 4106 
Q 1597 4750 2719 4750 
z
" transform="scale(0.015625)"/>
     <path id="DejaVuSans-Bold-51" d="M 4056 2131 
L 4056 0 
L 2931 0 
L 2931 347 
L 2931 1631 
Q 2931 2084 2911 2256 
Q 2891 2428 2841 2509 
Q 2775 2619 2662 2680 
Q 2550 2741 2406 2741 
Q 2056 2741 1856 2470 
Q 1656 2200 1656 1722 
L 1656 0 
L 538 0 
L 538 3500 
L 1656 3500 
L 1656 2988 
Q 1909 3294 2193 3439 
Q 2478 3584 2822 3584 
Q 3428 3584 3742 3212 
Q 4056 2841 4056 2131 
z
" transform="scale(0.015625)"/>
     <path id="DejaVuSans-Bold-3" transform="scale(0.015625)"/>
     <path id="DejaVuSans-Bold-35" d="M 2297 2597 
Q 2675 2597 2839 2737 
Q 3003 2878 3003 3200 
Q 3003 3519 2839 3656 
Q 2675 3794 2297 3794 
L 1791 3794 
L 1791 2597 
L 2297 2597 
z
M 1791 1766 
L 1791 0 
L 588 0 
L 588 4666 
L 2425 4666 
Q 3347 4666 3776 4356 
Q 4206 4047 4206 3378 
Q 4206 2916 3982 2619 
Q 3759 2322 3309 2181 
Q 3556 2125 3751 1926 
Q 3947 1728 4147 1325 
L 4800 0 
L 3519 0 
L 2950 1159 
Q 2778 1509 2601 1637 
Q 2425 1766 2131 1766 
L 1791 1766 
z
" transform="scale(0.015625)"/>
     <path id="DejaVuSans-Bold-48" d="M 4031 1759 
L 4031 1441 
L 1416 1441 
Q 1456 1047 1700 850 
Q 1944 653 2381 653 
Q 2734 653 3104 758 
Q 3475 863 3866 1075 
L 3866 213 
Q 3469 63 3072 -14 
Q 2675 -91 2278 -91 
Q 1328 -91 801 392 
Q 275 875 275 1747 
Q 275 2603 792 3093 
Q 1309 3584 2216 3584 
Q 3041 3584 3536 3087 
Q 4031 2591 4031 1759 
z
M 2881 2131 
Q 2881 2450 2695 2645 
Q 2509 2841 2209 2841 
Q 1884 2841 1681 2658 
Q 1478 2475 1428 2131 
L 2881 2131 
z
" transform="scale(0.015625)"/>
     <path id="DejaVuSans-Bold-46" d="M 3366 3391 
L 3366 2478 
Q 3138 2634 2908 2709 
Q 2678 2784 2431 2784 
Q 1963 2784 1702 2511 
Q 1441 2238 1441 1747 
Q 1441 1256 1702 982 
Q 1963 709 2431 709 
Q 2694 709 2930 787 
Q 3166 866 3366 1019 
L 3366 103 
Q 3103 6 2833 -42 
Q 2563 -91 2291 -91 
Q 1344 -91 809 395 
Q 275 881 275 1747 
Q 275 2613 809 3098 
Q 1344 3584 2291 3584 
Q 2566 3584 2833 3536 
Q 3100 3488 3366 3391 
z
" transform="scale(0.015625)"/>
     <path id="DejaVuSans-Bold-44" d="M 2106 1575 
Q 1756 1575 1579 1456 
Q 1403 1338 1403 1106 
Q 1403 894 1545 773 
Q 1688 653 1941 653 
Q 2256 653 2472 879 
Q 2688 1106 2688 1447 
L 2688 1575 
L 2106 1575 
z
M 3816 1997 
L 3816 0 
L 2688 0 
L 2688 519 
Q 2463 200 2181 54 
Q 1900 -91 1497 -91 
Q 953 -91 614 226 
Q 275 544 275 1050 
Q 275 1666 698 1953 
Q 1122 2241 2028 2241 
L 2688 2241 
L 2688 2328 
Q 2688 2594 2478 2717 
Q 2269 2841 1825 2841 
Q 1466 2841 1156 2769 
Q 847 2697 581 2553 
L 581 3406 
Q 941 3494 1303 3539 
Q 1666 3584 2028 3584 
Q 2975 3584 3395 3211 
Q 3816 2838 3816 1997 
z
" transform="scale(0.015625)"/>
     <path id="DejaVuSans-Bold-4f" d="M 538 4863 
L 1656 4863 
L 1656 0 
L 538 0 
L 538 4863 
z
" transform="scale(0.015625)"/>
     <path id="DejaVuSans-Bold-4c" d="M 538 3500 
L 1656 3500 
L 1656 0 
L 538 0 
L 538 3500 
z
M 538 4863 
L 1656 4863 
L 1656 3950 
L 538 3950 
L 538 4863 
z
" transform="scale(0.015625)"/>
     <path id="DejaVuSans-Bold-4a" d="M 2919 594 
Q 2688 288 2409 144 
Q 2131 0 1766 0 
Q 1125 0 706 504 
Q 288 1009 288 1791 
Q 288 2575 706 3076 
Q 1125 3578 1766 3578 
Q 2131 3578 2409 3434 
Q 2688 3291 2919 2981 
L 2919 3500 
L 4044 3500 
L 4044 353 
Q 4044 -491 3511 -936 
Q 2978 -1381 1966 -1381 
Q 1638 -1381 1331 -1331 
Q 1025 -1281 716 -1178 
L 716 -306 
Q 1009 -475 1290 -558 
Q 1572 -641 1856 -641 
Q 2406 -641 2662 -400 
Q 2919 -159 2919 353 
L 2919 594 
z
M 2181 2772 
Q 1834 2772 1640 2515 
Q 1447 2259 1447 1791 
Q 1447 1309 1634 1061 
Q 1822 813 2181 813 
Q 2531 813 2725 1069 
Q 2919 1325 2919 1791 
Q 2919 2259 2725 2515 
Q 2531 2772 2181 2772 
z
" transform="scale(0.015625)"/>
     <path id="DejaVuSans-Bold-24" d="M 3419 850 
L 1538 850 
L 1241 0 
L 31 0 
L 1759 4666 
L 3194 4666 
L 4922 0 
L 3713 0 
L 3419 850 
z
M 1838 1716 
L 3116 1716 
L 2478 3572 
L 1838 1716 
z
" transform="scale(0.015625)"/>
     <path id="DejaVuSans-Bold-31" d="M 588 4666 
L 1931 4666 
L 3628 1466 
L 3628 4666 
L 4769 4666 
L 4769 0 
L 3425 0 
L 1728 3200 
L 1728 0 
L 588 0 
L 588 4666 
z
" transform="scale(0.015625)"/>
     <path id="DejaVuSans-Bold-37" d="M 31 4666 
L 4331 4666 
L 4331 3756 
L 2784 3756 
L 2784 0 
L 1581 0 
L 1581 3756 
L 31 3756 
L 31 4666 
z
" transform="scale(0.015625)"/>
    </defs>
    <use xlink:href="#DejaVuSans-Bold-32"/>
    <use xlink:href="#DejaVuSans-Bold-51" transform="translate(85.015625 0)"/>
    <use xlink:href="#DejaVuSans-Bold-3" transform="translate(156.203125 0)"/>
    <use xlink:href="#DejaVuSans-Bold-35" transform="translate(191.015625 0)"/>
    <use xlink:href="#DejaVuSans-Bold-48" transform="translate(268.015625 0)"/>
    <use xlink:href="#DejaVuSans-Bold-46" transform="translate(335.84375 0)"/>
    <use xlink:href="#DejaVuSans-Bold-44" transform="translate(395.125 0)"/>
    <use xlink:href="#DejaVuSans-Bold-4f" transform="translate(462.609375 0)"/>
    <use xlink:href="#DejaVuSans-Bold-4f" transform="translate(496.890625 0)"/>
    <use xlink:href="#DejaVuSans-Bold-4c" transform="translate(531.171875 0)"/>
    <use xlink:href="#DejaVuSans-Bold-51" transform="translate(565.453125 0)"/>
    <use xlink:href="#DejaVuSans-Bold-4a" transform="translate(636.640625 0)"/>
    <use xlink:href="#DejaVuSans-Bold-3" transform="translate(708.21875 0)"/>
    <use xlink:href="#DejaVuSans-Bold-24" transform="translate(743.03125 0)"/>
    <use xlink:href="#DejaVuSans-Bold-31" transform="translate(820.421875 0)"/>
    <use xlink:href="#DejaVuSans-Bold-37" transform="translate(904.109375 0)"/>
   </g>
  </g>
 </g>
 <defs>
  <clipPath id="pa6874caee4">
   <rect x="108.739375" y="53.2368" width="312.546677" height="308.2464"/>
  </clipPath>
  <clipPath id="pd2a351ac49">
   <rect x="445.664692" y="53.2368" width="500.074683" height="308.2464"/>
  </clipPath>
 </defs>
</svg>
