<?xml version="1.0" encoding="utf-8" standalone="no"?>
<!DOCTYPE svg PUBLIC "-//W3C//DTD SVG 1.1//EN"
  "http://www.w3.org/Graphics/SVG/1.1/DTD/svg11.dtd">
<svg xmlns:xlink="http://www.w3.org/1999/xlink" width="648pt" height="504pt" viewBox="0 0 648 504" xmlns="http://www.w3.org/2000/svg" version="1.1">
 <metadata>
  <rdf:RDF xmlns:dc="http://purl.org/dc/elements/1.1/" xmlns:cc="http://creativecommons.org/ns#" xmlns:rdf="http://www.w3.org/1999/02/22-rdf-syntax-ns#">
   <cc:Work>
    <dc:type rdf:resource="http://purl.org/dc/dcmitype/StillImage"/>
    <dc:date>2026-05-15T19:27:22.907762</dc:date>
    <dc:format>image/svg+xml</dc:format>
    <dc:creator>
     <cc:Agent>
      <dc:title>Matplotlib v3.10.9, https://matplotlib.org/</dc:title>
     </cc:Agent>
    </dc:creator>
   </cc:Work>
  </rdf:RDF>
 </metadata>
 <defs>
  <style type="text/css">*{stroke-linejoin: round; stroke-linecap: butt}</style>
 </defs>
 <g id="figure_1">
  <g id="patch_1">
   <path d="M 0 504 
L 648 504 
L 648 0 
L 0 0 
z
" style="fill: #ffffff"/>
  </g>
  <g id="axes_1">
   <g id="LineCollection_1">
    <path d="M 408.151425 248.360085 
L 371.792404 300.217665 
" clip-path="url(#p6cb7a387ee)" style="fill: none; stroke: #000000; stroke-opacity: 0.45; stroke-width: 1.838749"/>
    <path d="M 408.151425 248.360085 
L 582.842975 242.513203 
" clip-path="url(#p6cb7a387ee)" style="fill: none; stroke: #000000; stroke-opacity: 0.45; stroke-width: 0.7"/>
    <path d="M 408.151425 248.360085 
L 290.896866 287.052777 
" clip-path="url(#p6cb7a387ee)" style="fill: none; stroke: #000000; stroke-opacity: 0.45; stroke-width: 1.348683"/>
    <path d="M 143.421308 52.661157 
L 290.896866 287.052777 
" clip-path="url(#p6cb7a387ee)" style="fill: none; stroke: #000000; stroke-opacity: 0.45; stroke-width: 0.824264"/>
    <path d="M 143.421308 52.661157 
L 277.055779 134.466098 
" clip-path="url(#p6cb7a387ee)" style="fill: none; stroke: #000000; stroke-opacity: 0.45; stroke-width: 0.7"/>
    <path d="M 143.421308 52.661157 
L 65.157025 189.003945 
" clip-path="url(#p6cb7a387ee)" style="fill: none; stroke: #000000; stroke-opacity: 0.45; stroke-width: 0.7"/>
    <path d="M 150.679444 329.4677 
L 65.157025 189.003945 
" clip-path="url(#p6cb7a387ee)" style="fill: none; stroke: #000000; stroke-opacity: 0.45; stroke-width: 0.7"/>
    <path d="M 150.679444 329.4677 
L 290.896866 287.052777 
" clip-path="url(#p6cb7a387ee)" style="fill: none; stroke: #000000; stroke-opacity: 0.45; stroke-width: 1.3"/>
    <path d="M 65.157025 189.003945 
L 277.055779 134.466098 
" clip-path="url(#p6cb7a387ee)" style="fill: none; stroke: #000000; stroke-opacity: 0.45; stroke-width: 0.7"/>
    <path d="M 65.157025 189.003945 
L 290.896866 287.052777 
" clip-path="url(#p6cb7a387ee)" style="fill: none; stroke: #000000; stroke-opacity: 0.45; stroke-width: 0.824264"/>
    <path d="M 582.842975 242.513203 
L 371.792404 300.217665 
" clip-path="url(#p6cb7a387ee)" style="fill: none; stroke: #000000; stroke-opacity: 0.45; stroke-width: 0.824264"/>
    <path d="M 582.842975 242.513203 
L 290.896866 287.052777 
" clip-path="url(#p6cb7a387ee)" style="fill: none; stroke: #000000; stroke-opacity: 0.45; stroke-width: 0.7"/>
    <path d="M 277.055779 134.466098 
L 455.701687 395.919205 
" clip-path="url(#p6cb7a387ee)" style="fill: none; stroke: #000000; stroke-opacity: 0.45; stroke-width: 0.7"/>
    <path d="M 277.055779 134.466098 
L 290.896866 287.052777 
" clip-path="url(#p6cb7a387ee)" style="fill: none; stroke: #000000; stroke-opacity: 0.45; stroke-width: 0.919615"/>
    <path d="M 371.792404 300.217665 
L 290.896866 287.052777 
" clip-path="url(#p6cb7a387ee)" style="fill: none; stroke: #000000; stroke-opacity: 0.45; stroke-width: 2.249324"/>
    <path d="M 371.792404 300.217665 
L 455.701687 395.919205 
" clip-path="url(#p6cb7a387ee)" style="fill: none; stroke: #000000; stroke-opacity: 0.45; stroke-width: 0.919615"/>
    <path d="M 371.792404 300.217665 
L 261.201138 451.338843 
" clip-path="url(#p6cb7a387ee)" style="fill: none; stroke: #000000; stroke-opacity: 0.45; stroke-width: 0.7"/>
    <path d="M 261.201138 451.338843 
L 290.896866 287.052777 
" clip-path="url(#p6cb7a387ee)" style="fill: none; stroke: #000000; stroke-opacity: 0.45; stroke-width: 1.134847"/>
    <path d="M 290.896866 287.052777 
L 455.701687 395.919205 
" clip-path="url(#p6cb7a387ee)" style="fill: none; stroke: #000000; stroke-opacity: 0.45; stroke-width: 0.824264"/>
   </g>
   <g id="PathCollection_1">
    <path d="M 408.151425 258.848174 
C 410.932899 258.848174 413.600825 257.743083 415.567624 255.776284 
C 417.534422 253.809485 418.639514 251.141559 418.639514 248.360085 
C 418.639514 245.578612 417.534422 242.910686 415.567624 240.943887 
C 413.600825 238.977088 410.932899 237.871997 408.151425 237.871997 
C 405.369952 237.871997 402.702025 238.977088 400.735227 240.943887 
C 398.768428 242.910686 397.663337 245.578612 397.663337 248.360085 
C 397.663337 251.141559 398.768428 253.809485 400.735227 255.776284 
C 402.702025 257.743083 405.369952 258.848174 408.151425 258.848174 
z
" clip-path="url(#p6cb7a387ee)" style="fill: #4c72b0; stroke: #ffffff; stroke-width: 1.5"/>
    <path d="M 143.421308 61.027757 
C 145.640156 61.027757 147.768425 60.1462 149.337387 58.577237 
C 150.90635 57.008274 151.787908 54.880005 151.787908 52.661157 
C 151.787908 50.442309 150.90635 48.31404 149.337387 46.745077 
C 147.768425 45.176115 145.640156 44.294557 143.421308 44.294557 
C 141.202459 44.294557 139.07419 45.176115 137.505228 46.745077 
C 135.936265 48.31404 135.054707 50.442309 135.054707 52.661157 
C 135.054707 54.880005 135.936265 57.008274 137.505228 58.577237 
C 139.07419 60.1462 141.202459 61.027757 143.421308 61.027757 
z
" clip-path="url(#p6cb7a387ee)" style="fill: #4c72b0; stroke: #ffffff; stroke-width: 1.5"/>
    <path d="M 150.679444 338.31554 
C 153.025919 338.31554 155.276604 337.383275 156.935812 335.724067 
C 158.59502 334.064859 159.527284 331.814174 159.527284 329.4677 
C 159.527284 327.121225 158.59502 324.87054 156.935812 323.211332 
C 155.276604 321.552124 153.025919 320.61986 150.679444 320.61986 
C 148.33297 320.61986 146.082285 321.552124 144.423077 323.211332 
C 142.763869 324.87054 141.831604 327.121225 141.831604 329.4677 
C 141.831604 331.814174 142.763869 334.064859 144.423077 335.724067 
C 146.082285 337.383275 148.33297 338.31554 150.679444 338.31554 
z
" clip-path="url(#p6cb7a387ee)" style="fill: #4c72b0; stroke: #ffffff; stroke-width: 1.5"/>
    <path d="M 65.157025 197.851784 
C 67.503499 197.851784 69.754184 196.91952 71.413392 195.260312 
C 73.0726 193.601104 74.004865 191.350419 74.004865 189.003945 
C 74.004865 186.65747 73.0726 184.406785 71.413392 182.747577 
C 69.754184 181.088369 67.503499 180.156105 65.157025 180.156105 
C 62.81055 180.156105 60.559865 181.088369 58.900657 182.747577 
C 57.241449 184.406785 56.309185 186.65747 56.309185 189.003945 
C 56.309185 191.350419 57.241449 193.601104 58.900657 195.260312 
C 60.559865 196.91952 62.81055 197.851784 65.157025 197.851784 
z
" clip-path="url(#p6cb7a387ee)" style="fill: #4c72b0; stroke: #ffffff; stroke-width: 1.5"/>
    <path d="M 582.842975 250.879803 
C 585.061824 250.879803 587.190092 249.998245 588.759055 248.429282 
C 590.328018 246.86032 591.209575 244.732051 591.209575 242.513203 
C 591.209575 240.294354 590.328018 238.166086 588.759055 236.597123 
C 587.190092 235.02816 585.061824 234.146602 582.842975 234.146602 
C 580.624127 234.146602 578.495858 235.02816 576.926895 236.597123 
C 575.357933 238.166086 574.476375 240.294354 574.476375 242.513203 
C 574.476375 244.732051 575.357933 246.86032 576.926895 248.429282 
C 578.495858 249.998245 580.624127 250.879803 582.842975 250.879803 
z
" clip-path="url(#p6cb7a387ee)" style="fill: #4c72b0; stroke: #ffffff; stroke-width: 1.5"/>
    <path d="M 277.055779 143.313938 
C 279.402254 143.313938 281.652939 142.381674 283.312147 140.722466 
C 284.971355 139.063258 285.903619 136.812573 285.903619 134.466098 
C 285.903619 132.119624 284.971355 129.868939 283.312147 128.209731 
C 281.652939 126.550522 279.402254 125.618258 277.055779 125.618258 
C 274.709305 125.618258 272.45862 126.550522 270.799412 128.209731 
C 269.140203 129.868939 268.207939 132.119624 268.207939 134.466098 
C 268.207939 136.812573 269.140203 139.063258 270.799412 140.722466 
C 272.45862 142.381674 274.709305 143.313938 277.055779 143.313938 
z
" clip-path="url(#p6cb7a387ee)" style="fill: #4c72b0; stroke: #ffffff; stroke-width: 1.5"/>
    <path d="M 371.792404 312.700855 
C 375.102985 312.700855 378.278419 311.385548 380.619353 309.044614 
C 382.960287 306.703679 384.275595 303.528246 384.275595 300.217665 
C 384.275595 296.907084 382.960287 293.73165 380.619353 291.390716 
C 378.278419 289.049782 375.102985 287.734474 371.792404 287.734474 
C 368.481823 287.734474 365.306389 289.049782 362.965455 291.390716 
C 360.624521 293.73165 359.309213 296.907084 359.309213 300.217665 
C 359.309213 303.528246 360.624521 306.703679 362.965455 309.044614 
C 365.306389 311.385548 368.481823 312.700855 371.792404 312.700855 
z
" clip-path="url(#p6cb7a387ee)" style="fill: #4c72b0; stroke: #ffffff; stroke-width: 1.5"/>
    <path d="M 261.201138 459.705443 
C 263.419987 459.705443 265.548255 458.823885 267.117218 457.254923 
C 268.686181 455.68596 269.567739 453.557691 269.567739 451.338843 
C 269.567739 449.119995 268.686181 446.991726 267.117218 445.422763 
C 265.548255 443.8538 263.419987 442.972243 261.201138 442.972243 
C 258.98229 442.972243 256.854021 443.8538 255.285059 445.422763 
C 253.716096 446.991726 252.834538 449.119995 252.834538 451.338843 
C 252.834538 453.557691 253.716096 455.68596 255.285059 457.254923 
C 256.854021 458.823885 258.98229 459.705443 261.201138 459.705443 
z
" clip-path="url(#p6cb7a387ee)" style="fill: #4c72b0; stroke: #ffffff; stroke-width: 1.5"/>
    <path d="M 290.896866 300.78464 
C 294.538599 300.78464 298.031666 299.337765 300.60676 296.762671 
C 303.181853 294.187577 304.628729 290.69451 304.628729 287.052777 
C 304.628729 283.411045 303.181853 279.917978 300.60676 277.342884 
C 298.031666 274.76779 294.538599 273.320914 290.896866 273.320914 
C 287.255133 273.320914 283.762066 274.76779 281.186972 277.342884 
C 278.611879 279.917978 277.165003 283.411045 277.165003 287.052777 
C 277.165003 290.69451 278.611879 294.187577 281.186972 296.762671 
C 283.762066 299.337765 287.255133 300.78464 290.896866 300.78464 
z
" clip-path="url(#p6cb7a387ee)" style="fill: #4c72b0; stroke: #ffffff; stroke-width: 1.5"/>
    <path d="M 455.701687 404.767045 
C 458.048161 404.767045 460.298846 403.834781 461.958054 402.175573 
C 463.617262 400.516365 464.549527 398.26568 464.549527 395.919205 
C 464.549527 393.57273 463.617262 391.322046 461.958054 389.662837 
C 460.298846 388.003629 458.048161 387.071365 455.701687 387.071365 
C 453.355212 387.071365 451.104527 388.003629 449.445319 389.662837 
C 447.786111 391.322046 446.853847 393.57273 446.853847 395.919205 
C 446.853847 398.26568 447.786111 400.516365 449.445319 402.175573 
C 451.104527 403.834781 453.355212 404.767045 455.701687 404.767045 
z
" clip-path="url(#p6cb7a387ee)" style="fill: #4c72b0; stroke: #ffffff; stroke-width: 1.5"/>
   </g>
   <g id="text_1">
    <g clip-path="url(#p6cb7a387ee)">
     <!-- actor_network -->
     <g transform="translate(379.59705 250.456335) scale(0.08 -0.08)">
      <defs>
       <path id="DejaVuSans-61" d="M 2194 1759 
Q 1497 1759 1228 1600 
Q 959 1441 959 1056 
Q 959 750 1161 570 
Q 1363 391 1709 391 
Q 2188 391 2477 730 
Q 2766 1069 2766 1631 
L 2766 1759 
L 2194 1759 
z
M 3341 1997 
L 3341 0 
L 2766 0 
L 2766 531 
Q 2569 213 2275 61 
Q 1981 -91 1556 -91 
Q 1019 -91 701 211 
Q 384 513 384 1019 
Q 384 1609 779 1909 
Q 1175 2209 1959 2209 
L 2766 2209 
L 2766 2266 
Q 2766 2663 2505 2880 
Q 2244 3097 1772 3097 
Q 1472 3097 1187 3025 
Q 903 2953 641 2809 
L 641 3341 
Q 956 3463 1253 3523 
Q 1550 3584 1831 3584 
Q 2591 3584 2966 3190 
Q 3341 2797 3341 1997 
z
" transform="scale(0.015625)"/>
       <path id="DejaVuSans-63" d="M 3122 3366 
L 3122 2828 
Q 2878 2963 2633 3030 
Q 2388 3097 2138 3097 
Q 1578 3097 1268 2742 
Q 959 2388 959 1747 
Q 959 1106 1268 751 
Q 1578 397 2138 397 
Q 2388 397 2633 464 
Q 2878 531 3122 666 
L 3122 134 
Q 2881 22 2623 -34 
Q 2366 -91 2075 -91 
Q 1284 -91 818 406 
Q 353 903 353 1747 
Q 353 2603 823 3093 
Q 1294 3584 2113 3584 
Q 2378 3584 2631 3529 
Q 2884 3475 3122 3366 
z
" transform="scale(0.015625)"/>
       <path id="DejaVuSans-74" d="M 1172 4494 
L 1172 3500 
L 2356 3500 
L 2356 3053 
L 1172 3053 
L 1172 1153 
Q 1172 725 1289 603 
Q 1406 481 1766 481 
L 2356 481 
L 2356 0 
L 1766 0 
Q 1100 0 847 248 
Q 594 497 594 1153 
L 594 3053 
L 172 3053 
L 172 3500 
L 594 3500 
L 594 4494 
L 1172 4494 
z
" transform="scale(0.015625)"/>
       <path id="DejaVuSans-6f" d="M 1959 3097 
Q 1497 3097 1228 2736 
Q 959 2375 959 1747 
Q 959 1119 1226 758 
Q 1494 397 1959 397 
Q 2419 397 2687 759 
Q 2956 1122 2956 1747 
Q 2956 2369 2687 2733 
Q 2419 3097 1959 3097 
z
M 1959 3584 
Q 2709 3584 3137 3096 
Q 3566 2609 3566 1747 
Q 3566 888 3137 398 
Q 2709 -91 1959 -91 
Q 1206 -91 779 398 
Q 353 888 353 1747 
Q 353 2609 779 3096 
Q 1206 3584 1959 3584 
z
" transform="scale(0.015625)"/>
       <path id="DejaVuSans-72" d="M 2631 2963 
Q 2534 3019 2420 3045 
Q 2306 3072 2169 3072 
Q 1681 3072 1420 2755 
Q 1159 2438 1159 1844 
L 1159 0 
L 581 0 
L 581 3500 
L 1159 3500 
L 1159 2956 
Q 1341 3275 1631 3429 
Q 1922 3584 2338 3584 
Q 2397 3584 2469 3576 
Q 2541 3569 2628 3553 
L 2631 2963 
z
" transform="scale(0.015625)"/>
       <path id="DejaVuSans-5f" d="M 3263 -1063 
L 3263 -1509 
L -63 -1509 
L -63 -1063 
L 3263 -1063 
z
" transform="scale(0.015625)"/>
       <path id="DejaVuSans-6e" d="M 3513 2113 
L 3513 0 
L 2938 0 
L 2938 2094 
Q 2938 2591 2744 2837 
Q 2550 3084 2163 3084 
Q 1697 3084 1428 2787 
Q 1159 2491 1159 1978 
L 1159 0 
L 581 0 
L 581 3500 
L 1159 3500 
L 1159 2956 
Q 1366 3272 1645 3428 
Q 1925 3584 2291 3584 
Q 2894 3584 3203 3211 
Q 3513 2838 3513 2113 
z
" transform="scale(0.015625)"/>
       <path id="DejaVuSans-65" d="M 3597 1894 
L 3597 1613 
L 953 1613 
Q 991 1019 1311 708 
Q 1631 397 2203 397 
Q 2534 397 2845 478 
Q 3156 559 3463 722 
L 3463 178 
Q 3153 47 2828 -22 
Q 2503 -91 2169 -91 
Q 1331 -91 842 396 
Q 353 884 353 1716 
Q 353 2575 817 3079 
Q 1281 3584 2069 3584 
Q 2775 3584 3186 3129 
Q 3597 2675 3597 1894 
z
M 3022 2063 
Q 3016 2534 2758 2815 
Q 2500 3097 2075 3097 
Q 1594 3097 1305 2825 
Q 1016 2553 972 2059 
L 3022 2063 
z
" transform="scale(0.015625)"/>
       <path id="DejaVuSans-77" d="M 269 3500 
L 844 3500 
L 1563 769 
L 2278 3500 
L 2956 3500 
L 3675 769 
L 4391 3500 
L 4966 3500 
L 4050 0 
L 3372 0 
L 2619 2869 
L 1863 0 
L 1184 0 
L 269 3500 
z
" transform="scale(0.015625)"/>
       <path id="DejaVuSans-6b" d="M 581 4863 
L 1159 4863 
L 1159 1991 
L 2875 3500 
L 3609 3500 
L 1753 1863 
L 3688 0 
L 2938 0 
L 1159 1709 
L 1159 0 
L 581 0 
L 581 4863 
z
" transform="scale(0.015625)"/>
      </defs>
      <use xlink:href="#DejaVuSans-61"/>
      <use xlink:href="#DejaVuSans-63" transform="translate(61.279297 0)"/>
      <use xlink:href="#DejaVuSans-74" transform="translate(116.259766 0)"/>
      <use xlink:href="#DejaVuSans-6f" transform="translate(155.46875 0)"/>
      <use xlink:href="#DejaVuSans-72" transform="translate(216.650391 0)"/>
      <use xlink:href="#DejaVuSans-5f" transform="translate(257.763672 0)"/>
      <use xlink:href="#DejaVuSans-6e" transform="translate(307.763672 0)"/>
      <use xlink:href="#DejaVuSans-65" transform="translate(371.142578 0)"/>
      <use xlink:href="#DejaVuSans-74" transform="translate(432.666016 0)"/>
      <use xlink:href="#DejaVuSans-77" transform="translate(471.875 0)"/>
      <use xlink:href="#DejaVuSans-6f" transform="translate(553.662109 0)"/>
      <use xlink:href="#DejaVuSans-72" transform="translate(614.84375 0)"/>
      <use xlink:href="#DejaVuSans-6b" transform="translate(655.957031 0)"/>
     </g>
    </g>
   </g>
   <g id="text_2">
    <g clip-path="url(#p6cb7a387ee)">
     <!-- articulation -->
     <g transform="translate(120.687558 54.868657) scale(0.08 -0.08)">
      <defs>
       <path id="DejaVuSans-69" d="M 603 3500 
L 1178 3500 
L 1178 0 
L 603 0 
L 603 3500 
z
M 603 4863 
L 1178 4863 
L 1178 4134 
L 603 4134 
L 603 4863 
z
" transform="scale(0.015625)"/>
       <path id="DejaVuSans-75" d="M 544 1381 
L 544 3500 
L 1119 3500 
L 1119 1403 
Q 1119 906 1312 657 
Q 1506 409 1894 409 
Q 2359 409 2629 706 
Q 2900 1003 2900 1516 
L 2900 3500 
L 3475 3500 
L 3475 0 
L 2900 0 
L 2900 538 
Q 2691 219 2414 64 
Q 2138 -91 1772 -91 
Q 1169 -91 856 284 
Q 544 659 544 1381 
z
M 1991 3584 
L 1991 3584 
z
" transform="scale(0.015625)"/>
       <path id="DejaVuSans-6c" d="M 603 4863 
L 1178 4863 
L 1178 0 
L 603 0 
L 603 4863 
z
" transform="scale(0.015625)"/>
      </defs>
      <use xlink:href="#DejaVuSans-61"/>
      <use xlink:href="#DejaVuSans-72" transform="translate(61.279297 0)"/>
      <use xlink:href="#DejaVuSans-74" transform="translate(102.392578 0)"/>
      <use xlink:href="#DejaVuSans-69" transform="translate(141.601562 0)"/>
      <use xlink:href="#DejaVuSans-63" transform="translate(169.384766 0)"/>
      <use xlink:href="#DejaVuSans-75" transform="translate(224.365234 0)"/>
      <use xlink:href="#DejaVuSans-6c" transform="translate(287.744141 0)"/>
      <use xlink:href="#DejaVuSans-61" transform="translate(315.527344 0)"/>
      <use xlink:href="#DejaVuSans-74" transform="translate(376.806641 0)"/>
      <use xlink:href="#DejaVuSans-69" transform="translate(416.015625 0)"/>
      <use xlink:href="#DejaVuSans-6f" transform="translate(443.798828 0)"/>
      <use xlink:href="#DejaVuSans-6e" transform="translate(504.980469 0)"/>
     </g>
    </g>
   </g>
   <g id="text_3">
    <g clip-path="url(#p6cb7a387ee)">
     <!-- circulating_reference -->
     <g transform="translate(108.667569 331.56395) scale(0.08 -0.08)">
      <defs>
       <path id="DejaVuSans-67" d="M 2906 1791 
Q 2906 2416 2648 2759 
Q 2391 3103 1925 3103 
Q 1463 3103 1205 2759 
Q 947 2416 947 1791 
Q 947 1169 1205 825 
Q 1463 481 1925 481 
Q 2391 481 2648 825 
Q 2906 1169 2906 1791 
z
M 3481 434 
Q 3481 -459 3084 -895 
Q 2688 -1331 1869 -1331 
Q 1566 -1331 1297 -1286 
Q 1028 -1241 775 -1147 
L 775 -588 
Q 1028 -725 1275 -790 
Q 1522 -856 1778 -856 
Q 2344 -856 2625 -561 
Q 2906 -266 2906 331 
L 2906 616 
Q 2728 306 2450 153 
Q 2172 0 1784 0 
Q 1141 0 747 490 
Q 353 981 353 1791 
Q 353 2603 747 3093 
Q 1141 3584 1784 3584 
Q 2172 3584 2450 3431 
Q 2728 3278 2906 2969 
L 2906 3500 
L 3481 3500 
L 3481 434 
z
" transform="scale(0.015625)"/>
       <path id="DejaVuSans-66" d="M 2375 4863 
L 2375 4384 
L 1825 4384 
Q 1516 4384 1395 4259 
Q 1275 4134 1275 3809 
L 1275 3500 
L 2222 3500 
L 2222 3053 
L 1275 3053 
L 1275 0 
L 697 0 
L 697 3053 
L 147 3053 
L 147 3500 
L 697 3500 
L 697 3744 
Q 697 4328 969 4595 
Q 1241 4863 1831 4863 
L 2375 4863 
z
" transform="scale(0.015625)"/>
      </defs>
      <use xlink:href="#DejaVuSans-63"/>
      <use xlink:href="#DejaVuSans-69" transform="translate(54.980469 0)"/>
      <use xlink:href="#DejaVuSans-72" transform="translate(82.763672 0)"/>
      <use xlink:href="#DejaVuSans-63" transform="translate(121.626953 0)"/>
      <use xlink:href="#DejaVuSans-75" transform="translate(176.607422 0)"/>
      <use xlink:href="#DejaVuSans-6c" transform="translate(239.986328 0)"/>
      <use xlink:href="#DejaVuSans-61" transform="translate(267.769531 0)"/>
      <use xlink:href="#DejaVuSans-74" transform="translate(329.048828 0)"/>
      <use xlink:href="#DejaVuSans-69" transform="translate(368.257812 0)"/>
      <use xlink:href="#DejaVuSans-6e" transform="translate(396.041016 0)"/>
      <use xlink:href="#DejaVuSans-67" transform="translate(459.419922 0)"/>
      <use xlink:href="#DejaVuSans-5f" transform="translate(522.896484 0)"/>
      <use xlink:href="#DejaVuSans-72" transform="translate(572.896484 0)"/>
      <use xlink:href="#DejaVuSans-65" transform="translate(611.759766 0)"/>
      <use xlink:href="#DejaVuSans-66" transform="translate(673.283203 0)"/>
      <use xlink:href="#DejaVuSans-65" transform="translate(708.488281 0)"/>
      <use xlink:href="#DejaVuSans-72" transform="translate(770.011719 0)"/>
      <use xlink:href="#DejaVuSans-65" transform="translate(808.875 0)"/>
      <use xlink:href="#DejaVuSans-6e" transform="translate(870.398438 0)"/>
      <use xlink:href="#DejaVuSans-63" transform="translate(933.777344 0)"/>
      <use xlink:href="#DejaVuSans-65" transform="translate(988.757812 0)"/>
     </g>
    </g>
   </g>
   <g id="text_4">
    <g clip-path="url(#p6cb7a387ee)">
     <!-- construction -->
     <g transform="translate(40.28265 191.211445) scale(0.08 -0.08)">
      <defs>
       <path id="DejaVuSans-73" d="M 2834 3397 
L 2834 2853 
Q 2591 2978 2328 3040 
Q 2066 3103 1784 3103 
Q 1356 3103 1142 2972 
Q 928 2841 928 2578 
Q 928 2378 1081 2264 
Q 1234 2150 1697 2047 
L 1894 2003 
Q 2506 1872 2764 1633 
Q 3022 1394 3022 966 
Q 3022 478 2636 193 
Q 2250 -91 1575 -91 
Q 1294 -91 989 -36 
Q 684 19 347 128 
L 347 722 
Q 666 556 975 473 
Q 1284 391 1588 391 
Q 1994 391 2212 530 
Q 2431 669 2431 922 
Q 2431 1156 2273 1281 
Q 2116 1406 1581 1522 
L 1381 1569 
Q 847 1681 609 1914 
Q 372 2147 372 2553 
Q 372 3047 722 3315 
Q 1072 3584 1716 3584 
Q 2034 3584 2315 3537 
Q 2597 3491 2834 3397 
z
" transform="scale(0.015625)"/>
      </defs>
      <use xlink:href="#DejaVuSans-63"/>
      <use xlink:href="#DejaVuSans-6f" transform="translate(54.980469 0)"/>
      <use xlink:href="#DejaVuSans-6e" transform="translate(116.162109 0)"/>
      <use xlink:href="#DejaVuSans-73" transform="translate(179.541016 0)"/>
      <use xlink:href="#DejaVuSans-74" transform="translate(231.640625 0)"/>
      <use xlink:href="#DejaVuSans-72" transform="translate(270.849609 0)"/>
      <use xlink:href="#DejaVuSans-75" transform="translate(311.962891 0)"/>
      <use xlink:href="#DejaVuSans-63" transform="translate(375.341797 0)"/>
      <use xlink:href="#DejaVuSans-74" transform="translate(430.322266 0)"/>
      <use xlink:href="#DejaVuSans-69" transform="translate(469.53125 0)"/>
      <use xlink:href="#DejaVuSans-6f" transform="translate(497.314453 0)"/>
      <use xlink:href="#DejaVuSans-6e" transform="translate(558.496094 0)"/>
     </g>
    </g>
   </g>
   <g id="text_5">
    <g clip-path="url(#p6cb7a387ee)">
     <!-- inscription -->
     <g transform="translate(561.956725 244.720703) scale(0.08 -0.08)">
      <defs>
       <path id="DejaVuSans-70" d="M 1159 525 
L 1159 -1331 
L 581 -1331 
L 581 3500 
L 1159 3500 
L 1159 2969 
Q 1341 3281 1617 3432 
Q 1894 3584 2278 3584 
Q 2916 3584 3314 3078 
Q 3713 2572 3713 1747 
Q 3713 922 3314 415 
Q 2916 -91 2278 -91 
Q 1894 -91 1617 61 
Q 1341 213 1159 525 
z
M 3116 1747 
Q 3116 2381 2855 2742 
Q 2594 3103 2138 3103 
Q 1681 3103 1420 2742 
Q 1159 2381 1159 1747 
Q 1159 1113 1420 752 
Q 1681 391 2138 391 
Q 2594 391 2855 752 
Q 3116 1113 3116 1747 
z
" transform="scale(0.015625)"/>
      </defs>
      <use xlink:href="#DejaVuSans-69"/>
      <use xlink:href="#DejaVuSans-6e" transform="translate(27.783203 0)"/>
      <use xlink:href="#DejaVuSans-73" transform="translate(91.162109 0)"/>
      <use xlink:href="#DejaVuSans-63" transform="translate(143.261719 0)"/>
      <use xlink:href="#DejaVuSans-72" transform="translate(198.242188 0)"/>
      <use xlink:href="#DejaVuSans-69" transform="translate(239.355469 0)"/>
      <use xlink:href="#DejaVuSans-70" transform="translate(267.138672 0)"/>
      <use xlink:href="#DejaVuSans-74" transform="translate(330.615234 0)"/>
      <use xlink:href="#DejaVuSans-69" transform="translate(369.824219 0)"/>
      <use xlink:href="#DejaVuSans-6f" transform="translate(397.607422 0)"/>
      <use xlink:href="#DejaVuSans-6e" transform="translate(458.789062 0)"/>
     </g>
    </g>
   </g>
   <g id="text_6">
    <g clip-path="url(#p6cb7a387ee)">
     <!-- militar -->
     <g transform="translate(264.162029 136.673598) scale(0.08 -0.08)">
      <defs>
       <path id="DejaVuSans-6d" d="M 3328 2828 
Q 3544 3216 3844 3400 
Q 4144 3584 4550 3584 
Q 5097 3584 5394 3201 
Q 5691 2819 5691 2113 
L 5691 0 
L 5113 0 
L 5113 2094 
Q 5113 2597 4934 2840 
Q 4756 3084 4391 3084 
Q 3944 3084 3684 2787 
Q 3425 2491 3425 1978 
L 3425 0 
L 2847 0 
L 2847 2094 
Q 2847 2600 2669 2842 
Q 2491 3084 2119 3084 
Q 1678 3084 1418 2786 
Q 1159 2488 1159 1978 
L 1159 0 
L 581 0 
L 581 3500 
L 1159 3500 
L 1159 2956 
Q 1356 3278 1631 3431 
Q 1906 3584 2284 3584 
Q 2666 3584 2933 3390 
Q 3200 3197 3328 2828 
z
" transform="scale(0.015625)"/>
      </defs>
      <use xlink:href="#DejaVuSans-6d"/>
      <use xlink:href="#DejaVuSans-69" transform="translate(97.412109 0)"/>
      <use xlink:href="#DejaVuSans-6c" transform="translate(125.195312 0)"/>
      <use xlink:href="#DejaVuSans-69" transform="translate(152.978516 0)"/>
      <use xlink:href="#DejaVuSans-74" transform="translate(180.761719 0)"/>
      <use xlink:href="#DejaVuSans-61" transform="translate(219.970703 0)"/>
      <use xlink:href="#DejaVuSans-72" transform="translate(281.25 0)"/>
     </g>
    </g>
   </g>
   <g id="text_7">
    <g clip-path="url(#p6cb7a387ee)">
     <!-- network -->
     <g transform="translate(355.548654 302.425165) scale(0.08 -0.08)">
      <use xlink:href="#DejaVuSans-6e"/>
      <use xlink:href="#DejaVuSans-65" transform="translate(63.378906 0)"/>
      <use xlink:href="#DejaVuSans-74" transform="translate(124.902344 0)"/>
      <use xlink:href="#DejaVuSans-77" transform="translate(164.111328 0)"/>
      <use xlink:href="#DejaVuSans-6f" transform="translate(245.898438 0)"/>
      <use xlink:href="#DejaVuSans-72" transform="translate(307.080078 0)"/>
      <use xlink:href="#DejaVuSans-6b" transform="translate(348.193359 0)"/>
     </g>
    </g>
   </g>
   <g id="text_8">
    <g clip-path="url(#p6cb7a387ee)">
     <!-- textil -->
     <g transform="translate(251.083638 453.546343) scale(0.08 -0.08)">
      <defs>
       <path id="DejaVuSans-78" d="M 3513 3500 
L 2247 1797 
L 3578 0 
L 2900 0 
L 1881 1375 
L 863 0 
L 184 0 
L 1544 1831 
L 300 3500 
L 978 3500 
L 1906 2253 
L 2834 3500 
L 3513 3500 
z
" transform="scale(0.015625)"/>
      </defs>
      <use xlink:href="#DejaVuSans-74"/>
      <use xlink:href="#DejaVuSans-65" transform="translate(39.208984 0)"/>
      <use xlink:href="#DejaVuSans-78" transform="translate(98.982422 0)"/>
      <use xlink:href="#DejaVuSans-74" transform="translate(158.162109 0)"/>
      <use xlink:href="#DejaVuSans-69" transform="translate(197.371094 0)"/>
      <use xlink:href="#DejaVuSans-6c" transform="translate(225.154297 0)"/>
     </g>
    </g>
   </g>
   <g id="text_9">
    <g clip-path="url(#p6cb7a387ee)">
     <!-- topologia -->
     <g transform="translate(272.233741 289.260277) scale(0.08 -0.08)">
      <use xlink:href="#DejaVuSans-74"/>
      <use xlink:href="#DejaVuSans-6f" transform="translate(39.208984 0)"/>
      <use xlink:href="#DejaVuSans-70" transform="translate(100.390625 0)"/>
      <use xlink:href="#DejaVuSans-6f" transform="translate(163.867188 0)"/>
      <use xlink:href="#DejaVuSans-6c" transform="translate(225.048828 0)"/>
      <use xlink:href="#DejaVuSans-6f" transform="translate(252.832031 0)"/>
      <use xlink:href="#DejaVuSans-67" transform="translate(314.013672 0)"/>
      <use xlink:href="#DejaVuSans-69" transform="translate(377.490234 0)"/>
      <use xlink:href="#DejaVuSans-61" transform="translate(405.273438 0)"/>
     </g>
    </g>
   </g>
   <g id="text_10">
    <g clip-path="url(#p6cb7a387ee)">
     <!-- translation -->
     <g transform="translate(434.194812 398.126705) scale(0.08 -0.08)">
      <use xlink:href="#DejaVuSans-74"/>
      <use xlink:href="#DejaVuSans-72" transform="translate(39.208984 0)"/>
      <use xlink:href="#DejaVuSans-61" transform="translate(80.322266 0)"/>
      <use xlink:href="#DejaVuSans-6e" transform="translate(141.601562 0)"/>
      <use xlink:href="#DejaVuSans-73" transform="translate(204.980469 0)"/>
      <use xlink:href="#DejaVuSans-6c" transform="translate(257.080078 0)"/>
      <use xlink:href="#DejaVuSans-61" transform="translate(284.863281 0)"/>
      <use xlink:href="#DejaVuSans-74" transform="translate(346.142578 0)"/>
      <use xlink:href="#DejaVuSans-69" transform="translate(385.351562 0)"/>
      <use xlink:href="#DejaVuSans-6f" transform="translate(413.134766 0)"/>
      <use xlink:href="#DejaVuSans-6e" transform="translate(474.316406 0)"/>
     </g>
    </g>
   </g>
  </g>
 </g>
 <defs>
  <clipPath id="p6cb7a387ee">
   <rect x="10.8" y="10.8" width="626.4" height="482.4"/>
  </clipPath>
 </defs>
</svg>
