<?xml version="1.0" encoding="utf-8" standalone="no"?>
<!DOCTYPE svg PUBLIC "-//W3C//DTD SVG 1.1//EN"
  "http://www.w3.org/Graphics/SVG/1.1/DTD/svg11.dtd">
<svg xmlns:xlink="http://www.w3.org/1999/xlink" width="648pt" height="504pt" viewBox="0 0 648 504" xmlns="http://www.w3.org/2000/svg" version="1.1">
 <metadata>
  <rdf:RDF xmlns:dc="http://purl.org/dc/elements/1.1/" xmlns:cc="http://creativecommons.org/ns#" xmlns:rdf="http://www.w3.org/1999/02/22-rdf-syntax-ns#">
   <cc:Work>
    <dc:type rdf:resource="http://purl.org/dc/dcmitype/StillImage"/>
    <dc:date>2026-05-24T23:05:08.807599</dc:date>
    <dc:format>image/svg+xml</dc:format>
    <dc:creator>
     <cc:Agent>
      <dc:title>Matplotlib v3.10.9, https://matplotlib.org/</dc:title>
     </cc:Agent>
    </dc:creator>
   </cc:Work>
  </rdf:RDF>
 </metadata>
 <defs>
  <style type="text/css">*{stroke-linejoin: round; stroke-linecap: butt}</style>
 </defs>
 <g id="figure_1">
  <g id="patch_1">
   <path d="M 0 504 
L 648 504 
L 648 0 
L 0 0 
z
" style="fill: #ffffff"/>
  </g>
  <g id="axes_1">
   <g id="LineCollection_1">
    <path d="M 393.488479 219.186002 
L 256.075986 223.356526 
" clip-path="url(#p99834933cb)" style="fill: none; stroke: #000000; stroke-opacity: 0.45; stroke-width: 1.9"/>
    <path d="M 393.488479 219.186002 
L 186.321132 323.263512 
" clip-path="url(#p99834933cb)" style="fill: none; stroke: #000000; stroke-opacity: 0.45; stroke-width: 0.7"/>
    <path d="M 393.488479 219.186002 
L 211.377368 207.663789 
" clip-path="url(#p99834933cb)" style="fill: none; stroke: #000000; stroke-opacity: 0.45; stroke-width: 1.741641"/>
    <path d="M 393.488479 219.186002 
L 202.250151 256.994888 
" clip-path="url(#p99834933cb)" style="fill: none; stroke: #000000; stroke-opacity: 0.45; stroke-width: 1.248528"/>
    <path d="M 393.488479 219.186002 
L 120.80641 220.11701 
" clip-path="url(#p99834933cb)" style="fill: none; stroke: #000000; stroke-opacity: 0.45; stroke-width: 1.134847"/>
    <path d="M 393.488479 219.186002 
L 308.324009 105.564891 
" clip-path="url(#p99834933cb)" style="fill: none; stroke: #000000; stroke-opacity: 0.45; stroke-width: 1.248528"/>
    <path d="M 393.488479 219.186002 
L 343.564454 157.245176 
" clip-path="url(#p99834933cb)" style="fill: none; stroke: #000000; stroke-opacity: 0.45; stroke-width: 1.394987"/>
    <path d="M 393.488479 219.186002 
L 269.796549 320.274001 
" clip-path="url(#p99834933cb)" style="fill: none; stroke: #000000; stroke-opacity: 0.45; stroke-width: 1.07082"/>
    <path d="M 393.488479 219.186002 
L 451.614198 287.466287 
" clip-path="url(#p99834933cb)" style="fill: none; stroke: #000000; stroke-opacity: 0.45; stroke-width: 1.774773"/>
    <path d="M 393.488479 219.186002 
L 322.029552 249.629733 
" clip-path="url(#p99834933cb)" style="fill: none; stroke: #000000; stroke-opacity: 0.45; stroke-width: 1.193725"/>
    <path d="M 393.488479 219.186002 
L 203.51117 88.357877 
" clip-path="url(#p99834933cb)" style="fill: none; stroke: #000000; stroke-opacity: 0.45; stroke-width: 1.134847"/>
    <path d="M 343.564454 157.245176 
L 120.80641 220.11701 
" clip-path="url(#p99834933cb)" style="fill: none; stroke: #000000; stroke-opacity: 0.45; stroke-width: 1.07082"/>
    <path d="M 343.564454 157.245176 
L 269.796549 320.274001 
" clip-path="url(#p99834933cb)" style="fill: none; stroke: #000000; stroke-opacity: 0.45; stroke-width: 0.919615"/>
    <path d="M 343.564454 157.245176 
L 202.250151 256.994888 
" clip-path="url(#p99834933cb)" style="fill: none; stroke: #000000; stroke-opacity: 0.45; stroke-width: 1.561895"/>
    <path d="M 343.564454 157.245176 
L 211.377368 207.663789 
" clip-path="url(#p99834933cb)" style="fill: none; stroke: #000000; stroke-opacity: 0.45; stroke-width: 1.43923"/>
    <path d="M 343.564454 157.245176 
L 451.614198 287.466287 
" clip-path="url(#p99834933cb)" style="fill: none; stroke: #000000; stroke-opacity: 0.45"/>
    <path d="M 343.564454 157.245176 
L 256.075986 223.356526 
" clip-path="url(#p99834933cb)" style="fill: none; stroke: #000000; stroke-opacity: 0.45; stroke-width: 2.174824"/>
    <path d="M 343.564454 157.245176 
L 308.324009 105.564891 
" clip-path="url(#p99834933cb)" style="fill: none; stroke: #000000; stroke-opacity: 0.45; stroke-width: 2.8"/>
    <path d="M 343.564454 157.245176 
L 322.029552 249.629733 
" clip-path="url(#p99834933cb)" style="fill: none; stroke: #000000; stroke-opacity: 0.45; stroke-width: 1.807125"/>
    <path d="M 343.564454 157.245176 
L 153.540307 154.076787 
" clip-path="url(#p99834933cb)" style="fill: none; stroke: #000000; stroke-opacity: 0.45"/>
    <path d="M 343.564454 157.245176 
L 203.51117 88.357877 
" clip-path="url(#p99834933cb)" style="fill: none; stroke: #000000; stroke-opacity: 0.45; stroke-width: 0.824264"/>
    <path d="M 343.564454 157.245176 
L 186.321132 323.263512 
" clip-path="url(#p99834933cb)" style="fill: none; stroke: #000000; stroke-opacity: 0.45; stroke-width: 0.919615"/>
    <path d="M 343.564454 157.245176 
L 479.71959 167.076128 
" clip-path="url(#p99834933cb)" style="fill: none; stroke: #000000; stroke-opacity: 0.45; stroke-width: 1.193725"/>
    <path d="M 343.564454 157.245176 
L 582.842975 52.661157 
" clip-path="url(#p99834933cb)" style="fill: none; stroke: #000000; stroke-opacity: 0.45"/>
    <path d="M 451.614198 287.466287 
L 269.796549 320.274001 
" clip-path="url(#p99834933cb)" style="fill: none; stroke: #000000; stroke-opacity: 0.45; stroke-width: 0.7"/>
    <path d="M 451.614198 287.466287 
L 202.250151 256.994888 
" clip-path="url(#p99834933cb)" style="fill: none; stroke: #000000; stroke-opacity: 0.45; stroke-width: 0.824264"/>
    <path d="M 451.614198 287.466287 
L 211.377368 207.663789 
" clip-path="url(#p99834933cb)" style="fill: none; stroke: #000000; stroke-opacity: 0.45; stroke-width: 1.193725"/>
    <path d="M 451.614198 287.466287 
L 186.321132 323.263512 
" clip-path="url(#p99834933cb)" style="fill: none; stroke: #000000; stroke-opacity: 0.45; stroke-width: 0.7"/>
    <path d="M 451.614198 287.466287 
L 256.075986 223.356526 
" clip-path="url(#p99834933cb)" style="fill: none; stroke: #000000; stroke-opacity: 0.45; stroke-width: 1.741641"/>
    <path d="M 451.614198 287.466287 
L 308.324009 105.564891 
" clip-path="url(#p99834933cb)" style="fill: none; stroke: #000000; stroke-opacity: 0.45; stroke-width: 0.7"/>
    <path d="M 451.614198 287.466287 
L 322.029552 249.629733 
" clip-path="url(#p99834933cb)" style="fill: none; stroke: #000000; stroke-opacity: 0.45; stroke-width: 1.248528"/>
    <path d="M 451.614198 287.466287 
L 203.51117 88.357877 
" clip-path="url(#p99834933cb)" style="fill: none; stroke: #000000; stroke-opacity: 0.45; stroke-width: 1.07082"/>
    <path d="M 451.614198 287.466287 
L 120.80641 220.11701 
" clip-path="url(#p99834933cb)" style="fill: none; stroke: #000000; stroke-opacity: 0.45; stroke-width: 0.7"/>
    <path d="M 65.157025 451.338843 
L 211.377368 207.663789 
" clip-path="url(#p99834933cb)" style="fill: none; stroke: #000000; stroke-opacity: 0.45; stroke-width: 0.7"/>
    <path d="M 65.157025 451.338843 
L 186.321132 323.263512 
" clip-path="url(#p99834933cb)" style="fill: none; stroke: #000000; stroke-opacity: 0.45; stroke-width: 0.919615"/>
    <path d="M 65.157025 451.338843 
L 256.075986 223.356526 
" clip-path="url(#p99834933cb)" style="fill: none; stroke: #000000; stroke-opacity: 0.45"/>
    <path d="M 65.157025 451.338843 
L 202.250151 256.994888 
" clip-path="url(#p99834933cb)" style="fill: none; stroke: #000000; stroke-opacity: 0.45; stroke-width: 0.824264"/>
    <path d="M 65.157025 451.338843 
L 120.80641 220.11701 
" clip-path="url(#p99834933cb)" style="fill: none; stroke: #000000; stroke-opacity: 0.45; stroke-width: 0.824264"/>
    <path d="M 65.157025 451.338843 
L 479.71959 167.076128 
" clip-path="url(#p99834933cb)" style="fill: none; stroke: #000000; stroke-opacity: 0.45; stroke-width: 0.7"/>
    <path d="M 65.157025 451.338843 
L 322.029552 249.629733 
" clip-path="url(#p99834933cb)" style="fill: none; stroke: #000000; stroke-opacity: 0.45; stroke-width: 0.919615"/>
    <path d="M 186.321132 323.263512 
L 211.377368 207.663789 
" clip-path="url(#p99834933cb)" style="fill: none; stroke: #000000; stroke-opacity: 0.45; stroke-width: 1.248528"/>
    <path d="M 186.321132 323.263512 
L 256.075986 223.356526 
" clip-path="url(#p99834933cb)" style="fill: none; stroke: #000000; stroke-opacity: 0.45; stroke-width: 2.273499"/>
    <path d="M 186.321132 323.263512 
L 153.540307 154.076787 
" clip-path="url(#p99834933cb)" style="fill: none; stroke: #000000; stroke-opacity: 0.45; stroke-width: 0.919615"/>
    <path d="M 186.321132 323.263512 
L 322.029552 249.629733 
" clip-path="url(#p99834933cb)" style="fill: none; stroke: #000000; stroke-opacity: 0.45; stroke-width: 1.481665"/>
    <path d="M 186.321132 323.263512 
L 202.250151 256.994888 
" clip-path="url(#p99834933cb)" style="fill: none; stroke: #000000; stroke-opacity: 0.45; stroke-width: 1.248528"/>
    <path d="M 186.321132 323.263512 
L 120.80641 220.11701 
" clip-path="url(#p99834933cb)" style="fill: none; stroke: #000000; stroke-opacity: 0.45; stroke-width: 0.7"/>
    <path d="M 186.321132 323.263512 
L 479.71959 167.076128 
" clip-path="url(#p99834933cb)" style="fill: none; stroke: #000000; stroke-opacity: 0.45"/>
    <path d="M 186.321132 323.263512 
L 582.842975 52.661157 
" clip-path="url(#p99834933cb)" style="fill: none; stroke: #000000; stroke-opacity: 0.45; stroke-width: 0.824264"/>
    <path d="M 120.80641 220.11701 
L 256.075986 223.356526 
" clip-path="url(#p99834933cb)" style="fill: none; stroke: #000000; stroke-opacity: 0.45; stroke-width: 2.62486"/>
    <path d="M 120.80641 220.11701 
L 203.51117 88.357877 
" clip-path="url(#p99834933cb)" style="fill: none; stroke: #000000; stroke-opacity: 0.45; stroke-width: 0.919615"/>
    <path d="M 120.80641 220.11701 
L 153.540307 154.076787 
" clip-path="url(#p99834933cb)" style="fill: none; stroke: #000000; stroke-opacity: 0.45; stroke-width: 2.224829"/>
    <path d="M 120.80641 220.11701 
L 269.796549 320.274001 
" clip-path="url(#p99834933cb)" style="fill: none; stroke: #000000; stroke-opacity: 0.45; stroke-width: 1.43923"/>
    <path d="M 120.80641 220.11701 
L 202.250151 256.994888 
" clip-path="url(#p99834933cb)" style="fill: none; stroke: #000000; stroke-opacity: 0.45; stroke-width: 1.636932"/>
    <path d="M 120.80641 220.11701 
L 211.377368 207.663789 
" clip-path="url(#p99834933cb)" style="fill: none; stroke: #000000; stroke-opacity: 0.45; stroke-width: 2.456696"/>
    <path d="M 120.80641 220.11701 
L 479.71959 167.076128 
" clip-path="url(#p99834933cb)" style="fill: none; stroke: #000000; stroke-opacity: 0.45; stroke-width: 0.824264"/>
    <path d="M 120.80641 220.11701 
L 322.029552 249.629733 
" clip-path="url(#p99834933cb)" style="fill: none; stroke: #000000; stroke-opacity: 0.45; stroke-width: 1.134847"/>
    <path d="M 120.80641 220.11701 
L 308.324009 105.564891 
" clip-path="url(#p99834933cb)" style="fill: none; stroke: #000000; stroke-opacity: 0.45; stroke-width: 1.134847"/>
    <path d="M 203.51117 88.357877 
L 256.075986 223.356526 
" clip-path="url(#p99834933cb)" style="fill: none; stroke: #000000; stroke-opacity: 0.45; stroke-width: 1.838749"/>
    <path d="M 203.51117 88.357877 
L 153.540307 154.076787 
" clip-path="url(#p99834933cb)" style="fill: none; stroke: #000000; stroke-opacity: 0.45; stroke-width: 0.824264"/>
    <path d="M 203.51117 88.357877 
L 211.377368 207.663789 
" clip-path="url(#p99834933cb)" style="fill: none; stroke: #000000; stroke-opacity: 0.45; stroke-width: 1.394987"/>
    <path d="M 203.51117 88.357877 
L 202.250151 256.994888 
" clip-path="url(#p99834933cb)" style="fill: none; stroke: #000000; stroke-opacity: 0.45; stroke-width: 0.919615"/>
    <path d="M 203.51117 88.357877 
L 322.029552 249.629733 
" clip-path="url(#p99834933cb)" style="fill: none; stroke: #000000; stroke-opacity: 0.45; stroke-width: 1.07082"/>
    <path d="M 153.540307 154.076787 
L 211.377368 207.663789 
" clip-path="url(#p99834933cb)" style="fill: none; stroke: #000000; stroke-opacity: 0.45; stroke-width: 2.043168"/>
    <path d="M 153.540307 154.076787 
L 256.075986 223.356526 
" clip-path="url(#p99834933cb)" style="fill: none; stroke: #000000; stroke-opacity: 0.45; stroke-width: 2.123369"/>
    <path d="M 153.540307 154.076787 
L 322.029552 249.629733 
" clip-path="url(#p99834933cb)" style="fill: none; stroke: #000000; stroke-opacity: 0.45; stroke-width: 1.07082"/>
    <path d="M 153.540307 154.076787 
L 202.250151 256.994888 
" clip-path="url(#p99834933cb)" style="fill: none; stroke: #000000; stroke-opacity: 0.45; stroke-width: 0.919615"/>
    <path d="M 153.540307 154.076787 
L 269.796549 320.274001 
" clip-path="url(#p99834933cb)" style="fill: none; stroke: #000000; stroke-opacity: 0.45; stroke-width: 1.248528"/>
    <path d="M 153.540307 154.076787 
L 308.324009 105.564891 
" clip-path="url(#p99834933cb)" style="fill: none; stroke: #000000; stroke-opacity: 0.45; stroke-width: 1.07082"/>
    <path d="M 153.540307 154.076787 
L 479.71959 167.076128 
" clip-path="url(#p99834933cb)" style="fill: none; stroke: #000000; stroke-opacity: 0.45; stroke-width: 1.248528"/>
    <path d="M 153.540307 154.076787 
L 582.842975 52.661157 
" clip-path="url(#p99834933cb)" style="fill: none; stroke: #000000; stroke-opacity: 0.45; stroke-width: 0.824264"/>
    <path d="M 582.842975 52.661157 
L 479.71959 167.076128 
" clip-path="url(#p99834933cb)" style="fill: none; stroke: #000000; stroke-opacity: 0.45; stroke-width: 1.193725"/>
    <path d="M 582.842975 52.661157 
L 322.029552 249.629733 
" clip-path="url(#p99834933cb)" style="fill: none; stroke: #000000; stroke-opacity: 0.45; stroke-width: 0.824264"/>
    <path d="M 582.842975 52.661157 
L 256.075986 223.356526 
" clip-path="url(#p99834933cb)" style="fill: none; stroke: #000000; stroke-opacity: 0.45; stroke-width: 0.824264"/>
    <path d="M 479.71959 167.076128 
L 256.075986 223.356526 
" clip-path="url(#p99834933cb)" style="fill: none; stroke: #000000; stroke-opacity: 0.45; stroke-width: 1.348683"/>
    <path d="M 479.71959 167.076128 
L 202.250151 256.994888 
" clip-path="url(#p99834933cb)" style="fill: none; stroke: #000000; stroke-opacity: 0.45; stroke-width: 0.824264"/>
    <path d="M 479.71959 167.076128 
L 269.796549 320.274001 
" clip-path="url(#p99834933cb)" style="fill: none; stroke: #000000; stroke-opacity: 0.45; stroke-width: 0.824264"/>
    <path d="M 479.71959 167.076128 
L 322.029552 249.629733 
" clip-path="url(#p99834933cb)" style="fill: none; stroke: #000000; stroke-opacity: 0.45; stroke-width: 1.3"/>
    <path d="M 479.71959 167.076128 
L 308.324009 105.564891 
" clip-path="url(#p99834933cb)" style="fill: none; stroke: #000000; stroke-opacity: 0.45; stroke-width: 0.7"/>
    <path d="M 211.377368 207.663789 
L 256.075986 223.356526 
" clip-path="url(#p99834933cb)" style="fill: none; stroke: #000000; stroke-opacity: 0.45; stroke-width: 4.642641"/>
    <path d="M 211.377368 207.663789 
L 269.796549 320.274001 
" clip-path="url(#p99834933cb)" style="fill: none; stroke: #000000; stroke-opacity: 0.45; stroke-width: 1.774773"/>
    <path d="M 211.377368 207.663789 
L 202.250151 256.994888 
" clip-path="url(#p99834933cb)" style="fill: none; stroke: #000000; stroke-opacity: 0.45; stroke-width: 2.781176"/>
    <path d="M 211.377368 207.663789 
L 322.029552 249.629733 
" clip-path="url(#p99834933cb)" style="fill: none; stroke: #000000; stroke-opacity: 0.45; stroke-width: 2.097056"/>
    <path d="M 211.377368 207.663789 
L 308.324009 105.564891 
" clip-path="url(#p99834933cb)" style="fill: none; stroke: #000000; stroke-opacity: 0.45; stroke-width: 1.3"/>
    <path d="M 269.796549 320.274001 
L 256.075986 223.356526 
" clip-path="url(#p99834933cb)" style="fill: none; stroke: #000000; stroke-opacity: 0.45; stroke-width: 1.958846"/>
    <path d="M 269.796549 320.274001 
L 202.250151 256.994888 
" clip-path="url(#p99834933cb)" style="fill: none; stroke: #000000; stroke-opacity: 0.45; stroke-width: 1.3"/>
    <path d="M 269.796549 320.274001 
L 308.324009 105.564891 
" clip-path="url(#p99834933cb)" style="fill: none; stroke: #000000; stroke-opacity: 0.45; stroke-width: 0.919615"/>
    <path d="M 308.324009 105.564891 
L 202.250151 256.994888 
" clip-path="url(#p99834933cb)" style="fill: none; stroke: #000000; stroke-opacity: 0.45; stroke-width: 1.193725"/>
    <path d="M 308.324009 105.564891 
L 256.075986 223.356526 
" clip-path="url(#p99834933cb)" style="fill: none; stroke: #000000; stroke-opacity: 0.45; stroke-width: 1.774773"/>
    <path d="M 308.324009 105.564891 
L 322.029552 249.629733 
" clip-path="url(#p99834933cb)" style="fill: none; stroke: #000000; stroke-opacity: 0.45; stroke-width: 1.07082"/>
    <path d="M 202.250151 256.994888 
L 256.075986 223.356526 
" clip-path="url(#p99834933cb)" style="fill: none; stroke: #000000; stroke-opacity: 0.45; stroke-width: 4.26523"/>
    <path d="M 202.250151 256.994888 
L 322.029552 249.629733 
" clip-path="url(#p99834933cb)" style="fill: none; stroke: #000000; stroke-opacity: 0.45; stroke-width: 1.6"/>
    <path d="M 256.075986 223.356526 
L 322.029552 249.629733 
" clip-path="url(#p99834933cb)" style="fill: none; stroke: #000000; stroke-opacity: 0.45; stroke-width: 3.214249"/>
   </g>
   <g id="PathCollection_1">
    <path d="M 393.488479 231.888572 
C 396.85724 231.888572 400.088479 230.550149 402.470552 228.168076 
C 404.852626 225.786002 406.191049 222.554763 406.191049 219.186002 
C 406.191049 215.817241 404.852626 212.586002 402.470552 210.203929 
C 400.088479 207.821855 396.85724 206.483432 393.488479 206.483432 
C 390.119718 206.483432 386.888479 207.821855 384.506405 210.203929 
C 382.124332 212.586002 380.785909 215.817241 380.785909 219.186002 
C 380.785909 222.554763 382.124332 225.786002 384.506405 228.168076 
C 386.888479 230.550149 390.119718 231.888572 393.488479 231.888572 
z
" clip-path="url(#p99834933cb)" style="fill: #4c72b0; stroke: #ffffff; stroke-width: 1.5"/>
    <path d="M 343.564454 171.230961 
C 347.273528 171.230961 350.831187 169.75733 353.453898 167.134619 
C 356.076609 164.511908 357.55024 160.954249 357.55024 157.245176 
C 357.55024 153.536102 356.076609 149.978443 353.453898 147.355732 
C 350.831187 144.733021 347.273528 143.25939 343.564454 143.25939 
C 339.855381 143.25939 336.297722 144.733021 333.67501 147.355732 
C 331.052299 149.978443 329.578669 153.536102 329.578669 157.245176 
C 329.578669 160.954249 331.052299 164.511908 333.67501 167.134619 
C 336.297722 169.75733 339.855381 171.230961 343.564454 171.230961 
z
" clip-path="url(#p99834933cb)" style="fill: #4c72b0; stroke: #ffffff; stroke-width: 1.5"/>
    <path d="M 451.614198 298.975506 
C 454.666478 298.975506 457.594156 297.762822 459.752445 295.604534 
C 461.910733 293.446246 463.123417 290.518568 463.123417 287.466287 
C 463.123417 284.414007 461.910733 281.486329 459.752445 279.328041 
C 457.594156 277.169753 454.666478 275.957069 451.614198 275.957069 
C 448.561918 275.957069 445.63424 277.169753 443.475952 279.328041 
C 441.317663 281.486329 440.104979 284.414007 440.104979 287.466287 
C 440.104979 290.518568 441.317663 293.446246 443.475952 295.604534 
C 445.63424 297.762822 448.561918 298.975506 451.614198 298.975506 
z
" clip-path="url(#p99834933cb)" style="fill: #4c72b0; stroke: #ffffff; stroke-width: 1.5"/>
    <path d="M 65.157025 460.825676 
C 67.672962 460.825676 70.086192 459.826083 71.865229 458.047047 
C 73.644265 456.26801 74.643858 453.85478 74.643858 451.338843 
C 74.643858 448.822905 73.644265 446.409676 71.865229 444.630639 
C 70.086192 442.851603 67.672962 441.85201 65.157025 441.85201 
C 62.641087 441.85201 60.227857 442.851603 58.448821 444.630639 
C 56.669784 446.409676 55.670192 448.822905 55.670192 451.338843 
C 55.670192 453.85478 56.669784 456.26801 58.448821 458.047047 
C 60.227857 459.826083 62.641087 460.825676 65.157025 460.825676 
z
" clip-path="url(#p99834933cb)" style="fill: #4c72b0; stroke: #ffffff; stroke-width: 1.5"/>
    <path d="M 186.321132 334.876126 
C 189.400833 334.876126 192.354812 333.652548 194.53249 331.47487 
C 196.710168 329.297192 197.933746 326.343213 197.933746 323.263512 
C 197.933746 320.18381 196.710168 317.229831 194.53249 315.052153 
C 192.354812 312.874476 189.400833 311.650897 186.321132 311.650897 
C 183.24143 311.650897 180.287451 312.874476 178.109773 315.052153 
C 175.932095 317.229831 174.708517 320.18381 174.708517 323.263512 
C 174.708517 326.343213 175.932095 329.297192 178.109773 331.47487 
C 180.287451 333.652548 183.24143 334.876126 186.321132 334.876126 
z
" clip-path="url(#p99834933cb)" style="fill: #4c72b0; stroke: #ffffff; stroke-width: 1.5"/>
    <path d="M 120.80641 234.521181 
C 124.626441 234.521181 128.290528 233.003467 130.991697 230.302297 
C 133.692867 227.601127 135.210582 223.937041 135.210582 220.11701 
C 135.210582 216.296979 133.692867 212.632892 130.991697 209.931722 
C 128.290528 207.230553 124.626441 205.712838 120.80641 205.712838 
C 116.986379 205.712838 113.322292 207.230553 110.621123 209.931722 
C 107.919953 212.632892 106.402238 216.296979 106.402238 220.11701 
C 106.402238 223.937041 107.919953 227.601127 110.621123 230.302297 
C 113.322292 233.003467 116.986379 234.521181 120.80641 234.521181 
z
" clip-path="url(#p99834933cb)" style="fill: #4c72b0; stroke: #ffffff; stroke-width: 1.5"/>
    <path d="M 203.51117 99.279508 
C 206.40762 99.279508 209.18583 98.128736 211.233929 96.080637 
C 213.282029 94.032537 214.432801 91.254328 214.432801 88.357877 
C 214.432801 85.461426 213.282029 82.683217 211.233929 80.635117 
C 209.18583 78.587018 206.40762 77.436246 203.51117 77.436246 
C 200.614719 77.436246 197.83651 78.587018 195.78841 80.635117 
C 193.74031 82.683217 192.589538 85.461426 192.589538 88.357877 
C 192.589538 91.254328 193.74031 94.032537 195.78841 96.080637 
C 197.83651 98.128736 200.614719 99.279508 203.51117 99.279508 
z
" clip-path="url(#p99834933cb)" style="fill: #4c72b0; stroke: #ffffff; stroke-width: 1.5"/>
    <path d="M 153.540307 168.062573 
C 157.249381 168.062573 160.80704 166.588942 163.429751 163.966231 
C 166.052462 161.34352 167.526093 157.785861 167.526093 154.076787 
C 167.526093 150.367713 166.052462 146.810054 163.429751 144.187343 
C 160.80704 141.564632 157.249381 140.091002 153.540307 140.091002 
C 149.831234 140.091002 146.273575 141.564632 143.650864 144.187343 
C 141.028152 146.810054 139.554522 150.367713 139.554522 154.076787 
C 139.554522 157.785861 141.028152 161.34352 143.650864 163.966231 
C 146.273575 166.588942 149.831234 168.062573 153.540307 168.062573 
z
" clip-path="url(#p99834933cb)" style="fill: #4c72b0; stroke: #ffffff; stroke-width: 1.5"/>
    <path d="M 582.842975 61.861212 
C 585.282858 61.861212 587.623139 60.891836 589.348397 59.166578 
C 591.073655 57.441321 592.04303 55.10104 592.04303 52.661157 
C 592.04303 50.221274 591.073655 47.880994 589.348397 46.155736 
C 587.623139 44.430478 585.282858 43.461102 582.842975 43.461102 
C 580.403092 43.461102 578.062812 44.430478 576.337554 46.155736 
C 574.612296 47.880994 573.64292 50.221274 573.64292 52.661157 
C 573.64292 55.10104 574.612296 57.441321 576.337554 59.166578 
C 578.062812 60.891836 580.403092 61.861212 582.842975 61.861212 
z
" clip-path="url(#p99834933cb)" style="fill: #4c72b0; stroke: #ffffff; stroke-width: 1.5"/>
    <path d="M 479.71959 178.249004 
C 482.682671 178.249004 485.524791 177.071759 487.620006 174.976544 
C 489.715221 172.881329 490.892466 170.039209 490.892466 167.076128 
C 490.892466 164.113047 489.715221 161.270927 487.620006 159.175712 
C 485.524791 157.080497 482.682671 155.903253 479.71959 155.903253 
C 476.756509 155.903253 473.914389 157.080497 471.819174 159.175712 
C 469.723959 161.270927 468.546715 164.113047 468.546715 167.076128 
C 468.546715 170.039209 469.723959 172.881329 471.819174 174.976544 
C 473.914389 177.071759 476.756509 178.249004 479.71959 178.249004 
z
" clip-path="url(#p99834933cb)" style="fill: #4c72b0; stroke: #ffffff; stroke-width: 1.5"/>
    <path d="M 211.377368 226.135508 
C 216.276125 226.135508 220.974901 224.189211 224.438846 220.725267 
C 227.90279 217.261323 229.849087 212.562546 229.849087 207.663789 
C 229.849087 202.765032 227.90279 198.066256 224.438846 194.602312 
C 220.974901 191.138367 216.276125 189.192071 211.377368 189.192071 
C 206.478611 189.192071 201.779835 191.138367 198.31589 194.602312 
C 194.851946 198.066256 192.905649 202.765032 192.905649 207.663789 
C 192.905649 212.562546 194.851946 217.261323 198.31589 220.725267 
C 201.779835 224.189211 206.478611 226.135508 211.377368 226.135508 
z
" clip-path="url(#p99834933cb)" style="fill: #4c72b0; stroke: #ffffff; stroke-width: 1.5"/>
    <path d="M 269.796549 333.247882 
C 273.237263 333.247882 276.537517 331.880872 278.970469 329.447921 
C 281.403421 327.014969 282.770431 323.714715 282.770431 320.274001 
C 282.770431 316.833288 281.403421 313.533034 278.970469 311.100082 
C 276.537517 308.66713 273.237263 307.30012 269.796549 307.30012 
C 266.355836 307.30012 263.055582 308.66713 260.62263 311.100082 
C 258.189678 313.533034 256.822668 316.833288 256.822668 320.274001 
C 256.822668 323.714715 258.189678 327.014969 260.62263 329.447921 
C 263.055582 331.880872 266.355836 333.247882 269.796549 333.247882 
z
" clip-path="url(#p99834933cb)" style="fill: #4c72b0; stroke: #ffffff; stroke-width: 1.5"/>
    <path d="M 308.324009 118.908897 
C 311.862881 118.908897 315.257286 117.502888 317.759646 115.000528 
C 320.262006 112.498168 321.668015 109.103763 321.668015 105.564891 
C 321.668015 102.02602 320.262006 98.631615 317.759646 96.129254 
C 315.257286 93.626894 311.862881 92.220886 308.324009 92.220886 
C 304.785138 92.220886 301.390733 93.626894 298.888373 96.129254 
C 296.386012 98.631615 294.980004 102.02602 294.980004 105.564891 
C 294.980004 109.103763 296.386012 112.498168 298.888373 115.000528 
C 301.390733 117.502888 304.785138 118.908897 308.324009 118.908897 
z
" clip-path="url(#p99834933cb)" style="fill: #4c72b0; stroke: #ffffff; stroke-width: 1.5"/>
    <path d="M 202.250151 272.961698 
C 206.484598 272.961698 210.546184 271.279334 213.54039 268.285128 
C 216.534597 265.290921 218.216961 261.229336 218.216961 256.994888 
C 218.216961 252.760441 216.534597 248.698855 213.54039 245.704649 
C 210.546184 242.710442 206.484598 241.028078 202.250151 241.028078 
C 198.015703 241.028078 193.954118 242.710442 190.959911 245.704649 
C 187.965705 248.698855 186.283341 252.760441 186.283341 256.994888 
C 186.283341 261.229336 187.965705 265.290921 190.959911 268.285128 
C 193.954118 271.279334 198.015703 272.961698 202.250151 272.961698 
z
" clip-path="url(#p99834933cb)" style="fill: #4c72b0; stroke: #ffffff; stroke-width: 1.5"/>
    <path d="M 256.075986 243.990621 
C 261.548212 243.990621 266.797046 241.816483 270.666494 237.947035 
C 274.535942 234.077586 276.710081 228.828752 276.710081 223.356526 
C 276.710081 217.8843 274.535942 212.635465 270.666494 208.766017 
C 266.797046 204.896569 261.548212 202.722431 256.075986 202.722431 
C 250.60376 202.722431 245.354925 204.896569 241.485477 208.766017 
C 237.616029 212.635465 235.441891 217.8843 235.441891 223.356526 
C 235.441891 228.828752 237.616029 234.077586 241.485477 237.947035 
C 245.354925 241.816483 250.60376 243.990621 256.075986 243.990621 
z
" clip-path="url(#p99834933cb)" style="fill: #4c72b0; stroke: #ffffff; stroke-width: 1.5"/>
    <path d="M 322.029552 264.371917 
C 325.939225 264.371917 329.689294 262.818588 332.453851 260.054031 
C 335.218407 257.289475 336.771736 253.539406 336.771736 249.629733 
C 336.771736 245.72006 335.218407 241.96999 332.453851 239.205434 
C 329.689294 236.440878 325.939225 234.887548 322.029552 234.887548 
C 318.119879 234.887548 314.36981 236.440878 311.605253 239.205434 
C 308.840697 241.96999 307.287367 245.72006 307.287367 249.629733 
C 307.287367 253.539406 308.840697 257.289475 311.605253 260.054031 
C 314.36981 262.818588 318.119879 264.371917 322.029552 264.371917 
z
" clip-path="url(#p99834933cb)" style="fill: #4c72b0; stroke: #ffffff; stroke-width: 1.5"/>
   </g>
   <g id="text_1">
    <g clip-path="url(#p99834933cb)">
     <!-- actor_network -->
     <g transform="translate(364.934104 221.282252) scale(0.08 -0.08)">
      <defs>
       <path id="DejaVuSans-61" d="M 2194 1759 
Q 1497 1759 1228 1600 
Q 959 1441 959 1056 
Q 959 750 1161 570 
Q 1363 391 1709 391 
Q 2188 391 2477 730 
Q 2766 1069 2766 1631 
L 2766 1759 
L 2194 1759 
z
M 3341 1997 
L 3341 0 
L 2766 0 
L 2766 531 
Q 2569 213 2275 61 
Q 1981 -91 1556 -91 
Q 1019 -91 701 211 
Q 384 513 384 1019 
Q 384 1609 779 1909 
Q 1175 2209 1959 2209 
L 2766 2209 
L 2766 2266 
Q 2766 2663 2505 2880 
Q 2244 3097 1772 3097 
Q 1472 3097 1187 3025 
Q 903 2953 641 2809 
L 641 3341 
Q 956 3463 1253 3523 
Q 1550 3584 1831 3584 
Q 2591 3584 2966 3190 
Q 3341 2797 3341 1997 
z
" transform="scale(0.015625)"/>
       <path id="DejaVuSans-63" d="M 3122 3366 
L 3122 2828 
Q 2878 2963 2633 3030 
Q 2388 3097 2138 3097 
Q 1578 3097 1268 2742 
Q 959 2388 959 1747 
Q 959 1106 1268 751 
Q 1578 397 2138 397 
Q 2388 397 2633 464 
Q 2878 531 3122 666 
L 3122 134 
Q 2881 22 2623 -34 
Q 2366 -91 2075 -91 
Q 1284 -91 818 406 
Q 353 903 353 1747 
Q 353 2603 823 3093 
Q 1294 3584 2113 3584 
Q 2378 3584 2631 3529 
Q 2884 3475 3122 3366 
z
" transform="scale(0.015625)"/>
       <path id="DejaVuSans-74" d="M 1172 4494 
L 1172 3500 
L 2356 3500 
L 2356 3053 
L 1172 3053 
L 1172 1153 
Q 1172 725 1289 603 
Q 1406 481 1766 481 
L 2356 481 
L 2356 0 
L 1766 0 
Q 1100 0 847 248 
Q 594 497 594 1153 
L 594 3053 
L 172 3053 
L 172 3500 
L 594 3500 
L 594 4494 
L 1172 4494 
z
" transform="scale(0.015625)"/>
       <path id="DejaVuSans-6f" d="M 1959 3097 
Q 1497 3097 1228 2736 
Q 959 2375 959 1747 
Q 959 1119 1226 758 
Q 1494 397 1959 397 
Q 2419 397 2687 759 
Q 2956 1122 2956 1747 
Q 2956 2369 2687 2733 
Q 2419 3097 1959 3097 
z
M 1959 3584 
Q 2709 3584 3137 3096 
Q 3566 2609 3566 1747 
Q 3566 888 3137 398 
Q 2709 -91 1959 -91 
Q 1206 -91 779 398 
Q 353 888 353 1747 
Q 353 2609 779 3096 
Q 1206 3584 1959 3584 
z
" transform="scale(0.015625)"/>
       <path id="DejaVuSans-72" d="M 2631 2963 
Q 2534 3019 2420 3045 
Q 2306 3072 2169 3072 
Q 1681 3072 1420 2755 
Q 1159 2438 1159 1844 
L 1159 0 
L 581 0 
L 581 3500 
L 1159 3500 
L 1159 2956 
Q 1341 3275 1631 3429 
Q 1922 3584 2338 3584 
Q 2397 3584 2469 3576 
Q 2541 3569 2628 3553 
L 2631 2963 
z
" transform="scale(0.015625)"/>
       <path id="DejaVuSans-5f" d="M 3263 -1063 
L 3263 -1509 
L -63 -1509 
L -63 -1063 
L 3263 -1063 
z
" transform="scale(0.015625)"/>
       <path id="DejaVuSans-6e" d="M 3513 2113 
L 3513 0 
L 2938 0 
L 2938 2094 
Q 2938 2591 2744 2837 
Q 2550 3084 2163 3084 
Q 1697 3084 1428 2787 
Q 1159 2491 1159 1978 
L 1159 0 
L 581 0 
L 581 3500 
L 1159 3500 
L 1159 2956 
Q 1366 3272 1645 3428 
Q 1925 3584 2291 3584 
Q 2894 3584 3203 3211 
Q 3513 2838 3513 2113 
z
" transform="scale(0.015625)"/>
       <path id="DejaVuSans-65" d="M 3597 1894 
L 3597 1613 
L 953 1613 
Q 991 1019 1311 708 
Q 1631 397 2203 397 
Q 2534 397 2845 478 
Q 3156 559 3463 722 
L 3463 178 
Q 3153 47 2828 -22 
Q 2503 -91 2169 -91 
Q 1331 -91 842 396 
Q 353 884 353 1716 
Q 353 2575 817 3079 
Q 1281 3584 2069 3584 
Q 2775 3584 3186 3129 
Q 3597 2675 3597 1894 
z
M 3022 2063 
Q 3016 2534 2758 2815 
Q 2500 3097 2075 3097 
Q 1594 3097 1305 2825 
Q 1016 2553 972 2059 
L 3022 2063 
z
" transform="scale(0.015625)"/>
       <path id="DejaVuSans-77" d="M 269 3500 
L 844 3500 
L 1563 769 
L 2278 3500 
L 2956 3500 
L 3675 769 
L 4391 3500 
L 4966 3500 
L 4050 0 
L 3372 0 
L 2619 2869 
L 1863 0 
L 1184 0 
L 269 3500 
z
" transform="scale(0.015625)"/>
       <path id="DejaVuSans-6b" d="M 581 4863 
L 1159 4863 
L 1159 1991 
L 2875 3500 
L 3609 3500 
L 1753 1863 
L 3688 0 
L 2938 0 
L 1159 1709 
L 1159 0 
L 581 0 
L 581 4863 
z
" transform="scale(0.015625)"/>
      </defs>
      <use xlink:href="#DejaVuSans-61"/>
      <use xlink:href="#DejaVuSans-63" transform="translate(61.279297 0)"/>
      <use xlink:href="#DejaVuSans-74" transform="translate(116.259766 0)"/>
      <use xlink:href="#DejaVuSans-6f" transform="translate(155.46875 0)"/>
      <use xlink:href="#DejaVuSans-72" transform="translate(216.650391 0)"/>
      <use xlink:href="#DejaVuSans-5f" transform="translate(257.763672 0)"/>
      <use xlink:href="#DejaVuSans-6e" transform="translate(307.763672 0)"/>
      <use xlink:href="#DejaVuSans-65" transform="translate(371.142578 0)"/>
      <use xlink:href="#DejaVuSans-74" transform="translate(432.666016 0)"/>
      <use xlink:href="#DejaVuSans-77" transform="translate(471.875 0)"/>
      <use xlink:href="#DejaVuSans-6f" transform="translate(553.662109 0)"/>
      <use xlink:href="#DejaVuSans-72" transform="translate(614.84375 0)"/>
      <use xlink:href="#DejaVuSans-6b" transform="translate(655.957031 0)"/>
     </g>
    </g>
   </g>
   <g id="text_2">
    <g clip-path="url(#p99834933cb)">
     <!-- articulation -->
     <g transform="translate(320.830704 159.452676) scale(0.08 -0.08)">
      <defs>
       <path id="DejaVuSans-69" d="M 603 3500 
L 1178 3500 
L 1178 0 
L 603 0 
L 603 3500 
z
M 603 4863 
L 1178 4863 
L 1178 4134 
L 603 4134 
L 603 4863 
z
" transform="scale(0.015625)"/>
       <path id="DejaVuSans-75" d="M 544 1381 
L 544 3500 
L 1119 3500 
L 1119 1403 
Q 1119 906 1312 657 
Q 1506 409 1894 409 
Q 2359 409 2629 706 
Q 2900 1003 2900 1516 
L 2900 3500 
L 3475 3500 
L 3475 0 
L 2900 0 
L 2900 538 
Q 2691 219 2414 64 
Q 2138 -91 1772 -91 
Q 1169 -91 856 284 
Q 544 659 544 1381 
z
M 1991 3584 
L 1991 3584 
z
" transform="scale(0.015625)"/>
       <path id="DejaVuSans-6c" d="M 603 4863 
L 1178 4863 
L 1178 0 
L 603 0 
L 603 4863 
z
" transform="scale(0.015625)"/>
      </defs>
      <use xlink:href="#DejaVuSans-61"/>
      <use xlink:href="#DejaVuSans-72" transform="translate(61.279297 0)"/>
      <use xlink:href="#DejaVuSans-74" transform="translate(102.392578 0)"/>
      <use xlink:href="#DejaVuSans-69" transform="translate(141.601562 0)"/>
      <use xlink:href="#DejaVuSans-63" transform="translate(169.384766 0)"/>
      <use xlink:href="#DejaVuSans-75" transform="translate(224.365234 0)"/>
      <use xlink:href="#DejaVuSans-6c" transform="translate(287.744141 0)"/>
      <use xlink:href="#DejaVuSans-61" transform="translate(315.527344 0)"/>
      <use xlink:href="#DejaVuSans-74" transform="translate(376.806641 0)"/>
      <use xlink:href="#DejaVuSans-69" transform="translate(416.015625 0)"/>
      <use xlink:href="#DejaVuSans-6f" transform="translate(443.798828 0)"/>
      <use xlink:href="#DejaVuSans-6e" transform="translate(504.980469 0)"/>
     </g>
    </g>
   </g>
   <g id="text_3">
    <g clip-path="url(#p99834933cb)">
     <!-- black_box -->
     <g transform="translate(431.767323 289.562537) scale(0.08 -0.08)">
      <defs>
       <path id="DejaVuSans-62" d="M 3116 1747 
Q 3116 2381 2855 2742 
Q 2594 3103 2138 3103 
Q 1681 3103 1420 2742 
Q 1159 2381 1159 1747 
Q 1159 1113 1420 752 
Q 1681 391 2138 391 
Q 2594 391 2855 752 
Q 3116 1113 3116 1747 
z
M 1159 2969 
Q 1341 3281 1617 3432 
Q 1894 3584 2278 3584 
Q 2916 3584 3314 3078 
Q 3713 2572 3713 1747 
Q 3713 922 3314 415 
Q 2916 -91 2278 -91 
Q 1894 -91 1617 61 
Q 1341 213 1159 525 
L 1159 0 
L 581 0 
L 581 4863 
L 1159 4863 
L 1159 2969 
z
" transform="scale(0.015625)"/>
       <path id="DejaVuSans-78" d="M 3513 3500 
L 2247 1797 
L 3578 0 
L 2900 0 
L 1881 1375 
L 863 0 
L 184 0 
L 1544 1831 
L 300 3500 
L 978 3500 
L 1906 2253 
L 2834 3500 
L 3513 3500 
z
" transform="scale(0.015625)"/>
      </defs>
      <use xlink:href="#DejaVuSans-62"/>
      <use xlink:href="#DejaVuSans-6c" transform="translate(63.476562 0)"/>
      <use xlink:href="#DejaVuSans-61" transform="translate(91.259766 0)"/>
      <use xlink:href="#DejaVuSans-63" transform="translate(152.539062 0)"/>
      <use xlink:href="#DejaVuSans-6b" transform="translate(207.519531 0)"/>
      <use xlink:href="#DejaVuSans-5f" transform="translate(265.429688 0)"/>
      <use xlink:href="#DejaVuSans-62" transform="translate(315.429688 0)"/>
      <use xlink:href="#DejaVuSans-6f" transform="translate(378.90625 0)"/>
      <use xlink:href="#DejaVuSans-78" transform="translate(436.962891 0)"/>
     </g>
    </g>
   </g>
   <g id="text_4">
    <g clip-path="url(#p99834933cb)">
     <!-- centre_of_calculation -->
     <g transform="translate(22.8014 453.435093) scale(0.08 -0.08)">
      <defs>
       <path id="DejaVuSans-66" d="M 2375 4863 
L 2375 4384 
L 1825 4384 
Q 1516 4384 1395 4259 
Q 1275 4134 1275 3809 
L 1275 3500 
L 2222 3500 
L 2222 3053 
L 1275 3053 
L 1275 0 
L 697 0 
L 697 3053 
L 147 3053 
L 147 3500 
L 697 3500 
L 697 3744 
Q 697 4328 969 4595 
Q 1241 4863 1831 4863 
L 2375 4863 
z
" transform="scale(0.015625)"/>
      </defs>
      <use xlink:href="#DejaVuSans-63"/>
      <use xlink:href="#DejaVuSans-65" transform="translate(54.980469 0)"/>
      <use xlink:href="#DejaVuSans-6e" transform="translate(116.503906 0)"/>
      <use xlink:href="#DejaVuSans-74" transform="translate(179.882812 0)"/>
      <use xlink:href="#DejaVuSans-72" transform="translate(219.091797 0)"/>
      <use xlink:href="#DejaVuSans-65" transform="translate(257.955078 0)"/>
      <use xlink:href="#DejaVuSans-5f" transform="translate(319.478516 0)"/>
      <use xlink:href="#DejaVuSans-6f" transform="translate(369.478516 0)"/>
      <use xlink:href="#DejaVuSans-66" transform="translate(430.660156 0)"/>
      <use xlink:href="#DejaVuSans-5f" transform="translate(465.865234 0)"/>
      <use xlink:href="#DejaVuSans-63" transform="translate(515.865234 0)"/>
      <use xlink:href="#DejaVuSans-61" transform="translate(570.845703 0)"/>
      <use xlink:href="#DejaVuSans-6c" transform="translate(632.125 0)"/>
      <use xlink:href="#DejaVuSans-63" transform="translate(659.908203 0)"/>
      <use xlink:href="#DejaVuSans-75" transform="translate(714.888672 0)"/>
      <use xlink:href="#DejaVuSans-6c" transform="translate(778.267578 0)"/>
      <use xlink:href="#DejaVuSans-61" transform="translate(806.050781 0)"/>
      <use xlink:href="#DejaVuSans-74" transform="translate(867.330078 0)"/>
      <use xlink:href="#DejaVuSans-69" transform="translate(906.539062 0)"/>
      <use xlink:href="#DejaVuSans-6f" transform="translate(934.322266 0)"/>
      <use xlink:href="#DejaVuSans-6e" transform="translate(995.503906 0)"/>
     </g>
    </g>
   </g>
   <g id="text_5">
    <g clip-path="url(#p99834933cb)">
     <!-- circulating_reference -->
     <g transform="translate(144.309257 325.359762) scale(0.08 -0.08)">
      <defs>
       <path id="DejaVuSans-67" d="M 2906 1791 
Q 2906 2416 2648 2759 
Q 2391 3103 1925 3103 
Q 1463 3103 1205 2759 
Q 947 2416 947 1791 
Q 947 1169 1205 825 
Q 1463 481 1925 481 
Q 2391 481 2648 825 
Q 2906 1169 2906 1791 
z
M 3481 434 
Q 3481 -459 3084 -895 
Q 2688 -1331 1869 -1331 
Q 1566 -1331 1297 -1286 
Q 1028 -1241 775 -1147 
L 775 -588 
Q 1028 -725 1275 -790 
Q 1522 -856 1778 -856 
Q 2344 -856 2625 -561 
Q 2906 -266 2906 331 
L 2906 616 
Q 2728 306 2450 153 
Q 2172 0 1784 0 
Q 1141 0 747 490 
Q 353 981 353 1791 
Q 353 2603 747 3093 
Q 1141 3584 1784 3584 
Q 2172 3584 2450 3431 
Q 2728 3278 2906 2969 
L 2906 3500 
L 3481 3500 
L 3481 434 
z
" transform="scale(0.015625)"/>
      </defs>
      <use xlink:href="#DejaVuSans-63"/>
      <use xlink:href="#DejaVuSans-69" transform="translate(54.980469 0)"/>
      <use xlink:href="#DejaVuSans-72" transform="translate(82.763672 0)"/>
      <use xlink:href="#DejaVuSans-63" transform="translate(121.626953 0)"/>
      <use xlink:href="#DejaVuSans-75" transform="translate(176.607422 0)"/>
      <use xlink:href="#DejaVuSans-6c" transform="translate(239.986328 0)"/>
      <use xlink:href="#DejaVuSans-61" transform="translate(267.769531 0)"/>
      <use xlink:href="#DejaVuSans-74" transform="translate(329.048828 0)"/>
      <use xlink:href="#DejaVuSans-69" transform="translate(368.257812 0)"/>
      <use xlink:href="#DejaVuSans-6e" transform="translate(396.041016 0)"/>
      <use xlink:href="#DejaVuSans-67" transform="translate(459.419922 0)"/>
      <use xlink:href="#DejaVuSans-5f" transform="translate(522.896484 0)"/>
      <use xlink:href="#DejaVuSans-72" transform="translate(572.896484 0)"/>
      <use xlink:href="#DejaVuSans-65" transform="translate(611.759766 0)"/>
      <use xlink:href="#DejaVuSans-66" transform="translate(673.283203 0)"/>
      <use xlink:href="#DejaVuSans-65" transform="translate(708.488281 0)"/>
      <use xlink:href="#DejaVuSans-72" transform="translate(770.011719 0)"/>
      <use xlink:href="#DejaVuSans-65" transform="translate(808.875 0)"/>
      <use xlink:href="#DejaVuSans-6e" transform="translate(870.398438 0)"/>
      <use xlink:href="#DejaVuSans-63" transform="translate(933.777344 0)"/>
      <use xlink:href="#DejaVuSans-65" transform="translate(988.757812 0)"/>
     </g>
    </g>
   </g>
   <g id="text_6">
    <g clip-path="url(#p99834933cb)">
     <!-- construction -->
     <g transform="translate(95.932035 222.32451) scale(0.08 -0.08)">
      <defs>
       <path id="DejaVuSans-73" d="M 2834 3397 
L 2834 2853 
Q 2591 2978 2328 3040 
Q 2066 3103 1784 3103 
Q 1356 3103 1142 2972 
Q 928 2841 928 2578 
Q 928 2378 1081 2264 
Q 1234 2150 1697 2047 
L 1894 2003 
Q 2506 1872 2764 1633 
Q 3022 1394 3022 966 
Q 3022 478 2636 193 
Q 2250 -91 1575 -91 
Q 1294 -91 989 -36 
Q 684 19 347 128 
L 347 722 
Q 666 556 975 473 
Q 1284 391 1588 391 
Q 1994 391 2212 530 
Q 2431 669 2431 922 
Q 2431 1156 2273 1281 
Q 2116 1406 1581 1522 
L 1381 1569 
Q 847 1681 609 1914 
Q 372 2147 372 2553 
Q 372 3047 722 3315 
Q 1072 3584 1716 3584 
Q 2034 3584 2315 3537 
Q 2597 3491 2834 3397 
z
" transform="scale(0.015625)"/>
      </defs>
      <use xlink:href="#DejaVuSans-63"/>
      <use xlink:href="#DejaVuSans-6f" transform="translate(54.980469 0)"/>
      <use xlink:href="#DejaVuSans-6e" transform="translate(116.162109 0)"/>
      <use xlink:href="#DejaVuSans-73" transform="translate(179.541016 0)"/>
      <use xlink:href="#DejaVuSans-74" transform="translate(231.640625 0)"/>
      <use xlink:href="#DejaVuSans-72" transform="translate(270.849609 0)"/>
      <use xlink:href="#DejaVuSans-75" transform="translate(311.962891 0)"/>
      <use xlink:href="#DejaVuSans-63" transform="translate(375.341797 0)"/>
      <use xlink:href="#DejaVuSans-74" transform="translate(430.322266 0)"/>
      <use xlink:href="#DejaVuSans-69" transform="translate(469.53125 0)"/>
      <use xlink:href="#DejaVuSans-6f" transform="translate(497.314453 0)"/>
      <use xlink:href="#DejaVuSans-6e" transform="translate(558.496094 0)"/>
     </g>
    </g>
   </g>
   <g id="text_7">
    <g clip-path="url(#p99834933cb)">
     <!-- enrollment -->
     <g transform="translate(181.82992 90.565377) scale(0.08 -0.08)">
      <defs>
       <path id="DejaVuSans-6d" d="M 3328 2828 
Q 3544 3216 3844 3400 
Q 4144 3584 4550 3584 
Q 5097 3584 5394 3201 
Q 5691 2819 5691 2113 
L 5691 0 
L 5113 0 
L 5113 2094 
Q 5113 2597 4934 2840 
Q 4756 3084 4391 3084 
Q 3944 3084 3684 2787 
Q 3425 2491 3425 1978 
L 3425 0 
L 2847 0 
L 2847 2094 
Q 2847 2600 2669 2842 
Q 2491 3084 2119 3084 
Q 1678 3084 1418 2786 
Q 1159 2488 1159 1978 
L 1159 0 
L 581 0 
L 581 3500 
L 1159 3500 
L 1159 2956 
Q 1356 3278 1631 3431 
Q 1906 3584 2284 3584 
Q 2666 3584 2933 3390 
Q 3200 3197 3328 2828 
z
" transform="scale(0.015625)"/>
      </defs>
      <use xlink:href="#DejaVuSans-65"/>
      <use xlink:href="#DejaVuSans-6e" transform="translate(61.523438 0)"/>
      <use xlink:href="#DejaVuSans-72" transform="translate(124.902344 0)"/>
      <use xlink:href="#DejaVuSans-6f" transform="translate(163.765625 0)"/>
      <use xlink:href="#DejaVuSans-6c" transform="translate(224.947266 0)"/>
      <use xlink:href="#DejaVuSans-6c" transform="translate(252.730469 0)"/>
      <use xlink:href="#DejaVuSans-6d" transform="translate(280.513672 0)"/>
      <use xlink:href="#DejaVuSans-65" transform="translate(377.925781 0)"/>
      <use xlink:href="#DejaVuSans-6e" transform="translate(439.449219 0)"/>
      <use xlink:href="#DejaVuSans-74" transform="translate(502.828125 0)"/>
     </g>
    </g>
   </g>
   <g id="text_8">
    <g clip-path="url(#p99834933cb)">
     <!-- factish -->
     <g transform="translate(140.183432 156.284287) scale(0.08 -0.08)">
      <defs>
       <path id="DejaVuSans-68" d="M 3513 2113 
L 3513 0 
L 2938 0 
L 2938 2094 
Q 2938 2591 2744 2837 
Q 2550 3084 2163 3084 
Q 1697 3084 1428 2787 
Q 1159 2491 1159 1978 
L 1159 0 
L 581 0 
L 581 4863 
L 1159 4863 
L 1159 2956 
Q 1366 3272 1645 3428 
Q 1925 3584 2291 3584 
Q 2894 3584 3203 3211 
Q 3513 2838 3513 2113 
z
" transform="scale(0.015625)"/>
      </defs>
      <use xlink:href="#DejaVuSans-66"/>
      <use xlink:href="#DejaVuSans-61" transform="translate(35.205078 0)"/>
      <use xlink:href="#DejaVuSans-63" transform="translate(96.484375 0)"/>
      <use xlink:href="#DejaVuSans-74" transform="translate(151.464844 0)"/>
      <use xlink:href="#DejaVuSans-69" transform="translate(190.673828 0)"/>
      <use xlink:href="#DejaVuSans-73" transform="translate(218.457031 0)"/>
      <use xlink:href="#DejaVuSans-68" transform="translate(270.556641 0)"/>
     </g>
    </g>
   </g>
   <g id="text_9">
    <g clip-path="url(#p99834933cb)">
     <!-- immutable_mobile -->
     <g transform="translate(545.7061 54.757407) scale(0.08 -0.08)">
      <use xlink:href="#DejaVuSans-69"/>
      <use xlink:href="#DejaVuSans-6d" transform="translate(27.783203 0)"/>
      <use xlink:href="#DejaVuSans-6d" transform="translate(125.195312 0)"/>
      <use xlink:href="#DejaVuSans-75" transform="translate(222.607422 0)"/>
      <use xlink:href="#DejaVuSans-74" transform="translate(285.986328 0)"/>
      <use xlink:href="#DejaVuSans-61" transform="translate(325.195312 0)"/>
      <use xlink:href="#DejaVuSans-62" transform="translate(386.474609 0)"/>
      <use xlink:href="#DejaVuSans-6c" transform="translate(449.951172 0)"/>
      <use xlink:href="#DejaVuSans-65" transform="translate(477.734375 0)"/>
      <use xlink:href="#DejaVuSans-5f" transform="translate(539.257812 0)"/>
      <use xlink:href="#DejaVuSans-6d" transform="translate(589.257812 0)"/>
      <use xlink:href="#DejaVuSans-6f" transform="translate(686.669922 0)"/>
      <use xlink:href="#DejaVuSans-62" transform="translate(747.851562 0)"/>
      <use xlink:href="#DejaVuSans-69" transform="translate(811.328125 0)"/>
      <use xlink:href="#DejaVuSans-6c" transform="translate(839.111328 0)"/>
      <use xlink:href="#DejaVuSans-65" transform="translate(866.894531 0)"/>
     </g>
    </g>
   </g>
   <g id="text_10">
    <g clip-path="url(#p99834933cb)">
     <!-- inscription -->
     <g transform="translate(458.83334 169.283628) scale(0.08 -0.08)">
      <defs>
       <path id="DejaVuSans-70" d="M 1159 525 
L 1159 -1331 
L 581 -1331 
L 581 3500 
L 1159 3500 
L 1159 2969 
Q 1341 3281 1617 3432 
Q 1894 3584 2278 3584 
Q 2916 3584 3314 3078 
Q 3713 2572 3713 1747 
Q 3713 922 3314 415 
Q 2916 -91 2278 -91 
Q 1894 -91 1617 61 
Q 1341 213 1159 525 
z
M 3116 1747 
Q 3116 2381 2855 2742 
Q 2594 3103 2138 3103 
Q 1681 3103 1420 2742 
Q 1159 2381 1159 1747 
Q 1159 1113 1420 752 
Q 1681 391 2138 391 
Q 2594 391 2855 752 
Q 3116 1113 3116 1747 
z
" transform="scale(0.015625)"/>
      </defs>
      <use xlink:href="#DejaVuSans-69"/>
      <use xlink:href="#DejaVuSans-6e" transform="translate(27.783203 0)"/>
      <use xlink:href="#DejaVuSans-73" transform="translate(91.162109 0)"/>
      <use xlink:href="#DejaVuSans-63" transform="translate(143.261719 0)"/>
      <use xlink:href="#DejaVuSans-72" transform="translate(198.242188 0)"/>
      <use xlink:href="#DejaVuSans-69" transform="translate(239.355469 0)"/>
      <use xlink:href="#DejaVuSans-70" transform="translate(267.138672 0)"/>
      <use xlink:href="#DejaVuSans-74" transform="translate(330.615234 0)"/>
      <use xlink:href="#DejaVuSans-69" transform="translate(369.824219 0)"/>
      <use xlink:href="#DejaVuSans-6f" transform="translate(397.607422 0)"/>
      <use xlink:href="#DejaVuSans-6e" transform="translate(458.789062 0)"/>
     </g>
    </g>
   </g>
   <g id="text_11">
    <g clip-path="url(#p99834933cb)">
     <!-- militar -->
     <g transform="translate(198.483618 209.871289) scale(0.08 -0.08)">
      <use xlink:href="#DejaVuSans-6d"/>
      <use xlink:href="#DejaVuSans-69" transform="translate(97.412109 0)"/>
      <use xlink:href="#DejaVuSans-6c" transform="translate(125.195312 0)"/>
      <use xlink:href="#DejaVuSans-69" transform="translate(152.978516 0)"/>
      <use xlink:href="#DejaVuSans-74" transform="translate(180.761719 0)"/>
      <use xlink:href="#DejaVuSans-61" transform="translate(219.970703 0)"/>
      <use xlink:href="#DejaVuSans-72" transform="translate(281.25 0)"/>
     </g>
    </g>
   </g>
   <g id="text_12">
    <g clip-path="url(#p99834933cb)">
     <!-- network -->
     <g transform="translate(253.552799 322.481501) scale(0.08 -0.08)">
      <use xlink:href="#DejaVuSans-6e"/>
      <use xlink:href="#DejaVuSans-65" transform="translate(63.378906 0)"/>
      <use xlink:href="#DejaVuSans-74" transform="translate(124.902344 0)"/>
      <use xlink:href="#DejaVuSans-77" transform="translate(164.111328 0)"/>
      <use xlink:href="#DejaVuSans-6f" transform="translate(245.898438 0)"/>
      <use xlink:href="#DejaVuSans-72" transform="translate(307.080078 0)"/>
      <use xlink:href="#DejaVuSans-6b" transform="translate(348.193359 0)"/>
     </g>
    </g>
   </g>
   <g id="text_13">
    <g clip-path="url(#p99834933cb)">
     <!-- proposition -->
     <g transform="translate(285.939009 107.772391) scale(0.08 -0.08)">
      <use xlink:href="#DejaVuSans-70"/>
      <use xlink:href="#DejaVuSans-72" transform="translate(63.476562 0)"/>
      <use xlink:href="#DejaVuSans-6f" transform="translate(102.339844 0)"/>
      <use xlink:href="#DejaVuSans-70" transform="translate(163.521484 0)"/>
      <use xlink:href="#DejaVuSans-6f" transform="translate(226.998047 0)"/>
      <use xlink:href="#DejaVuSans-73" transform="translate(288.179688 0)"/>
      <use xlink:href="#DejaVuSans-69" transform="translate(340.279297 0)"/>
      <use xlink:href="#DejaVuSans-74" transform="translate(368.0625 0)"/>
      <use xlink:href="#DejaVuSans-69" transform="translate(407.271484 0)"/>
      <use xlink:href="#DejaVuSans-6f" transform="translate(435.054688 0)"/>
      <use xlink:href="#DejaVuSans-6e" transform="translate(496.236328 0)"/>
     </g>
    </g>
   </g>
   <g id="text_14">
    <g clip-path="url(#p99834933cb)">
     <!-- textil -->
     <g transform="translate(192.132651 259.202388) scale(0.08 -0.08)">
      <use xlink:href="#DejaVuSans-74"/>
      <use xlink:href="#DejaVuSans-65" transform="translate(39.208984 0)"/>
      <use xlink:href="#DejaVuSans-78" transform="translate(98.982422 0)"/>
      <use xlink:href="#DejaVuSans-74" transform="translate(158.162109 0)"/>
      <use xlink:href="#DejaVuSans-69" transform="translate(197.371094 0)"/>
      <use xlink:href="#DejaVuSans-6c" transform="translate(225.154297 0)"/>
     </g>
    </g>
   </g>
   <g id="text_15">
    <g clip-path="url(#p99834933cb)">
     <!-- topologia -->
     <g transform="translate(237.412861 225.564026) scale(0.08 -0.08)">
      <use xlink:href="#DejaVuSans-74"/>
      <use xlink:href="#DejaVuSans-6f" transform="translate(39.208984 0)"/>
      <use xlink:href="#DejaVuSans-70" transform="translate(100.390625 0)"/>
      <use xlink:href="#DejaVuSans-6f" transform="translate(163.867188 0)"/>
      <use xlink:href="#DejaVuSans-6c" transform="translate(225.048828 0)"/>
      <use xlink:href="#DejaVuSans-6f" transform="translate(252.832031 0)"/>
      <use xlink:href="#DejaVuSans-67" transform="translate(314.013672 0)"/>
      <use xlink:href="#DejaVuSans-69" transform="translate(377.490234 0)"/>
      <use xlink:href="#DejaVuSans-61" transform="translate(405.273438 0)"/>
     </g>
    </g>
   </g>
   <g id="text_16">
    <g clip-path="url(#p99834933cb)">
     <!-- translation -->
     <g transform="translate(300.522677 251.837233) scale(0.08 -0.08)">
      <use xlink:href="#DejaVuSans-74"/>
      <use xlink:href="#DejaVuSans-72" transform="translate(39.208984 0)"/>
      <use xlink:href="#DejaVuSans-61" transform="translate(80.322266 0)"/>
      <use xlink:href="#DejaVuSans-6e" transform="translate(141.601562 0)"/>
      <use xlink:href="#DejaVuSans-73" transform="translate(204.980469 0)"/>
      <use xlink:href="#DejaVuSans-6c" transform="translate(257.080078 0)"/>
      <use xlink:href="#DejaVuSans-61" transform="translate(284.863281 0)"/>
      <use xlink:href="#DejaVuSans-74" transform="translate(346.142578 0)"/>
      <use xlink:href="#DejaVuSans-69" transform="translate(385.351562 0)"/>
      <use xlink:href="#DejaVuSans-6f" transform="translate(413.134766 0)"/>
      <use xlink:href="#DejaVuSans-6e" transform="translate(474.316406 0)"/>
     </g>
    </g>
   </g>
  </g>
 </g>
 <defs>
  <clipPath id="p99834933cb">
   <rect x="10.8" y="10.8" width="626.4" height="482.4"/>
  </clipPath>
 </defs>
</svg>
