<?xml version="1.0" encoding="utf-8" standalone="no"?>
<!DOCTYPE svg PUBLIC "-//W3C//DTD SVG 1.1//EN"
  "http://www.w3.org/Graphics/SVG/1.1/DTD/svg11.dtd">
<svg xmlns:xlink="http://www.w3.org/1999/xlink" width="648pt" height="655.2pt" viewBox="0 0 648 655.2" xmlns="http://www.w3.org/2000/svg" version="1.1">
 <metadata>
  <rdf:RDF xmlns:dc="http://purl.org/dc/elements/1.1/" xmlns:cc="http://creativecommons.org/ns#" xmlns:rdf="http://www.w3.org/1999/02/22-rdf-syntax-ns#">
   <cc:Work>
    <dc:type rdf:resource="http://purl.org/dc/dcmitype/StillImage"/>
    <dc:date>2026-05-16T13:34:02.909341</dc:date>
    <dc:format>image/svg+xml</dc:format>
    <dc:creator>
     <cc:Agent>
      <dc:title>Matplotlib v3.10.9, https://matplotlib.org/</dc:title>
     </cc:Agent>
    </dc:creator>
   </cc:Work>
  </rdf:RDF>
 </metadata>
 <defs>
  <style type="text/css">*{stroke-linejoin: round; stroke-linecap: butt}</style>
 </defs>
 <g id="figure_1">
  <g id="patch_1">
   <path d="M 0 655.2 
L 648 655.2 
L 648 0 
L 0 0 
z
" style="fill: #ffffff"/>
  </g>
  <g id="axes_1">
   <g id="patch_2">
    <path d="M 115.63 612.88 
L 637.2 612.88 
L 637.2 10.8 
L 115.63 10.8 
z
" style="fill: #ffffff"/>
   </g>
   <g id="patch_3">
    <path d="M 115.63 585.512727 
L 116.596407 585.512727 
L 116.596407 568.540775 
L 115.63 568.540775 
z
" clip-path="url(#pe85eab4ed0)" style="fill: #4c72b0"/>
   </g>
   <g id="patch_4">
    <path d="M 115.63 564.297787 
L 116.596407 564.297787 
L 116.596407 547.325835 
L 115.63 547.325835 
z
" clip-path="url(#pe85eab4ed0)" style="fill: #4c72b0"/>
   </g>
   <g id="patch_5">
    <path d="M 115.63 543.082847 
L 119.495629 543.082847 
L 119.495629 526.110895 
L 115.63 526.110895 
z
" clip-path="url(#pe85eab4ed0)" style="fill: #4c72b0"/>
   </g>
   <g id="patch_6">
    <path d="M 115.63 521.867907 
L 126.26048 521.867907 
L 126.26048 504.895955 
L 115.63 504.895955 
z
" clip-path="url(#pe85eab4ed0)" style="fill: #4c72b0"/>
   </g>
   <g id="patch_7">
    <path d="M 115.63 500.652967 
L 132.058923 500.652967 
L 132.058923 483.681015 
L 115.63 483.681015 
z
" clip-path="url(#pe85eab4ed0)" style="fill: #4c72b0"/>
   </g>
   <g id="patch_8">
    <path d="M 115.63 479.438027 
L 134.958145 479.438027 
L 134.958145 462.466075 
L 115.63 462.466075 
z
" clip-path="url(#pe85eab4ed0)" style="fill: #4c72b0"/>
   </g>
   <g id="patch_9">
    <path d="M 115.63 458.223087 
L 134.958145 458.223087 
L 134.958145 441.251135 
L 115.63 441.251135 
z
" clip-path="url(#pe85eab4ed0)" style="fill: #4c72b0"/>
   </g>
   <g id="patch_10">
    <path d="M 115.63 437.008147 
L 136.89096 437.008147 
L 136.89096 420.036195 
L 115.63 420.036195 
z
" clip-path="url(#pe85eab4ed0)" style="fill: #dd8452"/>
   </g>
   <g id="patch_11">
    <path d="M 115.63 415.793206 
L 154.286291 415.793206 
L 154.286291 398.821254 
L 115.63 398.821254 
z
" clip-path="url(#pe85eab4ed0)" style="fill: #4c72b0"/>
   </g>
   <g id="patch_12">
    <path d="M 115.63 394.578266 
L 165.883178 394.578266 
L 165.883178 377.606314 
L 115.63 377.606314 
z
" clip-path="url(#pe85eab4ed0)" style="fill: #dd8452"/>
   </g>
   <g id="patch_13">
    <path d="M 115.63 373.363326 
L 169.748807 373.363326 
L 169.748807 356.391374 
L 115.63 356.391374 
z
" clip-path="url(#pe85eab4ed0)" style="fill: #4c72b0"/>
   </g>
   <g id="patch_14">
    <path d="M 115.63 352.148386 
L 184.244916 352.148386 
L 184.244916 335.176434 
L 115.63 335.176434 
z
" clip-path="url(#pe85eab4ed0)" style="fill: #dd8452"/>
   </g>
   <g id="patch_15">
    <path d="M 115.63 330.933446 
L 187.144137 330.933446 
L 187.144137 313.961494 
L 115.63 313.961494 
z
" clip-path="url(#pe85eab4ed0)" style="fill: #4c72b0"/>
   </g>
   <g id="patch_16">
    <path d="M 115.63 309.718506 
L 196.80821 309.718506 
L 196.80821 292.746554 
L 115.63 292.746554 
z
" clip-path="url(#pe85eab4ed0)" style="fill: #dd8452"/>
   </g>
   <g id="patch_17">
    <path d="M 115.63 288.503566 
L 204.539468 288.503566 
L 204.539468 271.531614 
L 115.63 271.531614 
z
" clip-path="url(#pe85eab4ed0)" style="fill: #dd8452"/>
   </g>
   <g id="patch_18">
    <path d="M 115.63 267.288626 
L 223.867613 267.288626 
L 223.867613 250.316674 
L 115.63 250.316674 
z
" clip-path="url(#pe85eab4ed0)" style="fill: #dd8452"/>
   </g>
   <g id="patch_19">
    <path d="M 115.63 246.073686 
L 240.296537 246.073686 
L 240.296537 229.101734 
L 115.63 229.101734 
z
" clip-path="url(#pe85eab4ed0)" style="fill: #4c72b0"/>
   </g>
   <g id="patch_20">
    <path d="M 115.63 224.858746 
L 277.020013 224.858746 
L 277.020013 207.886794 
L 115.63 207.886794 
z
" clip-path="url(#pe85eab4ed0)" style="fill: #dd8452"/>
   </g>
   <g id="patch_21">
    <path d="M 115.63 203.643805 
L 309.87786 203.643805 
L 309.87786 186.671853 
L 115.63 186.671853 
z
" clip-path="url(#pe85eab4ed0)" style="fill: #4c72b0"/>
   </g>
   <g id="patch_22">
    <path d="M 115.63 182.428865 
L 335.004449 182.428865 
L 335.004449 165.456913 
L 115.63 165.456913 
z
" clip-path="url(#pe85eab4ed0)" style="fill: #dd8452"/>
   </g>
   <g id="patch_23">
    <path d="M 115.63 161.213925 
L 362.063852 161.213925 
L 362.063852 144.241973 
L 115.63 144.241973 
z
" clip-path="url(#pe85eab4ed0)" style="fill: #4c72b0"/>
   </g>
   <g id="patch_24">
    <path d="M 115.63 139.998985 
L 382.358405 139.998985 
L 382.358405 123.027033 
L 115.63 123.027033 
z
" clip-path="url(#pe85eab4ed0)" style="fill: #dd8452"/>
   </g>
   <g id="patch_25">
    <path d="M 115.63 118.784045 
L 387.190441 118.784045 
L 387.190441 101.812093 
L 115.63 101.812093 
z
" clip-path="url(#pe85eab4ed0)" style="fill: #dd8452"/>
   </g>
   <g id="patch_26">
    <path d="M 115.63 97.569105 
L 499.293684 97.569105 
L 499.293684 80.597153 
L 115.63 80.597153 
z
" clip-path="url(#pe85eab4ed0)" style="fill: #dd8452"/>
   </g>
   <g id="patch_27">
    <path d="M 115.63 76.354165 
L 534.084345 76.354165 
L 534.084345 59.382213 
L 115.63 59.382213 
z
" clip-path="url(#pe85eab4ed0)" style="fill: #dd8452"/>
   </g>
   <g id="patch_28">
    <path d="M 115.63 55.139225 
L 612.363333 55.139225 
L 612.363333 38.167273 
L 115.63 38.167273 
z
" clip-path="url(#pe85eab4ed0)" style="fill: #4c72b0"/>
   </g>
   <g id="matplotlib.axis_1">
    <g id="xtick_1">
     <g id="line2d_1">
      <defs>
       <path id="m49c5679105" d="M 0 0 
L 0 3.5 
" style="stroke: #000000; stroke-width: 0.8"/>
      </defs>
      <g>
       <use xlink:href="#m49c5679105" x="115.63" y="612.88" style="stroke: #000000; stroke-width: 0.8"/>
      </g>
     </g>
     <g id="text_1">
      <!-- 0 -->
      <g transform="translate(112.44875 627.478437) scale(0.1 -0.1)">
       <defs>
        <path id="DejaVuSans-30" d="M 2034 4250 
Q 1547 4250 1301 3770 
Q 1056 3291 1056 2328 
Q 1056 1369 1301 889 
Q 1547 409 2034 409 
Q 2525 409 2770 889 
Q 3016 1369 3016 2328 
Q 3016 3291 2770 3770 
Q 2525 4250 2034 4250 
z
M 2034 4750 
Q 2819 4750 3233 4129 
Q 3647 3509 3647 2328 
Q 3647 1150 3233 529 
Q 2819 -91 2034 -91 
Q 1250 -91 836 529 
Q 422 1150 422 2328 
Q 422 3509 836 4129 
Q 1250 4750 2034 4750 
z
" transform="scale(0.015625)"/>
       </defs>
       <use xlink:href="#DejaVuSans-30"/>
      </g>
     </g>
    </g>
    <g id="xtick_2">
     <g id="line2d_2">
      <g>
       <use xlink:href="#m49c5679105" x="212.270726" y="612.88" style="stroke: #000000; stroke-width: 0.8"/>
      </g>
     </g>
     <g id="text_2">
      <!-- 100 -->
      <g transform="translate(202.726976 627.478437) scale(0.1 -0.1)">
       <defs>
        <path id="DejaVuSans-31" d="M 794 531 
L 1825 531 
L 1825 4091 
L 703 3866 
L 703 4441 
L 1819 4666 
L 2450 4666 
L 2450 531 
L 3481 531 
L 3481 0 
L 794 0 
L 794 531 
z
" transform="scale(0.015625)"/>
       </defs>
       <use xlink:href="#DejaVuSans-31"/>
       <use xlink:href="#DejaVuSans-30" transform="translate(63.623047 0)"/>
       <use xlink:href="#DejaVuSans-30" transform="translate(127.246094 0)"/>
      </g>
     </g>
    </g>
    <g id="xtick_3">
     <g id="line2d_3">
      <g>
       <use xlink:href="#m49c5679105" x="308.911453" y="612.88" style="stroke: #000000; stroke-width: 0.8"/>
      </g>
     </g>
     <g id="text_3">
      <!-- 200 -->
      <g transform="translate(299.367703 627.478437) scale(0.1 -0.1)">
       <defs>
        <path id="DejaVuSans-32" d="M 1228 531 
L 3431 531 
L 3431 0 
L 469 0 
L 469 531 
Q 828 903 1448 1529 
Q 2069 2156 2228 2338 
Q 2531 2678 2651 2914 
Q 2772 3150 2772 3378 
Q 2772 3750 2511 3984 
Q 2250 4219 1831 4219 
Q 1534 4219 1204 4116 
Q 875 4013 500 3803 
L 500 4441 
Q 881 4594 1212 4672 
Q 1544 4750 1819 4750 
Q 2544 4750 2975 4387 
Q 3406 4025 3406 3419 
Q 3406 3131 3298 2873 
Q 3191 2616 2906 2266 
Q 2828 2175 2409 1742 
Q 1991 1309 1228 531 
z
" transform="scale(0.015625)"/>
       </defs>
       <use xlink:href="#DejaVuSans-32"/>
       <use xlink:href="#DejaVuSans-30" transform="translate(63.623047 0)"/>
       <use xlink:href="#DejaVuSans-30" transform="translate(127.246094 0)"/>
      </g>
     </g>
    </g>
    <g id="xtick_4">
     <g id="line2d_4">
      <g>
       <use xlink:href="#m49c5679105" x="405.552179" y="612.88" style="stroke: #000000; stroke-width: 0.8"/>
      </g>
     </g>
     <g id="text_4">
      <!-- 300 -->
      <g transform="translate(396.008429 627.478437) scale(0.1 -0.1)">
       <defs>
        <path id="DejaVuSans-33" d="M 2597 2516 
Q 3050 2419 3304 2112 
Q 3559 1806 3559 1356 
Q 3559 666 3084 287 
Q 2609 -91 1734 -91 
Q 1441 -91 1130 -33 
Q 819 25 488 141 
L 488 750 
Q 750 597 1062 519 
Q 1375 441 1716 441 
Q 2309 441 2620 675 
Q 2931 909 2931 1356 
Q 2931 1769 2642 2001 
Q 2353 2234 1838 2234 
L 1294 2234 
L 1294 2753 
L 1863 2753 
Q 2328 2753 2575 2939 
Q 2822 3125 2822 3475 
Q 2822 3834 2567 4026 
Q 2313 4219 1838 4219 
Q 1578 4219 1281 4162 
Q 984 4106 628 3988 
L 628 4550 
Q 988 4650 1302 4700 
Q 1616 4750 1894 4750 
Q 2613 4750 3031 4423 
Q 3450 4097 3450 3541 
Q 3450 3153 3228 2886 
Q 3006 2619 2597 2516 
z
" transform="scale(0.015625)"/>
       </defs>
       <use xlink:href="#DejaVuSans-33"/>
       <use xlink:href="#DejaVuSans-30" transform="translate(63.623047 0)"/>
       <use xlink:href="#DejaVuSans-30" transform="translate(127.246094 0)"/>
      </g>
     </g>
    </g>
    <g id="xtick_5">
     <g id="line2d_5">
      <g>
       <use xlink:href="#m49c5679105" x="502.192905" y="612.88" style="stroke: #000000; stroke-width: 0.8"/>
      </g>
     </g>
     <g id="text_5">
      <!-- 400 -->
      <g transform="translate(492.649155 627.478437) scale(0.1 -0.1)">
       <defs>
        <path id="DejaVuSans-34" d="M 2419 4116 
L 825 1625 
L 2419 1625 
L 2419 4116 
z
M 2253 4666 
L 3047 4666 
L 3047 1625 
L 3713 1625 
L 3713 1100 
L 3047 1100 
L 3047 0 
L 2419 0 
L 2419 1100 
L 313 1100 
L 313 1709 
L 2253 4666 
z
" transform="scale(0.015625)"/>
       </defs>
       <use xlink:href="#DejaVuSans-34"/>
       <use xlink:href="#DejaVuSans-30" transform="translate(63.623047 0)"/>
       <use xlink:href="#DejaVuSans-30" transform="translate(127.246094 0)"/>
      </g>
     </g>
    </g>
    <g id="xtick_6">
     <g id="line2d_6">
      <g>
       <use xlink:href="#m49c5679105" x="598.833632" y="612.88" style="stroke: #000000; stroke-width: 0.8"/>
      </g>
     </g>
     <g id="text_6">
      <!-- 500 -->
      <g transform="translate(589.289882 627.478437) scale(0.1 -0.1)">
       <defs>
        <path id="DejaVuSans-35" d="M 691 4666 
L 3169 4666 
L 3169 4134 
L 1269 4134 
L 1269 2991 
Q 1406 3038 1543 3061 
Q 1681 3084 1819 3084 
Q 2600 3084 3056 2656 
Q 3513 2228 3513 1497 
Q 3513 744 3044 326 
Q 2575 -91 1722 -91 
Q 1428 -91 1123 -41 
Q 819 9 494 109 
L 494 744 
Q 775 591 1075 516 
Q 1375 441 1709 441 
Q 2250 441 2565 725 
Q 2881 1009 2881 1497 
Q 2881 1984 2565 2268 
Q 2250 2553 1709 2553 
Q 1456 2553 1204 2497 
Q 953 2441 691 2322 
L 691 4666 
z
" transform="scale(0.015625)"/>
       </defs>
       <use xlink:href="#DejaVuSans-35"/>
       <use xlink:href="#DejaVuSans-30" transform="translate(63.623047 0)"/>
       <use xlink:href="#DejaVuSans-30" transform="translate(127.246094 0)"/>
      </g>
     </g>
    </g>
    <g id="text_7">
     <!-- Ocorrências válidas (após exclusões) -->
     <g transform="translate(283.978281 641.556562) scale(0.1 -0.1)">
      <defs>
       <path id="DejaVuSans-4f" d="M 2522 4238 
Q 1834 4238 1429 3725 
Q 1025 3213 1025 2328 
Q 1025 1447 1429 934 
Q 1834 422 2522 422 
Q 3209 422 3611 934 
Q 4013 1447 4013 2328 
Q 4013 3213 3611 3725 
Q 3209 4238 2522 4238 
z
M 2522 4750 
Q 3503 4750 4090 4092 
Q 4678 3434 4678 2328 
Q 4678 1225 4090 567 
Q 3503 -91 2522 -91 
Q 1538 -91 948 565 
Q 359 1222 359 2328 
Q 359 3434 948 4092 
Q 1538 4750 2522 4750 
z
" transform="scale(0.015625)"/>
       <path id="DejaVuSans-63" d="M 3122 3366 
L 3122 2828 
Q 2878 2963 2633 3030 
Q 2388 3097 2138 3097 
Q 1578 3097 1268 2742 
Q 959 2388 959 1747 
Q 959 1106 1268 751 
Q 1578 397 2138 397 
Q 2388 397 2633 464 
Q 2878 531 3122 666 
L 3122 134 
Q 2881 22 2623 -34 
Q 2366 -91 2075 -91 
Q 1284 -91 818 406 
Q 353 903 353 1747 
Q 353 2603 823 3093 
Q 1294 3584 2113 3584 
Q 2378 3584 2631 3529 
Q 2884 3475 3122 3366 
z
" transform="scale(0.015625)"/>
       <path id="DejaVuSans-6f" d="M 1959 3097 
Q 1497 3097 1228 2736 
Q 959 2375 959 1747 
Q 959 1119 1226 758 
Q 1494 397 1959 397 
Q 2419 397 2687 759 
Q 2956 1122 2956 1747 
Q 2956 2369 2687 2733 
Q 2419 3097 1959 3097 
z
M 1959 3584 
Q 2709 3584 3137 3096 
Q 3566 2609 3566 1747 
Q 3566 888 3137 398 
Q 2709 -91 1959 -91 
Q 1206 -91 779 398 
Q 353 888 353 1747 
Q 353 2609 779 3096 
Q 1206 3584 1959 3584 
z
" transform="scale(0.015625)"/>
       <path id="DejaVuSans-72" d="M 2631 2963 
Q 2534 3019 2420 3045 
Q 2306 3072 2169 3072 
Q 1681 3072 1420 2755 
Q 1159 2438 1159 1844 
L 1159 0 
L 581 0 
L 581 3500 
L 1159 3500 
L 1159 2956 
Q 1341 3275 1631 3429 
Q 1922 3584 2338 3584 
Q 2397 3584 2469 3576 
Q 2541 3569 2628 3553 
L 2631 2963 
z
" transform="scale(0.015625)"/>
       <path id="DejaVuSans-ea" d="M 3597 1894 
L 3597 1613 
L 953 1613 
Q 991 1019 1311 708 
Q 1631 397 2203 397 
Q 2534 397 2845 478 
Q 3156 559 3463 722 
L 3463 178 
Q 3153 47 2828 -22 
Q 2503 -91 2169 -91 
Q 1331 -91 842 396 
Q 353 884 353 1716 
Q 353 2575 817 3079 
Q 1281 3584 2069 3584 
Q 2775 3584 3186 3129 
Q 3597 2675 3597 1894 
z
M 3022 2063 
Q 3016 2534 2758 2815 
Q 2500 3097 2075 3097 
Q 1594 3097 1305 2825 
Q 1016 2553 972 2059 
L 3022 2063 
z
M 1801 5119 
L 2263 5119 
L 3029 3944 
L 2595 3944 
L 2032 4709 
L 1470 3944 
L 1035 3944 
L 1801 5119 
z
" transform="scale(0.015625)"/>
       <path id="DejaVuSans-6e" d="M 3513 2113 
L 3513 0 
L 2938 0 
L 2938 2094 
Q 2938 2591 2744 2837 
Q 2550 3084 2163 3084 
Q 1697 3084 1428 2787 
Q 1159 2491 1159 1978 
L 1159 0 
L 581 0 
L 581 3500 
L 1159 3500 
L 1159 2956 
Q 1366 3272 1645 3428 
Q 1925 3584 2291 3584 
Q 2894 3584 3203 3211 
Q 3513 2838 3513 2113 
z
" transform="scale(0.015625)"/>
       <path id="DejaVuSans-69" d="M 603 3500 
L 1178 3500 
L 1178 0 
L 603 0 
L 603 3500 
z
M 603 4863 
L 1178 4863 
L 1178 4134 
L 603 4134 
L 603 4863 
z
" transform="scale(0.015625)"/>
       <path id="DejaVuSans-61" d="M 2194 1759 
Q 1497 1759 1228 1600 
Q 959 1441 959 1056 
Q 959 750 1161 570 
Q 1363 391 1709 391 
Q 2188 391 2477 730 
Q 2766 1069 2766 1631 
L 2766 1759 
L 2194 1759 
z
M 3341 1997 
L 3341 0 
L 2766 0 
L 2766 531 
Q 2569 213 2275 61 
Q 1981 -91 1556 -91 
Q 1019 -91 701 211 
Q 384 513 384 1019 
Q 384 1609 779 1909 
Q 1175 2209 1959 2209 
L 2766 2209 
L 2766 2266 
Q 2766 2663 2505 2880 
Q 2244 3097 1772 3097 
Q 1472 3097 1187 3025 
Q 903 2953 641 2809 
L 641 3341 
Q 956 3463 1253 3523 
Q 1550 3584 1831 3584 
Q 2591 3584 2966 3190 
Q 3341 2797 3341 1997 
z
" transform="scale(0.015625)"/>
       <path id="DejaVuSans-73" d="M 2834 3397 
L 2834 2853 
Q 2591 2978 2328 3040 
Q 2066 3103 1784 3103 
Q 1356 3103 1142 2972 
Q 928 2841 928 2578 
Q 928 2378 1081 2264 
Q 1234 2150 1697 2047 
L 1894 2003 
Q 2506 1872 2764 1633 
Q 3022 1394 3022 966 
Q 3022 478 2636 193 
Q 2250 -91 1575 -91 
Q 1294 -91 989 -36 
Q 684 19 347 128 
L 347 722 
Q 666 556 975 473 
Q 1284 391 1588 391 
Q 1994 391 2212 530 
Q 2431 669 2431 922 
Q 2431 1156 2273 1281 
Q 2116 1406 1581 1522 
L 1381 1569 
Q 847 1681 609 1914 
Q 372 2147 372 2553 
Q 372 3047 722 3315 
Q 1072 3584 1716 3584 
Q 2034 3584 2315 3537 
Q 2597 3491 2834 3397 
z
" transform="scale(0.015625)"/>
       <path id="DejaVuSans-20" transform="scale(0.015625)"/>
       <path id="DejaVuSans-76" d="M 191 3500 
L 800 3500 
L 1894 563 
L 2988 3500 
L 3597 3500 
L 2284 0 
L 1503 0 
L 191 3500 
z
" transform="scale(0.015625)"/>
       <path id="DejaVuSans-e1" d="M 2194 1759 
Q 1497 1759 1228 1600 
Q 959 1441 959 1056 
Q 959 750 1161 570 
Q 1363 391 1709 391 
Q 2188 391 2477 730 
Q 2766 1069 2766 1631 
L 2766 1759 
L 2194 1759 
z
M 3341 1997 
L 3341 0 
L 2766 0 
L 2766 531 
Q 2569 213 2275 61 
Q 1981 -91 1556 -91 
Q 1019 -91 701 211 
Q 384 513 384 1019 
Q 384 1609 779 1909 
Q 1175 2209 1959 2209 
L 2766 2209 
L 2766 2266 
Q 2766 2663 2505 2880 
Q 2244 3097 1772 3097 
Q 1472 3097 1187 3025 
Q 903 2953 641 2809 
L 641 3341 
Q 956 3463 1253 3523 
Q 1550 3584 1831 3584 
Q 2591 3584 2966 3190 
Q 3341 2797 3341 1997 
z
M 2290 5119 
L 2912 5119 
L 1894 3944 
L 1415 3944 
L 2290 5119 
z
" transform="scale(0.015625)"/>
       <path id="DejaVuSans-6c" d="M 603 4863 
L 1178 4863 
L 1178 0 
L 603 0 
L 603 4863 
z
" transform="scale(0.015625)"/>
       <path id="DejaVuSans-64" d="M 2906 2969 
L 2906 4863 
L 3481 4863 
L 3481 0 
L 2906 0 
L 2906 525 
Q 2725 213 2448 61 
Q 2172 -91 1784 -91 
Q 1150 -91 751 415 
Q 353 922 353 1747 
Q 353 2572 751 3078 
Q 1150 3584 1784 3584 
Q 2172 3584 2448 3432 
Q 2725 3281 2906 2969 
z
M 947 1747 
Q 947 1113 1208 752 
Q 1469 391 1925 391 
Q 2381 391 2643 752 
Q 2906 1113 2906 1747 
Q 2906 2381 2643 2742 
Q 2381 3103 1925 3103 
Q 1469 3103 1208 2742 
Q 947 2381 947 1747 
z
" transform="scale(0.015625)"/>
       <path id="DejaVuSans-28" d="M 1984 4856 
Q 1566 4138 1362 3434 
Q 1159 2731 1159 2009 
Q 1159 1288 1364 580 
Q 1569 -128 1984 -844 
L 1484 -844 
Q 1016 -109 783 600 
Q 550 1309 550 2009 
Q 550 2706 781 3412 
Q 1013 4119 1484 4856 
L 1984 4856 
z
" transform="scale(0.015625)"/>
       <path id="DejaVuSans-70" d="M 1159 525 
L 1159 -1331 
L 581 -1331 
L 581 3500 
L 1159 3500 
L 1159 2969 
Q 1341 3281 1617 3432 
Q 1894 3584 2278 3584 
Q 2916 3584 3314 3078 
Q 3713 2572 3713 1747 
Q 3713 922 3314 415 
Q 2916 -91 2278 -91 
Q 1894 -91 1617 61 
Q 1341 213 1159 525 
z
M 3116 1747 
Q 3116 2381 2855 2742 
Q 2594 3103 2138 3103 
Q 1681 3103 1420 2742 
Q 1159 2381 1159 1747 
Q 1159 1113 1420 752 
Q 1681 391 2138 391 
Q 2594 391 2855 752 
Q 3116 1113 3116 1747 
z
" transform="scale(0.015625)"/>
       <path id="DejaVuSans-f3" d="M 1959 3097 
Q 1497 3097 1228 2736 
Q 959 2375 959 1747 
Q 959 1119 1226 758 
Q 1494 397 1959 397 
Q 2419 397 2687 759 
Q 2956 1122 2956 1747 
Q 2956 2369 2687 2733 
Q 2419 3097 1959 3097 
z
M 1959 3584 
Q 2709 3584 3137 3096 
Q 3566 2609 3566 1747 
Q 3566 888 3137 398 
Q 2709 -91 1959 -91 
Q 1206 -91 779 398 
Q 353 888 353 1747 
Q 353 2609 779 3096 
Q 1206 3584 1959 3584 
z
M 2394 5119 
L 3016 5119 
L 1998 3944 
L 1519 3944 
L 2394 5119 
z
" transform="scale(0.015625)"/>
       <path id="DejaVuSans-65" d="M 3597 1894 
L 3597 1613 
L 953 1613 
Q 991 1019 1311 708 
Q 1631 397 2203 397 
Q 2534 397 2845 478 
Q 3156 559 3463 722 
L 3463 178 
Q 3153 47 2828 -22 
Q 2503 -91 2169 -91 
Q 1331 -91 842 396 
Q 353 884 353 1716 
Q 353 2575 817 3079 
Q 1281 3584 2069 3584 
Q 2775 3584 3186 3129 
Q 3597 2675 3597 1894 
z
M 3022 2063 
Q 3016 2534 2758 2815 
Q 2500 3097 2075 3097 
Q 1594 3097 1305 2825 
Q 1016 2553 972 2059 
L 3022 2063 
z
" transform="scale(0.015625)"/>
       <path id="DejaVuSans-78" d="M 3513 3500 
L 2247 1797 
L 3578 0 
L 2900 0 
L 1881 1375 
L 863 0 
L 184 0 
L 1544 1831 
L 300 3500 
L 978 3500 
L 1906 2253 
L 2834 3500 
L 3513 3500 
z
" transform="scale(0.015625)"/>
       <path id="DejaVuSans-75" d="M 544 1381 
L 544 3500 
L 1119 3500 
L 1119 1403 
Q 1119 906 1312 657 
Q 1506 409 1894 409 
Q 2359 409 2629 706 
Q 2900 1003 2900 1516 
L 2900 3500 
L 3475 3500 
L 3475 0 
L 2900 0 
L 2900 538 
Q 2691 219 2414 64 
Q 2138 -91 1772 -91 
Q 1169 -91 856 284 
Q 544 659 544 1381 
z
M 1991 3584 
L 1991 3584 
z
" transform="scale(0.015625)"/>
       <path id="DejaVuSans-f5" d="M 1959 3097 
Q 1497 3097 1228 2736 
Q 959 2375 959 1747 
Q 959 1119 1226 758 
Q 1494 397 1959 397 
Q 2419 397 2687 759 
Q 2956 1122 2956 1747 
Q 2956 2369 2687 2733 
Q 2419 3097 1959 3097 
z
M 1959 3584 
Q 2709 3584 3137 3096 
Q 3566 2609 3566 1747 
Q 3566 888 3137 398 
Q 2709 -91 1959 -91 
Q 1206 -91 779 398 
Q 353 888 353 1747 
Q 353 2609 779 3096 
Q 1206 3584 1959 3584 
z
M 1948 4281 
L 1769 4453 
Q 1701 4516 1649 4545 
Q 1598 4575 1557 4575 
Q 1438 4575 1382 4461 
Q 1326 4347 1319 4091 
L 929 4091 
Q 935 4513 1094 4742 
Q 1254 4972 1538 4972 
Q 1657 4972 1757 4928 
Q 1857 4884 1973 4781 
L 2151 4609 
Q 2219 4547 2271 4517 
Q 2323 4488 2363 4488 
Q 2482 4488 2538 4602 
Q 2594 4716 2601 4972 
L 2991 4972 
Q 2985 4550 2825 4320 
Q 2666 4091 2382 4091 
Q 2263 4091 2163 4134 
Q 2063 4178 1948 4281 
z
" transform="scale(0.015625)"/>
       <path id="DejaVuSans-29" d="M 513 4856 
L 1013 4856 
Q 1481 4119 1714 3412 
Q 1947 2706 1947 2009 
Q 1947 1309 1714 600 
Q 1481 -109 1013 -844 
L 513 -844 
Q 928 -128 1133 580 
Q 1338 1288 1338 2009 
Q 1338 2731 1133 3434 
Q 928 4138 513 4856 
z
" transform="scale(0.015625)"/>
      </defs>
      <use xlink:href="#DejaVuSans-4f"/>
      <use xlink:href="#DejaVuSans-63" transform="translate(78.710938 0)"/>
      <use xlink:href="#DejaVuSans-6f" transform="translate(133.691406 0)"/>
      <use xlink:href="#DejaVuSans-72" transform="translate(194.873047 0)"/>
      <use xlink:href="#DejaVuSans-72" transform="translate(234.236328 0)"/>
      <use xlink:href="#DejaVuSans-ea" transform="translate(273.099609 0)"/>
      <use xlink:href="#DejaVuSans-6e" transform="translate(334.623047 0)"/>
      <use xlink:href="#DejaVuSans-63" transform="translate(398.001953 0)"/>
      <use xlink:href="#DejaVuSans-69" transform="translate(452.982422 0)"/>
      <use xlink:href="#DejaVuSans-61" transform="translate(480.765625 0)"/>
      <use xlink:href="#DejaVuSans-73" transform="translate(542.044922 0)"/>
      <use xlink:href="#DejaVuSans-20" transform="translate(594.144531 0)"/>
      <use xlink:href="#DejaVuSans-76" transform="translate(625.931641 0)"/>
      <use xlink:href="#DejaVuSans-e1" transform="translate(685.111328 0)"/>
      <use xlink:href="#DejaVuSans-6c" transform="translate(746.390625 0)"/>
      <use xlink:href="#DejaVuSans-69" transform="translate(774.173828 0)"/>
      <use xlink:href="#DejaVuSans-64" transform="translate(801.957031 0)"/>
      <use xlink:href="#DejaVuSans-61" transform="translate(865.433594 0)"/>
      <use xlink:href="#DejaVuSans-73" transform="translate(926.712891 0)"/>
      <use xlink:href="#DejaVuSans-20" transform="translate(978.8125 0)"/>
      <use xlink:href="#DejaVuSans-28" transform="translate(1010.599609 0)"/>
      <use xlink:href="#DejaVuSans-61" transform="translate(1049.613281 0)"/>
      <use xlink:href="#DejaVuSans-70" transform="translate(1110.892578 0)"/>
      <use xlink:href="#DejaVuSans-f3" transform="translate(1174.369141 0)"/>
      <use xlink:href="#DejaVuSans-73" transform="translate(1235.550781 0)"/>
      <use xlink:href="#DejaVuSans-20" transform="translate(1287.650391 0)"/>
      <use xlink:href="#DejaVuSans-65" transform="translate(1319.4375 0)"/>
      <use xlink:href="#DejaVuSans-78" transform="translate(1379.210938 0)"/>
      <use xlink:href="#DejaVuSans-63" transform="translate(1436.640625 0)"/>
      <use xlink:href="#DejaVuSans-6c" transform="translate(1491.621094 0)"/>
      <use xlink:href="#DejaVuSans-75" transform="translate(1519.404297 0)"/>
      <use xlink:href="#DejaVuSans-73" transform="translate(1582.783203 0)"/>
      <use xlink:href="#DejaVuSans-f5" transform="translate(1634.882812 0)"/>
      <use xlink:href="#DejaVuSans-65" transform="translate(1696.064453 0)"/>
      <use xlink:href="#DejaVuSans-73" transform="translate(1757.587891 0)"/>
      <use xlink:href="#DejaVuSans-29" transform="translate(1809.6875 0)"/>
     </g>
    </g>
   </g>
   <g id="matplotlib.axis_2">
    <g id="ytick_1">
     <g id="line2d_7">
      <defs>
       <path id="m278848f8ed" d="M 0 0 
L -3.5 0 
" style="stroke: #000000; stroke-width: 0.8"/>
      </defs>
      <g>
       <use xlink:href="#m278848f8ed" x="115.63" y="577.026751" style="stroke: #000000; stroke-width: 0.8"/>
      </g>
     </g>
     <g id="text_8">
      <!-- black_box -->
      <g transform="translate(59.012812 580.82597) scale(0.1 -0.1)">
       <defs>
        <path id="DejaVuSans-62" d="M 3116 1747 
Q 3116 2381 2855 2742 
Q 2594 3103 2138 3103 
Q 1681 3103 1420 2742 
Q 1159 2381 1159 1747 
Q 1159 1113 1420 752 
Q 1681 391 2138 391 
Q 2594 391 2855 752 
Q 3116 1113 3116 1747 
z
M 1159 2969 
Q 1341 3281 1617 3432 
Q 1894 3584 2278 3584 
Q 2916 3584 3314 3078 
Q 3713 2572 3713 1747 
Q 3713 922 3314 415 
Q 2916 -91 2278 -91 
Q 1894 -91 1617 61 
Q 1341 213 1159 525 
L 1159 0 
L 581 0 
L 581 4863 
L 1159 4863 
L 1159 2969 
z
" transform="scale(0.015625)"/>
        <path id="DejaVuSans-6b" d="M 581 4863 
L 1159 4863 
L 1159 1991 
L 2875 3500 
L 3609 3500 
L 1753 1863 
L 3688 0 
L 2938 0 
L 1159 1709 
L 1159 0 
L 581 0 
L 581 4863 
z
" transform="scale(0.015625)"/>
        <path id="DejaVuSans-5f" d="M 3263 -1063 
L 3263 -1509 
L -63 -1509 
L -63 -1063 
L 3263 -1063 
z
" transform="scale(0.015625)"/>
       </defs>
       <use xlink:href="#DejaVuSans-62"/>
       <use xlink:href="#DejaVuSans-6c" transform="translate(63.476562 0)"/>
       <use xlink:href="#DejaVuSans-61" transform="translate(91.259766 0)"/>
       <use xlink:href="#DejaVuSans-63" transform="translate(152.539062 0)"/>
       <use xlink:href="#DejaVuSans-6b" transform="translate(207.519531 0)"/>
       <use xlink:href="#DejaVuSans-5f" transform="translate(265.429688 0)"/>
       <use xlink:href="#DejaVuSans-62" transform="translate(315.429688 0)"/>
       <use xlink:href="#DejaVuSans-6f" transform="translate(378.90625 0)"/>
       <use xlink:href="#DejaVuSans-78" transform="translate(436.962891 0)"/>
      </g>
     </g>
    </g>
    <g id="ytick_2">
     <g id="line2d_8">
      <g>
       <use xlink:href="#m278848f8ed" x="115.63" y="555.811811" style="stroke: #000000; stroke-width: 0.8"/>
      </g>
     </g>
     <g id="text_9">
      <!-- agonistic -->
      <g transform="translate(63.512812 559.61103) scale(0.1 -0.1)">
       <defs>
        <path id="DejaVuSans-67" d="M 2906 1791 
Q 2906 2416 2648 2759 
Q 2391 3103 1925 3103 
Q 1463 3103 1205 2759 
Q 947 2416 947 1791 
Q 947 1169 1205 825 
Q 1463 481 1925 481 
Q 2391 481 2648 825 
Q 2906 1169 2906 1791 
z
M 3481 434 
Q 3481 -459 3084 -895 
Q 2688 -1331 1869 -1331 
Q 1566 -1331 1297 -1286 
Q 1028 -1241 775 -1147 
L 775 -588 
Q 1028 -725 1275 -790 
Q 1522 -856 1778 -856 
Q 2344 -856 2625 -561 
Q 2906 -266 2906 331 
L 2906 616 
Q 2728 306 2450 153 
Q 2172 0 1784 0 
Q 1141 0 747 490 
Q 353 981 353 1791 
Q 353 2603 747 3093 
Q 1141 3584 1784 3584 
Q 2172 3584 2450 3431 
Q 2728 3278 2906 2969 
L 2906 3500 
L 3481 3500 
L 3481 434 
z
" transform="scale(0.015625)"/>
        <path id="DejaVuSans-74" d="M 1172 4494 
L 1172 3500 
L 2356 3500 
L 2356 3053 
L 1172 3053 
L 1172 1153 
Q 1172 725 1289 603 
Q 1406 481 1766 481 
L 2356 481 
L 2356 0 
L 1766 0 
Q 1100 0 847 248 
Q 594 497 594 1153 
L 594 3053 
L 172 3053 
L 172 3500 
L 594 3500 
L 594 4494 
L 1172 4494 
z
" transform="scale(0.015625)"/>
       </defs>
       <use xlink:href="#DejaVuSans-61"/>
       <use xlink:href="#DejaVuSans-67" transform="translate(61.279297 0)"/>
       <use xlink:href="#DejaVuSans-6f" transform="translate(124.755859 0)"/>
       <use xlink:href="#DejaVuSans-6e" transform="translate(185.9375 0)"/>
       <use xlink:href="#DejaVuSans-69" transform="translate(249.316406 0)"/>
       <use xlink:href="#DejaVuSans-73" transform="translate(277.099609 0)"/>
       <use xlink:href="#DejaVuSans-74" transform="translate(329.199219 0)"/>
       <use xlink:href="#DejaVuSans-69" transform="translate(368.408203 0)"/>
       <use xlink:href="#DejaVuSans-63" transform="translate(396.191406 0)"/>
      </g>
     </g>
    </g>
    <g id="ytick_3">
     <g id="line2d_9">
      <g>
       <use xlink:href="#m278848f8ed" x="115.63" y="534.596871" style="stroke: #000000; stroke-width: 0.8"/>
      </g>
     </g>
     <g id="text_10">
      <!-- enrollment -->
      <g transform="translate(54.426875 538.39609) scale(0.1 -0.1)">
       <defs>
        <path id="DejaVuSans-6d" d="M 3328 2828 
Q 3544 3216 3844 3400 
Q 4144 3584 4550 3584 
Q 5097 3584 5394 3201 
Q 5691 2819 5691 2113 
L 5691 0 
L 5113 0 
L 5113 2094 
Q 5113 2597 4934 2840 
Q 4756 3084 4391 3084 
Q 3944 3084 3684 2787 
Q 3425 2491 3425 1978 
L 3425 0 
L 2847 0 
L 2847 2094 
Q 2847 2600 2669 2842 
Q 2491 3084 2119 3084 
Q 1678 3084 1418 2786 
Q 1159 2488 1159 1978 
L 1159 0 
L 581 0 
L 581 3500 
L 1159 3500 
L 1159 2956 
Q 1356 3278 1631 3431 
Q 1906 3584 2284 3584 
Q 2666 3584 2933 3390 
Q 3200 3197 3328 2828 
z
" transform="scale(0.015625)"/>
       </defs>
       <use xlink:href="#DejaVuSans-65"/>
       <use xlink:href="#DejaVuSans-6e" transform="translate(61.523438 0)"/>
       <use xlink:href="#DejaVuSans-72" transform="translate(124.902344 0)"/>
       <use xlink:href="#DejaVuSans-6f" transform="translate(163.765625 0)"/>
       <use xlink:href="#DejaVuSans-6c" transform="translate(224.947266 0)"/>
       <use xlink:href="#DejaVuSans-6c" transform="translate(252.730469 0)"/>
       <use xlink:href="#DejaVuSans-6d" transform="translate(280.513672 0)"/>
       <use xlink:href="#DejaVuSans-65" transform="translate(377.925781 0)"/>
       <use xlink:href="#DejaVuSans-6e" transform="translate(439.449219 0)"/>
       <use xlink:href="#DejaVuSans-74" transform="translate(502.828125 0)"/>
      </g>
     </g>
    </g>
    <g id="ytick_4">
     <g id="line2d_10">
      <g>
       <use xlink:href="#m278848f8ed" x="115.63" y="513.381931" style="stroke: #000000; stroke-width: 0.8"/>
      </g>
     </g>
     <g id="text_11">
      <!-- proposition -->
      <g transform="translate(52.6675 517.18115) scale(0.1 -0.1)">
       <use xlink:href="#DejaVuSans-70"/>
       <use xlink:href="#DejaVuSans-72" transform="translate(63.476562 0)"/>
       <use xlink:href="#DejaVuSans-6f" transform="translate(102.339844 0)"/>
       <use xlink:href="#DejaVuSans-70" transform="translate(163.521484 0)"/>
       <use xlink:href="#DejaVuSans-6f" transform="translate(226.998047 0)"/>
       <use xlink:href="#DejaVuSans-73" transform="translate(288.179688 0)"/>
       <use xlink:href="#DejaVuSans-69" transform="translate(340.279297 0)"/>
       <use xlink:href="#DejaVuSans-74" transform="translate(368.0625 0)"/>
       <use xlink:href="#DejaVuSans-69" transform="translate(407.271484 0)"/>
       <use xlink:href="#DejaVuSans-6f" transform="translate(435.054688 0)"/>
       <use xlink:href="#DejaVuSans-6e" transform="translate(496.236328 0)"/>
      </g>
     </g>
    </g>
    <g id="ytick_5">
     <g id="line2d_11">
      <g>
       <use xlink:href="#m278848f8ed" x="115.63" y="492.166991" style="stroke: #000000; stroke-width: 0.8"/>
      </g>
     </g>
     <g id="text_12">
      <!-- actor_network -->
      <g transform="translate(37.244062 495.96621) scale(0.1 -0.1)">
       <defs>
        <path id="DejaVuSans-77" d="M 269 3500 
L 844 3500 
L 1563 769 
L 2278 3500 
L 2956 3500 
L 3675 769 
L 4391 3500 
L 4966 3500 
L 4050 0 
L 3372 0 
L 2619 2869 
L 1863 0 
L 1184 0 
L 269 3500 
z
" transform="scale(0.015625)"/>
       </defs>
       <use xlink:href="#DejaVuSans-61"/>
       <use xlink:href="#DejaVuSans-63" transform="translate(61.279297 0)"/>
       <use xlink:href="#DejaVuSans-74" transform="translate(116.259766 0)"/>
       <use xlink:href="#DejaVuSans-6f" transform="translate(155.46875 0)"/>
       <use xlink:href="#DejaVuSans-72" transform="translate(216.650391 0)"/>
       <use xlink:href="#DejaVuSans-5f" transform="translate(257.763672 0)"/>
       <use xlink:href="#DejaVuSans-6e" transform="translate(307.763672 0)"/>
       <use xlink:href="#DejaVuSans-65" transform="translate(371.142578 0)"/>
       <use xlink:href="#DejaVuSans-74" transform="translate(432.666016 0)"/>
       <use xlink:href="#DejaVuSans-77" transform="translate(471.875 0)"/>
       <use xlink:href="#DejaVuSans-6f" transform="translate(553.662109 0)"/>
       <use xlink:href="#DejaVuSans-72" transform="translate(614.84375 0)"/>
       <use xlink:href="#DejaVuSans-6b" transform="translate(655.957031 0)"/>
      </g>
     </g>
    </g>
    <g id="ytick_6">
     <g id="line2d_12">
      <g>
       <use xlink:href="#m278848f8ed" x="115.63" y="470.952051" style="stroke: #000000; stroke-width: 0.8"/>
      </g>
     </g>
     <g id="text_13">
      <!-- inscription -->
      <g transform="translate(56.414375 474.751269) scale(0.1 -0.1)">
       <use xlink:href="#DejaVuSans-69"/>
       <use xlink:href="#DejaVuSans-6e" transform="translate(27.783203 0)"/>
       <use xlink:href="#DejaVuSans-73" transform="translate(91.162109 0)"/>
       <use xlink:href="#DejaVuSans-63" transform="translate(143.261719 0)"/>
       <use xlink:href="#DejaVuSans-72" transform="translate(198.242188 0)"/>
       <use xlink:href="#DejaVuSans-69" transform="translate(239.355469 0)"/>
       <use xlink:href="#DejaVuSans-70" transform="translate(267.138672 0)"/>
       <use xlink:href="#DejaVuSans-74" transform="translate(330.615234 0)"/>
       <use xlink:href="#DejaVuSans-69" transform="translate(369.824219 0)"/>
       <use xlink:href="#DejaVuSans-6f" transform="translate(397.607422 0)"/>
       <use xlink:href="#DejaVuSans-6e" transform="translate(458.789062 0)"/>
      </g>
     </g>
    </g>
    <g id="ytick_7">
     <g id="line2d_13">
      <g>
       <use xlink:href="#m278848f8ed" x="115.63" y="449.737111" style="stroke: #000000; stroke-width: 0.8"/>
      </g>
     </g>
     <g id="text_14">
      <!-- immutable_mobile -->
      <g transform="translate(15.787812 453.536329) scale(0.1 -0.1)">
       <use xlink:href="#DejaVuSans-69"/>
       <use xlink:href="#DejaVuSans-6d" transform="translate(27.783203 0)"/>
       <use xlink:href="#DejaVuSans-6d" transform="translate(125.195312 0)"/>
       <use xlink:href="#DejaVuSans-75" transform="translate(222.607422 0)"/>
       <use xlink:href="#DejaVuSans-74" transform="translate(285.986328 0)"/>
       <use xlink:href="#DejaVuSans-61" transform="translate(325.195312 0)"/>
       <use xlink:href="#DejaVuSans-62" transform="translate(386.474609 0)"/>
       <use xlink:href="#DejaVuSans-6c" transform="translate(449.951172 0)"/>
       <use xlink:href="#DejaVuSans-65" transform="translate(477.734375 0)"/>
       <use xlink:href="#DejaVuSans-5f" transform="translate(539.257812 0)"/>
       <use xlink:href="#DejaVuSans-6d" transform="translate(589.257812 0)"/>
       <use xlink:href="#DejaVuSans-6f" transform="translate(686.669922 0)"/>
       <use xlink:href="#DejaVuSans-62" transform="translate(747.851562 0)"/>
       <use xlink:href="#DejaVuSans-69" transform="translate(811.328125 0)"/>
       <use xlink:href="#DejaVuSans-6c" transform="translate(839.111328 0)"/>
       <use xlink:href="#DejaVuSans-65" transform="translate(866.894531 0)"/>
      </g>
     </g>
    </g>
    <g id="ytick_8">
     <g id="line2d_14">
      <g>
       <use xlink:href="#m278848f8ed" x="115.63" y="428.522171" style="stroke: #000000; stroke-width: 0.8"/>
      </g>
     </g>
     <g id="text_15">
      <!-- valores -->
      <g transform="translate(72.437812 432.321389) scale(0.1 -0.1)">
       <use xlink:href="#DejaVuSans-76"/>
       <use xlink:href="#DejaVuSans-61" transform="translate(59.179688 0)"/>
       <use xlink:href="#DejaVuSans-6c" transform="translate(120.458984 0)"/>
       <use xlink:href="#DejaVuSans-6f" transform="translate(148.242188 0)"/>
       <use xlink:href="#DejaVuSans-72" transform="translate(209.423828 0)"/>
       <use xlink:href="#DejaVuSans-65" transform="translate(248.287109 0)"/>
       <use xlink:href="#DejaVuSans-73" transform="translate(309.810547 0)"/>
      </g>
     </g>
    </g>
    <g id="ytick_9">
     <g id="line2d_15">
      <g>
       <use xlink:href="#m278848f8ed" x="115.63" y="407.30723" style="stroke: #000000; stroke-width: 0.8"/>
      </g>
     </g>
     <g id="text_16">
      <!-- translation -->
      <g transform="translate(54.862812 411.106449) scale(0.1 -0.1)">
       <use xlink:href="#DejaVuSans-74"/>
       <use xlink:href="#DejaVuSans-72" transform="translate(39.208984 0)"/>
       <use xlink:href="#DejaVuSans-61" transform="translate(80.322266 0)"/>
       <use xlink:href="#DejaVuSans-6e" transform="translate(141.601562 0)"/>
       <use xlink:href="#DejaVuSans-73" transform="translate(204.980469 0)"/>
       <use xlink:href="#DejaVuSans-6c" transform="translate(257.080078 0)"/>
       <use xlink:href="#DejaVuSans-61" transform="translate(284.863281 0)"/>
       <use xlink:href="#DejaVuSans-74" transform="translate(346.142578 0)"/>
       <use xlink:href="#DejaVuSans-69" transform="translate(385.351562 0)"/>
       <use xlink:href="#DejaVuSans-6f" transform="translate(413.134766 0)"/>
       <use xlink:href="#DejaVuSans-6e" transform="translate(474.316406 0)"/>
      </g>
     </g>
    </g>
    <g id="ytick_10">
     <g id="line2d_16">
      <g>
       <use xlink:href="#m278848f8ed" x="115.63" y="386.09229" style="stroke: #000000; stroke-width: 0.8"/>
      </g>
     </g>
     <g id="text_17">
      <!-- gaia -->
      <g transform="translate(87.247187 389.891509) scale(0.1 -0.1)">
       <use xlink:href="#DejaVuSans-67"/>
       <use xlink:href="#DejaVuSans-61" transform="translate(63.476562 0)"/>
       <use xlink:href="#DejaVuSans-69" transform="translate(124.755859 0)"/>
       <use xlink:href="#DejaVuSans-61" transform="translate(152.539062 0)"/>
      </g>
     </g>
    </g>
    <g id="ytick_11">
     <g id="line2d_17">
      <g>
       <use xlink:href="#m278848f8ed" x="115.63" y="364.87735" style="stroke: #000000; stroke-width: 0.8"/>
      </g>
     </g>
     <g id="text_18">
      <!-- articulation -->
      <g transform="translate(51.795625 368.676569) scale(0.1 -0.1)">
       <use xlink:href="#DejaVuSans-61"/>
       <use xlink:href="#DejaVuSans-72" transform="translate(61.279297 0)"/>
       <use xlink:href="#DejaVuSans-74" transform="translate(102.392578 0)"/>
       <use xlink:href="#DejaVuSans-69" transform="translate(141.601562 0)"/>
       <use xlink:href="#DejaVuSans-63" transform="translate(169.384766 0)"/>
       <use xlink:href="#DejaVuSans-75" transform="translate(224.365234 0)"/>
       <use xlink:href="#DejaVuSans-6c" transform="translate(287.744141 0)"/>
       <use xlink:href="#DejaVuSans-61" transform="translate(315.527344 0)"/>
       <use xlink:href="#DejaVuSans-74" transform="translate(376.806641 0)"/>
       <use xlink:href="#DejaVuSans-69" transform="translate(416.015625 0)"/>
       <use xlink:href="#DejaVuSans-6f" transform="translate(443.798828 0)"/>
       <use xlink:href="#DejaVuSans-6e" transform="translate(504.980469 0)"/>
      </g>
     </g>
    </g>
    <g id="ytick_12">
     <g id="line2d_18">
      <g>
       <use xlink:href="#m278848f8ed" x="115.63" y="343.66241" style="stroke: #000000; stroke-width: 0.8"/>
      </g>
     </g>
     <g id="text_19">
      <!-- preposicao -->
      <g transform="translate(54.0425 347.461629) scale(0.1 -0.1)">
       <use xlink:href="#DejaVuSans-70"/>
       <use xlink:href="#DejaVuSans-72" transform="translate(63.476562 0)"/>
       <use xlink:href="#DejaVuSans-65" transform="translate(102.339844 0)"/>
       <use xlink:href="#DejaVuSans-70" transform="translate(163.863281 0)"/>
       <use xlink:href="#DejaVuSans-6f" transform="translate(227.339844 0)"/>
       <use xlink:href="#DejaVuSans-73" transform="translate(288.521484 0)"/>
       <use xlink:href="#DejaVuSans-69" transform="translate(340.621094 0)"/>
       <use xlink:href="#DejaVuSans-63" transform="translate(368.404297 0)"/>
       <use xlink:href="#DejaVuSans-61" transform="translate(423.384766 0)"/>
       <use xlink:href="#DejaVuSans-6f" transform="translate(484.664062 0)"/>
      </g>
     </g>
    </g>
    <g id="ytick_13">
     <g id="line2d_19">
      <g>
       <use xlink:href="#m278848f8ed" x="115.63" y="322.44747" style="stroke: #000000; stroke-width: 0.8"/>
      </g>
     </g>
     <g id="text_20">
      <!-- construction -->
      <g transform="translate(46.444062 326.246689) scale(0.1 -0.1)">
       <use xlink:href="#DejaVuSans-63"/>
       <use xlink:href="#DejaVuSans-6f" transform="translate(54.980469 0)"/>
       <use xlink:href="#DejaVuSans-6e" transform="translate(116.162109 0)"/>
       <use xlink:href="#DejaVuSans-73" transform="translate(179.541016 0)"/>
       <use xlink:href="#DejaVuSans-74" transform="translate(231.640625 0)"/>
       <use xlink:href="#DejaVuSans-72" transform="translate(270.849609 0)"/>
       <use xlink:href="#DejaVuSans-75" transform="translate(311.962891 0)"/>
       <use xlink:href="#DejaVuSans-63" transform="translate(375.341797 0)"/>
       <use xlink:href="#DejaVuSans-74" transform="translate(430.322266 0)"/>
       <use xlink:href="#DejaVuSans-69" transform="translate(469.53125 0)"/>
       <use xlink:href="#DejaVuSans-6f" transform="translate(497.314453 0)"/>
       <use xlink:href="#DejaVuSans-6e" transform="translate(558.496094 0)"/>
      </g>
     </g>
    </g>
    <g id="ytick_14">
     <g id="line2d_20">
      <g>
       <use xlink:href="#m278848f8ed" x="115.63" y="301.23253" style="stroke: #000000; stroke-width: 0.8"/>
      </g>
     </g>
     <g id="text_21">
      <!-- diplomacia -->
      <g transform="translate(53.984687 305.031749) scale(0.1 -0.1)">
       <use xlink:href="#DejaVuSans-64"/>
       <use xlink:href="#DejaVuSans-69" transform="translate(63.476562 0)"/>
       <use xlink:href="#DejaVuSans-70" transform="translate(91.259766 0)"/>
       <use xlink:href="#DejaVuSans-6c" transform="translate(154.736328 0)"/>
       <use xlink:href="#DejaVuSans-6f" transform="translate(182.519531 0)"/>
       <use xlink:href="#DejaVuSans-6d" transform="translate(243.701172 0)"/>
       <use xlink:href="#DejaVuSans-61" transform="translate(341.113281 0)"/>
       <use xlink:href="#DejaVuSans-63" transform="translate(402.392578 0)"/>
       <use xlink:href="#DejaVuSans-69" transform="translate(457.373047 0)"/>
       <use xlink:href="#DejaVuSans-61" transform="translate(485.15625 0)"/>
      </g>
     </g>
    </g>
    <g id="ytick_15">
     <g id="line2d_21">
      <g>
       <use xlink:href="#m278848f8ed" x="115.63" y="280.01759" style="stroke: #000000; stroke-width: 0.8"/>
      </g>
     </g>
     <g id="text_22">
      <!-- felicidade -->
      <g transform="translate(60.145625 283.816809) scale(0.1 -0.1)">
       <defs>
        <path id="DejaVuSans-66" d="M 2375 4863 
L 2375 4384 
L 1825 4384 
Q 1516 4384 1395 4259 
Q 1275 4134 1275 3809 
L 1275 3500 
L 2222 3500 
L 2222 3053 
L 1275 3053 
L 1275 0 
L 697 0 
L 697 3053 
L 147 3053 
L 147 3500 
L 697 3500 
L 697 3744 
Q 697 4328 969 4595 
Q 1241 4863 1831 4863 
L 2375 4863 
z
" transform="scale(0.015625)"/>
       </defs>
       <use xlink:href="#DejaVuSans-66"/>
       <use xlink:href="#DejaVuSans-65" transform="translate(35.205078 0)"/>
       <use xlink:href="#DejaVuSans-6c" transform="translate(96.728516 0)"/>
       <use xlink:href="#DejaVuSans-69" transform="translate(124.511719 0)"/>
       <use xlink:href="#DejaVuSans-63" transform="translate(152.294922 0)"/>
       <use xlink:href="#DejaVuSans-69" transform="translate(207.275391 0)"/>
       <use xlink:href="#DejaVuSans-64" transform="translate(235.058594 0)"/>
       <use xlink:href="#DejaVuSans-61" transform="translate(298.535156 0)"/>
       <use xlink:href="#DejaVuSans-64" transform="translate(359.814453 0)"/>
       <use xlink:href="#DejaVuSans-65" transform="translate(423.291016 0)"/>
      </g>
     </g>
    </g>
    <g id="ytick_16">
     <g id="line2d_22">
      <g>
       <use xlink:href="#m278848f8ed" x="115.63" y="258.80265" style="stroke: #000000; stroke-width: 0.8"/>
      </g>
     </g>
     <g id="text_23">
      <!-- alteracao -->
      <g transform="translate(61.665937 262.601869) scale(0.1 -0.1)">
       <use xlink:href="#DejaVuSans-61"/>
       <use xlink:href="#DejaVuSans-6c" transform="translate(61.279297 0)"/>
       <use xlink:href="#DejaVuSans-74" transform="translate(89.0625 0)"/>
       <use xlink:href="#DejaVuSans-65" transform="translate(128.271484 0)"/>
       <use xlink:href="#DejaVuSans-72" transform="translate(189.794922 0)"/>
       <use xlink:href="#DejaVuSans-61" transform="translate(230.908203 0)"/>
       <use xlink:href="#DejaVuSans-63" transform="translate(292.1875 0)"/>
       <use xlink:href="#DejaVuSans-61" transform="translate(347.167969 0)"/>
       <use xlink:href="#DejaVuSans-6f" transform="translate(408.447266 0)"/>
      </g>
     </g>
    </g>
    <g id="ytick_17">
     <g id="line2d_23">
      <g>
       <use xlink:href="#m278848f8ed" x="115.63" y="237.58771" style="stroke: #000000; stroke-width: 0.8"/>
      </g>
     </g>
     <g id="text_24">
      <!-- militar -->
      <g transform="translate(76.395625 241.386928) scale(0.1 -0.1)">
       <use xlink:href="#DejaVuSans-6d"/>
       <use xlink:href="#DejaVuSans-69" transform="translate(97.412109 0)"/>
       <use xlink:href="#DejaVuSans-6c" transform="translate(125.195312 0)"/>
       <use xlink:href="#DejaVuSans-69" transform="translate(152.978516 0)"/>
       <use xlink:href="#DejaVuSans-74" transform="translate(180.761719 0)"/>
       <use xlink:href="#DejaVuSans-61" transform="translate(219.970703 0)"/>
       <use xlink:href="#DejaVuSans-72" transform="translate(281.25 0)"/>
      </g>
     </g>
    </g>
    <g id="ytick_18">
     <g id="line2d_24">
      <g>
       <use xlink:href="#m278848f8ed" x="115.63" y="216.37277" style="stroke: #000000; stroke-width: 0.8"/>
      </g>
     </g>
     <g id="text_25">
      <!-- modos_existencia -->
      <g transform="translate(19.394062 220.171988) scale(0.1 -0.1)">
       <use xlink:href="#DejaVuSans-6d"/>
       <use xlink:href="#DejaVuSans-6f" transform="translate(97.412109 0)"/>
       <use xlink:href="#DejaVuSans-64" transform="translate(158.59375 0)"/>
       <use xlink:href="#DejaVuSans-6f" transform="translate(222.070312 0)"/>
       <use xlink:href="#DejaVuSans-73" transform="translate(283.251953 0)"/>
       <use xlink:href="#DejaVuSans-5f" transform="translate(335.351562 0)"/>
       <use xlink:href="#DejaVuSans-65" transform="translate(385.351562 0)"/>
       <use xlink:href="#DejaVuSans-78" transform="translate(445.125 0)"/>
       <use xlink:href="#DejaVuSans-69" transform="translate(504.304688 0)"/>
       <use xlink:href="#DejaVuSans-73" transform="translate(532.087891 0)"/>
       <use xlink:href="#DejaVuSans-74" transform="translate(584.1875 0)"/>
       <use xlink:href="#DejaVuSans-65" transform="translate(623.396484 0)"/>
       <use xlink:href="#DejaVuSans-6e" transform="translate(684.919922 0)"/>
       <use xlink:href="#DejaVuSans-63" transform="translate(748.298828 0)"/>
       <use xlink:href="#DejaVuSans-69" transform="translate(803.279297 0)"/>
       <use xlink:href="#DejaVuSans-61" transform="translate(831.0625 0)"/>
      </g>
     </g>
    </g>
    <g id="ytick_19">
     <g id="line2d_25">
      <g>
       <use xlink:href="#m278848f8ed" x="115.63" y="195.157829" style="stroke: #000000; stroke-width: 0.8"/>
      </g>
     </g>
     <g id="text_26">
      <!-- textil -->
      <g transform="translate(83.33625 198.957048) scale(0.1 -0.1)">
       <use xlink:href="#DejaVuSans-74"/>
       <use xlink:href="#DejaVuSans-65" transform="translate(39.208984 0)"/>
       <use xlink:href="#DejaVuSans-78" transform="translate(98.982422 0)"/>
       <use xlink:href="#DejaVuSans-74" transform="translate(158.162109 0)"/>
       <use xlink:href="#DejaVuSans-69" transform="translate(197.371094 0)"/>
       <use xlink:href="#DejaVuSans-6c" transform="translate(225.154297 0)"/>
      </g>
     </g>
    </g>
    <g id="ytick_20">
     <g id="line2d_26">
      <g>
       <use xlink:href="#m278848f8ed" x="115.63" y="173.942889" style="stroke: #000000; stroke-width: 0.8"/>
      </g>
     </g>
     <g id="text_27">
      <!-- instituicao -->
      <g transform="translate(56.825312 177.742108) scale(0.1 -0.1)">
       <use xlink:href="#DejaVuSans-69"/>
       <use xlink:href="#DejaVuSans-6e" transform="translate(27.783203 0)"/>
       <use xlink:href="#DejaVuSans-73" transform="translate(91.162109 0)"/>
       <use xlink:href="#DejaVuSans-74" transform="translate(143.261719 0)"/>
       <use xlink:href="#DejaVuSans-69" transform="translate(182.470703 0)"/>
       <use xlink:href="#DejaVuSans-74" transform="translate(210.253906 0)"/>
       <use xlink:href="#DejaVuSans-75" transform="translate(249.462891 0)"/>
       <use xlink:href="#DejaVuSans-69" transform="translate(312.841797 0)"/>
       <use xlink:href="#DejaVuSans-63" transform="translate(340.625 0)"/>
       <use xlink:href="#DejaVuSans-61" transform="translate(395.605469 0)"/>
       <use xlink:href="#DejaVuSans-6f" transform="translate(456.884766 0)"/>
      </g>
     </g>
    </g>
    <g id="ytick_21">
     <g id="line2d_27">
      <g>
       <use xlink:href="#m278848f8ed" x="115.63" y="152.727949" style="stroke: #000000; stroke-width: 0.8"/>
      </g>
     </g>
     <g id="text_28">
      <!-- network -->
      <g transform="translate(68.020625 156.527168) scale(0.1 -0.1)">
       <use xlink:href="#DejaVuSans-6e"/>
       <use xlink:href="#DejaVuSans-65" transform="translate(63.378906 0)"/>
       <use xlink:href="#DejaVuSans-74" transform="translate(124.902344 0)"/>
       <use xlink:href="#DejaVuSans-77" transform="translate(164.111328 0)"/>
       <use xlink:href="#DejaVuSans-6f" transform="translate(245.898438 0)"/>
       <use xlink:href="#DejaVuSans-72" transform="translate(307.080078 0)"/>
       <use xlink:href="#DejaVuSans-6b" transform="translate(348.193359 0)"/>
      </g>
     </g>
    </g>
    <g id="ytick_22">
     <g id="line2d_28">
      <g>
       <use xlink:href="#m278848f8ed" x="115.63" y="131.513009" style="stroke: #000000; stroke-width: 0.8"/>
      </g>
     </g>
     <g id="text_29">
      <!-- experiencia -->
      <g transform="translate(50.447187 135.312228) scale(0.1 -0.1)">
       <use xlink:href="#DejaVuSans-65"/>
       <use xlink:href="#DejaVuSans-78" transform="translate(59.773438 0)"/>
       <use xlink:href="#DejaVuSans-70" transform="translate(118.953125 0)"/>
       <use xlink:href="#DejaVuSans-65" transform="translate(182.429688 0)"/>
       <use xlink:href="#DejaVuSans-72" transform="translate(243.953125 0)"/>
       <use xlink:href="#DejaVuSans-69" transform="translate(285.066406 0)"/>
       <use xlink:href="#DejaVuSans-65" transform="translate(312.849609 0)"/>
       <use xlink:href="#DejaVuSans-6e" transform="translate(374.373047 0)"/>
       <use xlink:href="#DejaVuSans-63" transform="translate(437.751953 0)"/>
       <use xlink:href="#DejaVuSans-69" transform="translate(492.732422 0)"/>
       <use xlink:href="#DejaVuSans-61" transform="translate(520.515625 0)"/>
      </g>
     </g>
    </g>
    <g id="ytick_23">
     <g id="line2d_29">
      <g>
       <use xlink:href="#m278848f8ed" x="115.63" y="110.298069" style="stroke: #000000; stroke-width: 0.8"/>
      </g>
     </g>
     <g id="text_30">
      <!-- categorias_dominio -->
      <g transform="translate(11.015937 114.097288) scale(0.1 -0.1)">
       <use xlink:href="#DejaVuSans-63"/>
       <use xlink:href="#DejaVuSans-61" transform="translate(54.980469 0)"/>
       <use xlink:href="#DejaVuSans-74" transform="translate(116.259766 0)"/>
       <use xlink:href="#DejaVuSans-65" transform="translate(155.46875 0)"/>
       <use xlink:href="#DejaVuSans-67" transform="translate(216.992188 0)"/>
       <use xlink:href="#DejaVuSans-6f" transform="translate(280.46875 0)"/>
       <use xlink:href="#DejaVuSans-72" transform="translate(341.650391 0)"/>
       <use xlink:href="#DejaVuSans-69" transform="translate(382.763672 0)"/>
       <use xlink:href="#DejaVuSans-61" transform="translate(410.546875 0)"/>
       <use xlink:href="#DejaVuSans-73" transform="translate(471.826172 0)"/>
       <use xlink:href="#DejaVuSans-5f" transform="translate(523.925781 0)"/>
       <use xlink:href="#DejaVuSans-64" transform="translate(573.925781 0)"/>
       <use xlink:href="#DejaVuSans-6f" transform="translate(637.402344 0)"/>
       <use xlink:href="#DejaVuSans-6d" transform="translate(698.583984 0)"/>
       <use xlink:href="#DejaVuSans-69" transform="translate(795.996094 0)"/>
       <use xlink:href="#DejaVuSans-6e" transform="translate(823.779297 0)"/>
       <use xlink:href="#DejaVuSans-69" transform="translate(887.158203 0)"/>
       <use xlink:href="#DejaVuSans-6f" transform="translate(914.941406 0)"/>
      </g>
     </g>
    </g>
    <g id="ytick_24">
     <g id="line2d_30">
      <g>
       <use xlink:href="#m278848f8ed" x="115.63" y="89.083129" style="stroke: #000000; stroke-width: 0.8"/>
      </g>
     </g>
     <g id="text_31">
      <!-- modernos -->
      <g transform="translate(58.6675 92.882348) scale(0.1 -0.1)">
       <use xlink:href="#DejaVuSans-6d"/>
       <use xlink:href="#DejaVuSans-6f" transform="translate(97.412109 0)"/>
       <use xlink:href="#DejaVuSans-64" transform="translate(158.59375 0)"/>
       <use xlink:href="#DejaVuSans-65" transform="translate(222.070312 0)"/>
       <use xlink:href="#DejaVuSans-72" transform="translate(283.59375 0)"/>
       <use xlink:href="#DejaVuSans-6e" transform="translate(322.957031 0)"/>
       <use xlink:href="#DejaVuSans-6f" transform="translate(386.335938 0)"/>
       <use xlink:href="#DejaVuSans-73" transform="translate(447.517578 0)"/>
      </g>
     </g>
    </g>
    <g id="ytick_25">
     <g id="line2d_31">
      <g>
       <use xlink:href="#m278848f8ed" x="115.63" y="67.868189" style="stroke: #000000; stroke-width: 0.8"/>
      </g>
     </g>
     <g id="text_32">
      <!-- trajetoria_passe -->
      <g transform="translate(28.434687 71.667408) scale(0.1 -0.1)">
       <defs>
        <path id="DejaVuSans-6a" d="M 603 3500 
L 1178 3500 
L 1178 -63 
Q 1178 -731 923 -1031 
Q 669 -1331 103 -1331 
L -116 -1331 
L -116 -844 
L 38 -844 
Q 366 -844 484 -692 
Q 603 -541 603 -63 
L 603 3500 
z
M 603 4863 
L 1178 4863 
L 1178 4134 
L 603 4134 
L 603 4863 
z
" transform="scale(0.015625)"/>
       </defs>
       <use xlink:href="#DejaVuSans-74"/>
       <use xlink:href="#DejaVuSans-72" transform="translate(39.208984 0)"/>
       <use xlink:href="#DejaVuSans-61" transform="translate(80.322266 0)"/>
       <use xlink:href="#DejaVuSans-6a" transform="translate(141.601562 0)"/>
       <use xlink:href="#DejaVuSans-65" transform="translate(169.384766 0)"/>
       <use xlink:href="#DejaVuSans-74" transform="translate(230.908203 0)"/>
       <use xlink:href="#DejaVuSans-6f" transform="translate(270.117188 0)"/>
       <use xlink:href="#DejaVuSans-72" transform="translate(331.298828 0)"/>
       <use xlink:href="#DejaVuSans-69" transform="translate(372.412109 0)"/>
       <use xlink:href="#DejaVuSans-61" transform="translate(400.195312 0)"/>
       <use xlink:href="#DejaVuSans-5f" transform="translate(461.474609 0)"/>
       <use xlink:href="#DejaVuSans-70" transform="translate(511.474609 0)"/>
       <use xlink:href="#DejaVuSans-61" transform="translate(574.951172 0)"/>
       <use xlink:href="#DejaVuSans-73" transform="translate(636.230469 0)"/>
       <use xlink:href="#DejaVuSans-73" transform="translate(688.330078 0)"/>
       <use xlink:href="#DejaVuSans-65" transform="translate(740.429688 0)"/>
      </g>
     </g>
    </g>
    <g id="ytick_26">
     <g id="line2d_32">
      <g>
       <use xlink:href="#m278848f8ed" x="115.63" y="46.653249" style="stroke: #000000; stroke-width: 0.8"/>
      </g>
     </g>
     <g id="text_33">
      <!-- topologia -->
      <g transform="translate(61.972187 50.452468) scale(0.1 -0.1)">
       <use xlink:href="#DejaVuSans-74"/>
       <use xlink:href="#DejaVuSans-6f" transform="translate(39.208984 0)"/>
       <use xlink:href="#DejaVuSans-70" transform="translate(100.390625 0)"/>
       <use xlink:href="#DejaVuSans-6f" transform="translate(163.867188 0)"/>
       <use xlink:href="#DejaVuSans-6c" transform="translate(225.048828 0)"/>
       <use xlink:href="#DejaVuSans-6f" transform="translate(252.832031 0)"/>
       <use xlink:href="#DejaVuSans-67" transform="translate(314.013672 0)"/>
       <use xlink:href="#DejaVuSans-69" transform="translate(377.490234 0)"/>
       <use xlink:href="#DejaVuSans-61" transform="translate(405.273438 0)"/>
      </g>
     </g>
    </g>
   </g>
   <g id="patch_29">
    <path d="M 115.63 612.88 
L 115.63 10.8 
" style="fill: none; stroke: #000000; stroke-width: 0.8; stroke-linejoin: miter; stroke-linecap: square"/>
   </g>
   <g id="patch_30">
    <path d="M 637.2 612.88 
L 637.2 10.8 
" style="fill: none; stroke: #000000; stroke-width: 0.8; stroke-linejoin: miter; stroke-linecap: square"/>
   </g>
   <g id="patch_31">
    <path d="M 115.63 612.88 
L 637.2 612.88 
" style="fill: none; stroke: #000000; stroke-width: 0.8; stroke-linejoin: miter; stroke-linecap: square"/>
   </g>
   <g id="patch_32">
    <path d="M 115.63 10.8 
L 637.2 10.8 
" style="fill: none; stroke: #000000; stroke-width: 0.8; stroke-linejoin: miter; stroke-linecap: square"/>
   </g>
   <g id="text_34">
    <!--  1 -->
    <g transform="translate(116.596407 579.234251) scale(0.08 -0.08)">
     <use xlink:href="#DejaVuSans-20"/>
     <use xlink:href="#DejaVuSans-31" transform="translate(31.787109 0)"/>
    </g>
   </g>
   <g id="text_35">
    <!--  1 -->
    <g transform="translate(116.596407 558.019311) scale(0.08 -0.08)">
     <use xlink:href="#DejaVuSans-20"/>
     <use xlink:href="#DejaVuSans-31" transform="translate(31.787109 0)"/>
    </g>
   </g>
   <g id="text_36">
    <!--  4 -->
    <g transform="translate(119.495629 536.804371) scale(0.08 -0.08)">
     <use xlink:href="#DejaVuSans-20"/>
     <use xlink:href="#DejaVuSans-34" transform="translate(31.787109 0)"/>
    </g>
   </g>
   <g id="text_37">
    <!--  11 -->
    <g transform="translate(126.26048 515.589431) scale(0.08 -0.08)">
     <use xlink:href="#DejaVuSans-20"/>
     <use xlink:href="#DejaVuSans-31" transform="translate(31.787109 0)"/>
     <use xlink:href="#DejaVuSans-31" transform="translate(95.410156 0)"/>
    </g>
   </g>
   <g id="text_38">
    <!--  17 -->
    <g transform="translate(132.058923 494.374491) scale(0.08 -0.08)">
     <defs>
      <path id="DejaVuSans-37" d="M 525 4666 
L 3525 4666 
L 3525 4397 
L 1831 0 
L 1172 0 
L 2766 4134 
L 525 4134 
L 525 4666 
z
" transform="scale(0.015625)"/>
     </defs>
     <use xlink:href="#DejaVuSans-20"/>
     <use xlink:href="#DejaVuSans-31" transform="translate(31.787109 0)"/>
     <use xlink:href="#DejaVuSans-37" transform="translate(95.410156 0)"/>
    </g>
   </g>
   <g id="text_39">
    <!--  20 -->
    <g transform="translate(134.958145 473.159551) scale(0.08 -0.08)">
     <use xlink:href="#DejaVuSans-20"/>
     <use xlink:href="#DejaVuSans-32" transform="translate(31.787109 0)"/>
     <use xlink:href="#DejaVuSans-30" transform="translate(95.410156 0)"/>
    </g>
   </g>
   <g id="text_40">
    <!--  20 -->
    <g transform="translate(134.958145 451.944611) scale(0.08 -0.08)">
     <use xlink:href="#DejaVuSans-20"/>
     <use xlink:href="#DejaVuSans-32" transform="translate(31.787109 0)"/>
     <use xlink:href="#DejaVuSans-30" transform="translate(95.410156 0)"/>
    </g>
   </g>
   <g id="text_41">
    <!--  22 -->
    <g transform="translate(136.89096 430.729671) scale(0.08 -0.08)">
     <use xlink:href="#DejaVuSans-20"/>
     <use xlink:href="#DejaVuSans-32" transform="translate(31.787109 0)"/>
     <use xlink:href="#DejaVuSans-32" transform="translate(95.410156 0)"/>
    </g>
   </g>
   <g id="text_42">
    <!--  40 -->
    <g transform="translate(154.286291 409.51473) scale(0.08 -0.08)">
     <use xlink:href="#DejaVuSans-20"/>
     <use xlink:href="#DejaVuSans-34" transform="translate(31.787109 0)"/>
     <use xlink:href="#DejaVuSans-30" transform="translate(95.410156 0)"/>
    </g>
   </g>
   <g id="text_43">
    <!--  52 -->
    <g transform="translate(165.883178 388.29979) scale(0.08 -0.08)">
     <use xlink:href="#DejaVuSans-20"/>
     <use xlink:href="#DejaVuSans-35" transform="translate(31.787109 0)"/>
     <use xlink:href="#DejaVuSans-32" transform="translate(95.410156 0)"/>
    </g>
   </g>
   <g id="text_44">
    <!--  56 -->
    <g transform="translate(169.748807 367.08485) scale(0.08 -0.08)">
     <defs>
      <path id="DejaVuSans-36" d="M 2113 2584 
Q 1688 2584 1439 2293 
Q 1191 2003 1191 1497 
Q 1191 994 1439 701 
Q 1688 409 2113 409 
Q 2538 409 2786 701 
Q 3034 994 3034 1497 
Q 3034 2003 2786 2293 
Q 2538 2584 2113 2584 
z
M 3366 4563 
L 3366 3988 
Q 3128 4100 2886 4159 
Q 2644 4219 2406 4219 
Q 1781 4219 1451 3797 
Q 1122 3375 1075 2522 
Q 1259 2794 1537 2939 
Q 1816 3084 2150 3084 
Q 2853 3084 3261 2657 
Q 3669 2231 3669 1497 
Q 3669 778 3244 343 
Q 2819 -91 2113 -91 
Q 1303 -91 875 529 
Q 447 1150 447 2328 
Q 447 3434 972 4092 
Q 1497 4750 2381 4750 
Q 2619 4750 2861 4703 
Q 3103 4656 3366 4563 
z
" transform="scale(0.015625)"/>
     </defs>
     <use xlink:href="#DejaVuSans-20"/>
     <use xlink:href="#DejaVuSans-35" transform="translate(31.787109 0)"/>
     <use xlink:href="#DejaVuSans-36" transform="translate(95.410156 0)"/>
    </g>
   </g>
   <g id="text_45">
    <!--  71 -->
    <g transform="translate(184.244916 345.86991) scale(0.08 -0.08)">
     <use xlink:href="#DejaVuSans-20"/>
     <use xlink:href="#DejaVuSans-37" transform="translate(31.787109 0)"/>
     <use xlink:href="#DejaVuSans-31" transform="translate(95.410156 0)"/>
    </g>
   </g>
   <g id="text_46">
    <!--  74 -->
    <g transform="translate(187.144137 324.65497) scale(0.08 -0.08)">
     <use xlink:href="#DejaVuSans-20"/>
     <use xlink:href="#DejaVuSans-37" transform="translate(31.787109 0)"/>
     <use xlink:href="#DejaVuSans-34" transform="translate(95.410156 0)"/>
    </g>
   </g>
   <g id="text_47">
    <!--  84 -->
    <g transform="translate(196.80821 303.44003) scale(0.08 -0.08)">
     <defs>
      <path id="DejaVuSans-38" d="M 2034 2216 
Q 1584 2216 1326 1975 
Q 1069 1734 1069 1313 
Q 1069 891 1326 650 
Q 1584 409 2034 409 
Q 2484 409 2743 651 
Q 3003 894 3003 1313 
Q 3003 1734 2745 1975 
Q 2488 2216 2034 2216 
z
M 1403 2484 
Q 997 2584 770 2862 
Q 544 3141 544 3541 
Q 544 4100 942 4425 
Q 1341 4750 2034 4750 
Q 2731 4750 3128 4425 
Q 3525 4100 3525 3541 
Q 3525 3141 3298 2862 
Q 3072 2584 2669 2484 
Q 3125 2378 3379 2068 
Q 3634 1759 3634 1313 
Q 3634 634 3220 271 
Q 2806 -91 2034 -91 
Q 1263 -91 848 271 
Q 434 634 434 1313 
Q 434 1759 690 2068 
Q 947 2378 1403 2484 
z
M 1172 3481 
Q 1172 3119 1398 2916 
Q 1625 2713 2034 2713 
Q 2441 2713 2670 2916 
Q 2900 3119 2900 3481 
Q 2900 3844 2670 4047 
Q 2441 4250 2034 4250 
Q 1625 4250 1398 4047 
Q 1172 3844 1172 3481 
z
" transform="scale(0.015625)"/>
     </defs>
     <use xlink:href="#DejaVuSans-20"/>
     <use xlink:href="#DejaVuSans-38" transform="translate(31.787109 0)"/>
     <use xlink:href="#DejaVuSans-34" transform="translate(95.410156 0)"/>
    </g>
   </g>
   <g id="text_48">
    <!--  92 -->
    <g transform="translate(204.539468 282.22509) scale(0.08 -0.08)">
     <defs>
      <path id="DejaVuSans-39" d="M 703 97 
L 703 672 
Q 941 559 1184 500 
Q 1428 441 1663 441 
Q 2288 441 2617 861 
Q 2947 1281 2994 2138 
Q 2813 1869 2534 1725 
Q 2256 1581 1919 1581 
Q 1219 1581 811 2004 
Q 403 2428 403 3163 
Q 403 3881 828 4315 
Q 1253 4750 1959 4750 
Q 2769 4750 3195 4129 
Q 3622 3509 3622 2328 
Q 3622 1225 3098 567 
Q 2575 -91 1691 -91 
Q 1453 -91 1209 -44 
Q 966 3 703 97 
z
M 1959 2075 
Q 2384 2075 2632 2365 
Q 2881 2656 2881 3163 
Q 2881 3666 2632 3958 
Q 2384 4250 1959 4250 
Q 1534 4250 1286 3958 
Q 1038 3666 1038 3163 
Q 1038 2656 1286 2365 
Q 1534 2075 1959 2075 
z
" transform="scale(0.015625)"/>
     </defs>
     <use xlink:href="#DejaVuSans-20"/>
     <use xlink:href="#DejaVuSans-39" transform="translate(31.787109 0)"/>
     <use xlink:href="#DejaVuSans-32" transform="translate(95.410156 0)"/>
    </g>
   </g>
   <g id="text_49">
    <!--  112 -->
    <g transform="translate(223.867613 261.01015) scale(0.08 -0.08)">
     <use xlink:href="#DejaVuSans-20"/>
     <use xlink:href="#DejaVuSans-31" transform="translate(31.787109 0)"/>
     <use xlink:href="#DejaVuSans-31" transform="translate(95.410156 0)"/>
     <use xlink:href="#DejaVuSans-32" transform="translate(159.033203 0)"/>
    </g>
   </g>
   <g id="text_50">
    <!--  129 -->
    <g transform="translate(240.296537 239.79521) scale(0.08 -0.08)">
     <use xlink:href="#DejaVuSans-20"/>
     <use xlink:href="#DejaVuSans-31" transform="translate(31.787109 0)"/>
     <use xlink:href="#DejaVuSans-32" transform="translate(95.410156 0)"/>
     <use xlink:href="#DejaVuSans-39" transform="translate(159.033203 0)"/>
    </g>
   </g>
   <g id="text_51">
    <!--  167 -->
    <g transform="translate(277.020013 218.58027) scale(0.08 -0.08)">
     <use xlink:href="#DejaVuSans-20"/>
     <use xlink:href="#DejaVuSans-31" transform="translate(31.787109 0)"/>
     <use xlink:href="#DejaVuSans-36" transform="translate(95.410156 0)"/>
     <use xlink:href="#DejaVuSans-37" transform="translate(159.033203 0)"/>
    </g>
   </g>
   <g id="text_52">
    <!--  201 -->
    <g transform="translate(309.87786 197.365329) scale(0.08 -0.08)">
     <use xlink:href="#DejaVuSans-20"/>
     <use xlink:href="#DejaVuSans-32" transform="translate(31.787109 0)"/>
     <use xlink:href="#DejaVuSans-30" transform="translate(95.410156 0)"/>
     <use xlink:href="#DejaVuSans-31" transform="translate(159.033203 0)"/>
    </g>
   </g>
   <g id="text_53">
    <!--  227 -->
    <g transform="translate(335.004449 176.150389) scale(0.08 -0.08)">
     <use xlink:href="#DejaVuSans-20"/>
     <use xlink:href="#DejaVuSans-32" transform="translate(31.787109 0)"/>
     <use xlink:href="#DejaVuSans-32" transform="translate(95.410156 0)"/>
     <use xlink:href="#DejaVuSans-37" transform="translate(159.033203 0)"/>
    </g>
   </g>
   <g id="text_54">
    <!--  255 -->
    <g transform="translate(362.063852 154.935449) scale(0.08 -0.08)">
     <use xlink:href="#DejaVuSans-20"/>
     <use xlink:href="#DejaVuSans-32" transform="translate(31.787109 0)"/>
     <use xlink:href="#DejaVuSans-35" transform="translate(95.410156 0)"/>
     <use xlink:href="#DejaVuSans-35" transform="translate(159.033203 0)"/>
    </g>
   </g>
   <g id="text_55">
    <!--  276 -->
    <g transform="translate(382.358405 133.720509) scale(0.08 -0.08)">
     <use xlink:href="#DejaVuSans-20"/>
     <use xlink:href="#DejaVuSans-32" transform="translate(31.787109 0)"/>
     <use xlink:href="#DejaVuSans-37" transform="translate(95.410156 0)"/>
     <use xlink:href="#DejaVuSans-36" transform="translate(159.033203 0)"/>
    </g>
   </g>
   <g id="text_56">
    <!--  281 -->
    <g transform="translate(387.190441 112.505569) scale(0.08 -0.08)">
     <use xlink:href="#DejaVuSans-20"/>
     <use xlink:href="#DejaVuSans-32" transform="translate(31.787109 0)"/>
     <use xlink:href="#DejaVuSans-38" transform="translate(95.410156 0)"/>
     <use xlink:href="#DejaVuSans-31" transform="translate(159.033203 0)"/>
    </g>
   </g>
   <g id="text_57">
    <!--  397 -->
    <g transform="translate(499.293684 91.290629) scale(0.08 -0.08)">
     <use xlink:href="#DejaVuSans-20"/>
     <use xlink:href="#DejaVuSans-33" transform="translate(31.787109 0)"/>
     <use xlink:href="#DejaVuSans-39" transform="translate(95.410156 0)"/>
     <use xlink:href="#DejaVuSans-37" transform="translate(159.033203 0)"/>
    </g>
   </g>
   <g id="text_58">
    <!--  433 -->
    <g transform="translate(534.084345 70.075689) scale(0.08 -0.08)">
     <use xlink:href="#DejaVuSans-20"/>
     <use xlink:href="#DejaVuSans-34" transform="translate(31.787109 0)"/>
     <use xlink:href="#DejaVuSans-33" transform="translate(95.410156 0)"/>
     <use xlink:href="#DejaVuSans-33" transform="translate(159.033203 0)"/>
    </g>
   </g>
   <g id="text_59">
    <!--  514 -->
    <g transform="translate(612.363333 48.860749) scale(0.08 -0.08)">
     <use xlink:href="#DejaVuSans-20"/>
     <use xlink:href="#DejaVuSans-35" transform="translate(31.787109 0)"/>
     <use xlink:href="#DejaVuSans-31" transform="translate(95.410156 0)"/>
     <use xlink:href="#DejaVuSans-34" transform="translate(159.033203 0)"/>
    </g>
   </g>
   <g id="legend_1">
    <g id="patch_33">
     <path d="M 473.945625 608.38 
L 630.9 608.38 
Q 632.7 608.38 632.7 606.58 
L 632.7 580.339375 
Q 632.7 578.539375 630.9 578.539375 
L 473.945625 578.539375 
Q 472.145625 578.539375 472.145625 580.339375 
L 472.145625 606.58 
Q 472.145625 608.38 473.945625 608.38 
z
" style="fill: #ffffff; opacity: 0.8; stroke: #cccccc; stroke-linejoin: miter"/>
    </g>
    <g id="patch_34">
     <path d="M 475.745625 589.337969 
L 493.745625 589.337969 
L 493.745625 583.037969 
L 475.745625 583.037969 
z
" style="fill: #4c72b0"/>
    </g>
    <g id="text_60">
     <!-- catálogo antigo (Etapas 1-2) -->
     <g transform="translate(500.945625 589.337969) scale(0.09 -0.09)">
      <defs>
       <path id="DejaVuSans-45" d="M 628 4666 
L 3578 4666 
L 3578 4134 
L 1259 4134 
L 1259 2753 
L 3481 2753 
L 3481 2222 
L 1259 2222 
L 1259 531 
L 3634 531 
L 3634 0 
L 628 0 
L 628 4666 
z
" transform="scale(0.015625)"/>
       <path id="DejaVuSans-2d" d="M 313 2009 
L 1997 2009 
L 1997 1497 
L 313 1497 
L 313 2009 
z
" transform="scale(0.015625)"/>
      </defs>
      <use xlink:href="#DejaVuSans-63"/>
      <use xlink:href="#DejaVuSans-61" transform="translate(54.980469 0)"/>
      <use xlink:href="#DejaVuSans-74" transform="translate(116.259766 0)"/>
      <use xlink:href="#DejaVuSans-e1" transform="translate(155.46875 0)"/>
      <use xlink:href="#DejaVuSans-6c" transform="translate(216.748047 0)"/>
      <use xlink:href="#DejaVuSans-6f" transform="translate(244.53125 0)"/>
      <use xlink:href="#DejaVuSans-67" transform="translate(305.712891 0)"/>
      <use xlink:href="#DejaVuSans-6f" transform="translate(369.189453 0)"/>
      <use xlink:href="#DejaVuSans-20" transform="translate(430.371094 0)"/>
      <use xlink:href="#DejaVuSans-61" transform="translate(462.158203 0)"/>
      <use xlink:href="#DejaVuSans-6e" transform="translate(523.4375 0)"/>
      <use xlink:href="#DejaVuSans-74" transform="translate(586.816406 0)"/>
      <use xlink:href="#DejaVuSans-69" transform="translate(626.025391 0)"/>
      <use xlink:href="#DejaVuSans-67" transform="translate(653.808594 0)"/>
      <use xlink:href="#DejaVuSans-6f" transform="translate(717.285156 0)"/>
      <use xlink:href="#DejaVuSans-20" transform="translate(778.466797 0)"/>
      <use xlink:href="#DejaVuSans-28" transform="translate(810.253906 0)"/>
      <use xlink:href="#DejaVuSans-45" transform="translate(849.267578 0)"/>
      <use xlink:href="#DejaVuSans-74" transform="translate(912.451172 0)"/>
      <use xlink:href="#DejaVuSans-61" transform="translate(951.660156 0)"/>
      <use xlink:href="#DejaVuSans-70" transform="translate(1012.939453 0)"/>
      <use xlink:href="#DejaVuSans-61" transform="translate(1076.416016 0)"/>
      <use xlink:href="#DejaVuSans-73" transform="translate(1137.695312 0)"/>
      <use xlink:href="#DejaVuSans-20" transform="translate(1189.794922 0)"/>
      <use xlink:href="#DejaVuSans-31" transform="translate(1221.582031 0)"/>
      <use xlink:href="#DejaVuSans-2d" transform="translate(1285.205078 0)"/>
      <use xlink:href="#DejaVuSans-32" transform="translate(1321.289062 0)"/>
      <use xlink:href="#DejaVuSans-29" transform="translate(1384.912109 0)"/>
     </g>
    </g>
    <g id="patch_35">
     <path d="M 475.745625 602.908281 
L 493.745625 602.908281 
L 493.745625 596.608281 
L 475.745625 596.608281 
z
" style="fill: #dd8452"/>
    </g>
    <g id="text_61">
     <!-- catálogo novo (Etapa 3) -->
     <g transform="translate(500.945625 602.908281) scale(0.09 -0.09)">
      <use xlink:href="#DejaVuSans-63"/>
      <use xlink:href="#DejaVuSans-61" transform="translate(54.980469 0)"/>
      <use xlink:href="#DejaVuSans-74" transform="translate(116.259766 0)"/>
      <use xlink:href="#DejaVuSans-e1" transform="translate(155.46875 0)"/>
      <use xlink:href="#DejaVuSans-6c" transform="translate(216.748047 0)"/>
      <use xlink:href="#DejaVuSans-6f" transform="translate(244.53125 0)"/>
      <use xlink:href="#DejaVuSans-67" transform="translate(305.712891 0)"/>
      <use xlink:href="#DejaVuSans-6f" transform="translate(369.189453 0)"/>
      <use xlink:href="#DejaVuSans-20" transform="translate(430.371094 0)"/>
      <use xlink:href="#DejaVuSans-6e" transform="translate(462.158203 0)"/>
      <use xlink:href="#DejaVuSans-6f" transform="translate(525.537109 0)"/>
      <use xlink:href="#DejaVuSans-76" transform="translate(586.71875 0)"/>
      <use xlink:href="#DejaVuSans-6f" transform="translate(645.898438 0)"/>
      <use xlink:href="#DejaVuSans-20" transform="translate(707.080078 0)"/>
      <use xlink:href="#DejaVuSans-28" transform="translate(738.867188 0)"/>
      <use xlink:href="#DejaVuSans-45" transform="translate(777.880859 0)"/>
      <use xlink:href="#DejaVuSans-74" transform="translate(841.064453 0)"/>
      <use xlink:href="#DejaVuSans-61" transform="translate(880.273438 0)"/>
      <use xlink:href="#DejaVuSans-70" transform="translate(941.552734 0)"/>
      <use xlink:href="#DejaVuSans-61" transform="translate(1005.029297 0)"/>
      <use xlink:href="#DejaVuSans-20" transform="translate(1066.308594 0)"/>
      <use xlink:href="#DejaVuSans-33" transform="translate(1098.095703 0)"/>
      <use xlink:href="#DejaVuSans-29" transform="translate(1161.71875 0)"/>
     </g>
    </g>
   </g>
  </g>
 </g>
 <defs>
  <clipPath id="pe85eab4ed0">
   <rect x="115.63" y="10.8" width="521.57" height="602.08"/>
  </clipPath>
 </defs>
</svg>
