<?xml version="1.0" encoding="utf-8" standalone="no"?>
<!DOCTYPE svg PUBLIC "-//W3C//DTD SVG 1.1//EN"
  "http://www.w3.org/Graphics/SVG/1.1/DTD/svg11.dtd">
<svg xmlns:xlink="http://www.w3.org/1999/xlink" width="684pt" height="568.8pt" viewBox="0 0 684 568.8" xmlns="http://www.w3.org/2000/svg" version="1.1">
 <metadata>
  <rdf:RDF xmlns:dc="http://purl.org/dc/elements/1.1/" xmlns:cc="http://creativecommons.org/ns#" xmlns:rdf="http://www.w3.org/1999/02/22-rdf-syntax-ns#">
   <cc:Work>
    <dc:type rdf:resource="http://purl.org/dc/dcmitype/StillImage"/>
    <dc:date>2026-05-23T22:41:45.991586</dc:date>
    <dc:format>image/svg+xml</dc:format>
    <dc:creator>
     <cc:Agent>
      <dc:title>Matplotlib v3.10.9, https://matplotlib.org/</dc:title>
     </cc:Agent>
    </dc:creator>
   </cc:Work>
  </rdf:RDF>
 </metadata>
 <defs>
  <style type="text/css">*{stroke-linejoin: round; stroke-linecap: butt}</style>
 </defs>
 <g id="figure_1">
  <g id="patch_1">
   <path d="M 0 568.8 
L 684 568.8 
L 684 0 
L 0 0 
z
" style="fill: #ffffff"/>
  </g>
  <g id="axes_1">
   <g id="LineCollection_1">
    <path d="M 420.376508 272.059572 
L 489.138013 142.363554 
" clip-path="url(#p9076b5e187)" style="fill: none; stroke: #adadad; stroke-opacity: 0.85; stroke-width: 1.035983"/>
    <path d="M 420.376508 272.059572 
L 300.455403 193.488379 
" clip-path="url(#p9076b5e187)" style="fill: none; stroke: #aaaaaa; stroke-opacity: 0.85; stroke-width: 1.086192"/>
    <path d="M 420.376508 272.059572 
L 65.305785 229.81343 
" clip-path="url(#p9076b5e187)" style="fill: none; stroke: #bfbfbf; stroke-opacity: 0.85; stroke-width: 0.517155"/>
    <path d="M 420.376508 272.059572 
L 375.66046 67.208403 
" clip-path="url(#p9076b5e187)" style="fill: none; stroke: #b0b0b0; stroke-opacity: 0.85; stroke-width: 0.935565"/>
    <path d="M 420.376508 272.059572 
L 366.782953 252.116328 
" clip-path="url(#p9076b5e187)" style="fill: none; stroke: #2e2e2e; stroke-opacity: 0.85; stroke-width: 4.4"/>
    <path d="M 420.376508 272.059572 
L 524.301471 237.782661 
" clip-path="url(#p9076b5e187)" style="fill: none; stroke: #959595; stroke-opacity: 0.85; stroke-width: 1.605021"/>
    <path d="M 420.376508 272.059572 
L 397.234304 168.720286 
" clip-path="url(#p9076b5e187)" style="fill: none; stroke: #8f8f8f; stroke-opacity: 0.85; stroke-width: 1.789121"/>
    <path d="M 420.376508 272.059572 
L 260.808717 312.839688 
" clip-path="url(#p9076b5e187)" style="fill: none; stroke: #a9a9a9; stroke-opacity: 0.85; stroke-width: 1.119665"/>
    <path d="M 420.376508 272.059572 
L 350.538847 513.490909 
" clip-path="url(#p9076b5e187)" style="fill: none; stroke: #b6b6b6; stroke-opacity: 0.85; stroke-width: 0.768201"/>
    <path d="M 420.376508 272.059572 
L 404.670332 435.944018 
" clip-path="url(#p9076b5e187)" style="fill: none; stroke: #b2b2b2; stroke-opacity: 0.85; stroke-width: 0.885356"/>
    <path d="M 420.376508 272.059572 
L 618.694215 447.267948 
" clip-path="url(#p9076b5e187)" style="fill: none; stroke: #bababa; stroke-opacity: 0.85; stroke-width: 0.684519"/>
    <path d="M 420.376508 272.059572 
L 552.895425 55.309091 
" clip-path="url(#p9076b5e187)" style="fill: none; stroke: #bababa; stroke-opacity: 0.85; stroke-width: 0.684519"/>
    <path d="M 489.138013 142.363554 
L 300.455403 193.488379 
" clip-path="url(#p9076b5e187)" style="fill: none; stroke: #bebebe; stroke-opacity: 0.85; stroke-width: 0.550628"/>
    <path d="M 489.138013 142.363554 
L 552.895425 55.309091 
" clip-path="url(#p9076b5e187)" style="fill: none; stroke: #b9b9b9; stroke-opacity: 0.85; stroke-width: 0.701255"/>
    <path d="M 489.138013 142.363554 
L 375.66046 67.208403 
" clip-path="url(#p9076b5e187)" style="fill: none; stroke: #bebebe; stroke-opacity: 0.85; stroke-width: 0.567364"/>
    <path d="M 489.138013 142.363554 
L 366.782953 252.116328 
" clip-path="url(#p9076b5e187)" style="fill: none; stroke: #a8a8a8; stroke-opacity: 0.85; stroke-width: 1.136402"/>
    <path d="M 489.138013 142.363554 
L 524.301471 237.782661 
" clip-path="url(#p9076b5e187)" style="fill: none; stroke: #bbbbbb; stroke-opacity: 0.85; stroke-width: 0.63431"/>
    <path d="M 489.138013 142.363554 
L 397.234304 168.720286 
" clip-path="url(#p9076b5e187)" style="fill: none; stroke: #bbbbbb; stroke-opacity: 0.85; stroke-width: 0.651046"/>
    <path d="M 489.138013 142.363554 
L 260.808717 312.839688 
" clip-path="url(#p9076b5e187)" style="fill: none; stroke: #c0c0c0; stroke-opacity: 0.85; stroke-width: 0.500418"/>
    <path d="M 300.455403 193.488379 
L 65.305785 229.81343 
" clip-path="url(#p9076b5e187)" style="fill: none; stroke: #bebebe; stroke-opacity: 0.85; stroke-width: 0.550628"/>
    <path d="M 300.455403 193.488379 
L 524.301471 237.782661 
" clip-path="url(#p9076b5e187)" style="fill: none; stroke: #bfbfbf; stroke-opacity: 0.85; stroke-width: 0.533891"/>
    <path d="M 300.455403 193.488379 
L 375.66046 67.208403 
" clip-path="url(#p9076b5e187)" style="fill: none; stroke: #bdbdbd; stroke-opacity: 0.85; stroke-width: 0.617573"/>
    <path d="M 300.455403 193.488379 
L 366.782953 252.116328 
" clip-path="url(#p9076b5e187)" style="fill: none; stroke: #3d3d3d; stroke-opacity: 0.85; stroke-width: 4.048536"/>
    <path d="M 300.455403 193.488379 
L 552.895425 55.309091 
" clip-path="url(#p9076b5e187)" style="fill: none; stroke: #c0c0c0; stroke-opacity: 0.85; stroke-width: 0.483682"/>
    <path d="M 300.455403 193.488379 
L 397.234304 168.720286 
" clip-path="url(#p9076b5e187)" style="fill: none; stroke: #ababab; stroke-opacity: 0.85; stroke-width: 1.05272"/>
    <path d="M 300.455403 193.488379 
L 260.808717 312.839688 
" clip-path="url(#p9076b5e187)" style="fill: none; stroke: #bababa; stroke-opacity: 0.85; stroke-width: 0.667782"/>
    <path d="M 65.305785 229.81343 
L 366.782953 252.116328 
" clip-path="url(#p9076b5e187)" style="fill: none; stroke: #bebebe; stroke-opacity: 0.85; stroke-width: 0.5841"/>
    <path d="M 65.305785 229.81343 
L 260.808717 312.839688 
" clip-path="url(#p9076b5e187)" style="fill: none; stroke: #c0c0c0; stroke-opacity: 0.85; stroke-width: 0.500418"/>
    <path d="M 524.301471 237.782661 
L 366.782953 252.116328 
" clip-path="url(#p9076b5e187)" style="fill: none; stroke: #a9a9a9; stroke-opacity: 0.85; stroke-width: 1.102929"/>
    <path d="M 524.301471 237.782661 
L 375.66046 67.208403 
" clip-path="url(#p9076b5e187)" style="fill: none; stroke: #bbbbbb; stroke-opacity: 0.85; stroke-width: 0.651046"/>
    <path d="M 524.301471 237.782661 
L 397.234304 168.720286 
" clip-path="url(#p9076b5e187)" style="fill: none; stroke: #b8b8b8; stroke-opacity: 0.85; stroke-width: 0.734728"/>
    <path d="M 524.301471 237.782661 
L 404.670332 435.944018 
" clip-path="url(#p9076b5e187)" style="fill: none; stroke: #c0c0c0; stroke-opacity: 0.85; stroke-width: 0.483682"/>
    <path d="M 524.301471 237.782661 
L 618.694215 447.267948 
" clip-path="url(#p9076b5e187)" style="fill: none; stroke: #c0c0c0; stroke-opacity: 0.85; stroke-width: 0.483682"/>
    <path d="M 524.301471 237.782661 
L 552.895425 55.309091 
" clip-path="url(#p9076b5e187)" style="fill: none; stroke: #bdbdbd; stroke-opacity: 0.85; stroke-width: 0.600837"/>
    <path d="M 366.782953 252.116328 
L 375.66046 67.208403 
" clip-path="url(#p9076b5e187)" style="fill: none; stroke: #b5b5b5; stroke-opacity: 0.85; stroke-width: 0.801674"/>
    <path d="M 366.782953 252.116328 
L 397.234304 168.720286 
" clip-path="url(#p9076b5e187)" style="fill: none; stroke: #8f8f8f; stroke-opacity: 0.85; stroke-width: 1.789121"/>
    <path d="M 366.782953 252.116328 
L 260.808717 312.839688 
" clip-path="url(#p9076b5e187)" style="fill: none; stroke: #a8a8a8; stroke-opacity: 0.85; stroke-width: 1.136402"/>
    <path d="M 366.782953 252.116328 
L 404.670332 435.944018 
" clip-path="url(#p9076b5e187)" style="fill: none; stroke: #b6b6b6; stroke-opacity: 0.85; stroke-width: 0.784937"/>
    <path d="M 366.782953 252.116328 
L 350.538847 513.490909 
" clip-path="url(#p9076b5e187)" style="fill: none; stroke: #b8b8b8; stroke-opacity: 0.85; stroke-width: 0.751464"/>
    <path d="M 366.782953 252.116328 
L 618.694215 447.267948 
" clip-path="url(#p9076b5e187)" style="fill: none; stroke: #bebebe; stroke-opacity: 0.85; stroke-width: 0.550628"/>
    <path d="M 366.782953 252.116328 
L 552.895425 55.309091 
" clip-path="url(#p9076b5e187)" style="fill: none; stroke: #bdbdbd; stroke-opacity: 0.85; stroke-width: 0.600837"/>
    <path d="M 375.66046 67.208403 
L 260.808717 312.839688 
" clip-path="url(#p9076b5e187)" style="fill: none; stroke: #c0c0c0; stroke-opacity: 0.85; stroke-width: 0.483682"/>
    <path d="M 375.66046 67.208403 
L 552.895425 55.309091 
" clip-path="url(#p9076b5e187)" style="fill: none; stroke: #bebebe; stroke-opacity: 0.85; stroke-width: 0.550628"/>
    <path d="M 397.234304 168.720286 
L 260.808717 312.839688 
" clip-path="url(#p9076b5e187)" style="fill: none; stroke: #bebebe; stroke-opacity: 0.85; stroke-width: 0.567364"/>
    <path d="M 397.234304 168.720286 
L 552.895425 55.309091 
" clip-path="url(#p9076b5e187)" style="fill: none; stroke: #bebebe; stroke-opacity: 0.85; stroke-width: 0.5841"/>
    <path d="M 260.808717 312.839688 
L 404.670332 435.944018 
" clip-path="url(#p9076b5e187)" style="fill: none; stroke: #bfbfbf; stroke-opacity: 0.85; stroke-width: 0.533891"/>
    <path d="M 260.808717 312.839688 
L 350.538847 513.490909 
" clip-path="url(#p9076b5e187)" style="fill: none; stroke: #c0c0c0; stroke-opacity: 0.85; stroke-width: 0.483682"/>
    <path d="M 404.670332 435.944018 
L 350.538847 513.490909 
" clip-path="url(#p9076b5e187)" style="fill: none; stroke: #bdbdbd; stroke-opacity: 0.85; stroke-width: 0.617573"/>
    <path d="M 404.670332 435.944018 
L 618.694215 447.267948 
" clip-path="url(#p9076b5e187)" style="fill: none; stroke: #bfbfbf; stroke-opacity: 0.85; stroke-width: 0.533891"/>
   </g>
   <g id="PathCollection_1">
    <path d="M 420.376508 289.546378 
C 425.014063 289.546378 429.4623 287.703858 432.741547 284.424611 
C 436.020794 281.145365 437.863314 276.697127 437.863314 272.059572 
C 437.863314 267.422017 436.020794 262.97378 432.741547 259.694533 
C 429.4623 256.415286 425.014063 254.572766 420.376508 254.572766 
C 415.738953 254.572766 411.290715 256.415286 408.011469 259.694533 
C 404.732222 262.97378 402.889702 267.422017 402.889702 272.059572 
C 402.889702 276.697127 404.732222 281.145365 408.011469 284.424611 
C 411.290715 287.703858 415.738953 289.546378 420.376508 289.546378 
z
" clip-path="url(#p9076b5e187)" style="fill: #b22222; stroke: #303030; stroke-width: 0.8"/>
    <path d="M 489.138013 154.711688 
C 492.412777 154.711688 495.553855 153.410611 497.869462 151.095004 
C 500.18507 148.779396 501.486147 145.638318 501.486147 142.363554 
C 501.486147 139.088791 500.18507 135.947712 497.869462 133.632105 
C 495.553855 131.316498 492.412777 130.01542 489.138013 130.01542 
C 485.86325 130.01542 482.722171 131.316498 480.406564 133.632105 
C 478.090956 135.947712 476.789879 139.088791 476.789879 142.363554 
C 476.789879 145.638318 478.090956 148.779396 480.406564 151.095004 
C 482.722171 153.410611 485.86325 154.711688 489.138013 154.711688 
z
" clip-path="url(#p9076b5e187)" style="fill: #808080; stroke: #303030; stroke-width: 0.8"/>
    <path d="M 300.455403 207.237612 
C 304.101742 207.237612 307.599228 205.788906 310.177579 203.210555 
C 312.75593 200.632204 314.204636 197.134718 314.204636 193.488379 
C 314.204636 189.84204 312.75593 186.344554 310.177579 183.766203 
C 307.599228 181.187852 304.101742 179.739146 300.455403 179.739146 
C 296.809064 179.739146 293.311578 181.187852 290.733227 183.766203 
C 288.154876 186.344554 286.70617 189.84204 286.70617 193.488379 
C 286.70617 197.134718 288.154876 200.632204 290.733227 203.210555 
C 293.311578 205.788906 296.809064 207.237612 300.455403 207.237612 
z
" clip-path="url(#p9076b5e187)" style="fill: #808080; stroke: #303030; stroke-width: 0.8"/>
    <path d="M 65.305785 239.053748 
C 67.756346 239.053748 70.106869 238.08013 71.839677 236.347322 
C 73.572485 234.614513 74.546104 232.263991 74.546104 229.81343 
C 74.546104 227.362869 73.572485 225.012346 71.839677 223.279538 
C 70.106869 221.54673 67.756346 220.573111 65.305785 220.573111 
C 62.855224 220.573111 60.504702 221.54673 58.771893 223.279538 
C 57.039085 225.012346 56.065467 227.362869 56.065467 229.81343 
C 56.065467 232.263991 57.039085 234.614513 58.771893 236.347322 
C 60.504702 238.08013 62.855224 239.053748 65.305785 239.053748 
z
" clip-path="url(#p9076b5e187)" style="fill: #808080; stroke: #303030; stroke-width: 0.8"/>
    <path d="M 524.301471 251.698032 
C 527.991871 251.698032 531.531618 250.231821 534.141125 247.622315 
C 536.750631 245.012808 538.216842 241.473061 538.216842 237.782661 
C 538.216842 234.092262 536.750631 230.552515 534.141125 227.943008 
C 531.531618 225.333502 527.991871 223.86729 524.301471 223.86729 
C 520.611072 223.86729 517.071324 225.333502 514.461818 227.943008 
C 511.852311 230.552515 510.3861 234.092262 510.3861 237.782661 
C 510.3861 241.473061 511.852311 245.012808 514.461818 247.622315 
C 517.071324 250.231821 520.611072 251.698032 524.301471 251.698032 
z
" clip-path="url(#p9076b5e187)" style="fill: #808080; stroke: #303030; stroke-width: 0.8"/>
    <path d="M 366.782953 270.83372 
C 371.746863 270.83372 376.508133 268.861537 380.018147 265.351523 
C 383.528162 261.841508 385.500344 257.080238 385.500344 252.116328 
C 385.500344 247.152418 383.528162 242.391149 380.018147 238.881134 
C 376.508133 235.37112 371.746863 233.398937 366.782953 233.398937 
C 361.819043 233.398937 357.057773 235.37112 353.547759 238.881134 
C 350.037744 242.391149 348.065562 247.152418 348.065562 252.116328 
C 348.065562 257.080238 350.037744 261.841508 353.547759 265.351523 
C 357.057773 268.861537 361.819043 270.83372 366.782953 270.83372 
z
" clip-path="url(#p9076b5e187)" style="fill: #808080; stroke: #303030; stroke-width: 0.8"/>
    <path d="M 375.66046 78.575093 
C 378.674942 78.575093 381.566364 77.377427 383.697924 75.245866 
C 385.829484 73.114306 387.027151 70.222884 387.027151 67.208403 
C 387.027151 64.193921 385.829484 61.302499 383.697924 59.170939 
C 381.566364 57.039379 378.674942 55.841712 375.66046 55.841712 
C 372.645979 55.841712 369.754557 57.039379 367.622996 59.170939 
C 365.491436 61.302499 364.29377 64.193921 364.29377 67.208403 
C 364.29377 70.222884 365.491436 73.114306 367.622996 75.245866 
C 369.754557 77.377427 372.645979 78.575093 375.66046 78.575093 
z
" clip-path="url(#p9076b5e187)" style="fill: #808080; stroke: #303030; stroke-width: 0.8"/>
    <path d="M 397.234304 182.063255 
C 400.7729 182.063255 404.167042 180.657355 406.669207 178.15519 
C 409.171373 175.653024 410.577272 172.258883 410.577272 168.720286 
C 410.577272 165.18169 409.171373 161.787549 406.669207 159.285383 
C 404.167042 156.783217 400.7729 155.377318 397.234304 155.377318 
C 393.695707 155.377318 390.301566 156.783217 387.7994 159.285383 
C 385.297235 161.787549 383.891335 165.18169 383.891335 168.720286 
C 383.891335 172.258883 385.297235 175.653024 387.7994 178.15519 
C 390.301566 180.657355 393.695707 182.063255 397.234304 182.063255 
z
" clip-path="url(#p9076b5e187)" style="fill: #808080; stroke: #303030; stroke-width: 0.8"/>
    <path d="M 260.808717 324.591714 
C 263.925391 324.591714 266.914834 323.353446 269.118655 321.149625 
C 271.322476 318.945804 272.560744 315.956361 272.560744 312.839688 
C 272.560744 309.723014 271.322476 306.733572 269.118655 304.52975 
C 266.914834 302.325929 263.925391 301.087662 260.808717 301.087662 
C 257.692044 301.087662 254.702601 302.325929 252.49878 304.52975 
C 250.294959 306.733572 249.056691 309.723014 249.056691 312.839688 
C 249.056691 315.956361 250.294959 318.945804 252.49878 321.149625 
C 254.702601 323.353446 257.692044 324.591714 260.808717 324.591714 
z
" clip-path="url(#p9076b5e187)" style="fill: #808080; stroke: #303030; stroke-width: 0.8"/>
    <path d="M 404.670332 446.977374 
C 407.596412 446.977374 410.403042 445.81483 412.472093 443.745779 
C 414.541144 441.676728 415.703688 438.870098 415.703688 435.944018 
C 415.703688 433.017938 414.541144 430.211308 412.472093 428.142257 
C 410.403042 426.073206 407.596412 424.910662 404.670332 424.910662 
C 401.744252 424.910662 398.937622 426.073206 396.868571 428.142257 
C 394.79952 430.211308 393.636976 433.017938 393.636976 435.944018 
C 393.636976 438.870098 394.79952 441.676728 396.868571 443.745779 
C 398.937622 445.81483 401.744252 446.977374 404.670332 446.977374 
z
" clip-path="url(#p9076b5e187)" style="fill: #808080; stroke: #303030; stroke-width: 0.8"/>
    <path d="M 350.538847 522.822685 
C 353.013663 522.822685 355.38745 521.83943 357.137409 520.089471 
C 358.887368 518.339512 359.870622 515.965725 359.870622 513.490909 
C 359.870622 511.016093 358.887368 508.642306 357.137409 506.892347 
C 355.38745 505.142388 353.013663 504.159133 350.538847 504.159133 
C 348.064031 504.159133 345.690244 505.142388 343.940285 506.892347 
C 342.190326 508.642306 341.207071 511.016093 341.207071 513.490909 
C 341.207071 515.965725 342.190326 518.339512 343.940285 520.089471 
C 345.690244 521.83943 348.064031 522.822685 350.538847 522.822685 
z
" clip-path="url(#p9076b5e187)" style="fill: #808080; stroke: #303030; stroke-width: 0.8"/>
    <path d="M 618.694215 456.314858 
C 621.093484 456.314858 623.394807 455.361619 625.091346 453.665079 
C 626.787886 451.96854 627.741125 449.667217 627.741125 447.267948 
C 627.741125 444.868679 626.787886 442.567355 625.091346 440.870816 
C 623.394807 439.174277 621.093484 438.221038 618.694215 438.221038 
C 616.294946 438.221038 613.993622 439.174277 612.297083 440.870816 
C 610.600544 442.567355 609.647305 444.868679 609.647305 447.267948 
C 609.647305 449.667217 610.600544 451.96854 612.297083 453.665079 
C 613.993622 455.361619 616.294946 456.314858 618.694215 456.314858 
z
" clip-path="url(#p9076b5e187)" style="fill: #808080; stroke: #303030; stroke-width: 0.8"/>
    <path d="M 552.895425 66.240639 
C 555.794505 66.240639 558.575237 65.088822 560.625197 63.038863 
C 562.675156 60.988903 563.826973 58.208171 563.826973 55.309091 
C 563.826973 52.41001 562.675156 49.629279 560.625197 47.579319 
C 558.575237 45.52936 555.794505 44.377543 552.895425 44.377543 
C 549.996344 44.377543 547.215612 45.52936 545.165653 47.579319 
C 543.115694 49.629279 541.963877 52.41001 541.963877 55.309091 
C 541.963877 58.208171 543.115694 60.988903 545.165653 63.038863 
C 547.215612 65.088822 549.996344 66.240639 552.895425 66.240639 
z
" clip-path="url(#p9076b5e187)" style="fill: #808080; stroke: #303030; stroke-width: 0.8"/>
   </g>
   <g id="text_1">
    <g id="patch_2">
     <path d="M 404.701039 277.584728 
L 436.051977 277.584728 
L 436.051977 266.534416 
L 404.701039 266.534416 
z
" clip-path="url(#p9076b5e187)" style="fill: #ffffff; opacity: 0.75"/>
    </g>
    <g clip-path="url(#p9076b5e187)">
     <!-- militar -->
     <g transform="translate(405.871039 274.54301) scale(0.09 -0.09)">
      <defs>
       <path id="DejaVuSans-6d" d="M 3328 2828 
Q 3544 3216 3844 3400 
Q 4144 3584 4550 3584 
Q 5097 3584 5394 3201 
Q 5691 2819 5691 2113 
L 5691 0 
L 5113 0 
L 5113 2094 
Q 5113 2597 4934 2840 
Q 4756 3084 4391 3084 
Q 3944 3084 3684 2787 
Q 3425 2491 3425 1978 
L 3425 0 
L 2847 0 
L 2847 2094 
Q 2847 2600 2669 2842 
Q 2491 3084 2119 3084 
Q 1678 3084 1418 2786 
Q 1159 2488 1159 1978 
L 1159 0 
L 581 0 
L 581 3500 
L 1159 3500 
L 1159 2956 
Q 1356 3278 1631 3431 
Q 1906 3584 2284 3584 
Q 2666 3584 2933 3390 
Q 3200 3197 3328 2828 
z
" transform="scale(0.015625)"/>
       <path id="DejaVuSans-69" d="M 603 3500 
L 1178 3500 
L 1178 0 
L 603 0 
L 603 3500 
z
M 603 4863 
L 1178 4863 
L 1178 4134 
L 603 4134 
L 603 4863 
z
" transform="scale(0.015625)"/>
       <path id="DejaVuSans-6c" d="M 603 4863 
L 1178 4863 
L 1178 0 
L 603 0 
L 603 4863 
z
" transform="scale(0.015625)"/>
       <path id="DejaVuSans-74" d="M 1172 4494 
L 1172 3500 
L 2356 3500 
L 2356 3053 
L 1172 3053 
L 1172 1153 
Q 1172 725 1289 603 
Q 1406 481 1766 481 
L 2356 481 
L 2356 0 
L 1766 0 
Q 1100 0 847 248 
Q 594 497 594 1153 
L 594 3053 
L 172 3053 
L 172 3500 
L 594 3500 
L 594 4494 
L 1172 4494 
z
" transform="scale(0.015625)"/>
       <path id="DejaVuSans-61" d="M 2194 1759 
Q 1497 1759 1228 1600 
Q 959 1441 959 1056 
Q 959 750 1161 570 
Q 1363 391 1709 391 
Q 2188 391 2477 730 
Q 2766 1069 2766 1631 
L 2766 1759 
L 2194 1759 
z
M 3341 1997 
L 3341 0 
L 2766 0 
L 2766 531 
Q 2569 213 2275 61 
Q 1981 -91 1556 -91 
Q 1019 -91 701 211 
Q 384 513 384 1019 
Q 384 1609 779 1909 
Q 1175 2209 1959 2209 
L 2766 2209 
L 2766 2266 
Q 2766 2663 2505 2880 
Q 2244 3097 1772 3097 
Q 1472 3097 1187 3025 
Q 903 2953 641 2809 
L 641 3341 
Q 956 3463 1253 3523 
Q 1550 3584 1831 3584 
Q 2591 3584 2966 3190 
Q 3341 2797 3341 1997 
z
" transform="scale(0.015625)"/>
       <path id="DejaVuSans-72" d="M 2631 2963 
Q 2534 3019 2420 3045 
Q 2306 3072 2169 3072 
Q 1681 3072 1420 2755 
Q 1159 2438 1159 1844 
L 1159 0 
L 581 0 
L 581 3500 
L 1159 3500 
L 1159 2956 
Q 1341 3275 1631 3429 
Q 1922 3584 2338 3584 
Q 2397 3584 2469 3576 
Q 2541 3569 2628 3553 
L 2631 2963 
z
" transform="scale(0.015625)"/>
      </defs>
      <use xlink:href="#DejaVuSans-6d"/>
      <use xlink:href="#DejaVuSans-69" transform="translate(97.412109 0)"/>
      <use xlink:href="#DejaVuSans-6c" transform="translate(125.195312 0)"/>
      <use xlink:href="#DejaVuSans-69" transform="translate(152.978516 0)"/>
      <use xlink:href="#DejaVuSans-74" transform="translate(180.761719 0)"/>
      <use xlink:href="#DejaVuSans-61" transform="translate(219.970703 0)"/>
      <use xlink:href="#DejaVuSans-72" transform="translate(281.25 0)"/>
     </g>
    </g>
   </g>
   <g id="text_2">
    <g id="patch_3">
     <path d="M 463.772779 147.888711 
L 514.503247 147.888711 
L 514.503247 136.838398 
L 463.772779 136.838398 
z
" clip-path="url(#p9076b5e187)" style="fill: #ffffff; opacity: 0.75"/>
    </g>
    <g clip-path="url(#p9076b5e187)">
     <!-- translation -->
     <g transform="translate(464.942779 144.846992) scale(0.09 -0.09)">
      <defs>
       <path id="DejaVuSans-6e" d="M 3513 2113 
L 3513 0 
L 2938 0 
L 2938 2094 
Q 2938 2591 2744 2837 
Q 2550 3084 2163 3084 
Q 1697 3084 1428 2787 
Q 1159 2491 1159 1978 
L 1159 0 
L 581 0 
L 581 3500 
L 1159 3500 
L 1159 2956 
Q 1366 3272 1645 3428 
Q 1925 3584 2291 3584 
Q 2894 3584 3203 3211 
Q 3513 2838 3513 2113 
z
" transform="scale(0.015625)"/>
       <path id="DejaVuSans-73" d="M 2834 3397 
L 2834 2853 
Q 2591 2978 2328 3040 
Q 2066 3103 1784 3103 
Q 1356 3103 1142 2972 
Q 928 2841 928 2578 
Q 928 2378 1081 2264 
Q 1234 2150 1697 2047 
L 1894 2003 
Q 2506 1872 2764 1633 
Q 3022 1394 3022 966 
Q 3022 478 2636 193 
Q 2250 -91 1575 -91 
Q 1294 -91 989 -36 
Q 684 19 347 128 
L 347 722 
Q 666 556 975 473 
Q 1284 391 1588 391 
Q 1994 391 2212 530 
Q 2431 669 2431 922 
Q 2431 1156 2273 1281 
Q 2116 1406 1581 1522 
L 1381 1569 
Q 847 1681 609 1914 
Q 372 2147 372 2553 
Q 372 3047 722 3315 
Q 1072 3584 1716 3584 
Q 2034 3584 2315 3537 
Q 2597 3491 2834 3397 
z
" transform="scale(0.015625)"/>
       <path id="DejaVuSans-6f" d="M 1959 3097 
Q 1497 3097 1228 2736 
Q 959 2375 959 1747 
Q 959 1119 1226 758 
Q 1494 397 1959 397 
Q 2419 397 2687 759 
Q 2956 1122 2956 1747 
Q 2956 2369 2687 2733 
Q 2419 3097 1959 3097 
z
M 1959 3584 
Q 2709 3584 3137 3096 
Q 3566 2609 3566 1747 
Q 3566 888 3137 398 
Q 2709 -91 1959 -91 
Q 1206 -91 779 398 
Q 353 888 353 1747 
Q 353 2609 779 3096 
Q 1206 3584 1959 3584 
z
" transform="scale(0.015625)"/>
      </defs>
      <use xlink:href="#DejaVuSans-74"/>
      <use xlink:href="#DejaVuSans-72" transform="translate(39.208984 0)"/>
      <use xlink:href="#DejaVuSans-61" transform="translate(80.322266 0)"/>
      <use xlink:href="#DejaVuSans-6e" transform="translate(141.601562 0)"/>
      <use xlink:href="#DejaVuSans-73" transform="translate(204.980469 0)"/>
      <use xlink:href="#DejaVuSans-6c" transform="translate(257.080078 0)"/>
      <use xlink:href="#DejaVuSans-61" transform="translate(284.863281 0)"/>
      <use xlink:href="#DejaVuSans-74" transform="translate(346.142578 0)"/>
      <use xlink:href="#DejaVuSans-69" transform="translate(385.351562 0)"/>
      <use xlink:href="#DejaVuSans-6f" transform="translate(413.134766 0)"/>
      <use xlink:href="#DejaVuSans-6e" transform="translate(474.316406 0)"/>
     </g>
    </g>
   </g>
   <g id="text_3">
    <g id="patch_4">
     <path d="M 281.011184 199.013535 
L 319.899622 199.013535 
L 319.899622 187.963223 
L 281.011184 187.963223 
z
" clip-path="url(#p9076b5e187)" style="fill: #ffffff; opacity: 0.75"/>
    </g>
    <g clip-path="url(#p9076b5e187)">
     <!-- network -->
     <g transform="translate(282.181184 195.971816) scale(0.09 -0.09)">
      <defs>
       <path id="DejaVuSans-65" d="M 3597 1894 
L 3597 1613 
L 953 1613 
Q 991 1019 1311 708 
Q 1631 397 2203 397 
Q 2534 397 2845 478 
Q 3156 559 3463 722 
L 3463 178 
Q 3153 47 2828 -22 
Q 2503 -91 2169 -91 
Q 1331 -91 842 396 
Q 353 884 353 1716 
Q 353 2575 817 3079 
Q 1281 3584 2069 3584 
Q 2775 3584 3186 3129 
Q 3597 2675 3597 1894 
z
M 3022 2063 
Q 3016 2534 2758 2815 
Q 2500 3097 2075 3097 
Q 1594 3097 1305 2825 
Q 1016 2553 972 2059 
L 3022 2063 
z
" transform="scale(0.015625)"/>
       <path id="DejaVuSans-77" d="M 269 3500 
L 844 3500 
L 1563 769 
L 2278 3500 
L 2956 3500 
L 3675 769 
L 4391 3500 
L 4966 3500 
L 4050 0 
L 3372 0 
L 2619 2869 
L 1863 0 
L 1184 0 
L 269 3500 
z
" transform="scale(0.015625)"/>
       <path id="DejaVuSans-6b" d="M 581 4863 
L 1159 4863 
L 1159 1991 
L 2875 3500 
L 3609 3500 
L 1753 1863 
L 3688 0 
L 2938 0 
L 1159 1709 
L 1159 0 
L 581 0 
L 581 4863 
z
" transform="scale(0.015625)"/>
      </defs>
      <use xlink:href="#DejaVuSans-6e"/>
      <use xlink:href="#DejaVuSans-65" transform="translate(63.378906 0)"/>
      <use xlink:href="#DejaVuSans-74" transform="translate(124.902344 0)"/>
      <use xlink:href="#DejaVuSans-77" transform="translate(164.111328 0)"/>
      <use xlink:href="#DejaVuSans-6f" transform="translate(245.898438 0)"/>
      <use xlink:href="#DejaVuSans-72" transform="translate(307.080078 0)"/>
      <use xlink:href="#DejaVuSans-6b" transform="translate(348.193359 0)"/>
     </g>
    </g>
   </g>
   <g id="text_4">
    <g id="patch_5">
     <path d="M 16.485707 235.463742 
L 114.125863 235.463742 
L 114.125863 224.163117 
L 16.485707 224.163117 
z
" clip-path="url(#p9076b5e187)" style="fill: #ffffff; opacity: 0.75"/>
    </g>
    <g clip-path="url(#p9076b5e187)">
     <!-- centre_of_calculation -->
     <g transform="translate(17.655707 232.171711) scale(0.09 -0.09)">
      <defs>
       <path id="DejaVuSans-63" d="M 3122 3366 
L 3122 2828 
Q 2878 2963 2633 3030 
Q 2388 3097 2138 3097 
Q 1578 3097 1268 2742 
Q 959 2388 959 1747 
Q 959 1106 1268 751 
Q 1578 397 2138 397 
Q 2388 397 2633 464 
Q 2878 531 3122 666 
L 3122 134 
Q 2881 22 2623 -34 
Q 2366 -91 2075 -91 
Q 1284 -91 818 406 
Q 353 903 353 1747 
Q 353 2603 823 3093 
Q 1294 3584 2113 3584 
Q 2378 3584 2631 3529 
Q 2884 3475 3122 3366 
z
" transform="scale(0.015625)"/>
       <path id="DejaVuSans-5f" d="M 3263 -1063 
L 3263 -1509 
L -63 -1509 
L -63 -1063 
L 3263 -1063 
z
" transform="scale(0.015625)"/>
       <path id="DejaVuSans-66" d="M 2375 4863 
L 2375 4384 
L 1825 4384 
Q 1516 4384 1395 4259 
Q 1275 4134 1275 3809 
L 1275 3500 
L 2222 3500 
L 2222 3053 
L 1275 3053 
L 1275 0 
L 697 0 
L 697 3053 
L 147 3053 
L 147 3500 
L 697 3500 
L 697 3744 
Q 697 4328 969 4595 
Q 1241 4863 1831 4863 
L 2375 4863 
z
" transform="scale(0.015625)"/>
       <path id="DejaVuSans-75" d="M 544 1381 
L 544 3500 
L 1119 3500 
L 1119 1403 
Q 1119 906 1312 657 
Q 1506 409 1894 409 
Q 2359 409 2629 706 
Q 2900 1003 2900 1516 
L 2900 3500 
L 3475 3500 
L 3475 0 
L 2900 0 
L 2900 538 
Q 2691 219 2414 64 
Q 2138 -91 1772 -91 
Q 1169 -91 856 284 
Q 544 659 544 1381 
z
M 1991 3584 
L 1991 3584 
z
" transform="scale(0.015625)"/>
      </defs>
      <use xlink:href="#DejaVuSans-63"/>
      <use xlink:href="#DejaVuSans-65" transform="translate(54.980469 0)"/>
      <use xlink:href="#DejaVuSans-6e" transform="translate(116.503906 0)"/>
      <use xlink:href="#DejaVuSans-74" transform="translate(179.882812 0)"/>
      <use xlink:href="#DejaVuSans-72" transform="translate(219.091797 0)"/>
      <use xlink:href="#DejaVuSans-65" transform="translate(257.955078 0)"/>
      <use xlink:href="#DejaVuSans-5f" transform="translate(319.478516 0)"/>
      <use xlink:href="#DejaVuSans-6f" transform="translate(369.478516 0)"/>
      <use xlink:href="#DejaVuSans-66" transform="translate(430.660156 0)"/>
      <use xlink:href="#DejaVuSans-5f" transform="translate(465.865234 0)"/>
      <use xlink:href="#DejaVuSans-63" transform="translate(515.865234 0)"/>
      <use xlink:href="#DejaVuSans-61" transform="translate(570.845703 0)"/>
      <use xlink:href="#DejaVuSans-6c" transform="translate(632.125 0)"/>
      <use xlink:href="#DejaVuSans-63" transform="translate(659.908203 0)"/>
      <use xlink:href="#DejaVuSans-75" transform="translate(714.888672 0)"/>
      <use xlink:href="#DejaVuSans-6c" transform="translate(778.267578 0)"/>
      <use xlink:href="#DejaVuSans-61" transform="translate(806.050781 0)"/>
      <use xlink:href="#DejaVuSans-74" transform="translate(867.330078 0)"/>
      <use xlink:href="#DejaVuSans-69" transform="translate(906.539062 0)"/>
      <use xlink:href="#DejaVuSans-6f" transform="translate(934.322266 0)"/>
      <use xlink:href="#DejaVuSans-6e" transform="translate(995.503906 0)"/>
     </g>
    </g>
   </g>
   <g id="text_5">
    <g id="patch_6">
     <path d="M 500.803737 243.432974 
L 547.799206 243.432974 
L 547.799206 232.132349 
L 500.803737 232.132349 
z
" clip-path="url(#p9076b5e187)" style="fill: #ffffff; opacity: 0.75"/>
    </g>
    <g clip-path="url(#p9076b5e187)">
     <!-- black_box -->
     <g transform="translate(501.973737 240.140943) scale(0.09 -0.09)">
      <defs>
       <path id="DejaVuSans-62" d="M 3116 1747 
Q 3116 2381 2855 2742 
Q 2594 3103 2138 3103 
Q 1681 3103 1420 2742 
Q 1159 2381 1159 1747 
Q 1159 1113 1420 752 
Q 1681 391 2138 391 
Q 2594 391 2855 752 
Q 3116 1113 3116 1747 
z
M 1159 2969 
Q 1341 3281 1617 3432 
Q 1894 3584 2278 3584 
Q 2916 3584 3314 3078 
Q 3713 2572 3713 1747 
Q 3713 922 3314 415 
Q 2916 -91 2278 -91 
Q 1894 -91 1617 61 
Q 1341 213 1159 525 
L 1159 0 
L 581 0 
L 581 4863 
L 1159 4863 
L 1159 2969 
z
" transform="scale(0.015625)"/>
       <path id="DejaVuSans-78" d="M 3513 3500 
L 2247 1797 
L 3578 0 
L 2900 0 
L 1881 1375 
L 863 0 
L 184 0 
L 1544 1831 
L 300 3500 
L 978 3500 
L 1906 2253 
L 2834 3500 
L 3513 3500 
z
" transform="scale(0.015625)"/>
      </defs>
      <use xlink:href="#DejaVuSans-62"/>
      <use xlink:href="#DejaVuSans-6c" transform="translate(63.476562 0)"/>
      <use xlink:href="#DejaVuSans-61" transform="translate(91.259766 0)"/>
      <use xlink:href="#DejaVuSans-63" transform="translate(152.539062 0)"/>
      <use xlink:href="#DejaVuSans-6b" transform="translate(207.519531 0)"/>
      <use xlink:href="#DejaVuSans-5f" transform="translate(265.429688 0)"/>
      <use xlink:href="#DejaVuSans-62" transform="translate(315.429688 0)"/>
      <use xlink:href="#DejaVuSans-6f" transform="translate(378.90625 0)"/>
      <use xlink:href="#DejaVuSans-78" transform="translate(436.962891 0)"/>
     </g>
    </g>
   </g>
   <g id="text_6">
    <g id="patch_7">
     <path d="M 344.616938 257.641485 
L 388.948969 257.641485 
L 388.948969 246.591172 
L 344.616938 246.591172 
z
" clip-path="url(#p9076b5e187)" style="fill: #ffffff; opacity: 0.75"/>
    </g>
    <g clip-path="url(#p9076b5e187)">
     <!-- topologia -->
     <g transform="translate(345.786938 254.599766) scale(0.09 -0.09)">
      <defs>
       <path id="DejaVuSans-70" d="M 1159 525 
L 1159 -1331 
L 581 -1331 
L 581 3500 
L 1159 3500 
L 1159 2969 
Q 1341 3281 1617 3432 
Q 1894 3584 2278 3584 
Q 2916 3584 3314 3078 
Q 3713 2572 3713 1747 
Q 3713 922 3314 415 
Q 2916 -91 2278 -91 
Q 1894 -91 1617 61 
Q 1341 213 1159 525 
z
M 3116 1747 
Q 3116 2381 2855 2742 
Q 2594 3103 2138 3103 
Q 1681 3103 1420 2742 
Q 1159 2381 1159 1747 
Q 1159 1113 1420 752 
Q 1681 391 2138 391 
Q 2594 391 2855 752 
Q 3116 1113 3116 1747 
z
" transform="scale(0.015625)"/>
       <path id="DejaVuSans-67" d="M 2906 1791 
Q 2906 2416 2648 2759 
Q 2391 3103 1925 3103 
Q 1463 3103 1205 2759 
Q 947 2416 947 1791 
Q 947 1169 1205 825 
Q 1463 481 1925 481 
Q 2391 481 2648 825 
Q 2906 1169 2906 1791 
z
M 3481 434 
Q 3481 -459 3084 -895 
Q 2688 -1331 1869 -1331 
Q 1566 -1331 1297 -1286 
Q 1028 -1241 775 -1147 
L 775 -588 
Q 1028 -725 1275 -790 
Q 1522 -856 1778 -856 
Q 2344 -856 2625 -561 
Q 2906 -266 2906 331 
L 2906 616 
Q 2728 306 2450 153 
Q 2172 0 1784 0 
Q 1141 0 747 490 
Q 353 981 353 1791 
Q 353 2603 747 3093 
Q 1141 3584 1784 3584 
Q 2172 3584 2450 3431 
Q 2728 3278 2906 2969 
L 2906 3500 
L 3481 3500 
L 3481 434 
z
" transform="scale(0.015625)"/>
      </defs>
      <use xlink:href="#DejaVuSans-74"/>
      <use xlink:href="#DejaVuSans-6f" transform="translate(39.208984 0)"/>
      <use xlink:href="#DejaVuSans-70" transform="translate(100.390625 0)"/>
      <use xlink:href="#DejaVuSans-6f" transform="translate(163.867188 0)"/>
      <use xlink:href="#DejaVuSans-6c" transform="translate(225.048828 0)"/>
      <use xlink:href="#DejaVuSans-6f" transform="translate(252.832031 0)"/>
      <use xlink:href="#DejaVuSans-67" transform="translate(314.013672 0)"/>
      <use xlink:href="#DejaVuSans-69" transform="translate(377.490234 0)"/>
      <use xlink:href="#DejaVuSans-61" transform="translate(405.273438 0)"/>
     </g>
    </g>
   </g>
   <g id="text_7">
    <g id="patch_8">
     <path d="M 346.506788 72.733559 
L 404.814132 72.733559 
L 404.814132 61.683246 
L 346.506788 61.683246 
z
" clip-path="url(#p9076b5e187)" style="fill: #ffffff; opacity: 0.75"/>
    </g>
    <g clip-path="url(#p9076b5e187)">
     <!-- construction -->
     <g transform="translate(347.676788 69.69184) scale(0.09 -0.09)">
      <use xlink:href="#DejaVuSans-63"/>
      <use xlink:href="#DejaVuSans-6f" transform="translate(54.980469 0)"/>
      <use xlink:href="#DejaVuSans-6e" transform="translate(116.162109 0)"/>
      <use xlink:href="#DejaVuSans-73" transform="translate(179.541016 0)"/>
      <use xlink:href="#DejaVuSans-74" transform="translate(231.640625 0)"/>
      <use xlink:href="#DejaVuSans-72" transform="translate(270.849609 0)"/>
      <use xlink:href="#DejaVuSans-75" transform="translate(311.962891 0)"/>
      <use xlink:href="#DejaVuSans-63" transform="translate(375.341797 0)"/>
      <use xlink:href="#DejaVuSans-74" transform="translate(430.322266 0)"/>
      <use xlink:href="#DejaVuSans-69" transform="translate(469.53125 0)"/>
      <use xlink:href="#DejaVuSans-6f" transform="translate(497.314453 0)"/>
      <use xlink:href="#DejaVuSans-6e" transform="translate(558.496094 0)"/>
     </g>
    </g>
   </g>
   <g id="text_8">
    <g id="patch_9">
     <path d="M 384.682116 174.245443 
L 409.786491 174.245443 
L 409.786491 163.19513 
L 384.682116 163.19513 
z
" clip-path="url(#p9076b5e187)" style="fill: #ffffff; opacity: 0.75"/>
    </g>
    <g clip-path="url(#p9076b5e187)">
     <!-- textil -->
     <g transform="translate(385.852116 171.203724) scale(0.09 -0.09)">
      <use xlink:href="#DejaVuSans-74"/>
      <use xlink:href="#DejaVuSans-65" transform="translate(39.208984 0)"/>
      <use xlink:href="#DejaVuSans-78" transform="translate(98.982422 0)"/>
      <use xlink:href="#DejaVuSans-74" transform="translate(158.162109 0)"/>
      <use xlink:href="#DejaVuSans-69" transform="translate(197.371094 0)"/>
      <use xlink:href="#DejaVuSans-6c" transform="translate(225.154297 0)"/>
     </g>
    </g>
   </g>
   <g id="text_9">
    <g id="patch_10">
     <path d="M 236.141686 318.364844 
L 285.475749 318.364844 
L 285.475749 307.314531 
L 236.141686 307.314531 
z
" clip-path="url(#p9076b5e187)" style="fill: #ffffff; opacity: 0.75"/>
    </g>
    <g clip-path="url(#p9076b5e187)">
     <!-- inscription -->
     <g transform="translate(237.311686 315.323125) scale(0.09 -0.09)">
      <use xlink:href="#DejaVuSans-69"/>
      <use xlink:href="#DejaVuSans-6e" transform="translate(27.783203 0)"/>
      <use xlink:href="#DejaVuSans-73" transform="translate(91.162109 0)"/>
      <use xlink:href="#DejaVuSans-63" transform="translate(143.261719 0)"/>
      <use xlink:href="#DejaVuSans-72" transform="translate(198.242188 0)"/>
      <use xlink:href="#DejaVuSans-69" transform="translate(239.355469 0)"/>
      <use xlink:href="#DejaVuSans-70" transform="translate(267.138672 0)"/>
      <use xlink:href="#DejaVuSans-74" transform="translate(330.615234 0)"/>
      <use xlink:href="#DejaVuSans-69" transform="translate(369.824219 0)"/>
      <use xlink:href="#DejaVuSans-6f" transform="translate(397.607422 0)"/>
      <use xlink:href="#DejaVuSans-6e" transform="translate(458.789062 0)"/>
     </g>
    </g>
   </g>
   <g id="text_10">
    <g id="patch_11">
     <path d="M 372.564941 441.469174 
L 436.775723 441.469174 
L 436.775723 430.418862 
L 372.564941 430.418862 
z
" clip-path="url(#p9076b5e187)" style="fill: #ffffff; opacity: 0.75"/>
    </g>
    <g clip-path="url(#p9076b5e187)">
     <!-- spokesperson -->
     <g transform="translate(373.734941 438.427455) scale(0.09 -0.09)">
      <use xlink:href="#DejaVuSans-73"/>
      <use xlink:href="#DejaVuSans-70" transform="translate(52.099609 0)"/>
      <use xlink:href="#DejaVuSans-6f" transform="translate(115.576172 0)"/>
      <use xlink:href="#DejaVuSans-6b" transform="translate(176.757812 0)"/>
      <use xlink:href="#DejaVuSans-65" transform="translate(231.042969 0)"/>
      <use xlink:href="#DejaVuSans-73" transform="translate(292.566406 0)"/>
      <use xlink:href="#DejaVuSans-70" transform="translate(344.666016 0)"/>
      <use xlink:href="#DejaVuSans-65" transform="translate(408.142578 0)"/>
      <use xlink:href="#DejaVuSans-72" transform="translate(469.666016 0)"/>
      <use xlink:href="#DejaVuSans-73" transform="translate(510.779297 0)"/>
      <use xlink:href="#DejaVuSans-6f" transform="translate(562.878906 0)"/>
      <use xlink:href="#DejaVuSans-6e" transform="translate(624.060547 0)"/>
     </g>
    </g>
   </g>
   <g id="text_11">
    <g id="patch_12">
     <path d="M 312.708612 519.141222 
L 388.369081 519.141222 
L 388.369081 507.840597 
L 312.708612 507.840597 
z
" clip-path="url(#p9076b5e187)" style="fill: #ffffff; opacity: 0.75"/>
    </g>
    <g clip-path="url(#p9076b5e187)">
     <!-- trial_of_strength -->
     <g transform="translate(313.878612 515.84919) scale(0.09 -0.09)">
      <defs>
       <path id="DejaVuSans-68" d="M 3513 2113 
L 3513 0 
L 2938 0 
L 2938 2094 
Q 2938 2591 2744 2837 
Q 2550 3084 2163 3084 
Q 1697 3084 1428 2787 
Q 1159 2491 1159 1978 
L 1159 0 
L 581 0 
L 581 4863 
L 1159 4863 
L 1159 2956 
Q 1366 3272 1645 3428 
Q 1925 3584 2291 3584 
Q 2894 3584 3203 3211 
Q 3513 2838 3513 2113 
z
" transform="scale(0.015625)"/>
      </defs>
      <use xlink:href="#DejaVuSans-74"/>
      <use xlink:href="#DejaVuSans-72" transform="translate(39.208984 0)"/>
      <use xlink:href="#DejaVuSans-69" transform="translate(80.322266 0)"/>
      <use xlink:href="#DejaVuSans-61" transform="translate(108.105469 0)"/>
      <use xlink:href="#DejaVuSans-6c" transform="translate(169.384766 0)"/>
      <use xlink:href="#DejaVuSans-5f" transform="translate(197.167969 0)"/>
      <use xlink:href="#DejaVuSans-6f" transform="translate(247.167969 0)"/>
      <use xlink:href="#DejaVuSans-66" transform="translate(308.349609 0)"/>
      <use xlink:href="#DejaVuSans-5f" transform="translate(343.554688 0)"/>
      <use xlink:href="#DejaVuSans-73" transform="translate(393.554688 0)"/>
      <use xlink:href="#DejaVuSans-74" transform="translate(445.654297 0)"/>
      <use xlink:href="#DejaVuSans-72" transform="translate(484.863281 0)"/>
      <use xlink:href="#DejaVuSans-65" transform="translate(523.726562 0)"/>
      <use xlink:href="#DejaVuSans-6e" transform="translate(585.25 0)"/>
      <use xlink:href="#DejaVuSans-67" transform="translate(648.628906 0)"/>
      <use xlink:href="#DejaVuSans-74" transform="translate(712.105469 0)"/>
      <use xlink:href="#DejaVuSans-68" transform="translate(751.314453 0)"/>
     </g>
    </g>
   </g>
   <g id="text_12">
    <g id="patch_13">
     <path d="M 585.400543 452.91826 
L 651.987887 452.91826 
L 651.987887 441.617635 
L 585.400543 441.617635 
z
" clip-path="url(#p9076b5e187)" style="fill: #ffffff; opacity: 0.75"/>
    </g>
    <g clip-path="url(#p9076b5e187)">
     <!-- actor_network -->
     <g transform="translate(586.570543 449.626229) scale(0.09 -0.09)">
      <use xlink:href="#DejaVuSans-61"/>
      <use xlink:href="#DejaVuSans-63" transform="translate(61.279297 0)"/>
      <use xlink:href="#DejaVuSans-74" transform="translate(116.259766 0)"/>
      <use xlink:href="#DejaVuSans-6f" transform="translate(155.46875 0)"/>
      <use xlink:href="#DejaVuSans-72" transform="translate(216.650391 0)"/>
      <use xlink:href="#DejaVuSans-5f" transform="translate(257.763672 0)"/>
      <use xlink:href="#DejaVuSans-6e" transform="translate(307.763672 0)"/>
      <use xlink:href="#DejaVuSans-65" transform="translate(371.142578 0)"/>
      <use xlink:href="#DejaVuSans-74" transform="translate(432.666016 0)"/>
      <use xlink:href="#DejaVuSans-77" transform="translate(471.875 0)"/>
      <use xlink:href="#DejaVuSans-6f" transform="translate(553.662109 0)"/>
      <use xlink:href="#DejaVuSans-72" transform="translate(614.84375 0)"/>
      <use xlink:href="#DejaVuSans-6b" transform="translate(655.957031 0)"/>
     </g>
    </g>
   </g>
   <g id="text_13">
    <g id="patch_14">
     <path d="M 527.334019 60.834247 
L 578.456831 60.834247 
L 578.456831 49.783935 
L 527.334019 49.783935 
z
" clip-path="url(#p9076b5e187)" style="fill: #ffffff; opacity: 0.75"/>
    </g>
    <g clip-path="url(#p9076b5e187)">
     <!-- enrollment -->
     <g transform="translate(528.504019 57.792528) scale(0.09 -0.09)">
      <use xlink:href="#DejaVuSans-65"/>
      <use xlink:href="#DejaVuSans-6e" transform="translate(61.523438 0)"/>
      <use xlink:href="#DejaVuSans-72" transform="translate(124.902344 0)"/>
      <use xlink:href="#DejaVuSans-6f" transform="translate(163.765625 0)"/>
      <use xlink:href="#DejaVuSans-6c" transform="translate(224.947266 0)"/>
      <use xlink:href="#DejaVuSans-6c" transform="translate(252.730469 0)"/>
      <use xlink:href="#DejaVuSans-6d" transform="translate(280.513672 0)"/>
      <use xlink:href="#DejaVuSans-65" transform="translate(377.925781 0)"/>
      <use xlink:href="#DejaVuSans-6e" transform="translate(439.449219 0)"/>
      <use xlink:href="#DejaVuSans-74" transform="translate(502.828125 0)"/>
     </g>
    </g>
   </g>
   <g id="text_14">
    <!-- Arestas: limiar mínimo de 5 cocorrências. Janela: 100 palavras. -->
    <g style="fill: #505050" transform="translate(417.29525 554.39225) scale(0.08 -0.08)">
     <defs>
      <path id="DejaVuSans-41" d="M 2188 4044 
L 1331 1722 
L 3047 1722 
L 2188 4044 
z
M 1831 4666 
L 2547 4666 
L 4325 0 
L 3669 0 
L 3244 1197 
L 1141 1197 
L 716 0 
L 50 0 
L 1831 4666 
z
" transform="scale(0.015625)"/>
      <path id="DejaVuSans-3a" d="M 750 794 
L 1409 794 
L 1409 0 
L 750 0 
L 750 794 
z
M 750 3309 
L 1409 3309 
L 1409 2516 
L 750 2516 
L 750 3309 
z
" transform="scale(0.015625)"/>
      <path id="DejaVuSans-20" transform="scale(0.015625)"/>
      <path id="DejaVuSans-ed" d="M 1322 5119 
L 1944 5119 
L 926 3944 
L 447 3944 
L 1322 5119 
z
M 603 3500 
L 1178 3500 
L 1178 0 
L 603 0 
L 603 3500 
z
M 891 3584 
L 891 3584 
z
" transform="scale(0.015625)"/>
      <path id="DejaVuSans-64" d="M 2906 2969 
L 2906 4863 
L 3481 4863 
L 3481 0 
L 2906 0 
L 2906 525 
Q 2725 213 2448 61 
Q 2172 -91 1784 -91 
Q 1150 -91 751 415 
Q 353 922 353 1747 
Q 353 2572 751 3078 
Q 1150 3584 1784 3584 
Q 2172 3584 2448 3432 
Q 2725 3281 2906 2969 
z
M 947 1747 
Q 947 1113 1208 752 
Q 1469 391 1925 391 
Q 2381 391 2643 752 
Q 2906 1113 2906 1747 
Q 2906 2381 2643 2742 
Q 2381 3103 1925 3103 
Q 1469 3103 1208 2742 
Q 947 2381 947 1747 
z
" transform="scale(0.015625)"/>
      <path id="DejaVuSans-35" d="M 691 4666 
L 3169 4666 
L 3169 4134 
L 1269 4134 
L 1269 2991 
Q 1406 3038 1543 3061 
Q 1681 3084 1819 3084 
Q 2600 3084 3056 2656 
Q 3513 2228 3513 1497 
Q 3513 744 3044 326 
Q 2575 -91 1722 -91 
Q 1428 -91 1123 -41 
Q 819 9 494 109 
L 494 744 
Q 775 591 1075 516 
Q 1375 441 1709 441 
Q 2250 441 2565 725 
Q 2881 1009 2881 1497 
Q 2881 1984 2565 2268 
Q 2250 2553 1709 2553 
Q 1456 2553 1204 2497 
Q 953 2441 691 2322 
L 691 4666 
z
" transform="scale(0.015625)"/>
      <path id="DejaVuSans-ea" d="M 3597 1894 
L 3597 1613 
L 953 1613 
Q 991 1019 1311 708 
Q 1631 397 2203 397 
Q 2534 397 2845 478 
Q 3156 559 3463 722 
L 3463 178 
Q 3153 47 2828 -22 
Q 2503 -91 2169 -91 
Q 1331 -91 842 396 
Q 353 884 353 1716 
Q 353 2575 817 3079 
Q 1281 3584 2069 3584 
Q 2775 3584 3186 3129 
Q 3597 2675 3597 1894 
z
M 3022 2063 
Q 3016 2534 2758 2815 
Q 2500 3097 2075 3097 
Q 1594 3097 1305 2825 
Q 1016 2553 972 2059 
L 3022 2063 
z
M 1801 5119 
L 2263 5119 
L 3029 3944 
L 2595 3944 
L 2032 4709 
L 1470 3944 
L 1035 3944 
L 1801 5119 
z
" transform="scale(0.015625)"/>
      <path id="DejaVuSans-2e" d="M 684 794 
L 1344 794 
L 1344 0 
L 684 0 
L 684 794 
z
" transform="scale(0.015625)"/>
      <path id="DejaVuSans-4a" d="M 628 4666 
L 1259 4666 
L 1259 325 
Q 1259 -519 939 -900 
Q 619 -1281 -91 -1281 
L -331 -1281 
L -331 -750 
L -134 -750 
Q 284 -750 456 -515 
Q 628 -281 628 325 
L 628 4666 
z
" transform="scale(0.015625)"/>
      <path id="DejaVuSans-31" d="M 794 531 
L 1825 531 
L 1825 4091 
L 703 3866 
L 703 4441 
L 1819 4666 
L 2450 4666 
L 2450 531 
L 3481 531 
L 3481 0 
L 794 0 
L 794 531 
z
" transform="scale(0.015625)"/>
      <path id="DejaVuSans-30" d="M 2034 4250 
Q 1547 4250 1301 3770 
Q 1056 3291 1056 2328 
Q 1056 1369 1301 889 
Q 1547 409 2034 409 
Q 2525 409 2770 889 
Q 3016 1369 3016 2328 
Q 3016 3291 2770 3770 
Q 2525 4250 2034 4250 
z
M 2034 4750 
Q 2819 4750 3233 4129 
Q 3647 3509 3647 2328 
Q 3647 1150 3233 529 
Q 2819 -91 2034 -91 
Q 1250 -91 836 529 
Q 422 1150 422 2328 
Q 422 3509 836 4129 
Q 1250 4750 2034 4750 
z
" transform="scale(0.015625)"/>
      <path id="DejaVuSans-76" d="M 191 3500 
L 800 3500 
L 1894 563 
L 2988 3500 
L 3597 3500 
L 2284 0 
L 1503 0 
L 191 3500 
z
" transform="scale(0.015625)"/>
     </defs>
     <use xlink:href="#DejaVuSans-41"/>
     <use xlink:href="#DejaVuSans-72" transform="translate(68.408203 0)"/>
     <use xlink:href="#DejaVuSans-65" transform="translate(107.271484 0)"/>
     <use xlink:href="#DejaVuSans-73" transform="translate(168.794922 0)"/>
     <use xlink:href="#DejaVuSans-74" transform="translate(220.894531 0)"/>
     <use xlink:href="#DejaVuSans-61" transform="translate(260.103516 0)"/>
     <use xlink:href="#DejaVuSans-73" transform="translate(321.382812 0)"/>
     <use xlink:href="#DejaVuSans-3a" transform="translate(373.482422 0)"/>
     <use xlink:href="#DejaVuSans-20" transform="translate(407.173828 0)"/>
     <use xlink:href="#DejaVuSans-6c" transform="translate(438.960938 0)"/>
     <use xlink:href="#DejaVuSans-69" transform="translate(466.744141 0)"/>
     <use xlink:href="#DejaVuSans-6d" transform="translate(494.527344 0)"/>
     <use xlink:href="#DejaVuSans-69" transform="translate(591.939453 0)"/>
     <use xlink:href="#DejaVuSans-61" transform="translate(619.722656 0)"/>
     <use xlink:href="#DejaVuSans-72" transform="translate(681.001953 0)"/>
     <use xlink:href="#DejaVuSans-20" transform="translate(722.115234 0)"/>
     <use xlink:href="#DejaVuSans-6d" transform="translate(753.902344 0)"/>
     <use xlink:href="#DejaVuSans-ed" transform="translate(851.314453 0)"/>
     <use xlink:href="#DejaVuSans-6e" transform="translate(879.097656 0)"/>
     <use xlink:href="#DejaVuSans-69" transform="translate(942.476562 0)"/>
     <use xlink:href="#DejaVuSans-6d" transform="translate(970.259766 0)"/>
     <use xlink:href="#DejaVuSans-6f" transform="translate(1067.671875 0)"/>
     <use xlink:href="#DejaVuSans-20" transform="translate(1128.853516 0)"/>
     <use xlink:href="#DejaVuSans-64" transform="translate(1160.640625 0)"/>
     <use xlink:href="#DejaVuSans-65" transform="translate(1224.117188 0)"/>
     <use xlink:href="#DejaVuSans-20" transform="translate(1285.640625 0)"/>
     <use xlink:href="#DejaVuSans-35" transform="translate(1317.427734 0)"/>
     <use xlink:href="#DejaVuSans-20" transform="translate(1381.050781 0)"/>
     <use xlink:href="#DejaVuSans-63" transform="translate(1412.837891 0)"/>
     <use xlink:href="#DejaVuSans-6f" transform="translate(1467.818359 0)"/>
     <use xlink:href="#DejaVuSans-63" transform="translate(1529 0)"/>
     <use xlink:href="#DejaVuSans-6f" transform="translate(1583.980469 0)"/>
     <use xlink:href="#DejaVuSans-72" transform="translate(1645.162109 0)"/>
     <use xlink:href="#DejaVuSans-72" transform="translate(1684.525391 0)"/>
     <use xlink:href="#DejaVuSans-ea" transform="translate(1723.388672 0)"/>
     <use xlink:href="#DejaVuSans-6e" transform="translate(1784.912109 0)"/>
     <use xlink:href="#DejaVuSans-63" transform="translate(1848.291016 0)"/>
     <use xlink:href="#DejaVuSans-69" transform="translate(1903.271484 0)"/>
     <use xlink:href="#DejaVuSans-61" transform="translate(1931.054688 0)"/>
     <use xlink:href="#DejaVuSans-73" transform="translate(1992.333984 0)"/>
     <use xlink:href="#DejaVuSans-2e" transform="translate(2044.433594 0)"/>
     <use xlink:href="#DejaVuSans-20" transform="translate(2076.220703 0)"/>
     <use xlink:href="#DejaVuSans-4a" transform="translate(2108.007812 0)"/>
     <use xlink:href="#DejaVuSans-61" transform="translate(2137.5 0)"/>
     <use xlink:href="#DejaVuSans-6e" transform="translate(2198.779297 0)"/>
     <use xlink:href="#DejaVuSans-65" transform="translate(2262.158203 0)"/>
     <use xlink:href="#DejaVuSans-6c" transform="translate(2323.681641 0)"/>
     <use xlink:href="#DejaVuSans-61" transform="translate(2351.464844 0)"/>
     <use xlink:href="#DejaVuSans-3a" transform="translate(2412.744141 0)"/>
     <use xlink:href="#DejaVuSans-20" transform="translate(2446.435547 0)"/>
     <use xlink:href="#DejaVuSans-31" transform="translate(2478.222656 0)"/>
     <use xlink:href="#DejaVuSans-30" transform="translate(2541.845703 0)"/>
     <use xlink:href="#DejaVuSans-30" transform="translate(2605.46875 0)"/>
     <use xlink:href="#DejaVuSans-20" transform="translate(2669.091797 0)"/>
     <use xlink:href="#DejaVuSans-70" transform="translate(2700.878906 0)"/>
     <use xlink:href="#DejaVuSans-61" transform="translate(2764.355469 0)"/>
     <use xlink:href="#DejaVuSans-6c" transform="translate(2825.634766 0)"/>
     <use xlink:href="#DejaVuSans-61" transform="translate(2853.417969 0)"/>
     <use xlink:href="#DejaVuSans-76" transform="translate(2914.697266 0)"/>
     <use xlink:href="#DejaVuSans-72" transform="translate(2973.876953 0)"/>
     <use xlink:href="#DejaVuSans-61" transform="translate(3014.990234 0)"/>
     <use xlink:href="#DejaVuSans-73" transform="translate(3076.269531 0)"/>
     <use xlink:href="#DejaVuSans-2e" transform="translate(3128.369141 0)"/>
    </g>
   </g>
  </g>
 </g>
 <defs>
  <clipPath id="p9076b5e187">
   <rect x="7.2" y="7.2" width="669.6" height="554.4"/>
  </clipPath>
 </defs>
</svg>
